<?xml version="1.0" encoding="utf-8"?>
<svg xmlns="http://www.w3.org/2000/svg" xmlns:xlink="http://www.w3.org/1999/xlink" width="600" height="400" viewBox="0 0 2400 1600">
<defs>
  <clipPath id="clip510">
    <rect x="0" y="0" width="2400" height="1600"/>
  </clipPath>
</defs>
<path clip-path="url(#clip510)" d="M0 1600 L2400 1600 L2400 0 L0 0  Z" fill="#ffffff" fill-rule="evenodd" fill-opacity="1"/>
<defs>
  <clipPath id="clip511">
    <rect x="480" y="0" width="1681" height="1600"/>
  </clipPath>
</defs>
<path clip-path="url(#clip510)" d="M210.746 1423.18 L2352.76 1423.18 L2352.76 123.472 L210.746 123.472  Z" fill="#ffffff" fill-rule="evenodd" fill-opacity="1"/>
<defs>
  <clipPath id="clip512">
    <rect x="210" y="123" width="2143" height="1301"/>
  </clipPath>
</defs>
<polyline clip-path="url(#clip512)" style="stroke:#000000; stroke-linecap:round; stroke-linejoin:round; stroke-width:2; stroke-opacity:0.1; fill:none" points="271.369,1423.18 271.369,123.472 "/>
<polyline clip-path="url(#clip512)" style="stroke:#000000; stroke-linecap:round; stroke-linejoin:round; stroke-width:2; stroke-opacity:0.1; fill:none" points="776.56,1423.18 776.56,123.472 "/>
<polyline clip-path="url(#clip512)" style="stroke:#000000; stroke-linecap:round; stroke-linejoin:round; stroke-width:2; stroke-opacity:0.1; fill:none" points="1281.75,1423.18 1281.75,123.472 "/>
<polyline clip-path="url(#clip512)" style="stroke:#000000; stroke-linecap:round; stroke-linejoin:round; stroke-width:2; stroke-opacity:0.1; fill:none" points="1786.94,1423.18 1786.94,123.472 "/>
<polyline clip-path="url(#clip512)" style="stroke:#000000; stroke-linecap:round; stroke-linejoin:round; stroke-width:2; stroke-opacity:0.1; fill:none" points="2292.13,1423.18 2292.13,123.472 "/>
<polyline clip-path="url(#clip510)" style="stroke:#000000; stroke-linecap:round; stroke-linejoin:round; stroke-width:4; stroke-opacity:1; fill:none" points="210.746,1423.18 2352.76,1423.18 "/>
<polyline clip-path="url(#clip510)" style="stroke:#000000; stroke-linecap:round; stroke-linejoin:round; stroke-width:4; stroke-opacity:1; fill:none" points="271.369,1423.18 271.369,1404.28 "/>
<polyline clip-path="url(#clip510)" style="stroke:#000000; stroke-linecap:round; stroke-linejoin:round; stroke-width:4; stroke-opacity:1; fill:none" points="776.56,1423.18 776.56,1404.28 "/>
<polyline clip-path="url(#clip510)" style="stroke:#000000; stroke-linecap:round; stroke-linejoin:round; stroke-width:4; stroke-opacity:1; fill:none" points="1281.75,1423.18 1281.75,1404.28 "/>
<polyline clip-path="url(#clip510)" style="stroke:#000000; stroke-linecap:round; stroke-linejoin:round; stroke-width:4; stroke-opacity:1; fill:none" points="1786.94,1423.18 1786.94,1404.28 "/>
<polyline clip-path="url(#clip510)" style="stroke:#000000; stroke-linecap:round; stroke-linejoin:round; stroke-width:4; stroke-opacity:1; fill:none" points="2292.13,1423.18 2292.13,1404.28 "/>
<path clip-path="url(#clip510)" d="M233.672 1454.1 Q230.061 1454.1 228.233 1457.66 Q226.427 1461.2 226.427 1468.33 Q226.427 1475.44 228.233 1479.01 Q230.061 1482.55 233.672 1482.55 Q237.307 1482.55 239.112 1479.01 Q240.941 1475.44 240.941 1468.33 Q240.941 1461.2 239.112 1457.66 Q237.307 1454.1 233.672 1454.1 M233.672 1450.39 Q239.482 1450.39 242.538 1455 Q245.617 1459.58 245.617 1468.33 Q245.617 1477.06 242.538 1481.67 Q239.482 1486.25 233.672 1486.25 Q227.862 1486.25 224.783 1481.67 Q221.728 1477.06 221.728 1468.33 Q221.728 1459.58 224.783 1455 Q227.862 1450.39 233.672 1450.39 Z" fill="#000000" fill-rule="evenodd" fill-opacity="1" /><path clip-path="url(#clip510)" d="M253.834 1479.7 L258.718 1479.7 L258.718 1485.58 L253.834 1485.58 L253.834 1479.7 Z" fill="#000000" fill-rule="evenodd" fill-opacity="1" /><path clip-path="url(#clip510)" d="M278.904 1454.1 Q275.292 1454.1 273.464 1457.66 Q271.658 1461.2 271.658 1468.33 Q271.658 1475.44 273.464 1479.01 Q275.292 1482.55 278.904 1482.55 Q282.538 1482.55 284.343 1479.01 Q286.172 1475.44 286.172 1468.33 Q286.172 1461.2 284.343 1457.66 Q282.538 1454.1 278.904 1454.1 M278.904 1450.39 Q284.714 1450.39 287.769 1455 Q290.848 1459.58 290.848 1468.33 Q290.848 1477.06 287.769 1481.67 Q284.714 1486.25 278.904 1486.25 Q273.093 1486.25 270.015 1481.67 Q266.959 1477.06 266.959 1468.33 Q266.959 1459.58 270.015 1455 Q273.093 1450.39 278.904 1450.39 Z" fill="#000000" fill-rule="evenodd" fill-opacity="1" /><path clip-path="url(#clip510)" d="M309.065 1454.1 Q305.454 1454.1 303.626 1457.66 Q301.82 1461.2 301.82 1468.33 Q301.82 1475.44 303.626 1479.01 Q305.454 1482.55 309.065 1482.55 Q312.7 1482.55 314.505 1479.01 Q316.334 1475.44 316.334 1468.33 Q316.334 1461.2 314.505 1457.66 Q312.7 1454.1 309.065 1454.1 M309.065 1450.39 Q314.876 1450.39 317.931 1455 Q321.01 1459.58 321.01 1468.33 Q321.01 1477.06 317.931 1481.67 Q314.876 1486.25 309.065 1486.25 Q303.255 1486.25 300.177 1481.67 Q297.121 1477.06 297.121 1468.33 Q297.121 1459.58 300.177 1455 Q303.255 1450.39 309.065 1450.39 Z" fill="#000000" fill-rule="evenodd" fill-opacity="1" /><path clip-path="url(#clip510)" d="M739.361 1454.1 Q735.75 1454.1 733.921 1457.66 Q732.116 1461.2 732.116 1468.33 Q732.116 1475.44 733.921 1479.01 Q735.75 1482.55 739.361 1482.55 Q742.995 1482.55 744.801 1479.01 Q746.63 1475.44 746.63 1468.33 Q746.63 1461.2 744.801 1457.66 Q742.995 1454.1 739.361 1454.1 M739.361 1450.39 Q745.171 1450.39 748.227 1455 Q751.305 1459.58 751.305 1468.33 Q751.305 1477.06 748.227 1481.67 Q745.171 1486.25 739.361 1486.25 Q733.551 1486.25 730.472 1481.67 Q727.417 1477.06 727.417 1468.33 Q727.417 1459.58 730.472 1455 Q733.551 1450.39 739.361 1450.39 Z" fill="#000000" fill-rule="evenodd" fill-opacity="1" /><path clip-path="url(#clip510)" d="M759.523 1479.7 L764.407 1479.7 L764.407 1485.58 L759.523 1485.58 L759.523 1479.7 Z" fill="#000000" fill-rule="evenodd" fill-opacity="1" /><path clip-path="url(#clip510)" d="M778.62 1481.64 L794.939 1481.64 L794.939 1485.58 L772.995 1485.58 L772.995 1481.64 Q775.657 1478.89 780.24 1474.26 Q784.847 1469.61 786.027 1468.27 Q788.273 1465.74 789.152 1464.01 Q790.055 1462.25 790.055 1460.56 Q790.055 1457.8 788.111 1456.07 Q786.189 1454.33 783.088 1454.33 Q780.889 1454.33 778.435 1455.09 Q776.004 1455.86 773.227 1457.41 L773.227 1452.69 Q776.051 1451.55 778.504 1450.97 Q780.958 1450.39 782.995 1450.39 Q788.365 1450.39 791.56 1453.08 Q794.754 1455.77 794.754 1460.26 Q794.754 1462.39 793.944 1464.31 Q793.157 1466.2 791.051 1468.8 Q790.472 1469.47 787.37 1472.69 Q784.268 1475.88 778.62 1481.64 Z" fill="#000000" fill-rule="evenodd" fill-opacity="1" /><path clip-path="url(#clip510)" d="M804.8 1451.02 L823.157 1451.02 L823.157 1454.96 L809.083 1454.96 L809.083 1463.43 Q810.101 1463.08 811.12 1462.92 Q812.138 1462.73 813.157 1462.73 Q818.944 1462.73 822.324 1465.9 Q825.703 1469.08 825.703 1474.49 Q825.703 1480.07 822.231 1483.17 Q818.759 1486.25 812.439 1486.25 Q810.263 1486.25 807.995 1485.88 Q805.75 1485.51 803.342 1484.77 L803.342 1480.07 Q805.425 1481.2 807.648 1481.76 Q809.87 1482.32 812.347 1482.32 Q816.351 1482.32 818.689 1480.21 Q821.027 1478.1 821.027 1474.49 Q821.027 1470.88 818.689 1468.77 Q816.351 1466.67 812.347 1466.67 Q810.472 1466.67 808.597 1467.08 Q806.745 1467.5 804.8 1468.38 L804.8 1451.02 Z" fill="#000000" fill-rule="evenodd" fill-opacity="1" /><path clip-path="url(#clip510)" d="M1244.05 1454.1 Q1240.44 1454.1 1238.61 1457.66 Q1236.81 1461.2 1236.81 1468.33 Q1236.81 1475.44 1238.61 1479.01 Q1240.44 1482.55 1244.05 1482.55 Q1247.69 1482.55 1249.49 1479.01 Q1251.32 1475.44 1251.32 1468.33 Q1251.32 1461.2 1249.49 1457.66 Q1247.69 1454.1 1244.05 1454.1 M1244.05 1450.39 Q1249.86 1450.39 1252.92 1455 Q1256 1459.58 1256 1468.33 Q1256 1477.06 1252.92 1481.67 Q1249.86 1486.25 1244.05 1486.25 Q1238.24 1486.25 1235.17 1481.67 Q1232.11 1477.06 1232.11 1468.33 Q1232.11 1459.58 1235.17 1455 Q1238.24 1450.39 1244.05 1450.39 Z" fill="#000000" fill-rule="evenodd" fill-opacity="1" /><path clip-path="url(#clip510)" d="M1264.22 1479.7 L1269.1 1479.7 L1269.1 1485.58 L1264.22 1485.58 L1264.22 1479.7 Z" fill="#000000" fill-rule="evenodd" fill-opacity="1" /><path clip-path="url(#clip510)" d="M1279.33 1451.02 L1297.69 1451.02 L1297.69 1454.96 L1283.61 1454.96 L1283.61 1463.43 Q1284.63 1463.08 1285.65 1462.92 Q1286.67 1462.73 1287.69 1462.73 Q1293.48 1462.73 1296.86 1465.9 Q1300.23 1469.08 1300.23 1474.49 Q1300.23 1480.07 1296.76 1483.17 Q1293.29 1486.25 1286.97 1486.25 Q1284.79 1486.25 1282.53 1485.88 Q1280.28 1485.51 1277.87 1484.77 L1277.87 1480.07 Q1279.96 1481.2 1282.18 1481.76 Q1284.4 1482.32 1286.88 1482.32 Q1290.88 1482.32 1293.22 1480.21 Q1295.56 1478.1 1295.56 1474.49 Q1295.56 1470.88 1293.22 1468.77 Q1290.88 1466.67 1286.88 1466.67 Q1285 1466.67 1283.13 1467.08 Q1281.28 1467.5 1279.33 1468.38 L1279.33 1451.02 Z" fill="#000000" fill-rule="evenodd" fill-opacity="1" /><path clip-path="url(#clip510)" d="M1319.45 1454.1 Q1315.84 1454.1 1314.01 1457.66 Q1312.2 1461.2 1312.2 1468.33 Q1312.2 1475.44 1314.01 1479.01 Q1315.84 1482.55 1319.45 1482.55 Q1323.08 1482.55 1324.89 1479.01 Q1326.72 1475.44 1326.72 1468.33 Q1326.72 1461.2 1324.89 1457.66 Q1323.08 1454.1 1319.45 1454.1 M1319.45 1450.39 Q1325.26 1450.39 1328.31 1455 Q1331.39 1459.58 1331.39 1468.33 Q1331.39 1477.06 1328.31 1481.67 Q1325.26 1486.25 1319.45 1486.25 Q1313.64 1486.25 1310.56 1481.67 Q1307.5 1477.06 1307.5 1468.33 Q1307.5 1459.58 1310.56 1455 Q1313.64 1450.39 1319.45 1450.39 Z" fill="#000000" fill-rule="evenodd" fill-opacity="1" /><path clip-path="url(#clip510)" d="M1749.74 1454.1 Q1746.13 1454.1 1744.3 1457.66 Q1742.5 1461.2 1742.5 1468.33 Q1742.5 1475.44 1744.3 1479.01 Q1746.13 1482.55 1749.74 1482.55 Q1753.38 1482.55 1755.18 1479.01 Q1757.01 1475.44 1757.01 1468.33 Q1757.01 1461.2 1755.18 1457.66 Q1753.38 1454.1 1749.74 1454.1 M1749.74 1450.39 Q1755.55 1450.39 1758.61 1455 Q1761.69 1459.58 1761.69 1468.33 Q1761.69 1477.06 1758.61 1481.67 Q1755.55 1486.25 1749.74 1486.25 Q1743.93 1486.25 1740.85 1481.67 Q1737.8 1477.06 1737.8 1468.33 Q1737.8 1459.58 1740.85 1455 Q1743.93 1450.39 1749.74 1450.39 Z" fill="#000000" fill-rule="evenodd" fill-opacity="1" /><path clip-path="url(#clip510)" d="M1769.91 1479.7 L1774.79 1479.7 L1774.79 1485.58 L1769.91 1485.58 L1769.91 1479.7 Z" fill="#000000" fill-rule="evenodd" fill-opacity="1" /><path clip-path="url(#clip510)" d="M1783.79 1451.02 L1806.02 1451.02 L1806.02 1453.01 L1793.47 1485.58 L1788.59 1485.58 L1800.39 1454.96 L1783.79 1454.96 L1783.79 1451.02 Z" fill="#000000" fill-rule="evenodd" fill-opacity="1" /><path clip-path="url(#clip510)" d="M1815.18 1451.02 L1833.54 1451.02 L1833.54 1454.96 L1819.46 1454.96 L1819.46 1463.43 Q1820.48 1463.08 1821.5 1462.92 Q1822.52 1462.73 1823.54 1462.73 Q1829.33 1462.73 1832.71 1465.9 Q1836.09 1469.08 1836.09 1474.49 Q1836.09 1480.07 1832.61 1483.17 Q1829.14 1486.25 1822.82 1486.25 Q1820.65 1486.25 1818.38 1485.88 Q1816.13 1485.51 1813.72 1484.77 L1813.72 1480.07 Q1815.81 1481.2 1818.03 1481.76 Q1820.25 1482.32 1822.73 1482.32 Q1826.73 1482.32 1829.07 1480.21 Q1831.41 1478.1 1831.41 1474.49 Q1831.41 1470.88 1829.07 1468.77 Q1826.73 1466.67 1822.73 1466.67 Q1820.85 1466.67 1818.98 1467.08 Q1817.13 1467.5 1815.18 1468.38 L1815.18 1451.02 Z" fill="#000000" fill-rule="evenodd" fill-opacity="1" /><path clip-path="url(#clip510)" d="M2244.2 1481.64 L2251.84 1481.64 L2251.84 1455.28 L2243.53 1456.95 L2243.53 1452.69 L2251.8 1451.02 L2256.47 1451.02 L2256.47 1481.64 L2264.11 1481.64 L2264.11 1485.58 L2244.2 1485.58 L2244.2 1481.64 Z" fill="#000000" fill-rule="evenodd" fill-opacity="1" /><path clip-path="url(#clip510)" d="M2273.56 1479.7 L2278.44 1479.7 L2278.44 1485.58 L2273.56 1485.58 L2273.56 1479.7 Z" fill="#000000" fill-rule="evenodd" fill-opacity="1" /><path clip-path="url(#clip510)" d="M2298.63 1454.1 Q2295.01 1454.1 2293.19 1457.66 Q2291.38 1461.2 2291.38 1468.33 Q2291.38 1475.44 2293.19 1479.01 Q2295.01 1482.55 2298.63 1482.55 Q2302.26 1482.55 2304.07 1479.01 Q2305.89 1475.44 2305.89 1468.33 Q2305.89 1461.2 2304.07 1457.66 Q2302.26 1454.1 2298.63 1454.1 M2298.63 1450.39 Q2304.44 1450.39 2307.49 1455 Q2310.57 1459.58 2310.57 1468.33 Q2310.57 1477.06 2307.49 1481.67 Q2304.44 1486.25 2298.63 1486.25 Q2292.82 1486.25 2289.74 1481.67 Q2286.68 1477.06 2286.68 1468.33 Q2286.68 1459.58 2289.74 1455 Q2292.82 1450.39 2298.63 1450.39 Z" fill="#000000" fill-rule="evenodd" fill-opacity="1" /><path clip-path="url(#clip510)" d="M2328.79 1454.1 Q2325.18 1454.1 2323.35 1457.66 Q2321.54 1461.2 2321.54 1468.33 Q2321.54 1475.44 2323.35 1479.01 Q2325.18 1482.55 2328.79 1482.55 Q2332.42 1482.55 2334.23 1479.01 Q2336.06 1475.44 2336.06 1468.33 Q2336.06 1461.2 2334.23 1457.66 Q2332.42 1454.1 2328.79 1454.1 M2328.79 1450.39 Q2334.6 1450.39 2337.65 1455 Q2340.73 1459.58 2340.73 1468.33 Q2340.73 1477.06 2337.65 1481.67 Q2334.6 1486.25 2328.79 1486.25 Q2322.98 1486.25 2319.9 1481.67 Q2316.84 1477.06 2316.84 1468.33 Q2316.84 1459.58 2319.9 1455 Q2322.98 1450.39 2328.79 1450.39 Z" fill="#000000" fill-rule="evenodd" fill-opacity="1" /><path clip-path="url(#clip510)" d="M1298.37 1532.4 L1285.47 1549.74 L1299.03 1568.04 L1292.13 1568.04 L1281.75 1554.04 L1271.37 1568.04 L1264.47 1568.04 L1278.31 1549.39 L1265.65 1532.4 L1272.55 1532.4 L1282.01 1545.1 L1291.46 1532.4 L1298.37 1532.4 Z" fill="#000000" fill-rule="evenodd" fill-opacity="1" /><polyline clip-path="url(#clip512)" style="stroke:#000000; stroke-linecap:round; stroke-linejoin:round; stroke-width:2; stroke-opacity:0.1; fill:none" points="210.746,1388.83 2352.76,1388.83 "/>
<polyline clip-path="url(#clip512)" style="stroke:#000000; stroke-linecap:round; stroke-linejoin:round; stroke-width:2; stroke-opacity:0.1; fill:none" points="210.746,1094.74 2352.76,1094.74 "/>
<polyline clip-path="url(#clip512)" style="stroke:#000000; stroke-linecap:round; stroke-linejoin:round; stroke-width:2; stroke-opacity:0.1; fill:none" points="210.746,800.663 2352.76,800.663 "/>
<polyline clip-path="url(#clip512)" style="stroke:#000000; stroke-linecap:round; stroke-linejoin:round; stroke-width:2; stroke-opacity:0.1; fill:none" points="210.746,506.582 2352.76,506.582 "/>
<polyline clip-path="url(#clip512)" style="stroke:#000000; stroke-linecap:round; stroke-linejoin:round; stroke-width:2; stroke-opacity:0.1; fill:none" points="210.746,212.501 2352.76,212.501 "/>
<polyline clip-path="url(#clip510)" style="stroke:#000000; stroke-linecap:round; stroke-linejoin:round; stroke-width:4; stroke-opacity:1; fill:none" points="210.746,1423.18 210.746,123.472 "/>
<polyline clip-path="url(#clip510)" style="stroke:#000000; stroke-linecap:round; stroke-linejoin:round; stroke-width:4; stroke-opacity:1; fill:none" points="210.746,1388.83 229.644,1388.83 "/>
<polyline clip-path="url(#clip510)" style="stroke:#000000; stroke-linecap:round; stroke-linejoin:round; stroke-width:4; stroke-opacity:1; fill:none" points="210.746,1094.74 229.644,1094.74 "/>
<polyline clip-path="url(#clip510)" style="stroke:#000000; stroke-linecap:round; stroke-linejoin:round; stroke-width:4; stroke-opacity:1; fill:none" points="210.746,800.663 229.644,800.663 "/>
<polyline clip-path="url(#clip510)" style="stroke:#000000; stroke-linecap:round; stroke-linejoin:round; stroke-width:4; stroke-opacity:1; fill:none" points="210.746,506.582 229.644,506.582 "/>
<polyline clip-path="url(#clip510)" style="stroke:#000000; stroke-linecap:round; stroke-linejoin:round; stroke-width:4; stroke-opacity:1; fill:none" points="210.746,212.501 229.644,212.501 "/>
<path clip-path="url(#clip510)" d="M114.631 1389.28 L144.306 1389.28 L144.306 1393.21 L114.631 1393.21 L114.631 1389.28 Z" fill="#000000" fill-rule="evenodd" fill-opacity="1" /><path clip-path="url(#clip510)" d="M158.427 1402.17 L174.746 1402.17 L174.746 1406.11 L152.802 1406.11 L152.802 1402.17 Q155.464 1399.42 160.047 1394.79 Q164.653 1390.13 165.834 1388.79 Q168.079 1386.27 168.959 1384.53 Q169.862 1382.77 169.862 1381.08 Q169.862 1378.33 167.917 1376.59 Q165.996 1374.86 162.894 1374.86 Q160.695 1374.86 158.241 1375.62 Q155.811 1376.38 153.033 1377.94 L153.033 1373.21 Q155.857 1372.08 158.311 1371.5 Q160.765 1370.92 162.802 1370.92 Q168.172 1370.92 171.366 1373.61 Q174.561 1376.29 174.561 1380.78 Q174.561 1382.91 173.751 1384.83 Q172.964 1386.73 170.857 1389.32 Q170.278 1390 167.177 1393.21 Q164.075 1396.41 158.427 1402.17 Z" fill="#000000" fill-rule="evenodd" fill-opacity="1" /><path clip-path="url(#clip510)" d="M114.26 1095.2 L143.936 1095.2 L143.936 1099.13 L114.26 1099.13 L114.26 1095.2 Z" fill="#000000" fill-rule="evenodd" fill-opacity="1" /><path clip-path="url(#clip510)" d="M154.839 1108.09 L162.477 1108.09 L162.477 1081.72 L154.167 1083.39 L154.167 1079.13 L162.431 1077.46 L167.107 1077.46 L167.107 1108.09 L174.746 1108.09 L174.746 1112.02 L154.839 1112.02 L154.839 1108.09 Z" fill="#000000" fill-rule="evenodd" fill-opacity="1" /><path clip-path="url(#clip510)" d="M162.802 786.462 Q159.19 786.462 157.362 790.027 Q155.556 793.568 155.556 800.698 Q155.556 807.805 157.362 811.369 Q159.19 814.911 162.802 814.911 Q166.436 814.911 168.241 811.369 Q170.07 807.805 170.07 800.698 Q170.07 793.568 168.241 790.027 Q166.436 786.462 162.802 786.462 M162.802 782.758 Q168.612 782.758 171.667 787.365 Q174.746 791.948 174.746 800.698 Q174.746 809.425 171.667 814.031 Q168.612 818.615 162.802 818.615 Q156.991 818.615 153.913 814.031 Q150.857 809.425 150.857 800.698 Q150.857 791.948 153.913 787.365 Q156.991 782.758 162.802 782.758 Z" fill="#000000" fill-rule="evenodd" fill-opacity="1" /><path clip-path="url(#clip510)" d="M154.839 519.927 L162.477 519.927 L162.477 493.561 L154.167 495.228 L154.167 490.969 L162.431 489.302 L167.107 489.302 L167.107 519.927 L174.746 519.927 L174.746 523.862 L154.839 523.862 L154.839 519.927 Z" fill="#000000" fill-rule="evenodd" fill-opacity="1" /><path clip-path="url(#clip510)" d="M158.427 225.845 L174.746 225.845 L174.746 229.781 L152.802 229.781 L152.802 225.845 Q155.464 223.091 160.047 218.461 Q164.653 213.808 165.834 212.466 Q168.079 209.943 168.959 208.207 Q169.862 206.447 169.862 204.757 Q169.862 202.003 167.917 200.267 Q165.996 198.531 162.894 198.531 Q160.695 198.531 158.241 199.295 Q155.811 200.058 153.033 201.609 L153.033 196.887 Q155.857 195.753 158.311 195.174 Q160.765 194.596 162.802 194.596 Q168.172 194.596 171.366 197.281 Q174.561 199.966 174.561 204.457 Q174.561 206.586 173.751 208.507 Q172.964 210.406 170.857 212.998 Q170.278 213.669 167.177 216.887 Q164.075 220.081 158.427 225.845 Z" fill="#000000" fill-rule="evenodd" fill-opacity="1" /><path clip-path="url(#clip510)" d="M67.3143 771.639 Q73.68 774.122 75.6216 776.477 Q77.5631 778.832 77.5631 782.779 L77.5631 787.458 L72.6615 787.458 L72.6615 784.02 Q72.6615 781.601 71.5157 780.265 Q70.3699 778.928 66.1048 777.305 L63.4312 776.254 L28.3562 790.673 L28.3562 784.466 L56.238 773.326 L28.3562 762.186 L28.3562 755.979 L67.3143 771.639 Z" fill="#000000" fill-rule="evenodd" fill-opacity="1" /><path clip-path="url(#clip510)" d="M1070.33 72.576 L1047.24 12.096 L1055.79 12.096 L1074.95 63.0159 L1094.15 12.096 L1102.66 12.096 L1079.61 72.576 L1070.33 72.576 Z" fill="#000000" fill-rule="evenodd" fill-opacity="1" /><path clip-path="url(#clip510)" d="M1125.35 49.7694 Q1116.31 49.7694 1112.83 51.8354 Q1109.34 53.9013 1109.34 58.8839 Q1109.34 62.8538 1111.94 65.2034 Q1114.57 67.5124 1119.07 67.5124 Q1125.26 67.5124 1128.99 63.1374 Q1132.76 58.7219 1132.76 51.4303 L1132.76 49.7694 L1125.35 49.7694 M1140.21 46.6907 L1140.21 72.576 L1132.76 72.576 L1132.76 65.6895 Q1130.21 69.8214 1126.4 71.8063 Q1122.59 73.7508 1117.08 73.7508 Q1110.11 73.7508 1105.98 69.8619 Q1101.89 65.9325 1101.89 59.3701 Q1101.89 51.7138 1106.99 47.825 Q1112.14 43.9361 1122.31 43.9361 L1132.76 43.9361 L1132.76 43.2069 Q1132.76 38.0623 1129.36 35.2672 Q1125.99 32.4315 1119.88 32.4315 Q1115.99 32.4315 1112.3 33.3632 Q1108.62 34.295 1105.21 36.1584 L1105.21 29.2718 Q1109.3 27.692 1113.15 26.9223 Q1117 26.1121 1120.65 26.1121 Q1130.49 26.1121 1135.35 31.2163 Q1140.21 36.3204 1140.21 46.6907 Z" fill="#000000" fill-rule="evenodd" fill-opacity="1" /><path clip-path="url(#clip510)" d="M1193.28 45.1919 L1193.28 72.576 L1185.83 72.576 L1185.83 45.4349 Q1185.83 38.994 1183.31 35.7938 Q1180.8 32.5936 1175.78 32.5936 Q1169.74 32.5936 1166.26 36.4419 Q1162.78 40.2903 1162.78 46.9338 L1162.78 72.576 L1155.28 72.576 L1155.28 27.2059 L1162.78 27.2059 L1162.78 34.2544 Q1165.45 30.163 1169.05 28.1376 Q1172.7 26.1121 1177.44 26.1121 Q1185.26 26.1121 1189.27 30.9732 Q1193.28 35.7938 1193.28 45.1919 Z" fill="#000000" fill-rule="evenodd" fill-opacity="1" /><path clip-path="url(#clip510)" d="M1208.15 27.2059 L1215.6 27.2059 L1215.6 72.576 L1208.15 72.576 L1208.15 27.2059 M1208.15 9.54393 L1215.6 9.54393 L1215.6 18.9825 L1208.15 18.9825 L1208.15 9.54393 Z" fill="#000000" fill-rule="evenodd" fill-opacity="1" /><path clip-path="url(#clip510)" d="M1231.2 9.54393 L1238.65 9.54393 L1238.65 72.576 L1231.2 72.576 L1231.2 9.54393 Z" fill="#000000" fill-rule="evenodd" fill-opacity="1" /><path clip-path="url(#clip510)" d="M1254.25 9.54393 L1261.7 9.54393 L1261.7 72.576 L1254.25 72.576 L1254.25 9.54393 Z" fill="#000000" fill-rule="evenodd" fill-opacity="1" /><path clip-path="url(#clip510)" d="M1297.91 49.7694 Q1288.88 49.7694 1285.4 51.8354 Q1281.91 53.9013 1281.91 58.8839 Q1281.91 62.8538 1284.51 65.2034 Q1287.14 67.5124 1291.64 67.5124 Q1297.83 67.5124 1301.56 63.1374 Q1305.33 58.7219 1305.33 51.4303 L1305.33 49.7694 L1297.91 49.7694 M1312.78 46.6907 L1312.78 72.576 L1305.33 72.576 L1305.33 65.6895 Q1302.78 69.8214 1298.97 71.8063 Q1295.16 73.7508 1289.65 73.7508 Q1282.68 73.7508 1278.55 69.8619 Q1274.46 65.9325 1274.46 59.3701 Q1274.46 51.7138 1279.56 47.825 Q1284.71 43.9361 1294.88 43.9361 L1305.33 43.9361 L1305.33 43.2069 Q1305.33 38.0623 1301.92 35.2672 Q1298.56 32.4315 1292.45 32.4315 Q1288.56 32.4315 1284.87 33.3632 Q1281.18 34.295 1277.78 36.1584 L1277.78 29.2718 Q1281.87 27.692 1285.72 26.9223 Q1289.57 26.1121 1293.21 26.1121 Q1303.06 26.1121 1307.92 31.2163 Q1312.78 36.3204 1312.78 46.6907 Z" fill="#000000" fill-rule="evenodd" fill-opacity="1" /><path clip-path="url(#clip510)" d="M1396.07 63.9476 L1396.07 47.7034 L1382.7 47.7034 L1382.7 40.9789 L1404.17 40.9789 L1404.17 66.9452 Q1399.43 70.3075 1393.72 72.0494 Q1388.01 73.7508 1381.52 73.7508 Q1367.35 73.7508 1359.33 65.4869 Q1351.35 57.1826 1351.35 42.3968 Q1351.35 27.5705 1359.33 19.3066 Q1367.35 11.0023 1381.52 11.0023 Q1387.44 11.0023 1392.75 12.4606 Q1398.09 13.9189 1402.59 16.7545 L1402.59 25.464 Q1398.05 21.6156 1392.95 19.6712 Q1387.84 17.7268 1382.21 17.7268 Q1371.11 17.7268 1365.52 23.9246 Q1359.97 30.1225 1359.97 42.3968 Q1359.97 54.6305 1365.52 60.8284 Q1371.11 67.0263 1382.21 67.0263 Q1386.55 67.0263 1389.95 66.2971 Q1393.35 65.5274 1396.07 63.9476 Z" fill="#000000" fill-rule="evenodd" fill-opacity="1" /><path clip-path="url(#clip510)" d="M1427.3 18.8205 L1427.3 41.5461 L1437.59 41.5461 Q1443.3 41.5461 1446.42 38.5889 Q1449.54 35.6318 1449.54 30.163 Q1449.54 24.7348 1446.42 21.7777 Q1443.3 18.8205 1437.59 18.8205 L1427.3 18.8205 M1419.12 12.096 L1437.59 12.096 Q1447.76 12.096 1452.94 16.714 Q1458.17 21.2916 1458.17 30.163 Q1458.17 39.1155 1452.94 43.6931 Q1447.76 48.2706 1437.59 48.2706 L1427.3 48.2706 L1427.3 72.576 L1419.12 72.576 L1419.12 12.096 Z" fill="#000000" fill-rule="evenodd" fill-opacity="1" /><path clip-path="url(#clip510)" d="M1497.83 44.2197 Q1500.46 45.1109 1502.93 48.0275 Q1505.44 50.9442 1507.95 56.0483 L1516.26 72.576 L1507.47 72.576 L1499.73 57.061 Q1496.73 50.9847 1493.9 48.9997 Q1491.1 47.0148 1486.24 47.0148 L1477.33 47.0148 L1477.33 72.576 L1469.15 72.576 L1469.15 12.096 L1487.62 12.096 Q1497.99 12.096 1503.09 16.4305 Q1508.2 20.7649 1508.2 29.5149 Q1508.2 35.2267 1505.52 38.994 Q1502.89 42.7613 1497.83 44.2197 M1477.33 18.8205 L1477.33 40.2903 L1487.62 40.2903 Q1493.53 40.2903 1496.53 37.5762 Q1499.57 34.8216 1499.57 29.5149 Q1499.57 24.2082 1496.53 21.5346 Q1493.53 18.8205 1487.62 18.8205 L1477.33 18.8205 Z" fill="#000000" fill-rule="evenodd" fill-opacity="1" /><circle clip-path="url(#clip512)" cx="1440.84" cy="822.971" r="14.4" fill="#ff0000" fill-rule="evenodd" fill-opacity="1" stroke="#000000" stroke-opacity="1" stroke-width="3.2"/>
<circle clip-path="url(#clip512)" cx="2118.76" cy="793.917" r="14.4" fill="#ff0000" fill-rule="evenodd" fill-opacity="1" stroke="#000000" stroke-opacity="1" stroke-width="3.2"/>
<circle clip-path="url(#clip512)" cx="1554.45" cy="772.038" r="14.4" fill="#ff0000" fill-rule="evenodd" fill-opacity="1" stroke="#000000" stroke-opacity="1" stroke-width="3.2"/>
<circle clip-path="url(#clip512)" cx="456.712" cy="896.371" r="14.4" fill="#ff0000" fill-rule="evenodd" fill-opacity="1" stroke="#000000" stroke-opacity="1" stroke-width="3.2"/>
<circle clip-path="url(#clip512)" cx="1753.64" cy="795.863" r="14.4" fill="#ff0000" fill-rule="evenodd" fill-opacity="1" stroke="#000000" stroke-opacity="1" stroke-width="3.2"/>
<circle clip-path="url(#clip512)" cx="1236.5" cy="839.578" r="14.4" fill="#ff0000" fill-rule="evenodd" fill-opacity="1" stroke="#000000" stroke-opacity="1" stroke-width="3.2"/>
<circle clip-path="url(#clip512)" cx="320.866" cy="521.777" r="14.4" fill="#ff0000" fill-rule="evenodd" fill-opacity="1" stroke="#000000" stroke-opacity="1" stroke-width="3.2"/>
<circle clip-path="url(#clip512)" cx="1492.8" cy="805.082" r="14.4" fill="#ff0000" fill-rule="evenodd" fill-opacity="1" stroke="#000000" stroke-opacity="1" stroke-width="3.2"/>
<circle clip-path="url(#clip512)" cx="1472.48" cy="812.364" r="14.4" fill="#ff0000" fill-rule="evenodd" fill-opacity="1" stroke="#000000" stroke-opacity="1" stroke-width="3.2"/>
<circle clip-path="url(#clip512)" cx="898.969" cy="750.036" r="14.4" fill="#ff0000" fill-rule="evenodd" fill-opacity="1" stroke="#000000" stroke-opacity="1" stroke-width="3.2"/>
<circle clip-path="url(#clip512)" cx="1125.06" cy="737.872" r="14.4" fill="#ff0000" fill-rule="evenodd" fill-opacity="1" stroke="#000000" stroke-opacity="1" stroke-width="3.2"/>
<circle clip-path="url(#clip512)" cx="1181.33" cy="809.78" r="14.4" fill="#ff0000" fill-rule="evenodd" fill-opacity="1" stroke="#000000" stroke-opacity="1" stroke-width="3.2"/>
<circle clip-path="url(#clip512)" cx="515.484" cy="621.74" r="14.4" fill="#ff0000" fill-rule="evenodd" fill-opacity="1" stroke="#000000" stroke-opacity="1" stroke-width="3.2"/>
<circle clip-path="url(#clip512)" cx="379.55" cy="850.479" r="14.4" fill="#ff0000" fill-rule="evenodd" fill-opacity="1" stroke="#000000" stroke-opacity="1" stroke-width="3.2"/>
<circle clip-path="url(#clip512)" cx="2237.64" cy="811.465" r="14.4" fill="#ff0000" fill-rule="evenodd" fill-opacity="1" stroke="#000000" stroke-opacity="1" stroke-width="3.2"/>
<circle clip-path="url(#clip512)" cx="1812.22" cy="812.832" r="14.4" fill="#ff0000" fill-rule="evenodd" fill-opacity="1" stroke="#000000" stroke-opacity="1" stroke-width="3.2"/>
<circle clip-path="url(#clip512)" cx="1799.85" cy="802.332" r="14.4" fill="#ff0000" fill-rule="evenodd" fill-opacity="1" stroke="#000000" stroke-opacity="1" stroke-width="3.2"/>
<circle clip-path="url(#clip512)" cx="1304.37" cy="774.253" r="14.4" fill="#ff0000" fill-rule="evenodd" fill-opacity="1" stroke="#000000" stroke-opacity="1" stroke-width="3.2"/>
<circle clip-path="url(#clip512)" cx="1570.3" cy="792.871" r="14.4" fill="#ff0000" fill-rule="evenodd" fill-opacity="1" stroke="#000000" stroke-opacity="1" stroke-width="3.2"/>
<circle clip-path="url(#clip512)" cx="2226.48" cy="795.633" r="14.4" fill="#ff0000" fill-rule="evenodd" fill-opacity="1" stroke="#000000" stroke-opacity="1" stroke-width="3.2"/>
<circle clip-path="url(#clip512)" cx="697.976" cy="708.238" r="14.4" fill="#ff0000" fill-rule="evenodd" fill-opacity="1" stroke="#000000" stroke-opacity="1" stroke-width="3.2"/>
<circle clip-path="url(#clip512)" cx="1977.38" cy="791.079" r="14.4" fill="#ff0000" fill-rule="evenodd" fill-opacity="1" stroke="#000000" stroke-opacity="1" stroke-width="3.2"/>
<circle clip-path="url(#clip512)" cx="381.902" cy="868.527" r="14.4" fill="#ff0000" fill-rule="evenodd" fill-opacity="1" stroke="#000000" stroke-opacity="1" stroke-width="3.2"/>
<circle clip-path="url(#clip512)" cx="1768.76" cy="784.072" r="14.4" fill="#ff0000" fill-rule="evenodd" fill-opacity="1" stroke="#000000" stroke-opacity="1" stroke-width="3.2"/>
<circle clip-path="url(#clip512)" cx="1274.39" cy="803.123" r="14.4" fill="#ff0000" fill-rule="evenodd" fill-opacity="1" stroke="#000000" stroke-opacity="1" stroke-width="3.2"/>
<circle clip-path="url(#clip512)" cx="2143.85" cy="782.844" r="14.4" fill="#ff0000" fill-rule="evenodd" fill-opacity="1" stroke="#000000" stroke-opacity="1" stroke-width="3.2"/>
<circle clip-path="url(#clip512)" cx="527.782" cy="632" r="14.4" fill="#ff0000" fill-rule="evenodd" fill-opacity="1" stroke="#000000" stroke-opacity="1" stroke-width="3.2"/>
<circle clip-path="url(#clip512)" cx="901.868" cy="737.424" r="14.4" fill="#ff0000" fill-rule="evenodd" fill-opacity="1" stroke="#000000" stroke-opacity="1" stroke-width="3.2"/>
<circle clip-path="url(#clip512)" cx="405.524" cy="992.858" r="14.4" fill="#ff0000" fill-rule="evenodd" fill-opacity="1" stroke="#000000" stroke-opacity="1" stroke-width="3.2"/>
<circle clip-path="url(#clip512)" cx="746.495" cy="718.7" r="14.4" fill="#ff0000" fill-rule="evenodd" fill-opacity="1" stroke="#000000" stroke-opacity="1" stroke-width="3.2"/>
<circle clip-path="url(#clip512)" cx="630.751" cy="949.346" r="14.4" fill="#ff0000" fill-rule="evenodd" fill-opacity="1" stroke="#000000" stroke-opacity="1" stroke-width="3.2"/>
<circle clip-path="url(#clip512)" cx="697.68" cy="725.301" r="14.4" fill="#ff0000" fill-rule="evenodd" fill-opacity="1" stroke="#000000" stroke-opacity="1" stroke-width="3.2"/>
<circle clip-path="url(#clip512)" cx="1932.58" cy="785.392" r="14.4" fill="#ff0000" fill-rule="evenodd" fill-opacity="1" stroke="#000000" stroke-opacity="1" stroke-width="3.2"/>
<circle clip-path="url(#clip512)" cx="722.327" cy="685.407" r="14.4" fill="#ff0000" fill-rule="evenodd" fill-opacity="1" stroke="#000000" stroke-opacity="1" stroke-width="3.2"/>
<circle clip-path="url(#clip512)" cx="1162.15" cy="768.963" r="14.4" fill="#ff0000" fill-rule="evenodd" fill-opacity="1" stroke="#000000" stroke-opacity="1" stroke-width="3.2"/>
<circle clip-path="url(#clip512)" cx="1733.53" cy="782.49" r="14.4" fill="#ff0000" fill-rule="evenodd" fill-opacity="1" stroke="#000000" stroke-opacity="1" stroke-width="3.2"/>
<circle clip-path="url(#clip512)" cx="1871.97" cy="794.667" r="14.4" fill="#ff0000" fill-rule="evenodd" fill-opacity="1" stroke="#000000" stroke-opacity="1" stroke-width="3.2"/>
<circle clip-path="url(#clip512)" cx="615.819" cy="953.276" r="14.4" fill="#ff0000" fill-rule="evenodd" fill-opacity="1" stroke="#000000" stroke-opacity="1" stroke-width="3.2"/>
<circle clip-path="url(#clip512)" cx="905.492" cy="749.299" r="14.4" fill="#ff0000" fill-rule="evenodd" fill-opacity="1" stroke="#000000" stroke-opacity="1" stroke-width="3.2"/>
<circle clip-path="url(#clip512)" cx="2209.54" cy="816.059" r="14.4" fill="#ff0000" fill-rule="evenodd" fill-opacity="1" stroke="#000000" stroke-opacity="1" stroke-width="3.2"/>
<circle clip-path="url(#clip512)" cx="2116.43" cy="804.821" r="14.4" fill="#ff0000" fill-rule="evenodd" fill-opacity="1" stroke="#000000" stroke-opacity="1" stroke-width="3.2"/>
<circle clip-path="url(#clip512)" cx="1480.94" cy="805.052" r="14.4" fill="#ff0000" fill-rule="evenodd" fill-opacity="1" stroke="#000000" stroke-opacity="1" stroke-width="3.2"/>
<circle clip-path="url(#clip512)" cx="1699.04" cy="788.168" r="14.4" fill="#ff0000" fill-rule="evenodd" fill-opacity="1" stroke="#000000" stroke-opacity="1" stroke-width="3.2"/>
<circle clip-path="url(#clip512)" cx="1481.4" cy="804.996" r="14.4" fill="#ff0000" fill-rule="evenodd" fill-opacity="1" stroke="#000000" stroke-opacity="1" stroke-width="3.2"/>
<circle clip-path="url(#clip512)" cx="810.97" cy="879.843" r="14.4" fill="#ff0000" fill-rule="evenodd" fill-opacity="1" stroke="#000000" stroke-opacity="1" stroke-width="3.2"/>
<circle clip-path="url(#clip512)" cx="1187.62" cy="813.269" r="14.4" fill="#ff0000" fill-rule="evenodd" fill-opacity="1" stroke="#000000" stroke-opacity="1" stroke-width="3.2"/>
<circle clip-path="url(#clip512)" cx="808.252" cy="888.31" r="14.4" fill="#ff0000" fill-rule="evenodd" fill-opacity="1" stroke="#000000" stroke-opacity="1" stroke-width="3.2"/>
<circle clip-path="url(#clip512)" cx="1285.16" cy="801.849" r="14.4" fill="#ff0000" fill-rule="evenodd" fill-opacity="1" stroke="#000000" stroke-opacity="1" stroke-width="3.2"/>
<circle clip-path="url(#clip512)" cx="1851.03" cy="824.809" r="14.4" fill="#ff0000" fill-rule="evenodd" fill-opacity="1" stroke="#000000" stroke-opacity="1" stroke-width="3.2"/>
<circle clip-path="url(#clip512)" cx="1507.74" cy="791.113" r="14.4" fill="#ff0000" fill-rule="evenodd" fill-opacity="1" stroke="#000000" stroke-opacity="1" stroke-width="3.2"/>
<polyline clip-path="url(#clip512)" style="stroke:#000000; stroke-linecap:round; stroke-linejoin:round; stroke-width:4; stroke-opacity:1; fill:none" stroke-dasharray="16, 10" points="271.369,800.663 275.418,764.027 279.468,728.55 283.518,694.775 287.567,663.208 291.617,634.31 295.667,608.495 299.716,586.122 303.766,567.488 307.816,552.828 311.865,542.31 315.915,536.033 319.964,534.03 324.014,536.264 328.064,542.632 332.113,552.968 336.163,567.046 340.213,584.585 344.262,605.253 348.312,628.674 352.361,654.434 356.411,682.092 360.461,711.179 364.51,741.215 368.56,771.711 372.61,802.179 376.659,832.138 380.709,861.124 384.758,888.695 388.808,914.44 392.858,937.981 396.907,958.982 400.957,977.152 405.007,992.25 409.056,1004.09 413.106,1012.53 417.155,1017.49 421.205,1018.95 425.255,1016.95 429.304,1011.57 433.354,1002.95 437.404,991.28 441.453,976.786 445.503,959.744 449.552,940.465 453.602,919.287 457.652,896.575 461.701,872.712 465.751,848.093 469.801,823.116 473.85,798.183 477.9,773.686 481.949,750.003 485.999,727.497 490.049,706.502 494.098,687.326 498.148,670.242 502.198,655.487 506.247,643.257 510.297,633.703 514.347,626.934 518.396,623.013 522.446,621.956 526.495,623.735 530.545,628.275 534.595,635.462 538.644,645.14 542.694,657.117 546.744,671.167 550.793,687.036 554.843,704.445 558.892,723.094 562.942,742.67 566.992,762.85 571.041,783.305 575.091,803.708 579.141,823.739 583.19,843.087 587.24,861.458 591.289,878.579 595.339,894.198 599.389,908.094 603.438,920.074 607.488,929.981 611.538,937.691 615.587,943.117 619.637,946.21 623.686,946.958 627.736,945.387 631.786,941.559 635.835,935.57 639.885,927.548 643.935,917.653 647.984,906.07 652.034,893.009 656.083,878.699 660.133,863.386 664.183,847.327 668.232,830.788 672.282,814.037 676.332,797.341 680.381,780.964 684.431,765.157 688.48,750.162 692.53,736.201 696.58,723.48 700.629,712.178 704.679,702.451 708.729,694.428 712.778,688.208 716.828,683.86 720.878,681.424 724.927,680.907 728.977,682.287 733.026,685.511 737.076,690.501 741.126,697.149 745.175,705.323 749.225,714.871 753.275,725.62 757.324,737.382 761.374,749.955 765.423,763.128 769.473,776.683 773.523,790.4 777.572,804.062 781.622,817.452 785.672,830.365 789.721,842.604 793.771,853.986 797.82,864.347 801.87,873.539 805.92,881.435 809.969,887.932 814.019,892.949 818.069,896.431 822.118,898.347 826.168,898.692 830.217,897.485 834.267,894.771 838.317,890.616 842.366,885.108 846.416,878.356 850.466,870.486 854.515,861.64 858.565,851.973 862.614,841.651 866.664,830.846 870.714,819.737 874.763,808.504 878.813,797.326 882.863,786.379 886.912,775.83 890.962,765.842 895.012,756.561 899.061,748.123 903.111,740.649 907.16,734.239 911.21,728.979 915.26,724.934 919.309,722.147 923.359,720.642 927.409,720.424 931.458,721.474 935.508,723.757 939.557,727.216 943.607,731.779 947.657,737.355 951.706,743.841 955.756,751.121 959.806,759.065 963.855,767.54 967.905,776.402 971.954,785.506 976.004,794.704 980.054,803.849 984.103,812.799 988.153,821.416 992.203,829.568 996.252,837.134 1000.3,844.005 1004.35,850.083 1008.4,855.285 1012.45,859.543 1016.5,862.804 1020.55,865.034 1024.6,866.213 1028.65,866.339 1032.7,865.428 1036.75,863.51 1040.8,860.631 1044.85,856.852 1048.9,852.247 1052.95,846.902 1057,840.912 1061.05,834.383 1065.1,827.426 1069.15,820.158 1073.2,812.698 1077.24,805.166 1081.29,797.684 1085.34,790.367 1089.39,783.329 1093.44,776.677 1097.49,770.508 1101.54,764.913 1105.59,759.971 1109.64,755.75 1113.69,752.304 1117.74,749.675 1121.79,747.892 1125.84,746.97 1129.89,746.91 1133.94,747.698 1137.99,749.309 1142.04,751.704 1146.09,754.833 1150.14,758.635 1154.19,763.04 1158.24,767.968 1162.29,773.333 1166.34,779.044 1170.39,785.005 1174.44,791.118 1178.49,797.285 1182.54,803.406 1186.58,809.387 1190.63,815.136 1194.68,820.565 1198.73,825.593 1202.78,830.148 1206.83,834.166 1210.88,837.592 1214.93,840.381 1218.98,842.499 1223.03,843.923 1227.08,844.643 1231.13,844.657 1235.18,843.978 1239.23,842.626 1243.28,840.634 1247.33,838.043 1251.38,834.904 1255.43,831.275 1259.48,827.22 1263.53,822.812 1267.58,818.124 1271.63,813.235 1275.68,808.226 1279.73,803.177 1283.78,798.169 1287.83,793.28 1291.87,788.585 1295.92,784.155 1299.97,780.056 1304.02,776.348 1308.07,773.081 1312.12,770.302 1316.17,768.046 1320.22,766.34 1324.27,765.202 1328.32,764.642 1332.37,764.659 1336.42,765.243 1340.47,766.377 1344.52,768.033 1348.57,770.178 1352.62,772.769 1356.67,775.759 1360.72,779.094 1364.77,782.717 1368.82,786.565 1372.87,790.574 1376.92,794.678 1380.97,798.811 1385.02,802.908 1389.07,806.905 1393.12,810.739 1397.17,814.353 1401.21,817.695 1405.26,820.714 1409.31,823.369 1413.36,825.624 1417.41,827.449 1421.46,828.823 1425.51,829.731 1429.56,830.166 1433.61,830.129 1437.66,829.627 1441.71,828.677 1445.76,827.3 1449.81,825.525 1453.86,823.386 1457.91,820.923 1461.96,818.179 1466.01,815.203 1470.06,812.045 1474.11,808.758 1478.16,805.395 1482.21,802.011 1486.26,798.659 1490.31,795.393 1494.36,792.261 1498.41,789.312 1502.46,786.589 1506.51,784.131 1510.55,781.973 1514.6,780.144 1518.65,778.668 1522.7,777.562 1526.75,776.838 1530.8,776.501 1534.85,776.551 1538.9,776.98 1542.95,777.776 1547,778.92 1551.05,780.389 1555.1,782.154 1559.15,784.183 1563.2,786.44 1567.25,788.885 1571.3,791.477 1575.35,794.173 1579.4,796.928 1583.45,799.698 1587.5,802.44 1591.55,805.11 1595.6,807.667 1599.65,810.073 1603.7,812.292 1607.75,814.293 1611.8,816.047 1615.85,817.53 1619.89,818.724 1623.94,819.614 1627.99,820.191 1632.04,820.451 1636.09,820.395 1640.14,820.028 1644.19,819.362 1648.24,818.411 1652.29,817.196 1656.34,815.739 1660.39,814.068 1664.44,812.212 1668.49,810.203 1672.54,808.076 1676.59,805.865 1680.64,803.608 1684.69,801.34 1688.74,799.098 1692.79,796.916 1696.84,794.828 1700.89,792.865 1704.94,791.056 1708.99,789.427 1713.04,788.002 1717.09,786.799 1721.14,785.834 1725.19,785.118 1729.23,784.658 1733.28,784.459 1737.33,784.518 1741.38,784.83 1745.43,785.388 1749.48,786.177 1753.53,787.183 1757.58,788.385 1761.63,789.761 1765.68,791.288 1769.73,792.938 1773.78,794.684 1777.83,796.496 1781.88,798.345 1785.93,800.202 1789.98,802.036 1794.03,803.819 1798.08,805.524 1802.13,807.126 1806.18,808.6 1810.23,809.925 1814.28,811.083 1818.33,812.059 1822.38,812.839 1826.43,813.415 1830.48,813.78 1834.53,813.933 1838.57,813.874 1842.62,813.608 1846.67,813.142 1850.72,812.486 1854.77,811.655 1858.82,810.663 1862.87,809.529 1866.92,808.274 1870.97,806.919 1875.02,805.486 1879.07,804 1883.12,802.485 1887.17,800.966 1891.22,799.466 1895.27,798.008 1899.32,796.616 1903.37,795.31 1907.42,794.108 1911.47,793.03 1915.52,792.089 1919.57,791.298 1923.62,790.667 1927.67,790.204 1931.72,789.914 1935.77,789.797 1939.82,789.854 1943.87,790.08 1947.91,790.47 1951.96,791.014 1956.01,791.702 1960.06,792.52 1964.11,793.454 1968.16,794.486 1972.21,795.599 1976.26,796.775 1980.31,797.993 1984.36,799.234 1988.41,800.478 1992.46,801.705 1996.51,802.896 2000.56,804.032 2004.61,805.098 2008.66,806.077 2012.71,806.954 2016.76,807.719 2020.81,808.36 2024.86,808.87 2028.91,809.242 2032.96,809.473 2037.01,809.561 2041.06,809.507 2045.11,809.315 2049.16,808.99 2053.2,808.538 2057.25,807.969 2061.3,807.294 2065.35,806.526 2069.4,805.677 2073.45,804.762 2077.5,803.798 2081.55,802.799 2085.6,801.783 2089.65,800.765 2093.7,799.761 2097.75,798.788 2101.8,797.86 2105.85,796.991 2109.9,796.193 2113.95,795.479 2118,794.858 2122.05,794.338 2126.1,793.927 2130.15,793.628 2134.2,793.445 2138.25,793.378 2142.3,793.428 2146.35,793.591 2150.4,793.862 2154.45,794.237 2158.5,794.707 2162.54,795.264 2166.59,795.897 2170.64,796.595 2174.69,797.346 2178.74,798.137 2182.79,798.956 2186.84,799.789 2190.89,800.622 2194.94,801.442 2198.99,802.238 2203.04,802.995 2207.09,803.704 2211.14,804.354 2215.19,804.935 2219.24,805.44 2223.29,805.861 2227.34,806.193 2231.39,806.433 2235.44,806.579 2239.49,806.628 2243.54,806.583 2247.59,806.445 2251.64,806.218 2255.69,805.907 2259.74,805.519 2263.79,805.059 2267.84,804.538 2271.88,803.964 2275.93,803.348 2279.98,802.698 2284.03,802.027 2288.08,801.345 2292.13,800.663 "/>
<polyline clip-path="url(#clip512)" style="stroke:#0000ff; stroke-linecap:round; stroke-linejoin:round; stroke-width:12; stroke-opacity:1; fill:none" points="271.369,666.212 275.418,649.395 279.468,632.193 283.518,614.939 287.567,598.009 291.617,581.812 295.667,566.777 299.716,553.343 303.766,541.94 307.816,532.972 311.865,526.807 315.915,523.756 319.964,524.065 324.014,527.903 328.064,535.358 332.113,546.427 336.163,561.021 340.213,578.967 344.262,600.011 348.312,623.826 352.361,650.022 356.411,678.161 360.461,707.761 364.51,738.317 368.56,769.307 372.61,800.206 376.659,830.501 380.709,859.698 384.758,887.333 388.808,912.981 392.858,936.264 396.907,956.857 400.957,974.491 405.007,988.954 409.056,1000.1 413.106,1007.83 417.155,1012.12 421.205,1012.98 425.255,1010.48 429.304,1004.73 433.354,995.882 437.404,984.123 441.453,969.669 445.503,952.765 449.552,933.682 453.602,912.719 457.652,890.196 461.701,866.461 465.751,841.883 469.801,816.851 473.85,791.772 477.9,767.066 481.949,743.157 485.999,720.466 490.049,699.4 494.098,680.341 498.148,663.632 502.198,649.571 506.247,638.396 510.297,630.28 514.347,625.325 518.396,623.559 522.446,624.938 526.495,629.348 530.545,636.617 534.595,646.516 538.644,658.776 542.694,673.1 546.744,689.17 550.793,706.659 554.843,725.242 558.892,744.601 562.942,764.433 566.992,784.447 571.041,804.371 575.091,823.946 579.141,842.931 583.19,861.092 587.24,878.21 591.289,894.07 595.339,908.47 599.389,921.217 603.438,932.129 607.488,941.044 611.538,947.819 615.587,952.341 619.637,954.529 623.686,954.34 627.736,951.774 631.786,946.876 635.835,939.737 639.885,930.494 643.935,919.329 647.984,906.458 652.034,892.133 656.083,876.631 660.133,860.246 664.183,843.281 668.232,826.042 672.282,808.825 676.332,791.917 680.381,775.586 684.431,760.076 688.48,745.607 692.53,732.374 696.58,720.543 700.629,710.257 704.679,701.631 708.729,694.758 712.778,689.71 716.828,686.537 720.878,685.266 724.927,685.905 728.977,688.439 733.026,692.826 737.076,698.999 741.126,706.863 745.175,716.287 749.225,727.112 753.275,739.141 757.324,752.147 761.374,765.874 765.423,780.039 769.473,794.341 773.523,808.47 777.572,822.113 781.622,834.966 785.672,846.746 789.721,857.198 793.771,866.105 797.82,873.298 801.87,878.656 805.92,882.113 809.969,883.658 814.019,883.332 818.069,881.225 822.118,877.47 826.168,872.233 830.217,865.709 834.267,858.112 838.317,849.665 842.366,840.596 846.416,831.127 850.466,821.475 854.515,811.84 858.565,802.408 862.614,793.348 866.664,784.806 870.714,776.911 874.763,769.771 878.813,763.471 882.863,758.078 886.912,753.634 890.962,750.164 895.012,747.67 899.061,746.132 903.111,745.513 907.16,745.755 911.21,746.785 915.26,748.515 919.309,750.846 923.359,753.671 927.409,756.879 931.458,760.359 935.508,764.005 939.557,767.714 943.607,771.396 947.657,774.972 951.706,778.376 955.756,781.557 959.806,784.479 963.855,787.116 967.905,789.459 971.954,791.506 976.004,793.265 980.054,794.752 984.103,795.987 988.153,796.991 992.203,797.789 996.252,798.401 1000.3,798.85 1004.35,799.153 1008.4,799.323 1012.45,799.371 1016.5,799.301 1020.55,799.113 1024.6,798.805 1028.65,798.366 1032.7,797.783 1036.75,797.041 1040.8,796.12 1044.85,794.998 1048.9,793.652 1052.95,792.06 1057,790.201 1061.05,788.056 1065.1,785.615 1069.15,782.871 1073.2,779.828 1077.24,776.5 1081.29,772.916 1085.34,769.116 1089.39,765.158 1093.44,761.113 1097.49,757.068 1101.54,753.123 1105.59,749.388 1109.64,745.983 1113.69,743.03 1117.74,740.65 1121.79,738.957 1125.84,738.055 1129.89,738.029 1133.94,738.941 1137.99,740.828 1142.04,743.696 1146.09,747.521 1150.14,752.247 1154.19,757.788 1158.24,764.03 1162.29,770.838 1166.34,778.058 1170.39,785.524 1174.44,793.065 1178.49,800.512 1182.54,807.702 1186.58,814.486 1190.63,820.731 1194.68,826.326 1198.73,831.184 1202.78,835.244 1206.83,838.467 1210.88,840.844 1214.93,842.387 1218.98,843.129 1223.03,843.122 1227.08,842.43 1231.13,841.13 1235.18,839.303 1239.23,837.028 1243.28,834.385 1247.33,831.442 1251.38,828.261 1255.43,824.889 1259.48,821.36 1263.53,817.699 1267.58,813.917 1271.63,810.024 1275.68,806.023 1279.73,801.921 1283.78,797.734 1287.83,793.485 1291.87,789.212 1295.92,784.969 1299.97,780.821 1304.02,776.848 1308.07,773.138 1312.12,769.783 1316.17,766.874 1320.22,764.494 1324.27,762.715 1328.32,761.593 1332.37,761.163 1336.42,761.437 1340.47,762.407 1344.52,764.043 1348.57,766.296 1352.62,769.102 1356.67,772.383 1360.72,776.055 1364.77,780.03 1368.82,784.218 1372.87,788.53 1376.92,792.881 1380.97,797.191 1385.02,801.385 1389.07,805.391 1393.12,809.148 1397.17,812.595 1401.21,815.681 1405.26,818.361 1409.31,820.6 1413.36,822.372 1417.41,823.662 1421.46,824.47 1425.51,824.81 1429.56,824.71 1433.61,824.212 1437.66,823.371 1441.71,822.249 1445.76,820.916 1449.81,819.44 1453.86,817.884 1457.91,816.3 1461.96,814.726 1466.01,813.18 1470.06,811.658 1474.11,810.139 1478.16,808.58 1482.21,806.927 1486.26,805.119 1490.31,803.096 1494.36,800.81 1498.41,798.229 1502.46,795.347 1506.51,792.192 1510.55,788.823 1514.6,785.335 1518.65,781.853 1522.7,778.525 1526.75,775.514 1530.8,772.986 1534.85,771.099 1538.9,769.988 1542.95,769.76 1547,770.476 1551.05,772.156 1555.1,774.768 1559.15,778.234 1563.2,782.432 1567.25,787.207 1571.3,792.377 1575.35,797.749 1579.4,803.126 1583.45,808.324 1587.5,813.176 1591.55,817.545 1595.6,821.328 1599.65,824.456 1603.7,826.899 1607.75,828.659 1611.8,829.763 1615.85,830.266 1619.89,830.233 1623.94,829.738 1627.99,828.855 1632.04,827.652 1636.09,826.187 1640.14,824.507 1644.19,822.642 1648.24,820.611 1652.29,818.424 1656.34,816.082 1660.39,813.587 1664.44,810.944 1668.49,808.164 1672.54,805.273 1676.59,802.309 1680.64,799.326 1684.69,796.39 1688.74,793.58 1692.79,790.979 1696.84,788.667 1700.89,786.719 1704.94,785.192 1708.99,784.123 1713.04,783.521 1717.09,783.367 1721.14,783.612 1725.19,784.181 1729.23,784.981 1733.28,785.904 1737.33,786.844 1741.38,787.701 1745.43,788.397 1749.48,788.88 1753.53,789.134 1757.58,789.181 1761.63,789.08 1765.68,788.922 1769.73,788.825 1773.78,788.921 1777.83,789.342 1781.88,790.209 1785.93,791.621 1789.98,793.637 1794.03,796.273 1798.08,799.496 1802.13,803.222 1806.18,807.317 1810.23,811.61 1814.28,815.895 1818.33,819.953 1822.38,823.56 1826.43,826.504 1830.48,828.602 1834.53,829.708 1838.57,829.728 1842.62,828.623 1846.67,826.415 1850.72,823.183 1854.77,819.06 1858.82,814.225 1862.87,808.891 1866.92,803.291 1870.97,797.665 1875.02,792.247 1879.07,787.248 1883.12,782.85 1887.17,779.191 1891.22,776.366 1895.27,774.418 1899.32,773.345 1903.37,773.098 1907.42,773.591 1911.47,774.709 1915.52,776.315 1919.57,778.262 1923.62,780.404 1927.67,782.6 1931.72,784.727 1935.77,786.682 1939.82,788.386 1943.87,789.787 1947.91,790.861 1951.96,791.606 1956.01,792.044 1960.06,792.213 1964.11,792.166 1968.16,791.963 1972.21,791.668 1976.26,791.347 1980.31,791.06 1984.36,790.864 1988.41,790.805 1992.46,790.923 1996.51,791.249 2000.56,791.804 2004.61,792.603 2008.66,793.652 2012.71,794.953 2016.76,796.501 2020.81,798.289 2024.86,800.303 2028.91,802.524 2032.96,804.927 2037.01,807.483 2041.06,810.151 2045.11,812.884 2049.16,815.622 2053.2,818.298 2057.25,820.831 2061.3,823.136 2065.35,825.118 2069.4,826.683 2073.45,827.737 2077.5,828.196 2081.55,827.99 2085.6,827.069 2089.65,825.411 2093.7,823.027 2097.75,819.962 2101.8,816.302 2105.85,812.167 2109.9,807.714 2113.95,803.125 2118,798.603 2122.05,794.36 2126.1,790.603 2130.15,787.52 2134.2,785.269 2138.25,783.968 2142.3,783.68 2146.35,784.411 2150.4,786.105 2154.45,788.649 2158.5,791.876 2162.54,795.577 2166.59,799.517 2170.64,803.449 2174.69,807.132 2178.74,810.351 2182.79,812.929 2186.84,814.745 2190.89,815.739 2194.94,815.918 2198.99,815.35 2203.04,814.163 2207.09,812.532 2211.14,810.659 2215.19,808.764 2219.24,807.057 2223.29,805.732 2227.34,804.94 2231.39,804.79 2235.44,805.333 2239.49,806.563 2243.54,808.421 2247.59,810.802 2251.64,813.564 2255.69,816.54 2259.74,819.556 2263.79,822.44 2267.84,825.035 2271.88,827.211 2275.93,828.871 2279.98,829.951 2284.03,830.428 2288.08,830.312 2292.13,829.642 "/>
<polyline clip-path="url(#clip512)" style="stroke:#808080; stroke-linecap:round; stroke-linejoin:round; stroke-width:4; stroke-opacity:1; fill:none" points="271.369,160.256 275.418,166.329 279.468,176.147 283.518,190.152 287.567,208.665 291.617,231.836 295.667,259.611 299.716,291.689 303.766,327.457 307.816,365.875 311.865,405.107 315.915,441.245 319.964,464.369 324.014,462.529 328.064,447.115 332.113,433.452 336.163,427.336 340.213,430.715 344.262,444.111 348.312,467.265 352.361,499.348 356.411,539.052 360.461,584.669 364.51,634.152 368.56,685.149 372.61,734.979 376.659,780.53 380.709,818.559 384.758,847.822 388.808,870.782 392.858,890.479 396.907,907.946 400.957,922.475 405.007,932.56 409.056,936.997 413.106,935.713 417.155,929.741 421.205,920.667 425.255,910.124 429.304,899.529 433.354,889.927 437.404,881.899 441.453,875.456 445.503,869.862 449.552,863.275 453.602,852.132 457.652,831.534 461.701,799.613 465.751,760.23 469.801,718.463 473.85,677.92 477.9,640.95 481.949,609.085 485.999,583.265 490.049,563.947 494.098,551.179 498.148,544.67 502.198,543.866 506.247,548.002 510.297,556.086 514.347,566.648 518.396,576.954 522.446,582.13 526.495,578.755 530.545,569.502 534.595,558.074 538.644,546.418 542.694,535.584 546.744,526.394 550.793,519.666 554.843,516.243 558.892,516.94 562.942,522.464 566.992,533.34 571.041,549.836 575.091,571.913 579.141,599.203 583.19,631.006 587.24,666.319 591.289,703.891 595.339,742.298 599.389,780.033 603.438,815.602 607.488,847.591 611.538,874.669 615.587,895.424 619.637,908.057 623.686,910.665 627.736,903.201 631.786,887.991 635.835,867.521 639.885,843.593 643.935,817.672 647.984,791.142 652.034,765.343 656.083,741.503 660.133,720.65 664.183,703.533 668.232,690.564 672.282,681.798 676.332,676.932 680.381,675.331 684.431,676.056 688.48,677.857 692.53,679.102 696.58,677.711 700.629,671.835 704.679,661.942 708.729,650.942 712.778,641.507 716.828,635.032 720.878,632.027 724.927,632.519 728.977,636.212 733.026,642.456 737.076,650.077 741.126,657.293 745.175,662.19 749.225,663.794 753.275,662.5 757.324,659.469 761.374,656.022 765.423,653.431 769.473,652.87 773.523,655.383 777.572,661.844 781.622,672.905 785.672,688.947 789.721,710.038 793.771,735.878 797.82,765.698 801.87,797.888 805.92,828.244 809.969,841.94 814.019,821.541 818.069,783.6 822.118,740.319 826.168,695.834 830.217,652.421 834.267,611.78 838.317,575.291 842.366,544.07 846.416,518.96 850.466,500.534 854.515,489.087 858.565,484.649 862.614,487 866.664,495.706 870.714,510.159 874.763,529.629 878.813,553.317 882.863,580.4 886.912,610.061 890.962,641.427 895.012,673.216 899.061,701.676 903.111,710.218 907.16,687.1 911.21,653.818 915.26,618.396 919.309,582.459 923.359,546.565 927.409,511.085 931.458,476.389 935.508,442.876 939.557,410.96 943.607,381.04 947.657,353.466 951.706,328.512 955.756,306.357 959.806,287.075 963.855,270.637 967.905,256.922 971.954,245.73 976.004,236.802 980.054,229.847 984.103,224.557 988.153,220.632 992.203,217.791 996.252,215.783 1000.3,214.396 1004.35,213.458 1008.4,212.836 1012.45,212.437 1016.5,212.205 1020.55,212.12 1024.6,212.196 1028.65,212.488 1032.7,213.09 1036.75,214.145 1040.8,215.845 1044.85,218.435 1048.9,222.216 1052.95,227.536 1057,234.78 1061.05,244.354 1065.1,256.662 1069.15,272.068 1073.2,290.872 1077.24,313.266 1081.29,339.303 1085.34,368.864 1089.39,401.639 1093.44,437.11 1097.49,474.552 1101.54,513.036 1105.59,551.441 1109.64,588.431 1113.69,622.387 1117.74,651.167 1121.79,671.744 1125.84,681.005 1129.89,680.09 1133.94,675.205 1137.99,671.533 1142.04,671.316 1146.09,675.016 1150.14,682.233 1154.19,692.163 1158.24,703.876 1162.29,716.504 1166.34,729.342 1170.39,741.797 1174.44,753.189 1178.49,762.521 1182.54,768.624 1186.58,770.906 1190.63,769.87 1194.68,766.716 1198.73,762.756 1202.78,759.157 1206.83,756.848 1210.88,756.471 1214.93,758.318 1218.98,762.278 1223.03,767.788 1227.08,773.805 1231.13,778.845 1235.18,781.283 1239.23,780.105 1243.28,775.688 1247.33,769.598 1251.38,763.623 1255.43,759.085 1259.48,756.65 1263.53,756.35 1267.58,757.645 1271.63,759.5 1275.68,760.561 1279.73,759.599 1283.78,756.232 1287.83,751.193 1291.87,745.574 1295.92,739.724 1299.97,732.517 1304.02,721.454 1308.07,704.189 1312.12,680.105 1316.17,650.053 1320.22,615.409 1324.27,577.623 1328.32,538.108 1332.37,498.212 1336.42,459.184 1340.47,422.151 1344.52,388.088 1348.57,357.801 1352.62,331.926 1356.67,310.934 1360.72,295.149 1364.77,284.772 1368.82,279.911 1372.87,280.595 1376.92,286.8 1380.97,298.45 1385.02,315.415 1389.07,337.495 1393.12,364.406 1397.17,395.748 1401.21,430.987 1405.26,469.434 1409.31,510.238 1413.36,552.388 1417.41,594.717 1421.46,635.919 1425.51,674.541 1429.56,708.935 1433.61,737.126 1437.66,756.732 1441.71,765.91 1445.76,766.167 1449.81,762.429 1453.86,758.953 1457.91,757.739 1461.96,759.212 1466.01,762.907 1470.06,767.818 1474.11,772.596 1478.16,775.764 1482.21,776.245 1486.26,774.025 1490.31,769.965 1494.36,764.85 1498.41,758.885 1502.46,751.847 1506.51,743.502 1510.55,733.937 1514.6,723.666 1518.65,713.495 1522.7,704.331 1526.75,697.016 1530.8,692.209 1534.85,690.331 1538.9,691.538 1542.95,695.73 1547,702.57 1551.05,711.493 1555.1,721.621 1559.15,731.463 1563.2,738.466 1567.25,739.47 1571.3,732.988 1575.35,719.781 1579.4,701.045 1583.45,677.661 1587.5,650.347 1591.55,619.858 1595.6,587.055 1599.65,552.912 1603.7,518.475 1607.75,484.812 1611.8,452.962 1615.85,423.895 1619.89,398.473 1623.94,377.433 1627.99,361.375 1632.04,350.755 1636.09,345.89 1640.14,346.958 1644.19,353.998 1648.24,366.904 1652.29,385.426 1656.34,409.153 1660.39,437.514 1664.44,469.769 1668.49,505.013 1672.54,542.185 1676.59,580.082 1680.64,617.362 1684.69,652.527 1688.74,683.833 1692.79,709.063 1696.84,725.392 1700.89,730.85 1704.94,727.933 1708.99,722.291 1713.04,717.922 1717.09,716.393 1721.14,717.841 1725.19,721.673 1729.23,726.945 1733.28,732.617 1737.33,737.791 1741.38,741.898 1745.43,744.77 1749.48,746.518 1753.53,747.291 1757.58,747.121 1761.63,745.962 1765.68,743.876 1769.73,741.201 1773.78,738.562 1777.83,736.714 1781.88,736.36 1785.93,737.982 1789.98,741.72 1794.03,747.282 1798.08,753.871 1802.13,760.215 1806.18,764.9 1810.23,767.11 1814.28,767.115 1818.33,765.889 1822.38,764.423 1826.43,763.401 1830.48,763.154 1834.53,763.716 1838.57,764.897 1842.62,766.367 1846.67,767.736 1850.72,768.6 1854.77,768.523 1858.82,766.911 1862.87,762.868 1866.92,755.317 1870.97,743.646 1875.02,728.272 1879.07,710.426 1883.12,691.635 1887.17,673.44 1891.22,657.305 1895.27,644.549 1899.32,636.283 1903.37,633.326 1907.42,636.132 1911.47,644.712 1915.52,658.555 1919.57,676.511 1923.62,696.515 1927.67,714.966 1931.72,726.079 1935.77,724.973 1939.82,714.213 1943.87,700.222 1947.91,687.608 1951.96,679.038 1956.01,676.056 1960.06,679.433 1964.11,689.201 1968.16,704.367 1972.21,721.798 1976.26,732.926 1980.31,723.958 1984.36,694.719 1988.41,655.098 1992.46,610.998 1996.51,565.436 2000.56,520.329 2004.61,477.082 2008.66,436.767 2012.71,400.186 2016.76,367.908 2020.81,340.291 2024.86,317.522 2028.91,299.652 2032.96,286.636 2037.01,278.374 2041.06,274.746 2045.11,275.64 2049.16,280.966 2053.2,290.664 2057.25,304.693 2061.3,323.008 2065.35,345.532 2069.4,372.123 2073.45,402.536 2077.5,436.395 2081.55,473.163 2085.6,512.138 2089.65,552.441 2093.7,593.034 2097.75,632.731 2101.8,670.2 2105.85,703.92 2109.9,731.95 2113.95,751.296 2118,757.793 2122.05,752.113 2126.1,742.644 2130.15,735.285 2134.2,731.433 2138.25,729.888 2142.3,727.845 2146.35,722.366 2150.4,712.529 2154.45,699.722 2158.5,686.136 2162.54,673.746 2166.59,664.067 2170.64,658.151 2174.69,656.608 2178.74,659.631 2182.79,667.017 2186.84,678.204 2190.89,692.304 2194.94,708.155 2198.99,724.357 2203.04,739.312 2207.09,751.329 2211.14,759.02 2215.19,762.217 2219.24,762.567 2223.29,762.412 2227.34,762.938 2231.39,762.964 2235.44,758.831 2239.49,747.146 2243.54,727.742 2247.59,702.234 2251.64,672.224 2255.69,639.007 2259.74,603.683 2263.79,567.235 2267.84,530.555 2271.88,494.442 2275.93,459.596 2279.98,426.601 2284.03,395.916 2288.08,367.872 2292.13,342.674 "/>
<path clip-path="url(#clip512)" d="M271.369 1172.17 L275.418 1132.46 L279.468 1088.24 L283.518 1039.73 L287.567 987.354 L291.617 931.788 L295.667 873.943 L299.716 814.998 L303.766 756.422 L307.816 700.07 L311.865 648.507 L315.915 606.267 L319.964 583.76 L324.014 593.278 L328.064 623.6 L332.113 659.401 L336.163 694.706 L340.213 727.22 L344.262 755.911 L348.312 780.386 L352.361 800.697 L356.411 817.27 L360.461 830.854 L364.51 842.482 L368.56 853.464 L372.61 865.433 L376.659 880.473 L380.709 900.836 L384.758 926.843 L388.808 955.18 L392.858 982.05 L396.907 1005.77 L400.957 1026.51 L405.007 1045.35 L409.056 1063.2 L413.106 1079.95 L417.155 1094.49 L421.205 1105.29 L425.255 1110.83 L429.304 1109.93 L433.354 1101.84 L437.404 1086.35 L441.453 1063.88 L445.503 1035.67 L449.552 1004.09 L453.602 973.305 L457.652 948.859 L461.701 933.31 L465.751 923.536 L469.801 915.239 L473.85 905.623 L477.9 893.181 L481.949 877.23 L485.999 857.668 L490.049 834.854 L494.098 809.502 L498.148 782.594 L502.198 755.275 L506.247 728.789 L510.297 704.474 L514.347 684.001 L518.396 670.163 L522.446 667.746 L526.495 679.942 L530.545 703.731 L534.595 734.957 L538.644 771.134 L542.694 810.616 L546.744 851.946 L550.793 893.651 L554.843 934.24 L558.892 972.263 L562.942 1006.4 L566.992 1035.55 L571.041 1058.91 L575.091 1075.98 L579.141 1086.66 L583.19 1091.18 L587.24 1090.1 L591.289 1084.25 L595.339 1074.64 L599.389 1062.4 L603.438 1048.66 L607.488 1034.5 L611.538 1020.97 L615.587 1009.26 L619.637 1001 L623.686 998.015 L627.736 1000.35 L631.786 1005.76 L635.835 1011.95 L639.885 1017.4 L643.935 1020.99 L647.984 1021.77 L652.034 1018.92 L656.083 1011.76 L660.133 999.842 L664.183 983.03 L668.232 961.519 L672.282 935.852 L676.332 906.903 L680.381 875.841 L684.431 844.096 L688.48 813.358 L692.53 785.645 L696.58 763.376 L700.629 748.679 L704.679 741.319 L708.729 738.574 L712.778 737.914 L716.828 738.042 L720.878 738.505 L724.927 739.291 L728.977 740.665 L733.026 743.195 L737.076 747.921 L741.126 756.433 L745.175 770.385 L749.225 790.43 L753.275 815.781 L757.324 844.826 L761.374 875.726 L765.423 906.647 L769.473 935.812 L773.523 961.556 L777.572 982.381 L781.622 997.027 L785.672 1004.54 L789.721 1004.36 L793.771 996.333 L797.82 980.898 L801.87 959.423 L805.92 935.981 L809.969 925.376 L814.019 945.123 L818.069 978.85 L822.118 1014.62 L826.168 1048.63 L830.217 1079 L834.267 1104.44 L838.317 1124.04 L842.366 1137.12 L846.416 1143.29 L850.466 1142.42 L854.515 1134.59 L858.565 1120.17 L862.614 1099.7 L866.664 1073.91 L870.714 1043.66 L874.763 1009.91 L878.813 973.626 L882.863 935.755 L886.912 897.208 L890.962 858.902 L895.012 822.123 L899.061 790.588 L903.111 780.808 L907.16 804.409 L911.21 839.752 L915.26 878.634 L919.309 919.232 L923.359 960.776 L927.409 1002.67 L931.458 1044.33 L935.508 1085.13 L939.557 1124.47 L943.607 1161.75 L947.657 1196.48 L951.706 1228.24 L955.756 1256.76 L959.806 1281.88 L963.855 1303.59 L967.905 1321.99 L971.954 1337.28 L976.004 1349.73 L980.054 1359.66 L984.103 1367.42 L988.153 1373.35 L992.203 1377.79 L996.252 1381.02 L1000.3 1383.3 L1004.35 1384.85 L1008.4 1385.81 L1012.45 1386.3 L1016.5 1386.4 L1020.55 1386.11 L1024.6 1385.41 L1028.65 1384.24 L1032.7 1382.48 L1036.75 1379.94 L1040.8 1376.4 L1044.85 1371.56 L1048.9 1365.09 L1052.95 1356.58 L1057 1345.62 L1061.05 1331.76 L1065.1 1314.57 L1069.15 1293.67 L1073.2 1268.78 L1077.24 1239.73 L1081.29 1206.53 L1085.34 1169.37 L1089.39 1128.68 L1093.44 1085.12 L1097.49 1039.58 L1101.54 993.209 L1105.59 947.335 L1109.64 903.535 L1113.69 863.672 L1117.74 830.132 L1121.79 806.171 L1125.84 795.105 L1129.89 795.967 L1133.94 802.677 L1137.99 810.122 L1142.04 816.076 L1146.09 820.025 L1150.14 822.26 L1154.19 823.412 L1158.24 824.185 L1162.29 825.173 L1166.34 826.775 L1170.39 829.251 L1174.44 832.941 L1178.49 838.503 L1182.54 846.781 L1186.58 858.066 L1190.63 871.592 L1194.68 885.936 L1198.73 899.613 L1202.78 911.33 L1206.83 920.086 L1210.88 925.218 L1214.93 926.457 L1218.98 923.981 L1223.03 918.455 L1227.08 911.055 L1231.13 903.416 L1235.18 897.323 L1239.23 893.951 L1243.28 893.081 L1247.33 893.286 L1251.38 892.899 L1255.43 890.693 L1259.48 886.071 L1263.53 879.047 L1267.58 870.189 L1271.63 860.547 L1275.68 851.484 L1279.73 844.244 L1283.78 839.235 L1287.83 835.776 L1291.87 832.851 L1295.92 830.214 L1299.97 829.126 L1304.02 832.243 L1308.07 842.088 L1312.12 859.462 L1316.17 883.694 L1320.22 913.579 L1324.27 947.808 L1328.32 985.078 L1332.37 1024.11 L1336.42 1063.69 L1340.47 1102.66 L1344.52 1140 L1348.57 1174.79 L1352.62 1206.28 L1356.67 1233.83 L1360.72 1256.96 L1364.77 1275.29 L1368.82 1288.53 L1372.87 1296.46 L1376.92 1298.96 L1380.97 1295.93 L1385.02 1287.35 L1389.07 1273.29 L1393.12 1253.89 L1397.17 1229.44 L1401.21 1200.37 L1405.26 1167.29 L1409.31 1130.96 L1413.36 1092.36 L1417.41 1052.61 L1421.46 1013.02 L1425.51 975.08 L1429.56 940.485 L1433.61 911.298 L1437.66 890.009 L1441.71 878.588 L1445.76 875.664 L1449.81 876.45 L1453.86 876.815 L1457.91 874.861 L1461.96 870.24 L1466.01 863.453 L1470.06 855.498 L1474.11 847.682 L1478.16 841.395 L1482.21 837.608 L1486.26 836.213 L1490.31 836.228 L1494.36 836.77 L1498.41 837.573 L1502.46 838.847 L1506.51 840.882 L1510.55 843.708 L1514.6 847.004 L1518.65 850.211 L1522.7 852.718 L1526.75 854.012 L1530.8 853.763 L1534.85 851.867 L1538.9 848.439 L1542.95 843.79 L1547 838.383 L1551.05 832.819 L1555.1 827.915 L1559.15 825.004 L1563.2 826.398 L1567.25 834.944 L1571.3 851.767 L1575.35 875.717 L1579.4 905.207 L1583.45 938.986 L1587.5 976.004 L1591.55 1015.23 L1595.6 1055.6 L1599.65 1096 L1603.7 1135.32 L1607.75 1172.51 L1611.8 1206.56 L1615.85 1236.64 L1619.89 1261.99 L1623.94 1282.04 L1627.99 1296.33 L1632.04 1304.55 L1636.09 1306.49 L1640.14 1302.06 L1644.19 1291.29 L1648.24 1274.32 L1652.29 1251.42 L1656.34 1223.01 L1660.39 1189.66 L1664.44 1152.12 L1668.49 1111.32 L1672.54 1068.36 L1676.59 1024.54 L1680.64 981.29 L1684.69 940.253 L1688.74 903.328 L1692.79 872.894 L1696.84 851.943 L1700.89 842.588 L1704.94 842.451 L1708.99 845.955 L1713.04 849.121 L1717.09 850.341 L1721.14 849.383 L1725.19 846.689 L1729.23 843.017 L1733.28 839.191 L1737.33 835.896 L1741.38 833.504 L1745.43 832.024 L1749.48 831.242 L1753.53 830.977 L1757.58 831.241 L1761.63 832.197 L1765.68 833.969 L1769.73 836.449 L1773.78 839.28 L1777.83 841.969 L1781.88 844.058 L1785.93 845.26 L1789.98 845.553 L1794.03 845.264 L1798.08 845.121 L1802.13 846.229 L1806.18 849.734 L1810.23 856.11 L1814.28 864.675 L1818.33 874.018 L1822.38 882.697 L1826.43 889.608 L1830.48 894.05 L1834.53 895.7 L1838.57 894.559 L1842.62 890.879 L1846.67 885.094 L1850.72 877.765 L1854.77 869.597 L1858.82 861.54 L1862.87 854.914 L1866.92 851.265 L1870.97 851.685 L1875.02 856.222 L1879.07 864.07 L1883.12 874.064 L1887.17 884.942 L1891.22 895.427 L1895.27 904.287 L1899.32 910.407 L1903.37 912.87 L1907.42 911.05 L1911.47 904.706 L1915.52 894.074 L1919.57 880.014 L1923.62 864.293 L1927.67 850.234 L1931.72 843.375 L1935.77 848.39 L1939.82 862.558 L1943.87 879.352 L1947.91 894.113 L1951.96 904.174 L1956.01 908.032 L1960.06 904.993 L1964.11 895.131 L1968.16 879.559 L1972.21 861.539 L1976.26 849.768 L1980.31 858.162 L1984.36 887.008 L1988.41 926.512 L1992.46 970.849 L1996.51 1017.06 L2000.56 1063.28 L2004.61 1108.12 L2008.66 1150.54 L2012.71 1189.72 L2016.76 1225.1 L2020.81 1256.29 L2024.86 1283.08 L2028.91 1305.39 L2032.96 1323.22 L2037.01 1336.59 L2041.06 1345.56 L2045.11 1350.13 L2049.16 1350.28 L2053.2 1345.93 L2057.25 1336.97 L2061.3 1323.26 L2065.35 1304.7 L2069.4 1281.24 L2073.45 1252.94 L2077.5 1220 L2081.55 1182.82 L2085.6 1142 L2089.65 1098.38 L2093.7 1053.02 L2097.75 1007.19 L2101.8 962.403 L2105.85 920.414 L2109.9 883.478 L2113.95 854.953 L2118 839.413 L2122.05 836.608 L2126.1 838.561 L2130.15 839.754 L2134.2 839.106 L2138.25 838.048 L2142.3 839.515 L2146.35 846.456 L2150.4 859.682 L2154.45 877.576 L2158.5 897.616 L2162.54 917.409 L2166.59 934.968 L2170.64 948.747 L2174.69 957.657 L2178.74 961.071 L2182.79 958.841 L2186.84 951.287 L2190.89 939.175 L2194.94 923.68 L2198.99 906.342 L2203.04 889.015 L2207.09 873.734 L2211.14 862.299 L2215.19 855.311 L2219.24 851.548 L2223.29 849.051 L2227.34 846.942 L2231.39 846.616 L2235.44 851.834 L2239.49 865.979 L2243.54 889.1 L2247.59 919.37 L2251.64 954.903 L2255.69 994.073 L2259.74 1035.43 L2263.79 1077.64 L2267.84 1119.52 L2271.88 1159.98 L2275.93 1198.14 L2279.98 1233.3 L2284.03 1264.94 L2288.08 1292.75 L2292.13 1316.61 L2292.13 342.674 L2288.08 367.872 L2284.03 395.916 L2279.98 426.601 L2275.93 459.596 L2271.88 494.442 L2267.84 530.555 L2263.79 567.235 L2259.74 603.683 L2255.69 639.007 L2251.64 672.224 L2247.59 702.234 L2243.54 727.742 L2239.49 747.146 L2235.44 758.831 L2231.39 762.964 L2227.34 762.938 L2223.29 762.412 L2219.24 762.567 L2215.19 762.217 L2211.14 759.02 L2207.09 751.329 L2203.04 739.312 L2198.99 724.357 L2194.94 708.155 L2190.89 692.304 L2186.84 678.204 L2182.79 667.017 L2178.74 659.631 L2174.69 656.608 L2170.64 658.151 L2166.59 664.067 L2162.54 673.746 L2158.5 686.136 L2154.45 699.722 L2150.4 712.529 L2146.35 722.366 L2142.3 727.845 L2138.25 729.888 L2134.2 731.433 L2130.15 735.285 L2126.1 742.644 L2122.05 752.113 L2118 757.793 L2113.95 751.296 L2109.9 731.95 L2105.85 703.92 L2101.8 670.2 L2097.75 632.731 L2093.7 593.034 L2089.65 552.441 L2085.6 512.138 L2081.55 473.163 L2077.5 436.395 L2073.45 402.536 L2069.4 372.123 L2065.35 345.532 L2061.3 323.008 L2057.25 304.693 L2053.2 290.664 L2049.16 280.966 L2045.11 275.64 L2041.06 274.746 L2037.01 278.374 L2032.96 286.636 L2028.91 299.652 L2024.86 317.522 L2020.81 340.291 L2016.76 367.908 L2012.71 400.186 L2008.66 436.767 L2004.61 477.082 L2000.56 520.329 L1996.51 565.436 L1992.46 610.998 L1988.41 655.098 L1984.36 694.719 L1980.31 723.958 L1976.26 732.926 L1972.21 721.798 L1968.16 704.367 L1964.11 689.201 L1960.06 679.433 L1956.01 676.056 L1951.96 679.038 L1947.91 687.608 L1943.87 700.222 L1939.82 714.213 L1935.77 724.973 L1931.72 726.079 L1927.67 714.966 L1923.62 696.515 L1919.57 676.511 L1915.52 658.555 L1911.47 644.712 L1907.42 636.132 L1903.37 633.326 L1899.32 636.283 L1895.27 644.549 L1891.22 657.305 L1887.17 673.44 L1883.12 691.635 L1879.07 710.426 L1875.02 728.272 L1870.97 743.646 L1866.92 755.317 L1862.87 762.868 L1858.82 766.911 L1854.77 768.523 L1850.72 768.6 L1846.67 767.736 L1842.62 766.367 L1838.57 764.897 L1834.53 763.716 L1830.48 763.154 L1826.43 763.401 L1822.38 764.423 L1818.33 765.889 L1814.28 767.115 L1810.23 767.11 L1806.18 764.9 L1802.13 760.215 L1798.08 753.871 L1794.03 747.282 L1789.98 741.72 L1785.93 737.982 L1781.88 736.36 L1777.83 736.714 L1773.78 738.562 L1769.73 741.201 L1765.68 743.876 L1761.63 745.962 L1757.58 747.121 L1753.53 747.291 L1749.48 746.518 L1745.43 744.77 L1741.38 741.898 L1737.33 737.791 L1733.28 732.617 L1729.23 726.945 L1725.19 721.673 L1721.14 717.841 L1717.09 716.393 L1713.04 717.922 L1708.99 722.291 L1704.94 727.933 L1700.89 730.85 L1696.84 725.392 L1692.79 709.063 L1688.74 683.833 L1684.69 652.527 L1680.64 617.362 L1676.59 580.082 L1672.54 542.185 L1668.49 505.013 L1664.44 469.769 L1660.39 437.514 L1656.34 409.153 L1652.29 385.426 L1648.24 366.904 L1644.19 353.998 L1640.14 346.958 L1636.09 345.89 L1632.04 350.755 L1627.99 361.375 L1623.94 377.433 L1619.89 398.473 L1615.85 423.895 L1611.8 452.962 L1607.75 484.812 L1603.7 518.475 L1599.65 552.912 L1595.6 587.055 L1591.55 619.858 L1587.5 650.347 L1583.45 677.661 L1579.4 701.045 L1575.35 719.781 L1571.3 732.988 L1567.25 739.47 L1563.2 738.466 L1559.15 731.463 L1555.1 721.621 L1551.05 711.493 L1547 702.57 L1542.95 695.73 L1538.9 691.538 L1534.85 690.331 L1530.8 692.209 L1526.75 697.016 L1522.7 704.331 L1518.65 713.495 L1514.6 723.666 L1510.55 733.937 L1506.51 743.502 L1502.46 751.847 L1498.41 758.885 L1494.36 764.85 L1490.31 769.965 L1486.26 774.025 L1482.21 776.245 L1478.16 775.764 L1474.11 772.596 L1470.06 767.818 L1466.01 762.907 L1461.96 759.212 L1457.91 757.739 L1453.86 758.953 L1449.81 762.429 L1445.76 766.167 L1441.71 765.91 L1437.66 756.732 L1433.61 737.126 L1429.56 708.935 L1425.51 674.541 L1421.46 635.919 L1417.41 594.717 L1413.36 552.388 L1409.31 510.238 L1405.26 469.434 L1401.21 430.987 L1397.17 395.748 L1393.12 364.406 L1389.07 337.495 L1385.02 315.415 L1380.97 298.45 L1376.92 286.8 L1372.87 280.595 L1368.82 279.911 L1364.77 284.772 L1360.72 295.149 L1356.67 310.934 L1352.62 331.926 L1348.57 357.801 L1344.52 388.088 L1340.47 422.151 L1336.42 459.184 L1332.37 498.212 L1328.32 538.108 L1324.27 577.623 L1320.22 615.409 L1316.17 650.053 L1312.12 680.105 L1308.07 704.189 L1304.02 721.454 L1299.97 732.517 L1295.92 739.724 L1291.87 745.574 L1287.83 751.193 L1283.78 756.232 L1279.73 759.599 L1275.68 760.561 L1271.63 759.5 L1267.58 757.645 L1263.53 756.35 L1259.48 756.65 L1255.43 759.085 L1251.38 763.623 L1247.33 769.598 L1243.28 775.688 L1239.23 780.105 L1235.18 781.283 L1231.13 778.845 L1227.08 773.805 L1223.03 767.788 L1218.98 762.278 L1214.93 758.318 L1210.88 756.471 L1206.83 756.848 L1202.78 759.157 L1198.73 762.756 L1194.68 766.716 L1190.63 769.87 L1186.58 770.906 L1182.54 768.624 L1178.49 762.521 L1174.44 753.189 L1170.39 741.797 L1166.34 729.342 L1162.29 716.504 L1158.24 703.876 L1154.19 692.163 L1150.14 682.233 L1146.09 675.016 L1142.04 671.316 L1137.99 671.533 L1133.94 675.205 L1129.89 680.09 L1125.84 681.005 L1121.79 671.744 L1117.74 651.167 L1113.69 622.387 L1109.64 588.431 L1105.59 551.441 L1101.54 513.036 L1097.49 474.552 L1093.44 437.11 L1089.39 401.639 L1085.34 368.864 L1081.29 339.303 L1077.24 313.266 L1073.2 290.872 L1069.15 272.068 L1065.1 256.662 L1061.05 244.354 L1057 234.78 L1052.95 227.536 L1048.9 222.216 L1044.85 218.435 L1040.8 215.845 L1036.75 214.145 L1032.7 213.09 L1028.65 212.488 L1024.6 212.196 L1020.55 212.12 L1016.5 212.205 L1012.45 212.437 L1008.4 212.836 L1004.35 213.458 L1000.3 214.396 L996.252 215.783 L992.203 217.791 L988.153 220.632 L984.103 224.557 L980.054 229.847 L976.004 236.802 L971.954 245.73 L967.905 256.922 L963.855 270.637 L959.806 287.075 L955.756 306.357 L951.706 328.512 L947.657 353.466 L943.607 381.04 L939.557 410.96 L935.508 442.876 L931.458 476.389 L927.409 511.085 L923.359 546.565 L919.309 582.459 L915.26 618.396 L911.21 653.818 L907.16 687.1 L903.111 710.218 L899.061 701.676 L895.012 673.216 L890.962 641.427 L886.912 610.061 L882.863 580.4 L878.813 553.317 L874.763 529.629 L870.714 510.159 L866.664 495.706 L862.614 487 L858.565 484.649 L854.515 489.087 L850.466 500.534 L846.416 518.96 L842.366 544.07 L838.317 575.291 L834.267 611.78 L830.217 652.421 L826.168 695.834 L822.118 740.319 L818.069 783.6 L814.019 821.541 L809.969 841.94 L805.92 828.244 L801.87 797.888 L797.82 765.698 L793.771 735.878 L789.721 710.038 L785.672 688.947 L781.622 672.905 L777.572 661.844 L773.523 655.383 L769.473 652.87 L765.423 653.431 L761.374 656.022 L757.324 659.469 L753.275 662.5 L749.225 663.794 L745.175 662.19 L741.126 657.293 L737.076 650.077 L733.026 642.456 L728.977 636.212 L724.927 632.519 L720.878 632.027 L716.828 635.032 L712.778 641.507 L708.729 650.942 L704.679 661.942 L700.629 671.835 L696.58 677.711 L692.53 679.102 L688.48 677.857 L684.431 676.056 L680.381 675.331 L676.332 676.932 L672.282 681.798 L668.232 690.564 L664.183 703.533 L660.133 720.65 L656.083 741.503 L652.034 765.343 L647.984 791.142 L643.935 817.672 L639.885 843.593 L635.835 867.521 L631.786 887.991 L627.736 903.201 L623.686 910.665 L619.637 908.057 L615.587 895.424 L611.538 874.669 L607.488 847.591 L603.438 815.602 L599.389 780.033 L595.339 742.298 L591.289 703.891 L587.24 666.319 L583.19 631.006 L579.141 599.203 L575.091 571.913 L571.041 549.836 L566.992 533.34 L562.942 522.464 L558.892 516.94 L554.843 516.243 L550.793 519.666 L546.744 526.394 L542.694 535.584 L538.644 546.418 L534.595 558.074 L530.545 569.502 L526.495 578.755 L522.446 582.13 L518.396 576.954 L514.347 566.648 L510.297 556.086 L506.247 548.002 L502.198 543.866 L498.148 544.67 L494.098 551.179 L490.049 563.947 L485.999 583.265 L481.949 609.085 L477.9 640.95 L473.85 677.92 L469.801 718.463 L465.751 760.23 L461.701 799.613 L457.652 831.534 L453.602 852.132 L449.552 863.275 L445.503 869.862 L441.453 875.456 L437.404 881.899 L433.354 889.927 L429.304 899.529 L425.255 910.124 L421.205 920.667 L417.155 929.741 L413.106 935.713 L409.056 936.997 L405.007 932.56 L400.957 922.475 L396.907 907.946 L392.858 890.479 L388.808 870.782 L384.758 847.822 L380.709 818.559 L376.659 780.53 L372.61 734.979 L368.56 685.149 L364.51 634.152 L360.461 584.669 L356.411 539.052 L352.361 499.348 L348.312 467.265 L344.262 444.111 L340.213 430.715 L336.163 427.336 L332.113 433.452 L328.064 447.115 L324.014 462.529 L319.964 464.369 L315.915 441.245 L311.865 405.107 L307.816 365.875 L303.766 327.457 L299.716 291.689 L295.667 259.611 L291.617 231.836 L287.567 208.665 L283.518 190.152 L279.468 176.147 L275.418 166.329 L271.369 160.256  Z" fill="#808080" fill-rule="evenodd" fill-opacity="0.25"/>
<polyline clip-path="url(#clip512)" style="stroke:#808080; stroke-linecap:round; stroke-linejoin:round; stroke-width:4; stroke-opacity:1; fill:none" points="271.369,1172.17 275.418,1132.46 279.468,1088.24 283.518,1039.73 287.567,987.354 291.617,931.788 295.667,873.943 299.716,814.998 303.766,756.422 307.816,700.07 311.865,648.507 315.915,606.267 319.964,583.76 324.014,593.278 328.064,623.6 332.113,659.401 336.163,694.706 340.213,727.22 344.262,755.911 348.312,780.386 352.361,800.697 356.411,817.27 360.461,830.854 364.51,842.482 368.56,853.464 372.61,865.433 376.659,880.473 380.709,900.836 384.758,926.843 388.808,955.18 392.858,982.05 396.907,1005.77 400.957,1026.51 405.007,1045.35 409.056,1063.2 413.106,1079.95 417.155,1094.49 421.205,1105.29 425.255,1110.83 429.304,1109.93 433.354,1101.84 437.404,1086.35 441.453,1063.88 445.503,1035.67 449.552,1004.09 453.602,973.305 457.652,948.859 461.701,933.31 465.751,923.536 469.801,915.239 473.85,905.623 477.9,893.181 481.949,877.23 485.999,857.668 490.049,834.854 494.098,809.502 498.148,782.594 502.198,755.275 506.247,728.789 510.297,704.474 514.347,684.001 518.396,670.163 522.446,667.746 526.495,679.942 530.545,703.731 534.595,734.957 538.644,771.134 542.694,810.616 546.744,851.946 550.793,893.651 554.843,934.24 558.892,972.263 562.942,1006.4 566.992,1035.55 571.041,1058.91 575.091,1075.98 579.141,1086.66 583.19,1091.18 587.24,1090.1 591.289,1084.25 595.339,1074.64 599.389,1062.4 603.438,1048.66 607.488,1034.5 611.538,1020.97 615.587,1009.26 619.637,1001 623.686,998.015 627.736,1000.35 631.786,1005.76 635.835,1011.95 639.885,1017.4 643.935,1020.99 647.984,1021.77 652.034,1018.92 656.083,1011.76 660.133,999.842 664.183,983.03 668.232,961.519 672.282,935.852 676.332,906.903 680.381,875.841 684.431,844.096 688.48,813.358 692.53,785.645 696.58,763.376 700.629,748.679 704.679,741.319 708.729,738.574 712.778,737.914 716.828,738.042 720.878,738.505 724.927,739.291 728.977,740.665 733.026,743.195 737.076,747.921 741.126,756.433 745.175,770.385 749.225,790.43 753.275,815.781 757.324,844.826 761.374,875.726 765.423,906.647 769.473,935.812 773.523,961.556 777.572,982.381 781.622,997.027 785.672,1004.54 789.721,1004.36 793.771,996.333 797.82,980.898 801.87,959.423 805.92,935.981 809.969,925.376 814.019,945.123 818.069,978.85 822.118,1014.62 826.168,1048.63 830.217,1079 834.267,1104.44 838.317,1124.04 842.366,1137.12 846.416,1143.29 850.466,1142.42 854.515,1134.59 858.565,1120.17 862.614,1099.7 866.664,1073.91 870.714,1043.66 874.763,1009.91 878.813,973.626 882.863,935.755 886.912,897.208 890.962,858.902 895.012,822.123 899.061,790.588 903.111,780.808 907.16,804.409 911.21,839.752 915.26,878.634 919.309,919.232 923.359,960.776 927.409,1002.67 931.458,1044.33 935.508,1085.13 939.557,1124.47 943.607,1161.75 947.657,1196.48 951.706,1228.24 955.756,1256.76 959.806,1281.88 963.855,1303.59 967.905,1321.99 971.954,1337.28 976.004,1349.73 980.054,1359.66 984.103,1367.42 988.153,1373.35 992.203,1377.79 996.252,1381.02 1000.3,1383.3 1004.35,1384.85 1008.4,1385.81 1012.45,1386.3 1016.5,1386.4 1020.55,1386.11 1024.6,1385.41 1028.65,1384.24 1032.7,1382.48 1036.75,1379.94 1040.8,1376.4 1044.85,1371.56 1048.9,1365.09 1052.95,1356.58 1057,1345.62 1061.05,1331.76 1065.1,1314.57 1069.15,1293.67 1073.2,1268.78 1077.24,1239.73 1081.29,1206.53 1085.34,1169.37 1089.39,1128.68 1093.44,1085.12 1097.49,1039.58 1101.54,993.209 1105.59,947.335 1109.64,903.535 1113.69,863.672 1117.74,830.132 1121.79,806.171 1125.84,795.105 1129.89,795.967 1133.94,802.677 1137.99,810.122 1142.04,816.076 1146.09,820.025 1150.14,822.26 1154.19,823.412 1158.24,824.185 1162.29,825.173 1166.34,826.775 1170.39,829.251 1174.44,832.941 1178.49,838.503 1182.54,846.781 1186.58,858.066 1190.63,871.592 1194.68,885.936 1198.73,899.613 1202.78,911.33 1206.83,920.086 1210.88,925.218 1214.93,926.457 1218.98,923.981 1223.03,918.455 1227.08,911.055 1231.13,903.416 1235.18,897.323 1239.23,893.951 1243.28,893.081 1247.33,893.286 1251.38,892.899 1255.43,890.693 1259.48,886.071 1263.53,879.047 1267.58,870.189 1271.63,860.547 1275.68,851.484 1279.73,844.244 1283.78,839.235 1287.83,835.776 1291.87,832.851 1295.92,830.214 1299.97,829.126 1304.02,832.243 1308.07,842.088 1312.12,859.462 1316.17,883.694 1320.22,913.579 1324.27,947.808 1328.32,985.078 1332.37,1024.11 1336.42,1063.69 1340.47,1102.66 1344.52,1140 1348.57,1174.79 1352.62,1206.28 1356.67,1233.83 1360.72,1256.96 1364.77,1275.29 1368.82,1288.53 1372.87,1296.46 1376.92,1298.96 1380.97,1295.93 1385.02,1287.35 1389.07,1273.29 1393.12,1253.89 1397.17,1229.44 1401.21,1200.37 1405.26,1167.29 1409.31,1130.96 1413.36,1092.36 1417.41,1052.61 1421.46,1013.02 1425.51,975.08 1429.56,940.485 1433.61,911.298 1437.66,890.009 1441.71,878.588 1445.76,875.664 1449.81,876.45 1453.86,876.815 1457.91,874.861 1461.96,870.24 1466.01,863.453 1470.06,855.498 1474.11,847.682 1478.16,841.395 1482.21,837.608 1486.26,836.213 1490.31,836.228 1494.36,836.77 1498.41,837.573 1502.46,838.847 1506.51,840.882 1510.55,843.708 1514.6,847.004 1518.65,850.211 1522.7,852.718 1526.75,854.012 1530.8,853.763 1534.85,851.867 1538.9,848.439 1542.95,843.79 1547,838.383 1551.05,832.819 1555.1,827.915 1559.15,825.004 1563.2,826.398 1567.25,834.944 1571.3,851.767 1575.35,875.717 1579.4,905.207 1583.45,938.986 1587.5,976.004 1591.55,1015.23 1595.6,1055.6 1599.65,1096 1603.7,1135.32 1607.75,1172.51 1611.8,1206.56 1615.85,1236.64 1619.89,1261.99 1623.94,1282.04 1627.99,1296.33 1632.04,1304.55 1636.09,1306.49 1640.14,1302.06 1644.19,1291.29 1648.24,1274.32 1652.29,1251.42 1656.34,1223.01 1660.39,1189.66 1664.44,1152.12 1668.49,1111.32 1672.54,1068.36 1676.59,1024.54 1680.64,981.29 1684.69,940.253 1688.74,903.328 1692.79,872.894 1696.84,851.943 1700.89,842.588 1704.94,842.451 1708.99,845.955 1713.04,849.121 1717.09,850.341 1721.14,849.383 1725.19,846.689 1729.23,843.017 1733.28,839.191 1737.33,835.896 1741.38,833.504 1745.43,832.024 1749.48,831.242 1753.53,830.977 1757.58,831.241 1761.63,832.197 1765.68,833.969 1769.73,836.449 1773.78,839.28 1777.83,841.969 1781.88,844.058 1785.93,845.26 1789.98,845.553 1794.03,845.264 1798.08,845.121 1802.13,846.229 1806.18,849.734 1810.23,856.11 1814.28,864.675 1818.33,874.018 1822.38,882.697 1826.43,889.608 1830.48,894.05 1834.53,895.7 1838.57,894.559 1842.62,890.879 1846.67,885.094 1850.72,877.765 1854.77,869.597 1858.82,861.54 1862.87,854.914 1866.92,851.265 1870.97,851.685 1875.02,856.222 1879.07,864.07 1883.12,874.064 1887.17,884.942 1891.22,895.427 1895.27,904.287 1899.32,910.407 1903.37,912.87 1907.42,911.05 1911.47,904.706 1915.52,894.074 1919.57,880.014 1923.62,864.293 1927.67,850.234 1931.72,843.375 1935.77,848.39 1939.82,862.558 1943.87,879.352 1947.91,894.113 1951.96,904.174 1956.01,908.032 1960.06,904.993 1964.11,895.131 1968.16,879.559 1972.21,861.539 1976.26,849.768 1980.31,858.162 1984.36,887.008 1988.41,926.512 1992.46,970.849 1996.51,1017.06 2000.56,1063.28 2004.61,1108.12 2008.66,1150.54 2012.71,1189.72 2016.76,1225.1 2020.81,1256.29 2024.86,1283.08 2028.91,1305.39 2032.96,1323.22 2037.01,1336.59 2041.06,1345.56 2045.11,1350.13 2049.16,1350.28 2053.2,1345.93 2057.25,1336.97 2061.3,1323.26 2065.35,1304.7 2069.4,1281.24 2073.45,1252.94 2077.5,1220 2081.55,1182.82 2085.6,1142 2089.65,1098.38 2093.7,1053.02 2097.75,1007.19 2101.8,962.403 2105.85,920.414 2109.9,883.478 2113.95,854.953 2118,839.413 2122.05,836.608 2126.1,838.561 2130.15,839.754 2134.2,839.106 2138.25,838.048 2142.3,839.515 2146.35,846.456 2150.4,859.682 2154.45,877.576 2158.5,897.616 2162.54,917.409 2166.59,934.968 2170.64,948.747 2174.69,957.657 2178.74,961.071 2182.79,958.841 2186.84,951.287 2190.89,939.175 2194.94,923.68 2198.99,906.342 2203.04,889.015 2207.09,873.734 2211.14,862.299 2215.19,855.311 2219.24,851.548 2223.29,849.051 2227.34,846.942 2231.39,846.616 2235.44,851.834 2239.49,865.979 2243.54,889.1 2247.59,919.37 2251.64,954.903 2255.69,994.073 2259.74,1035.43 2263.79,1077.64 2267.84,1119.52 2271.88,1159.98 2275.93,1198.14 2279.98,1233.3 2284.03,1264.94 2288.08,1292.75 2292.13,1316.61 "/>
<path clip-path="url(#clip510)" d="M282.146 1379.86 L797.063 1379.86 L797.063 1120.66 L282.146 1120.66  Z" fill="#ffffff" fill-rule="evenodd" fill-opacity="1"/>
<polyline clip-path="url(#clip510)" style="stroke:#000000; stroke-linecap:round; stroke-linejoin:round; stroke-width:4; stroke-opacity:1; fill:none" points="282.146,1379.86 797.063,1379.86 797.063,1120.66 282.146,1120.66 282.146,1379.86 "/>
<circle clip-path="url(#clip510)" cx="377.347" cy="1172.5" r="23.04" fill="#ff0000" fill-rule="evenodd" fill-opacity="1" stroke="#000000" stroke-opacity="1" stroke-width="5.12"/>
<path clip-path="url(#clip510)" d="M494.26 1174.13 L494.26 1189.78 L490.001 1189.78 L490.001 1174.27 Q490.001 1170.59 488.566 1168.76 Q487.13 1166.93 484.26 1166.93 Q480.811 1166.93 478.82 1169.13 Q476.83 1171.33 476.83 1175.12 L476.83 1189.78 L472.547 1189.78 L472.547 1163.85 L476.83 1163.85 L476.83 1167.88 Q478.357 1165.54 480.417 1164.38 Q482.501 1163.23 485.209 1163.23 Q489.677 1163.23 491.968 1166 Q494.26 1168.76 494.26 1174.13 Z" fill="#000000" fill-rule="evenodd" fill-opacity="1" /><path clip-path="url(#clip510)" d="M512.802 1166.84 Q509.376 1166.84 507.385 1169.52 Q505.394 1172.18 505.394 1176.84 Q505.394 1181.49 507.362 1184.17 Q509.353 1186.84 512.802 1186.84 Q516.204 1186.84 518.195 1184.15 Q520.186 1181.47 520.186 1176.84 Q520.186 1172.23 518.195 1169.54 Q516.204 1166.84 512.802 1166.84 M512.802 1163.23 Q518.357 1163.23 521.528 1166.84 Q524.7 1170.45 524.7 1176.84 Q524.7 1183.2 521.528 1186.84 Q518.357 1190.45 512.802 1190.45 Q507.223 1190.45 504.052 1186.84 Q500.903 1183.2 500.903 1176.84 Q500.903 1170.45 504.052 1166.84 Q507.223 1163.23 512.802 1163.23 Z" fill="#000000" fill-rule="evenodd" fill-opacity="1" /><path clip-path="url(#clip510)" d="M531.76 1163.85 L536.019 1163.85 L536.019 1189.78 L531.76 1189.78 L531.76 1163.85 M531.76 1153.76 L536.019 1153.76 L536.019 1159.15 L531.76 1159.15 L531.76 1153.76 Z" fill="#000000" fill-rule="evenodd" fill-opacity="1" /><path clip-path="url(#clip510)" d="M561.459 1164.61 L561.459 1168.64 Q559.653 1167.72 557.709 1167.25 Q555.764 1166.79 553.681 1166.79 Q550.51 1166.79 548.912 1167.76 Q547.338 1168.73 547.338 1170.68 Q547.338 1172.16 548.473 1173.02 Q549.607 1173.85 553.033 1174.61 L554.491 1174.94 Q559.028 1175.91 560.926 1177.69 Q562.848 1179.45 562.848 1182.62 Q562.848 1186.23 559.977 1188.34 Q557.13 1190.45 552.13 1190.45 Q550.047 1190.45 547.778 1190.03 Q545.533 1189.64 543.033 1188.83 L543.033 1184.43 Q545.394 1185.66 547.686 1186.28 Q549.977 1186.88 552.223 1186.88 Q555.232 1186.88 556.852 1185.86 Q558.473 1184.82 558.473 1182.95 Q558.473 1181.21 557.292 1180.29 Q556.135 1179.36 552.176 1178.5 L550.695 1178.16 Q546.737 1177.32 544.977 1175.61 Q543.218 1173.87 543.218 1170.86 Q543.218 1167.21 545.811 1165.22 Q548.403 1163.23 553.172 1163.23 Q555.533 1163.23 557.616 1163.57 Q559.699 1163.92 561.459 1164.61 Z" fill="#000000" fill-rule="evenodd" fill-opacity="1" /><path clip-path="url(#clip510)" d="M580.417 1192.18 Q578.611 1196.81 576.898 1198.23 Q575.186 1199.64 572.315 1199.64 L568.912 1199.64 L568.912 1196.07 L571.412 1196.07 Q573.172 1196.07 574.144 1195.24 Q575.116 1194.41 576.297 1191.3 L577.06 1189.36 L566.574 1163.85 L571.088 1163.85 L579.19 1184.13 L587.292 1163.85 L591.806 1163.85 L580.417 1192.18 Z" fill="#000000" fill-rule="evenodd" fill-opacity="1" /><path clip-path="url(#clip510)" d="M629.815 1167.79 L629.815 1153.76 L634.074 1153.76 L634.074 1189.78 L629.815 1189.78 L629.815 1185.89 Q628.472 1188.2 626.412 1189.34 Q624.375 1190.45 621.505 1190.45 Q616.806 1190.45 613.843 1186.7 Q610.903 1182.95 610.903 1176.84 Q610.903 1170.73 613.843 1166.98 Q616.806 1163.23 621.505 1163.23 Q624.375 1163.23 626.412 1164.36 Q628.472 1165.47 629.815 1167.79 M615.301 1176.84 Q615.301 1181.54 617.222 1184.22 Q619.167 1186.88 622.546 1186.88 Q625.926 1186.88 627.87 1184.22 Q629.815 1181.54 629.815 1176.84 Q629.815 1172.14 627.87 1169.48 Q625.926 1166.79 622.546 1166.79 Q619.167 1166.79 617.222 1169.48 Q615.301 1172.14 615.301 1176.84 Z" fill="#000000" fill-rule="evenodd" fill-opacity="1" /><path clip-path="url(#clip510)" d="M654.63 1176.74 Q649.468 1176.74 647.477 1177.92 Q645.486 1179.11 645.486 1181.95 Q645.486 1184.22 646.968 1185.56 Q648.472 1186.88 651.042 1186.88 Q654.583 1186.88 656.713 1184.38 Q658.866 1181.86 658.866 1177.69 L658.866 1176.74 L654.63 1176.74 M663.125 1174.98 L663.125 1189.78 L658.866 1189.78 L658.866 1185.84 Q657.407 1188.2 655.231 1189.34 Q653.055 1190.45 649.907 1190.45 Q645.926 1190.45 643.565 1188.23 Q641.227 1185.98 641.227 1182.23 Q641.227 1177.86 644.143 1175.63 Q647.083 1173.41 652.893 1173.41 L658.866 1173.41 L658.866 1172.99 Q658.866 1170.05 656.921 1168.46 Q655 1166.84 651.505 1166.84 Q649.282 1166.84 647.176 1167.37 Q645.069 1167.9 643.125 1168.97 L643.125 1165.03 Q645.463 1164.13 647.662 1163.69 Q649.861 1163.23 651.944 1163.23 Q657.569 1163.23 660.347 1166.14 Q663.125 1169.06 663.125 1174.98 Z" fill="#000000" fill-rule="evenodd" fill-opacity="1" /><path clip-path="url(#clip510)" d="M676.111 1156.49 L676.111 1163.85 L684.884 1163.85 L684.884 1167.16 L676.111 1167.16 L676.111 1181.23 Q676.111 1184.41 676.967 1185.31 Q677.847 1186.21 680.509 1186.21 L684.884 1186.21 L684.884 1189.78 L680.509 1189.78 Q675.578 1189.78 673.703 1187.95 Q671.829 1186.1 671.829 1181.23 L671.829 1167.16 L668.704 1167.16 L668.704 1163.85 L671.829 1163.85 L671.829 1156.49 L676.111 1156.49 Z" fill="#000000" fill-rule="evenodd" fill-opacity="1" /><path clip-path="url(#clip510)" d="M702.268 1176.74 Q697.106 1176.74 695.115 1177.92 Q693.125 1179.11 693.125 1181.95 Q693.125 1184.22 694.606 1185.56 Q696.111 1186.88 698.68 1186.88 Q702.222 1186.88 704.351 1184.38 Q706.504 1181.86 706.504 1177.69 L706.504 1176.74 L702.268 1176.74 M710.763 1174.98 L710.763 1189.78 L706.504 1189.78 L706.504 1185.84 Q705.046 1188.2 702.87 1189.34 Q700.694 1190.45 697.546 1190.45 Q693.564 1190.45 691.203 1188.23 Q688.865 1185.98 688.865 1182.23 Q688.865 1177.86 691.782 1175.63 Q694.722 1173.41 700.532 1173.41 L706.504 1173.41 L706.504 1172.99 Q706.504 1170.05 704.56 1168.46 Q702.639 1166.84 699.143 1166.84 Q696.921 1166.84 694.814 1167.37 Q692.708 1167.9 690.764 1168.97 L690.764 1165.03 Q693.102 1164.13 695.301 1163.69 Q697.5 1163.23 699.583 1163.23 Q705.208 1163.23 707.986 1166.14 Q710.763 1169.06 710.763 1174.98 Z" fill="#000000" fill-rule="evenodd" fill-opacity="1" /><polyline clip-path="url(#clip510)" style="stroke:#000000; stroke-linecap:round; stroke-linejoin:round; stroke-width:4; stroke-opacity:1; fill:none" stroke-dasharray="16, 10" points="305.946,1224.34 448.747,1224.34 "/>
<path clip-path="url(#clip510)" d="M479.955 1208.33 L479.955 1215.69 L488.728 1215.69 L488.728 1219 L479.955 1219 L479.955 1233.07 Q479.955 1236.25 480.811 1237.15 Q481.691 1238.05 484.353 1238.05 L488.728 1238.05 L488.728 1241.62 L484.353 1241.62 Q479.422 1241.62 477.547 1239.79 Q475.672 1237.94 475.672 1233.07 L475.672 1219 L472.547 1219 L472.547 1215.69 L475.672 1215.69 L475.672 1208.33 L479.955 1208.33 Z" fill="#000000" fill-rule="evenodd" fill-opacity="1" /><path clip-path="url(#clip510)" d="M509.353 1219.67 Q508.635 1219.26 507.778 1219.07 Q506.945 1218.86 505.927 1218.86 Q502.316 1218.86 500.371 1221.22 Q498.45 1223.56 498.45 1227.96 L498.45 1241.62 L494.167 1241.62 L494.167 1215.69 L498.45 1215.69 L498.45 1219.72 Q499.792 1217.36 501.945 1216.22 Q504.098 1215.07 507.177 1215.07 Q507.616 1215.07 508.149 1215.13 Q508.681 1215.18 509.329 1215.3 L509.353 1219.67 Z" fill="#000000" fill-rule="evenodd" fill-opacity="1" /><path clip-path="url(#clip510)" d="M513.38 1231.38 L513.38 1215.69 L517.64 1215.69 L517.64 1231.22 Q517.64 1234.9 519.075 1236.76 Q520.51 1238.58 523.38 1238.58 Q526.829 1238.58 528.82 1236.38 Q530.834 1234.19 530.834 1230.39 L530.834 1215.69 L535.093 1215.69 L535.093 1241.62 L530.834 1241.62 L530.834 1237.63 Q529.283 1240 527.223 1241.15 Q525.186 1242.29 522.477 1242.29 Q518.01 1242.29 515.695 1239.51 Q513.38 1236.73 513.38 1231.38 M524.098 1215.07 L524.098 1215.07 Z" fill="#000000" fill-rule="evenodd" fill-opacity="1" /><path clip-path="url(#clip510)" d="M566.042 1227.59 L566.042 1229.67 L546.459 1229.67 Q546.737 1234.07 549.098 1236.38 Q551.482 1238.68 555.718 1238.68 Q558.172 1238.68 560.463 1238.07 Q562.778 1237.47 565.047 1236.27 L565.047 1240.3 Q562.755 1241.27 560.348 1241.78 Q557.94 1242.29 555.463 1242.29 Q549.26 1242.29 545.625 1238.68 Q542.014 1235.07 542.014 1228.91 Q542.014 1222.54 545.44 1218.82 Q548.889 1215.07 554.723 1215.07 Q559.954 1215.07 562.986 1218.45 Q566.042 1221.8 566.042 1227.59 M561.783 1226.34 Q561.736 1222.84 559.815 1220.76 Q557.917 1218.68 554.769 1218.68 Q551.204 1218.68 549.051 1220.69 Q546.922 1222.7 546.598 1226.36 L561.783 1226.34 Z" fill="#000000" fill-rule="evenodd" fill-opacity="1" /><path clip-path="url(#clip510)" d="M601.227 1205.6 L601.227 1209.14 L597.153 1209.14 Q594.861 1209.14 593.959 1210.07 Q593.079 1210.99 593.079 1213.4 L593.079 1215.69 L600.093 1215.69 L600.093 1219 L593.079 1219 L593.079 1241.62 L588.797 1241.62 L588.797 1219 L584.722 1219 L584.722 1215.69 L588.797 1215.69 L588.797 1213.88 Q588.797 1209.56 590.81 1207.59 Q592.824 1205.6 597.199 1205.6 L601.227 1205.6 Z" fill="#000000" fill-rule="evenodd" fill-opacity="1" /><path clip-path="url(#clip510)" d="M604.352 1231.38 L604.352 1215.69 L608.611 1215.69 L608.611 1231.22 Q608.611 1234.9 610.046 1236.76 Q611.482 1238.58 614.352 1238.58 Q617.801 1238.58 619.792 1236.38 Q621.806 1234.19 621.806 1230.39 L621.806 1215.69 L626.065 1215.69 L626.065 1241.62 L621.806 1241.62 L621.806 1237.63 Q620.255 1240 618.195 1241.15 Q616.158 1242.29 613.449 1242.29 Q608.982 1242.29 606.667 1239.51 Q604.352 1236.73 604.352 1231.38 M615.07 1215.07 L615.07 1215.07 Z" fill="#000000" fill-rule="evenodd" fill-opacity="1" /><path clip-path="url(#clip510)" d="M656.389 1225.97 L656.389 1241.62 L652.13 1241.62 L652.13 1226.11 Q652.13 1222.43 650.694 1220.6 Q649.259 1218.77 646.389 1218.77 Q642.94 1218.77 640.949 1220.97 Q638.958 1223.17 638.958 1226.96 L638.958 1241.62 L634.676 1241.62 L634.676 1215.69 L638.958 1215.69 L638.958 1219.72 Q640.486 1217.38 642.546 1216.22 Q644.63 1215.07 647.338 1215.07 Q651.805 1215.07 654.097 1217.84 Q656.389 1220.6 656.389 1225.97 Z" fill="#000000" fill-rule="evenodd" fill-opacity="1" /><path clip-path="url(#clip510)" d="M683.541 1216.69 L683.541 1220.67 Q681.736 1219.67 679.907 1219.19 Q678.102 1218.68 676.25 1218.68 Q672.106 1218.68 669.815 1221.32 Q667.523 1223.93 667.523 1228.68 Q667.523 1233.42 669.815 1236.06 Q672.106 1238.68 676.25 1238.68 Q678.102 1238.68 679.907 1238.19 Q681.736 1237.68 683.541 1236.69 L683.541 1240.62 Q681.759 1241.45 679.838 1241.87 Q677.94 1242.29 675.787 1242.29 Q669.93 1242.29 666.481 1238.61 Q663.032 1234.93 663.032 1228.68 Q663.032 1222.33 666.504 1218.7 Q670 1215.07 676.065 1215.07 Q678.032 1215.07 679.907 1215.48 Q681.782 1215.88 683.541 1216.69 Z" fill="#000000" fill-rule="evenodd" fill-opacity="1" /><path clip-path="url(#clip510)" d="M695.162 1208.33 L695.162 1215.69 L703.935 1215.69 L703.935 1219 L695.162 1219 L695.162 1233.07 Q695.162 1236.25 696.018 1237.15 Q696.898 1238.05 699.56 1238.05 L703.935 1238.05 L703.935 1241.62 L699.56 1241.62 Q694.629 1241.62 692.754 1239.79 Q690.879 1237.94 690.879 1233.07 L690.879 1219 L687.754 1219 L687.754 1215.69 L690.879 1215.69 L690.879 1208.33 L695.162 1208.33 Z" fill="#000000" fill-rule="evenodd" fill-opacity="1" /><path clip-path="url(#clip510)" d="M709.537 1215.69 L713.796 1215.69 L713.796 1241.62 L709.537 1241.62 L709.537 1215.69 M709.537 1205.6 L713.796 1205.6 L713.796 1210.99 L709.537 1210.99 L709.537 1205.6 Z" fill="#000000" fill-rule="evenodd" fill-opacity="1" /><path clip-path="url(#clip510)" d="M732.754 1218.68 Q729.328 1218.68 727.337 1221.36 Q725.347 1224.02 725.347 1228.68 Q725.347 1233.33 727.314 1236.01 Q729.305 1238.68 732.754 1238.68 Q736.157 1238.68 738.148 1235.99 Q740.138 1233.31 740.138 1228.68 Q740.138 1224.07 738.148 1221.38 Q736.157 1218.68 732.754 1218.68 M732.754 1215.07 Q738.31 1215.07 741.481 1218.68 Q744.652 1222.29 744.652 1228.68 Q744.652 1235.04 741.481 1238.68 Q738.31 1242.29 732.754 1242.29 Q727.175 1242.29 724.004 1238.68 Q720.856 1235.04 720.856 1228.68 Q720.856 1222.29 724.004 1218.68 Q727.175 1215.07 732.754 1215.07 Z" fill="#000000" fill-rule="evenodd" fill-opacity="1" /><path clip-path="url(#clip510)" d="M773.263 1225.97 L773.263 1241.62 L769.004 1241.62 L769.004 1226.11 Q769.004 1222.43 767.569 1220.6 Q766.134 1218.77 763.263 1218.77 Q759.814 1218.77 757.823 1220.97 Q755.833 1223.17 755.833 1226.96 L755.833 1241.62 L751.55 1241.62 L751.55 1215.69 L755.833 1215.69 L755.833 1219.72 Q757.36 1217.38 759.421 1216.22 Q761.504 1215.07 764.212 1215.07 Q768.68 1215.07 770.971 1217.84 Q773.263 1220.6 773.263 1225.97 Z" fill="#000000" fill-rule="evenodd" fill-opacity="1" /><polyline clip-path="url(#clip510)" style="stroke:#0000ff; stroke-linecap:round; stroke-linejoin:round; stroke-width:12; stroke-opacity:1; fill:none" points="305.946,1276.18 448.747,1276.18 "/>
<path clip-path="url(#clip510)" d="M489.052 1257.44 L489.052 1260.98 L484.978 1260.98 Q482.686 1260.98 481.783 1261.91 Q480.904 1262.83 480.904 1265.24 L480.904 1267.53 L487.917 1267.53 L487.917 1270.84 L480.904 1270.84 L480.904 1293.46 L476.621 1293.46 L476.621 1270.84 L472.547 1270.84 L472.547 1267.53 L476.621 1267.53 L476.621 1265.72 Q476.621 1261.4 478.635 1259.43 Q480.649 1257.44 485.024 1257.44 L489.052 1257.44 Z" fill="#000000" fill-rule="evenodd" fill-opacity="1" /><path clip-path="url(#clip510)" d="M492.616 1267.53 L496.876 1267.53 L496.876 1293.46 L492.616 1293.46 L492.616 1267.53 M492.616 1257.44 L496.876 1257.44 L496.876 1262.83 L492.616 1262.83 L492.616 1257.44 Z" fill="#000000" fill-rule="evenodd" fill-opacity="1" /><path clip-path="url(#clip510)" d="M510.001 1260.17 L510.001 1267.53 L518.774 1267.53 L518.774 1270.84 L510.001 1270.84 L510.001 1284.91 Q510.001 1288.09 510.857 1288.99 Q511.737 1289.89 514.399 1289.89 L518.774 1289.89 L518.774 1293.46 L514.399 1293.46 Q509.468 1293.46 507.593 1291.63 Q505.718 1289.78 505.718 1284.91 L505.718 1270.84 L502.593 1270.84 L502.593 1267.53 L505.718 1267.53 L505.718 1260.17 L510.001 1260.17 Z" fill="#000000" fill-rule="evenodd" fill-opacity="1" /><path clip-path="url(#clip510)" d="M305.946 1348.75 L448.747 1348.75 L448.747 1307.28 L305.946 1307.28 L305.946 1348.75  Z" fill="#808080" fill-rule="evenodd" fill-opacity="0.25"/>
<polyline clip-path="url(#clip510)" style="stroke:#808080; stroke-linecap:round; stroke-linejoin:round; stroke-width:4; stroke-opacity:1; fill:none" points="305.946,1307.28 448.747,1307.28 "/>
<path clip-path="url(#clip510)" d="M489.329 1315.57 L489.329 1324.53 L502.223 1324.53 L502.223 1328.47 L489.329 1328.47 L489.329 1337.43 L485.441 1337.43 L485.441 1328.47 L472.547 1328.47 L472.547 1324.53 L485.441 1324.53 L485.441 1315.57 L489.329 1315.57 M472.547 1341.36 L502.223 1341.36 L502.223 1345.3 L472.547 1345.3 L472.547 1341.36 Z" fill="#000000" fill-rule="evenodd" fill-opacity="1" /><path clip-path="url(#clip510)" d="M531.413 1341.36 L547.732 1341.36 L547.732 1345.3 L525.788 1345.3 L525.788 1341.36 Q528.45 1338.61 533.033 1333.98 Q537.639 1329.32 538.82 1327.98 Q541.065 1325.46 541.945 1323.72 Q542.848 1321.96 542.848 1320.27 Q542.848 1317.52 540.903 1315.78 Q538.982 1314.05 535.88 1314.05 Q533.681 1314.05 531.227 1314.81 Q528.797 1315.57 526.019 1317.13 L526.019 1312.4 Q528.843 1311.27 531.297 1310.69 Q533.751 1310.11 535.788 1310.11 Q541.158 1310.11 544.352 1312.8 Q547.547 1315.48 547.547 1319.97 Q547.547 1322.1 546.737 1324.02 Q545.95 1325.92 543.843 1328.51 Q543.264 1329.19 540.163 1332.4 Q537.061 1335.6 531.413 1341.36 Z" fill="#000000" fill-rule="evenodd" fill-opacity="1" /><path clip-path="url(#clip510)" d="M566.991 1322.75 Q563.473 1322.75 561.574 1325.3 Q559.584 1327.96 559.584 1332.36 Q559.584 1337.01 561.551 1339.69 Q563.542 1342.36 566.991 1342.36 Q570.394 1342.36 572.385 1339.67 Q574.375 1336.99 574.375 1332.36 Q574.375 1328.12 572.385 1325.3 Q570.556 1322.75 566.991 1322.75 M566.991 1319.37 L581.135 1319.37 L581.135 1323.63 L576.366 1323.63 Q578.889 1327.24 578.889 1332.36 Q578.889 1338.72 575.718 1342.33 Q572.547 1345.97 566.991 1345.97 Q561.412 1345.97 558.264 1342.33 Q555.093 1338.72 555.093 1332.36 Q555.093 1325.94 558.264 1322.36 Q560.88 1319.37 566.991 1319.37 Z" fill="#000000" fill-rule="evenodd" fill-opacity="1" /></svg>
