<?xml version="1.0" encoding="utf-8"?>
<svg xmlns="http://www.w3.org/2000/svg" xmlns:xlink="http://www.w3.org/1999/xlink" width="600" height="400" viewBox="0 0 2400 1600">
<defs>
  <clipPath id="clip390">
    <rect x="0" y="0" width="2400" height="1600"/>
  </clipPath>
</defs>
<path clip-path="url(#clip390)" d="M0 1600 L2400 1600 L2400 0 L0 0  Z" fill="#ffffff" fill-rule="evenodd" fill-opacity="1"/>
<defs>
  <clipPath id="clip391">
    <rect x="480" y="0" width="1681" height="1600"/>
  </clipPath>
</defs>
<path clip-path="url(#clip390)" d="M249.542 1423.18 L2352.76 1423.18 L2352.76 123.472 L249.542 123.472  Z" fill="#ffffff" fill-rule="evenodd" fill-opacity="1"/>
<defs>
  <clipPath id="clip392">
    <rect x="249" y="123" width="2104" height="1301"/>
  </clipPath>
</defs>
<polyline clip-path="url(#clip392)" style="stroke:#000000; stroke-linecap:round; stroke-linejoin:round; stroke-width:2; stroke-opacity:0.1; fill:none" points="309.067,1423.18 309.067,123.472 "/>
<polyline clip-path="url(#clip392)" style="stroke:#000000; stroke-linecap:round; stroke-linejoin:round; stroke-width:2; stroke-opacity:0.1; fill:none" points="805.108,1423.18 805.108,123.472 "/>
<polyline clip-path="url(#clip392)" style="stroke:#000000; stroke-linecap:round; stroke-linejoin:round; stroke-width:2; stroke-opacity:0.1; fill:none" points="1301.15,1423.18 1301.15,123.472 "/>
<polyline clip-path="url(#clip392)" style="stroke:#000000; stroke-linecap:round; stroke-linejoin:round; stroke-width:2; stroke-opacity:0.1; fill:none" points="1797.19,1423.18 1797.19,123.472 "/>
<polyline clip-path="url(#clip392)" style="stroke:#000000; stroke-linecap:round; stroke-linejoin:round; stroke-width:2; stroke-opacity:0.1; fill:none" points="2293.23,1423.18 2293.23,123.472 "/>
<polyline clip-path="url(#clip390)" style="stroke:#000000; stroke-linecap:round; stroke-linejoin:round; stroke-width:4; stroke-opacity:1; fill:none" points="249.542,1423.18 2352.76,1423.18 "/>
<polyline clip-path="url(#clip390)" style="stroke:#000000; stroke-linecap:round; stroke-linejoin:round; stroke-width:4; stroke-opacity:1; fill:none" points="309.067,1423.18 309.067,1404.28 "/>
<polyline clip-path="url(#clip390)" style="stroke:#000000; stroke-linecap:round; stroke-linejoin:round; stroke-width:4; stroke-opacity:1; fill:none" points="805.108,1423.18 805.108,1404.28 "/>
<polyline clip-path="url(#clip390)" style="stroke:#000000; stroke-linecap:round; stroke-linejoin:round; stroke-width:4; stroke-opacity:1; fill:none" points="1301.15,1423.18 1301.15,1404.28 "/>
<polyline clip-path="url(#clip390)" style="stroke:#000000; stroke-linecap:round; stroke-linejoin:round; stroke-width:4; stroke-opacity:1; fill:none" points="1797.19,1423.18 1797.19,1404.28 "/>
<polyline clip-path="url(#clip390)" style="stroke:#000000; stroke-linecap:round; stroke-linejoin:round; stroke-width:4; stroke-opacity:1; fill:none" points="2293.23,1423.18 2293.23,1404.28 "/>
<path clip-path="url(#clip390)" d="M286.451 1454.1 Q282.84 1454.1 281.012 1457.66 Q279.206 1461.2 279.206 1468.33 Q279.206 1475.44 281.012 1479.01 Q282.84 1482.55 286.451 1482.55 Q290.086 1482.55 291.891 1479.01 Q293.72 1475.44 293.72 1468.33 Q293.72 1461.2 291.891 1457.66 Q290.086 1454.1 286.451 1454.1 M286.451 1450.39 Q292.261 1450.39 295.317 1455 Q298.396 1459.58 298.396 1468.33 Q298.396 1477.06 295.317 1481.67 Q292.261 1486.25 286.451 1486.25 Q280.641 1486.25 277.562 1481.67 Q274.507 1477.06 274.507 1468.33 Q274.507 1459.58 277.562 1455 Q280.641 1450.39 286.451 1450.39 Z" fill="#000000" fill-rule="evenodd" fill-opacity="1" /><path clip-path="url(#clip390)" d="M306.613 1479.7 L311.497 1479.7 L311.497 1485.58 L306.613 1485.58 L306.613 1479.7 Z" fill="#000000" fill-rule="evenodd" fill-opacity="1" /><path clip-path="url(#clip390)" d="M331.683 1454.1 Q328.071 1454.1 326.243 1457.66 Q324.437 1461.2 324.437 1468.33 Q324.437 1475.44 326.243 1479.01 Q328.071 1482.55 331.683 1482.55 Q335.317 1482.55 337.122 1479.01 Q338.951 1475.44 338.951 1468.33 Q338.951 1461.2 337.122 1457.66 Q335.317 1454.1 331.683 1454.1 M331.683 1450.39 Q337.493 1450.39 340.548 1455 Q343.627 1459.58 343.627 1468.33 Q343.627 1477.06 340.548 1481.67 Q337.493 1486.25 331.683 1486.25 Q325.872 1486.25 322.794 1481.67 Q319.738 1477.06 319.738 1468.33 Q319.738 1459.58 322.794 1455 Q325.872 1450.39 331.683 1450.39 Z" fill="#000000" fill-rule="evenodd" fill-opacity="1" /><path clip-path="url(#clip390)" d="M782.99 1454.1 Q779.379 1454.1 777.55 1457.66 Q775.745 1461.2 775.745 1468.33 Q775.745 1475.44 777.55 1479.01 Q779.379 1482.55 782.99 1482.55 Q786.624 1482.55 788.43 1479.01 Q790.259 1475.44 790.259 1468.33 Q790.259 1461.2 788.43 1457.66 Q786.624 1454.1 782.99 1454.1 M782.99 1450.39 Q788.8 1450.39 791.856 1455 Q794.934 1459.58 794.934 1468.33 Q794.934 1477.06 791.856 1481.67 Q788.8 1486.25 782.99 1486.25 Q777.18 1486.25 774.101 1481.67 Q771.046 1477.06 771.046 1468.33 Q771.046 1459.58 774.101 1455 Q777.18 1450.39 782.99 1450.39 Z" fill="#000000" fill-rule="evenodd" fill-opacity="1" /><path clip-path="url(#clip390)" d="M803.152 1479.7 L808.036 1479.7 L808.036 1485.58 L803.152 1485.58 L803.152 1479.7 Z" fill="#000000" fill-rule="evenodd" fill-opacity="1" /><path clip-path="url(#clip390)" d="M818.268 1451.02 L836.624 1451.02 L836.624 1454.96 L822.55 1454.96 L822.55 1463.43 Q823.569 1463.08 824.587 1462.92 Q825.606 1462.73 826.624 1462.73 Q832.411 1462.73 835.791 1465.9 Q839.17 1469.08 839.17 1474.49 Q839.17 1480.07 835.698 1483.17 Q832.226 1486.25 825.906 1486.25 Q823.731 1486.25 821.462 1485.88 Q819.217 1485.51 816.809 1484.77 L816.809 1480.07 Q818.893 1481.2 821.115 1481.76 Q823.337 1482.32 825.814 1482.32 Q829.818 1482.32 832.156 1480.21 Q834.494 1478.1 834.494 1474.49 Q834.494 1470.88 832.156 1468.77 Q829.818 1466.67 825.814 1466.67 Q823.939 1466.67 822.064 1467.08 Q820.212 1467.5 818.268 1468.38 L818.268 1451.02 Z" fill="#000000" fill-rule="evenodd" fill-opacity="1" /><path clip-path="url(#clip390)" d="M1268.3 1481.64 L1275.94 1481.64 L1275.94 1455.28 L1267.63 1456.95 L1267.63 1452.69 L1275.89 1451.02 L1280.57 1451.02 L1280.57 1481.64 L1288.21 1481.64 L1288.21 1485.58 L1268.3 1485.58 L1268.3 1481.64 Z" fill="#000000" fill-rule="evenodd" fill-opacity="1" /><path clip-path="url(#clip390)" d="M1297.65 1479.7 L1302.54 1479.7 L1302.54 1485.58 L1297.65 1485.58 L1297.65 1479.7 Z" fill="#000000" fill-rule="evenodd" fill-opacity="1" /><path clip-path="url(#clip390)" d="M1322.72 1454.1 Q1319.11 1454.1 1317.28 1457.66 Q1315.48 1461.2 1315.48 1468.33 Q1315.48 1475.44 1317.28 1479.01 Q1319.11 1482.55 1322.72 1482.55 Q1326.36 1482.55 1328.16 1479.01 Q1329.99 1475.44 1329.99 1468.33 Q1329.99 1461.2 1328.16 1457.66 Q1326.36 1454.1 1322.72 1454.1 M1322.72 1450.39 Q1328.53 1450.39 1331.59 1455 Q1334.67 1459.58 1334.67 1468.33 Q1334.67 1477.06 1331.59 1481.67 Q1328.53 1486.25 1322.72 1486.25 Q1316.91 1486.25 1313.83 1481.67 Q1310.78 1477.06 1310.78 1468.33 Q1310.78 1459.58 1313.83 1455 Q1316.91 1450.39 1322.72 1450.39 Z" fill="#000000" fill-rule="evenodd" fill-opacity="1" /><path clip-path="url(#clip390)" d="M1764.84 1481.64 L1772.48 1481.64 L1772.48 1455.28 L1764.17 1456.95 L1764.17 1452.69 L1772.43 1451.02 L1777.11 1451.02 L1777.11 1481.64 L1784.75 1481.64 L1784.75 1485.58 L1764.84 1485.58 L1764.84 1481.64 Z" fill="#000000" fill-rule="evenodd" fill-opacity="1" /><path clip-path="url(#clip390)" d="M1794.19 1479.7 L1799.08 1479.7 L1799.08 1485.58 L1794.19 1485.58 L1794.19 1479.7 Z" fill="#000000" fill-rule="evenodd" fill-opacity="1" /><path clip-path="url(#clip390)" d="M1809.31 1451.02 L1827.66 1451.02 L1827.66 1454.96 L1813.59 1454.96 L1813.59 1463.43 Q1814.61 1463.08 1815.63 1462.92 Q1816.65 1462.73 1817.66 1462.73 Q1823.45 1462.73 1826.83 1465.9 Q1830.21 1469.08 1830.21 1474.49 Q1830.21 1480.07 1826.74 1483.17 Q1823.27 1486.25 1816.95 1486.25 Q1814.77 1486.25 1812.5 1485.88 Q1810.26 1485.51 1807.85 1484.77 L1807.85 1480.07 Q1809.93 1481.2 1812.16 1481.76 Q1814.38 1482.32 1816.85 1482.32 Q1820.86 1482.32 1823.2 1480.21 Q1825.53 1478.1 1825.53 1474.49 Q1825.53 1470.88 1823.2 1468.77 Q1820.86 1466.67 1816.85 1466.67 Q1814.98 1466.67 1813.1 1467.08 Q1811.25 1467.5 1809.31 1468.38 L1809.31 1451.02 Z" fill="#000000" fill-rule="evenodd" fill-opacity="1" /><path clip-path="url(#clip390)" d="M2264.47 1481.64 L2280.79 1481.64 L2280.79 1485.58 L2258.84 1485.58 L2258.84 1481.64 Q2261.51 1478.89 2266.09 1474.26 Q2270.7 1469.61 2271.88 1468.27 Q2274.12 1465.74 2275 1464.01 Q2275.9 1462.25 2275.9 1460.56 Q2275.9 1457.8 2273.96 1456.07 Q2272.04 1454.33 2268.94 1454.33 Q2266.74 1454.33 2264.28 1455.09 Q2261.85 1455.86 2259.08 1457.41 L2259.08 1452.69 Q2261.9 1451.55 2264.35 1450.97 Q2266.81 1450.39 2268.84 1450.39 Q2274.21 1450.39 2277.41 1453.08 Q2280.6 1455.77 2280.6 1460.26 Q2280.6 1462.39 2279.79 1464.31 Q2279.01 1466.2 2276.9 1468.8 Q2276.32 1469.47 2273.22 1472.69 Q2270.12 1475.88 2264.47 1481.64 Z" fill="#000000" fill-rule="evenodd" fill-opacity="1" /><path clip-path="url(#clip390)" d="M2290.6 1479.7 L2295.49 1479.7 L2295.49 1485.58 L2290.6 1485.58 L2290.6 1479.7 Z" fill="#000000" fill-rule="evenodd" fill-opacity="1" /><path clip-path="url(#clip390)" d="M2315.67 1454.1 Q2312.06 1454.1 2310.23 1457.66 Q2308.43 1461.2 2308.43 1468.33 Q2308.43 1475.44 2310.23 1479.01 Q2312.06 1482.55 2315.67 1482.55 Q2319.31 1482.55 2321.11 1479.01 Q2322.94 1475.44 2322.94 1468.33 Q2322.94 1461.2 2321.11 1457.66 Q2319.31 1454.1 2315.67 1454.1 M2315.67 1450.39 Q2321.48 1450.39 2324.54 1455 Q2327.62 1459.58 2327.62 1468.33 Q2327.62 1477.06 2324.54 1481.67 Q2321.48 1486.25 2315.67 1486.25 Q2309.86 1486.25 2306.78 1481.67 Q2303.73 1477.06 2303.73 1468.33 Q2303.73 1459.58 2306.78 1455 Q2309.86 1450.39 2315.67 1450.39 Z" fill="#000000" fill-rule="evenodd" fill-opacity="1" /><path clip-path="url(#clip390)" d="M1317.76 1532.4 L1304.87 1549.74 L1318.43 1568.04 L1311.53 1568.04 L1301.15 1554.04 L1290.77 1568.04 L1283.87 1568.04 L1297.71 1549.39 L1285.04 1532.4 L1291.95 1532.4 L1301.4 1545.1 L1310.86 1532.4 L1317.76 1532.4 Z" fill="#000000" fill-rule="evenodd" fill-opacity="1" /><polyline clip-path="url(#clip392)" style="stroke:#000000; stroke-linecap:round; stroke-linejoin:round; stroke-width:2; stroke-opacity:0.1; fill:none" points="249.542,1411.08 2352.76,1411.08 "/>
<polyline clip-path="url(#clip392)" style="stroke:#000000; stroke-linecap:round; stroke-linejoin:round; stroke-width:2; stroke-opacity:0.1; fill:none" points="249.542,1185.69 2352.76,1185.69 "/>
<polyline clip-path="url(#clip392)" style="stroke:#000000; stroke-linecap:round; stroke-linejoin:round; stroke-width:2; stroke-opacity:0.1; fill:none" points="249.542,960.299 2352.76,960.299 "/>
<polyline clip-path="url(#clip392)" style="stroke:#000000; stroke-linecap:round; stroke-linejoin:round; stroke-width:2; stroke-opacity:0.1; fill:none" points="249.542,734.908 2352.76,734.908 "/>
<polyline clip-path="url(#clip392)" style="stroke:#000000; stroke-linecap:round; stroke-linejoin:round; stroke-width:2; stroke-opacity:0.1; fill:none" points="249.542,509.516 2352.76,509.516 "/>
<polyline clip-path="url(#clip392)" style="stroke:#000000; stroke-linecap:round; stroke-linejoin:round; stroke-width:2; stroke-opacity:0.1; fill:none" points="249.542,284.125 2352.76,284.125 "/>
<polyline clip-path="url(#clip390)" style="stroke:#000000; stroke-linecap:round; stroke-linejoin:round; stroke-width:4; stroke-opacity:1; fill:none" points="249.542,1423.18 249.542,123.472 "/>
<polyline clip-path="url(#clip390)" style="stroke:#000000; stroke-linecap:round; stroke-linejoin:round; stroke-width:4; stroke-opacity:1; fill:none" points="249.542,1411.08 268.44,1411.08 "/>
<polyline clip-path="url(#clip390)" style="stroke:#000000; stroke-linecap:round; stroke-linejoin:round; stroke-width:4; stroke-opacity:1; fill:none" points="249.542,1185.69 268.44,1185.69 "/>
<polyline clip-path="url(#clip390)" style="stroke:#000000; stroke-linecap:round; stroke-linejoin:round; stroke-width:4; stroke-opacity:1; fill:none" points="249.542,960.299 268.44,960.299 "/>
<polyline clip-path="url(#clip390)" style="stroke:#000000; stroke-linecap:round; stroke-linejoin:round; stroke-width:4; stroke-opacity:1; fill:none" points="249.542,734.908 268.44,734.908 "/>
<polyline clip-path="url(#clip390)" style="stroke:#000000; stroke-linecap:round; stroke-linejoin:round; stroke-width:4; stroke-opacity:1; fill:none" points="249.542,509.516 268.44,509.516 "/>
<polyline clip-path="url(#clip390)" style="stroke:#000000; stroke-linecap:round; stroke-linejoin:round; stroke-width:4; stroke-opacity:1; fill:none" points="249.542,284.125 268.44,284.125 "/>
<path clip-path="url(#clip390)" d="M126.205 1396.88 Q122.593 1396.88 120.765 1400.45 Q118.959 1403.99 118.959 1411.12 Q118.959 1418.22 120.765 1421.79 Q122.593 1425.33 126.205 1425.33 Q129.839 1425.33 131.644 1421.79 Q133.473 1418.22 133.473 1411.12 Q133.473 1403.99 131.644 1400.45 Q129.839 1396.88 126.205 1396.88 M126.205 1393.18 Q132.015 1393.18 135.07 1397.78 Q138.149 1402.37 138.149 1411.12 Q138.149 1419.84 135.07 1424.45 Q132.015 1429.03 126.205 1429.03 Q120.394 1429.03 117.316 1424.45 Q114.26 1419.84 114.26 1411.12 Q114.26 1402.37 117.316 1397.78 Q120.394 1393.18 126.205 1393.18 Z" fill="#000000" fill-rule="evenodd" fill-opacity="1" /><path clip-path="url(#clip390)" d="M146.366 1422.48 L151.251 1422.48 L151.251 1428.36 L146.366 1428.36 L146.366 1422.48 Z" fill="#000000" fill-rule="evenodd" fill-opacity="1" /><path clip-path="url(#clip390)" d="M171.436 1396.88 Q167.825 1396.88 165.996 1400.45 Q164.19 1403.99 164.19 1411.12 Q164.19 1418.22 165.996 1421.79 Q167.825 1425.33 171.436 1425.33 Q175.07 1425.33 176.876 1421.79 Q178.704 1418.22 178.704 1411.12 Q178.704 1403.99 176.876 1400.45 Q175.07 1396.88 171.436 1396.88 M171.436 1393.18 Q177.246 1393.18 180.301 1397.78 Q183.38 1402.37 183.38 1411.12 Q183.38 1419.84 180.301 1424.45 Q177.246 1429.03 171.436 1429.03 Q165.626 1429.03 162.547 1424.45 Q159.491 1419.84 159.491 1411.12 Q159.491 1402.37 162.547 1397.78 Q165.626 1393.18 171.436 1393.18 Z" fill="#000000" fill-rule="evenodd" fill-opacity="1" /><path clip-path="url(#clip390)" d="M201.598 1396.88 Q197.987 1396.88 196.158 1400.45 Q194.352 1403.99 194.352 1411.12 Q194.352 1418.22 196.158 1421.79 Q197.987 1425.33 201.598 1425.33 Q205.232 1425.33 207.037 1421.79 Q208.866 1418.22 208.866 1411.12 Q208.866 1403.99 207.037 1400.45 Q205.232 1396.88 201.598 1396.88 M201.598 1393.18 Q207.408 1393.18 210.463 1397.78 Q213.542 1402.37 213.542 1411.12 Q213.542 1419.84 210.463 1424.45 Q207.408 1429.03 201.598 1429.03 Q195.787 1429.03 192.709 1424.45 Q189.653 1419.84 189.653 1411.12 Q189.653 1402.37 192.709 1397.78 Q195.787 1393.18 201.598 1393.18 Z" fill="#000000" fill-rule="evenodd" fill-opacity="1" /><path clip-path="url(#clip390)" d="M127.2 1171.49 Q123.589 1171.49 121.76 1175.05 Q119.955 1178.6 119.955 1185.73 Q119.955 1192.83 121.76 1196.4 Q123.589 1199.94 127.2 1199.94 Q130.834 1199.94 132.64 1196.4 Q134.468 1192.83 134.468 1185.73 Q134.468 1178.6 132.64 1175.05 Q130.834 1171.49 127.2 1171.49 M127.2 1167.79 Q133.01 1167.79 136.066 1172.39 Q139.144 1176.98 139.144 1185.73 Q139.144 1194.45 136.066 1199.06 Q133.01 1203.64 127.2 1203.64 Q121.39 1203.64 118.311 1199.06 Q115.256 1194.45 115.256 1185.73 Q115.256 1176.98 118.311 1172.39 Q121.39 1167.79 127.2 1167.79 Z" fill="#000000" fill-rule="evenodd" fill-opacity="1" /><path clip-path="url(#clip390)" d="M147.362 1197.09 L152.246 1197.09 L152.246 1202.97 L147.362 1202.97 L147.362 1197.09 Z" fill="#000000" fill-rule="evenodd" fill-opacity="1" /><path clip-path="url(#clip390)" d="M166.459 1199.04 L182.778 1199.04 L182.778 1202.97 L160.834 1202.97 L160.834 1199.04 Q163.496 1196.28 168.079 1191.65 Q172.686 1187 173.866 1185.66 Q176.112 1183.13 176.991 1181.4 Q177.894 1179.64 177.894 1177.95 Q177.894 1175.19 175.95 1173.46 Q174.028 1171.72 170.927 1171.72 Q168.727 1171.72 166.274 1172.49 Q163.843 1173.25 161.065 1174.8 L161.065 1170.08 Q163.89 1168.94 166.343 1168.36 Q168.797 1167.79 170.834 1167.79 Q176.204 1167.79 179.399 1170.47 Q182.593 1173.16 182.593 1177.65 Q182.593 1179.78 181.783 1181.7 Q180.996 1183.6 178.889 1186.19 Q178.311 1186.86 175.209 1190.08 Q172.107 1193.27 166.459 1199.04 Z" fill="#000000" fill-rule="evenodd" fill-opacity="1" /><path clip-path="url(#clip390)" d="M192.639 1168.41 L210.996 1168.41 L210.996 1172.35 L196.922 1172.35 L196.922 1180.82 Q197.94 1180.47 198.959 1180.31 Q199.977 1180.12 200.996 1180.12 Q206.783 1180.12 210.162 1183.3 Q213.542 1186.47 213.542 1191.88 Q213.542 1197.46 210.07 1200.56 Q206.598 1203.64 200.278 1203.64 Q198.102 1203.64 195.834 1203.27 Q193.588 1202.9 191.181 1202.16 L191.181 1197.46 Q193.264 1198.6 195.487 1199.15 Q197.709 1199.71 200.186 1199.71 Q204.19 1199.71 206.528 1197.6 Q208.866 1195.49 208.866 1191.88 Q208.866 1188.27 206.528 1186.17 Q204.19 1184.06 200.186 1184.06 Q198.311 1184.06 196.436 1184.48 Q194.584 1184.89 192.639 1185.77 L192.639 1168.41 Z" fill="#000000" fill-rule="evenodd" fill-opacity="1" /><path clip-path="url(#clip390)" d="M126.205 946.098 Q122.593 946.098 120.765 949.663 Q118.959 953.205 118.959 960.334 Q118.959 967.441 120.765 971.005 Q122.593 974.547 126.205 974.547 Q129.839 974.547 131.644 971.005 Q133.473 967.441 133.473 960.334 Q133.473 953.205 131.644 949.663 Q129.839 946.098 126.205 946.098 M126.205 942.394 Q132.015 942.394 135.07 947.001 Q138.149 951.584 138.149 960.334 Q138.149 969.061 135.07 973.667 Q132.015 978.251 126.205 978.251 Q120.394 978.251 117.316 973.667 Q114.26 969.061 114.26 960.334 Q114.26 951.584 117.316 947.001 Q120.394 942.394 126.205 942.394 Z" fill="#000000" fill-rule="evenodd" fill-opacity="1" /><path clip-path="url(#clip390)" d="M146.366 971.7 L151.251 971.7 L151.251 977.579 L146.366 977.579 L146.366 971.7 Z" fill="#000000" fill-rule="evenodd" fill-opacity="1" /><path clip-path="url(#clip390)" d="M161.482 943.019 L179.839 943.019 L179.839 946.955 L165.765 946.955 L165.765 955.427 Q166.783 955.08 167.802 954.918 Q168.82 954.732 169.839 954.732 Q175.626 954.732 179.005 957.904 Q182.385 961.075 182.385 966.492 Q182.385 972.07 178.913 975.172 Q175.44 978.251 169.121 978.251 Q166.945 978.251 164.677 977.88 Q162.431 977.51 160.024 976.769 L160.024 972.07 Q162.107 973.204 164.329 973.76 Q166.552 974.316 169.028 974.316 Q173.033 974.316 175.371 972.209 Q177.709 970.103 177.709 966.492 Q177.709 962.88 175.371 960.774 Q173.033 958.667 169.028 958.667 Q167.153 958.667 165.278 959.084 Q163.427 959.501 161.482 960.38 L161.482 943.019 Z" fill="#000000" fill-rule="evenodd" fill-opacity="1" /><path clip-path="url(#clip390)" d="M201.598 946.098 Q197.987 946.098 196.158 949.663 Q194.352 953.205 194.352 960.334 Q194.352 967.441 196.158 971.005 Q197.987 974.547 201.598 974.547 Q205.232 974.547 207.037 971.005 Q208.866 967.441 208.866 960.334 Q208.866 953.205 207.037 949.663 Q205.232 946.098 201.598 946.098 M201.598 942.394 Q207.408 942.394 210.463 947.001 Q213.542 951.584 213.542 960.334 Q213.542 969.061 210.463 973.667 Q207.408 978.251 201.598 978.251 Q195.787 978.251 192.709 973.667 Q189.653 969.061 189.653 960.334 Q189.653 951.584 192.709 947.001 Q195.787 942.394 201.598 942.394 Z" fill="#000000" fill-rule="evenodd" fill-opacity="1" /><path clip-path="url(#clip390)" d="M127.2 720.707 Q123.589 720.707 121.76 724.271 Q119.955 727.813 119.955 734.943 Q119.955 742.049 121.76 745.614 Q123.589 749.155 127.2 749.155 Q130.834 749.155 132.64 745.614 Q134.468 742.049 134.468 734.943 Q134.468 727.813 132.64 724.271 Q130.834 720.707 127.2 720.707 M127.2 717.003 Q133.01 717.003 136.066 721.609 Q139.144 726.193 139.144 734.943 Q139.144 743.669 136.066 748.276 Q133.01 752.859 127.2 752.859 Q121.39 752.859 118.311 748.276 Q115.256 743.669 115.256 734.943 Q115.256 726.193 118.311 721.609 Q121.39 717.003 127.2 717.003 Z" fill="#000000" fill-rule="evenodd" fill-opacity="1" /><path clip-path="url(#clip390)" d="M147.362 746.308 L152.246 746.308 L152.246 752.188 L147.362 752.188 L147.362 746.308 Z" fill="#000000" fill-rule="evenodd" fill-opacity="1" /><path clip-path="url(#clip390)" d="M161.251 717.628 L183.473 717.628 L183.473 719.619 L170.927 752.188 L166.042 752.188 L177.848 721.563 L161.251 721.563 L161.251 717.628 Z" fill="#000000" fill-rule="evenodd" fill-opacity="1" /><path clip-path="url(#clip390)" d="M192.639 717.628 L210.996 717.628 L210.996 721.563 L196.922 721.563 L196.922 730.035 Q197.94 729.688 198.959 729.526 Q199.977 729.341 200.996 729.341 Q206.783 729.341 210.162 732.512 Q213.542 735.683 213.542 741.1 Q213.542 746.679 210.07 749.78 Q206.598 752.859 200.278 752.859 Q198.102 752.859 195.834 752.489 Q193.588 752.118 191.181 751.378 L191.181 746.679 Q193.264 747.813 195.487 748.368 Q197.709 748.924 200.186 748.924 Q204.19 748.924 206.528 746.817 Q208.866 744.711 208.866 741.1 Q208.866 737.489 206.528 735.382 Q204.19 733.276 200.186 733.276 Q198.311 733.276 196.436 733.693 Q194.584 734.109 192.639 734.989 L192.639 717.628 Z" fill="#000000" fill-rule="evenodd" fill-opacity="1" /><path clip-path="url(#clip390)" d="M117.015 522.861 L124.654 522.861 L124.654 496.495 L116.343 498.162 L116.343 493.903 L124.607 492.236 L129.283 492.236 L129.283 522.861 L136.922 522.861 L136.922 526.796 L117.015 526.796 L117.015 522.861 Z" fill="#000000" fill-rule="evenodd" fill-opacity="1" /><path clip-path="url(#clip390)" d="M146.366 520.917 L151.251 520.917 L151.251 526.796 L146.366 526.796 L146.366 520.917 Z" fill="#000000" fill-rule="evenodd" fill-opacity="1" /><path clip-path="url(#clip390)" d="M171.436 495.315 Q167.825 495.315 165.996 498.88 Q164.19 502.421 164.19 509.551 Q164.19 516.657 165.996 520.222 Q167.825 523.764 171.436 523.764 Q175.07 523.764 176.876 520.222 Q178.704 516.657 178.704 509.551 Q178.704 502.421 176.876 498.88 Q175.07 495.315 171.436 495.315 M171.436 491.611 Q177.246 491.611 180.301 496.218 Q183.38 500.801 183.38 509.551 Q183.38 518.278 180.301 522.884 Q177.246 527.468 171.436 527.468 Q165.626 527.468 162.547 522.884 Q159.491 518.278 159.491 509.551 Q159.491 500.801 162.547 496.218 Q165.626 491.611 171.436 491.611 Z" fill="#000000" fill-rule="evenodd" fill-opacity="1" /><path clip-path="url(#clip390)" d="M201.598 495.315 Q197.987 495.315 196.158 498.88 Q194.352 502.421 194.352 509.551 Q194.352 516.657 196.158 520.222 Q197.987 523.764 201.598 523.764 Q205.232 523.764 207.037 520.222 Q208.866 516.657 208.866 509.551 Q208.866 502.421 207.037 498.88 Q205.232 495.315 201.598 495.315 M201.598 491.611 Q207.408 491.611 210.463 496.218 Q213.542 500.801 213.542 509.551 Q213.542 518.278 210.463 522.884 Q207.408 527.468 201.598 527.468 Q195.787 527.468 192.709 522.884 Q189.653 518.278 189.653 509.551 Q189.653 500.801 192.709 496.218 Q195.787 491.611 201.598 491.611 Z" fill="#000000" fill-rule="evenodd" fill-opacity="1" /><path clip-path="url(#clip390)" d="M118.01 297.469 L125.649 297.469 L125.649 271.104 L117.339 272.771 L117.339 268.511 L125.603 266.845 L130.279 266.845 L130.279 297.469 L137.917 297.469 L137.917 301.405 L118.01 301.405 L118.01 297.469 Z" fill="#000000" fill-rule="evenodd" fill-opacity="1" /><path clip-path="url(#clip390)" d="M147.362 295.525 L152.246 295.525 L152.246 301.405 L147.362 301.405 L147.362 295.525 Z" fill="#000000" fill-rule="evenodd" fill-opacity="1" /><path clip-path="url(#clip390)" d="M166.459 297.469 L182.778 297.469 L182.778 301.405 L160.834 301.405 L160.834 297.469 Q163.496 294.715 168.079 290.085 Q172.686 285.432 173.866 284.09 Q176.112 281.567 176.991 279.831 Q177.894 278.071 177.894 276.382 Q177.894 273.627 175.95 271.891 Q174.028 270.155 170.927 270.155 Q168.727 270.155 166.274 270.919 Q163.843 271.683 161.065 273.233 L161.065 268.511 Q163.89 267.377 166.343 266.798 Q168.797 266.22 170.834 266.22 Q176.204 266.22 179.399 268.905 Q182.593 271.59 182.593 276.081 Q182.593 278.21 181.783 280.132 Q180.996 282.03 178.889 284.622 Q178.311 285.294 175.209 288.511 Q172.107 291.706 166.459 297.469 Z" fill="#000000" fill-rule="evenodd" fill-opacity="1" /><path clip-path="url(#clip390)" d="M192.639 266.845 L210.996 266.845 L210.996 270.78 L196.922 270.78 L196.922 279.252 Q197.94 278.905 198.959 278.743 Q199.977 278.558 200.996 278.558 Q206.783 278.558 210.162 281.729 Q213.542 284.9 213.542 290.317 Q213.542 295.895 210.07 298.997 Q206.598 302.076 200.278 302.076 Q198.102 302.076 195.834 301.706 Q193.588 301.335 191.181 300.594 L191.181 295.895 Q193.264 297.03 195.487 297.585 Q197.709 298.141 200.186 298.141 Q204.19 298.141 206.528 296.034 Q208.866 293.928 208.866 290.317 Q208.866 286.706 206.528 284.599 Q204.19 282.493 200.186 282.493 Q198.311 282.493 196.436 282.909 Q194.584 283.326 192.639 284.206 L192.639 266.845 Z" fill="#000000" fill-rule="evenodd" fill-opacity="1" /><path clip-path="url(#clip390)" d="M67.3143 771.639 Q73.68 774.122 75.6216 776.477 Q77.5631 778.832 77.5631 782.779 L77.5631 787.458 L72.6615 787.458 L72.6615 784.02 Q72.6615 781.601 71.5157 780.265 Q70.3699 778.928 66.1048 777.305 L63.4312 776.254 L28.3562 790.673 L28.3562 784.466 L56.238 773.326 L28.3562 762.186 L28.3562 755.979 L67.3143 771.639 Z" fill="#000000" fill-rule="evenodd" fill-opacity="1" /><path clip-path="url(#clip390)" d="M602.307 48.0275 L602.307 51.6733 L568.037 51.6733 Q568.523 59.3701 572.655 63.421 Q576.827 67.4314 584.24 67.4314 Q588.534 67.4314 592.545 66.3781 Q596.595 65.3249 600.565 63.2184 L600.565 70.267 Q596.555 71.9684 592.342 72.8596 Q588.129 73.7508 583.795 73.7508 Q572.938 73.7508 566.578 67.4314 Q560.259 61.1119 560.259 50.3365 Q560.259 39.1965 566.254 32.6746 Q572.29 26.1121 582.498 26.1121 Q591.653 26.1121 596.96 32.0264 Q602.307 37.9003 602.307 48.0275 M594.854 45.84 Q594.773 39.7232 591.41 36.0774 Q588.089 32.4315 582.579 32.4315 Q576.341 32.4315 572.574 35.9558 Q568.847 39.4801 568.28 45.8805 L594.854 45.84 Z" fill="#000000" fill-rule="evenodd" fill-opacity="1" /><path clip-path="url(#clip390)" d="M618.997 49.9314 Q618.997 58.1548 622.359 62.8538 Q625.762 67.5124 631.676 67.5124 Q637.591 67.5124 640.993 62.8538 Q644.396 58.1548 644.396 49.9314 Q644.396 41.7081 640.993 37.0496 Q637.591 32.3505 631.676 32.3505 Q625.762 32.3505 622.359 37.0496 Q618.997 41.7081 618.997 49.9314 M644.396 65.7705 Q642.047 69.8214 638.441 71.8063 Q634.876 73.7508 629.853 73.7508 Q621.63 73.7508 616.445 67.1883 Q611.3 60.6258 611.3 49.9314 Q611.3 39.2371 616.445 32.6746 Q621.63 26.1121 629.853 26.1121 Q634.876 26.1121 638.441 28.0971 Q642.047 30.0415 644.396 34.0924 L644.396 27.2059 L651.85 27.2059 L651.85 89.8329 L644.396 89.8329 L644.396 65.7705 Z" fill="#000000" fill-rule="evenodd" fill-opacity="1" /><path clip-path="url(#clip390)" d="M666.433 54.671 L666.433 27.2059 L673.887 27.2059 L673.887 54.3874 Q673.887 60.8284 676.398 64.0691 Q678.91 67.2693 683.933 67.2693 Q689.969 67.2693 693.453 63.421 Q696.977 59.5726 696.977 52.9291 L696.977 27.2059 L704.431 27.2059 L704.431 72.576 L696.977 72.576 L696.977 65.6084 Q694.263 69.7404 690.657 71.7658 Q687.093 73.7508 682.353 73.7508 Q674.535 73.7508 670.484 68.8897 Q666.433 64.0286 666.433 54.671 M685.189 26.1121 L685.189 26.1121 Z" fill="#000000" fill-rule="evenodd" fill-opacity="1" /><path clip-path="url(#clip390)" d="M740.403 49.7694 Q731.369 49.7694 727.885 51.8354 Q724.401 53.9013 724.401 58.8839 Q724.401 62.8538 726.994 65.2034 Q729.627 67.5124 734.124 67.5124 Q740.322 67.5124 744.048 63.1374 Q747.816 58.7219 747.816 51.4303 L747.816 49.7694 L740.403 49.7694 M755.269 46.6907 L755.269 72.576 L747.816 72.576 L747.816 65.6895 Q745.264 69.8214 741.456 71.8063 Q737.648 73.7508 732.139 73.7508 Q725.171 73.7508 721.039 69.8619 Q716.948 65.9325 716.948 59.3701 Q716.948 51.7138 722.052 47.825 Q727.197 43.9361 737.364 43.9361 L747.816 43.9361 L747.816 43.2069 Q747.816 38.0623 744.413 35.2672 Q741.051 32.4315 734.934 32.4315 Q731.045 32.4315 727.359 33.3632 Q723.672 34.295 720.27 36.1584 L720.27 29.2718 Q724.361 27.692 728.209 26.9223 Q732.058 26.1121 735.704 26.1121 Q745.547 26.1121 750.408 31.2163 Q755.269 36.3204 755.269 46.6907 Z" fill="#000000" fill-rule="evenodd" fill-opacity="1" /><path clip-path="url(#clip390)" d="M777.995 14.324 L777.995 27.2059 L793.348 27.2059 L793.348 32.9987 L777.995 32.9987 L777.995 57.6282 Q777.995 63.1779 779.494 64.7578 Q781.033 66.3376 785.692 66.3376 L793.348 66.3376 L793.348 72.576 L785.692 72.576 Q777.063 72.576 773.782 69.3758 Q770.501 66.1351 770.501 57.6282 L770.501 32.9987 L765.032 32.9987 L765.032 27.2059 L770.501 27.2059 L770.501 14.324 L777.995 14.324 Z" fill="#000000" fill-rule="evenodd" fill-opacity="1" /><path clip-path="url(#clip390)" d="M803.151 27.2059 L810.605 27.2059 L810.605 72.576 L803.151 72.576 L803.151 27.2059 M803.151 9.54393 L810.605 9.54393 L810.605 18.9825 L803.151 18.9825 L803.151 9.54393 Z" fill="#000000" fill-rule="evenodd" fill-opacity="1" /><path clip-path="url(#clip390)" d="M843.782 32.4315 Q837.786 32.4315 834.303 37.1306 Q830.819 41.7891 830.819 49.9314 Q830.819 58.0738 834.262 62.7728 Q837.746 67.4314 843.782 67.4314 Q849.736 67.4314 853.22 62.7323 Q856.704 58.0333 856.704 49.9314 Q856.704 41.8701 853.22 37.1711 Q849.736 32.4315 843.782 32.4315 M843.782 26.1121 Q853.504 26.1121 859.054 32.4315 Q864.603 38.7509 864.603 49.9314 Q864.603 61.0714 859.054 67.4314 Q853.504 73.7508 843.782 73.7508 Q834.019 73.7508 828.469 67.4314 Q822.96 61.0714 822.96 49.9314 Q822.96 38.7509 828.469 32.4315 Q834.019 26.1121 843.782 26.1121 Z" fill="#000000" fill-rule="evenodd" fill-opacity="1" /><path clip-path="url(#clip390)" d="M914.672 45.1919 L914.672 72.576 L907.219 72.576 L907.219 45.4349 Q907.219 38.994 904.707 35.7938 Q902.196 32.5936 897.173 32.5936 Q891.137 32.5936 887.653 36.4419 Q884.169 40.2903 884.169 46.9338 L884.169 72.576 L876.675 72.576 L876.675 27.2059 L884.169 27.2059 L884.169 34.2544 Q886.843 30.163 890.448 28.1376 Q894.094 26.1121 898.833 26.1121 Q906.652 26.1121 910.662 30.9732 Q914.672 35.7938 914.672 45.1919 Z" fill="#000000" fill-rule="evenodd" fill-opacity="1" /><path clip-path="url(#clip390)" d="M978.879 9.54393 L978.879 15.7418 L971.75 15.7418 Q967.739 15.7418 966.159 17.3622 Q964.62 18.9825 964.62 23.1955 L964.62 27.2059 L976.894 27.2059 L976.894 32.9987 L964.62 32.9987 L964.62 72.576 L957.126 72.576 L957.126 32.9987 L949.996 32.9987 L949.996 27.2059 L957.126 27.2059 L957.126 24.0462 Q957.126 16.471 960.65 13.0277 Q964.175 9.54393 971.831 9.54393 L978.879 9.54393 Z" fill="#000000" fill-rule="evenodd" fill-opacity="1" /><path clip-path="url(#clip390)" d="M985.118 27.2059 L992.571 27.2059 L992.571 72.576 L985.118 72.576 L985.118 27.2059 M985.118 9.54393 L992.571 9.54393 L992.571 18.9825 L985.118 18.9825 L985.118 9.54393 Z" fill="#000000" fill-rule="evenodd" fill-opacity="1" /><path clip-path="url(#clip390)" d="M1015.54 14.324 L1015.54 27.2059 L1030.89 27.2059 L1030.89 32.9987 L1015.54 32.9987 L1015.54 57.6282 Q1015.54 63.1779 1017.04 64.7578 Q1018.58 66.3376 1023.24 66.3376 L1030.89 66.3376 L1030.89 72.576 L1023.24 72.576 Q1014.61 72.576 1011.33 69.3758 Q1008.05 66.1351 1008.05 57.6282 L1008.05 32.9987 L1002.58 32.9987 L1002.58 27.2059 L1008.05 27.2059 L1008.05 14.324 L1015.54 14.324 Z" fill="#000000" fill-rule="evenodd" fill-opacity="1" /><path clip-path="url(#clip390)" d="M1042.6 62.2867 L1051.15 62.2867 L1051.15 72.576 L1042.6 72.576 L1042.6 62.2867 M1042.6 29.6769 L1051.15 29.6769 L1051.15 39.9662 L1042.6 39.9662 L1042.6 29.6769 Z" fill="#000000" fill-rule="evenodd" fill-opacity="1" /><path clip-path="url(#clip390)" d="M1097.49 65.6895 L1110.86 65.6895 L1110.86 19.5497 L1096.31 22.4663 L1096.31 15.0127 L1110.78 12.096 L1118.96 12.096 L1118.96 65.6895 L1132.33 65.6895 L1132.33 72.576 L1097.49 72.576 L1097.49 65.6895 Z" fill="#000000" fill-rule="evenodd" fill-opacity="1" /><path clip-path="url(#clip390)" d="M1148.86 62.2867 L1157.4 62.2867 L1157.4 72.576 L1148.86 72.576 L1148.86 62.2867 Z" fill="#000000" fill-rule="evenodd" fill-opacity="1" /><path clip-path="url(#clip390)" d="M1182.28 65.6895 L1210.83 65.6895 L1210.83 72.576 L1172.43 72.576 L1172.43 65.6895 Q1177.09 60.8689 1185.11 52.7671 Q1193.17 44.6248 1195.24 42.2752 Q1199.17 37.8598 1200.71 34.8216 Q1202.29 31.7429 1202.29 28.7857 Q1202.29 23.9651 1198.88 20.927 Q1195.52 17.8888 1190.09 17.8888 Q1186.25 17.8888 1181.95 19.2256 Q1177.7 20.5624 1172.84 23.2765 L1172.84 15.0127 Q1177.78 13.0277 1182.07 12.015 Q1186.37 11.0023 1189.93 11.0023 Q1199.33 11.0023 1204.92 15.7013 Q1210.51 20.4004 1210.51 28.2591 Q1210.51 31.9859 1209.09 35.3482 Q1207.71 38.6699 1204.03 43.2069 Q1203.02 44.3817 1197.59 50.0125 Q1192.16 55.6027 1182.28 65.6895 Z" fill="#000000" fill-rule="evenodd" fill-opacity="1" /><path clip-path="url(#clip390)" d="M1252.8 39.9662 Q1258.68 41.222 1261.96 45.1919 Q1265.28 49.1618 1265.28 54.9951 Q1265.28 63.9476 1259.12 68.8492 Q1252.96 73.7508 1241.62 73.7508 Q1237.81 73.7508 1233.76 72.9811 Q1229.75 72.2519 1225.46 70.7531 L1225.46 62.8538 Q1228.86 64.8388 1232.91 65.8515 Q1236.96 66.8642 1241.38 66.8642 Q1249.07 66.8642 1253.08 63.826 Q1257.14 60.7879 1257.14 54.9951 Q1257.14 49.6479 1253.37 46.6502 Q1249.64 43.612 1242.96 43.612 L1235.91 43.612 L1235.91 36.8875 L1243.28 36.8875 Q1249.32 36.8875 1252.52 34.4975 Q1255.72 32.067 1255.72 27.5299 Q1255.72 22.8714 1252.4 20.4004 Q1249.12 17.8888 1242.96 17.8888 Q1239.6 17.8888 1235.75 18.618 Q1231.9 19.3471 1227.28 20.8865 L1227.28 13.5948 Q1231.94 12.2985 1235.99 11.6504 Q1240.08 11.0023 1243.69 11.0023 Q1253 11.0023 1258.43 15.2557 Q1263.86 19.4686 1263.86 26.6793 Q1263.86 31.7024 1260.98 35.1862 Q1258.11 38.6294 1252.8 39.9662 Z" fill="#000000" fill-rule="evenodd" fill-opacity="1" /><path clip-path="url(#clip390)" d="M1336.45 20.5624 L1336.45 43.1259 L1359.02 43.1259 L1359.02 50.0125 L1336.45 50.0125 L1336.45 72.576 L1329.65 72.576 L1329.65 50.0125 L1307.08 50.0125 L1307.08 43.1259 L1329.65 43.1259 L1329.65 20.5624 L1336.45 20.5624 Z" fill="#000000" fill-rule="evenodd" fill-opacity="1" /><path clip-path="url(#clip390)" d="M1398.23 46.5287 L1420.06 46.5287 L1420.06 53.1722 L1398.23 53.1722 L1398.23 46.5287 Z" fill="#000000" fill-rule="evenodd" fill-opacity="1" /><path clip-path="url(#clip390)" d="M1434.4 65.6895 L1447.77 65.6895 L1447.77 19.5497 L1433.23 22.4663 L1433.23 15.0127 L1447.69 12.096 L1455.87 12.096 L1455.87 65.6895 L1469.24 65.6895 L1469.24 72.576 L1434.4 72.576 L1434.4 65.6895 Z" fill="#000000" fill-rule="evenodd" fill-opacity="1" /><path clip-path="url(#clip390)" d="M1485.77 62.2867 L1494.32 62.2867 L1494.32 72.576 L1485.77 72.576 L1485.77 62.2867 Z" fill="#000000" fill-rule="evenodd" fill-opacity="1" /><path clip-path="url(#clip390)" d="M1512.38 71.3202 L1512.38 63.8666 Q1515.46 65.3249 1518.62 66.0946 Q1521.78 66.8642 1524.82 66.8642 Q1532.92 66.8642 1537.17 61.436 Q1541.47 55.9673 1542.08 44.8678 Q1539.73 48.3516 1536.12 50.215 Q1532.52 52.0784 1528.14 52.0784 Q1519.07 52.0784 1513.76 46.6097 Q1508.49 41.1005 1508.49 31.5808 Q1508.49 22.2638 1514 16.633 Q1519.51 11.0023 1528.67 11.0023 Q1539.16 11.0023 1544.67 19.0636 Q1550.22 27.0843 1550.22 42.3968 Q1550.22 56.6965 1543.41 65.2439 Q1536.65 73.7508 1525.18 73.7508 Q1522.11 73.7508 1518.95 73.1431 Q1515.79 72.5355 1512.38 71.3202 M1528.67 45.678 Q1534.18 45.678 1537.38 41.9107 Q1540.62 38.1433 1540.62 31.5808 Q1540.62 25.0589 1537.38 21.2916 Q1534.18 17.4837 1528.67 17.4837 Q1523.16 17.4837 1519.92 21.2916 Q1516.72 25.0589 1516.72 31.5808 Q1516.72 38.1433 1519.92 41.9107 Q1523.16 45.678 1528.67 45.678 Z" fill="#000000" fill-rule="evenodd" fill-opacity="1" /><path clip-path="url(#clip390)" d="M1565.17 71.3202 L1565.17 63.8666 Q1568.25 65.3249 1571.41 66.0946 Q1574.56 66.8642 1577.6 66.8642 Q1585.7 66.8642 1589.96 61.436 Q1594.25 55.9673 1594.86 44.8678 Q1592.51 48.3516 1588.9 50.215 Q1585.3 52.0784 1580.92 52.0784 Q1571.85 52.0784 1566.54 46.6097 Q1561.28 41.1005 1561.28 31.5808 Q1561.28 22.2638 1566.79 16.633 Q1572.3 11.0023 1581.45 11.0023 Q1591.94 11.0023 1597.45 19.0636 Q1603 27.0843 1603 42.3968 Q1603 56.6965 1596.2 65.2439 Q1589.43 73.7508 1577.97 73.7508 Q1574.89 73.7508 1571.73 73.1431 Q1568.57 72.5355 1565.17 71.3202 M1581.45 45.678 Q1586.96 45.678 1590.16 41.9107 Q1593.4 38.1433 1593.4 31.5808 Q1593.4 25.0589 1590.16 21.2916 Q1586.96 17.4837 1581.45 17.4837 Q1575.94 17.4837 1572.7 21.2916 Q1569.5 25.0589 1569.5 31.5808 Q1569.5 38.1433 1572.7 41.9107 Q1575.94 45.678 1581.45 45.678 Z" fill="#000000" fill-rule="evenodd" fill-opacity="1" /><path clip-path="url(#clip390)" d="M1654.37 27.2059 L1637.96 49.2833 L1655.22 72.576 L1646.43 72.576 L1633.22 54.752 L1620.02 72.576 L1611.23 72.576 L1628.85 48.8377 L1612.72 27.2059 L1621.51 27.2059 L1633.55 43.369 L1645.58 27.2059 L1654.37 27.2059 Z" fill="#000000" fill-rule="evenodd" fill-opacity="1" /><path clip-path="url(#clip390)" d="M1722.46 20.5624 L1722.46 43.1259 L1745.03 43.1259 L1745.03 50.0125 L1722.46 50.0125 L1722.46 72.576 L1715.66 72.576 L1715.66 50.0125 L1693.09 50.0125 L1693.09 43.1259 L1715.66 43.1259 L1715.66 20.5624 L1722.46 20.5624 Z" fill="#000000" fill-rule="evenodd" fill-opacity="1" /><path clip-path="url(#clip390)" d="M1790.48 65.6895 L1803.85 65.6895 L1803.85 19.5497 L1789.3 22.4663 L1789.3 15.0127 L1803.76 12.096 L1811.95 12.096 L1811.95 65.6895 L1825.32 65.6895 L1825.32 72.576 L1790.48 72.576 L1790.48 65.6895 Z" fill="#000000" fill-rule="evenodd" fill-opacity="1" /><path clip-path="url(#clip390)" d="M1841.84 62.2867 L1850.39 62.2867 L1850.39 72.576 L1841.84 72.576 L1841.84 62.2867 Z" fill="#000000" fill-rule="evenodd" fill-opacity="1" /><path clip-path="url(#clip390)" d="M1885.71 17.4837 Q1879.4 17.4837 1876.2 23.7221 Q1873.04 29.92 1873.04 42.3968 Q1873.04 54.833 1876.2 61.0714 Q1879.4 67.2693 1885.71 67.2693 Q1892.07 67.2693 1895.23 61.0714 Q1898.43 54.833 1898.43 42.3968 Q1898.43 29.92 1895.23 23.7221 Q1892.07 17.4837 1885.71 17.4837 M1885.71 11.0023 Q1895.88 11.0023 1901.23 19.0636 Q1906.62 27.0843 1906.62 42.3968 Q1906.62 57.6687 1901.23 65.73 Q1895.88 73.7508 1885.71 73.7508 Q1875.55 73.7508 1870.16 65.73 Q1864.81 57.6687 1864.81 42.3968 Q1864.81 27.0843 1870.16 19.0636 Q1875.55 11.0023 1885.71 11.0023 Z" fill="#000000" fill-rule="evenodd" fill-opacity="1" /><path clip-path="url(#clip390)" d="M1922.42 65.6895 L1935.78 65.6895 L1935.78 19.5497 L1921.24 22.4663 L1921.24 15.0127 L1935.7 12.096 L1943.89 12.096 L1943.89 65.6895 L1957.25 65.6895 L1957.25 72.576 L1922.42 72.576 L1922.42 65.6895 Z" fill="#000000" fill-rule="evenodd" fill-opacity="1" /><path clip-path="url(#clip390)" d="M2010.44 27.2059 L1994.04 49.2833 L2011.29 72.576 L2002.5 72.576 L1989.3 54.752 L1976.09 72.576 L1967.3 72.576 L1984.92 48.8377 L1968.8 27.2059 L1977.59 27.2059 L1989.62 43.369 L2001.65 27.2059 L2010.44 27.2059 Z" fill="#000000" fill-rule="evenodd" fill-opacity="1" /><path clip-path="url(#clip390)" d="M2024.86 40.8979 L2042.04 40.8979 L2042.04 45.516 L2017.81 45.516 L2017.81 41.06 Q2019.19 39.8042 2021.74 37.5357 Q2035.68 25.1804 2035.68 21.3726 Q2035.68 18.699 2033.57 17.0786 Q2031.47 15.4177 2028.02 15.4177 Q2025.92 15.4177 2023.45 16.1469 Q2020.97 16.8356 2018.06 18.2534 L2018.06 13.2708 Q2021.18 12.1365 2023.85 11.5694 Q2026.56 11.0023 2028.87 11.0023 Q2034.75 11.0023 2038.27 13.6759 Q2041.8 16.3494 2041.8 20.7244 Q2041.8 26.3552 2028.39 37.8598 Q2026.12 39.8042 2024.86 40.8979 Z" fill="#000000" fill-rule="evenodd" fill-opacity="1" /><circle clip-path="url(#clip392)" cx="2043.59" cy="692.343" r="14.4" fill="#ff0000" fill-rule="evenodd" fill-opacity="0.25" stroke="#000000" stroke-opacity="0.25" stroke-width="3.2"/>
<circle clip-path="url(#clip392)" cx="389.341" cy="211.11" r="14.4" fill="#ff0000" fill-rule="evenodd" fill-opacity="0.25" stroke="#000000" stroke-opacity="0.25" stroke-width="3.2"/>
<circle clip-path="url(#clip392)" cx="695.757" cy="944.611" r="14.4" fill="#ff0000" fill-rule="evenodd" fill-opacity="0.25" stroke="#000000" stroke-opacity="0.25" stroke-width="3.2"/>
<circle clip-path="url(#clip392)" cx="1200.98" cy="1129.25" r="14.4" fill="#ff0000" fill-rule="evenodd" fill-opacity="0.25" stroke="#000000" stroke-opacity="0.25" stroke-width="3.2"/>
<circle clip-path="url(#clip392)" cx="847.815" cy="960.405" r="14.4" fill="#ff0000" fill-rule="evenodd" fill-opacity="0.25" stroke="#000000" stroke-opacity="0.25" stroke-width="3.2"/>
<circle clip-path="url(#clip392)" cx="689.606" cy="738.923" r="14.4" fill="#ff0000" fill-rule="evenodd" fill-opacity="0.25" stroke="#000000" stroke-opacity="0.25" stroke-width="3.2"/>
<circle clip-path="url(#clip392)" cx="818.499" cy="1067.88" r="14.4" fill="#ff0000" fill-rule="evenodd" fill-opacity="0.25" stroke="#000000" stroke-opacity="0.25" stroke-width="3.2"/>
<circle clip-path="url(#clip392)" cx="1359.86" cy="979.299" r="14.4" fill="#ff0000" fill-rule="evenodd" fill-opacity="0.25" stroke="#000000" stroke-opacity="0.25" stroke-width="3.2"/>
<circle clip-path="url(#clip392)" cx="1002.79" cy="1265.53" r="14.4" fill="#ff0000" fill-rule="evenodd" fill-opacity="0.25" stroke="#000000" stroke-opacity="0.25" stroke-width="3.2"/>
<circle clip-path="url(#clip392)" cx="1676.18" cy="1142.38" r="14.4" fill="#ff0000" fill-rule="evenodd" fill-opacity="0.25" stroke="#000000" stroke-opacity="0.25" stroke-width="3.2"/>
<circle clip-path="url(#clip392)" cx="2236.78" cy="530.135" r="14.4" fill="#ff0000" fill-rule="evenodd" fill-opacity="0.25" stroke="#000000" stroke-opacity="0.25" stroke-width="3.2"/>
<circle clip-path="url(#clip392)" cx="611.516" cy="945.146" r="14.4" fill="#ff0000" fill-rule="evenodd" fill-opacity="0.25" stroke="#000000" stroke-opacity="0.25" stroke-width="3.2"/>
<circle clip-path="url(#clip392)" cx="412.692" cy="648.413" r="14.4" fill="#ff0000" fill-rule="evenodd" fill-opacity="0.25" stroke="#000000" stroke-opacity="0.25" stroke-width="3.2"/>
<circle clip-path="url(#clip392)" cx="539.493" cy="443.915" r="14.4" fill="#ff0000" fill-rule="evenodd" fill-opacity="0.25" stroke="#000000" stroke-opacity="0.25" stroke-width="3.2"/>
<circle clip-path="url(#clip392)" cx="1685.24" cy="934.922" r="14.4" fill="#ff0000" fill-rule="evenodd" fill-opacity="0.25" stroke="#000000" stroke-opacity="0.25" stroke-width="3.2"/>
<circle clip-path="url(#clip392)" cx="1416.92" cy="1256.19" r="14.4" fill="#ff0000" fill-rule="evenodd" fill-opacity="0.25" stroke="#000000" stroke-opacity="0.25" stroke-width="3.2"/>
<circle clip-path="url(#clip392)" cx="1464.55" cy="1039.32" r="14.4" fill="#ff0000" fill-rule="evenodd" fill-opacity="0.25" stroke="#000000" stroke-opacity="0.25" stroke-width="3.2"/>
<circle clip-path="url(#clip392)" cx="1842.73" cy="870.49" r="14.4" fill="#ff0000" fill-rule="evenodd" fill-opacity="0.25" stroke="#000000" stroke-opacity="0.25" stroke-width="3.2"/>
<circle clip-path="url(#clip392)" cx="1431.29" cy="1219.42" r="14.4" fill="#ff0000" fill-rule="evenodd" fill-opacity="0.25" stroke="#000000" stroke-opacity="0.25" stroke-width="3.2"/>
<circle clip-path="url(#clip392)" cx="971.476" cy="1056.38" r="14.4" fill="#ff0000" fill-rule="evenodd" fill-opacity="0.25" stroke="#000000" stroke-opacity="0.25" stroke-width="3.2"/>
<circle clip-path="url(#clip392)" cx="1360.46" cy="1189.34" r="14.4" fill="#ff0000" fill-rule="evenodd" fill-opacity="0.25" stroke="#000000" stroke-opacity="0.25" stroke-width="3.2"/>
<circle clip-path="url(#clip392)" cx="861.704" cy="1101.57" r="14.4" fill="#ff0000" fill-rule="evenodd" fill-opacity="0.25" stroke="#000000" stroke-opacity="0.25" stroke-width="3.2"/>
<circle clip-path="url(#clip392)" cx="1165.17" cy="1201.22" r="14.4" fill="#ff0000" fill-rule="evenodd" fill-opacity="0.25" stroke="#000000" stroke-opacity="0.25" stroke-width="3.2"/>
<circle clip-path="url(#clip392)" cx="703.7" cy="895.295" r="14.4" fill="#ff0000" fill-rule="evenodd" fill-opacity="0.25" stroke="#000000" stroke-opacity="0.25" stroke-width="3.2"/>
<circle clip-path="url(#clip392)" cx="2134.5" cy="633.534" r="14.4" fill="#ff0000" fill-rule="evenodd" fill-opacity="0.25" stroke="#000000" stroke-opacity="0.25" stroke-width="3.2"/>
<circle clip-path="url(#clip392)" cx="1140.59" cy="1246.62" r="14.4" fill="#ff0000" fill-rule="evenodd" fill-opacity="0.25" stroke="#000000" stroke-opacity="0.25" stroke-width="3.2"/>
<circle clip-path="url(#clip392)" cx="1453.77" cy="983.939" r="14.4" fill="#ff0000" fill-rule="evenodd" fill-opacity="0.25" stroke="#000000" stroke-opacity="0.25" stroke-width="3.2"/>
<circle clip-path="url(#clip392)" cx="1702" cy="817.408" r="14.4" fill="#ff0000" fill-rule="evenodd" fill-opacity="0.25" stroke="#000000" stroke-opacity="0.25" stroke-width="3.2"/>
<circle clip-path="url(#clip392)" cx="1045.78" cy="1142.48" r="14.4" fill="#ff0000" fill-rule="evenodd" fill-opacity="0.25" stroke="#000000" stroke-opacity="0.25" stroke-width="3.2"/>
<circle clip-path="url(#clip392)" cx="1231.01" cy="975.092" r="14.4" fill="#ff0000" fill-rule="evenodd" fill-opacity="0.25" stroke="#000000" stroke-opacity="0.25" stroke-width="3.2"/>
<circle clip-path="url(#clip392)" cx="537.469" cy="610.791" r="14.4" fill="#ff0000" fill-rule="evenodd" fill-opacity="0.25" stroke="#000000" stroke-opacity="0.25" stroke-width="3.2"/>
<circle clip-path="url(#clip392)" cx="653.88" cy="675.982" r="14.4" fill="#ff0000" fill-rule="evenodd" fill-opacity="0.25" stroke="#000000" stroke-opacity="0.25" stroke-width="3.2"/>
<circle clip-path="url(#clip392)" cx="1962.72" cy="829.979" r="14.4" fill="#ff0000" fill-rule="evenodd" fill-opacity="0.25" stroke="#000000" stroke-opacity="0.25" stroke-width="3.2"/>
<circle clip-path="url(#clip392)" cx="390.212" cy="416.458" r="14.4" fill="#ff0000" fill-rule="evenodd" fill-opacity="0.25" stroke="#000000" stroke-opacity="0.25" stroke-width="3.2"/>
<circle clip-path="url(#clip392)" cx="1713.99" cy="1053.6" r="14.4" fill="#ff0000" fill-rule="evenodd" fill-opacity="0.25" stroke="#000000" stroke-opacity="0.25" stroke-width="3.2"/>
<circle clip-path="url(#clip392)" cx="393.319" cy="278.682" r="14.4" fill="#ff0000" fill-rule="evenodd" fill-opacity="0.25" stroke="#000000" stroke-opacity="0.25" stroke-width="3.2"/>
<circle clip-path="url(#clip392)" cx="749.675" cy="1073.9" r="14.4" fill="#ff0000" fill-rule="evenodd" fill-opacity="0.25" stroke="#000000" stroke-opacity="0.25" stroke-width="3.2"/>
<circle clip-path="url(#clip392)" cx="389.141" cy="542.851" r="14.4" fill="#ff0000" fill-rule="evenodd" fill-opacity="0.25" stroke="#000000" stroke-opacity="0.25" stroke-width="3.2"/>
<circle clip-path="url(#clip392)" cx="1583.72" cy="1008.78" r="14.4" fill="#ff0000" fill-rule="evenodd" fill-opacity="0.25" stroke="#000000" stroke-opacity="0.25" stroke-width="3.2"/>
<circle clip-path="url(#clip392)" cx="1006.38" cy="1323.42" r="14.4" fill="#ff0000" fill-rule="evenodd" fill-opacity="0.25" stroke="#000000" stroke-opacity="0.25" stroke-width="3.2"/>
<circle clip-path="url(#clip392)" cx="1153.48" cy="1382.3" r="14.4" fill="#ff0000" fill-rule="evenodd" fill-opacity="0.25" stroke="#000000" stroke-opacity="0.25" stroke-width="3.2"/>
<circle clip-path="url(#clip392)" cx="379.989" cy="376.456" r="14.4" fill="#ff0000" fill-rule="evenodd" fill-opacity="0.25" stroke="#000000" stroke-opacity="0.25" stroke-width="3.2"/>
<circle clip-path="url(#clip392)" cx="1270.58" cy="1286.04" r="14.4" fill="#ff0000" fill-rule="evenodd" fill-opacity="0.25" stroke="#000000" stroke-opacity="0.25" stroke-width="3.2"/>
<circle clip-path="url(#clip392)" cx="1698.06" cy="1065.03" r="14.4" fill="#ff0000" fill-rule="evenodd" fill-opacity="0.25" stroke="#000000" stroke-opacity="0.25" stroke-width="3.2"/>
<circle clip-path="url(#clip392)" cx="604.839" cy="956.35" r="14.4" fill="#ff0000" fill-rule="evenodd" fill-opacity="0.25" stroke="#000000" stroke-opacity="0.25" stroke-width="3.2"/>
<circle clip-path="url(#clip392)" cx="680.618" cy="914.758" r="14.4" fill="#ff0000" fill-rule="evenodd" fill-opacity="0.25" stroke="#000000" stroke-opacity="0.25" stroke-width="3.2"/>
<circle clip-path="url(#clip392)" cx="915.403" cy="980.663" r="14.4" fill="#ff0000" fill-rule="evenodd" fill-opacity="0.25" stroke="#000000" stroke-opacity="0.25" stroke-width="3.2"/>
<circle clip-path="url(#clip392)" cx="1007.3" cy="1130.44" r="14.4" fill="#ff0000" fill-rule="evenodd" fill-opacity="0.25" stroke="#000000" stroke-opacity="0.25" stroke-width="3.2"/>
<circle clip-path="url(#clip392)" cx="2235.54" cy="411.004" r="14.4" fill="#ff0000" fill-rule="evenodd" fill-opacity="0.25" stroke="#000000" stroke-opacity="0.25" stroke-width="3.2"/>
<circle clip-path="url(#clip392)" cx="1063.81" cy="934.698" r="14.4" fill="#ff0000" fill-rule="evenodd" fill-opacity="0.25" stroke="#000000" stroke-opacity="0.25" stroke-width="3.2"/>
<circle clip-path="url(#clip392)" cx="1787.42" cy="771.845" r="14.4" fill="#ff0000" fill-rule="evenodd" fill-opacity="0.25" stroke="#000000" stroke-opacity="0.25" stroke-width="3.2"/>
<circle clip-path="url(#clip392)" cx="1892.41" cy="694.243" r="14.4" fill="#ff0000" fill-rule="evenodd" fill-opacity="0.25" stroke="#000000" stroke-opacity="0.25" stroke-width="3.2"/>
<circle clip-path="url(#clip392)" cx="1013.16" cy="1172.76" r="14.4" fill="#ff0000" fill-rule="evenodd" fill-opacity="0.25" stroke="#000000" stroke-opacity="0.25" stroke-width="3.2"/>
<circle clip-path="url(#clip392)" cx="2274.41" cy="486.742" r="14.4" fill="#ff0000" fill-rule="evenodd" fill-opacity="0.25" stroke="#000000" stroke-opacity="0.25" stroke-width="3.2"/>
<circle clip-path="url(#clip392)" cx="538.601" cy="793.06" r="14.4" fill="#ff0000" fill-rule="evenodd" fill-opacity="0.25" stroke="#000000" stroke-opacity="0.25" stroke-width="3.2"/>
<circle clip-path="url(#clip392)" cx="2248.53" cy="426.931" r="14.4" fill="#ff0000" fill-rule="evenodd" fill-opacity="0.25" stroke="#000000" stroke-opacity="0.25" stroke-width="3.2"/>
<circle clip-path="url(#clip392)" cx="672.299" cy="887.228" r="14.4" fill="#ff0000" fill-rule="evenodd" fill-opacity="0.25" stroke="#000000" stroke-opacity="0.25" stroke-width="3.2"/>
<circle clip-path="url(#clip392)" cx="710.682" cy="664.066" r="14.4" fill="#ff0000" fill-rule="evenodd" fill-opacity="0.25" stroke="#000000" stroke-opacity="0.25" stroke-width="3.2"/>
<circle clip-path="url(#clip392)" cx="1086" cy="1336.67" r="14.4" fill="#ff0000" fill-rule="evenodd" fill-opacity="0.25" stroke="#000000" stroke-opacity="0.25" stroke-width="3.2"/>
<circle clip-path="url(#clip392)" cx="2144.17" cy="386.34" r="14.4" fill="#ff0000" fill-rule="evenodd" fill-opacity="0.25" stroke="#000000" stroke-opacity="0.25" stroke-width="3.2"/>
<circle clip-path="url(#clip392)" cx="1357.92" cy="996.216" r="14.4" fill="#ff0000" fill-rule="evenodd" fill-opacity="0.25" stroke="#000000" stroke-opacity="0.25" stroke-width="3.2"/>
<circle clip-path="url(#clip392)" cx="1132.75" cy="1068.73" r="14.4" fill="#ff0000" fill-rule="evenodd" fill-opacity="0.25" stroke="#000000" stroke-opacity="0.25" stroke-width="3.2"/>
<circle clip-path="url(#clip392)" cx="2206.2" cy="293.828" r="14.4" fill="#ff0000" fill-rule="evenodd" fill-opacity="0.25" stroke="#000000" stroke-opacity="0.25" stroke-width="3.2"/>
<circle clip-path="url(#clip392)" cx="2233.3" cy="297.419" r="14.4" fill="#ff0000" fill-rule="evenodd" fill-opacity="0.25" stroke="#000000" stroke-opacity="0.25" stroke-width="3.2"/>
<circle clip-path="url(#clip392)" cx="1443.12" cy="1214.67" r="14.4" fill="#ff0000" fill-rule="evenodd" fill-opacity="0.25" stroke="#000000" stroke-opacity="0.25" stroke-width="3.2"/>
<circle clip-path="url(#clip392)" cx="1034.4" cy="1234.63" r="14.4" fill="#ff0000" fill-rule="evenodd" fill-opacity="0.25" stroke="#000000" stroke-opacity="0.25" stroke-width="3.2"/>
<circle clip-path="url(#clip392)" cx="1367.22" cy="1196.32" r="14.4" fill="#ff0000" fill-rule="evenodd" fill-opacity="0.25" stroke="#000000" stroke-opacity="0.25" stroke-width="3.2"/>
<circle clip-path="url(#clip392)" cx="1307.12" cy="1377.33" r="14.4" fill="#ff0000" fill-rule="evenodd" fill-opacity="0.25" stroke="#000000" stroke-opacity="0.25" stroke-width="3.2"/>
<circle clip-path="url(#clip392)" cx="2216" cy="217.34" r="14.4" fill="#ff0000" fill-rule="evenodd" fill-opacity="0.25" stroke="#000000" stroke-opacity="0.25" stroke-width="3.2"/>
<circle clip-path="url(#clip392)" cx="1747.67" cy="1203.61" r="14.4" fill="#ff0000" fill-rule="evenodd" fill-opacity="0.25" stroke="#000000" stroke-opacity="0.25" stroke-width="3.2"/>
<circle clip-path="url(#clip392)" cx="539.582" cy="695.335" r="14.4" fill="#ff0000" fill-rule="evenodd" fill-opacity="0.25" stroke="#000000" stroke-opacity="0.25" stroke-width="3.2"/>
<circle clip-path="url(#clip392)" cx="1901.67" cy="997.886" r="14.4" fill="#ff0000" fill-rule="evenodd" fill-opacity="0.25" stroke="#000000" stroke-opacity="0.25" stroke-width="3.2"/>
<circle clip-path="url(#clip392)" cx="2225.46" cy="209.985" r="14.4" fill="#ff0000" fill-rule="evenodd" fill-opacity="0.25" stroke="#000000" stroke-opacity="0.25" stroke-width="3.2"/>
<circle clip-path="url(#clip392)" cx="563.376" cy="556.805" r="14.4" fill="#ff0000" fill-rule="evenodd" fill-opacity="0.25" stroke="#000000" stroke-opacity="0.25" stroke-width="3.2"/>
<circle clip-path="url(#clip392)" cx="2044.74" cy="751.865" r="14.4" fill="#ff0000" fill-rule="evenodd" fill-opacity="0.25" stroke="#000000" stroke-opacity="0.25" stroke-width="3.2"/>
<circle clip-path="url(#clip392)" cx="547.701" cy="798.217" r="14.4" fill="#ff0000" fill-rule="evenodd" fill-opacity="0.25" stroke="#000000" stroke-opacity="0.25" stroke-width="3.2"/>
<circle clip-path="url(#clip392)" cx="379.132" cy="557.448" r="14.4" fill="#ff0000" fill-rule="evenodd" fill-opacity="0.25" stroke="#000000" stroke-opacity="0.25" stroke-width="3.2"/>
<circle clip-path="url(#clip392)" cx="1676.85" cy="884.219" r="14.4" fill="#ff0000" fill-rule="evenodd" fill-opacity="0.25" stroke="#000000" stroke-opacity="0.25" stroke-width="3.2"/>
<circle clip-path="url(#clip392)" cx="1684.65" cy="1085.3" r="14.4" fill="#ff0000" fill-rule="evenodd" fill-opacity="0.25" stroke="#000000" stroke-opacity="0.25" stroke-width="3.2"/>
<circle clip-path="url(#clip392)" cx="1146.2" cy="1274.57" r="14.4" fill="#ff0000" fill-rule="evenodd" fill-opacity="0.25" stroke="#000000" stroke-opacity="0.25" stroke-width="3.2"/>
<circle clip-path="url(#clip392)" cx="1898.34" cy="900.34" r="14.4" fill="#ff0000" fill-rule="evenodd" fill-opacity="0.25" stroke="#000000" stroke-opacity="0.25" stroke-width="3.2"/>
<circle clip-path="url(#clip392)" cx="1121.91" cy="1164.96" r="14.4" fill="#ff0000" fill-rule="evenodd" fill-opacity="0.25" stroke="#000000" stroke-opacity="0.25" stroke-width="3.2"/>
<circle clip-path="url(#clip392)" cx="2271.49" cy="160.256" r="14.4" fill="#ff0000" fill-rule="evenodd" fill-opacity="0.25" stroke="#000000" stroke-opacity="0.25" stroke-width="3.2"/>
<circle clip-path="url(#clip392)" cx="2146.82" cy="465.781" r="14.4" fill="#ff0000" fill-rule="evenodd" fill-opacity="0.25" stroke="#000000" stroke-opacity="0.25" stroke-width="3.2"/>
<circle clip-path="url(#clip392)" cx="783.026" cy="1065.37" r="14.4" fill="#ff0000" fill-rule="evenodd" fill-opacity="0.25" stroke="#000000" stroke-opacity="0.25" stroke-width="3.2"/>
<circle clip-path="url(#clip392)" cx="1574.76" cy="1273.51" r="14.4" fill="#ff0000" fill-rule="evenodd" fill-opacity="0.25" stroke="#000000" stroke-opacity="0.25" stroke-width="3.2"/>
<circle clip-path="url(#clip392)" cx="443.416" cy="686.966" r="14.4" fill="#ff0000" fill-rule="evenodd" fill-opacity="0.25" stroke="#000000" stroke-opacity="0.25" stroke-width="3.2"/>
<circle clip-path="url(#clip392)" cx="1732.97" cy="1239.82" r="14.4" fill="#ff0000" fill-rule="evenodd" fill-opacity="0.25" stroke="#000000" stroke-opacity="0.25" stroke-width="3.2"/>
<circle clip-path="url(#clip392)" cx="372.896" cy="233.731" r="14.4" fill="#ff0000" fill-rule="evenodd" fill-opacity="0.25" stroke="#000000" stroke-opacity="0.25" stroke-width="3.2"/>
<circle clip-path="url(#clip392)" cx="1671.86" cy="989.946" r="14.4" fill="#ff0000" fill-rule="evenodd" fill-opacity="0.25" stroke="#000000" stroke-opacity="0.25" stroke-width="3.2"/>
<circle clip-path="url(#clip392)" cx="747.411" cy="818.303" r="14.4" fill="#ff0000" fill-rule="evenodd" fill-opacity="0.25" stroke="#000000" stroke-opacity="0.25" stroke-width="3.2"/>
<circle clip-path="url(#clip392)" cx="1997.72" cy="900.36" r="14.4" fill="#ff0000" fill-rule="evenodd" fill-opacity="0.25" stroke="#000000" stroke-opacity="0.25" stroke-width="3.2"/>
<circle clip-path="url(#clip392)" cx="1511.82" cy="1164.37" r="14.4" fill="#ff0000" fill-rule="evenodd" fill-opacity="0.25" stroke="#000000" stroke-opacity="0.25" stroke-width="3.2"/>
<circle clip-path="url(#clip392)" cx="1391.24" cy="977.865" r="14.4" fill="#ff0000" fill-rule="evenodd" fill-opacity="0.25" stroke="#000000" stroke-opacity="0.25" stroke-width="3.2"/>
<circle clip-path="url(#clip392)" cx="1813.14" cy="1064.35" r="14.4" fill="#ff0000" fill-rule="evenodd" fill-opacity="0.25" stroke="#000000" stroke-opacity="0.25" stroke-width="3.2"/>
<circle clip-path="url(#clip392)" cx="2210.68" cy="403.669" r="14.4" fill="#ff0000" fill-rule="evenodd" fill-opacity="0.25" stroke="#000000" stroke-opacity="0.25" stroke-width="3.2"/>
<circle clip-path="url(#clip392)" cx="1163.9" cy="1172.22" r="14.4" fill="#ff0000" fill-rule="evenodd" fill-opacity="0.25" stroke="#000000" stroke-opacity="0.25" stroke-width="3.2"/>
<circle clip-path="url(#clip392)" cx="2163.78" cy="393.473" r="14.4" fill="#ff0000" fill-rule="evenodd" fill-opacity="0.25" stroke="#000000" stroke-opacity="0.25" stroke-width="3.2"/>
<circle clip-path="url(#clip392)" cx="1023.49" cy="911.364" r="14.4" fill="#ff0000" fill-rule="evenodd" fill-opacity="0.25" stroke="#000000" stroke-opacity="0.25" stroke-width="3.2"/>
<circle clip-path="url(#clip392)" cx="2291" cy="409.559" r="14.4" fill="#ff0000" fill-rule="evenodd" fill-opacity="0.25" stroke="#000000" stroke-opacity="0.25" stroke-width="3.2"/>
<circle clip-path="url(#clip392)" cx="462.845" cy="504.428" r="14.4" fill="#ff0000" fill-rule="evenodd" fill-opacity="0.25" stroke="#000000" stroke-opacity="0.25" stroke-width="3.2"/>
<circle clip-path="url(#clip392)" cx="1859" cy="885.75" r="14.4" fill="#ff0000" fill-rule="evenodd" fill-opacity="0.25" stroke="#000000" stroke-opacity="0.25" stroke-width="3.2"/>
<circle clip-path="url(#clip392)" cx="2013.27" cy="941.545" r="14.4" fill="#ff0000" fill-rule="evenodd" fill-opacity="0.25" stroke="#000000" stroke-opacity="0.25" stroke-width="3.2"/>
<circle clip-path="url(#clip392)" cx="2242.96" cy="503.646" r="14.4" fill="#ff0000" fill-rule="evenodd" fill-opacity="0.25" stroke="#000000" stroke-opacity="0.25" stroke-width="3.2"/>
<circle clip-path="url(#clip392)" cx="1738.05" cy="1209.36" r="14.4" fill="#ff0000" fill-rule="evenodd" fill-opacity="0.25" stroke="#000000" stroke-opacity="0.25" stroke-width="3.2"/>
<circle clip-path="url(#clip392)" cx="1849.26" cy="934.251" r="14.4" fill="#ff0000" fill-rule="evenodd" fill-opacity="0.25" stroke="#000000" stroke-opacity="0.25" stroke-width="3.2"/>
<circle clip-path="url(#clip392)" cx="1365.13" cy="1180.64" r="14.4" fill="#ff0000" fill-rule="evenodd" fill-opacity="0.25" stroke="#000000" stroke-opacity="0.25" stroke-width="3.2"/>
<circle clip-path="url(#clip392)" cx="2118.92" cy="538.551" r="14.4" fill="#ff0000" fill-rule="evenodd" fill-opacity="0.25" stroke="#000000" stroke-opacity="0.25" stroke-width="3.2"/>
<circle clip-path="url(#clip392)" cx="2042.01" cy="843.316" r="14.4" fill="#ff0000" fill-rule="evenodd" fill-opacity="0.25" stroke="#000000" stroke-opacity="0.25" stroke-width="3.2"/>
<circle clip-path="url(#clip392)" cx="2223.12" cy="544.864" r="14.4" fill="#ff0000" fill-rule="evenodd" fill-opacity="0.25" stroke="#000000" stroke-opacity="0.25" stroke-width="3.2"/>
<circle clip-path="url(#clip392)" cx="350.831" cy="354.968" r="14.4" fill="#ff0000" fill-rule="evenodd" fill-opacity="0.25" stroke="#000000" stroke-opacity="0.25" stroke-width="3.2"/>
<circle clip-path="url(#clip392)" cx="802.158" cy="1148.63" r="14.4" fill="#ff0000" fill-rule="evenodd" fill-opacity="0.25" stroke="#000000" stroke-opacity="0.25" stroke-width="3.2"/>
<circle clip-path="url(#clip392)" cx="1518.68" cy="1105.26" r="14.4" fill="#ff0000" fill-rule="evenodd" fill-opacity="0.25" stroke="#000000" stroke-opacity="0.25" stroke-width="3.2"/>
<circle clip-path="url(#clip392)" cx="468.872" cy="583.331" r="14.4" fill="#ff0000" fill-rule="evenodd" fill-opacity="0.25" stroke="#000000" stroke-opacity="0.25" stroke-width="3.2"/>
<circle clip-path="url(#clip392)" cx="968.649" cy="916.6" r="14.4" fill="#ff0000" fill-rule="evenodd" fill-opacity="0.25" stroke="#000000" stroke-opacity="0.25" stroke-width="3.2"/>
<circle clip-path="url(#clip392)" cx="1016.96" cy="1152.87" r="14.4" fill="#ff0000" fill-rule="evenodd" fill-opacity="0.25" stroke="#000000" stroke-opacity="0.25" stroke-width="3.2"/>
<circle clip-path="url(#clip392)" cx="1466.05" cy="1040.1" r="14.4" fill="#ff0000" fill-rule="evenodd" fill-opacity="0.25" stroke="#000000" stroke-opacity="0.25" stroke-width="3.2"/>
<circle clip-path="url(#clip392)" cx="2185.56" cy="376.898" r="14.4" fill="#ff0000" fill-rule="evenodd" fill-opacity="0.25" stroke="#000000" stroke-opacity="0.25" stroke-width="3.2"/>
<circle clip-path="url(#clip392)" cx="1789.41" cy="871.602" r="14.4" fill="#ff0000" fill-rule="evenodd" fill-opacity="0.25" stroke="#000000" stroke-opacity="0.25" stroke-width="3.2"/>
<circle clip-path="url(#clip392)" cx="609.538" cy="647.745" r="14.4" fill="#ff0000" fill-rule="evenodd" fill-opacity="0.25" stroke="#000000" stroke-opacity="0.25" stroke-width="3.2"/>
<circle clip-path="url(#clip392)" cx="1417.03" cy="1023.49" r="14.4" fill="#ff0000" fill-rule="evenodd" fill-opacity="0.25" stroke="#000000" stroke-opacity="0.25" stroke-width="3.2"/>
<circle clip-path="url(#clip392)" cx="1977.25" cy="984.861" r="14.4" fill="#ff0000" fill-rule="evenodd" fill-opacity="0.25" stroke="#000000" stroke-opacity="0.25" stroke-width="3.2"/>
<circle clip-path="url(#clip392)" cx="914.998" cy="1069.28" r="14.4" fill="#ff0000" fill-rule="evenodd" fill-opacity="0.25" stroke="#000000" stroke-opacity="0.25" stroke-width="3.2"/>
<circle clip-path="url(#clip392)" cx="1656.07" cy="870.58" r="14.4" fill="#ff0000" fill-rule="evenodd" fill-opacity="0.25" stroke="#000000" stroke-opacity="0.25" stroke-width="3.2"/>
<circle clip-path="url(#clip392)" cx="2236.84" cy="197.293" r="14.4" fill="#ff0000" fill-rule="evenodd" fill-opacity="0.25" stroke="#000000" stroke-opacity="0.25" stroke-width="3.2"/>
<circle clip-path="url(#clip392)" cx="791.542" cy="891.635" r="14.4" fill="#ff0000" fill-rule="evenodd" fill-opacity="0.25" stroke="#000000" stroke-opacity="0.25" stroke-width="3.2"/>
<circle clip-path="url(#clip392)" cx="1857.02" cy="840.881" r="14.4" fill="#ff0000" fill-rule="evenodd" fill-opacity="0.25" stroke="#000000" stroke-opacity="0.25" stroke-width="3.2"/>
<circle clip-path="url(#clip392)" cx="1809.34" cy="998.378" r="14.4" fill="#ff0000" fill-rule="evenodd" fill-opacity="0.25" stroke="#000000" stroke-opacity="0.25" stroke-width="3.2"/>
<circle clip-path="url(#clip392)" cx="1536.39" cy="1046.45" r="14.4" fill="#ff0000" fill-rule="evenodd" fill-opacity="0.25" stroke="#000000" stroke-opacity="0.25" stroke-width="3.2"/>
<circle clip-path="url(#clip392)" cx="1126.16" cy="1283.95" r="14.4" fill="#ff0000" fill-rule="evenodd" fill-opacity="0.25" stroke="#000000" stroke-opacity="0.25" stroke-width="3.2"/>
<circle clip-path="url(#clip392)" cx="1000.94" cy="1094.38" r="14.4" fill="#ff0000" fill-rule="evenodd" fill-opacity="0.25" stroke="#000000" stroke-opacity="0.25" stroke-width="3.2"/>
<circle clip-path="url(#clip392)" cx="1110.67" cy="1081.9" r="14.4" fill="#ff0000" fill-rule="evenodd" fill-opacity="0.25" stroke="#000000" stroke-opacity="0.25" stroke-width="3.2"/>
<circle clip-path="url(#clip392)" cx="995.561" cy="1279.19" r="14.4" fill="#ff0000" fill-rule="evenodd" fill-opacity="0.25" stroke="#000000" stroke-opacity="0.25" stroke-width="3.2"/>
<circle clip-path="url(#clip392)" cx="507.413" cy="756.955" r="14.4" fill="#ff0000" fill-rule="evenodd" fill-opacity="0.25" stroke="#000000" stroke-opacity="0.25" stroke-width="3.2"/>
<circle clip-path="url(#clip392)" cx="1838.14" cy="1077.51" r="14.4" fill="#ff0000" fill-rule="evenodd" fill-opacity="0.25" stroke="#000000" stroke-opacity="0.25" stroke-width="3.2"/>
<circle clip-path="url(#clip392)" cx="1822.08" cy="890.704" r="14.4" fill="#ff0000" fill-rule="evenodd" fill-opacity="0.25" stroke="#000000" stroke-opacity="0.25" stroke-width="3.2"/>
<circle clip-path="url(#clip392)" cx="575.265" cy="542.316" r="14.4" fill="#ff0000" fill-rule="evenodd" fill-opacity="0.25" stroke="#000000" stroke-opacity="0.25" stroke-width="3.2"/>
<circle clip-path="url(#clip392)" cx="438.438" cy="601.302" r="14.4" fill="#ff0000" fill-rule="evenodd" fill-opacity="0.25" stroke="#000000" stroke-opacity="0.25" stroke-width="3.2"/>
<circle clip-path="url(#clip392)" cx="2096.34" cy="753.81" r="14.4" fill="#ff0000" fill-rule="evenodd" fill-opacity="0.25" stroke="#000000" stroke-opacity="0.25" stroke-width="3.2"/>
<circle clip-path="url(#clip392)" cx="1733.56" cy="902.247" r="14.4" fill="#ff0000" fill-rule="evenodd" fill-opacity="0.25" stroke="#000000" stroke-opacity="0.25" stroke-width="3.2"/>
<circle clip-path="url(#clip392)" cx="1159.51" cy="1286.52" r="14.4" fill="#ff0000" fill-rule="evenodd" fill-opacity="0.25" stroke="#000000" stroke-opacity="0.25" stroke-width="3.2"/>
<circle clip-path="url(#clip392)" cx="2081.37" cy="678.152" r="14.4" fill="#ff0000" fill-rule="evenodd" fill-opacity="0.25" stroke="#000000" stroke-opacity="0.25" stroke-width="3.2"/>
<circle clip-path="url(#clip392)" cx="1666.83" cy="959.286" r="14.4" fill="#ff0000" fill-rule="evenodd" fill-opacity="0.25" stroke="#000000" stroke-opacity="0.25" stroke-width="3.2"/>
<circle clip-path="url(#clip392)" cx="1454.34" cy="1386.4" r="14.4" fill="#ff0000" fill-rule="evenodd" fill-opacity="0.25" stroke="#000000" stroke-opacity="0.25" stroke-width="3.2"/>
<circle clip-path="url(#clip392)" cx="2164.63" cy="450.924" r="14.4" fill="#ff0000" fill-rule="evenodd" fill-opacity="0.25" stroke="#000000" stroke-opacity="0.25" stroke-width="3.2"/>
<circle clip-path="url(#clip392)" cx="1167.49" cy="1291.14" r="14.4" fill="#ff0000" fill-rule="evenodd" fill-opacity="0.25" stroke="#000000" stroke-opacity="0.25" stroke-width="3.2"/>
<circle clip-path="url(#clip392)" cx="969.434" cy="899.17" r="14.4" fill="#ff0000" fill-rule="evenodd" fill-opacity="0.25" stroke="#000000" stroke-opacity="0.25" stroke-width="3.2"/>
<circle clip-path="url(#clip392)" cx="2220.82" cy="508.831" r="14.4" fill="#ff0000" fill-rule="evenodd" fill-opacity="0.25" stroke="#000000" stroke-opacity="0.25" stroke-width="3.2"/>
<circle clip-path="url(#clip392)" cx="831.23" cy="966.885" r="14.4" fill="#ff0000" fill-rule="evenodd" fill-opacity="0.25" stroke="#000000" stroke-opacity="0.25" stroke-width="3.2"/>
<circle clip-path="url(#clip392)" cx="807.182" cy="1163.02" r="14.4" fill="#ff0000" fill-rule="evenodd" fill-opacity="0.25" stroke="#000000" stroke-opacity="0.25" stroke-width="3.2"/>
<circle clip-path="url(#clip392)" cx="2285.84" cy="170.423" r="14.4" fill="#ff0000" fill-rule="evenodd" fill-opacity="0.25" stroke="#000000" stroke-opacity="0.25" stroke-width="3.2"/>
<circle clip-path="url(#clip392)" cx="1604.81" cy="1016.74" r="14.4" fill="#ff0000" fill-rule="evenodd" fill-opacity="0.25" stroke="#000000" stroke-opacity="0.25" stroke-width="3.2"/>
<circle clip-path="url(#clip392)" cx="1179.12" cy="1237.48" r="14.4" fill="#ff0000" fill-rule="evenodd" fill-opacity="0.25" stroke="#000000" stroke-opacity="0.25" stroke-width="3.2"/>
<circle clip-path="url(#clip392)" cx="930.448" cy="998.727" r="14.4" fill="#ff0000" fill-rule="evenodd" fill-opacity="0.25" stroke="#000000" stroke-opacity="0.25" stroke-width="3.2"/>
<circle clip-path="url(#clip392)" cx="1054.22" cy="1179.29" r="14.4" fill="#ff0000" fill-rule="evenodd" fill-opacity="0.25" stroke="#000000" stroke-opacity="0.25" stroke-width="3.2"/>
<circle clip-path="url(#clip392)" cx="1378.38" cy="1372.25" r="14.4" fill="#ff0000" fill-rule="evenodd" fill-opacity="0.25" stroke="#000000" stroke-opacity="0.25" stroke-width="3.2"/>
<circle clip-path="url(#clip392)" cx="1519.63" cy="1077.63" r="14.4" fill="#ff0000" fill-rule="evenodd" fill-opacity="0.25" stroke="#000000" stroke-opacity="0.25" stroke-width="3.2"/>
<circle clip-path="url(#clip392)" cx="2183.32" cy="375.514" r="14.4" fill="#ff0000" fill-rule="evenodd" fill-opacity="0.25" stroke="#000000" stroke-opacity="0.25" stroke-width="3.2"/>
<circle clip-path="url(#clip392)" cx="383.813" cy="494.299" r="14.4" fill="#ff0000" fill-rule="evenodd" fill-opacity="0.25" stroke="#000000" stroke-opacity="0.25" stroke-width="3.2"/>
<circle clip-path="url(#clip392)" cx="1021.39" cy="1027.24" r="14.4" fill="#ff0000" fill-rule="evenodd" fill-opacity="0.25" stroke="#000000" stroke-opacity="0.25" stroke-width="3.2"/>
<circle clip-path="url(#clip392)" cx="980.409" cy="1151.48" r="14.4" fill="#ff0000" fill-rule="evenodd" fill-opacity="0.25" stroke="#000000" stroke-opacity="0.25" stroke-width="3.2"/>
<circle clip-path="url(#clip392)" cx="1161.06" cy="1053.5" r="14.4" fill="#ff0000" fill-rule="evenodd" fill-opacity="0.25" stroke="#000000" stroke-opacity="0.25" stroke-width="3.2"/>
<circle clip-path="url(#clip392)" cx="437.508" cy="494.096" r="14.4" fill="#ff0000" fill-rule="evenodd" fill-opacity="0.25" stroke="#000000" stroke-opacity="0.25" stroke-width="3.2"/>
<circle clip-path="url(#clip392)" cx="1055.45" cy="1333.34" r="14.4" fill="#ff0000" fill-rule="evenodd" fill-opacity="0.25" stroke="#000000" stroke-opacity="0.25" stroke-width="3.2"/>
<circle clip-path="url(#clip392)" cx="1321.59" cy="1322.12" r="14.4" fill="#ff0000" fill-rule="evenodd" fill-opacity="0.25" stroke="#000000" stroke-opacity="0.25" stroke-width="3.2"/>
<circle clip-path="url(#clip392)" cx="1697.63" cy="909.289" r="14.4" fill="#ff0000" fill-rule="evenodd" fill-opacity="0.25" stroke="#000000" stroke-opacity="0.25" stroke-width="3.2"/>
<circle clip-path="url(#clip392)" cx="1711.54" cy="1211.18" r="14.4" fill="#ff0000" fill-rule="evenodd" fill-opacity="0.25" stroke="#000000" stroke-opacity="0.25" stroke-width="3.2"/>
<circle clip-path="url(#clip392)" cx="1140.17" cy="1191.91" r="14.4" fill="#ff0000" fill-rule="evenodd" fill-opacity="0.25" stroke="#000000" stroke-opacity="0.25" stroke-width="3.2"/>
<circle clip-path="url(#clip392)" cx="1257.37" cy="1007.57" r="14.4" fill="#ff0000" fill-rule="evenodd" fill-opacity="0.25" stroke="#000000" stroke-opacity="0.25" stroke-width="3.2"/>
<circle clip-path="url(#clip392)" cx="1022.57" cy="1322.75" r="14.4" fill="#ff0000" fill-rule="evenodd" fill-opacity="0.25" stroke="#000000" stroke-opacity="0.25" stroke-width="3.2"/>
<circle clip-path="url(#clip392)" cx="2062.11" cy="467.562" r="14.4" fill="#ff0000" fill-rule="evenodd" fill-opacity="0.25" stroke="#000000" stroke-opacity="0.25" stroke-width="3.2"/>
<circle clip-path="url(#clip392)" cx="1367.84" cy="1381.16" r="14.4" fill="#ff0000" fill-rule="evenodd" fill-opacity="0.25" stroke="#000000" stroke-opacity="0.25" stroke-width="3.2"/>
<circle clip-path="url(#clip392)" cx="1385.89" cy="1248.57" r="14.4" fill="#ff0000" fill-rule="evenodd" fill-opacity="0.25" stroke="#000000" stroke-opacity="0.25" stroke-width="3.2"/>
<circle clip-path="url(#clip392)" cx="1129.53" cy="963.345" r="14.4" fill="#ff0000" fill-rule="evenodd" fill-opacity="0.25" stroke="#000000" stroke-opacity="0.25" stroke-width="3.2"/>
<circle clip-path="url(#clip392)" cx="1561.41" cy="1150.56" r="14.4" fill="#ff0000" fill-rule="evenodd" fill-opacity="0.25" stroke="#000000" stroke-opacity="0.25" stroke-width="3.2"/>
<circle clip-path="url(#clip392)" cx="1641.53" cy="1126.11" r="14.4" fill="#ff0000" fill-rule="evenodd" fill-opacity="0.25" stroke="#000000" stroke-opacity="0.25" stroke-width="3.2"/>
<circle clip-path="url(#clip392)" cx="2128.96" cy="474.349" r="14.4" fill="#ff0000" fill-rule="evenodd" fill-opacity="0.25" stroke="#000000" stroke-opacity="0.25" stroke-width="3.2"/>
<circle clip-path="url(#clip392)" cx="1290.34" cy="1221.38" r="14.4" fill="#ff0000" fill-rule="evenodd" fill-opacity="0.25" stroke="#000000" stroke-opacity="0.25" stroke-width="3.2"/>
<circle clip-path="url(#clip392)" cx="2110.36" cy="630.376" r="14.4" fill="#ff0000" fill-rule="evenodd" fill-opacity="0.25" stroke="#000000" stroke-opacity="0.25" stroke-width="3.2"/>
<circle clip-path="url(#clip392)" cx="1437.89" cy="1355.03" r="14.4" fill="#ff0000" fill-rule="evenodd" fill-opacity="0.25" stroke="#000000" stroke-opacity="0.25" stroke-width="3.2"/>
<circle clip-path="url(#clip392)" cx="2050.19" cy="863.45" r="14.4" fill="#ff0000" fill-rule="evenodd" fill-opacity="0.25" stroke="#000000" stroke-opacity="0.25" stroke-width="3.2"/>
<circle clip-path="url(#clip392)" cx="1376.39" cy="1199.43" r="14.4" fill="#ff0000" fill-rule="evenodd" fill-opacity="0.25" stroke="#000000" stroke-opacity="0.25" stroke-width="3.2"/>
<circle clip-path="url(#clip392)" cx="1870.84" cy="1008.84" r="14.4" fill="#ff0000" fill-rule="evenodd" fill-opacity="0.25" stroke="#000000" stroke-opacity="0.25" stroke-width="3.2"/>
<circle clip-path="url(#clip392)" cx="1953.27" cy="743.501" r="14.4" fill="#ff0000" fill-rule="evenodd" fill-opacity="0.25" stroke="#000000" stroke-opacity="0.25" stroke-width="3.2"/>
<circle clip-path="url(#clip392)" cx="2221.23" cy="623.687" r="14.4" fill="#ff0000" fill-rule="evenodd" fill-opacity="0.25" stroke="#000000" stroke-opacity="0.25" stroke-width="3.2"/>
<circle clip-path="url(#clip392)" cx="388.84" cy="585.654" r="14.4" fill="#ff0000" fill-rule="evenodd" fill-opacity="0.25" stroke="#000000" stroke-opacity="0.25" stroke-width="3.2"/>
<circle clip-path="url(#clip392)" cx="2047.32" cy="454.603" r="14.4" fill="#ff0000" fill-rule="evenodd" fill-opacity="0.25" stroke="#000000" stroke-opacity="0.25" stroke-width="3.2"/>
<circle clip-path="url(#clip392)" cx="329.943" cy="177.35" r="14.4" fill="#ff0000" fill-rule="evenodd" fill-opacity="0.25" stroke="#000000" stroke-opacity="0.25" stroke-width="3.2"/>
<circle clip-path="url(#clip392)" cx="1073.1" cy="1145.1" r="14.4" fill="#ff0000" fill-rule="evenodd" fill-opacity="0.25" stroke="#000000" stroke-opacity="0.25" stroke-width="3.2"/>
<circle clip-path="url(#clip392)" cx="2023.88" cy="566.724" r="14.4" fill="#ff0000" fill-rule="evenodd" fill-opacity="0.25" stroke="#000000" stroke-opacity="0.25" stroke-width="3.2"/>
<circle clip-path="url(#clip392)" cx="1452.96" cy="939.327" r="14.4" fill="#ff0000" fill-rule="evenodd" fill-opacity="0.25" stroke="#000000" stroke-opacity="0.25" stroke-width="3.2"/>
<circle clip-path="url(#clip392)" cx="1096.74" cy="1299" r="14.4" fill="#ff0000" fill-rule="evenodd" fill-opacity="0.25" stroke="#000000" stroke-opacity="0.25" stroke-width="3.2"/>
<circle clip-path="url(#clip392)" cx="507.905" cy="746.213" r="14.4" fill="#ff0000" fill-rule="evenodd" fill-opacity="0.25" stroke="#000000" stroke-opacity="0.25" stroke-width="3.2"/>
<circle clip-path="url(#clip392)" cx="651.558" cy="742.449" r="14.4" fill="#ff0000" fill-rule="evenodd" fill-opacity="0.25" stroke="#000000" stroke-opacity="0.25" stroke-width="3.2"/>
<circle clip-path="url(#clip392)" cx="2245.96" cy="290.934" r="14.4" fill="#ff0000" fill-rule="evenodd" fill-opacity="0.25" stroke="#000000" stroke-opacity="0.25" stroke-width="3.2"/>
<circle clip-path="url(#clip392)" cx="642.461" cy="876.345" r="14.4" fill="#ff0000" fill-rule="evenodd" fill-opacity="0.25" stroke="#000000" stroke-opacity="0.25" stroke-width="3.2"/>
<circle clip-path="url(#clip392)" cx="979.468" cy="869.43" r="14.4" fill="#ff0000" fill-rule="evenodd" fill-opacity="0.25" stroke="#000000" stroke-opacity="0.25" stroke-width="3.2"/>
<circle clip-path="url(#clip392)" cx="1873.93" cy="815.089" r="14.4" fill="#ff0000" fill-rule="evenodd" fill-opacity="0.25" stroke="#000000" stroke-opacity="0.25" stroke-width="3.2"/>
<circle clip-path="url(#clip392)" cx="924.093" cy="1008.71" r="14.4" fill="#ff0000" fill-rule="evenodd" fill-opacity="0.25" stroke="#000000" stroke-opacity="0.25" stroke-width="3.2"/>
<circle clip-path="url(#clip392)" cx="2264.61" cy="234.968" r="14.4" fill="#ff0000" fill-rule="evenodd" fill-opacity="0.25" stroke="#000000" stroke-opacity="0.25" stroke-width="3.2"/>
<polyline clip-path="url(#clip392)" style="stroke:#0000ff; stroke-linecap:round; stroke-linejoin:round; stroke-width:4; stroke-opacity:1; fill:none" points="309.067,304.617 333.869,349.005 358.671,392.259 383.473,434.378 408.275,475.363 433.077,515.214 457.879,553.93 482.681,591.513 507.483,627.96 532.285,663.274 557.087,697.453 581.89,730.498 606.692,762.409 631.494,793.185 656.296,822.827 681.098,851.334 705.9,878.707 730.702,904.946 755.504,930.051 780.306,954.021 805.108,976.857 829.91,998.559 854.712,1019.13 879.514,1038.56 904.316,1056.86 929.118,1074.02 953.92,1090.05 978.722,1104.95 1003.52,1118.71 1028.33,1131.34 1053.13,1142.83 1077.93,1153.19 1102.73,1162.41 1127.53,1170.5 1152.34,1177.46 1177.14,1183.28 1201.94,1187.96 1226.74,1191.52 1251.54,1193.93 1276.35,1195.22 1301.15,1195.37 1325.95,1194.38 1350.75,1192.26 1375.56,1189.01 1400.36,1184.62 1425.16,1179.1 1449.96,1172.44 1474.76,1164.65 1499.57,1155.73 1524.37,1145.67 1549.17,1134.47 1573.97,1122.15 1598.77,1108.68 1623.58,1094.09 1648.38,1078.36 1673.18,1061.49 1697.98,1043.49 1722.78,1024.36 1747.59,1004.09 1772.39,982.686 1797.19,960.149 1821.99,936.478 1846.79,911.672 1871.6,885.732 1896.4,858.658 1921.2,830.449 1946,801.106 1970.8,770.629 1995.61,739.017 2020.41,706.271 2045.21,672.391 2070.01,637.377 2094.81,601.228 2119.62,563.944 2144.42,525.527 2169.22,485.975 2194.02,445.289 2218.82,403.468 2243.63,360.513 2268.43,316.424 2293.23,271.201 "/>
<path clip-path="url(#clip390)" d="M1972.47 1379.86 L2282.65 1379.86 L2282.65 1224.34 L1972.47 1224.34  Z" fill="#ffffff" fill-rule="evenodd" fill-opacity="1"/>
<polyline clip-path="url(#clip390)" style="stroke:#000000; stroke-linecap:round; stroke-linejoin:round; stroke-width:4; stroke-opacity:1; fill:none" points="1972.47,1379.86 2282.65,1379.86 2282.65,1224.34 1972.47,1224.34 1972.47,1379.86 "/>
<circle clip-path="url(#clip390)" cx="2065.94" cy="1276.18" r="23.04" fill="#ff0000" fill-rule="evenodd" fill-opacity="0.25" stroke="#000000" stroke-opacity="0.25" stroke-width="5.12"/>
<path clip-path="url(#clip390)" d="M2178.33 1271.47 L2178.33 1257.44 L2182.59 1257.44 L2182.59 1293.46 L2178.33 1293.46 L2178.33 1289.57 Q2176.99 1291.88 2174.93 1293.02 Q2172.89 1294.13 2170.02 1294.13 Q2165.32 1294.13 2162.36 1290.38 Q2159.42 1286.63 2159.42 1280.52 Q2159.42 1274.41 2162.36 1270.66 Q2165.32 1266.91 2170.02 1266.91 Q2172.89 1266.91 2174.93 1268.04 Q2176.99 1269.15 2178.33 1271.47 M2163.82 1280.52 Q2163.82 1285.22 2165.74 1287.9 Q2167.68 1290.56 2171.06 1290.56 Q2174.44 1290.56 2176.39 1287.9 Q2178.33 1285.22 2178.33 1280.52 Q2178.33 1275.82 2176.39 1273.16 Q2174.44 1270.47 2171.06 1270.47 Q2167.68 1270.47 2165.74 1273.16 Q2163.82 1275.82 2163.82 1280.52 Z" fill="#000000" fill-rule="evenodd" fill-opacity="1" /><path clip-path="url(#clip390)" d="M2203.15 1280.42 Q2197.98 1280.42 2195.99 1281.6 Q2194 1282.79 2194 1285.63 Q2194 1287.9 2195.48 1289.24 Q2196.99 1290.56 2199.56 1290.56 Q2203.1 1290.56 2205.23 1288.06 Q2207.38 1285.54 2207.38 1281.37 L2207.38 1280.42 L2203.15 1280.42 M2211.64 1278.66 L2211.64 1293.46 L2207.38 1293.46 L2207.38 1289.52 Q2205.92 1291.88 2203.75 1293.02 Q2201.57 1294.13 2198.42 1294.13 Q2194.44 1294.13 2192.08 1291.91 Q2189.74 1289.66 2189.74 1285.91 Q2189.74 1281.54 2192.66 1279.31 Q2195.6 1277.09 2201.41 1277.09 L2207.38 1277.09 L2207.38 1276.67 Q2207.38 1273.73 2205.44 1272.14 Q2203.52 1270.52 2200.02 1270.52 Q2197.8 1270.52 2195.69 1271.05 Q2193.59 1271.58 2191.64 1272.65 L2191.64 1268.71 Q2193.98 1267.81 2196.18 1267.37 Q2198.38 1266.91 2200.46 1266.91 Q2206.09 1266.91 2208.86 1269.82 Q2211.64 1272.74 2211.64 1278.66 Z" fill="#000000" fill-rule="evenodd" fill-opacity="1" /><path clip-path="url(#clip390)" d="M2224.63 1260.17 L2224.63 1267.53 L2233.4 1267.53 L2233.4 1270.84 L2224.63 1270.84 L2224.63 1284.91 Q2224.63 1288.09 2225.48 1288.99 Q2226.36 1289.89 2229.03 1289.89 L2233.4 1289.89 L2233.4 1293.46 L2229.03 1293.46 Q2224.09 1293.46 2222.22 1291.63 Q2220.34 1289.78 2220.34 1284.91 L2220.34 1270.84 L2217.22 1270.84 L2217.22 1267.53 L2220.34 1267.53 L2220.34 1260.17 L2224.63 1260.17 Z" fill="#000000" fill-rule="evenodd" fill-opacity="1" /><path clip-path="url(#clip390)" d="M2250.78 1280.42 Q2245.62 1280.42 2243.63 1281.6 Q2241.64 1282.79 2241.64 1285.63 Q2241.64 1287.9 2243.12 1289.24 Q2244.63 1290.56 2247.2 1290.56 Q2250.74 1290.56 2252.87 1288.06 Q2255.02 1285.54 2255.02 1281.37 L2255.02 1280.42 L2250.78 1280.42 M2259.28 1278.66 L2259.28 1293.46 L2255.02 1293.46 L2255.02 1289.52 Q2253.56 1291.88 2251.39 1293.02 Q2249.21 1294.13 2246.06 1294.13 Q2242.08 1294.13 2239.72 1291.91 Q2237.38 1289.66 2237.38 1285.91 Q2237.38 1281.54 2240.3 1279.31 Q2243.24 1277.09 2249.05 1277.09 L2255.02 1277.09 L2255.02 1276.67 Q2255.02 1273.73 2253.08 1272.14 Q2251.15 1270.52 2247.66 1270.52 Q2245.44 1270.52 2243.33 1271.05 Q2241.22 1271.58 2239.28 1272.65 L2239.28 1268.71 Q2241.62 1267.81 2243.82 1267.37 Q2246.02 1266.91 2248.1 1266.91 Q2253.72 1266.91 2256.5 1269.82 Q2259.28 1272.74 2259.28 1278.66 Z" fill="#000000" fill-rule="evenodd" fill-opacity="1" /><polyline clip-path="url(#clip390)" style="stroke:#0000ff; stroke-linecap:round; stroke-linejoin:round; stroke-width:4; stroke-opacity:1; fill:none" points="1995.84,1328.02 2136.05,1328.02 "/>
<path clip-path="url(#clip390)" d="M2175.92 1309.28 L2175.92 1312.82 L2171.85 1312.82 Q2169.56 1312.82 2168.66 1313.75 Q2167.78 1314.67 2167.78 1317.08 L2167.78 1319.37 L2174.79 1319.37 L2174.79 1322.68 L2167.78 1322.68 L2167.78 1345.3 L2163.49 1345.3 L2163.49 1322.68 L2159.42 1322.68 L2159.42 1319.37 L2163.49 1319.37 L2163.49 1317.56 Q2163.49 1313.24 2165.51 1311.27 Q2167.52 1309.28 2171.9 1309.28 L2175.92 1309.28 Z" fill="#000000" fill-rule="evenodd" fill-opacity="1" /><path clip-path="url(#clip390)" d="M2179.49 1319.37 L2183.75 1319.37 L2183.75 1345.3 L2179.49 1345.3 L2179.49 1319.37 M2179.49 1309.28 L2183.75 1309.28 L2183.75 1314.67 L2179.49 1314.67 L2179.49 1309.28 Z" fill="#000000" fill-rule="evenodd" fill-opacity="1" /><path clip-path="url(#clip390)" d="M2196.87 1312.01 L2196.87 1319.37 L2205.65 1319.37 L2205.65 1322.68 L2196.87 1322.68 L2196.87 1336.75 Q2196.87 1339.93 2197.73 1340.83 Q2198.61 1341.73 2201.27 1341.73 L2205.65 1341.73 L2205.65 1345.3 L2201.27 1345.3 Q2196.34 1345.3 2194.47 1343.47 Q2192.59 1341.62 2192.59 1336.75 L2192.59 1322.68 L2189.47 1322.68 L2189.47 1319.37 L2192.59 1319.37 L2192.59 1312.01 L2196.87 1312.01 Z" fill="#000000" fill-rule="evenodd" fill-opacity="1" /></svg>
