<?xml version="1.0" encoding="utf-8"?>
<svg xmlns="http://www.w3.org/2000/svg" xmlns:xlink="http://www.w3.org/1999/xlink" width="600" height="400" viewBox="0 0 2400 1600">
<defs>
  <clipPath id="clip430">
    <rect x="0" y="0" width="2400" height="1600"/>
  </clipPath>
</defs>
<path clip-path="url(#clip430)" d="M0 1600 L2400 1600 L2400 0 L0 0  Z" fill="#ffffff" fill-rule="evenodd" fill-opacity="1"/>
<defs>
  <clipPath id="clip431">
    <rect x="480" y="0" width="1681" height="1600"/>
  </clipPath>
</defs>
<path clip-path="url(#clip430)" d="M257.69 1423.18 L2352.76 1423.18 L2352.76 47.2441 L257.69 47.2441  Z" fill="#ffffff" fill-rule="evenodd" fill-opacity="1"/>
<defs>
  <clipPath id="clip432">
    <rect x="257" y="47" width="2096" height="1377"/>
  </clipPath>
</defs>
<polyline clip-path="url(#clip432)" style="stroke:#000000; stroke-linecap:round; stroke-linejoin:round; stroke-width:2; stroke-opacity:0.1; fill:none" points="316.984,1423.18 316.984,47.2441 "/>
<polyline clip-path="url(#clip432)" style="stroke:#000000; stroke-linecap:round; stroke-linejoin:round; stroke-width:2; stroke-opacity:0.1; fill:none" points="811.104,1423.18 811.104,47.2441 "/>
<polyline clip-path="url(#clip432)" style="stroke:#000000; stroke-linecap:round; stroke-linejoin:round; stroke-width:2; stroke-opacity:0.1; fill:none" points="1305.22,1423.18 1305.22,47.2441 "/>
<polyline clip-path="url(#clip432)" style="stroke:#000000; stroke-linecap:round; stroke-linejoin:round; stroke-width:2; stroke-opacity:0.1; fill:none" points="1799.34,1423.18 1799.34,47.2441 "/>
<polyline clip-path="url(#clip432)" style="stroke:#000000; stroke-linecap:round; stroke-linejoin:round; stroke-width:2; stroke-opacity:0.1; fill:none" points="2293.46,1423.18 2293.46,47.2441 "/>
<polyline clip-path="url(#clip430)" style="stroke:#000000; stroke-linecap:round; stroke-linejoin:round; stroke-width:4; stroke-opacity:1; fill:none" points="257.69,1423.18 2352.76,1423.18 "/>
<polyline clip-path="url(#clip430)" style="stroke:#000000; stroke-linecap:round; stroke-linejoin:round; stroke-width:4; stroke-opacity:1; fill:none" points="316.984,1423.18 316.984,1404.28 "/>
<polyline clip-path="url(#clip430)" style="stroke:#000000; stroke-linecap:round; stroke-linejoin:round; stroke-width:4; stroke-opacity:1; fill:none" points="811.104,1423.18 811.104,1404.28 "/>
<polyline clip-path="url(#clip430)" style="stroke:#000000; stroke-linecap:round; stroke-linejoin:round; stroke-width:4; stroke-opacity:1; fill:none" points="1305.22,1423.18 1305.22,1404.28 "/>
<polyline clip-path="url(#clip430)" style="stroke:#000000; stroke-linecap:round; stroke-linejoin:round; stroke-width:4; stroke-opacity:1; fill:none" points="1799.34,1423.18 1799.34,1404.28 "/>
<polyline clip-path="url(#clip430)" style="stroke:#000000; stroke-linecap:round; stroke-linejoin:round; stroke-width:4; stroke-opacity:1; fill:none" points="2293.46,1423.18 2293.46,1404.28 "/>
<path clip-path="url(#clip430)" d="M279.288 1454.1 Q275.677 1454.1 273.848 1457.66 Q272.043 1461.2 272.043 1468.33 Q272.043 1475.44 273.848 1479.01 Q275.677 1482.55 279.288 1482.55 Q282.922 1482.55 284.728 1479.01 Q286.556 1475.44 286.556 1468.33 Q286.556 1461.2 284.728 1457.66 Q282.922 1454.1 279.288 1454.1 M279.288 1450.39 Q285.098 1450.39 288.154 1455 Q291.232 1459.58 291.232 1468.33 Q291.232 1477.06 288.154 1481.67 Q285.098 1486.25 279.288 1486.25 Q273.478 1486.25 270.399 1481.67 Q267.344 1477.06 267.344 1468.33 Q267.344 1459.58 270.399 1455 Q273.478 1450.39 279.288 1450.39 Z" fill="#000000" fill-rule="evenodd" fill-opacity="1" /><path clip-path="url(#clip430)" d="M299.45 1479.7 L304.334 1479.7 L304.334 1485.58 L299.45 1485.58 L299.45 1479.7 Z" fill="#000000" fill-rule="evenodd" fill-opacity="1" /><path clip-path="url(#clip430)" d="M324.519 1454.1 Q320.908 1454.1 319.079 1457.66 Q317.274 1461.2 317.274 1468.33 Q317.274 1475.44 319.079 1479.01 Q320.908 1482.55 324.519 1482.55 Q328.153 1482.55 329.959 1479.01 Q331.788 1475.44 331.788 1468.33 Q331.788 1461.2 329.959 1457.66 Q328.153 1454.1 324.519 1454.1 M324.519 1450.39 Q330.329 1450.39 333.385 1455 Q336.464 1459.58 336.464 1468.33 Q336.464 1477.06 333.385 1481.67 Q330.329 1486.25 324.519 1486.25 Q318.709 1486.25 315.63 1481.67 Q312.575 1477.06 312.575 1468.33 Q312.575 1459.58 315.63 1455 Q318.709 1450.39 324.519 1450.39 Z" fill="#000000" fill-rule="evenodd" fill-opacity="1" /><path clip-path="url(#clip430)" d="M354.681 1454.1 Q351.07 1454.1 349.241 1457.66 Q347.436 1461.2 347.436 1468.33 Q347.436 1475.44 349.241 1479.01 Q351.07 1482.55 354.681 1482.55 Q358.315 1482.55 360.121 1479.01 Q361.949 1475.44 361.949 1468.33 Q361.949 1461.2 360.121 1457.66 Q358.315 1454.1 354.681 1454.1 M354.681 1450.39 Q360.491 1450.39 363.547 1455 Q366.625 1459.58 366.625 1468.33 Q366.625 1477.06 363.547 1481.67 Q360.491 1486.25 354.681 1486.25 Q348.871 1486.25 345.792 1481.67 Q342.737 1477.06 342.737 1468.33 Q342.737 1459.58 345.792 1455 Q348.871 1450.39 354.681 1450.39 Z" fill="#000000" fill-rule="evenodd" fill-opacity="1" /><path clip-path="url(#clip430)" d="M773.905 1454.1 Q770.294 1454.1 768.465 1457.66 Q766.66 1461.2 766.66 1468.33 Q766.66 1475.44 768.465 1479.01 Q770.294 1482.55 773.905 1482.55 Q777.539 1482.55 779.345 1479.01 Q781.173 1475.44 781.173 1468.33 Q781.173 1461.2 779.345 1457.66 Q777.539 1454.1 773.905 1454.1 M773.905 1450.39 Q779.715 1450.39 782.771 1455 Q785.849 1459.58 785.849 1468.33 Q785.849 1477.06 782.771 1481.67 Q779.715 1486.25 773.905 1486.25 Q768.095 1486.25 765.016 1481.67 Q761.96 1477.06 761.96 1468.33 Q761.96 1459.58 765.016 1455 Q768.095 1450.39 773.905 1450.39 Z" fill="#000000" fill-rule="evenodd" fill-opacity="1" /><path clip-path="url(#clip430)" d="M794.067 1479.7 L798.951 1479.7 L798.951 1485.58 L794.067 1485.58 L794.067 1479.7 Z" fill="#000000" fill-rule="evenodd" fill-opacity="1" /><path clip-path="url(#clip430)" d="M813.164 1481.64 L829.483 1481.64 L829.483 1485.58 L807.539 1485.58 L807.539 1481.64 Q810.201 1478.89 814.784 1474.26 Q819.391 1469.61 820.571 1468.27 Q822.817 1465.74 823.696 1464.01 Q824.599 1462.25 824.599 1460.56 Q824.599 1457.8 822.655 1456.07 Q820.733 1454.33 817.631 1454.33 Q815.432 1454.33 812.979 1455.09 Q810.548 1455.86 807.77 1457.41 L807.77 1452.69 Q810.594 1451.55 813.048 1450.97 Q815.502 1450.39 817.539 1450.39 Q822.909 1450.39 826.104 1453.08 Q829.298 1455.77 829.298 1460.26 Q829.298 1462.39 828.488 1464.31 Q827.701 1466.2 825.594 1468.8 Q825.016 1469.47 821.914 1472.69 Q818.812 1475.88 813.164 1481.64 Z" fill="#000000" fill-rule="evenodd" fill-opacity="1" /><path clip-path="url(#clip430)" d="M839.344 1451.02 L857.701 1451.02 L857.701 1454.96 L843.627 1454.96 L843.627 1463.43 Q844.645 1463.08 845.664 1462.92 Q846.682 1462.73 847.701 1462.73 Q853.488 1462.73 856.867 1465.9 Q860.247 1469.08 860.247 1474.49 Q860.247 1480.07 856.775 1483.17 Q853.303 1486.25 846.983 1486.25 Q844.807 1486.25 842.539 1485.88 Q840.293 1485.51 837.886 1484.77 L837.886 1480.07 Q839.969 1481.2 842.192 1481.76 Q844.414 1482.32 846.891 1482.32 Q850.895 1482.32 853.233 1480.21 Q855.571 1478.1 855.571 1474.49 Q855.571 1470.88 853.233 1468.77 Q850.895 1466.67 846.891 1466.67 Q845.016 1466.67 843.141 1467.08 Q841.289 1467.5 839.344 1468.38 L839.344 1451.02 Z" fill="#000000" fill-rule="evenodd" fill-opacity="1" /><path clip-path="url(#clip430)" d="M1267.53 1454.1 Q1263.92 1454.1 1262.09 1457.66 Q1260.28 1461.2 1260.28 1468.33 Q1260.28 1475.44 1262.09 1479.01 Q1263.92 1482.55 1267.53 1482.55 Q1271.16 1482.55 1272.97 1479.01 Q1274.79 1475.44 1274.79 1468.33 Q1274.79 1461.2 1272.97 1457.66 Q1271.16 1454.1 1267.53 1454.1 M1267.53 1450.39 Q1273.34 1450.39 1276.39 1455 Q1279.47 1459.58 1279.47 1468.33 Q1279.47 1477.06 1276.39 1481.67 Q1273.34 1486.25 1267.53 1486.25 Q1261.72 1486.25 1258.64 1481.67 Q1255.58 1477.06 1255.58 1468.33 Q1255.58 1459.58 1258.64 1455 Q1261.72 1450.39 1267.53 1450.39 Z" fill="#000000" fill-rule="evenodd" fill-opacity="1" /><path clip-path="url(#clip430)" d="M1287.69 1479.7 L1292.57 1479.7 L1292.57 1485.58 L1287.69 1485.58 L1287.69 1479.7 Z" fill="#000000" fill-rule="evenodd" fill-opacity="1" /><path clip-path="url(#clip430)" d="M1302.8 1451.02 L1321.16 1451.02 L1321.16 1454.96 L1307.09 1454.96 L1307.09 1463.43 Q1308.1 1463.08 1309.12 1462.92 Q1310.14 1462.73 1311.16 1462.73 Q1316.95 1462.73 1320.33 1465.9 Q1323.71 1469.08 1323.71 1474.49 Q1323.71 1480.07 1320.23 1483.17 Q1316.76 1486.25 1310.44 1486.25 Q1308.27 1486.25 1306 1485.88 Q1303.75 1485.51 1301.35 1484.77 L1301.35 1480.07 Q1303.43 1481.2 1305.65 1481.76 Q1307.87 1482.32 1310.35 1482.32 Q1314.35 1482.32 1316.69 1480.21 Q1319.03 1478.1 1319.03 1474.49 Q1319.03 1470.88 1316.69 1468.77 Q1314.35 1466.67 1310.35 1466.67 Q1308.48 1466.67 1306.6 1467.08 Q1304.75 1467.5 1302.8 1468.38 L1302.8 1451.02 Z" fill="#000000" fill-rule="evenodd" fill-opacity="1" /><path clip-path="url(#clip430)" d="M1342.92 1454.1 Q1339.31 1454.1 1337.48 1457.66 Q1335.67 1461.2 1335.67 1468.33 Q1335.67 1475.44 1337.48 1479.01 Q1339.31 1482.55 1342.92 1482.55 Q1346.55 1482.55 1348.36 1479.01 Q1350.19 1475.44 1350.19 1468.33 Q1350.19 1461.2 1348.36 1457.66 Q1346.55 1454.1 1342.92 1454.1 M1342.92 1450.39 Q1348.73 1450.39 1351.79 1455 Q1354.86 1459.58 1354.86 1468.33 Q1354.86 1477.06 1351.79 1481.67 Q1348.73 1486.25 1342.92 1486.25 Q1337.11 1486.25 1334.03 1481.67 Q1330.98 1477.06 1330.98 1468.33 Q1330.98 1459.58 1334.03 1455 Q1337.11 1450.39 1342.92 1450.39 Z" fill="#000000" fill-rule="evenodd" fill-opacity="1" /><path clip-path="url(#clip430)" d="M1762.14 1454.1 Q1758.53 1454.1 1756.7 1457.66 Q1754.9 1461.2 1754.9 1468.33 Q1754.9 1475.44 1756.7 1479.01 Q1758.53 1482.55 1762.14 1482.55 Q1765.78 1482.55 1767.58 1479.01 Q1769.41 1475.44 1769.41 1468.33 Q1769.41 1461.2 1767.58 1457.66 Q1765.78 1454.1 1762.14 1454.1 M1762.14 1450.39 Q1767.95 1450.39 1771.01 1455 Q1774.09 1459.58 1774.09 1468.33 Q1774.09 1477.06 1771.01 1481.67 Q1767.95 1486.25 1762.14 1486.25 Q1756.33 1486.25 1753.25 1481.67 Q1750.2 1477.06 1750.2 1468.33 Q1750.2 1459.58 1753.25 1455 Q1756.33 1450.39 1762.14 1450.39 Z" fill="#000000" fill-rule="evenodd" fill-opacity="1" /><path clip-path="url(#clip430)" d="M1782.31 1479.7 L1787.19 1479.7 L1787.19 1485.58 L1782.31 1485.58 L1782.31 1479.7 Z" fill="#000000" fill-rule="evenodd" fill-opacity="1" /><path clip-path="url(#clip430)" d="M1796.19 1451.02 L1818.42 1451.02 L1818.42 1453.01 L1805.87 1485.58 L1800.99 1485.58 L1812.79 1454.96 L1796.19 1454.96 L1796.19 1451.02 Z" fill="#000000" fill-rule="evenodd" fill-opacity="1" /><path clip-path="url(#clip430)" d="M1827.58 1451.02 L1845.94 1451.02 L1845.94 1454.96 L1831.87 1454.96 L1831.87 1463.43 Q1832.88 1463.08 1833.9 1462.92 Q1834.92 1462.73 1835.94 1462.73 Q1841.73 1462.73 1845.11 1465.9 Q1848.49 1469.08 1848.49 1474.49 Q1848.49 1480.07 1845.01 1483.17 Q1841.54 1486.25 1835.22 1486.25 Q1833.05 1486.25 1830.78 1485.88 Q1828.53 1485.51 1826.12 1484.77 L1826.12 1480.07 Q1828.21 1481.2 1830.43 1481.76 Q1832.65 1482.32 1835.13 1482.32 Q1839.13 1482.32 1841.47 1480.21 Q1843.81 1478.1 1843.81 1474.49 Q1843.81 1470.88 1841.47 1468.77 Q1839.13 1466.67 1835.13 1466.67 Q1833.25 1466.67 1831.38 1467.08 Q1829.53 1467.5 1827.58 1468.38 L1827.58 1451.02 Z" fill="#000000" fill-rule="evenodd" fill-opacity="1" /><path clip-path="url(#clip430)" d="M2245.53 1481.64 L2253.17 1481.64 L2253.17 1455.28 L2244.86 1456.95 L2244.86 1452.69 L2253.13 1451.02 L2257.8 1451.02 L2257.8 1481.64 L2265.44 1481.64 L2265.44 1485.58 L2245.53 1485.58 L2245.53 1481.64 Z" fill="#000000" fill-rule="evenodd" fill-opacity="1" /><path clip-path="url(#clip430)" d="M2274.89 1479.7 L2279.77 1479.7 L2279.77 1485.58 L2274.89 1485.58 L2274.89 1479.7 Z" fill="#000000" fill-rule="evenodd" fill-opacity="1" /><path clip-path="url(#clip430)" d="M2299.95 1454.1 Q2296.34 1454.1 2294.51 1457.66 Q2292.71 1461.2 2292.71 1468.33 Q2292.71 1475.44 2294.51 1479.01 Q2296.34 1482.55 2299.95 1482.55 Q2303.59 1482.55 2305.39 1479.01 Q2307.22 1475.44 2307.22 1468.33 Q2307.22 1461.2 2305.39 1457.66 Q2303.59 1454.1 2299.95 1454.1 M2299.95 1450.39 Q2305.76 1450.39 2308.82 1455 Q2311.9 1459.58 2311.9 1468.33 Q2311.9 1477.06 2308.82 1481.67 Q2305.76 1486.25 2299.95 1486.25 Q2294.14 1486.25 2291.07 1481.67 Q2288.01 1477.06 2288.01 1468.33 Q2288.01 1459.58 2291.07 1455 Q2294.14 1450.39 2299.95 1450.39 Z" fill="#000000" fill-rule="evenodd" fill-opacity="1" /><path clip-path="url(#clip430)" d="M2330.12 1454.1 Q2326.51 1454.1 2324.68 1457.66 Q2322.87 1461.2 2322.87 1468.33 Q2322.87 1475.44 2324.68 1479.01 Q2326.51 1482.55 2330.12 1482.55 Q2333.75 1482.55 2335.56 1479.01 Q2337.38 1475.44 2337.38 1468.33 Q2337.38 1461.2 2335.56 1457.66 Q2333.75 1454.1 2330.12 1454.1 M2330.12 1450.39 Q2335.93 1450.39 2338.98 1455 Q2342.06 1459.58 2342.06 1468.33 Q2342.06 1477.06 2338.98 1481.67 Q2335.93 1486.25 2330.12 1486.25 Q2324.31 1486.25 2321.23 1481.67 Q2318.17 1477.06 2318.17 1468.33 Q2318.17 1459.58 2321.23 1455 Q2324.31 1450.39 2330.12 1450.39 Z" fill="#000000" fill-rule="evenodd" fill-opacity="1" /><path clip-path="url(#clip430)" d="M1321.84 1532.4 L1308.95 1549.74 L1322.51 1568.04 L1315.6 1568.04 L1305.22 1554.04 L1294.85 1568.04 L1287.94 1568.04 L1301.79 1549.39 L1289.12 1532.4 L1296.02 1532.4 L1305.48 1545.1 L1314.93 1532.4 L1321.84 1532.4 Z" fill="#000000" fill-rule="evenodd" fill-opacity="1" /><polyline clip-path="url(#clip432)" style="stroke:#000000; stroke-linecap:round; stroke-linejoin:round; stroke-width:2; stroke-opacity:0.1; fill:none" points="257.69,1274.99 2352.76,1274.99 "/>
<polyline clip-path="url(#clip432)" style="stroke:#000000; stroke-linecap:round; stroke-linejoin:round; stroke-width:2; stroke-opacity:0.1; fill:none" points="257.69,1121.43 2352.76,1121.43 "/>
<polyline clip-path="url(#clip432)" style="stroke:#000000; stroke-linecap:round; stroke-linejoin:round; stroke-width:2; stroke-opacity:0.1; fill:none" points="257.69,967.874 2352.76,967.874 "/>
<polyline clip-path="url(#clip432)" style="stroke:#000000; stroke-linecap:round; stroke-linejoin:round; stroke-width:2; stroke-opacity:0.1; fill:none" points="257.69,814.314 2352.76,814.314 "/>
<polyline clip-path="url(#clip432)" style="stroke:#000000; stroke-linecap:round; stroke-linejoin:round; stroke-width:2; stroke-opacity:0.1; fill:none" points="257.69,660.754 2352.76,660.754 "/>
<polyline clip-path="url(#clip432)" style="stroke:#000000; stroke-linecap:round; stroke-linejoin:round; stroke-width:2; stroke-opacity:0.1; fill:none" points="257.69,507.194 2352.76,507.194 "/>
<polyline clip-path="url(#clip432)" style="stroke:#000000; stroke-linecap:round; stroke-linejoin:round; stroke-width:2; stroke-opacity:0.1; fill:none" points="257.69,353.634 2352.76,353.634 "/>
<polyline clip-path="url(#clip432)" style="stroke:#000000; stroke-linecap:round; stroke-linejoin:round; stroke-width:2; stroke-opacity:0.1; fill:none" points="257.69,200.074 2352.76,200.074 "/>
<polyline clip-path="url(#clip430)" style="stroke:#000000; stroke-linecap:round; stroke-linejoin:round; stroke-width:4; stroke-opacity:1; fill:none" points="257.69,1423.18 257.69,47.2441 "/>
<polyline clip-path="url(#clip430)" style="stroke:#000000; stroke-linecap:round; stroke-linejoin:round; stroke-width:4; stroke-opacity:1; fill:none" points="257.69,1274.99 276.588,1274.99 "/>
<polyline clip-path="url(#clip430)" style="stroke:#000000; stroke-linecap:round; stroke-linejoin:round; stroke-width:4; stroke-opacity:1; fill:none" points="257.69,1121.43 276.588,1121.43 "/>
<polyline clip-path="url(#clip430)" style="stroke:#000000; stroke-linecap:round; stroke-linejoin:round; stroke-width:4; stroke-opacity:1; fill:none" points="257.69,967.874 276.588,967.874 "/>
<polyline clip-path="url(#clip430)" style="stroke:#000000; stroke-linecap:round; stroke-linejoin:round; stroke-width:4; stroke-opacity:1; fill:none" points="257.69,814.314 276.588,814.314 "/>
<polyline clip-path="url(#clip430)" style="stroke:#000000; stroke-linecap:round; stroke-linejoin:round; stroke-width:4; stroke-opacity:1; fill:none" points="257.69,660.754 276.588,660.754 "/>
<polyline clip-path="url(#clip430)" style="stroke:#000000; stroke-linecap:round; stroke-linejoin:round; stroke-width:4; stroke-opacity:1; fill:none" points="257.69,507.194 276.588,507.194 "/>
<polyline clip-path="url(#clip430)" style="stroke:#000000; stroke-linecap:round; stroke-linejoin:round; stroke-width:4; stroke-opacity:1; fill:none" points="257.69,353.634 276.588,353.634 "/>
<polyline clip-path="url(#clip430)" style="stroke:#000000; stroke-linecap:round; stroke-linejoin:round; stroke-width:4; stroke-opacity:1; fill:none" points="257.69,200.074 276.588,200.074 "/>
<path clip-path="url(#clip430)" d="M114.584 1275.45 L144.26 1275.45 L144.26 1279.38 L114.584 1279.38 L114.584 1275.45 Z" fill="#000000" fill-rule="evenodd" fill-opacity="1" /><path clip-path="url(#clip430)" d="M164.352 1260.79 Q160.741 1260.79 158.913 1264.36 Q157.107 1267.9 157.107 1275.03 Q157.107 1282.14 158.913 1285.7 Q160.741 1289.24 164.352 1289.24 Q167.987 1289.24 169.792 1285.7 Q171.621 1282.14 171.621 1275.03 Q171.621 1267.9 169.792 1264.36 Q167.987 1260.79 164.352 1260.79 M164.352 1257.09 Q170.163 1257.09 173.218 1261.7 Q176.297 1266.28 176.297 1275.03 Q176.297 1283.76 173.218 1288.36 Q170.163 1292.95 164.352 1292.95 Q158.542 1292.95 155.464 1288.36 Q152.408 1283.76 152.408 1275.03 Q152.408 1266.28 155.464 1261.7 Q158.542 1257.09 164.352 1257.09 Z" fill="#000000" fill-rule="evenodd" fill-opacity="1" /><path clip-path="url(#clip430)" d="M184.514 1286.39 L189.399 1286.39 L189.399 1292.27 L184.514 1292.27 L184.514 1286.39 Z" fill="#000000" fill-rule="evenodd" fill-opacity="1" /><path clip-path="url(#clip430)" d="M210.162 1273.13 Q207.014 1273.13 205.162 1275.28 Q203.334 1277.44 203.334 1281.19 Q203.334 1284.91 205.162 1287.09 Q207.014 1289.24 210.162 1289.24 Q213.311 1289.24 215.139 1287.09 Q216.991 1284.91 216.991 1281.19 Q216.991 1277.44 215.139 1275.28 Q213.311 1273.13 210.162 1273.13 M219.445 1258.48 L219.445 1262.74 Q217.686 1261.9 215.88 1261.46 Q214.098 1261.02 212.338 1261.02 Q207.709 1261.02 205.255 1264.15 Q202.824 1267.27 202.477 1273.59 Q203.843 1271.58 205.903 1270.51 Q207.963 1269.43 210.44 1269.43 Q215.649 1269.43 218.658 1272.6 Q221.69 1275.75 221.69 1281.19 Q221.69 1286.51 218.542 1289.73 Q215.394 1292.95 210.162 1292.95 Q204.167 1292.95 200.996 1288.36 Q197.825 1283.76 197.825 1275.03 Q197.825 1266.83 201.713 1261.97 Q205.602 1257.09 212.153 1257.09 Q213.912 1257.09 215.695 1257.44 Q217.5 1257.78 219.445 1258.48 Z" fill="#000000" fill-rule="evenodd" fill-opacity="1" /><path clip-path="url(#clip430)" d="M114.26 1121.89 L143.936 1121.89 L143.936 1125.82 L114.26 1125.82 L114.26 1121.89 Z" fill="#000000" fill-rule="evenodd" fill-opacity="1" /><path clip-path="url(#clip430)" d="M164.028 1107.23 Q160.417 1107.23 158.589 1110.8 Q156.783 1114.34 156.783 1121.47 Q156.783 1128.58 158.589 1132.14 Q160.417 1135.68 164.028 1135.68 Q167.663 1135.68 169.468 1132.14 Q171.297 1128.58 171.297 1121.47 Q171.297 1114.34 169.468 1110.8 Q167.663 1107.23 164.028 1107.23 M164.028 1103.53 Q169.839 1103.53 172.894 1108.14 Q175.973 1112.72 175.973 1121.47 Q175.973 1130.2 172.894 1134.8 Q169.839 1139.39 164.028 1139.39 Q158.218 1139.39 155.14 1134.8 Q152.084 1130.2 152.084 1121.47 Q152.084 1112.72 155.14 1108.14 Q158.218 1103.53 164.028 1103.53 Z" fill="#000000" fill-rule="evenodd" fill-opacity="1" /><path clip-path="url(#clip430)" d="M184.19 1132.83 L189.075 1132.83 L189.075 1138.71 L184.19 1138.71 L184.19 1132.83 Z" fill="#000000" fill-rule="evenodd" fill-opacity="1" /><path clip-path="url(#clip430)" d="M212.107 1108.23 L200.301 1126.68 L212.107 1126.68 L212.107 1108.23 M210.88 1104.15 L216.76 1104.15 L216.76 1126.68 L221.69 1126.68 L221.69 1130.57 L216.76 1130.57 L216.76 1138.71 L212.107 1138.71 L212.107 1130.57 L196.505 1130.57 L196.505 1126.05 L210.88 1104.15 Z" fill="#000000" fill-rule="evenodd" fill-opacity="1" /><path clip-path="url(#clip430)" d="M116.343 968.325 L146.019 968.325 L146.019 972.261 L116.343 972.261 L116.343 968.325 Z" fill="#000000" fill-rule="evenodd" fill-opacity="1" /><path clip-path="url(#clip430)" d="M166.112 953.673 Q162.501 953.673 160.672 957.238 Q158.866 960.779 158.866 967.909 Q158.866 975.015 160.672 978.58 Q162.501 982.122 166.112 982.122 Q169.746 982.122 171.552 978.58 Q173.38 975.015 173.38 967.909 Q173.38 960.779 171.552 957.238 Q169.746 953.673 166.112 953.673 M166.112 949.969 Q171.922 949.969 174.977 954.576 Q178.056 959.159 178.056 967.909 Q178.056 976.636 174.977 981.242 Q171.922 985.825 166.112 985.825 Q160.302 985.825 157.223 981.242 Q154.167 976.636 154.167 967.909 Q154.167 959.159 157.223 954.576 Q160.302 949.969 166.112 949.969 Z" fill="#000000" fill-rule="evenodd" fill-opacity="1" /><path clip-path="url(#clip430)" d="M186.274 979.275 L191.158 979.275 L191.158 985.154 L186.274 985.154 L186.274 979.275 Z" fill="#000000" fill-rule="evenodd" fill-opacity="1" /><path clip-path="url(#clip430)" d="M205.371 981.219 L221.69 981.219 L221.69 985.154 L199.746 985.154 L199.746 981.219 Q202.408 978.464 206.991 973.835 Q211.598 969.182 212.778 967.839 Q215.024 965.316 215.903 963.58 Q216.806 961.821 216.806 960.131 Q216.806 957.376 214.861 955.64 Q212.94 953.904 209.838 953.904 Q207.639 953.904 205.186 954.668 Q202.755 955.432 199.977 956.983 L199.977 952.261 Q202.801 951.127 205.255 950.548 Q207.709 949.969 209.746 949.969 Q215.116 949.969 218.311 952.654 Q221.505 955.339 221.505 959.83 Q221.505 961.96 220.695 963.881 Q219.908 965.779 217.801 968.372 Q217.223 969.043 214.121 972.261 Q211.019 975.455 205.371 981.219 Z" fill="#000000" fill-rule="evenodd" fill-opacity="1" /><path clip-path="url(#clip430)" d="M164.515 800.113 Q160.903 800.113 159.075 803.678 Q157.269 807.219 157.269 814.349 Q157.269 821.455 159.075 825.02 Q160.903 828.562 164.515 828.562 Q168.149 828.562 169.954 825.02 Q171.783 821.455 171.783 814.349 Q171.783 807.219 169.954 803.678 Q168.149 800.113 164.515 800.113 M164.515 796.409 Q170.325 796.409 173.38 801.016 Q176.459 805.599 176.459 814.349 Q176.459 823.076 173.38 827.682 Q170.325 832.265 164.515 832.265 Q158.704 832.265 155.626 827.682 Q152.57 823.076 152.57 814.349 Q152.57 805.599 155.626 801.016 Q158.704 796.409 164.515 796.409 Z" fill="#000000" fill-rule="evenodd" fill-opacity="1" /><path clip-path="url(#clip430)" d="M184.676 825.715 L189.561 825.715 L189.561 831.594 L184.676 831.594 L184.676 825.715 Z" fill="#000000" fill-rule="evenodd" fill-opacity="1" /><path clip-path="url(#clip430)" d="M209.746 800.113 Q206.135 800.113 204.306 803.678 Q202.5 807.219 202.5 814.349 Q202.5 821.455 204.306 825.02 Q206.135 828.562 209.746 828.562 Q213.38 828.562 215.186 825.02 Q217.014 821.455 217.014 814.349 Q217.014 807.219 215.186 803.678 Q213.38 800.113 209.746 800.113 M209.746 796.409 Q215.556 796.409 218.611 801.016 Q221.69 805.599 221.69 814.349 Q221.69 823.076 218.611 827.682 Q215.556 832.265 209.746 832.265 Q203.936 832.265 200.857 827.682 Q197.801 823.076 197.801 814.349 Q197.801 805.599 200.857 801.016 Q203.936 796.409 209.746 796.409 Z" fill="#000000" fill-rule="evenodd" fill-opacity="1" /><path clip-path="url(#clip430)" d="M166.112 646.553 Q162.501 646.553 160.672 650.118 Q158.866 653.659 158.866 660.789 Q158.866 667.895 160.672 671.46 Q162.501 675.002 166.112 675.002 Q169.746 675.002 171.552 671.46 Q173.38 667.895 173.38 660.789 Q173.38 653.659 171.552 650.118 Q169.746 646.553 166.112 646.553 M166.112 642.849 Q171.922 642.849 174.977 647.456 Q178.056 652.039 178.056 660.789 Q178.056 669.516 174.977 674.122 Q171.922 678.706 166.112 678.706 Q160.302 678.706 157.223 674.122 Q154.167 669.516 154.167 660.789 Q154.167 652.039 157.223 647.456 Q160.302 642.849 166.112 642.849 Z" fill="#000000" fill-rule="evenodd" fill-opacity="1" /><path clip-path="url(#clip430)" d="M186.274 672.155 L191.158 672.155 L191.158 678.034 L186.274 678.034 L186.274 672.155 Z" fill="#000000" fill-rule="evenodd" fill-opacity="1" /><path clip-path="url(#clip430)" d="M205.371 674.099 L221.69 674.099 L221.69 678.034 L199.746 678.034 L199.746 674.099 Q202.408 671.344 206.991 666.715 Q211.598 662.062 212.778 660.719 Q215.024 658.196 215.903 656.46 Q216.806 654.701 216.806 653.011 Q216.806 650.257 214.861 648.52 Q212.94 646.784 209.838 646.784 Q207.639 646.784 205.186 647.548 Q202.755 648.312 199.977 649.863 L199.977 645.141 Q202.801 644.007 205.255 643.428 Q207.709 642.849 209.746 642.849 Q215.116 642.849 218.311 645.534 Q221.505 648.22 221.505 652.71 Q221.505 654.84 220.695 656.761 Q219.908 658.659 217.801 661.252 Q217.223 661.923 214.121 665.141 Q211.019 668.335 205.371 674.099 Z" fill="#000000" fill-rule="evenodd" fill-opacity="1" /><path clip-path="url(#clip430)" d="M164.028 492.993 Q160.417 492.993 158.589 496.558 Q156.783 500.099 156.783 507.229 Q156.783 514.335 158.589 517.9 Q160.417 521.442 164.028 521.442 Q167.663 521.442 169.468 517.9 Q171.297 514.335 171.297 507.229 Q171.297 500.099 169.468 496.558 Q167.663 492.993 164.028 492.993 M164.028 489.289 Q169.839 489.289 172.894 493.896 Q175.973 498.479 175.973 507.229 Q175.973 515.956 172.894 520.562 Q169.839 525.146 164.028 525.146 Q158.218 525.146 155.14 520.562 Q152.084 515.956 152.084 507.229 Q152.084 498.479 155.14 493.896 Q158.218 489.289 164.028 489.289 Z" fill="#000000" fill-rule="evenodd" fill-opacity="1" /><path clip-path="url(#clip430)" d="M184.19 518.595 L189.075 518.595 L189.075 524.474 L184.19 524.474 L184.19 518.595 Z" fill="#000000" fill-rule="evenodd" fill-opacity="1" /><path clip-path="url(#clip430)" d="M212.107 493.988 L200.301 512.437 L212.107 512.437 L212.107 493.988 M210.88 489.914 L216.76 489.914 L216.76 512.437 L221.69 512.437 L221.69 516.326 L216.76 516.326 L216.76 524.474 L212.107 524.474 L212.107 516.326 L196.505 516.326 L196.505 511.812 L210.88 489.914 Z" fill="#000000" fill-rule="evenodd" fill-opacity="1" /><path clip-path="url(#clip430)" d="M164.352 339.433 Q160.741 339.433 158.913 342.998 Q157.107 346.539 157.107 353.669 Q157.107 360.775 158.913 364.34 Q160.741 367.882 164.352 367.882 Q167.987 367.882 169.792 364.34 Q171.621 360.775 171.621 353.669 Q171.621 346.539 169.792 342.998 Q167.987 339.433 164.352 339.433 M164.352 335.729 Q170.163 335.729 173.218 340.336 Q176.297 344.919 176.297 353.669 Q176.297 362.396 173.218 367.002 Q170.163 371.586 164.352 371.586 Q158.542 371.586 155.464 367.002 Q152.408 362.396 152.408 353.669 Q152.408 344.919 155.464 340.336 Q158.542 335.729 164.352 335.729 Z" fill="#000000" fill-rule="evenodd" fill-opacity="1" /><path clip-path="url(#clip430)" d="M184.514 365.035 L189.399 365.035 L189.399 370.914 L184.514 370.914 L184.514 365.035 Z" fill="#000000" fill-rule="evenodd" fill-opacity="1" /><path clip-path="url(#clip430)" d="M210.162 351.771 Q207.014 351.771 205.162 353.924 Q203.334 356.076 203.334 359.826 Q203.334 363.553 205.162 365.729 Q207.014 367.882 210.162 367.882 Q213.311 367.882 215.139 365.729 Q216.991 363.553 216.991 359.826 Q216.991 356.076 215.139 353.924 Q213.311 351.771 210.162 351.771 M219.445 337.118 L219.445 341.377 Q217.686 340.544 215.88 340.104 Q214.098 339.664 212.338 339.664 Q207.709 339.664 205.255 342.789 Q202.824 345.914 202.477 352.234 Q203.843 350.22 205.903 349.155 Q207.963 348.067 210.44 348.067 Q215.649 348.067 218.658 351.238 Q221.69 354.387 221.69 359.826 Q221.69 365.15 218.542 368.368 Q215.394 371.586 210.162 371.586 Q204.167 371.586 200.996 367.002 Q197.825 362.396 197.825 353.669 Q197.825 345.475 201.713 340.614 Q205.602 335.729 212.153 335.729 Q213.912 335.729 215.695 336.077 Q217.5 336.424 219.445 337.118 Z" fill="#000000" fill-rule="evenodd" fill-opacity="1" /><path clip-path="url(#clip430)" d="M164.607 185.873 Q160.996 185.873 159.167 189.438 Q157.362 192.979 157.362 200.109 Q157.362 207.216 159.167 210.78 Q160.996 214.322 164.607 214.322 Q168.241 214.322 170.047 210.78 Q171.876 207.216 171.876 200.109 Q171.876 192.979 170.047 189.438 Q168.241 185.873 164.607 185.873 M164.607 182.169 Q170.417 182.169 173.473 186.776 Q176.551 191.359 176.551 200.109 Q176.551 208.836 173.473 213.442 Q170.417 218.026 164.607 218.026 Q158.797 218.026 155.718 213.442 Q152.663 208.836 152.663 200.109 Q152.663 191.359 155.718 186.776 Q158.797 182.169 164.607 182.169 Z" fill="#000000" fill-rule="evenodd" fill-opacity="1" /><path clip-path="url(#clip430)" d="M184.769 211.475 L189.653 211.475 L189.653 217.354 L184.769 217.354 L184.769 211.475 Z" fill="#000000" fill-rule="evenodd" fill-opacity="1" /><path clip-path="url(#clip430)" d="M209.838 200.942 Q206.505 200.942 204.584 202.725 Q202.686 204.507 202.686 207.632 Q202.686 210.757 204.584 212.54 Q206.505 214.322 209.838 214.322 Q213.172 214.322 215.093 212.54 Q217.014 210.734 217.014 207.632 Q217.014 204.507 215.093 202.725 Q213.195 200.942 209.838 200.942 M205.162 198.952 Q202.153 198.211 200.463 196.151 Q198.797 194.091 198.797 191.128 Q198.797 186.984 201.737 184.577 Q204.699 182.169 209.838 182.169 Q215 182.169 217.94 184.577 Q220.88 186.984 220.88 191.128 Q220.88 194.091 219.19 196.151 Q217.523 198.211 214.537 198.952 Q217.917 199.739 219.792 202.03 Q221.69 204.322 221.69 207.632 Q221.69 212.655 218.611 215.34 Q215.556 218.026 209.838 218.026 Q204.121 218.026 201.042 215.34 Q197.987 212.655 197.987 207.632 Q197.987 204.322 199.885 202.03 Q201.783 199.739 205.162 198.952 M203.449 191.567 Q203.449 194.253 205.116 195.757 Q206.806 197.262 209.838 197.262 Q212.848 197.262 214.537 195.757 Q216.25 194.253 216.25 191.567 Q216.25 188.882 214.537 187.378 Q212.848 185.873 209.838 185.873 Q206.806 185.873 205.116 187.378 Q203.449 188.882 203.449 191.567 Z" fill="#000000" fill-rule="evenodd" fill-opacity="1" /><path clip-path="url(#clip430)" d="M67.3143 733.525 Q73.68 736.008 75.6216 738.363 Q77.5631 740.718 77.5631 744.665 L77.5631 749.344 L72.6615 749.344 L72.6615 745.906 Q72.6615 743.487 71.5157 742.151 Q70.3699 740.814 66.1048 739.191 L63.4312 738.14 L28.3562 752.559 L28.3562 746.352 L56.238 735.212 L28.3562 724.072 L28.3562 717.865 L67.3143 733.525 Z" fill="#000000" fill-rule="evenodd" fill-opacity="1" /><circle clip-path="url(#clip432)" cx="1460.83" cy="872.555" r="14.4" fill="#ff0000" fill-rule="evenodd" fill-opacity="1" stroke="#000000" stroke-opacity="1" stroke-width="3.2"/>
<circle clip-path="url(#clip432)" cx="2123.89" cy="796.7" r="14.4" fill="#ff0000" fill-rule="evenodd" fill-opacity="1" stroke="#000000" stroke-opacity="1" stroke-width="3.2"/>
<circle clip-path="url(#clip432)" cx="1571.94" cy="739.578" r="14.4" fill="#ff0000" fill-rule="evenodd" fill-opacity="1" stroke="#000000" stroke-opacity="1" stroke-width="3.2"/>
<circle clip-path="url(#clip432)" cx="498.265" cy="1064.19" r="14.4" fill="#ff0000" fill-rule="evenodd" fill-opacity="1" stroke="#000000" stroke-opacity="1" stroke-width="3.2"/>
<circle clip-path="url(#clip432)" cx="1766.77" cy="801.781" r="14.4" fill="#ff0000" fill-rule="evenodd" fill-opacity="1" stroke="#000000" stroke-opacity="1" stroke-width="3.2"/>
<circle clip-path="url(#clip432)" cx="1260.97" cy="915.914" r="14.4" fill="#ff0000" fill-rule="evenodd" fill-opacity="1" stroke="#000000" stroke-opacity="1" stroke-width="3.2"/>
<circle clip-path="url(#clip432)" cx="365.397" cy="86.1857" r="14.4" fill="#ff0000" fill-rule="evenodd" fill-opacity="1" stroke="#000000" stroke-opacity="1" stroke-width="3.2"/>
<circle clip-path="url(#clip432)" cx="1511.65" cy="825.852" r="14.4" fill="#ff0000" fill-rule="evenodd" fill-opacity="1" stroke="#000000" stroke-opacity="1" stroke-width="3.2"/>
<circle clip-path="url(#clip432)" cx="1491.77" cy="844.864" r="14.4" fill="#ff0000" fill-rule="evenodd" fill-opacity="1" stroke="#000000" stroke-opacity="1" stroke-width="3.2"/>
<circle clip-path="url(#clip432)" cx="930.83" cy="682.135" r="14.4" fill="#ff0000" fill-rule="evenodd" fill-opacity="1" stroke="#000000" stroke-opacity="1" stroke-width="3.2"/>
<circle clip-path="url(#clip432)" cx="1151.96" cy="650.377" r="14.4" fill="#ff0000" fill-rule="evenodd" fill-opacity="1" stroke="#000000" stroke-opacity="1" stroke-width="3.2"/>
<circle clip-path="url(#clip432)" cx="1207" cy="838.118" r="14.4" fill="#ff0000" fill-rule="evenodd" fill-opacity="1" stroke="#000000" stroke-opacity="1" stroke-width="3.2"/>
<circle clip-path="url(#clip432)" cx="555.749" cy="347.173" r="14.4" fill="#ff0000" fill-rule="evenodd" fill-opacity="1" stroke="#000000" stroke-opacity="1" stroke-width="3.2"/>
<circle clip-path="url(#clip432)" cx="422.794" cy="944.375" r="14.4" fill="#ff0000" fill-rule="evenodd" fill-opacity="1" stroke="#000000" stroke-opacity="1" stroke-width="3.2"/>
<circle clip-path="url(#clip432)" cx="2240.17" cy="842.517" r="14.4" fill="#ff0000" fill-rule="evenodd" fill-opacity="1" stroke="#000000" stroke-opacity="1" stroke-width="3.2"/>
<circle clip-path="url(#clip432)" cx="1824.07" cy="846.086" r="14.4" fill="#ff0000" fill-rule="evenodd" fill-opacity="1" stroke="#000000" stroke-opacity="1" stroke-width="3.2"/>
<circle clip-path="url(#clip432)" cx="1811.96" cy="818.671" r="14.4" fill="#ff0000" fill-rule="evenodd" fill-opacity="1" stroke="#000000" stroke-opacity="1" stroke-width="3.2"/>
<circle clip-path="url(#clip432)" cx="1327.35" cy="745.36" r="14.4" fill="#ff0000" fill-rule="evenodd" fill-opacity="1" stroke="#000000" stroke-opacity="1" stroke-width="3.2"/>
<circle clip-path="url(#clip432)" cx="1587.45" cy="793.969" r="14.4" fill="#ff0000" fill-rule="evenodd" fill-opacity="1" stroke="#000000" stroke-opacity="1" stroke-width="3.2"/>
<circle clip-path="url(#clip432)" cx="2229.25" cy="801.181" r="14.4" fill="#ff0000" fill-rule="evenodd" fill-opacity="1" stroke="#000000" stroke-opacity="1" stroke-width="3.2"/>
<circle clip-path="url(#clip432)" cx="734.242" cy="573.007" r="14.4" fill="#ff0000" fill-rule="evenodd" fill-opacity="1" stroke="#000000" stroke-opacity="1" stroke-width="3.2"/>
<circle clip-path="url(#clip432)" cx="1985.61" cy="789.292" r="14.4" fill="#ff0000" fill-rule="evenodd" fill-opacity="1" stroke="#000000" stroke-opacity="1" stroke-width="3.2"/>
<circle clip-path="url(#clip432)" cx="425.095" cy="991.496" r="14.4" fill="#ff0000" fill-rule="evenodd" fill-opacity="1" stroke="#000000" stroke-opacity="1" stroke-width="3.2"/>
<circle clip-path="url(#clip432)" cx="1781.56" cy="770.998" r="14.4" fill="#ff0000" fill-rule="evenodd" fill-opacity="1" stroke="#000000" stroke-opacity="1" stroke-width="3.2"/>
<circle clip-path="url(#clip432)" cx="1298.02" cy="820.737" r="14.4" fill="#ff0000" fill-rule="evenodd" fill-opacity="1" stroke="#000000" stroke-opacity="1" stroke-width="3.2"/>
<circle clip-path="url(#clip432)" cx="2148.43" cy="767.789" r="14.4" fill="#ff0000" fill-rule="evenodd" fill-opacity="1" stroke="#000000" stroke-opacity="1" stroke-width="3.2"/>
<circle clip-path="url(#clip432)" cx="567.778" cy="373.961" r="14.4" fill="#ff0000" fill-rule="evenodd" fill-opacity="1" stroke="#000000" stroke-opacity="1" stroke-width="3.2"/>
<circle clip-path="url(#clip432)" cx="933.665" cy="649.206" r="14.4" fill="#ff0000" fill-rule="evenodd" fill-opacity="1" stroke="#000000" stroke-opacity="1" stroke-width="3.2"/>
<circle clip-path="url(#clip432)" cx="448.2" cy="1316.1" r="14.4" fill="#ff0000" fill-rule="evenodd" fill-opacity="1" stroke="#000000" stroke-opacity="1" stroke-width="3.2"/>
<circle clip-path="url(#clip432)" cx="781.698" cy="600.32" r="14.4" fill="#ff0000" fill-rule="evenodd" fill-opacity="1" stroke="#000000" stroke-opacity="1" stroke-width="3.2"/>
<circle clip-path="url(#clip432)" cx="668.49" cy="1202.5" r="14.4" fill="#ff0000" fill-rule="evenodd" fill-opacity="1" stroke="#000000" stroke-opacity="1" stroke-width="3.2"/>
<circle clip-path="url(#clip432)" cx="733.953" cy="617.556" r="14.4" fill="#ff0000" fill-rule="evenodd" fill-opacity="1" stroke="#000000" stroke-opacity="1" stroke-width="3.2"/>
<circle clip-path="url(#clip432)" cx="1941.79" cy="774.444" r="14.4" fill="#ff0000" fill-rule="evenodd" fill-opacity="1" stroke="#000000" stroke-opacity="1" stroke-width="3.2"/>
<circle clip-path="url(#clip432)" cx="758.06" cy="513.399" r="14.4" fill="#ff0000" fill-rule="evenodd" fill-opacity="1" stroke="#000000" stroke-opacity="1" stroke-width="3.2"/>
<circle clip-path="url(#clip432)" cx="1188.24" cy="731.549" r="14.4" fill="#ff0000" fill-rule="evenodd" fill-opacity="1" stroke="#000000" stroke-opacity="1" stroke-width="3.2"/>
<circle clip-path="url(#clip432)" cx="1747.1" cy="766.865" r="14.4" fill="#ff0000" fill-rule="evenodd" fill-opacity="1" stroke="#000000" stroke-opacity="1" stroke-width="3.2"/>
<circle clip-path="url(#clip432)" cx="1882.51" cy="798.659" r="14.4" fill="#ff0000" fill-rule="evenodd" fill-opacity="1" stroke="#000000" stroke-opacity="1" stroke-width="3.2"/>
<circle clip-path="url(#clip432)" cx="653.885" cy="1212.76" r="14.4" fill="#ff0000" fill-rule="evenodd" fill-opacity="1" stroke="#000000" stroke-opacity="1" stroke-width="3.2"/>
<circle clip-path="url(#clip432)" cx="937.21" cy="680.21" r="14.4" fill="#ff0000" fill-rule="evenodd" fill-opacity="1" stroke="#000000" stroke-opacity="1" stroke-width="3.2"/>
<circle clip-path="url(#clip432)" cx="2212.68" cy="854.51" r="14.4" fill="#ff0000" fill-rule="evenodd" fill-opacity="1" stroke="#000000" stroke-opacity="1" stroke-width="3.2"/>
<circle clip-path="url(#clip432)" cx="2121.61" cy="825.169" r="14.4" fill="#ff0000" fill-rule="evenodd" fill-opacity="1" stroke="#000000" stroke-opacity="1" stroke-width="3.2"/>
<circle clip-path="url(#clip432)" cx="1500.05" cy="825.772" r="14.4" fill="#ff0000" fill-rule="evenodd" fill-opacity="1" stroke="#000000" stroke-opacity="1" stroke-width="3.2"/>
<circle clip-path="url(#clip432)" cx="1713.37" cy="781.69" r="14.4" fill="#ff0000" fill-rule="evenodd" fill-opacity="1" stroke="#000000" stroke-opacity="1" stroke-width="3.2"/>
<circle clip-path="url(#clip432)" cx="1500.5" cy="825.627" r="14.4" fill="#ff0000" fill-rule="evenodd" fill-opacity="1" stroke="#000000" stroke-opacity="1" stroke-width="3.2"/>
<circle clip-path="url(#clip432)" cx="844.76" cy="1021.04" r="14.4" fill="#ff0000" fill-rule="evenodd" fill-opacity="1" stroke="#000000" stroke-opacity="1" stroke-width="3.2"/>
<circle clip-path="url(#clip432)" cx="1213.15" cy="847.225" r="14.4" fill="#ff0000" fill-rule="evenodd" fill-opacity="1" stroke="#000000" stroke-opacity="1" stroke-width="3.2"/>
<circle clip-path="url(#clip432)" cx="842.101" cy="1043.15" r="14.4" fill="#ff0000" fill-rule="evenodd" fill-opacity="1" stroke="#000000" stroke-opacity="1" stroke-width="3.2"/>
<circle clip-path="url(#clip432)" cx="1308.56" cy="817.408" r="14.4" fill="#ff0000" fill-rule="evenodd" fill-opacity="1" stroke="#000000" stroke-opacity="1" stroke-width="3.2"/>
<circle clip-path="url(#clip432)" cx="1862.02" cy="877.354" r="14.4" fill="#ff0000" fill-rule="evenodd" fill-opacity="1" stroke="#000000" stroke-opacity="1" stroke-width="3.2"/>
<circle clip-path="url(#clip432)" cx="1526.26" cy="789.381" r="14.4" fill="#ff0000" fill-rule="evenodd" fill-opacity="1" stroke="#000000" stroke-opacity="1" stroke-width="3.2"/>
<polyline clip-path="url(#clip432)" style="stroke:#0000ff; stroke-linecap:round; stroke-linejoin:round; stroke-width:4; stroke-opacity:1; fill:none" points="316.984,814.314 320.945,718.661 324.906,626.038 328.867,537.858 332.828,455.44 336.789,379.992 340.75,312.594 344.711,254.181 348.671,205.531 352.632,167.256 356.593,139.794 360.554,123.407 364.515,118.177 368.476,124.009 372.437,140.635 376.398,167.621 380.358,204.378 384.319,250.169 388.28,304.129 392.241,365.277 396.202,432.534 400.163,504.742 404.124,580.685 408.085,659.104 412.045,738.724 416.006,818.27 419.967,896.489 423.928,972.167 427.889,1044.15 431.85,1111.37 435.811,1172.83 439.772,1227.66 443.732,1275.1 447.693,1314.52 451.654,1345.42 455.615,1367.45 459.576,1380.41 463.537,1384.24 467.498,1379.02 471.459,1364.97 475.419,1342.46 479.38,1311.98 483.341,1274.14 487.302,1229.65 491.263,1179.31 495.224,1124.02 499.185,1064.73 503.146,1002.42 507.107,938.144 511.067,872.935 515.028,807.839 518.989,743.88 522.95,682.049 526.911,623.287 530.872,568.473 534.833,518.408 538.794,473.805 542.754,435.283 546.715,403.35 550.676,378.407 554.637,360.735 558.598,350.498 562.559,347.739 566.52,352.382 570.481,364.236 574.441,383 578.402,408.267 582.363,439.537 586.324,476.22 590.285,517.652 594.246,563.103 598.207,611.794 602.168,662.904 606.128,715.589 610.089,768.993 614.05,822.263 618.011,874.56 621.972,925.075 625.933,973.04 629.894,1017.74 633.855,1058.52 637.815,1094.8 641.776,1126.08 645.737,1151.94 649.698,1172.07 653.659,1186.24 657.62,1194.31 661.581,1196.27 665.542,1192.17 669.502,1182.17 673.463,1166.53 677.424,1145.59 681.385,1119.76 685.346,1089.51 689.307,1055.41 693.268,1018.05 697.229,978.073 701.189,936.147 705.15,892.965 709.111,849.231 713.072,805.641 717.033,762.881 720.994,721.613 724.955,682.462 728.916,646.014 732.876,612.8 736.837,583.292 740.798,557.897 744.759,536.95 748.72,520.711 752.681,509.36 756.642,502.999 760.603,501.649 764.563,505.251 768.524,513.671 772.485,526.698 776.446,544.054 780.407,565.396 784.368,590.325 788.329,618.389 792.29,649.097 796.25,681.923 800.211,716.314 804.172,751.704 808.133,787.519 812.094,823.186 816.055,858.147 820.016,891.86 823.977,923.814 827.937,953.532 831.898,980.583 835.859,1004.58 839.82,1025.2 843.781,1042.16 847.742,1055.26 851.703,1064.35 855.664,1069.35 859.624,1070.25 863.585,1067.1 867.546,1060.01 871.507,1049.17 875.468,1034.79 879.429,1017.16 883.39,996.61 887.351,973.515 891.311,948.276 895.272,921.326 899.233,893.116 903.194,864.113 907.155,834.786 911.116,805.602 915.077,777.019 919.038,749.48 922.998,723.4 926.959,699.17 930.92,677.141 934.881,657.625 938.842,640.891 942.803,627.159 946.764,616.596 950.725,609.319 954.685,605.392 958.646,604.821 962.607,607.564 966.568,613.524 970.529,622.556 974.49,634.468 978.451,649.027 982.412,665.961 986.373,684.966 990.333,705.709 994.294,727.834 998.255,750.971 1002.22,774.74 1006.18,798.754 1010.14,822.632 1014.1,845.999 1018.06,868.495 1022.02,889.778 1025.98,909.533 1029.94,927.472 1033.9,943.341 1037.86,956.923 1041.82,968.039 1045.79,976.555 1049.75,982.376 1053.71,985.454 1057.67,985.784 1061.63,983.405 1065.59,978.396 1069.55,970.88 1073.51,961.014 1077.47,948.991 1081.43,935.035 1085.39,919.398 1089.36,902.352 1093.32,884.188 1097.28,865.212 1101.24,845.734 1105.2,826.071 1109.16,806.535 1113.12,787.432 1117.08,769.058 1121.04,751.689 1125,735.584 1128.96,720.977 1132.92,708.074 1136.89,697.052 1140.85,688.055 1144.81,681.192 1148.77,676.537 1152.73,674.13 1156.69,673.972 1160.65,676.029 1164.61,680.235 1168.57,686.488 1172.53,694.658 1176.49,704.586 1180.46,716.085 1184.42,728.951 1188.38,742.959 1192.34,757.869 1196.3,773.433 1200.26,789.393 1204.22,805.493 1208.18,821.476 1212.14,837.091 1216.1,852.1 1220.06,866.273 1224.03,879.402 1227.99,891.295 1231.95,901.785 1235.91,910.729 1239.87,918.01 1243.83,923.539 1247.79,927.259 1251.75,929.137 1255.71,929.175 1259.67,927.401 1263.63,923.872 1267.59,918.671 1271.56,911.907 1275.52,903.711 1279.48,894.236 1283.44,883.65 1287.4,872.14 1291.36,859.901 1295.32,847.138 1299.28,834.06 1303.24,820.878 1307.2,807.803 1311.16,795.038 1315.13,782.78 1319.09,771.215 1323.05,760.513 1327.01,750.83 1330.97,742.302 1334.93,735.045 1338.89,729.155 1342.85,724.7 1346.81,721.73 1350.77,720.268 1354.73,720.311 1358.69,721.837 1362.66,724.797 1366.62,729.122 1370.58,734.721 1374.54,741.486 1378.5,749.293 1382.46,758.001 1386.42,767.458 1390.38,777.504 1394.34,787.971 1398.3,798.687 1402.26,809.479 1406.23,820.175 1410.19,830.609 1414.15,840.62 1418.11,850.057 1422.07,858.78 1426.03,866.663 1429.99,873.595 1433.95,879.482 1437.91,884.248 1441.87,887.834 1445.83,890.205 1449.79,891.34 1453.76,891.243 1457.72,889.934 1461.68,887.454 1465.64,883.859 1469.6,879.225 1473.56,873.64 1477.52,867.209 1481.48,860.046 1485.44,852.276 1489.4,844.03 1493.36,835.447 1497.33,826.667 1501.29,817.832 1505.25,809.082 1509.21,800.554 1513.17,792.378 1517.13,784.679 1521.09,777.569 1525.05,771.151 1529.01,765.517 1532.97,760.742 1536.93,756.887 1540.9,754 1544.86,752.11 1548.82,751.231 1552.78,751.36 1556.74,752.481 1560.7,754.559 1564.66,757.546 1568.62,761.381 1572.58,765.99 1576.54,771.287 1580.5,777.179 1584.46,783.563 1588.43,790.331 1592.39,797.369 1596.35,804.562 1600.31,811.795 1604.27,818.952 1608.23,825.923 1612.19,832.599 1616.15,838.881 1620.11,844.676 1624.07,849.899 1628.03,854.479 1632,858.352 1635.96,861.468 1639.92,863.792 1643.88,865.299 1647.84,865.977 1651.8,865.83 1655.76,864.872 1659.72,863.133 1663.68,860.651 1667.64,857.478 1671.6,853.675 1675.56,849.311 1679.53,844.465 1683.49,839.221 1687.45,833.667 1691.41,827.896 1695.37,822.002 1699.33,816.082 1703.29,810.227 1707.25,804.53 1711.21,799.078 1715.17,793.953 1719.13,789.231 1723.1,784.979 1727.06,781.258 1731.02,778.117 1734.98,775.597 1738.94,773.727 1742.9,772.528 1746.86,772.006 1750.82,772.16 1754.78,772.977 1758.74,774.432 1762.7,776.493 1766.67,779.118 1770.63,782.257 1774.59,785.851 1778.55,789.836 1782.51,794.145 1786.47,798.702 1790.43,803.434 1794.39,808.262 1798.35,813.109 1802.31,817.897 1806.27,822.553 1810.23,827.005 1814.2,831.186 1818.16,835.034 1822.12,838.495 1826.08,841.519 1830.04,844.066 1834,846.103 1837.96,847.606 1841.92,848.561 1845.88,848.96 1849.84,848.806 1853.8,848.111 1857.77,846.894 1861.73,845.182 1865.69,843.011 1869.65,840.422 1873.61,837.462 1877.57,834.184 1881.53,830.645 1885.49,826.905 1889.45,823.026 1893.41,819.071 1897.37,815.104 1901.33,811.187 1905.3,807.382 1909.26,803.747 1913.22,800.336 1917.18,797.2 1921.14,794.384 1925.1,791.927 1929.06,789.862 1933.02,788.216 1936.98,787.007 1940.94,786.248 1944.9,785.944 1948.87,786.093 1952.83,786.684 1956.79,787.701 1960.75,789.122 1964.71,790.917 1968.67,793.053 1972.63,795.491 1976.59,798.186 1980.55,801.093 1984.51,804.162 1988.47,807.343 1992.44,810.582 1996.4,813.83 2000.36,817.033 2004.32,820.142 2008.28,823.11 2012.24,825.892 2016.2,828.448 2020.16,830.739 2024.12,832.735 2028.08,834.409 2032.04,835.74 2036,836.711 2039.97,837.314 2043.93,837.544 2047.89,837.404 2051.85,836.903 2055.81,836.053 2059.77,834.874 2063.73,833.389 2067.69,831.627 2071.65,829.62 2075.61,827.404 2079.57,825.016 2083.54,822.498 2087.5,819.89 2091.46,817.236 2095.42,814.579 2099.38,811.959 2103.34,809.418 2107.3,806.995 2111.26,804.726 2115.22,802.644 2119.18,800.779 2123.14,799.157 2127.1,797.8 2131.07,796.726 2135.03,795.945 2138.99,795.467 2142.95,795.294 2146.91,795.423 2150.87,795.848 2154.83,796.558 2158.79,797.537 2162.75,798.764 2166.71,800.217 2170.67,801.87 2174.64,803.692 2178.6,805.653 2182.56,807.719 2186.52,809.857 2190.48,812.031 2194.44,814.206 2198.4,816.348 2202.36,818.425 2206.32,820.403 2210.28,822.254 2214.24,823.95 2218.2,825.467 2222.17,826.784 2226.13,827.884 2230.09,828.752 2234.05,829.379 2238.01,829.758 2241.97,829.887 2245.93,829.769 2249.89,829.409 2253.85,828.817 2257.81,828.005 2261.77,826.99 2265.74,825.792 2269.7,824.431 2273.66,822.933 2277.62,821.323 2281.58,819.627 2285.54,817.875 2289.5,816.094 2293.46,814.314 "/>
<path clip-path="url(#clip430)" d="M1772.7 248.629 L2282.92 248.629 L2282.92 93.1086 L1772.7 93.1086  Z" fill="#ffffff" fill-rule="evenodd" fill-opacity="1"/>
<polyline clip-path="url(#clip430)" style="stroke:#000000; stroke-linecap:round; stroke-linejoin:round; stroke-width:4; stroke-opacity:1; fill:none" points="1772.7,248.629 2282.92,248.629 2282.92,93.1086 1772.7,93.1086 1772.7,248.629 "/>
<circle clip-path="url(#clip430)" cx="1865.81" cy="144.949" r="23.04" fill="#ff0000" fill-rule="evenodd" fill-opacity="1" stroke="#000000" stroke-opacity="1" stroke-width="5.12"/>
<path clip-path="url(#clip430)" d="M1980.64 146.581 L1980.64 162.229 L1976.38 162.229 L1976.38 146.719 Q1976.38 143.039 1974.94 141.21 Q1973.51 139.382 1970.64 139.382 Q1967.19 139.382 1965.2 141.581 Q1963.21 143.78 1963.21 147.576 L1963.21 162.229 L1958.93 162.229 L1958.93 136.303 L1963.21 136.303 L1963.21 140.331 Q1964.74 137.993 1966.8 136.835 Q1968.88 135.678 1971.59 135.678 Q1976.06 135.678 1978.35 138.456 Q1980.64 141.21 1980.64 146.581 Z" fill="#000000" fill-rule="evenodd" fill-opacity="1" /><path clip-path="url(#clip430)" d="M1999.18 139.289 Q1995.75 139.289 1993.76 141.974 Q1991.77 144.636 1991.77 149.289 Q1991.77 153.942 1993.74 156.627 Q1995.73 159.289 1999.18 159.289 Q2002.58 159.289 2004.57 156.604 Q2006.56 153.918 2006.56 149.289 Q2006.56 144.682 2004.57 141.997 Q2002.58 139.289 1999.18 139.289 M1999.18 135.678 Q2004.74 135.678 2007.91 139.289 Q2011.08 142.9 2011.08 149.289 Q2011.08 155.655 2007.91 159.289 Q2004.74 162.9 1999.18 162.9 Q1993.6 162.9 1990.43 159.289 Q1987.28 155.655 1987.28 149.289 Q1987.28 142.9 1990.43 139.289 Q1993.6 135.678 1999.18 135.678 Z" fill="#000000" fill-rule="evenodd" fill-opacity="1" /><path clip-path="url(#clip430)" d="M2018.14 136.303 L2022.4 136.303 L2022.4 162.229 L2018.14 162.229 L2018.14 136.303 M2018.14 126.21 L2022.4 126.21 L2022.4 131.604 L2018.14 131.604 L2018.14 126.21 Z" fill="#000000" fill-rule="evenodd" fill-opacity="1" /><path clip-path="url(#clip430)" d="M2047.84 137.067 L2047.84 141.094 Q2046.03 140.169 2044.09 139.706 Q2042.14 139.243 2040.06 139.243 Q2036.89 139.243 2035.29 140.215 Q2033.72 141.187 2033.72 143.131 Q2033.72 144.613 2034.85 145.469 Q2035.99 146.303 2039.41 147.067 L2040.87 147.391 Q2045.41 148.363 2047.31 150.145 Q2049.23 151.905 2049.23 155.076 Q2049.23 158.687 2046.36 160.793 Q2043.51 162.9 2038.51 162.9 Q2036.43 162.9 2034.16 162.483 Q2031.91 162.09 2029.41 161.28 L2029.41 156.881 Q2031.77 158.108 2034.06 158.733 Q2036.36 159.335 2038.6 159.335 Q2041.61 159.335 2043.23 158.317 Q2044.85 157.275 2044.85 155.4 Q2044.85 153.664 2043.67 152.738 Q2042.51 151.812 2038.56 150.956 L2037.07 150.608 Q2033.12 149.775 2031.36 148.062 Q2029.6 146.326 2029.6 143.317 Q2029.6 139.659 2032.19 137.669 Q2034.78 135.678 2039.55 135.678 Q2041.91 135.678 2043.99 136.025 Q2046.08 136.372 2047.84 137.067 Z" fill="#000000" fill-rule="evenodd" fill-opacity="1" /><path clip-path="url(#clip430)" d="M2066.8 164.636 Q2064.99 169.266 2063.28 170.678 Q2061.56 172.09 2058.69 172.09 L2055.29 172.09 L2055.29 168.525 L2057.79 168.525 Q2059.55 168.525 2060.52 167.692 Q2061.49 166.858 2062.68 163.756 L2063.44 161.812 L2052.95 136.303 L2057.47 136.303 L2065.57 156.581 L2073.67 136.303 L2078.18 136.303 L2066.8 164.636 Z" fill="#000000" fill-rule="evenodd" fill-opacity="1" /><path clip-path="url(#clip430)" d="M2116.19 140.238 L2116.19 126.21 L2120.45 126.21 L2120.45 162.229 L2116.19 162.229 L2116.19 158.34 Q2114.85 160.655 2112.79 161.789 Q2110.75 162.9 2107.88 162.9 Q2103.18 162.9 2100.22 159.15 Q2097.28 155.4 2097.28 149.289 Q2097.28 143.178 2100.22 139.428 Q2103.18 135.678 2107.88 135.678 Q2110.75 135.678 2112.79 136.812 Q2114.85 137.923 2116.19 140.238 M2101.68 149.289 Q2101.68 153.988 2103.6 156.673 Q2105.55 159.335 2108.93 159.335 Q2112.3 159.335 2114.25 156.673 Q2116.19 153.988 2116.19 149.289 Q2116.19 144.59 2114.25 141.928 Q2112.3 139.243 2108.93 139.243 Q2105.55 139.243 2103.6 141.928 Q2101.68 144.59 2101.68 149.289 Z" fill="#000000" fill-rule="evenodd" fill-opacity="1" /><path clip-path="url(#clip430)" d="M2141.01 149.196 Q2135.85 149.196 2133.86 150.377 Q2131.86 151.557 2131.86 154.405 Q2131.86 156.673 2133.35 158.016 Q2134.85 159.335 2137.42 159.335 Q2140.96 159.335 2143.09 156.835 Q2145.24 154.312 2145.24 150.145 L2145.24 149.196 L2141.01 149.196 M2149.5 147.437 L2149.5 162.229 L2145.24 162.229 L2145.24 158.293 Q2143.79 160.655 2141.61 161.789 Q2139.43 162.9 2136.29 162.9 Q2132.3 162.9 2129.94 160.678 Q2127.61 158.432 2127.61 154.682 Q2127.61 150.307 2130.52 148.085 Q2133.46 145.863 2139.27 145.863 L2145.24 145.863 L2145.24 145.446 Q2145.24 142.507 2143.3 140.909 Q2141.38 139.289 2137.88 139.289 Q2135.66 139.289 2133.55 139.821 Q2131.45 140.354 2129.5 141.419 L2129.5 137.483 Q2131.84 136.581 2134.04 136.141 Q2136.24 135.678 2138.32 135.678 Q2143.95 135.678 2146.73 138.594 Q2149.5 141.511 2149.5 147.437 Z" fill="#000000" fill-rule="evenodd" fill-opacity="1" /><path clip-path="url(#clip430)" d="M2162.49 128.942 L2162.49 136.303 L2171.26 136.303 L2171.26 139.613 L2162.49 139.613 L2162.49 153.687 Q2162.49 156.858 2163.35 157.761 Q2164.23 158.664 2166.89 158.664 L2171.26 158.664 L2171.26 162.229 L2166.89 162.229 Q2161.96 162.229 2160.08 160.4 Q2158.21 158.548 2158.21 153.687 L2158.21 139.613 L2155.08 139.613 L2155.08 136.303 L2158.21 136.303 L2158.21 128.942 L2162.49 128.942 Z" fill="#000000" fill-rule="evenodd" fill-opacity="1" /><path clip-path="url(#clip430)" d="M2188.65 149.196 Q2183.48 149.196 2181.49 150.377 Q2179.5 151.557 2179.5 154.405 Q2179.5 156.673 2180.98 158.016 Q2182.49 159.335 2185.06 159.335 Q2188.6 159.335 2190.73 156.835 Q2192.88 154.312 2192.88 150.145 L2192.88 149.196 L2188.65 149.196 M2197.14 147.437 L2197.14 162.229 L2192.88 162.229 L2192.88 158.293 Q2191.42 160.655 2189.25 161.789 Q2187.07 162.9 2183.92 162.9 Q2179.94 162.9 2177.58 160.678 Q2175.24 158.432 2175.24 154.682 Q2175.24 150.307 2178.16 148.085 Q2181.1 145.863 2186.91 145.863 L2192.88 145.863 L2192.88 145.446 Q2192.88 142.507 2190.94 140.909 Q2189.02 139.289 2185.52 139.289 Q2183.3 139.289 2181.19 139.821 Q2179.09 140.354 2177.14 141.419 L2177.14 137.483 Q2179.48 136.581 2181.68 136.141 Q2183.88 135.678 2185.96 135.678 Q2191.59 135.678 2194.36 138.594 Q2197.14 141.511 2197.14 147.437 Z" fill="#000000" fill-rule="evenodd" fill-opacity="1" /><polyline clip-path="url(#clip430)" style="stroke:#0000ff; stroke-linecap:round; stroke-linejoin:round; stroke-width:4; stroke-opacity:1; fill:none" points="1795.98,196.789 1935.65,196.789 "/>
<path clip-path="url(#clip430)" d="M1966.33 180.782 L1966.33 188.143 L1975.11 188.143 L1975.11 191.453 L1966.33 191.453 L1966.33 205.527 Q1966.33 208.698 1967.19 209.601 Q1968.07 210.504 1970.73 210.504 L1975.11 210.504 L1975.11 214.069 L1970.73 214.069 Q1965.8 214.069 1963.93 212.24 Q1962.05 210.388 1962.05 205.527 L1962.05 191.453 L1958.93 191.453 L1958.93 188.143 L1962.05 188.143 L1962.05 180.782 L1966.33 180.782 Z" fill="#000000" fill-rule="evenodd" fill-opacity="1" /><path clip-path="url(#clip430)" d="M1995.73 192.124 Q1995.01 191.708 1994.16 191.522 Q1993.32 191.314 1992.31 191.314 Q1988.69 191.314 1986.75 193.675 Q1984.83 196.013 1984.83 200.411 L1984.83 214.069 L1980.55 214.069 L1980.55 188.143 L1984.83 188.143 L1984.83 192.171 Q1986.17 189.809 1988.32 188.675 Q1990.48 187.518 1993.56 187.518 Q1994 187.518 1994.53 187.587 Q1995.06 187.634 1995.71 187.749 L1995.73 192.124 Z" fill="#000000" fill-rule="evenodd" fill-opacity="1" /><path clip-path="url(#clip430)" d="M1999.76 203.837 L1999.76 188.143 L2004.02 188.143 L2004.02 203.675 Q2004.02 207.356 2005.45 209.208 Q2006.89 211.036 2009.76 211.036 Q2013.21 211.036 2015.2 208.837 Q2017.21 206.638 2017.21 202.842 L2017.21 188.143 L2021.47 188.143 L2021.47 214.069 L2017.21 214.069 L2017.21 210.087 Q2015.66 212.448 2013.6 213.606 Q2011.56 214.74 2008.86 214.74 Q2004.39 214.74 2002.07 211.962 Q1999.76 209.184 1999.76 203.837 M2010.48 187.518 L2010.48 187.518 Z" fill="#000000" fill-rule="evenodd" fill-opacity="1" /><path clip-path="url(#clip430)" d="M2052.42 200.041 L2052.42 202.124 L2032.84 202.124 Q2033.12 206.522 2035.48 208.837 Q2037.86 211.129 2042.1 211.129 Q2044.55 211.129 2046.84 210.527 Q2049.16 209.925 2051.43 208.721 L2051.43 212.749 Q2049.13 213.721 2046.73 214.231 Q2044.32 214.74 2041.84 214.74 Q2035.64 214.74 2032 211.129 Q2028.39 207.518 2028.39 201.36 Q2028.39 194.995 2031.82 191.268 Q2035.27 187.518 2041.1 187.518 Q2046.33 187.518 2049.37 190.897 Q2052.42 194.254 2052.42 200.041 M2048.16 198.791 Q2048.12 195.296 2046.19 193.212 Q2044.3 191.129 2041.15 191.129 Q2037.58 191.129 2035.43 193.143 Q2033.3 195.157 2032.98 198.814 L2048.16 198.791 Z" fill="#000000" fill-rule="evenodd" fill-opacity="1" /><path clip-path="url(#clip430)" d="M2087.61 178.05 L2087.61 181.592 L2083.53 181.592 Q2081.24 181.592 2080.34 182.518 Q2079.46 183.444 2079.46 185.851 L2079.46 188.143 L2086.47 188.143 L2086.47 191.453 L2079.46 191.453 L2079.46 214.069 L2075.18 214.069 L2075.18 191.453 L2071.1 191.453 L2071.1 188.143 L2075.18 188.143 L2075.18 186.337 Q2075.18 182.009 2077.19 180.041 Q2079.2 178.05 2083.58 178.05 L2087.61 178.05 Z" fill="#000000" fill-rule="evenodd" fill-opacity="1" /><path clip-path="url(#clip430)" d="M2090.73 203.837 L2090.73 188.143 L2094.99 188.143 L2094.99 203.675 Q2094.99 207.356 2096.43 209.208 Q2097.86 211.036 2100.73 211.036 Q2104.18 211.036 2106.17 208.837 Q2108.18 206.638 2108.18 202.842 L2108.18 188.143 L2112.44 188.143 L2112.44 214.069 L2108.18 214.069 L2108.18 210.087 Q2106.63 212.448 2104.57 213.606 Q2102.54 214.74 2099.83 214.74 Q2095.36 214.74 2093.05 211.962 Q2090.73 209.184 2090.73 203.837 M2101.45 187.518 L2101.45 187.518 Z" fill="#000000" fill-rule="evenodd" fill-opacity="1" /><path clip-path="url(#clip430)" d="M2142.77 198.421 L2142.77 214.069 L2138.51 214.069 L2138.51 198.559 Q2138.51 194.879 2137.07 193.05 Q2135.64 191.222 2132.77 191.222 Q2129.32 191.222 2127.33 193.421 Q2125.34 195.62 2125.34 199.416 L2125.34 214.069 L2121.05 214.069 L2121.05 188.143 L2125.34 188.143 L2125.34 192.171 Q2126.86 189.833 2128.92 188.675 Q2131.01 187.518 2133.72 187.518 Q2138.18 187.518 2140.48 190.296 Q2142.77 193.05 2142.77 198.421 Z" fill="#000000" fill-rule="evenodd" fill-opacity="1" /><path clip-path="url(#clip430)" d="M2169.92 189.138 L2169.92 193.12 Q2168.11 192.124 2166.29 191.638 Q2164.48 191.129 2162.63 191.129 Q2158.49 191.129 2156.19 193.768 Q2153.9 196.384 2153.9 201.129 Q2153.9 205.874 2156.19 208.513 Q2158.49 211.129 2162.63 211.129 Q2164.48 211.129 2166.29 210.643 Q2168.11 210.133 2169.92 209.138 L2169.92 213.073 Q2168.14 213.907 2166.22 214.323 Q2164.32 214.74 2162.17 214.74 Q2156.31 214.74 2152.86 211.059 Q2149.41 207.379 2149.41 201.129 Q2149.41 194.786 2152.88 191.152 Q2156.38 187.518 2162.44 187.518 Q2164.41 187.518 2166.29 187.935 Q2168.16 188.328 2169.92 189.138 Z" fill="#000000" fill-rule="evenodd" fill-opacity="1" /><path clip-path="url(#clip430)" d="M2181.54 180.782 L2181.54 188.143 L2190.31 188.143 L2190.31 191.453 L2181.54 191.453 L2181.54 205.527 Q2181.54 208.698 2182.4 209.601 Q2183.28 210.504 2185.94 210.504 L2190.31 210.504 L2190.31 214.069 L2185.94 214.069 Q2181.01 214.069 2179.13 212.24 Q2177.26 210.388 2177.26 205.527 L2177.26 191.453 L2174.13 191.453 L2174.13 188.143 L2177.26 188.143 L2177.26 180.782 L2181.54 180.782 Z" fill="#000000" fill-rule="evenodd" fill-opacity="1" /><path clip-path="url(#clip430)" d="M2195.92 188.143 L2200.17 188.143 L2200.17 214.069 L2195.92 214.069 L2195.92 188.143 M2195.92 178.05 L2200.17 178.05 L2200.17 183.444 L2195.92 183.444 L2195.92 178.05 Z" fill="#000000" fill-rule="evenodd" fill-opacity="1" /><path clip-path="url(#clip430)" d="M2219.13 191.129 Q2215.71 191.129 2213.72 193.814 Q2211.73 196.476 2211.73 201.129 Q2211.73 205.782 2213.69 208.467 Q2215.68 211.129 2219.13 211.129 Q2222.54 211.129 2224.53 208.444 Q2226.52 205.758 2226.52 201.129 Q2226.52 196.522 2224.53 193.837 Q2222.54 191.129 2219.13 191.129 M2219.13 187.518 Q2224.69 187.518 2227.86 191.129 Q2231.03 194.74 2231.03 201.129 Q2231.03 207.495 2227.86 211.129 Q2224.69 214.74 2219.13 214.74 Q2213.55 214.74 2210.38 211.129 Q2207.23 207.495 2207.23 201.129 Q2207.23 194.74 2210.38 191.129 Q2213.55 187.518 2219.13 187.518 Z" fill="#000000" fill-rule="evenodd" fill-opacity="1" /><path clip-path="url(#clip430)" d="M2259.64 198.421 L2259.64 214.069 L2255.38 214.069 L2255.38 198.559 Q2255.38 194.879 2253.95 193.05 Q2252.51 191.222 2249.64 191.222 Q2246.19 191.222 2244.2 193.421 Q2242.21 195.62 2242.21 199.416 L2242.21 214.069 L2237.93 214.069 L2237.93 188.143 L2242.21 188.143 L2242.21 192.171 Q2243.74 189.833 2245.8 188.675 Q2247.88 187.518 2250.59 187.518 Q2255.06 187.518 2257.35 190.296 Q2259.64 193.05 2259.64 198.421 Z" fill="#000000" fill-rule="evenodd" fill-opacity="1" /></svg>
