<?xml version="1.0" encoding="utf-8"?>
<svg xmlns="http://www.w3.org/2000/svg" xmlns:xlink="http://www.w3.org/1999/xlink" width="600" height="400" viewBox="0 0 2400 1600">
<defs>
  <clipPath id="clip350">
    <rect x="0" y="0" width="2400" height="1600"/>
  </clipPath>
</defs>
<path clip-path="url(#clip350)" d="M0 1600 L2400 1600 L2400 0 L0 0  Z" fill="#ffffff" fill-rule="evenodd" fill-opacity="1"/>
<defs>
  <clipPath id="clip351">
    <rect x="480" y="0" width="1681" height="1600"/>
  </clipPath>
</defs>
<path clip-path="url(#clip350)" d="M255.977 1423.18 L2352.76 1423.18 L2352.76 123.472 L255.977 123.472  Z" fill="#ffffff" fill-rule="evenodd" fill-opacity="1"/>
<defs>
  <clipPath id="clip352">
    <rect x="255" y="123" width="2098" height="1301"/>
  </clipPath>
</defs>
<polyline clip-path="url(#clip352)" style="stroke:#000000; stroke-linecap:round; stroke-linejoin:round; stroke-width:2; stroke-opacity:0.1; fill:none" points="309.213,1423.18 309.213,123.472 "/>
<polyline clip-path="url(#clip352)" style="stroke:#000000; stroke-linecap:round; stroke-linejoin:round; stroke-width:2; stroke-opacity:0.1; fill:none" points="810.382,1423.18 810.382,123.472 "/>
<polyline clip-path="url(#clip352)" style="stroke:#000000; stroke-linecap:round; stroke-linejoin:round; stroke-width:2; stroke-opacity:0.1; fill:none" points="1311.55,1423.18 1311.55,123.472 "/>
<polyline clip-path="url(#clip352)" style="stroke:#000000; stroke-linecap:round; stroke-linejoin:round; stroke-width:2; stroke-opacity:0.1; fill:none" points="1812.72,1423.18 1812.72,123.472 "/>
<polyline clip-path="url(#clip352)" style="stroke:#000000; stroke-linecap:round; stroke-linejoin:round; stroke-width:2; stroke-opacity:0.1; fill:none" points="2313.89,1423.18 2313.89,123.472 "/>
<polyline clip-path="url(#clip350)" style="stroke:#000000; stroke-linecap:round; stroke-linejoin:round; stroke-width:4; stroke-opacity:1; fill:none" points="255.977,1423.18 2352.76,1423.18 "/>
<polyline clip-path="url(#clip350)" style="stroke:#000000; stroke-linecap:round; stroke-linejoin:round; stroke-width:4; stroke-opacity:1; fill:none" points="309.213,1423.18 309.213,1404.28 "/>
<polyline clip-path="url(#clip350)" style="stroke:#000000; stroke-linecap:round; stroke-linejoin:round; stroke-width:4; stroke-opacity:1; fill:none" points="810.382,1423.18 810.382,1404.28 "/>
<polyline clip-path="url(#clip350)" style="stroke:#000000; stroke-linecap:round; stroke-linejoin:round; stroke-width:4; stroke-opacity:1; fill:none" points="1311.55,1423.18 1311.55,1404.28 "/>
<polyline clip-path="url(#clip350)" style="stroke:#000000; stroke-linecap:round; stroke-linejoin:round; stroke-width:4; stroke-opacity:1; fill:none" points="1812.72,1423.18 1812.72,1404.28 "/>
<polyline clip-path="url(#clip350)" style="stroke:#000000; stroke-linecap:round; stroke-linejoin:round; stroke-width:4; stroke-opacity:1; fill:none" points="2313.89,1423.18 2313.89,1404.28 "/>
<path clip-path="url(#clip350)" d="M271.516 1454.1 Q267.905 1454.1 266.077 1457.66 Q264.271 1461.2 264.271 1468.33 Q264.271 1475.44 266.077 1479.01 Q267.905 1482.55 271.516 1482.55 Q275.151 1482.55 276.956 1479.01 Q278.785 1475.44 278.785 1468.33 Q278.785 1461.2 276.956 1457.66 Q275.151 1454.1 271.516 1454.1 M271.516 1450.39 Q277.327 1450.39 280.382 1455 Q283.461 1459.58 283.461 1468.33 Q283.461 1477.06 280.382 1481.67 Q277.327 1486.25 271.516 1486.25 Q265.706 1486.25 262.628 1481.67 Q259.572 1477.06 259.572 1468.33 Q259.572 1459.58 262.628 1455 Q265.706 1450.39 271.516 1450.39 Z" fill="#000000" fill-rule="evenodd" fill-opacity="1" /><path clip-path="url(#clip350)" d="M291.678 1479.7 L296.563 1479.7 L296.563 1485.58 L291.678 1485.58 L291.678 1479.7 Z" fill="#000000" fill-rule="evenodd" fill-opacity="1" /><path clip-path="url(#clip350)" d="M316.748 1454.1 Q313.137 1454.1 311.308 1457.66 Q309.502 1461.2 309.502 1468.33 Q309.502 1475.44 311.308 1479.01 Q313.137 1482.55 316.748 1482.55 Q320.382 1482.55 322.187 1479.01 Q324.016 1475.44 324.016 1468.33 Q324.016 1461.2 322.187 1457.66 Q320.382 1454.1 316.748 1454.1 M316.748 1450.39 Q322.558 1450.39 325.613 1455 Q328.692 1459.58 328.692 1468.33 Q328.692 1477.06 325.613 1481.67 Q322.558 1486.25 316.748 1486.25 Q310.937 1486.25 307.859 1481.67 Q304.803 1477.06 304.803 1468.33 Q304.803 1459.58 307.859 1455 Q310.937 1450.39 316.748 1450.39 Z" fill="#000000" fill-rule="evenodd" fill-opacity="1" /><path clip-path="url(#clip350)" d="M346.909 1454.1 Q343.298 1454.1 341.47 1457.66 Q339.664 1461.2 339.664 1468.33 Q339.664 1475.44 341.47 1479.01 Q343.298 1482.55 346.909 1482.55 Q350.544 1482.55 352.349 1479.01 Q354.178 1475.44 354.178 1468.33 Q354.178 1461.2 352.349 1457.66 Q350.544 1454.1 346.909 1454.1 M346.909 1450.39 Q352.72 1450.39 355.775 1455 Q358.854 1459.58 358.854 1468.33 Q358.854 1477.06 355.775 1481.67 Q352.72 1486.25 346.909 1486.25 Q341.099 1486.25 338.021 1481.67 Q334.965 1477.06 334.965 1468.33 Q334.965 1459.58 338.021 1455 Q341.099 1450.39 346.909 1450.39 Z" fill="#000000" fill-rule="evenodd" fill-opacity="1" /><path clip-path="url(#clip350)" d="M773.183 1454.1 Q769.572 1454.1 767.743 1457.66 Q765.938 1461.2 765.938 1468.33 Q765.938 1475.44 767.743 1479.01 Q769.572 1482.55 773.183 1482.55 Q776.818 1482.55 778.623 1479.01 Q780.452 1475.44 780.452 1468.33 Q780.452 1461.2 778.623 1457.66 Q776.818 1454.1 773.183 1454.1 M773.183 1450.39 Q778.993 1450.39 782.049 1455 Q785.128 1459.58 785.128 1468.33 Q785.128 1477.06 782.049 1481.67 Q778.993 1486.25 773.183 1486.25 Q767.373 1486.25 764.294 1481.67 Q761.239 1477.06 761.239 1468.33 Q761.239 1459.58 764.294 1455 Q767.373 1450.39 773.183 1450.39 Z" fill="#000000" fill-rule="evenodd" fill-opacity="1" /><path clip-path="url(#clip350)" d="M793.345 1479.7 L798.229 1479.7 L798.229 1485.58 L793.345 1485.58 L793.345 1479.7 Z" fill="#000000" fill-rule="evenodd" fill-opacity="1" /><path clip-path="url(#clip350)" d="M812.442 1481.64 L828.762 1481.64 L828.762 1485.58 L806.817 1485.58 L806.817 1481.64 Q809.479 1478.89 814.063 1474.26 Q818.669 1469.61 819.85 1468.27 Q822.095 1465.74 822.975 1464.01 Q823.877 1462.25 823.877 1460.56 Q823.877 1457.8 821.933 1456.07 Q820.012 1454.33 816.91 1454.33 Q814.711 1454.33 812.257 1455.09 Q809.827 1455.86 807.049 1457.41 L807.049 1452.69 Q809.873 1451.55 812.327 1450.97 Q814.78 1450.39 816.817 1450.39 Q822.188 1450.39 825.382 1453.08 Q828.576 1455.77 828.576 1460.26 Q828.576 1462.39 827.766 1464.31 Q826.979 1466.2 824.873 1468.8 Q824.294 1469.47 821.192 1472.69 Q818.09 1475.88 812.442 1481.64 Z" fill="#000000" fill-rule="evenodd" fill-opacity="1" /><path clip-path="url(#clip350)" d="M838.623 1451.02 L856.979 1451.02 L856.979 1454.96 L842.905 1454.96 L842.905 1463.43 Q843.924 1463.08 844.942 1462.92 Q845.961 1462.73 846.979 1462.73 Q852.766 1462.73 856.146 1465.9 Q859.525 1469.08 859.525 1474.49 Q859.525 1480.07 856.053 1483.17 Q852.581 1486.25 846.262 1486.25 Q844.086 1486.25 841.817 1485.88 Q839.572 1485.51 837.164 1484.77 L837.164 1480.07 Q839.248 1481.2 841.47 1481.76 Q843.692 1482.32 846.169 1482.32 Q850.174 1482.32 852.512 1480.21 Q854.85 1478.1 854.85 1474.49 Q854.85 1470.88 852.512 1468.77 Q850.174 1466.67 846.169 1466.67 Q844.294 1466.67 842.419 1467.08 Q840.567 1467.5 838.623 1468.38 L838.623 1451.02 Z" fill="#000000" fill-rule="evenodd" fill-opacity="1" /><path clip-path="url(#clip350)" d="M1273.85 1454.1 Q1270.24 1454.1 1268.42 1457.66 Q1266.61 1461.2 1266.61 1468.33 Q1266.61 1475.44 1268.42 1479.01 Q1270.24 1482.55 1273.85 1482.55 Q1277.49 1482.55 1279.29 1479.01 Q1281.12 1475.44 1281.12 1468.33 Q1281.12 1461.2 1279.29 1457.66 Q1277.49 1454.1 1273.85 1454.1 M1273.85 1450.39 Q1279.66 1450.39 1282.72 1455 Q1285.8 1459.58 1285.8 1468.33 Q1285.8 1477.06 1282.72 1481.67 Q1279.66 1486.25 1273.85 1486.25 Q1268.04 1486.25 1264.97 1481.67 Q1261.91 1477.06 1261.91 1468.33 Q1261.91 1459.58 1264.97 1455 Q1268.04 1450.39 1273.85 1450.39 Z" fill="#000000" fill-rule="evenodd" fill-opacity="1" /><path clip-path="url(#clip350)" d="M1294.02 1479.7 L1298.9 1479.7 L1298.9 1485.58 L1294.02 1485.58 L1294.02 1479.7 Z" fill="#000000" fill-rule="evenodd" fill-opacity="1" /><path clip-path="url(#clip350)" d="M1309.13 1451.02 L1327.49 1451.02 L1327.49 1454.96 L1313.41 1454.96 L1313.41 1463.43 Q1314.43 1463.08 1315.45 1462.92 Q1316.47 1462.73 1317.49 1462.73 Q1323.28 1462.73 1326.66 1465.9 Q1330.04 1469.08 1330.04 1474.49 Q1330.04 1480.07 1326.56 1483.17 Q1323.09 1486.25 1316.77 1486.25 Q1314.6 1486.25 1312.33 1485.88 Q1310.08 1485.51 1307.67 1484.77 L1307.67 1480.07 Q1309.76 1481.2 1311.98 1481.76 Q1314.2 1482.32 1316.68 1482.32 Q1320.68 1482.32 1323.02 1480.21 Q1325.36 1478.1 1325.36 1474.49 Q1325.36 1470.88 1323.02 1468.77 Q1320.68 1466.67 1316.68 1466.67 Q1314.8 1466.67 1312.93 1467.08 Q1311.08 1467.5 1309.13 1468.38 L1309.13 1451.02 Z" fill="#000000" fill-rule="evenodd" fill-opacity="1" /><path clip-path="url(#clip350)" d="M1349.25 1454.1 Q1345.64 1454.1 1343.81 1457.66 Q1342 1461.2 1342 1468.33 Q1342 1475.44 1343.81 1479.01 Q1345.64 1482.55 1349.25 1482.55 Q1352.88 1482.55 1354.69 1479.01 Q1356.52 1475.44 1356.52 1468.33 Q1356.52 1461.2 1354.69 1457.66 Q1352.88 1454.1 1349.25 1454.1 M1349.25 1450.39 Q1355.06 1450.39 1358.11 1455 Q1361.19 1459.58 1361.19 1468.33 Q1361.19 1477.06 1358.11 1481.67 Q1355.06 1486.25 1349.25 1486.25 Q1343.44 1486.25 1340.36 1481.67 Q1337.3 1477.06 1337.3 1468.33 Q1337.3 1459.58 1340.36 1455 Q1343.44 1450.39 1349.25 1450.39 Z" fill="#000000" fill-rule="evenodd" fill-opacity="1" /><path clip-path="url(#clip350)" d="M1775.52 1454.1 Q1771.91 1454.1 1770.08 1457.66 Q1768.28 1461.2 1768.28 1468.33 Q1768.28 1475.44 1770.08 1479.01 Q1771.91 1482.55 1775.52 1482.55 Q1779.16 1482.55 1780.96 1479.01 Q1782.79 1475.44 1782.79 1468.33 Q1782.79 1461.2 1780.96 1457.66 Q1779.16 1454.1 1775.52 1454.1 M1775.52 1450.39 Q1781.33 1450.39 1784.39 1455 Q1787.47 1459.58 1787.47 1468.33 Q1787.47 1477.06 1784.39 1481.67 Q1781.33 1486.25 1775.52 1486.25 Q1769.71 1486.25 1766.63 1481.67 Q1763.58 1477.06 1763.58 1468.33 Q1763.58 1459.58 1766.63 1455 Q1769.71 1450.39 1775.52 1450.39 Z" fill="#000000" fill-rule="evenodd" fill-opacity="1" /><path clip-path="url(#clip350)" d="M1795.68 1479.7 L1800.57 1479.7 L1800.57 1485.58 L1795.68 1485.58 L1795.68 1479.7 Z" fill="#000000" fill-rule="evenodd" fill-opacity="1" /><path clip-path="url(#clip350)" d="M1809.57 1451.02 L1831.79 1451.02 L1831.79 1453.01 L1819.25 1485.58 L1814.36 1485.58 L1826.17 1454.96 L1809.57 1454.96 L1809.57 1451.02 Z" fill="#000000" fill-rule="evenodd" fill-opacity="1" /><path clip-path="url(#clip350)" d="M1840.96 1451.02 L1859.32 1451.02 L1859.32 1454.96 L1845.24 1454.96 L1845.24 1463.43 Q1846.26 1463.08 1847.28 1462.92 Q1848.3 1462.73 1849.32 1462.73 Q1855.1 1462.73 1858.48 1465.9 Q1861.86 1469.08 1861.86 1474.49 Q1861.86 1480.07 1858.39 1483.17 Q1854.92 1486.25 1848.6 1486.25 Q1846.42 1486.25 1844.16 1485.88 Q1841.91 1485.51 1839.5 1484.77 L1839.5 1480.07 Q1841.59 1481.2 1843.81 1481.76 Q1846.03 1482.32 1848.51 1482.32 Q1852.51 1482.32 1854.85 1480.21 Q1857.19 1478.1 1857.19 1474.49 Q1857.19 1470.88 1854.85 1468.77 Q1852.51 1466.67 1848.51 1466.67 Q1846.63 1466.67 1844.76 1467.08 Q1842.91 1467.5 1840.96 1468.38 L1840.96 1451.02 Z" fill="#000000" fill-rule="evenodd" fill-opacity="1" /><path clip-path="url(#clip350)" d="M2265.96 1481.64 L2273.6 1481.64 L2273.6 1455.28 L2265.29 1456.95 L2265.29 1452.69 L2273.55 1451.02 L2278.23 1451.02 L2278.23 1481.64 L2285.87 1481.64 L2285.87 1485.58 L2265.96 1485.58 L2265.96 1481.64 Z" fill="#000000" fill-rule="evenodd" fill-opacity="1" /><path clip-path="url(#clip350)" d="M2295.31 1479.7 L2300.2 1479.7 L2300.2 1485.58 L2295.31 1485.58 L2295.31 1479.7 Z" fill="#000000" fill-rule="evenodd" fill-opacity="1" /><path clip-path="url(#clip350)" d="M2320.38 1454.1 Q2316.77 1454.1 2314.94 1457.66 Q2313.14 1461.2 2313.14 1468.33 Q2313.14 1475.44 2314.94 1479.01 Q2316.77 1482.55 2320.38 1482.55 Q2324.02 1482.55 2325.82 1479.01 Q2327.65 1475.44 2327.65 1468.33 Q2327.65 1461.2 2325.82 1457.66 Q2324.02 1454.1 2320.38 1454.1 M2320.38 1450.39 Q2326.19 1450.39 2329.25 1455 Q2332.33 1459.58 2332.33 1468.33 Q2332.33 1477.06 2329.25 1481.67 Q2326.19 1486.25 2320.38 1486.25 Q2314.57 1486.25 2311.49 1481.67 Q2308.44 1477.06 2308.44 1468.33 Q2308.44 1459.58 2311.49 1455 Q2314.57 1450.39 2320.38 1450.39 Z" fill="#000000" fill-rule="evenodd" fill-opacity="1" /><path clip-path="url(#clip350)" d="M2350.54 1454.1 Q2346.93 1454.1 2345.1 1457.66 Q2343.3 1461.2 2343.3 1468.33 Q2343.3 1475.44 2345.1 1479.01 Q2346.93 1482.55 2350.54 1482.55 Q2354.18 1482.55 2355.98 1479.01 Q2357.81 1475.44 2357.81 1468.33 Q2357.81 1461.2 2355.98 1457.66 Q2354.18 1454.1 2350.54 1454.1 M2350.54 1450.39 Q2356.35 1450.39 2359.41 1455 Q2362.49 1459.58 2362.49 1468.33 Q2362.49 1477.06 2359.41 1481.67 Q2356.35 1486.25 2350.54 1486.25 Q2344.73 1486.25 2341.66 1481.67 Q2338.6 1477.06 2338.6 1468.33 Q2338.6 1459.58 2341.66 1455 Q2344.73 1450.39 2350.54 1450.39 Z" fill="#000000" fill-rule="evenodd" fill-opacity="1" /><path clip-path="url(#clip350)" d="M1320.98 1532.4 L1308.09 1549.74 L1321.65 1568.04 L1314.74 1568.04 L1304.37 1554.04 L1293.99 1568.04 L1287.08 1568.04 L1300.93 1549.39 L1288.26 1532.4 L1295.17 1532.4 L1304.62 1545.1 L1314.07 1532.4 L1320.98 1532.4 Z" fill="#000000" fill-rule="evenodd" fill-opacity="1" /><polyline clip-path="url(#clip352)" style="stroke:#000000; stroke-linecap:round; stroke-linejoin:round; stroke-width:2; stroke-opacity:0.1; fill:none" points="255.977,1365.95 2352.76,1365.95 "/>
<polyline clip-path="url(#clip352)" style="stroke:#000000; stroke-linecap:round; stroke-linejoin:round; stroke-width:2; stroke-opacity:0.1; fill:none" points="255.977,1124.11 2352.76,1124.11 "/>
<polyline clip-path="url(#clip352)" style="stroke:#000000; stroke-linecap:round; stroke-linejoin:round; stroke-width:2; stroke-opacity:0.1; fill:none" points="255.977,882.269 2352.76,882.269 "/>
<polyline clip-path="url(#clip352)" style="stroke:#000000; stroke-linecap:round; stroke-linejoin:round; stroke-width:2; stroke-opacity:0.1; fill:none" points="255.977,640.429 2352.76,640.429 "/>
<polyline clip-path="url(#clip352)" style="stroke:#000000; stroke-linecap:round; stroke-linejoin:round; stroke-width:2; stroke-opacity:0.1; fill:none" points="255.977,398.59 2352.76,398.59 "/>
<polyline clip-path="url(#clip352)" style="stroke:#000000; stroke-linecap:round; stroke-linejoin:round; stroke-width:2; stroke-opacity:0.1; fill:none" points="255.977,156.75 2352.76,156.75 "/>
<polyline clip-path="url(#clip350)" style="stroke:#000000; stroke-linecap:round; stroke-linejoin:round; stroke-width:4; stroke-opacity:1; fill:none" points="255.977,1423.18 255.977,123.472 "/>
<polyline clip-path="url(#clip350)" style="stroke:#000000; stroke-linecap:round; stroke-linejoin:round; stroke-width:4; stroke-opacity:1; fill:none" points="255.977,1365.95 274.875,1365.95 "/>
<polyline clip-path="url(#clip350)" style="stroke:#000000; stroke-linecap:round; stroke-linejoin:round; stroke-width:4; stroke-opacity:1; fill:none" points="255.977,1124.11 274.875,1124.11 "/>
<polyline clip-path="url(#clip350)" style="stroke:#000000; stroke-linecap:round; stroke-linejoin:round; stroke-width:4; stroke-opacity:1; fill:none" points="255.977,882.269 274.875,882.269 "/>
<polyline clip-path="url(#clip350)" style="stroke:#000000; stroke-linecap:round; stroke-linejoin:round; stroke-width:4; stroke-opacity:1; fill:none" points="255.977,640.429 274.875,640.429 "/>
<polyline clip-path="url(#clip350)" style="stroke:#000000; stroke-linecap:round; stroke-linejoin:round; stroke-width:4; stroke-opacity:1; fill:none" points="255.977,398.59 274.875,398.59 "/>
<polyline clip-path="url(#clip350)" style="stroke:#000000; stroke-linecap:round; stroke-linejoin:round; stroke-width:4; stroke-opacity:1; fill:none" points="255.977,156.75 274.875,156.75 "/>
<path clip-path="url(#clip350)" d="M114.26 1366.4 L143.936 1366.4 L143.936 1370.34 L114.26 1370.34 L114.26 1366.4 Z" fill="#000000" fill-rule="evenodd" fill-opacity="1" /><path clip-path="url(#clip350)" d="M164.028 1351.75 Q160.417 1351.75 158.589 1355.31 Q156.783 1358.85 156.783 1365.98 Q156.783 1373.09 158.589 1376.65 Q160.417 1380.2 164.028 1380.2 Q167.663 1380.2 169.468 1376.65 Q171.297 1373.09 171.297 1365.98 Q171.297 1358.85 169.468 1355.31 Q167.663 1351.75 164.028 1351.75 M164.028 1348.04 Q169.839 1348.04 172.894 1352.65 Q175.973 1357.23 175.973 1365.98 Q175.973 1374.71 172.894 1379.32 Q169.839 1383.9 164.028 1383.9 Q158.218 1383.9 155.14 1379.32 Q152.084 1374.71 152.084 1365.98 Q152.084 1357.23 155.14 1352.65 Q158.218 1348.04 164.028 1348.04 Z" fill="#000000" fill-rule="evenodd" fill-opacity="1" /><path clip-path="url(#clip350)" d="M184.19 1377.35 L189.075 1377.35 L189.075 1383.23 L184.19 1383.23 L184.19 1377.35 Z" fill="#000000" fill-rule="evenodd" fill-opacity="1" /><path clip-path="url(#clip350)" d="M200.07 1379.29 L207.709 1379.29 L207.709 1352.93 L199.399 1354.59 L199.399 1350.34 L207.662 1348.67 L212.338 1348.67 L212.338 1379.29 L219.977 1379.29 L219.977 1383.23 L200.07 1383.23 L200.07 1379.29 Z" fill="#000000" fill-rule="evenodd" fill-opacity="1" /><path clip-path="url(#clip350)" d="M162.802 1109.91 Q159.19 1109.91 157.362 1113.47 Q155.556 1117.01 155.556 1124.14 Q155.556 1131.25 157.362 1134.82 Q159.19 1138.36 162.802 1138.36 Q166.436 1138.36 168.241 1134.82 Q170.07 1131.25 170.07 1124.14 Q170.07 1117.01 168.241 1113.47 Q166.436 1109.91 162.802 1109.91 M162.802 1106.2 Q168.612 1106.2 171.667 1110.81 Q174.746 1115.39 174.746 1124.14 Q174.746 1132.87 171.667 1137.48 Q168.612 1142.06 162.802 1142.06 Q156.991 1142.06 153.913 1137.48 Q150.857 1132.87 150.857 1124.14 Q150.857 1115.39 153.913 1110.81 Q156.991 1106.2 162.802 1106.2 Z" fill="#000000" fill-rule="evenodd" fill-opacity="1" /><path clip-path="url(#clip350)" d="M182.963 1135.51 L187.848 1135.51 L187.848 1141.39 L182.963 1141.39 L182.963 1135.51 Z" fill="#000000" fill-rule="evenodd" fill-opacity="1" /><path clip-path="url(#clip350)" d="M208.033 1109.91 Q204.422 1109.91 202.593 1113.47 Q200.787 1117.01 200.787 1124.14 Q200.787 1131.25 202.593 1134.82 Q204.422 1138.36 208.033 1138.36 Q211.667 1138.36 213.473 1134.82 Q215.301 1131.25 215.301 1124.14 Q215.301 1117.01 213.473 1113.47 Q211.667 1109.91 208.033 1109.91 M208.033 1106.2 Q213.843 1106.2 216.898 1110.81 Q219.977 1115.39 219.977 1124.14 Q219.977 1132.87 216.898 1137.48 Q213.843 1142.06 208.033 1142.06 Q202.223 1142.06 199.144 1137.48 Q196.088 1132.87 196.088 1124.14 Q196.088 1115.39 199.144 1110.81 Q202.223 1106.2 208.033 1106.2 Z" fill="#000000" fill-rule="evenodd" fill-opacity="1" /><path clip-path="url(#clip350)" d="M164.028 868.068 Q160.417 868.068 158.589 871.633 Q156.783 875.174 156.783 882.304 Q156.783 889.41 158.589 892.975 Q160.417 896.517 164.028 896.517 Q167.663 896.517 169.468 892.975 Q171.297 889.41 171.297 882.304 Q171.297 875.174 169.468 871.633 Q167.663 868.068 164.028 868.068 M164.028 864.364 Q169.839 864.364 172.894 868.971 Q175.973 873.554 175.973 882.304 Q175.973 891.031 172.894 895.637 Q169.839 900.221 164.028 900.221 Q158.218 900.221 155.14 895.637 Q152.084 891.031 152.084 882.304 Q152.084 873.554 155.14 868.971 Q158.218 864.364 164.028 864.364 Z" fill="#000000" fill-rule="evenodd" fill-opacity="1" /><path clip-path="url(#clip350)" d="M184.19 893.67 L189.075 893.67 L189.075 899.549 L184.19 899.549 L184.19 893.67 Z" fill="#000000" fill-rule="evenodd" fill-opacity="1" /><path clip-path="url(#clip350)" d="M200.07 895.614 L207.709 895.614 L207.709 869.249 L199.399 870.915 L199.399 866.656 L207.662 864.989 L212.338 864.989 L212.338 895.614 L219.977 895.614 L219.977 899.549 L200.07 899.549 L200.07 895.614 Z" fill="#000000" fill-rule="evenodd" fill-opacity="1" /><path clip-path="url(#clip350)" d="M164.399 626.228 Q160.788 626.228 158.959 629.793 Q157.153 633.335 157.153 640.464 Q157.153 647.571 158.959 651.135 Q160.788 654.677 164.399 654.677 Q168.033 654.677 169.839 651.135 Q171.667 647.571 171.667 640.464 Q171.667 633.335 169.839 629.793 Q168.033 626.228 164.399 626.228 M164.399 622.524 Q170.209 622.524 173.264 627.131 Q176.343 631.714 176.343 640.464 Q176.343 649.191 173.264 653.797 Q170.209 658.381 164.399 658.381 Q158.589 658.381 155.51 653.797 Q152.454 649.191 152.454 640.464 Q152.454 631.714 155.51 627.131 Q158.589 622.524 164.399 622.524 Z" fill="#000000" fill-rule="evenodd" fill-opacity="1" /><path clip-path="url(#clip350)" d="M184.561 651.83 L189.445 651.83 L189.445 657.709 L184.561 657.709 L184.561 651.83 Z" fill="#000000" fill-rule="evenodd" fill-opacity="1" /><path clip-path="url(#clip350)" d="M203.658 653.774 L219.977 653.774 L219.977 657.709 L198.033 657.709 L198.033 653.774 Q200.695 651.02 205.278 646.39 Q209.885 641.737 211.065 640.395 Q213.311 637.872 214.19 636.136 Q215.093 634.376 215.093 632.686 Q215.093 629.932 213.149 628.196 Q211.227 626.46 208.125 626.46 Q205.926 626.46 203.473 627.224 Q201.042 627.987 198.264 629.538 L198.264 624.816 Q201.088 623.682 203.542 623.103 Q205.996 622.524 208.033 622.524 Q213.403 622.524 216.598 625.21 Q219.792 627.895 219.792 632.386 Q219.792 634.515 218.982 636.436 Q218.195 638.335 216.088 640.927 Q215.51 641.598 212.408 644.816 Q209.306 648.01 203.658 653.774 Z" fill="#000000" fill-rule="evenodd" fill-opacity="1" /><path clip-path="url(#clip350)" d="M163.45 384.388 Q159.839 384.388 158.01 387.953 Q156.204 391.495 156.204 398.624 Q156.204 405.731 158.01 409.296 Q159.839 412.837 163.45 412.837 Q167.084 412.837 168.889 409.296 Q170.718 405.731 170.718 398.624 Q170.718 391.495 168.889 387.953 Q167.084 384.388 163.45 384.388 M163.45 380.685 Q169.26 380.685 172.315 385.291 Q175.394 389.874 175.394 398.624 Q175.394 407.351 172.315 411.958 Q169.26 416.541 163.45 416.541 Q157.64 416.541 154.561 411.958 Q151.505 407.351 151.505 398.624 Q151.505 389.874 154.561 385.291 Q157.64 380.685 163.45 380.685 Z" fill="#000000" fill-rule="evenodd" fill-opacity="1" /><path clip-path="url(#clip350)" d="M183.612 409.99 L188.496 409.99 L188.496 415.87 L183.612 415.87 L183.612 409.99 Z" fill="#000000" fill-rule="evenodd" fill-opacity="1" /><path clip-path="url(#clip350)" d="M212.848 397.235 Q216.204 397.953 218.079 400.222 Q219.977 402.49 219.977 405.823 Q219.977 410.939 216.459 413.74 Q212.94 416.541 206.459 416.541 Q204.283 416.541 201.968 416.101 Q199.676 415.684 197.223 414.828 L197.223 410.314 Q199.167 411.448 201.482 412.027 Q203.797 412.606 206.32 412.606 Q210.718 412.606 213.01 410.87 Q215.324 409.134 215.324 405.823 Q215.324 402.768 213.172 401.055 Q211.042 399.319 207.223 399.319 L203.195 399.319 L203.195 395.476 L207.408 395.476 Q210.857 395.476 212.686 394.111 Q214.514 392.722 214.514 390.129 Q214.514 387.467 212.616 386.055 Q210.741 384.62 207.223 384.62 Q205.301 384.62 203.102 385.036 Q200.903 385.453 198.264 386.333 L198.264 382.166 Q200.926 381.425 203.241 381.055 Q205.579 380.685 207.639 380.685 Q212.963 380.685 216.065 383.115 Q219.167 385.523 219.167 389.643 Q219.167 392.513 217.523 394.504 Q215.88 396.472 212.848 397.235 Z" fill="#000000" fill-rule="evenodd" fill-opacity="1" /><path clip-path="url(#clip350)" d="M162.315 142.549 Q158.704 142.549 156.876 146.113 Q155.07 149.655 155.07 156.785 Q155.07 163.891 156.876 167.456 Q158.704 170.997 162.315 170.997 Q165.95 170.997 167.755 167.456 Q169.584 163.891 169.584 156.785 Q169.584 149.655 167.755 146.113 Q165.95 142.549 162.315 142.549 M162.315 138.845 Q168.126 138.845 171.181 143.451 Q174.26 148.035 174.26 156.785 Q174.26 165.511 171.181 170.118 Q168.126 174.701 162.315 174.701 Q156.505 174.701 153.427 170.118 Q150.371 165.511 150.371 156.785 Q150.371 148.035 153.427 143.451 Q156.505 138.845 162.315 138.845 Z" fill="#000000" fill-rule="evenodd" fill-opacity="1" /><path clip-path="url(#clip350)" d="M182.477 168.15 L187.362 168.15 L187.362 174.03 L182.477 174.03 L182.477 168.15 Z" fill="#000000" fill-rule="evenodd" fill-opacity="1" /><path clip-path="url(#clip350)" d="M210.394 143.544 L198.588 161.993 L210.394 161.993 L210.394 143.544 M209.167 139.47 L215.047 139.47 L215.047 161.993 L219.977 161.993 L219.977 165.882 L215.047 165.882 L215.047 174.03 L210.394 174.03 L210.394 165.882 L194.792 165.882 L194.792 161.368 L209.167 139.47 Z" fill="#000000" fill-rule="evenodd" fill-opacity="1" /><path clip-path="url(#clip350)" d="M67.3143 771.639 Q73.68 774.122 75.6216 776.477 Q77.5631 778.832 77.5631 782.779 L77.5631 787.458 L72.6615 787.458 L72.6615 784.02 Q72.6615 781.601 71.5157 780.265 Q70.3699 778.928 66.1048 777.305 L63.4312 776.254 L28.3562 790.673 L28.3562 784.466 L56.238 773.326 L28.3562 762.186 L28.3562 755.979 L67.3143 771.639 Z" fill="#000000" fill-rule="evenodd" fill-opacity="1" /><path clip-path="url(#clip350)" d="M616.928 12.096 L625.111 12.096 L625.111 65.6895 L654.561 65.6895 L654.561 72.576 L616.928 72.576 L616.928 12.096 Z" fill="#000000" fill-rule="evenodd" fill-opacity="1" /><path clip-path="url(#clip350)" d="M662.825 27.2059 L670.279 27.2059 L670.279 72.576 L662.825 72.576 L662.825 27.2059 M662.825 9.54393 L670.279 9.54393 L670.279 18.9825 L662.825 18.9825 L662.825 9.54393 Z" fill="#000000" fill-rule="evenodd" fill-opacity="1" /><path clip-path="url(#clip350)" d="M723.588 45.1919 L723.588 72.576 L716.135 72.576 L716.135 45.4349 Q716.135 38.994 713.623 35.7938 Q711.112 32.5936 706.089 32.5936 Q700.053 32.5936 696.569 36.4419 Q693.085 40.2903 693.085 46.9338 L693.085 72.576 L685.591 72.576 L685.591 27.2059 L693.085 27.2059 L693.085 34.2544 Q695.759 30.163 699.364 28.1376 Q703.01 26.1121 707.749 26.1121 Q715.568 26.1121 719.578 30.9732 Q723.588 35.7938 723.588 45.1919 Z" fill="#000000" fill-rule="evenodd" fill-opacity="1" /><path clip-path="url(#clip350)" d="M777.263 48.0275 L777.263 51.6733 L742.992 51.6733 Q743.478 59.3701 747.61 63.421 Q751.783 67.4314 759.196 67.4314 Q763.49 67.4314 767.5 66.3781 Q771.551 65.3249 775.521 63.2184 L775.521 70.267 Q771.511 71.9684 767.298 72.8596 Q763.085 73.7508 758.75 73.7508 Q747.894 73.7508 741.534 67.4314 Q735.215 61.1119 735.215 50.3365 Q735.215 39.1965 741.21 32.6746 Q747.246 26.1121 757.454 26.1121 Q766.609 26.1121 771.916 32.0264 Q777.263 37.9003 777.263 48.0275 M769.809 45.84 Q769.728 39.7232 766.366 36.0774 Q763.044 32.4315 757.535 32.4315 Q751.297 32.4315 747.529 35.9558 Q743.802 39.4801 743.235 45.8805 L769.809 45.84 Z" fill="#000000" fill-rule="evenodd" fill-opacity="1" /><path clip-path="url(#clip350)" d="M810.116 49.7694 Q801.082 49.7694 797.598 51.8354 Q794.115 53.9013 794.115 58.8839 Q794.115 62.8538 796.707 65.2034 Q799.34 67.5124 803.837 67.5124 Q810.035 67.5124 813.762 63.1374 Q817.529 58.7219 817.529 51.4303 L817.529 49.7694 L810.116 49.7694 M824.983 46.6907 L824.983 72.576 L817.529 72.576 L817.529 65.6895 Q814.977 69.8214 811.169 71.8063 Q807.361 73.7508 801.852 73.7508 Q794.884 73.7508 790.752 69.8619 Q786.661 65.9325 786.661 59.3701 Q786.661 51.7138 791.765 47.825 Q796.91 43.9361 807.078 43.9361 L817.529 43.9361 L817.529 43.2069 Q817.529 38.0623 814.126 35.2672 Q810.764 32.4315 804.647 32.4315 Q800.758 32.4315 797.072 33.3632 Q793.385 34.295 789.983 36.1584 L789.983 29.2718 Q794.074 27.692 797.922 26.9223 Q801.771 26.1121 805.417 26.1121 Q815.26 26.1121 820.121 31.2163 Q824.983 36.3204 824.983 46.6907 Z" fill="#000000" fill-rule="evenodd" fill-opacity="1" /><path clip-path="url(#clip350)" d="M866.626 34.1734 Q865.37 33.4443 863.871 33.1202 Q862.413 32.7556 860.63 32.7556 Q854.311 32.7556 850.908 36.8875 Q847.546 40.9789 847.546 48.6757 L847.546 72.576 L840.052 72.576 L840.052 27.2059 L847.546 27.2059 L847.546 34.2544 Q849.896 30.1225 853.663 28.1376 Q857.43 26.1121 862.818 26.1121 Q863.588 26.1121 864.519 26.2337 Q865.451 26.3147 866.585 26.5172 L866.626 34.1734 Z" fill="#000000" fill-rule="evenodd" fill-opacity="1" /><path clip-path="url(#clip350)" d="M929.82 44.2197 Q932.453 45.1109 934.924 48.0275 Q937.436 50.9442 939.947 56.0483 L948.252 72.576 L939.461 72.576 L931.724 57.061 Q928.726 50.9847 925.891 48.9997 Q923.095 47.0148 918.234 47.0148 L909.322 47.0148 L909.322 72.576 L901.14 72.576 L901.14 12.096 L919.612 12.096 Q929.982 12.096 935.086 16.4305 Q940.19 20.7649 940.19 29.5149 Q940.19 35.2267 937.517 38.994 Q934.884 42.7613 929.82 44.2197 M909.322 18.8205 L909.322 40.2903 L919.612 40.2903 Q925.526 40.2903 928.524 37.5762 Q931.562 34.8216 931.562 29.5149 Q931.562 24.2082 928.524 21.5346 Q925.526 18.8205 919.612 18.8205 L909.322 18.8205 Z" fill="#000000" fill-rule="evenodd" fill-opacity="1" /><path clip-path="url(#clip350)" d="M993.541 48.0275 L993.541 51.6733 L959.27 51.6733 Q959.756 59.3701 963.888 63.421 Q968.06 67.4314 975.474 67.4314 Q979.768 67.4314 983.778 66.3781 Q987.829 65.3249 991.799 63.2184 L991.799 70.267 Q987.788 71.9684 983.575 72.8596 Q979.362 73.7508 975.028 73.7508 Q964.172 73.7508 957.812 67.4314 Q951.492 61.1119 951.492 50.3365 Q951.492 39.1965 957.488 32.6746 Q963.523 26.1121 973.732 26.1121 Q982.887 26.1121 988.193 32.0264 Q993.541 37.9003 993.541 48.0275 M986.087 45.84 Q986.006 39.7232 982.644 36.0774 Q979.322 32.4315 973.813 32.4315 Q967.574 32.4315 963.807 35.9558 Q960.08 39.4801 959.513 45.8805 L986.087 45.84 Z" fill="#000000" fill-rule="evenodd" fill-opacity="1" /><path clip-path="url(#clip350)" d="M1035.63 49.3643 Q1035.63 41.2625 1032.27 36.8065 Q1028.95 32.3505 1022.91 32.3505 Q1016.91 32.3505 1013.55 36.8065 Q1010.23 41.2625 1010.23 49.3643 Q1010.23 57.4256 1013.55 61.8816 Q1016.91 66.3376 1022.91 66.3376 Q1028.95 66.3376 1032.27 61.8816 Q1035.63 57.4256 1035.63 49.3643 M1043.08 66.9452 Q1043.08 78.5308 1037.94 84.1616 Q1032.79 89.8329 1022.18 89.8329 Q1018.25 89.8329 1014.77 89.2252 Q1011.28 88.6581 1008 87.4428 L1008 80.1917 Q1011.28 81.9741 1014.48 82.8248 Q1017.68 83.6755 1021.01 83.6755 Q1028.34 83.6755 1031.98 79.8271 Q1035.63 76.0193 1035.63 68.282 L1035.63 64.5957 Q1033.32 68.6061 1029.72 70.5911 Q1026.11 72.576 1021.09 72.576 Q1012.74 72.576 1007.64 66.2161 Q1002.53 59.8562 1002.53 49.3643 Q1002.53 38.832 1007.64 32.472 Q1012.74 26.1121 1021.09 26.1121 Q1026.11 26.1121 1029.72 28.0971 Q1033.32 30.082 1035.63 34.0924 L1035.63 27.2059 L1043.08 27.2059 L1043.08 66.9452 Z" fill="#000000" fill-rule="evenodd" fill-opacity="1" /><path clip-path="url(#clip350)" d="M1084.73 34.1734 Q1083.47 33.4443 1081.97 33.1202 Q1080.51 32.7556 1078.73 32.7556 Q1072.41 32.7556 1069.01 36.8875 Q1065.65 40.9789 1065.65 48.6757 L1065.65 72.576 L1058.15 72.576 L1058.15 27.2059 L1065.65 27.2059 L1065.65 34.2544 Q1068 30.1225 1071.76 28.1376 Q1075.53 26.1121 1080.92 26.1121 Q1081.69 26.1121 1082.62 26.2337 Q1083.55 26.3147 1084.69 26.5172 L1084.73 34.1734 Z" fill="#000000" fill-rule="evenodd" fill-opacity="1" /><path clip-path="url(#clip350)" d="M1129.53 48.0275 L1129.53 51.6733 L1095.26 51.6733 Q1095.74 59.3701 1099.88 63.421 Q1104.05 67.4314 1111.46 67.4314 Q1115.76 67.4314 1119.77 66.3781 Q1123.82 65.3249 1127.79 63.2184 L1127.79 70.267 Q1123.78 71.9684 1119.56 72.8596 Q1115.35 73.7508 1111.02 73.7508 Q1100.16 73.7508 1093.8 67.4314 Q1087.48 61.1119 1087.48 50.3365 Q1087.48 39.1965 1093.48 32.6746 Q1099.51 26.1121 1109.72 26.1121 Q1118.88 26.1121 1124.18 32.0264 Q1129.53 37.9003 1129.53 48.0275 M1122.08 45.84 Q1121.99 39.7232 1118.63 36.0774 Q1115.31 32.4315 1109.8 32.4315 Q1103.56 32.4315 1099.8 35.9558 Q1096.07 39.4801 1095.5 45.8805 L1122.08 45.84 Z" fill="#000000" fill-rule="evenodd" fill-opacity="1" /><path clip-path="url(#clip350)" d="M1170.69 28.5427 L1170.69 35.5912 Q1167.53 33.9709 1164.12 33.1607 Q1160.72 32.3505 1157.08 32.3505 Q1151.53 32.3505 1148.73 34.0519 Q1145.98 35.7533 1145.98 39.156 Q1145.98 41.7486 1147.96 43.2475 Q1149.95 44.7058 1155.94 46.0426 L1158.49 46.6097 Q1166.43 48.3111 1169.75 51.4303 Q1173.12 54.509 1173.12 60.0587 Q1173.12 66.3781 1168.09 70.0644 Q1163.11 73.7508 1154.36 73.7508 Q1150.72 73.7508 1146.75 73.0216 Q1142.82 72.3329 1138.44 70.9151 L1138.44 63.2184 Q1142.57 65.3654 1146.58 66.4591 Q1150.59 67.5124 1154.52 67.5124 Q1159.79 67.5124 1162.63 65.73 Q1165.46 63.9071 1165.46 60.6258 Q1165.46 57.5877 1163.4 55.9673 Q1161.37 54.3469 1154.44 52.8481 L1151.85 52.2405 Q1144.92 50.7821 1141.84 47.7845 Q1138.77 44.7463 1138.77 39.4801 Q1138.77 33.0797 1143.3 29.5959 Q1147.84 26.1121 1156.18 26.1121 Q1160.32 26.1121 1163.96 26.7198 Q1167.61 27.3274 1170.69 28.5427 Z" fill="#000000" fill-rule="evenodd" fill-opacity="1" /><path clip-path="url(#clip350)" d="M1213.91 28.5427 L1213.91 35.5912 Q1210.75 33.9709 1207.35 33.1607 Q1203.94 32.3505 1200.3 32.3505 Q1194.75 32.3505 1191.95 34.0519 Q1189.2 35.7533 1189.2 39.156 Q1189.2 41.7486 1191.18 43.2475 Q1193.17 44.7058 1199.16 46.0426 L1201.72 46.6097 Q1209.66 48.3111 1212.98 51.4303 Q1216.34 54.509 1216.34 60.0587 Q1216.34 66.3781 1211.32 70.0644 Q1206.33 73.7508 1197.58 73.7508 Q1193.94 73.7508 1189.97 73.0216 Q1186.04 72.3329 1181.66 70.9151 L1181.66 63.2184 Q1185.8 65.3654 1189.81 66.4591 Q1193.82 67.5124 1197.75 67.5124 Q1203.01 67.5124 1205.85 65.73 Q1208.68 63.9071 1208.68 60.6258 Q1208.68 57.5877 1206.62 55.9673 Q1204.59 54.3469 1197.67 52.8481 L1195.07 52.2405 Q1188.15 50.7821 1185.07 47.7845 Q1181.99 44.7463 1181.99 39.4801 Q1181.99 33.0797 1186.53 29.5959 Q1191.06 26.1121 1199.41 26.1121 Q1203.54 26.1121 1207.19 26.7198 Q1210.83 27.3274 1213.91 28.5427 Z" fill="#000000" fill-rule="evenodd" fill-opacity="1" /><path clip-path="url(#clip350)" d="M1228.21 27.2059 L1235.66 27.2059 L1235.66 72.576 L1228.21 72.576 L1228.21 27.2059 M1228.21 9.54393 L1235.66 9.54393 L1235.66 18.9825 L1228.21 18.9825 L1228.21 9.54393 Z" fill="#000000" fill-rule="evenodd" fill-opacity="1" /><path clip-path="url(#clip350)" d="M1268.84 32.4315 Q1262.84 32.4315 1259.36 37.1306 Q1255.88 41.7891 1255.88 49.9314 Q1255.88 58.0738 1259.32 62.7728 Q1262.8 67.4314 1268.84 67.4314 Q1274.79 67.4314 1278.28 62.7323 Q1281.76 58.0333 1281.76 49.9314 Q1281.76 41.8701 1278.28 37.1711 Q1274.79 32.4315 1268.84 32.4315 M1268.84 26.1121 Q1278.56 26.1121 1284.11 32.4315 Q1289.66 38.7509 1289.66 49.9314 Q1289.66 61.0714 1284.11 67.4314 Q1278.56 73.7508 1268.84 73.7508 Q1259.08 73.7508 1253.53 67.4314 Q1248.02 61.0714 1248.02 49.9314 Q1248.02 38.7509 1253.53 32.4315 Q1259.08 26.1121 1268.84 26.1121 Z" fill="#000000" fill-rule="evenodd" fill-opacity="1" /><path clip-path="url(#clip350)" d="M1339.73 45.1919 L1339.73 72.576 L1332.28 72.576 L1332.28 45.4349 Q1332.28 38.994 1329.77 35.7938 Q1327.25 32.5936 1322.23 32.5936 Q1316.2 32.5936 1312.71 36.4419 Q1309.23 40.2903 1309.23 46.9338 L1309.23 72.576 L1301.73 72.576 L1301.73 27.2059 L1309.23 27.2059 L1309.23 34.2544 Q1311.9 30.163 1315.51 28.1376 Q1319.15 26.1121 1323.89 26.1121 Q1331.71 26.1121 1335.72 30.9732 Q1339.73 35.7938 1339.73 45.1919 Z" fill="#000000" fill-rule="evenodd" fill-opacity="1" /><path clip-path="url(#clip350)" d="M1380.97 27.2059 L1388.42 27.2059 L1388.42 72.576 L1380.97 72.576 L1380.97 27.2059 M1380.97 9.54393 L1388.42 9.54393 L1388.42 18.9825 L1380.97 18.9825 L1380.97 9.54393 Z" fill="#000000" fill-rule="evenodd" fill-opacity="1" /><path clip-path="url(#clip350)" d="M1441.73 45.1919 L1441.73 72.576 L1434.28 72.576 L1434.28 45.4349 Q1434.28 38.994 1431.77 35.7938 Q1429.26 32.5936 1424.23 32.5936 Q1418.2 32.5936 1414.71 36.4419 Q1411.23 40.2903 1411.23 46.9338 L1411.23 72.576 L1403.74 72.576 L1403.74 27.2059 L1411.23 27.2059 L1411.23 34.2544 Q1413.9 30.163 1417.51 28.1376 Q1421.15 26.1121 1425.89 26.1121 Q1433.71 26.1121 1437.72 30.9732 Q1441.73 35.7938 1441.73 45.1919 Z" fill="#000000" fill-rule="evenodd" fill-opacity="1" /><path clip-path="url(#clip350)" d="M1485.44 65.6895 L1498.81 65.6895 L1498.81 19.5497 L1484.27 22.4663 L1484.27 15.0127 L1498.73 12.096 L1506.91 12.096 L1506.91 65.6895 L1520.28 65.6895 L1520.28 72.576 L1485.44 72.576 L1485.44 65.6895 Z" fill="#000000" fill-rule="evenodd" fill-opacity="1" /><path clip-path="url(#clip350)" d="M1531.99 46.5287 L1553.82 46.5287 L1553.82 53.1722 L1531.99 53.1722 L1531.99 46.5287 Z" fill="#000000" fill-rule="evenodd" fill-opacity="1" /><path clip-path="url(#clip350)" d="M1574.2 18.8205 L1574.2 65.8515 L1584.08 65.8515 Q1596.6 65.8515 1602.39 60.1802 Q1608.22 54.509 1608.22 42.2752 Q1608.22 30.1225 1602.39 24.4918 Q1596.6 18.8205 1584.08 18.8205 L1574.2 18.8205 M1566.01 12.096 L1582.83 12.096 Q1600.41 12.096 1608.63 19.4281 Q1616.85 26.7198 1616.85 42.2752 Q1616.85 57.9117 1608.59 65.2439 Q1600.33 72.576 1582.83 72.576 L1566.01 72.576 L1566.01 12.096 Z" fill="#000000" fill-rule="evenodd" fill-opacity="1" /><path clip-path="url(#clip350)" d="M1629.57 27.2059 L1637.03 27.2059 L1637.03 72.576 L1629.57 72.576 L1629.57 27.2059 M1629.57 9.54393 L1637.03 9.54393 L1637.03 18.9825 L1629.57 18.9825 L1629.57 9.54393 Z" fill="#000000" fill-rule="evenodd" fill-opacity="1" /><path clip-path="url(#clip350)" d="M1687.95 35.9153 Q1690.74 30.8922 1694.63 28.5022 Q1698.52 26.1121 1703.79 26.1121 Q1710.87 26.1121 1714.72 31.0947 Q1718.57 36.0368 1718.57 45.1919 L1718.57 72.576 L1711.08 72.576 L1711.08 45.4349 Q1711.08 38.913 1708.77 35.7533 Q1706.46 32.5936 1701.72 32.5936 Q1695.93 32.5936 1692.56 36.4419 Q1689.2 40.2903 1689.2 46.9338 L1689.2 72.576 L1681.71 72.576 L1681.71 45.4349 Q1681.71 38.8725 1679.4 35.7533 Q1677.09 32.5936 1672.27 32.5936 Q1666.56 32.5936 1663.2 36.4824 Q1659.83 40.3308 1659.83 46.9338 L1659.83 72.576 L1652.34 72.576 L1652.34 27.2059 L1659.83 27.2059 L1659.83 34.2544 Q1662.39 30.082 1665.95 28.0971 Q1669.52 26.1121 1674.42 26.1121 Q1679.36 26.1121 1682.8 28.6237 Q1686.29 31.1352 1687.95 35.9153 Z" fill="#000000" fill-rule="evenodd" fill-opacity="1" /><path clip-path="url(#clip350)" d="M1772.25 48.0275 L1772.25 51.6733 L1737.98 51.6733 Q1738.46 59.3701 1742.59 63.421 Q1746.77 67.4314 1754.18 67.4314 Q1758.47 67.4314 1762.48 66.3781 Q1766.53 65.3249 1770.5 63.2184 L1770.5 70.267 Q1766.49 71.9684 1762.28 72.8596 Q1758.07 73.7508 1753.73 73.7508 Q1742.88 73.7508 1736.52 67.4314 Q1730.2 61.1119 1730.2 50.3365 Q1730.2 39.1965 1736.19 32.6746 Q1742.23 26.1121 1752.44 26.1121 Q1761.59 26.1121 1766.9 32.0264 Q1772.25 37.9003 1772.25 48.0275 M1764.79 45.84 Q1764.71 39.7232 1761.35 36.0774 Q1758.03 32.4315 1752.52 32.4315 Q1746.28 32.4315 1742.51 35.9558 Q1738.79 39.4801 1738.22 45.8805 L1764.79 45.84 Z" fill="#000000" fill-rule="evenodd" fill-opacity="1" /><path clip-path="url(#clip350)" d="M1822.19 45.1919 L1822.19 72.576 L1814.74 72.576 L1814.74 45.4349 Q1814.74 38.994 1812.23 35.7938 Q1809.72 32.5936 1804.69 32.5936 Q1798.66 32.5936 1795.17 36.4419 Q1791.69 40.2903 1791.69 46.9338 L1791.69 72.576 L1784.2 72.576 L1784.2 27.2059 L1791.69 27.2059 L1791.69 34.2544 Q1794.36 30.163 1797.97 28.1376 Q1801.62 26.1121 1806.35 26.1121 Q1814.17 26.1121 1818.18 30.9732 Q1822.19 35.7938 1822.19 45.1919 Z" fill="#000000" fill-rule="evenodd" fill-opacity="1" /><path clip-path="url(#clip350)" d="M1865.98 28.5427 L1865.98 35.5912 Q1862.82 33.9709 1859.42 33.1607 Q1856.02 32.3505 1852.37 32.3505 Q1846.82 32.3505 1844.03 34.0519 Q1841.27 35.7533 1841.27 39.156 Q1841.27 41.7486 1843.26 43.2475 Q1845.24 44.7058 1851.24 46.0426 L1853.79 46.6097 Q1861.73 48.3111 1865.05 51.4303 Q1868.41 54.509 1868.41 60.0587 Q1868.41 66.3781 1863.39 70.0644 Q1858.41 73.7508 1849.66 73.7508 Q1846.01 73.7508 1842.04 73.0216 Q1838.11 72.3329 1833.74 70.9151 L1833.74 63.2184 Q1837.87 65.3654 1841.88 66.4591 Q1845.89 67.5124 1849.82 67.5124 Q1855.09 67.5124 1857.92 65.73 Q1860.76 63.9071 1860.76 60.6258 Q1860.76 57.5877 1858.69 55.9673 Q1856.67 54.3469 1849.74 52.8481 L1847.15 52.2405 Q1840.22 50.7821 1837.14 47.7845 Q1834.06 44.7463 1834.06 39.4801 Q1834.06 33.0797 1838.6 29.5959 Q1843.14 26.1121 1851.48 26.1121 Q1855.61 26.1121 1859.26 26.7198 Q1862.91 27.3274 1865.98 28.5427 Z" fill="#000000" fill-rule="evenodd" fill-opacity="1" /><path clip-path="url(#clip350)" d="M1880.28 27.2059 L1887.74 27.2059 L1887.74 72.576 L1880.28 72.576 L1880.28 27.2059 M1880.28 9.54393 L1887.74 9.54393 L1887.74 18.9825 L1880.28 18.9825 L1880.28 9.54393 Z" fill="#000000" fill-rule="evenodd" fill-opacity="1" /><path clip-path="url(#clip350)" d="M1920.91 32.4315 Q1914.92 32.4315 1911.44 37.1306 Q1907.95 41.7891 1907.95 49.9314 Q1907.95 58.0738 1911.39 62.7728 Q1914.88 67.4314 1920.91 67.4314 Q1926.87 67.4314 1930.35 62.7323 Q1933.84 58.0333 1933.84 49.9314 Q1933.84 41.8701 1930.35 37.1711 Q1926.87 32.4315 1920.91 32.4315 M1920.91 26.1121 Q1930.64 26.1121 1936.19 32.4315 Q1941.74 38.7509 1941.74 49.9314 Q1941.74 61.0714 1936.19 67.4314 Q1930.64 73.7508 1920.91 73.7508 Q1911.15 73.7508 1905.6 67.4314 Q1900.09 61.0714 1900.09 49.9314 Q1900.09 38.7509 1905.6 32.4315 Q1911.15 26.1121 1920.91 26.1121 Z" fill="#000000" fill-rule="evenodd" fill-opacity="1" /><path clip-path="url(#clip350)" d="M1991.8 45.1919 L1991.8 72.576 L1984.35 72.576 L1984.35 45.4349 Q1984.35 38.994 1981.84 35.7938 Q1979.33 32.5936 1974.31 32.5936 Q1968.27 32.5936 1964.79 36.4419 Q1961.3 40.2903 1961.3 46.9338 L1961.3 72.576 L1953.81 72.576 L1953.81 27.2059 L1961.3 27.2059 L1961.3 34.2544 Q1963.98 30.163 1967.58 28.1376 Q1971.23 26.1121 1975.97 26.1121 Q1983.78 26.1121 1987.79 30.9732 Q1991.8 35.7938 1991.8 45.1919 Z" fill="#000000" fill-rule="evenodd" fill-opacity="1" /><circle clip-path="url(#clip352)" cx="388.944" cy="1229.6" r="14.4" fill="#ff0000" fill-rule="evenodd" fill-opacity="0.25" stroke="#000000" stroke-opacity="0.25" stroke-width="3.2"/>
<circle clip-path="url(#clip352)" cx="315.32" cy="1386.4" r="14.4" fill="#ff0000" fill-rule="evenodd" fill-opacity="0.25" stroke="#000000" stroke-opacity="0.25" stroke-width="3.2"/>
<circle clip-path="url(#clip352)" cx="823.86" cy="808.299" r="14.4" fill="#ff0000" fill-rule="evenodd" fill-opacity="0.25" stroke="#000000" stroke-opacity="0.25" stroke-width="3.2"/>
<circle clip-path="url(#clip352)" cx="1252.56" cy="495.109" r="14.4" fill="#ff0000" fill-rule="evenodd" fill-opacity="0.25" stroke="#000000" stroke-opacity="0.25" stroke-width="3.2"/>
<circle clip-path="url(#clip352)" cx="2027.65" cy="200.805" r="14.4" fill="#ff0000" fill-rule="evenodd" fill-opacity="0.25" stroke="#000000" stroke-opacity="0.25" stroke-width="3.2"/>
<circle clip-path="url(#clip352)" cx="699.099" cy="803.917" r="14.4" fill="#ff0000" fill-rule="evenodd" fill-opacity="0.25" stroke="#000000" stroke-opacity="0.25" stroke-width="3.2"/>
<circle clip-path="url(#clip352)" cx="1371.75" cy="770.372" r="14.4" fill="#ff0000" fill-rule="evenodd" fill-opacity="0.25" stroke="#000000" stroke-opacity="0.25" stroke-width="3.2"/>
<circle clip-path="url(#clip352)" cx="720.961" cy="925.698" r="14.4" fill="#ff0000" fill-rule="evenodd" fill-opacity="0.25" stroke="#000000" stroke-opacity="0.25" stroke-width="3.2"/>
<circle clip-path="url(#clip352)" cx="1818.28" cy="434.56" r="14.4" fill="#ff0000" fill-rule="evenodd" fill-opacity="0.25" stroke="#000000" stroke-opacity="0.25" stroke-width="3.2"/>
<circle clip-path="url(#clip352)" cx="2044.66" cy="575.871" r="14.4" fill="#ff0000" fill-rule="evenodd" fill-opacity="0.25" stroke="#000000" stroke-opacity="0.25" stroke-width="3.2"/>
<circle clip-path="url(#clip352)" cx="606.29" cy="1203.91" r="14.4" fill="#ff0000" fill-rule="evenodd" fill-opacity="0.25" stroke="#000000" stroke-opacity="0.25" stroke-width="3.2"/>
<circle clip-path="url(#clip352)" cx="790.873" cy="869.432" r="14.4" fill="#ff0000" fill-rule="evenodd" fill-opacity="0.25" stroke="#000000" stroke-opacity="0.25" stroke-width="3.2"/>
<circle clip-path="url(#clip352)" cx="745.126" cy="985.552" r="14.4" fill="#ff0000" fill-rule="evenodd" fill-opacity="0.25" stroke="#000000" stroke-opacity="0.25" stroke-width="3.2"/>
<circle clip-path="url(#clip352)" cx="398.881" cy="1199.35" r="14.4" fill="#ff0000" fill-rule="evenodd" fill-opacity="0.25" stroke="#000000" stroke-opacity="0.25" stroke-width="3.2"/>
<circle clip-path="url(#clip352)" cx="935.89" cy="1028.57" r="14.4" fill="#ff0000" fill-rule="evenodd" fill-opacity="0.25" stroke="#000000" stroke-opacity="0.25" stroke-width="3.2"/>
<circle clip-path="url(#clip352)" cx="631.449" cy="1275.98" r="14.4" fill="#ff0000" fill-rule="evenodd" fill-opacity="0.25" stroke="#000000" stroke-opacity="0.25" stroke-width="3.2"/>
<circle clip-path="url(#clip352)" cx="1959.27" cy="686.992" r="14.4" fill="#ff0000" fill-rule="evenodd" fill-opacity="0.25" stroke="#000000" stroke-opacity="0.25" stroke-width="3.2"/>
<circle clip-path="url(#clip352)" cx="495.355" cy="1309.66" r="14.4" fill="#ff0000" fill-rule="evenodd" fill-opacity="0.25" stroke="#000000" stroke-opacity="0.25" stroke-width="3.2"/>
<circle clip-path="url(#clip352)" cx="1531.45" cy="557.546" r="14.4" fill="#ff0000" fill-rule="evenodd" fill-opacity="0.25" stroke="#000000" stroke-opacity="0.25" stroke-width="3.2"/>
<circle clip-path="url(#clip352)" cx="1956.36" cy="724.805" r="14.4" fill="#ff0000" fill-rule="evenodd" fill-opacity="0.25" stroke="#000000" stroke-opacity="0.25" stroke-width="3.2"/>
<circle clip-path="url(#clip352)" cx="1859.33" cy="584.853" r="14.4" fill="#ff0000" fill-rule="evenodd" fill-opacity="0.25" stroke="#000000" stroke-opacity="0.25" stroke-width="3.2"/>
<circle clip-path="url(#clip352)" cx="1855.33" cy="397.454" r="14.4" fill="#ff0000" fill-rule="evenodd" fill-opacity="0.25" stroke="#000000" stroke-opacity="0.25" stroke-width="3.2"/>
<circle clip-path="url(#clip352)" cx="514.381" cy="1240.71" r="14.4" fill="#ff0000" fill-rule="evenodd" fill-opacity="0.25" stroke="#000000" stroke-opacity="0.25" stroke-width="3.2"/>
<circle clip-path="url(#clip352)" cx="667.598" cy="996.923" r="14.4" fill="#ff0000" fill-rule="evenodd" fill-opacity="0.25" stroke="#000000" stroke-opacity="0.25" stroke-width="3.2"/>
<circle clip-path="url(#clip352)" cx="1320.36" cy="558.982" r="14.4" fill="#ff0000" fill-rule="evenodd" fill-opacity="0.25" stroke="#000000" stroke-opacity="0.25" stroke-width="3.2"/>
<circle clip-path="url(#clip352)" cx="2252.66" cy="160.256" r="14.4" fill="#ff0000" fill-rule="evenodd" fill-opacity="0.25" stroke="#000000" stroke-opacity="0.25" stroke-width="3.2"/>
<circle clip-path="url(#clip352)" cx="1706.2" cy="341.477" r="14.4" fill="#ff0000" fill-rule="evenodd" fill-opacity="0.25" stroke="#000000" stroke-opacity="0.25" stroke-width="3.2"/>
<circle clip-path="url(#clip352)" cx="1148.82" cy="772.758" r="14.4" fill="#ff0000" fill-rule="evenodd" fill-opacity="0.25" stroke="#000000" stroke-opacity="0.25" stroke-width="3.2"/>
<circle clip-path="url(#clip352)" cx="1954.85" cy="577.322" r="14.4" fill="#ff0000" fill-rule="evenodd" fill-opacity="0.25" stroke="#000000" stroke-opacity="0.25" stroke-width="3.2"/>
<circle clip-path="url(#clip352)" cx="2126.39" cy="422.739" r="14.4" fill="#ff0000" fill-rule="evenodd" fill-opacity="0.25" stroke="#000000" stroke-opacity="0.25" stroke-width="3.2"/>
<circle clip-path="url(#clip352)" cx="2267.34" cy="524.724" r="14.4" fill="#ff0000" fill-rule="evenodd" fill-opacity="0.25" stroke="#000000" stroke-opacity="0.25" stroke-width="3.2"/>
<circle clip-path="url(#clip352)" cx="1260.19" cy="821.305" r="14.4" fill="#ff0000" fill-rule="evenodd" fill-opacity="0.25" stroke="#000000" stroke-opacity="0.25" stroke-width="3.2"/>
<circle clip-path="url(#clip352)" cx="382.904" cy="868.943" r="14.4" fill="#ff0000" fill-rule="evenodd" fill-opacity="0.25" stroke="#000000" stroke-opacity="0.25" stroke-width="3.2"/>
<circle clip-path="url(#clip352)" cx="831.438" cy="868.116" r="14.4" fill="#ff0000" fill-rule="evenodd" fill-opacity="0.25" stroke="#000000" stroke-opacity="0.25" stroke-width="3.2"/>
<circle clip-path="url(#clip352)" cx="1003.92" cy="820.834" r="14.4" fill="#ff0000" fill-rule="evenodd" fill-opacity="0.25" stroke="#000000" stroke-opacity="0.25" stroke-width="3.2"/>
<circle clip-path="url(#clip352)" cx="2210.49" cy="440.443" r="14.4" fill="#ff0000" fill-rule="evenodd" fill-opacity="0.25" stroke="#000000" stroke-opacity="0.25" stroke-width="3.2"/>
<circle clip-path="url(#clip352)" cx="1406.17" cy="663.308" r="14.4" fill="#ff0000" fill-rule="evenodd" fill-opacity="0.25" stroke="#000000" stroke-opacity="0.25" stroke-width="3.2"/>
<circle clip-path="url(#clip352)" cx="650.927" cy="801.221" r="14.4" fill="#ff0000" fill-rule="evenodd" fill-opacity="0.25" stroke="#000000" stroke-opacity="0.25" stroke-width="3.2"/>
<circle clip-path="url(#clip352)" cx="2215.14" cy="627.388" r="14.4" fill="#ff0000" fill-rule="evenodd" fill-opacity="0.25" stroke="#000000" stroke-opacity="0.25" stroke-width="3.2"/>
<circle clip-path="url(#clip352)" cx="649.169" cy="1270.41" r="14.4" fill="#ff0000" fill-rule="evenodd" fill-opacity="0.25" stroke="#000000" stroke-opacity="0.25" stroke-width="3.2"/>
<circle clip-path="url(#clip352)" cx="1808.48" cy="291.161" r="14.4" fill="#ff0000" fill-rule="evenodd" fill-opacity="0.25" stroke="#000000" stroke-opacity="0.25" stroke-width="3.2"/>
<circle clip-path="url(#clip352)" cx="2016.68" cy="593.415" r="14.4" fill="#ff0000" fill-rule="evenodd" fill-opacity="0.25" stroke="#000000" stroke-opacity="0.25" stroke-width="3.2"/>
<circle clip-path="url(#clip352)" cx="1278.8" cy="590.107" r="14.4" fill="#ff0000" fill-rule="evenodd" fill-opacity="0.25" stroke="#000000" stroke-opacity="0.25" stroke-width="3.2"/>
<circle clip-path="url(#clip352)" cx="1817.66" cy="479.862" r="14.4" fill="#ff0000" fill-rule="evenodd" fill-opacity="0.25" stroke="#000000" stroke-opacity="0.25" stroke-width="3.2"/>
<circle clip-path="url(#clip352)" cx="540.163" cy="963.08" r="14.4" fill="#ff0000" fill-rule="evenodd" fill-opacity="0.25" stroke="#000000" stroke-opacity="0.25" stroke-width="3.2"/>
<circle clip-path="url(#clip352)" cx="1915.56" cy="831.938" r="14.4" fill="#ff0000" fill-rule="evenodd" fill-opacity="0.25" stroke="#000000" stroke-opacity="0.25" stroke-width="3.2"/>
<circle clip-path="url(#clip352)" cx="1464.6" cy="624.372" r="14.4" fill="#ff0000" fill-rule="evenodd" fill-opacity="0.25" stroke="#000000" stroke-opacity="0.25" stroke-width="3.2"/>
<circle clip-path="url(#clip352)" cx="1727.14" cy="845.385" r="14.4" fill="#ff0000" fill-rule="evenodd" fill-opacity="0.25" stroke="#000000" stroke-opacity="0.25" stroke-width="3.2"/>
<circle clip-path="url(#clip352)" cx="568.559" cy="1301.05" r="14.4" fill="#ff0000" fill-rule="evenodd" fill-opacity="0.25" stroke="#000000" stroke-opacity="0.25" stroke-width="3.2"/>
<circle clip-path="url(#clip352)" cx="332.888" cy="1151.6" r="14.4" fill="#ff0000" fill-rule="evenodd" fill-opacity="0.25" stroke="#000000" stroke-opacity="0.25" stroke-width="3.2"/>
<circle clip-path="url(#clip352)" cx="1537.5" cy="514.406" r="14.4" fill="#ff0000" fill-rule="evenodd" fill-opacity="0.25" stroke="#000000" stroke-opacity="0.25" stroke-width="3.2"/>
<circle clip-path="url(#clip352)" cx="2019.67" cy="327.346" r="14.4" fill="#ff0000" fill-rule="evenodd" fill-opacity="0.25" stroke="#000000" stroke-opacity="0.25" stroke-width="3.2"/>
<circle clip-path="url(#clip352)" cx="1581.24" cy="588.164" r="14.4" fill="#ff0000" fill-rule="evenodd" fill-opacity="0.25" stroke="#000000" stroke-opacity="0.25" stroke-width="3.2"/>
<circle clip-path="url(#clip352)" cx="861.782" cy="1052" r="14.4" fill="#ff0000" fill-rule="evenodd" fill-opacity="0.25" stroke="#000000" stroke-opacity="0.25" stroke-width="3.2"/>
<circle clip-path="url(#clip352)" cx="875.898" cy="1180.06" r="14.4" fill="#ff0000" fill-rule="evenodd" fill-opacity="0.25" stroke="#000000" stroke-opacity="0.25" stroke-width="3.2"/>
<circle clip-path="url(#clip352)" cx="1663.91" cy="930.3" r="14.4" fill="#ff0000" fill-rule="evenodd" fill-opacity="0.25" stroke="#000000" stroke-opacity="0.25" stroke-width="3.2"/>
<circle clip-path="url(#clip352)" cx="2127.5" cy="185.31" r="14.4" fill="#ff0000" fill-rule="evenodd" fill-opacity="0.25" stroke="#000000" stroke-opacity="0.25" stroke-width="3.2"/>
<circle clip-path="url(#clip352)" cx="735.938" cy="953.525" r="14.4" fill="#ff0000" fill-rule="evenodd" fill-opacity="0.25" stroke="#000000" stroke-opacity="0.25" stroke-width="3.2"/>
<circle clip-path="url(#clip352)" cx="740.662" cy="1241.5" r="14.4" fill="#ff0000" fill-rule="evenodd" fill-opacity="0.25" stroke="#000000" stroke-opacity="0.25" stroke-width="3.2"/>
<circle clip-path="url(#clip352)" cx="1442.89" cy="518.082" r="14.4" fill="#ff0000" fill-rule="evenodd" fill-opacity="0.25" stroke="#000000" stroke-opacity="0.25" stroke-width="3.2"/>
<circle clip-path="url(#clip352)" cx="1981.93" cy="340.318" r="14.4" fill="#ff0000" fill-rule="evenodd" fill-opacity="0.25" stroke="#000000" stroke-opacity="0.25" stroke-width="3.2"/>
<circle clip-path="url(#clip352)" cx="1210.69" cy="737.654" r="14.4" fill="#ff0000" fill-rule="evenodd" fill-opacity="0.25" stroke="#000000" stroke-opacity="0.25" stroke-width="3.2"/>
<circle clip-path="url(#clip352)" cx="380.545" cy="1325.88" r="14.4" fill="#ff0000" fill-rule="evenodd" fill-opacity="0.25" stroke="#000000" stroke-opacity="0.25" stroke-width="3.2"/>
<circle clip-path="url(#clip352)" cx="523.142" cy="1117.7" r="14.4" fill="#ff0000" fill-rule="evenodd" fill-opacity="0.25" stroke="#000000" stroke-opacity="0.25" stroke-width="3.2"/>
<circle clip-path="url(#clip352)" cx="390.962" cy="936.189" r="14.4" fill="#ff0000" fill-rule="evenodd" fill-opacity="0.25" stroke="#000000" stroke-opacity="0.25" stroke-width="3.2"/>
<circle clip-path="url(#clip352)" cx="1817.15" cy="648.886" r="14.4" fill="#ff0000" fill-rule="evenodd" fill-opacity="0.25" stroke="#000000" stroke-opacity="0.25" stroke-width="3.2"/>
<circle clip-path="url(#clip352)" cx="1849.34" cy="566.679" r="14.4" fill="#ff0000" fill-rule="evenodd" fill-opacity="0.25" stroke="#000000" stroke-opacity="0.25" stroke-width="3.2"/>
<circle clip-path="url(#clip352)" cx="2232.9" cy="330.166" r="14.4" fill="#ff0000" fill-rule="evenodd" fill-opacity="0.25" stroke="#000000" stroke-opacity="0.25" stroke-width="3.2"/>
<circle clip-path="url(#clip352)" cx="429.632" cy="1354.2" r="14.4" fill="#ff0000" fill-rule="evenodd" fill-opacity="0.25" stroke="#000000" stroke-opacity="0.25" stroke-width="3.2"/>
<circle clip-path="url(#clip352)" cx="1862.45" cy="828.129" r="14.4" fill="#ff0000" fill-rule="evenodd" fill-opacity="0.25" stroke="#000000" stroke-opacity="0.25" stroke-width="3.2"/>
<circle clip-path="url(#clip352)" cx="2202.09" cy="619.306" r="14.4" fill="#ff0000" fill-rule="evenodd" fill-opacity="0.25" stroke="#000000" stroke-opacity="0.25" stroke-width="3.2"/>
<circle clip-path="url(#clip352)" cx="1297.83" cy="635.346" r="14.4" fill="#ff0000" fill-rule="evenodd" fill-opacity="0.25" stroke="#000000" stroke-opacity="0.25" stroke-width="3.2"/>
<circle clip-path="url(#clip352)" cx="1283.5" cy="809.336" r="14.4" fill="#ff0000" fill-rule="evenodd" fill-opacity="0.25" stroke="#000000" stroke-opacity="0.25" stroke-width="3.2"/>
<circle clip-path="url(#clip352)" cx="532.81" cy="1124.01" r="14.4" fill="#ff0000" fill-rule="evenodd" fill-opacity="0.25" stroke="#000000" stroke-opacity="0.25" stroke-width="3.2"/>
<circle clip-path="url(#clip352)" cx="1936.29" cy="750.026" r="14.4" fill="#ff0000" fill-rule="evenodd" fill-opacity="0.25" stroke="#000000" stroke-opacity="0.25" stroke-width="3.2"/>
<circle clip-path="url(#clip352)" cx="1132.58" cy="804.448" r="14.4" fill="#ff0000" fill-rule="evenodd" fill-opacity="0.25" stroke="#000000" stroke-opacity="0.25" stroke-width="3.2"/>
<circle clip-path="url(#clip352)" cx="1897.55" cy="373.24" r="14.4" fill="#ff0000" fill-rule="evenodd" fill-opacity="0.25" stroke="#000000" stroke-opacity="0.25" stroke-width="3.2"/>
<circle clip-path="url(#clip352)" cx="1863.83" cy="362.373" r="14.4" fill="#ff0000" fill-rule="evenodd" fill-opacity="0.25" stroke="#000000" stroke-opacity="0.25" stroke-width="3.2"/>
<circle clip-path="url(#clip352)" cx="1444.72" cy="454.105" r="14.4" fill="#ff0000" fill-rule="evenodd" fill-opacity="0.25" stroke="#000000" stroke-opacity="0.25" stroke-width="3.2"/>
<circle clip-path="url(#clip352)" cx="1501.85" cy="952.527" r="14.4" fill="#ff0000" fill-rule="evenodd" fill-opacity="0.25" stroke="#000000" stroke-opacity="0.25" stroke-width="3.2"/>
<circle clip-path="url(#clip352)" cx="572.747" cy="1323.67" r="14.4" fill="#ff0000" fill-rule="evenodd" fill-opacity="0.25" stroke="#000000" stroke-opacity="0.25" stroke-width="3.2"/>
<circle clip-path="url(#clip352)" cx="1115.02" cy="781.778" r="14.4" fill="#ff0000" fill-rule="evenodd" fill-opacity="0.25" stroke="#000000" stroke-opacity="0.25" stroke-width="3.2"/>
<circle clip-path="url(#clip352)" cx="1623.87" cy="355.465" r="14.4" fill="#ff0000" fill-rule="evenodd" fill-opacity="0.25" stroke="#000000" stroke-opacity="0.25" stroke-width="3.2"/>
<circle clip-path="url(#clip352)" cx="501.838" cy="1252.87" r="14.4" fill="#ff0000" fill-rule="evenodd" fill-opacity="0.25" stroke="#000000" stroke-opacity="0.25" stroke-width="3.2"/>
<circle clip-path="url(#clip352)" cx="1088.39" cy="601.848" r="14.4" fill="#ff0000" fill-rule="evenodd" fill-opacity="0.25" stroke="#000000" stroke-opacity="0.25" stroke-width="3.2"/>
<circle clip-path="url(#clip352)" cx="473.704" cy="883.27" r="14.4" fill="#ff0000" fill-rule="evenodd" fill-opacity="0.25" stroke="#000000" stroke-opacity="0.25" stroke-width="3.2"/>
<circle clip-path="url(#clip352)" cx="1917.37" cy="556.163" r="14.4" fill="#ff0000" fill-rule="evenodd" fill-opacity="0.25" stroke="#000000" stroke-opacity="0.25" stroke-width="3.2"/>
<circle clip-path="url(#clip352)" cx="2021.46" cy="484.173" r="14.4" fill="#ff0000" fill-rule="evenodd" fill-opacity="0.25" stroke="#000000" stroke-opacity="0.25" stroke-width="3.2"/>
<circle clip-path="url(#clip352)" cx="2218.81" cy="336" r="14.4" fill="#ff0000" fill-rule="evenodd" fill-opacity="0.25" stroke="#000000" stroke-opacity="0.25" stroke-width="3.2"/>
<circle clip-path="url(#clip352)" cx="2006.27" cy="375.852" r="14.4" fill="#ff0000" fill-rule="evenodd" fill-opacity="0.25" stroke="#000000" stroke-opacity="0.25" stroke-width="3.2"/>
<circle clip-path="url(#clip352)" cx="576.648" cy="1082.39" r="14.4" fill="#ff0000" fill-rule="evenodd" fill-opacity="0.25" stroke="#000000" stroke-opacity="0.25" stroke-width="3.2"/>
<circle clip-path="url(#clip352)" cx="756.108" cy="1206.93" r="14.4" fill="#ff0000" fill-rule="evenodd" fill-opacity="0.25" stroke="#000000" stroke-opacity="0.25" stroke-width="3.2"/>
<circle clip-path="url(#clip352)" cx="1355.91" cy="888.679" r="14.4" fill="#ff0000" fill-rule="evenodd" fill-opacity="0.25" stroke="#000000" stroke-opacity="0.25" stroke-width="3.2"/>
<circle clip-path="url(#clip352)" cx="454.063" cy="1282.53" r="14.4" fill="#ff0000" fill-rule="evenodd" fill-opacity="0.25" stroke="#000000" stroke-opacity="0.25" stroke-width="3.2"/>
<circle clip-path="url(#clip352)" cx="1781.85" cy="665.668" r="14.4" fill="#ff0000" fill-rule="evenodd" fill-opacity="0.25" stroke="#000000" stroke-opacity="0.25" stroke-width="3.2"/>
<circle clip-path="url(#clip352)" cx="2132.97" cy="600.325" r="14.4" fill="#ff0000" fill-rule="evenodd" fill-opacity="0.25" stroke="#000000" stroke-opacity="0.25" stroke-width="3.2"/>
<circle clip-path="url(#clip352)" cx="1228.81" cy="800.925" r="14.4" fill="#ff0000" fill-rule="evenodd" fill-opacity="0.25" stroke="#000000" stroke-opacity="0.25" stroke-width="3.2"/>
<circle clip-path="url(#clip352)" cx="1234.04" cy="1066.65" r="14.4" fill="#ff0000" fill-rule="evenodd" fill-opacity="0.25" stroke="#000000" stroke-opacity="0.25" stroke-width="3.2"/>
<circle clip-path="url(#clip352)" cx="2096.77" cy="741.75" r="14.4" fill="#ff0000" fill-rule="evenodd" fill-opacity="0.25" stroke="#000000" stroke-opacity="0.25" stroke-width="3.2"/>
<circle clip-path="url(#clip352)" cx="1790.91" cy="553.857" r="14.4" fill="#ff0000" fill-rule="evenodd" fill-opacity="0.25" stroke="#000000" stroke-opacity="0.25" stroke-width="3.2"/>
<circle clip-path="url(#clip352)" cx="942.75" cy="964.707" r="14.4" fill="#ff0000" fill-rule="evenodd" fill-opacity="0.25" stroke="#000000" stroke-opacity="0.25" stroke-width="3.2"/>
<circle clip-path="url(#clip352)" cx="533.752" cy="752.354" r="14.4" fill="#ff0000" fill-rule="evenodd" fill-opacity="0.25" stroke="#000000" stroke-opacity="0.25" stroke-width="3.2"/>
<circle clip-path="url(#clip352)" cx="347.864" cy="911.551" r="14.4" fill="#ff0000" fill-rule="evenodd" fill-opacity="0.25" stroke="#000000" stroke-opacity="0.25" stroke-width="3.2"/>
<circle clip-path="url(#clip352)" cx="1935.11" cy="301.972" r="14.4" fill="#ff0000" fill-rule="evenodd" fill-opacity="0.25" stroke="#000000" stroke-opacity="0.25" stroke-width="3.2"/>
<circle clip-path="url(#clip352)" cx="1898.15" cy="342.557" r="14.4" fill="#ff0000" fill-rule="evenodd" fill-opacity="0.25" stroke="#000000" stroke-opacity="0.25" stroke-width="3.2"/>
<circle clip-path="url(#clip352)" cx="598.311" cy="1151.75" r="14.4" fill="#ff0000" fill-rule="evenodd" fill-opacity="0.25" stroke="#000000" stroke-opacity="0.25" stroke-width="3.2"/>
<circle clip-path="url(#clip352)" cx="1996.97" cy="672.411" r="14.4" fill="#ff0000" fill-rule="evenodd" fill-opacity="0.25" stroke="#000000" stroke-opacity="0.25" stroke-width="3.2"/>
<circle clip-path="url(#clip352)" cx="1970.35" cy="458.638" r="14.4" fill="#ff0000" fill-rule="evenodd" fill-opacity="0.25" stroke="#000000" stroke-opacity="0.25" stroke-width="3.2"/>
<circle clip-path="url(#clip352)" cx="850.947" cy="1198.89" r="14.4" fill="#ff0000" fill-rule="evenodd" fill-opacity="0.25" stroke="#000000" stroke-opacity="0.25" stroke-width="3.2"/>
<circle clip-path="url(#clip352)" cx="657.234" cy="898.01" r="14.4" fill="#ff0000" fill-rule="evenodd" fill-opacity="0.25" stroke="#000000" stroke-opacity="0.25" stroke-width="3.2"/>
<circle clip-path="url(#clip352)" cx="374.18" cy="1328.6" r="14.4" fill="#ff0000" fill-rule="evenodd" fill-opacity="0.25" stroke="#000000" stroke-opacity="0.25" stroke-width="3.2"/>
<circle clip-path="url(#clip352)" cx="1063.03" cy="596.088" r="14.4" fill="#ff0000" fill-rule="evenodd" fill-opacity="0.25" stroke="#000000" stroke-opacity="0.25" stroke-width="3.2"/>
<circle clip-path="url(#clip352)" cx="1092.48" cy="660.429" r="14.4" fill="#ff0000" fill-rule="evenodd" fill-opacity="0.25" stroke="#000000" stroke-opacity="0.25" stroke-width="3.2"/>
<circle clip-path="url(#clip352)" cx="828.862" cy="867.501" r="14.4" fill="#ff0000" fill-rule="evenodd" fill-opacity="0.25" stroke="#000000" stroke-opacity="0.25" stroke-width="3.2"/>
<circle clip-path="url(#clip352)" cx="774.978" cy="929.674" r="14.4" fill="#ff0000" fill-rule="evenodd" fill-opacity="0.25" stroke="#000000" stroke-opacity="0.25" stroke-width="3.2"/>
<circle clip-path="url(#clip352)" cx="398.914" cy="963.565" r="14.4" fill="#ff0000" fill-rule="evenodd" fill-opacity="0.25" stroke="#000000" stroke-opacity="0.25" stroke-width="3.2"/>
<circle clip-path="url(#clip352)" cx="972.285" cy="718.916" r="14.4" fill="#ff0000" fill-rule="evenodd" fill-opacity="0.25" stroke="#000000" stroke-opacity="0.25" stroke-width="3.2"/>
<circle clip-path="url(#clip352)" cx="982.771" cy="698.822" r="14.4" fill="#ff0000" fill-rule="evenodd" fill-opacity="0.25" stroke="#000000" stroke-opacity="0.25" stroke-width="3.2"/>
<circle clip-path="url(#clip352)" cx="1283.36" cy="629.082" r="14.4" fill="#ff0000" fill-rule="evenodd" fill-opacity="0.25" stroke="#000000" stroke-opacity="0.25" stroke-width="3.2"/>
<circle clip-path="url(#clip352)" cx="545.201" cy="1333.04" r="14.4" fill="#ff0000" fill-rule="evenodd" fill-opacity="0.25" stroke="#000000" stroke-opacity="0.25" stroke-width="3.2"/>
<circle clip-path="url(#clip352)" cx="1702.21" cy="764.549" r="14.4" fill="#ff0000" fill-rule="evenodd" fill-opacity="0.25" stroke="#000000" stroke-opacity="0.25" stroke-width="3.2"/>
<circle clip-path="url(#clip352)" cx="1828.94" cy="580.761" r="14.4" fill="#ff0000" fill-rule="evenodd" fill-opacity="0.25" stroke="#000000" stroke-opacity="0.25" stroke-width="3.2"/>
<circle clip-path="url(#clip352)" cx="1492.94" cy="854.214" r="14.4" fill="#ff0000" fill-rule="evenodd" fill-opacity="0.25" stroke="#000000" stroke-opacity="0.25" stroke-width="3.2"/>
<circle clip-path="url(#clip352)" cx="480.547" cy="890.078" r="14.4" fill="#ff0000" fill-rule="evenodd" fill-opacity="0.25" stroke="#000000" stroke-opacity="0.25" stroke-width="3.2"/>
<circle clip-path="url(#clip352)" cx="2194.99" cy="522.771" r="14.4" fill="#ff0000" fill-rule="evenodd" fill-opacity="0.25" stroke="#000000" stroke-opacity="0.25" stroke-width="3.2"/>
<circle clip-path="url(#clip352)" cx="1592.51" cy="838.268" r="14.4" fill="#ff0000" fill-rule="evenodd" fill-opacity="0.25" stroke="#000000" stroke-opacity="0.25" stroke-width="3.2"/>
<circle clip-path="url(#clip352)" cx="1058.73" cy="674.72" r="14.4" fill="#ff0000" fill-rule="evenodd" fill-opacity="0.25" stroke="#000000" stroke-opacity="0.25" stroke-width="3.2"/>
<circle clip-path="url(#clip352)" cx="425.427" cy="1122.64" r="14.4" fill="#ff0000" fill-rule="evenodd" fill-opacity="0.25" stroke="#000000" stroke-opacity="0.25" stroke-width="3.2"/>
<circle clip-path="url(#clip352)" cx="2159.31" cy="469.447" r="14.4" fill="#ff0000" fill-rule="evenodd" fill-opacity="0.25" stroke="#000000" stroke-opacity="0.25" stroke-width="3.2"/>
<circle clip-path="url(#clip352)" cx="747.193" cy="1106.57" r="14.4" fill="#ff0000" fill-rule="evenodd" fill-opacity="0.25" stroke="#000000" stroke-opacity="0.25" stroke-width="3.2"/>
<circle clip-path="url(#clip352)" cx="613.332" cy="875.43" r="14.4" fill="#ff0000" fill-rule="evenodd" fill-opacity="0.25" stroke="#000000" stroke-opacity="0.25" stroke-width="3.2"/>
<circle clip-path="url(#clip352)" cx="1231.75" cy="952.183" r="14.4" fill="#ff0000" fill-rule="evenodd" fill-opacity="0.25" stroke="#000000" stroke-opacity="0.25" stroke-width="3.2"/>
<circle clip-path="url(#clip352)" cx="953.057" cy="1054.18" r="14.4" fill="#ff0000" fill-rule="evenodd" fill-opacity="0.25" stroke="#000000" stroke-opacity="0.25" stroke-width="3.2"/>
<circle clip-path="url(#clip352)" cx="1701.89" cy="749.355" r="14.4" fill="#ff0000" fill-rule="evenodd" fill-opacity="0.25" stroke="#000000" stroke-opacity="0.25" stroke-width="3.2"/>
<circle clip-path="url(#clip352)" cx="1773.77" cy="327.533" r="14.4" fill="#ff0000" fill-rule="evenodd" fill-opacity="0.25" stroke="#000000" stroke-opacity="0.25" stroke-width="3.2"/>
<circle clip-path="url(#clip352)" cx="1059.88" cy="885.46" r="14.4" fill="#ff0000" fill-rule="evenodd" fill-opacity="0.25" stroke="#000000" stroke-opacity="0.25" stroke-width="3.2"/>
<circle clip-path="url(#clip352)" cx="916.832" cy="631.938" r="14.4" fill="#ff0000" fill-rule="evenodd" fill-opacity="0.25" stroke="#000000" stroke-opacity="0.25" stroke-width="3.2"/>
<circle clip-path="url(#clip352)" cx="2041.47" cy="540.44" r="14.4" fill="#ff0000" fill-rule="evenodd" fill-opacity="0.25" stroke="#000000" stroke-opacity="0.25" stroke-width="3.2"/>
<circle clip-path="url(#clip352)" cx="722.123" cy="849.123" r="14.4" fill="#ff0000" fill-rule="evenodd" fill-opacity="0.25" stroke="#000000" stroke-opacity="0.25" stroke-width="3.2"/>
<circle clip-path="url(#clip352)" cx="592.642" cy="781.32" r="14.4" fill="#ff0000" fill-rule="evenodd" fill-opacity="0.25" stroke="#000000" stroke-opacity="0.25" stroke-width="3.2"/>
<circle clip-path="url(#clip352)" cx="1875.61" cy="679.456" r="14.4" fill="#ff0000" fill-rule="evenodd" fill-opacity="0.25" stroke="#000000" stroke-opacity="0.25" stroke-width="3.2"/>
<circle clip-path="url(#clip352)" cx="2135.39" cy="704.174" r="14.4" fill="#ff0000" fill-rule="evenodd" fill-opacity="0.25" stroke="#000000" stroke-opacity="0.25" stroke-width="3.2"/>
<circle clip-path="url(#clip352)" cx="2127.7" cy="693.088" r="14.4" fill="#ff0000" fill-rule="evenodd" fill-opacity="0.25" stroke="#000000" stroke-opacity="0.25" stroke-width="3.2"/>
<circle clip-path="url(#clip352)" cx="1995.47" cy="473.062" r="14.4" fill="#ff0000" fill-rule="evenodd" fill-opacity="0.25" stroke="#000000" stroke-opacity="0.25" stroke-width="3.2"/>
<circle clip-path="url(#clip352)" cx="2179.4" cy="629.126" r="14.4" fill="#ff0000" fill-rule="evenodd" fill-opacity="0.25" stroke="#000000" stroke-opacity="0.25" stroke-width="3.2"/>
<circle clip-path="url(#clip352)" cx="1692.51" cy="801.121" r="14.4" fill="#ff0000" fill-rule="evenodd" fill-opacity="0.25" stroke="#000000" stroke-opacity="0.25" stroke-width="3.2"/>
<circle clip-path="url(#clip352)" cx="1843.02" cy="368.708" r="14.4" fill="#ff0000" fill-rule="evenodd" fill-opacity="0.25" stroke="#000000" stroke-opacity="0.25" stroke-width="3.2"/>
<circle clip-path="url(#clip352)" cx="1819.84" cy="878.926" r="14.4" fill="#ff0000" fill-rule="evenodd" fill-opacity="0.25" stroke="#000000" stroke-opacity="0.25" stroke-width="3.2"/>
<circle clip-path="url(#clip352)" cx="1395.59" cy="930.81" r="14.4" fill="#ff0000" fill-rule="evenodd" fill-opacity="0.25" stroke="#000000" stroke-opacity="0.25" stroke-width="3.2"/>
<circle clip-path="url(#clip352)" cx="810.508" cy="1071.99" r="14.4" fill="#ff0000" fill-rule="evenodd" fill-opacity="0.25" stroke="#000000" stroke-opacity="0.25" stroke-width="3.2"/>
<circle clip-path="url(#clip352)" cx="1760.24" cy="543.298" r="14.4" fill="#ff0000" fill-rule="evenodd" fill-opacity="0.25" stroke="#000000" stroke-opacity="0.25" stroke-width="3.2"/>
<circle clip-path="url(#clip352)" cx="1946.36" cy="768.553" r="14.4" fill="#ff0000" fill-rule="evenodd" fill-opacity="0.25" stroke="#000000" stroke-opacity="0.25" stroke-width="3.2"/>
<circle clip-path="url(#clip352)" cx="458.447" cy="1038.05" r="14.4" fill="#ff0000" fill-rule="evenodd" fill-opacity="0.25" stroke="#000000" stroke-opacity="0.25" stroke-width="3.2"/>
<circle clip-path="url(#clip352)" cx="1425.48" cy="834.2" r="14.4" fill="#ff0000" fill-rule="evenodd" fill-opacity="0.25" stroke="#000000" stroke-opacity="0.25" stroke-width="3.2"/>
<circle clip-path="url(#clip352)" cx="2047.54" cy="610.65" r="14.4" fill="#ff0000" fill-rule="evenodd" fill-opacity="0.25" stroke="#000000" stroke-opacity="0.25" stroke-width="3.2"/>
<circle clip-path="url(#clip352)" cx="1728.05" cy="575.766" r="14.4" fill="#ff0000" fill-rule="evenodd" fill-opacity="0.25" stroke="#000000" stroke-opacity="0.25" stroke-width="3.2"/>
<circle clip-path="url(#clip352)" cx="2276.8" cy="661.361" r="14.4" fill="#ff0000" fill-rule="evenodd" fill-opacity="0.25" stroke="#000000" stroke-opacity="0.25" stroke-width="3.2"/>
<circle clip-path="url(#clip352)" cx="2255.79" cy="407.977" r="14.4" fill="#ff0000" fill-rule="evenodd" fill-opacity="0.25" stroke="#000000" stroke-opacity="0.25" stroke-width="3.2"/>
<circle clip-path="url(#clip352)" cx="975.213" cy="857.808" r="14.4" fill="#ff0000" fill-rule="evenodd" fill-opacity="0.25" stroke="#000000" stroke-opacity="0.25" stroke-width="3.2"/>
<circle clip-path="url(#clip352)" cx="771.664" cy="1099.98" r="14.4" fill="#ff0000" fill-rule="evenodd" fill-opacity="0.25" stroke="#000000" stroke-opacity="0.25" stroke-width="3.2"/>
<circle clip-path="url(#clip352)" cx="1894.9" cy="833.975" r="14.4" fill="#ff0000" fill-rule="evenodd" fill-opacity="0.25" stroke="#000000" stroke-opacity="0.25" stroke-width="3.2"/>
<circle clip-path="url(#clip352)" cx="383.863" cy="1051.51" r="14.4" fill="#ff0000" fill-rule="evenodd" fill-opacity="0.25" stroke="#000000" stroke-opacity="0.25" stroke-width="3.2"/>
<circle clip-path="url(#clip352)" cx="2293.41" cy="316.568" r="14.4" fill="#ff0000" fill-rule="evenodd" fill-opacity="0.25" stroke="#000000" stroke-opacity="0.25" stroke-width="3.2"/>
<circle clip-path="url(#clip352)" cx="950.132" cy="640.959" r="14.4" fill="#ff0000" fill-rule="evenodd" fill-opacity="0.25" stroke="#000000" stroke-opacity="0.25" stroke-width="3.2"/>
<circle clip-path="url(#clip352)" cx="1513.2" cy="953.497" r="14.4" fill="#ff0000" fill-rule="evenodd" fill-opacity="0.25" stroke="#000000" stroke-opacity="0.25" stroke-width="3.2"/>
<circle clip-path="url(#clip352)" cx="2187.17" cy="424.619" r="14.4" fill="#ff0000" fill-rule="evenodd" fill-opacity="0.25" stroke="#000000" stroke-opacity="0.25" stroke-width="3.2"/>
<circle clip-path="url(#clip352)" cx="1327.19" cy="936.01" r="14.4" fill="#ff0000" fill-rule="evenodd" fill-opacity="0.25" stroke="#000000" stroke-opacity="0.25" stroke-width="3.2"/>
<circle clip-path="url(#clip352)" cx="919.676" cy="1108.77" r="14.4" fill="#ff0000" fill-rule="evenodd" fill-opacity="0.25" stroke="#000000" stroke-opacity="0.25" stroke-width="3.2"/>
<circle clip-path="url(#clip352)" cx="1163.4" cy="972.262" r="14.4" fill="#ff0000" fill-rule="evenodd" fill-opacity="0.25" stroke="#000000" stroke-opacity="0.25" stroke-width="3.2"/>
<circle clip-path="url(#clip352)" cx="656.922" cy="774.475" r="14.4" fill="#ff0000" fill-rule="evenodd" fill-opacity="0.25" stroke="#000000" stroke-opacity="0.25" stroke-width="3.2"/>
<circle clip-path="url(#clip352)" cx="528.616" cy="1094.02" r="14.4" fill="#ff0000" fill-rule="evenodd" fill-opacity="0.25" stroke="#000000" stroke-opacity="0.25" stroke-width="3.2"/>
<circle clip-path="url(#clip352)" cx="1519.78" cy="542.011" r="14.4" fill="#ff0000" fill-rule="evenodd" fill-opacity="0.25" stroke="#000000" stroke-opacity="0.25" stroke-width="3.2"/>
<circle clip-path="url(#clip352)" cx="998.663" cy="589.422" r="14.4" fill="#ff0000" fill-rule="evenodd" fill-opacity="0.25" stroke="#000000" stroke-opacity="0.25" stroke-width="3.2"/>
<circle clip-path="url(#clip352)" cx="1385.32" cy="761.79" r="14.4" fill="#ff0000" fill-rule="evenodd" fill-opacity="0.25" stroke="#000000" stroke-opacity="0.25" stroke-width="3.2"/>
<circle clip-path="url(#clip352)" cx="550.049" cy="822.429" r="14.4" fill="#ff0000" fill-rule="evenodd" fill-opacity="0.25" stroke="#000000" stroke-opacity="0.25" stroke-width="3.2"/>
<circle clip-path="url(#clip352)" cx="1016.84" cy="1034.73" r="14.4" fill="#ff0000" fill-rule="evenodd" fill-opacity="0.25" stroke="#000000" stroke-opacity="0.25" stroke-width="3.2"/>
<circle clip-path="url(#clip352)" cx="1316.86" cy="981.627" r="14.4" fill="#ff0000" fill-rule="evenodd" fill-opacity="0.25" stroke="#000000" stroke-opacity="0.25" stroke-width="3.2"/>
<circle clip-path="url(#clip352)" cx="885.858" cy="988.364" r="14.4" fill="#ff0000" fill-rule="evenodd" fill-opacity="0.25" stroke="#000000" stroke-opacity="0.25" stroke-width="3.2"/>
<circle clip-path="url(#clip352)" cx="1321.52" cy="816.115" r="14.4" fill="#ff0000" fill-rule="evenodd" fill-opacity="0.25" stroke="#000000" stroke-opacity="0.25" stroke-width="3.2"/>
<circle clip-path="url(#clip352)" cx="1528.7" cy="726.266" r="14.4" fill="#ff0000" fill-rule="evenodd" fill-opacity="0.25" stroke="#000000" stroke-opacity="0.25" stroke-width="3.2"/>
<circle clip-path="url(#clip352)" cx="1973.52" cy="709.681" r="14.4" fill="#ff0000" fill-rule="evenodd" fill-opacity="0.25" stroke="#000000" stroke-opacity="0.25" stroke-width="3.2"/>
<circle clip-path="url(#clip352)" cx="1750.39" cy="474.442" r="14.4" fill="#ff0000" fill-rule="evenodd" fill-opacity="0.25" stroke="#000000" stroke-opacity="0.25" stroke-width="3.2"/>
<circle clip-path="url(#clip352)" cx="1178.59" cy="642.012" r="14.4" fill="#ff0000" fill-rule="evenodd" fill-opacity="0.25" stroke="#000000" stroke-opacity="0.25" stroke-width="3.2"/>
<circle clip-path="url(#clip352)" cx="1578.03" cy="617.189" r="14.4" fill="#ff0000" fill-rule="evenodd" fill-opacity="0.25" stroke="#000000" stroke-opacity="0.25" stroke-width="3.2"/>
<circle clip-path="url(#clip352)" cx="2041.74" cy="579.584" r="14.4" fill="#ff0000" fill-rule="evenodd" fill-opacity="0.25" stroke="#000000" stroke-opacity="0.25" stroke-width="3.2"/>
<circle clip-path="url(#clip352)" cx="2182.73" cy="733.542" r="14.4" fill="#ff0000" fill-rule="evenodd" fill-opacity="0.25" stroke="#000000" stroke-opacity="0.25" stroke-width="3.2"/>
<circle clip-path="url(#clip352)" cx="2128.57" cy="588.022" r="14.4" fill="#ff0000" fill-rule="evenodd" fill-opacity="0.25" stroke="#000000" stroke-opacity="0.25" stroke-width="3.2"/>
<circle clip-path="url(#clip352)" cx="913.701" cy="1007.09" r="14.4" fill="#ff0000" fill-rule="evenodd" fill-opacity="0.25" stroke="#000000" stroke-opacity="0.25" stroke-width="3.2"/>
<circle clip-path="url(#clip352)" cx="1632.04" cy="562.261" r="14.4" fill="#ff0000" fill-rule="evenodd" fill-opacity="0.25" stroke="#000000" stroke-opacity="0.25" stroke-width="3.2"/>
<circle clip-path="url(#clip352)" cx="1701.2" cy="843.151" r="14.4" fill="#ff0000" fill-rule="evenodd" fill-opacity="0.25" stroke="#000000" stroke-opacity="0.25" stroke-width="3.2"/>
<circle clip-path="url(#clip352)" cx="1276.94" cy="1069.51" r="14.4" fill="#ff0000" fill-rule="evenodd" fill-opacity="0.25" stroke="#000000" stroke-opacity="0.25" stroke-width="3.2"/>
<circle clip-path="url(#clip352)" cx="728.029" cy="975.529" r="14.4" fill="#ff0000" fill-rule="evenodd" fill-opacity="0.25" stroke="#000000" stroke-opacity="0.25" stroke-width="3.2"/>
<circle clip-path="url(#clip352)" cx="550.629" cy="814.441" r="14.4" fill="#ff0000" fill-rule="evenodd" fill-opacity="0.25" stroke="#000000" stroke-opacity="0.25" stroke-width="3.2"/>
<circle clip-path="url(#clip352)" cx="2227.55" cy="527.33" r="14.4" fill="#ff0000" fill-rule="evenodd" fill-opacity="0.25" stroke="#000000" stroke-opacity="0.25" stroke-width="3.2"/>
<circle clip-path="url(#clip352)" cx="1899.54" cy="676.256" r="14.4" fill="#ff0000" fill-rule="evenodd" fill-opacity="0.25" stroke="#000000" stroke-opacity="0.25" stroke-width="3.2"/>
<circle clip-path="url(#clip352)" cx="504.953" cy="1291.33" r="14.4" fill="#ff0000" fill-rule="evenodd" fill-opacity="0.25" stroke="#000000" stroke-opacity="0.25" stroke-width="3.2"/>
<circle clip-path="url(#clip352)" cx="639.993" cy="908.39" r="14.4" fill="#ff0000" fill-rule="evenodd" fill-opacity="0.25" stroke="#000000" stroke-opacity="0.25" stroke-width="3.2"/>
<circle clip-path="url(#clip352)" cx="1327.11" cy="604.648" r="14.4" fill="#ff0000" fill-rule="evenodd" fill-opacity="0.25" stroke="#000000" stroke-opacity="0.25" stroke-width="3.2"/>
<circle clip-path="url(#clip352)" cx="860.877" cy="703.647" r="14.4" fill="#ff0000" fill-rule="evenodd" fill-opacity="0.25" stroke="#000000" stroke-opacity="0.25" stroke-width="3.2"/>
<circle clip-path="url(#clip352)" cx="947.647" cy="657.193" r="14.4" fill="#ff0000" fill-rule="evenodd" fill-opacity="0.25" stroke="#000000" stroke-opacity="0.25" stroke-width="3.2"/>
<polyline clip-path="url(#clip352)" style="stroke:#0000ff; stroke-linecap:round; stroke-linejoin:round; stroke-width:4; stroke-opacity:1; fill:none" points="388.944,1096.29 315.32,1121.98 823.86,944.54 1252.56,794.958 2027.65,524.517 699.099,988.071 1371.75,753.372 720.961,980.443 1818.28,597.568 2044.66,518.58 606.29,1020.45 790.873,956.049 745.126,972.011 398.881,1092.82 935.89,905.451 631.449,1011.68 1959.27,548.376 495.355,1059.16 1531.45,697.651 1956.36,549.39 1859.33,583.245 1855.33,584.642 514.381,1052.52 667.598,999.062 1320.36,771.301 2252.66,446.008 1706.2,636.676 1148.82,831.155 1954.85,549.916 2126.39,490.065 2267.34,440.885 1260.19,792.297 382.904,1098.4 831.438,941.896 1003.92,881.715 2210.49,460.721 1406.17,741.36 650.927,1004.88 2215.14,459.097 649.169,1005.49 1808.48,600.987 2016.68,528.345 1278.8,785.803 1817.66,597.786 540.163,1043.53 1915.56,563.626 1464.6,720.975 1727.14,629.369 568.559,1033.62 332.888,1115.85 1537.5,695.538 2019.67,527.301 1581.24,680.278 861.782,931.308 875.898,926.383 1663.91,651.431 2127.5,489.676 735.938,975.217 740.662,973.569 1442.89,728.549 1981.93,540.471 1210.69,809.568 380.545,1099.22 523.142,1049.47 390.962,1095.59 1817.15,597.963 1849.34,586.731 2232.9,452.901 429.632,1082.09 1862.45,582.156 2202.09,463.651 1297.83,779.165 1283.5,784.165 532.81,1046.09 1936.29,556.393 1132.58,836.822 1897.55,569.91 1863.83,581.676 1444.72,727.912 1501.85,707.977 572.747,1032.16 1115.02,842.951 1623.87,665.401 501.838,1056.9 1088.39,852.241 473.704,1066.72 1917.37,562.995 2021.46,526.677 2218.81,457.818 2006.27,531.975 576.648,1030.8 756.108,968.18 1355.91,758.897 454.063,1073.57 1781.85,610.28 2132.97,487.767 1228.81,803.244 1234.04,801.421 2096.77,500.4 1790.91,607.119 942.75,903.057 533.752,1045.76 347.864,1110.62 1935.11,556.805 1898.15,569.702 598.311,1023.24 1996.97,535.221 1970.35,544.509 850.947,935.089 657.234,1002.68 374.18,1101.44 1063.03,861.09 1092.48,850.813 828.862,942.795 774.978,961.596 398.914,1092.81 972.285,892.752 982.771,889.093 1283.36,784.213 545.201,1041.77 1702.21,638.068 1828.94,593.848 1492.94,711.086 480.547,1064.33 2194.99,466.128 1592.51,676.346 1058.73,862.591 425.427,1083.56 2159.31,478.579 747.193,971.29 613.332,1018 1231.75,802.219 953.057,899.461 1701.89,638.178 1773.77,613.099 1059.88,862.189 916.832,912.1 2041.47,519.694 722.123,980.038 592.642,1025.22 1875.61,577.567 2135.39,486.925 2127.7,489.609 1995.47,535.744 2179.4,471.567 1692.51,641.452 1843.02,588.936 1819.84,597.024 1395.59,745.054 810.508,949.199 1760.24,617.821 1946.36,552.881 458.447,1072.04 1425.48,734.623 2047.54,517.576 1728.05,629.052 2276.8,437.583 2255.79,444.913 975.213,891.73 771.664,962.752 1894.9,570.835 383.863,1098.06 2293.41,431.787 950.132,900.481 1513.2,704.017 2187.17,468.859 1327.19,768.919 919.676,911.108 1163.4,826.068 656.922,1002.79 528.616,1047.56 1519.78,701.722 998.663,883.548 1385.32,748.635 550.049,1040.08 1016.84,877.205 1316.86,772.523 885.858,922.908 1321.52,770.898 1528.7,698.608 1973.52,543.405 1750.39,621.256 1178.59,820.767 1578.03,681.398 2041.74,519.601 2182.73,470.405 2128.57,489.304 913.701,913.193 1632.04,662.552 1701.2,638.422 1276.94,786.453 728.029,977.977 550.629,1039.87 2227.55,454.768 1899.54,569.215 504.953,1055.81 639.993,1008.69 1327.11,768.948 860.877,931.624 947.647,901.348 "/>
<path clip-path="url(#clip350)" d="M325.87 322.316 L635.408 322.316 L635.408 166.796 L325.87 166.796  Z" fill="#ffffff" fill-rule="evenodd" fill-opacity="1"/>
<polyline clip-path="url(#clip350)" style="stroke:#000000; stroke-linecap:round; stroke-linejoin:round; stroke-width:4; stroke-opacity:1; fill:none" points="325.87,322.316 635.408,322.316 635.408,166.796 325.87,166.796 325.87,322.316 "/>
<circle clip-path="url(#clip350)" cx="419.06" cy="218.636" r="23.04" fill="#ff0000" fill-rule="evenodd" fill-opacity="0.25" stroke="#000000" stroke-opacity="0.25" stroke-width="5.12"/>
<path clip-path="url(#clip350)" d="M531.162 213.925 L531.162 199.897 L535.421 199.897 L535.421 235.916 L531.162 235.916 L531.162 232.027 Q529.819 234.342 527.759 235.476 Q525.722 236.587 522.852 236.587 Q518.153 236.587 515.19 232.837 Q512.25 229.087 512.25 222.976 Q512.25 216.865 515.19 213.115 Q518.153 209.365 522.852 209.365 Q525.722 209.365 527.759 210.499 Q529.819 211.61 531.162 213.925 M516.648 222.976 Q516.648 227.675 518.57 230.36 Q520.514 233.022 523.894 233.022 Q527.273 233.022 529.218 230.36 Q531.162 227.675 531.162 222.976 Q531.162 218.277 529.218 215.615 Q527.273 212.93 523.894 212.93 Q520.514 212.93 518.57 215.615 Q516.648 218.277 516.648 222.976 Z" fill="#000000" fill-rule="evenodd" fill-opacity="1" /><path clip-path="url(#clip350)" d="M555.977 222.883 Q550.815 222.883 548.824 224.064 Q546.833 225.244 546.833 228.092 Q546.833 230.36 548.315 231.703 Q549.819 233.022 552.389 233.022 Q555.93 233.022 558.06 230.522 Q560.213 227.999 560.213 223.832 L560.213 222.883 L555.977 222.883 M564.472 221.124 L564.472 235.916 L560.213 235.916 L560.213 231.981 Q558.755 234.342 556.579 235.476 Q554.403 236.587 551.255 236.587 Q547.273 236.587 544.912 234.365 Q542.574 232.119 542.574 228.369 Q542.574 223.994 545.491 221.772 Q548.431 219.55 554.241 219.55 L560.213 219.55 L560.213 219.133 Q560.213 216.194 558.268 214.596 Q556.347 212.976 552.852 212.976 Q550.63 212.976 548.523 213.508 Q546.417 214.041 544.472 215.106 L544.472 211.17 Q546.81 210.268 549.009 209.828 Q551.208 209.365 553.292 209.365 Q558.917 209.365 561.694 212.282 Q564.472 215.198 564.472 221.124 Z" fill="#000000" fill-rule="evenodd" fill-opacity="1" /><path clip-path="url(#clip350)" d="M577.458 202.629 L577.458 209.99 L586.231 209.99 L586.231 213.3 L577.458 213.3 L577.458 227.374 Q577.458 230.545 578.315 231.448 Q579.194 232.351 581.856 232.351 L586.231 232.351 L586.231 235.916 L581.856 235.916 Q576.926 235.916 575.051 234.087 Q573.176 232.235 573.176 227.374 L573.176 213.3 L570.051 213.3 L570.051 209.99 L573.176 209.99 L573.176 202.629 L577.458 202.629 Z" fill="#000000" fill-rule="evenodd" fill-opacity="1" /><path clip-path="url(#clip350)" d="M603.615 222.883 Q598.453 222.883 596.463 224.064 Q594.472 225.244 594.472 228.092 Q594.472 230.36 595.953 231.703 Q597.458 233.022 600.027 233.022 Q603.569 233.022 605.699 230.522 Q607.851 227.999 607.851 223.832 L607.851 222.883 L603.615 222.883 M612.111 221.124 L612.111 235.916 L607.851 235.916 L607.851 231.981 Q606.393 234.342 604.217 235.476 Q602.041 236.587 598.893 236.587 Q594.912 236.587 592.551 234.365 Q590.213 232.119 590.213 228.369 Q590.213 223.994 593.129 221.772 Q596.069 219.55 601.879 219.55 L607.851 219.55 L607.851 219.133 Q607.851 216.194 605.907 214.596 Q603.986 212.976 600.49 212.976 Q598.268 212.976 596.162 213.508 Q594.055 214.041 592.111 215.106 L592.111 211.17 Q594.449 210.268 596.648 209.828 Q598.847 209.365 600.93 209.365 Q606.555 209.365 609.333 212.282 Q612.111 215.198 612.111 221.124 Z" fill="#000000" fill-rule="evenodd" fill-opacity="1" /><polyline clip-path="url(#clip350)" style="stroke:#0000ff; stroke-linecap:round; stroke-linejoin:round; stroke-width:4; stroke-opacity:1; fill:none" points="349.167,270.476 488.953,270.476 "/>
<path clip-path="url(#clip350)" d="M528.755 251.737 L528.755 255.279 L524.681 255.279 Q522.389 255.279 521.486 256.205 Q520.607 257.131 520.607 259.538 L520.607 261.83 L527.62 261.83 L527.62 265.14 L520.607 265.14 L520.607 287.756 L516.324 287.756 L516.324 265.14 L512.25 265.14 L512.25 261.83 L516.324 261.83 L516.324 260.024 Q516.324 255.696 518.338 253.728 Q520.352 251.737 524.727 251.737 L528.755 251.737 Z" fill="#000000" fill-rule="evenodd" fill-opacity="1" /><path clip-path="url(#clip350)" d="M532.319 261.83 L536.579 261.83 L536.579 287.756 L532.319 287.756 L532.319 261.83 M532.319 251.737 L536.579 251.737 L536.579 257.131 L532.319 257.131 L532.319 251.737 Z" fill="#000000" fill-rule="evenodd" fill-opacity="1" /><path clip-path="url(#clip350)" d="M549.704 254.469 L549.704 261.83 L558.477 261.83 L558.477 265.14 L549.704 265.14 L549.704 279.214 Q549.704 282.385 550.56 283.288 Q551.44 284.191 554.102 284.191 L558.477 284.191 L558.477 287.756 L554.102 287.756 Q549.171 287.756 547.296 285.927 Q545.421 284.075 545.421 279.214 L545.421 265.14 L542.296 265.14 L542.296 261.83 L545.421 261.83 L545.421 254.469 L549.704 254.469 Z" fill="#000000" fill-rule="evenodd" fill-opacity="1" /></svg>
