<?xml version="1.0" encoding="utf-8"?>
<svg xmlns="http://www.w3.org/2000/svg" xmlns:xlink="http://www.w3.org/1999/xlink" width="600" height="400" viewBox="0 0 2400 1600">
<defs>
  <clipPath id="clip780">
    <rect x="0" y="0" width="2400" height="1600"/>
  </clipPath>
</defs>
<path clip-path="url(#clip780)" d="M0 1600 L2400 1600 L2400 0 L0 0  Z" fill="#ffffff" fill-rule="evenodd" fill-opacity="1"/>
<defs>
  <clipPath id="clip781">
    <rect x="480" y="0" width="1681" height="1600"/>
  </clipPath>
</defs>
<path clip-path="url(#clip780)" d="M219.866 1423.18 L2352.76 1423.18 L2352.76 123.472 L219.866 123.472  Z" fill="#ffffff" fill-rule="evenodd" fill-opacity="1"/>
<defs>
  <clipPath id="clip782">
    <rect x="219" y="123" width="2134" height="1301"/>
  </clipPath>
</defs>
<polyline clip-path="url(#clip782)" style="stroke:#000000; stroke-linecap:round; stroke-linejoin:round; stroke-width:2; stroke-opacity:0.1; fill:none" points="280.231,1423.18 280.231,123.472 "/>
<polyline clip-path="url(#clip782)" style="stroke:#000000; stroke-linecap:round; stroke-linejoin:round; stroke-width:2; stroke-opacity:0.1; fill:none" points="783.271,1423.18 783.271,123.472 "/>
<polyline clip-path="url(#clip782)" style="stroke:#000000; stroke-linecap:round; stroke-linejoin:round; stroke-width:2; stroke-opacity:0.1; fill:none" points="1286.31,1423.18 1286.31,123.472 "/>
<polyline clip-path="url(#clip782)" style="stroke:#000000; stroke-linecap:round; stroke-linejoin:round; stroke-width:2; stroke-opacity:0.1; fill:none" points="1789.35,1423.18 1789.35,123.472 "/>
<polyline clip-path="url(#clip782)" style="stroke:#000000; stroke-linecap:round; stroke-linejoin:round; stroke-width:2; stroke-opacity:0.1; fill:none" points="2292.39,1423.18 2292.39,123.472 "/>
<polyline clip-path="url(#clip780)" style="stroke:#000000; stroke-linecap:round; stroke-linejoin:round; stroke-width:4; stroke-opacity:1; fill:none" points="219.866,1423.18 2352.76,1423.18 "/>
<polyline clip-path="url(#clip780)" style="stroke:#000000; stroke-linecap:round; stroke-linejoin:round; stroke-width:4; stroke-opacity:1; fill:none" points="280.231,1423.18 280.231,1404.28 "/>
<polyline clip-path="url(#clip780)" style="stroke:#000000; stroke-linecap:round; stroke-linejoin:round; stroke-width:4; stroke-opacity:1; fill:none" points="783.271,1423.18 783.271,1404.28 "/>
<polyline clip-path="url(#clip780)" style="stroke:#000000; stroke-linecap:round; stroke-linejoin:round; stroke-width:4; stroke-opacity:1; fill:none" points="1286.31,1423.18 1286.31,1404.28 "/>
<polyline clip-path="url(#clip780)" style="stroke:#000000; stroke-linecap:round; stroke-linejoin:round; stroke-width:4; stroke-opacity:1; fill:none" points="1789.35,1423.18 1789.35,1404.28 "/>
<polyline clip-path="url(#clip780)" style="stroke:#000000; stroke-linecap:round; stroke-linejoin:round; stroke-width:4; stroke-opacity:1; fill:none" points="2292.39,1423.18 2292.39,1404.28 "/>
<path clip-path="url(#clip780)" d="M257.615 1454.1 Q254.004 1454.1 252.176 1457.66 Q250.37 1461.2 250.37 1468.33 Q250.37 1475.44 252.176 1479.01 Q254.004 1482.55 257.615 1482.55 Q261.25 1482.55 263.055 1479.01 Q264.884 1475.44 264.884 1468.33 Q264.884 1461.2 263.055 1457.66 Q261.25 1454.1 257.615 1454.1 M257.615 1450.39 Q263.426 1450.39 266.481 1455 Q269.56 1459.58 269.56 1468.33 Q269.56 1477.06 266.481 1481.67 Q263.426 1486.25 257.615 1486.25 Q251.805 1486.25 248.727 1481.67 Q245.671 1477.06 245.671 1468.33 Q245.671 1459.58 248.727 1455 Q251.805 1450.39 257.615 1450.39 Z" fill="#000000" fill-rule="evenodd" fill-opacity="1" /><path clip-path="url(#clip780)" d="M277.777 1479.7 L282.662 1479.7 L282.662 1485.58 L277.777 1485.58 L277.777 1479.7 Z" fill="#000000" fill-rule="evenodd" fill-opacity="1" /><path clip-path="url(#clip780)" d="M302.847 1454.1 Q299.236 1454.1 297.407 1457.66 Q295.601 1461.2 295.601 1468.33 Q295.601 1475.44 297.407 1479.01 Q299.236 1482.55 302.847 1482.55 Q306.481 1482.55 308.286 1479.01 Q310.115 1475.44 310.115 1468.33 Q310.115 1461.2 308.286 1457.66 Q306.481 1454.1 302.847 1454.1 M302.847 1450.39 Q308.657 1450.39 311.712 1455 Q314.791 1459.58 314.791 1468.33 Q314.791 1477.06 311.712 1481.67 Q308.657 1486.25 302.847 1486.25 Q297.037 1486.25 293.958 1481.67 Q290.902 1477.06 290.902 1468.33 Q290.902 1459.58 293.958 1455 Q297.037 1450.39 302.847 1450.39 Z" fill="#000000" fill-rule="evenodd" fill-opacity="1" /><path clip-path="url(#clip780)" d="M761.153 1454.1 Q757.542 1454.1 755.713 1457.66 Q753.908 1461.2 753.908 1468.33 Q753.908 1475.44 755.713 1479.01 Q757.542 1482.55 761.153 1482.55 Q764.787 1482.55 766.593 1479.01 Q768.422 1475.44 768.422 1468.33 Q768.422 1461.2 766.593 1457.66 Q764.787 1454.1 761.153 1454.1 M761.153 1450.39 Q766.963 1450.39 770.019 1455 Q773.098 1459.58 773.098 1468.33 Q773.098 1477.06 770.019 1481.67 Q766.963 1486.25 761.153 1486.25 Q755.343 1486.25 752.264 1481.67 Q749.209 1477.06 749.209 1468.33 Q749.209 1459.58 752.264 1455 Q755.343 1450.39 761.153 1450.39 Z" fill="#000000" fill-rule="evenodd" fill-opacity="1" /><path clip-path="url(#clip780)" d="M781.315 1479.7 L786.199 1479.7 L786.199 1485.58 L781.315 1485.58 L781.315 1479.7 Z" fill="#000000" fill-rule="evenodd" fill-opacity="1" /><path clip-path="url(#clip780)" d="M796.431 1451.02 L814.787 1451.02 L814.787 1454.96 L800.713 1454.96 L800.713 1463.43 Q801.732 1463.08 802.75 1462.92 Q803.769 1462.73 804.787 1462.73 Q810.574 1462.73 813.954 1465.9 Q817.333 1469.08 817.333 1474.49 Q817.333 1480.07 813.861 1483.17 Q810.389 1486.25 804.07 1486.25 Q801.894 1486.25 799.625 1485.88 Q797.38 1485.51 794.972 1484.77 L794.972 1480.07 Q797.056 1481.2 799.278 1481.76 Q801.5 1482.32 803.977 1482.32 Q807.982 1482.32 810.32 1480.21 Q812.657 1478.1 812.657 1474.49 Q812.657 1470.88 810.32 1468.77 Q807.982 1466.67 803.977 1466.67 Q802.102 1466.67 800.227 1467.08 Q798.375 1467.5 796.431 1468.38 L796.431 1451.02 Z" fill="#000000" fill-rule="evenodd" fill-opacity="1" /><path clip-path="url(#clip780)" d="M1253.46 1481.64 L1261.1 1481.64 L1261.1 1455.28 L1252.79 1456.95 L1252.79 1452.69 L1261.06 1451.02 L1265.73 1451.02 L1265.73 1481.64 L1273.37 1481.64 L1273.37 1485.58 L1253.46 1485.58 L1253.46 1481.64 Z" fill="#000000" fill-rule="evenodd" fill-opacity="1" /><path clip-path="url(#clip780)" d="M1282.82 1479.7 L1287.7 1479.7 L1287.7 1485.58 L1282.82 1485.58 L1282.82 1479.7 Z" fill="#000000" fill-rule="evenodd" fill-opacity="1" /><path clip-path="url(#clip780)" d="M1307.89 1454.1 Q1304.27 1454.1 1302.45 1457.66 Q1300.64 1461.2 1300.64 1468.33 Q1300.64 1475.44 1302.45 1479.01 Q1304.27 1482.55 1307.89 1482.55 Q1311.52 1482.55 1313.32 1479.01 Q1315.15 1475.44 1315.15 1468.33 Q1315.15 1461.2 1313.32 1457.66 Q1311.52 1454.1 1307.89 1454.1 M1307.89 1450.39 Q1313.7 1450.39 1316.75 1455 Q1319.83 1459.58 1319.83 1468.33 Q1319.83 1477.06 1316.75 1481.67 Q1313.7 1486.25 1307.89 1486.25 Q1302.07 1486.25 1299 1481.67 Q1295.94 1477.06 1295.94 1468.33 Q1295.94 1459.58 1299 1455 Q1302.07 1450.39 1307.89 1450.39 Z" fill="#000000" fill-rule="evenodd" fill-opacity="1" /><path clip-path="url(#clip780)" d="M1757 1481.64 L1764.64 1481.64 L1764.64 1455.28 L1756.33 1456.95 L1756.33 1452.69 L1764.59 1451.02 L1769.27 1451.02 L1769.27 1481.64 L1776.91 1481.64 L1776.91 1485.58 L1757 1485.58 L1757 1481.64 Z" fill="#000000" fill-rule="evenodd" fill-opacity="1" /><path clip-path="url(#clip780)" d="M1786.35 1479.7 L1791.24 1479.7 L1791.24 1485.58 L1786.35 1485.58 L1786.35 1479.7 Z" fill="#000000" fill-rule="evenodd" fill-opacity="1" /><path clip-path="url(#clip780)" d="M1801.47 1451.02 L1819.83 1451.02 L1819.83 1454.96 L1805.75 1454.96 L1805.75 1463.43 Q1806.77 1463.08 1807.79 1462.92 Q1808.81 1462.73 1809.83 1462.73 Q1815.61 1462.73 1818.99 1465.9 Q1822.37 1469.08 1822.37 1474.49 Q1822.37 1480.07 1818.9 1483.17 Q1815.43 1486.25 1809.11 1486.25 Q1806.93 1486.25 1804.66 1485.88 Q1802.42 1485.51 1800.01 1484.77 L1800.01 1480.07 Q1802.09 1481.2 1804.32 1481.76 Q1806.54 1482.32 1809.02 1482.32 Q1813.02 1482.32 1815.36 1480.21 Q1817.7 1478.1 1817.7 1474.49 Q1817.7 1470.88 1815.36 1468.77 Q1813.02 1466.67 1809.02 1466.67 Q1807.14 1466.67 1805.27 1467.08 Q1803.41 1467.5 1801.47 1468.38 L1801.47 1451.02 Z" fill="#000000" fill-rule="evenodd" fill-opacity="1" /><path clip-path="url(#clip780)" d="M2263.63 1481.64 L2279.95 1481.64 L2279.95 1485.58 L2258 1485.58 L2258 1481.64 Q2260.67 1478.89 2265.25 1474.26 Q2269.86 1469.61 2271.04 1468.27 Q2273.28 1465.74 2274.16 1464.01 Q2275.06 1462.25 2275.06 1460.56 Q2275.06 1457.8 2273.12 1456.07 Q2271.2 1454.33 2268.1 1454.33 Q2265.9 1454.33 2263.44 1455.09 Q2261.01 1455.86 2258.24 1457.41 L2258.24 1452.69 Q2261.06 1451.55 2263.51 1450.97 Q2265.97 1450.39 2268 1450.39 Q2273.38 1450.39 2276.57 1453.08 Q2279.76 1455.77 2279.76 1460.26 Q2279.76 1462.39 2278.95 1464.31 Q2278.17 1466.2 2276.06 1468.8 Q2275.48 1469.47 2272.38 1472.69 Q2269.28 1475.88 2263.63 1481.64 Z" fill="#000000" fill-rule="evenodd" fill-opacity="1" /><path clip-path="url(#clip780)" d="M2289.76 1479.7 L2294.65 1479.7 L2294.65 1485.58 L2289.76 1485.58 L2289.76 1479.7 Z" fill="#000000" fill-rule="evenodd" fill-opacity="1" /><path clip-path="url(#clip780)" d="M2314.83 1454.1 Q2311.22 1454.1 2309.39 1457.66 Q2307.59 1461.2 2307.59 1468.33 Q2307.59 1475.44 2309.39 1479.01 Q2311.22 1482.55 2314.83 1482.55 Q2318.47 1482.55 2320.27 1479.01 Q2322.1 1475.44 2322.1 1468.33 Q2322.1 1461.2 2320.27 1457.66 Q2318.47 1454.1 2314.83 1454.1 M2314.83 1450.39 Q2320.64 1450.39 2323.7 1455 Q2326.78 1459.58 2326.78 1468.33 Q2326.78 1477.06 2323.7 1481.67 Q2320.64 1486.25 2314.83 1486.25 Q2309.02 1486.25 2305.94 1481.67 Q2302.89 1477.06 2302.89 1468.33 Q2302.89 1459.58 2305.94 1455 Q2309.02 1450.39 2314.83 1450.39 Z" fill="#000000" fill-rule="evenodd" fill-opacity="1" /><path clip-path="url(#clip780)" d="M1302.93 1532.4 L1290.04 1549.74 L1303.59 1568.04 L1296.69 1568.04 L1286.31 1554.04 L1275.93 1568.04 L1269.03 1568.04 L1282.87 1549.39 L1270.21 1532.4 L1277.11 1532.4 L1286.57 1545.1 L1296.02 1532.4 L1302.93 1532.4 Z" fill="#000000" fill-rule="evenodd" fill-opacity="1" /><polyline clip-path="url(#clip782)" style="stroke:#000000; stroke-linecap:round; stroke-linejoin:round; stroke-width:2; stroke-opacity:0.1; fill:none" points="219.866,1404.84 2352.76,1404.84 "/>
<polyline clip-path="url(#clip782)" style="stroke:#000000; stroke-linecap:round; stroke-linejoin:round; stroke-width:2; stroke-opacity:0.1; fill:none" points="219.866,1218.46 2352.76,1218.46 "/>
<polyline clip-path="url(#clip782)" style="stroke:#000000; stroke-linecap:round; stroke-linejoin:round; stroke-width:2; stroke-opacity:0.1; fill:none" points="219.866,1032.07 2352.76,1032.07 "/>
<polyline clip-path="url(#clip782)" style="stroke:#000000; stroke-linecap:round; stroke-linejoin:round; stroke-width:2; stroke-opacity:0.1; fill:none" points="219.866,845.685 2352.76,845.685 "/>
<polyline clip-path="url(#clip782)" style="stroke:#000000; stroke-linecap:round; stroke-linejoin:round; stroke-width:2; stroke-opacity:0.1; fill:none" points="219.866,659.299 2352.76,659.299 "/>
<polyline clip-path="url(#clip782)" style="stroke:#000000; stroke-linecap:round; stroke-linejoin:round; stroke-width:2; stroke-opacity:0.1; fill:none" points="219.866,472.914 2352.76,472.914 "/>
<polyline clip-path="url(#clip782)" style="stroke:#000000; stroke-linecap:round; stroke-linejoin:round; stroke-width:2; stroke-opacity:0.1; fill:none" points="219.866,286.529 2352.76,286.529 "/>
<polyline clip-path="url(#clip780)" style="stroke:#000000; stroke-linecap:round; stroke-linejoin:round; stroke-width:4; stroke-opacity:1; fill:none" points="219.866,1423.18 219.866,123.472 "/>
<polyline clip-path="url(#clip780)" style="stroke:#000000; stroke-linecap:round; stroke-linejoin:round; stroke-width:4; stroke-opacity:1; fill:none" points="219.866,1404.84 238.764,1404.84 "/>
<polyline clip-path="url(#clip780)" style="stroke:#000000; stroke-linecap:round; stroke-linejoin:round; stroke-width:4; stroke-opacity:1; fill:none" points="219.866,1218.46 238.764,1218.46 "/>
<polyline clip-path="url(#clip780)" style="stroke:#000000; stroke-linecap:round; stroke-linejoin:round; stroke-width:4; stroke-opacity:1; fill:none" points="219.866,1032.07 238.764,1032.07 "/>
<polyline clip-path="url(#clip780)" style="stroke:#000000; stroke-linecap:round; stroke-linejoin:round; stroke-width:4; stroke-opacity:1; fill:none" points="219.866,845.685 238.764,845.685 "/>
<polyline clip-path="url(#clip780)" style="stroke:#000000; stroke-linecap:round; stroke-linejoin:round; stroke-width:4; stroke-opacity:1; fill:none" points="219.866,659.299 238.764,659.299 "/>
<polyline clip-path="url(#clip780)" style="stroke:#000000; stroke-linecap:round; stroke-linejoin:round; stroke-width:4; stroke-opacity:1; fill:none" points="219.866,472.914 238.764,472.914 "/>
<polyline clip-path="url(#clip780)" style="stroke:#000000; stroke-linecap:round; stroke-linejoin:round; stroke-width:4; stroke-opacity:1; fill:none" points="219.866,286.529 238.764,286.529 "/>
<path clip-path="url(#clip780)" d="M126.691 1390.64 Q123.08 1390.64 121.251 1394.2 Q119.445 1397.75 119.445 1404.88 Q119.445 1411.98 121.251 1415.55 Q123.08 1419.09 126.691 1419.09 Q130.325 1419.09 132.13 1415.55 Q133.959 1411.98 133.959 1404.88 Q133.959 1397.75 132.13 1394.2 Q130.325 1390.64 126.691 1390.64 M126.691 1386.94 Q132.501 1386.94 135.556 1391.54 Q138.635 1396.13 138.635 1404.88 Q138.635 1413.6 135.556 1418.21 Q132.501 1422.79 126.691 1422.79 Q120.88 1422.79 117.802 1418.21 Q114.746 1413.6 114.746 1404.88 Q114.746 1396.13 117.802 1391.54 Q120.88 1386.94 126.691 1386.94 Z" fill="#000000" fill-rule="evenodd" fill-opacity="1" /><path clip-path="url(#clip780)" d="M146.853 1416.24 L151.737 1416.24 L151.737 1422.12 L146.853 1422.12 L146.853 1416.24 Z" fill="#000000" fill-rule="evenodd" fill-opacity="1" /><path clip-path="url(#clip780)" d="M171.922 1390.64 Q168.311 1390.64 166.482 1394.2 Q164.677 1397.75 164.677 1404.88 Q164.677 1411.98 166.482 1415.55 Q168.311 1419.09 171.922 1419.09 Q175.556 1419.09 177.362 1415.55 Q179.19 1411.98 179.19 1404.88 Q179.19 1397.75 177.362 1394.2 Q175.556 1390.64 171.922 1390.64 M171.922 1386.94 Q177.732 1386.94 180.788 1391.54 Q183.866 1396.13 183.866 1404.88 Q183.866 1413.6 180.788 1418.21 Q177.732 1422.79 171.922 1422.79 Q166.112 1422.79 163.033 1418.21 Q159.978 1413.6 159.978 1404.88 Q159.978 1396.13 163.033 1391.54 Q166.112 1386.94 171.922 1386.94 Z" fill="#000000" fill-rule="evenodd" fill-opacity="1" /><path clip-path="url(#clip780)" d="M128.288 1204.25 Q124.677 1204.25 122.848 1207.82 Q121.043 1211.36 121.043 1218.49 Q121.043 1225.6 122.848 1229.16 Q124.677 1232.7 128.288 1232.7 Q131.922 1232.7 133.728 1229.16 Q135.556 1225.6 135.556 1218.49 Q135.556 1211.36 133.728 1207.82 Q131.922 1204.25 128.288 1204.25 M128.288 1200.55 Q134.098 1200.55 137.154 1205.16 Q140.232 1209.74 140.232 1218.49 Q140.232 1227.22 137.154 1231.82 Q134.098 1236.41 128.288 1236.41 Q122.478 1236.41 119.399 1231.82 Q116.343 1227.22 116.343 1218.49 Q116.343 1209.74 119.399 1205.16 Q122.478 1200.55 128.288 1200.55 Z" fill="#000000" fill-rule="evenodd" fill-opacity="1" /><path clip-path="url(#clip780)" d="M148.45 1229.86 L153.334 1229.86 L153.334 1235.74 L148.45 1235.74 L148.45 1229.86 Z" fill="#000000" fill-rule="evenodd" fill-opacity="1" /><path clip-path="url(#clip780)" d="M167.547 1231.8 L183.866 1231.8 L183.866 1235.74 L161.922 1235.74 L161.922 1231.8 Q164.584 1229.05 169.167 1224.42 Q173.774 1219.76 174.954 1218.42 Q177.2 1215.9 178.079 1214.16 Q178.982 1212.4 178.982 1210.71 Q178.982 1207.96 177.038 1206.22 Q175.116 1204.49 172.014 1204.49 Q169.815 1204.49 167.362 1205.25 Q164.931 1206.01 162.153 1207.56 L162.153 1202.84 Q164.977 1201.71 167.431 1201.13 Q169.885 1200.55 171.922 1200.55 Q177.292 1200.55 180.487 1203.24 Q183.681 1205.92 183.681 1210.41 Q183.681 1212.54 182.871 1214.46 Q182.084 1216.36 179.977 1218.95 Q179.399 1219.62 176.297 1222.84 Q173.195 1226.04 167.547 1231.8 Z" fill="#000000" fill-rule="evenodd" fill-opacity="1" /><path clip-path="url(#clip780)" d="M126.205 1017.87 Q122.593 1017.87 120.765 1021.43 Q118.959 1024.98 118.959 1032.1 Q118.959 1039.21 120.765 1042.78 Q122.593 1046.32 126.205 1046.32 Q129.839 1046.32 131.644 1042.78 Q133.473 1039.21 133.473 1032.1 Q133.473 1024.98 131.644 1021.43 Q129.839 1017.87 126.205 1017.87 M126.205 1014.17 Q132.015 1014.17 135.07 1018.77 Q138.149 1023.35 138.149 1032.1 Q138.149 1040.83 135.07 1045.44 Q132.015 1050.02 126.205 1050.02 Q120.394 1050.02 117.316 1045.44 Q114.26 1040.83 114.26 1032.1 Q114.26 1023.35 117.316 1018.77 Q120.394 1014.17 126.205 1014.17 Z" fill="#000000" fill-rule="evenodd" fill-opacity="1" /><path clip-path="url(#clip780)" d="M146.366 1043.47 L151.251 1043.47 L151.251 1049.35 L146.366 1049.35 L146.366 1043.47 Z" fill="#000000" fill-rule="evenodd" fill-opacity="1" /><path clip-path="url(#clip780)" d="M174.283 1018.86 L162.477 1037.31 L174.283 1037.31 L174.283 1018.86 M173.056 1014.79 L178.936 1014.79 L178.936 1037.31 L183.866 1037.31 L183.866 1041.2 L178.936 1041.2 L178.936 1049.35 L174.283 1049.35 L174.283 1041.2 L158.681 1041.2 L158.681 1036.69 L173.056 1014.79 Z" fill="#000000" fill-rule="evenodd" fill-opacity="1" /><path clip-path="url(#clip780)" d="M126.529 831.483 Q122.918 831.483 121.089 835.048 Q119.283 838.59 119.283 845.719 Q119.283 852.826 121.089 856.391 Q122.918 859.932 126.529 859.932 Q130.163 859.932 131.968 856.391 Q133.797 852.826 133.797 845.719 Q133.797 838.59 131.968 835.048 Q130.163 831.483 126.529 831.483 M126.529 827.78 Q132.339 827.78 135.394 832.386 Q138.473 836.97 138.473 845.719 Q138.473 854.446 135.394 859.053 Q132.339 863.636 126.529 863.636 Q120.718 863.636 117.64 859.053 Q114.584 854.446 114.584 845.719 Q114.584 836.97 117.64 832.386 Q120.718 827.78 126.529 827.78 Z" fill="#000000" fill-rule="evenodd" fill-opacity="1" /><path clip-path="url(#clip780)" d="M146.691 857.085 L151.575 857.085 L151.575 862.965 L146.691 862.965 L146.691 857.085 Z" fill="#000000" fill-rule="evenodd" fill-opacity="1" /><path clip-path="url(#clip780)" d="M172.339 843.821 Q169.19 843.821 167.339 845.974 Q165.51 848.127 165.51 851.877 Q165.51 855.604 167.339 857.78 Q169.19 859.932 172.339 859.932 Q175.487 859.932 177.315 857.78 Q179.167 855.604 179.167 851.877 Q179.167 848.127 177.315 845.974 Q175.487 843.821 172.339 843.821 M181.621 829.169 L181.621 833.428 Q179.862 832.595 178.056 832.155 Q176.274 831.715 174.514 831.715 Q169.885 831.715 167.431 834.84 Q165.001 837.965 164.653 844.284 Q166.019 842.27 168.079 841.206 Q170.139 840.118 172.616 840.118 Q177.825 840.118 180.834 843.289 Q183.866 846.437 183.866 851.877 Q183.866 857.201 180.718 860.418 Q177.57 863.636 172.339 863.636 Q166.343 863.636 163.172 859.053 Q160.001 854.446 160.001 845.719 Q160.001 837.525 163.89 832.664 Q167.778 827.78 174.329 827.78 Q176.089 827.78 177.871 828.127 Q179.676 828.474 181.621 829.169 Z" fill="#000000" fill-rule="evenodd" fill-opacity="1" /><path clip-path="url(#clip780)" d="M126.783 645.098 Q123.172 645.098 121.343 648.663 Q119.538 652.205 119.538 659.334 Q119.538 666.441 121.343 670.005 Q123.172 673.547 126.783 673.547 Q130.417 673.547 132.223 670.005 Q134.052 666.441 134.052 659.334 Q134.052 652.205 132.223 648.663 Q130.417 645.098 126.783 645.098 M126.783 641.394 Q132.593 641.394 135.649 646.001 Q138.728 650.584 138.728 659.334 Q138.728 668.061 135.649 672.667 Q132.593 677.251 126.783 677.251 Q120.973 677.251 117.894 672.667 Q114.839 668.061 114.839 659.334 Q114.839 650.584 117.894 646.001 Q120.973 641.394 126.783 641.394 Z" fill="#000000" fill-rule="evenodd" fill-opacity="1" /><path clip-path="url(#clip780)" d="M146.945 670.7 L151.829 670.7 L151.829 676.579 L146.945 676.579 L146.945 670.7 Z" fill="#000000" fill-rule="evenodd" fill-opacity="1" /><path clip-path="url(#clip780)" d="M172.014 660.167 Q168.681 660.167 166.76 661.95 Q164.862 663.732 164.862 666.857 Q164.862 669.982 166.76 671.765 Q168.681 673.547 172.014 673.547 Q175.348 673.547 177.269 671.765 Q179.19 669.959 179.19 666.857 Q179.19 663.732 177.269 661.95 Q175.371 660.167 172.014 660.167 M167.339 658.177 Q164.329 657.436 162.64 655.376 Q160.973 653.316 160.973 650.353 Q160.973 646.209 163.913 643.802 Q166.876 641.394 172.014 641.394 Q177.176 641.394 180.116 643.802 Q183.056 646.209 183.056 650.353 Q183.056 653.316 181.366 655.376 Q179.7 657.436 176.714 658.177 Q180.093 658.964 181.968 661.255 Q183.866 663.547 183.866 666.857 Q183.866 671.88 180.788 674.566 Q177.732 677.251 172.014 677.251 Q166.297 677.251 163.218 674.566 Q160.163 671.88 160.163 666.857 Q160.163 663.547 162.061 661.255 Q163.959 658.964 167.339 658.177 M165.626 650.793 Q165.626 653.478 167.292 654.982 Q168.982 656.487 172.014 656.487 Q175.024 656.487 176.714 654.982 Q178.426 653.478 178.426 650.793 Q178.426 648.107 176.714 646.603 Q175.024 645.098 172.014 645.098 Q168.982 645.098 167.292 646.603 Q165.626 648.107 165.626 650.793 Z" fill="#000000" fill-rule="evenodd" fill-opacity="1" /><path clip-path="url(#clip780)" d="M117.501 486.259 L125.14 486.259 L125.14 459.893 L116.83 461.56 L116.83 457.301 L125.093 455.634 L129.769 455.634 L129.769 486.259 L137.408 486.259 L137.408 490.194 L117.501 490.194 L117.501 486.259 Z" fill="#000000" fill-rule="evenodd" fill-opacity="1" /><path clip-path="url(#clip780)" d="M146.853 484.315 L151.737 484.315 L151.737 490.194 L146.853 490.194 L146.853 484.315 Z" fill="#000000" fill-rule="evenodd" fill-opacity="1" /><path clip-path="url(#clip780)" d="M171.922 458.713 Q168.311 458.713 166.482 462.278 Q164.677 465.819 164.677 472.949 Q164.677 480.055 166.482 483.62 Q168.311 487.162 171.922 487.162 Q175.556 487.162 177.362 483.62 Q179.19 480.055 179.19 472.949 Q179.19 465.819 177.362 462.278 Q175.556 458.713 171.922 458.713 M171.922 455.009 Q177.732 455.009 180.788 459.616 Q183.866 464.199 183.866 472.949 Q183.866 481.676 180.788 486.282 Q177.732 490.865 171.922 490.865 Q166.112 490.865 163.033 486.282 Q159.978 481.676 159.978 472.949 Q159.978 464.199 163.033 459.616 Q166.112 455.009 171.922 455.009 Z" fill="#000000" fill-rule="evenodd" fill-opacity="1" /><path clip-path="url(#clip780)" d="M119.098 299.874 L126.737 299.874 L126.737 273.508 L118.427 275.175 L118.427 270.915 L126.691 269.249 L131.367 269.249 L131.367 299.874 L139.005 299.874 L139.005 303.809 L119.098 303.809 L119.098 299.874 Z" fill="#000000" fill-rule="evenodd" fill-opacity="1" /><path clip-path="url(#clip780)" d="M148.45 297.929 L153.334 297.929 L153.334 303.809 L148.45 303.809 L148.45 297.929 Z" fill="#000000" fill-rule="evenodd" fill-opacity="1" /><path clip-path="url(#clip780)" d="M167.547 299.874 L183.866 299.874 L183.866 303.809 L161.922 303.809 L161.922 299.874 Q164.584 297.119 169.167 292.489 Q173.774 287.837 174.954 286.494 Q177.2 283.971 178.079 282.235 Q178.982 280.476 178.982 278.786 Q178.982 276.031 177.038 274.295 Q175.116 272.559 172.014 272.559 Q169.815 272.559 167.362 273.323 Q164.931 274.087 162.153 275.638 L162.153 270.915 Q164.977 269.781 167.431 269.203 Q169.885 268.624 171.922 268.624 Q177.292 268.624 180.487 271.309 Q183.681 273.994 183.681 278.485 Q183.681 280.614 182.871 282.536 Q182.084 284.434 179.977 287.026 Q179.399 287.698 176.297 290.915 Q173.195 294.11 167.547 299.874 Z" fill="#000000" fill-rule="evenodd" fill-opacity="1" /><path clip-path="url(#clip780)" d="M67.3143 771.639 Q73.68 774.122 75.6216 776.477 Q77.5631 778.832 77.5631 782.779 L77.5631 787.458 L72.6615 787.458 L72.6615 784.02 Q72.6615 781.601 71.5157 780.265 Q70.3699 778.928 66.1048 777.305 L63.4312 776.254 L28.3562 790.673 L28.3562 784.466 L56.238 773.326 L28.3562 762.186 L28.3562 755.979 L67.3143 771.639 Z" fill="#000000" fill-rule="evenodd" fill-opacity="1" /><path clip-path="url(#clip780)" d="M613.861 48.0275 L613.861 51.6733 L579.59 51.6733 Q580.076 59.3701 584.208 63.421 Q588.381 67.4314 595.794 67.4314 Q600.088 67.4314 604.098 66.3781 Q608.149 65.3249 612.119 63.2184 L612.119 70.267 Q608.109 71.9684 603.896 72.8596 Q599.683 73.7508 595.348 73.7508 Q584.492 73.7508 578.132 67.4314 Q571.813 61.1119 571.813 50.3365 Q571.813 39.1965 577.808 32.6746 Q583.844 26.1121 594.052 26.1121 Q603.207 26.1121 608.514 32.0264 Q613.861 37.9003 613.861 48.0275 M606.407 45.84 Q606.326 39.7232 602.964 36.0774 Q599.642 32.4315 594.133 32.4315 Q587.895 32.4315 584.127 35.9558 Q580.401 39.4801 579.833 45.8805 L606.407 45.84 Z" fill="#000000" fill-rule="evenodd" fill-opacity="1" /><path clip-path="url(#clip780)" d="M630.551 49.9314 Q630.551 58.1548 633.913 62.8538 Q637.316 67.5124 643.23 67.5124 Q649.144 67.5124 652.547 62.8538 Q655.95 58.1548 655.95 49.9314 Q655.95 41.7081 652.547 37.0496 Q649.144 32.3505 643.23 32.3505 Q637.316 32.3505 633.913 37.0496 Q630.551 41.7081 630.551 49.9314 M655.95 65.7705 Q653.6 69.8214 649.995 71.8063 Q646.43 73.7508 641.407 73.7508 Q633.184 73.7508 627.999 67.1883 Q622.854 60.6258 622.854 49.9314 Q622.854 39.2371 627.999 32.6746 Q633.184 26.1121 641.407 26.1121 Q646.43 26.1121 649.995 28.0971 Q653.6 30.0415 655.95 34.0924 L655.95 27.2059 L663.404 27.2059 L663.404 89.8329 L655.95 89.8329 L655.95 65.7705 Z" fill="#000000" fill-rule="evenodd" fill-opacity="1" /><path clip-path="url(#clip780)" d="M677.987 54.671 L677.987 27.2059 L685.44 27.2059 L685.44 54.3874 Q685.44 60.8284 687.952 64.0691 Q690.464 67.2693 695.487 67.2693 Q701.523 67.2693 705.006 63.421 Q708.531 59.5726 708.531 52.9291 L708.531 27.2059 L715.984 27.2059 L715.984 72.576 L708.531 72.576 L708.531 65.6084 Q705.817 69.7404 702.211 71.7658 Q698.646 73.7508 693.907 73.7508 Q686.089 73.7508 682.038 68.8897 Q677.987 64.0286 677.987 54.671 M696.742 26.1121 L696.742 26.1121 Z" fill="#000000" fill-rule="evenodd" fill-opacity="1" /><path clip-path="url(#clip780)" d="M751.956 49.7694 Q742.923 49.7694 739.439 51.8354 Q735.955 53.9013 735.955 58.8839 Q735.955 62.8538 738.548 65.2034 Q741.181 67.5124 745.677 67.5124 Q751.875 67.5124 755.602 63.1374 Q759.369 58.7219 759.369 51.4303 L759.369 49.7694 L751.956 49.7694 M766.823 46.6907 L766.823 72.576 L759.369 72.576 L759.369 65.6895 Q756.817 69.8214 753.01 71.8063 Q749.202 73.7508 743.692 73.7508 Q736.725 73.7508 732.593 69.8619 Q728.502 65.9325 728.502 59.3701 Q728.502 51.7138 733.606 47.825 Q738.75 43.9361 748.918 43.9361 L759.369 43.9361 L759.369 43.2069 Q759.369 38.0623 755.967 35.2672 Q752.604 32.4315 746.488 32.4315 Q742.599 32.4315 738.912 33.3632 Q735.226 34.295 731.823 36.1584 L731.823 29.2718 Q735.915 27.692 739.763 26.9223 Q743.611 26.1121 747.257 26.1121 Q757.101 26.1121 761.962 31.2163 Q766.823 36.3204 766.823 46.6907 Z" fill="#000000" fill-rule="evenodd" fill-opacity="1" /><path clip-path="url(#clip780)" d="M789.549 14.324 L789.549 27.2059 L804.902 27.2059 L804.902 32.9987 L789.549 32.9987 L789.549 57.6282 Q789.549 63.1779 791.048 64.7578 Q792.587 66.3376 797.245 66.3376 L804.902 66.3376 L804.902 72.576 L797.245 72.576 Q788.617 72.576 785.336 69.3758 Q782.055 66.1351 782.055 57.6282 L782.055 32.9987 L776.586 32.9987 L776.586 27.2059 L782.055 27.2059 L782.055 14.324 L789.549 14.324 Z" fill="#000000" fill-rule="evenodd" fill-opacity="1" /><path clip-path="url(#clip780)" d="M814.705 27.2059 L822.158 27.2059 L822.158 72.576 L814.705 72.576 L814.705 27.2059 M814.705 9.54393 L822.158 9.54393 L822.158 18.9825 L814.705 18.9825 L814.705 9.54393 Z" fill="#000000" fill-rule="evenodd" fill-opacity="1" /><path clip-path="url(#clip780)" d="M855.335 32.4315 Q849.34 32.4315 845.856 37.1306 Q842.372 41.7891 842.372 49.9314 Q842.372 58.0738 845.816 62.7728 Q849.3 67.4314 855.335 67.4314 Q861.29 67.4314 864.774 62.7323 Q868.258 58.0333 868.258 49.9314 Q868.258 41.8701 864.774 37.1711 Q861.29 32.4315 855.335 32.4315 M855.335 26.1121 Q865.058 26.1121 870.607 32.4315 Q876.157 38.7509 876.157 49.9314 Q876.157 61.0714 870.607 67.4314 Q865.058 73.7508 855.335 73.7508 Q845.573 73.7508 840.023 67.4314 Q834.514 61.0714 834.514 49.9314 Q834.514 38.7509 840.023 32.4315 Q845.573 26.1121 855.335 26.1121 Z" fill="#000000" fill-rule="evenodd" fill-opacity="1" /><path clip-path="url(#clip780)" d="M926.226 45.1919 L926.226 72.576 L918.773 72.576 L918.773 45.4349 Q918.773 38.994 916.261 35.7938 Q913.749 32.5936 908.726 32.5936 Q902.69 32.5936 899.207 36.4419 Q895.723 40.2903 895.723 46.9338 L895.723 72.576 L888.229 72.576 L888.229 27.2059 L895.723 27.2059 L895.723 34.2544 Q898.396 30.163 902.002 28.1376 Q905.648 26.1121 910.387 26.1121 Q918.205 26.1121 922.216 30.9732 Q926.226 35.7938 926.226 45.1919 Z" fill="#000000" fill-rule="evenodd" fill-opacity="1" /><path clip-path="url(#clip780)" d="M990.433 9.54393 L990.433 15.7418 L983.303 15.7418 Q979.293 15.7418 977.713 17.3622 Q976.174 18.9825 976.174 23.1955 L976.174 27.2059 L988.448 27.2059 L988.448 32.9987 L976.174 32.9987 L976.174 72.576 L968.68 72.576 L968.68 32.9987 L961.55 32.9987 L961.55 27.2059 L968.68 27.2059 L968.68 24.0462 Q968.68 16.471 972.204 13.0277 Q975.728 9.54393 983.384 9.54393 L990.433 9.54393 Z" fill="#000000" fill-rule="evenodd" fill-opacity="1" /><path clip-path="url(#clip780)" d="M996.671 27.2059 L1004.13 27.2059 L1004.13 72.576 L996.671 72.576 L996.671 27.2059 M996.671 9.54393 L1004.13 9.54393 L1004.13 18.9825 L996.671 18.9825 L996.671 9.54393 Z" fill="#000000" fill-rule="evenodd" fill-opacity="1" /><path clip-path="url(#clip780)" d="M1027.09 14.324 L1027.09 27.2059 L1042.45 27.2059 L1042.45 32.9987 L1027.09 32.9987 L1027.09 57.6282 Q1027.09 63.1779 1028.59 64.7578 Q1030.13 66.3376 1034.79 66.3376 L1042.45 66.3376 L1042.45 72.576 L1034.79 72.576 Q1026.16 72.576 1022.88 69.3758 Q1019.6 66.1351 1019.6 57.6282 L1019.6 32.9987 L1014.13 32.9987 L1014.13 27.2059 L1019.6 27.2059 L1019.6 14.324 L1027.09 14.324 Z" fill="#000000" fill-rule="evenodd" fill-opacity="1" /><path clip-path="url(#clip780)" d="M1054.15 62.2867 L1062.7 62.2867 L1062.7 72.576 L1054.15 72.576 L1054.15 62.2867 M1054.15 29.6769 L1062.7 29.6769 L1062.7 39.9662 L1054.15 39.9662 L1054.15 29.6769 Z" fill="#000000" fill-rule="evenodd" fill-opacity="1" /><path clip-path="url(#clip780)" d="M1109.04 65.6895 L1122.41 65.6895 L1122.41 19.5497 L1107.87 22.4663 L1107.87 15.0127 L1122.33 12.096 L1130.51 12.096 L1130.51 65.6895 L1143.88 65.6895 L1143.88 72.576 L1109.04 72.576 L1109.04 65.6895 Z" fill="#000000" fill-rule="evenodd" fill-opacity="1" /><path clip-path="url(#clip780)" d="M1160.41 62.2867 L1168.96 62.2867 L1168.96 72.576 L1160.41 72.576 L1160.41 62.2867 Z" fill="#000000" fill-rule="evenodd" fill-opacity="1" /><path clip-path="url(#clip780)" d="M1193.83 65.6895 L1222.39 65.6895 L1222.39 72.576 L1183.99 72.576 L1183.99 65.6895 Q1188.64 60.8689 1196.66 52.7671 Q1204.73 44.6248 1206.79 42.2752 Q1210.72 37.8598 1212.26 34.8216 Q1213.84 31.7429 1213.84 28.7857 Q1213.84 23.9651 1210.44 20.927 Q1207.08 17.8888 1201.65 17.8888 Q1197.8 17.8888 1193.5 19.2256 Q1189.25 20.5624 1184.39 23.2765 L1184.39 15.0127 Q1189.33 13.0277 1193.63 12.015 Q1197.92 11.0023 1201.49 11.0023 Q1210.88 11.0023 1216.47 15.7013 Q1222.06 20.4004 1222.06 28.2591 Q1222.06 31.9859 1220.65 35.3482 Q1219.27 38.6699 1215.58 43.2069 Q1214.57 44.3817 1209.14 50.0125 Q1203.71 55.6027 1193.83 65.6895 Z" fill="#000000" fill-rule="evenodd" fill-opacity="1" /><path clip-path="url(#clip780)" d="M1240.98 65.6895 L1254.35 65.6895 L1254.35 19.5497 L1239.81 22.4663 L1239.81 15.0127 L1254.27 12.096 L1262.45 12.096 L1262.45 65.6895 L1275.82 65.6895 L1275.82 72.576 L1240.98 72.576 L1240.98 65.6895 Z" fill="#000000" fill-rule="evenodd" fill-opacity="1" /><path clip-path="url(#clip780)" d="M1348.01 20.5624 L1348.01 43.1259 L1370.57 43.1259 L1370.57 50.0125 L1348.01 50.0125 L1348.01 72.576 L1341.2 72.576 L1341.2 50.0125 L1318.64 50.0125 L1318.64 43.1259 L1341.2 43.1259 L1341.2 20.5624 L1348.01 20.5624 Z" fill="#000000" fill-rule="evenodd" fill-opacity="1" /><path clip-path="url(#clip780)" d="M1409.78 46.5287 L1431.62 46.5287 L1431.62 53.1722 L1409.78 53.1722 L1409.78 46.5287 Z" fill="#000000" fill-rule="evenodd" fill-opacity="1" /><path clip-path="url(#clip780)" d="M1445.96 65.6895 L1459.33 65.6895 L1459.33 19.5497 L1444.78 22.4663 L1444.78 15.0127 L1459.24 12.096 L1467.43 12.096 L1467.43 65.6895 L1480.79 65.6895 L1480.79 72.576 L1445.96 72.576 L1445.96 65.6895 Z" fill="#000000" fill-rule="evenodd" fill-opacity="1" /><path clip-path="url(#clip780)" d="M1497.32 62.2867 L1505.87 62.2867 L1505.87 72.576 L1497.32 72.576 L1497.32 62.2867 Z" fill="#000000" fill-rule="evenodd" fill-opacity="1" /><path clip-path="url(#clip780)" d="M1523.94 71.3202 L1523.94 63.8666 Q1527.02 65.3249 1530.18 66.0946 Q1533.34 66.8642 1536.37 66.8642 Q1544.48 66.8642 1548.73 61.436 Q1553.02 55.9673 1553.63 44.8678 Q1551.28 48.3516 1547.68 50.215 Q1544.07 52.0784 1539.7 52.0784 Q1530.62 52.0784 1525.31 46.6097 Q1520.05 41.1005 1520.05 31.5808 Q1520.05 22.2638 1525.56 16.633 Q1531.07 11.0023 1540.22 11.0023 Q1550.71 11.0023 1556.22 19.0636 Q1561.77 27.0843 1561.77 42.3968 Q1561.77 56.6965 1554.97 65.2439 Q1548.2 73.7508 1536.74 73.7508 Q1533.66 73.7508 1530.5 73.1431 Q1527.34 72.5355 1523.94 71.3202 M1540.22 45.678 Q1545.73 45.678 1548.93 41.9107 Q1552.17 38.1433 1552.17 31.5808 Q1552.17 25.0589 1548.93 21.2916 Q1545.73 17.4837 1540.22 17.4837 Q1534.71 17.4837 1531.47 21.2916 Q1528.27 25.0589 1528.27 31.5808 Q1528.27 38.1433 1531.47 41.9107 Q1534.71 45.678 1540.22 45.678 Z" fill="#000000" fill-rule="evenodd" fill-opacity="1" /><path clip-path="url(#clip780)" d="M1593.98 43.8551 Q1588.14 43.8551 1584.78 46.9743 Q1581.46 50.0935 1581.46 55.5622 Q1581.46 61.0309 1584.78 64.1501 Q1588.14 67.2693 1593.98 67.2693 Q1599.81 67.2693 1603.17 64.1501 Q1606.54 60.9904 1606.54 55.5622 Q1606.54 50.0935 1603.17 46.9743 Q1599.85 43.8551 1593.98 43.8551 M1585.79 40.3713 Q1580.53 39.075 1577.57 35.4697 Q1574.65 31.8644 1574.65 26.6793 Q1574.65 19.4281 1579.8 15.2152 Q1584.98 11.0023 1593.98 11.0023 Q1603.01 11.0023 1608.16 15.2152 Q1613.3 19.4281 1613.3 26.6793 Q1613.3 31.8644 1610.34 35.4697 Q1607.43 39.075 1602.2 40.3713 Q1608.11 41.7486 1611.4 45.759 Q1614.72 49.7694 1614.72 55.5622 Q1614.72 64.3527 1609.33 69.0517 Q1603.98 73.7508 1593.98 73.7508 Q1583.97 73.7508 1578.58 69.0517 Q1573.24 64.3527 1573.24 55.5622 Q1573.24 49.7694 1576.56 45.759 Q1579.88 41.7486 1585.79 40.3713 M1582.8 27.4489 Q1582.8 32.148 1585.71 34.7811 Q1588.67 37.4142 1593.98 37.4142 Q1599.24 37.4142 1602.2 34.7811 Q1605.2 32.148 1605.2 27.4489 Q1605.2 22.7499 1602.2 20.1168 Q1599.24 17.4837 1593.98 17.4837 Q1588.67 17.4837 1585.71 20.1168 Q1582.8 22.7499 1582.8 27.4489 Z" fill="#000000" fill-rule="evenodd" fill-opacity="1" /><path clip-path="url(#clip780)" d="M1665.92 27.2059 L1649.52 49.2833 L1666.77 72.576 L1657.98 72.576 L1644.78 54.752 L1631.57 72.576 L1622.78 72.576 L1640.4 48.8377 L1624.28 27.2059 L1633.07 27.2059 L1645.1 43.369 L1657.13 27.2059 L1665.92 27.2059 Z" fill="#000000" fill-rule="evenodd" fill-opacity="1" /><path clip-path="url(#clip780)" d="M1734.02 20.5624 L1734.02 43.1259 L1756.58 43.1259 L1756.58 50.0125 L1734.02 50.0125 L1734.02 72.576 L1727.21 72.576 L1727.21 50.0125 L1704.65 50.0125 L1704.65 43.1259 L1727.21 43.1259 L1727.21 20.5624 L1734.02 20.5624 Z" fill="#000000" fill-rule="evenodd" fill-opacity="1" /><path clip-path="url(#clip780)" d="M1802.03 65.6895 L1815.4 65.6895 L1815.4 19.5497 L1800.86 22.4663 L1800.86 15.0127 L1815.32 12.096 L1823.5 12.096 L1823.5 65.6895 L1836.87 65.6895 L1836.87 72.576 L1802.03 72.576 L1802.03 65.6895 Z" fill="#000000" fill-rule="evenodd" fill-opacity="1" /><path clip-path="url(#clip780)" d="M1853.4 62.2867 L1861.94 62.2867 L1861.94 72.576 L1853.4 72.576 L1853.4 62.2867 Z" fill="#000000" fill-rule="evenodd" fill-opacity="1" /><path clip-path="url(#clip780)" d="M1897.27 17.4837 Q1890.95 17.4837 1887.75 23.7221 Q1884.59 29.92 1884.59 42.3968 Q1884.59 54.833 1887.75 61.0714 Q1890.95 67.2693 1897.27 67.2693 Q1903.63 67.2693 1906.79 61.0714 Q1909.99 54.833 1909.99 42.3968 Q1909.99 29.92 1906.79 23.7221 Q1903.63 17.4837 1897.27 17.4837 M1897.27 11.0023 Q1907.44 11.0023 1912.78 19.0636 Q1918.17 27.0843 1918.17 42.3968 Q1918.17 57.6687 1912.78 65.73 Q1907.44 73.7508 1897.27 73.7508 Q1887.1 73.7508 1881.71 65.73 Q1876.37 57.6687 1876.37 42.3968 Q1876.37 27.0843 1881.71 19.0636 Q1887.1 11.0023 1897.27 11.0023 Z" fill="#000000" fill-rule="evenodd" fill-opacity="1" /><path clip-path="url(#clip780)" d="M1969.21 27.2059 L1952.81 49.2833 L1970.06 72.576 L1961.27 72.576 L1948.07 54.752 L1934.86 72.576 L1926.07 72.576 L1943.69 48.8377 L1927.57 27.2059 L1936.36 27.2059 L1948.39 43.369 L1960.42 27.2059 L1969.21 27.2059 Z" fill="#000000" fill-rule="evenodd" fill-opacity="1" /><path clip-path="url(#clip780)" d="M1983.63 40.8979 L2000.81 40.8979 L2000.81 45.516 L1976.59 45.516 L1976.59 41.06 Q1977.96 39.8042 1980.51 37.5357 Q1994.45 25.1804 1994.45 21.3726 Q1994.45 18.699 1992.34 17.0786 Q1990.24 15.4177 1986.79 15.4177 Q1984.69 15.4177 1982.22 16.1469 Q1979.74 16.8356 1976.83 18.2534 L1976.83 13.2708 Q1979.95 12.1365 1982.62 11.5694 Q1985.34 11.0023 1987.64 11.0023 Q1993.52 11.0023 1997.04 13.6759 Q2000.57 16.3494 2000.57 20.7244 Q2000.57 26.3552 1987.16 37.8598 Q1984.89 39.8042 1983.63 40.8979 Z" fill="#000000" fill-rule="evenodd" fill-opacity="1" /><circle clip-path="url(#clip782)" cx="1556.23" cy="881.643" r="14.4" fill="#ff0000" fill-rule="evenodd" fill-opacity="0.25" stroke="#000000" stroke-opacity="0.25" stroke-width="3.2"/>
<circle clip-path="url(#clip782)" cx="1436.12" cy="1218.07" r="14.4" fill="#ff0000" fill-rule="evenodd" fill-opacity="0.25" stroke="#000000" stroke-opacity="0.25" stroke-width="3.2"/>
<circle clip-path="url(#clip782)" cx="802.388" cy="932.389" r="14.4" fill="#ff0000" fill-rule="evenodd" fill-opacity="0.25" stroke="#000000" stroke-opacity="0.25" stroke-width="3.2"/>
<circle clip-path="url(#clip782)" cx="1848.15" cy="1028.38" r="14.4" fill="#ff0000" fill-rule="evenodd" fill-opacity="0.25" stroke="#000000" stroke-opacity="0.25" stroke-width="3.2"/>
<circle clip-path="url(#clip782)" cx="1448.64" cy="1298.56" r="14.4" fill="#ff0000" fill-rule="evenodd" fill-opacity="0.25" stroke="#000000" stroke-opacity="0.25" stroke-width="3.2"/>
<circle clip-path="url(#clip782)" cx="1283.6" cy="970.846" r="14.4" fill="#ff0000" fill-rule="evenodd" fill-opacity="0.25" stroke="#000000" stroke-opacity="0.25" stroke-width="3.2"/>
<circle clip-path="url(#clip782)" cx="829.889" cy="930.209" r="14.4" fill="#ff0000" fill-rule="evenodd" fill-opacity="0.25" stroke="#000000" stroke-opacity="0.25" stroke-width="3.2"/>
<circle clip-path="url(#clip782)" cx="783.515" cy="821.076" r="14.4" fill="#ff0000" fill-rule="evenodd" fill-opacity="0.25" stroke="#000000" stroke-opacity="0.25" stroke-width="3.2"/>
<circle clip-path="url(#clip782)" cx="695.681" cy="799.042" r="14.4" fill="#ff0000" fill-rule="evenodd" fill-opacity="0.25" stroke="#000000" stroke-opacity="0.25" stroke-width="3.2"/>
<circle clip-path="url(#clip782)" cx="854.167" cy="996.766" r="14.4" fill="#ff0000" fill-rule="evenodd" fill-opacity="0.25" stroke="#000000" stroke-opacity="0.25" stroke-width="3.2"/>
<circle clip-path="url(#clip782)" cx="518.088" cy="800.24" r="14.4" fill="#ff0000" fill-rule="evenodd" fill-opacity="0.25" stroke="#000000" stroke-opacity="0.25" stroke-width="3.2"/>
<circle clip-path="url(#clip782)" cx="946.287" cy="1154.34" r="14.4" fill="#ff0000" fill-rule="evenodd" fill-opacity="0.25" stroke="#000000" stroke-opacity="0.25" stroke-width="3.2"/>
<circle clip-path="url(#clip782)" cx="1872.57" cy="772.148" r="14.4" fill="#ff0000" fill-rule="evenodd" fill-opacity="0.25" stroke="#000000" stroke-opacity="0.25" stroke-width="3.2"/>
<circle clip-path="url(#clip782)" cx="655.417" cy="885.744" r="14.4" fill="#ff0000" fill-rule="evenodd" fill-opacity="0.25" stroke="#000000" stroke-opacity="0.25" stroke-width="3.2"/>
<circle clip-path="url(#clip782)" cx="1595.17" cy="882.073" r="14.4" fill="#ff0000" fill-rule="evenodd" fill-opacity="0.25" stroke="#000000" stroke-opacity="0.25" stroke-width="3.2"/>
<circle clip-path="url(#clip782)" cx="339.233" cy="439.469" r="14.4" fill="#ff0000" fill-rule="evenodd" fill-opacity="0.25" stroke="#000000" stroke-opacity="0.25" stroke-width="3.2"/>
<circle clip-path="url(#clip782)" cx="1916.45" cy="798.134" r="14.4" fill="#ff0000" fill-rule="evenodd" fill-opacity="0.25" stroke="#000000" stroke-opacity="0.25" stroke-width="3.2"/>
<circle clip-path="url(#clip782)" cx="1118.93" cy="965.853" r="14.4" fill="#ff0000" fill-rule="evenodd" fill-opacity="0.25" stroke="#000000" stroke-opacity="0.25" stroke-width="3.2"/>
<circle clip-path="url(#clip782)" cx="1057.55" cy="1016.63" r="14.4" fill="#ff0000" fill-rule="evenodd" fill-opacity="0.25" stroke="#000000" stroke-opacity="0.25" stroke-width="3.2"/>
<circle clip-path="url(#clip782)" cx="399.4" cy="575.847" r="14.4" fill="#ff0000" fill-rule="evenodd" fill-opacity="0.25" stroke="#000000" stroke-opacity="0.25" stroke-width="3.2"/>
<circle clip-path="url(#clip782)" cx="878.774" cy="1054.52" r="14.4" fill="#ff0000" fill-rule="evenodd" fill-opacity="0.25" stroke="#000000" stroke-opacity="0.25" stroke-width="3.2"/>
<circle clip-path="url(#clip782)" cx="659.485" cy="970.671" r="14.4" fill="#ff0000" fill-rule="evenodd" fill-opacity="0.25" stroke="#000000" stroke-opacity="0.25" stroke-width="3.2"/>
<circle clip-path="url(#clip782)" cx="914.877" cy="1092.07" r="14.4" fill="#ff0000" fill-rule="evenodd" fill-opacity="0.25" stroke="#000000" stroke-opacity="0.25" stroke-width="3.2"/>
<circle clip-path="url(#clip782)" cx="707.994" cy="1042.74" r="14.4" fill="#ff0000" fill-rule="evenodd" fill-opacity="0.25" stroke="#000000" stroke-opacity="0.25" stroke-width="3.2"/>
<circle clip-path="url(#clip782)" cx="318.594" cy="504.188" r="14.4" fill="#ff0000" fill-rule="evenodd" fill-opacity="0.25" stroke="#000000" stroke-opacity="0.25" stroke-width="3.2"/>
<circle clip-path="url(#clip782)" cx="358.406" cy="554.724" r="14.4" fill="#ff0000" fill-rule="evenodd" fill-opacity="0.25" stroke="#000000" stroke-opacity="0.25" stroke-width="3.2"/>
<circle clip-path="url(#clip782)" cx="1837.33" cy="1006.71" r="14.4" fill="#ff0000" fill-rule="evenodd" fill-opacity="0.25" stroke="#000000" stroke-opacity="0.25" stroke-width="3.2"/>
<circle clip-path="url(#clip782)" cx="1648.31" cy="1101.2" r="14.4" fill="#ff0000" fill-rule="evenodd" fill-opacity="0.25" stroke="#000000" stroke-opacity="0.25" stroke-width="3.2"/>
<circle clip-path="url(#clip782)" cx="1083.92" cy="1095.6" r="14.4" fill="#ff0000" fill-rule="evenodd" fill-opacity="0.25" stroke="#000000" stroke-opacity="0.25" stroke-width="3.2"/>
<circle clip-path="url(#clip782)" cx="873.186" cy="1086.8" r="14.4" fill="#ff0000" fill-rule="evenodd" fill-opacity="0.25" stroke="#000000" stroke-opacity="0.25" stroke-width="3.2"/>
<circle clip-path="url(#clip782)" cx="539.121" cy="452.56" r="14.4" fill="#ff0000" fill-rule="evenodd" fill-opacity="0.25" stroke="#000000" stroke-opacity="0.25" stroke-width="3.2"/>
<circle clip-path="url(#clip782)" cx="1332.73" cy="1247.87" r="14.4" fill="#ff0000" fill-rule="evenodd" fill-opacity="0.25" stroke="#000000" stroke-opacity="0.25" stroke-width="3.2"/>
<circle clip-path="url(#clip782)" cx="519.621" cy="626.603" r="14.4" fill="#ff0000" fill-rule="evenodd" fill-opacity="0.25" stroke="#000000" stroke-opacity="0.25" stroke-width="3.2"/>
<circle clip-path="url(#clip782)" cx="2289.65" cy="226.971" r="14.4" fill="#ff0000" fill-rule="evenodd" fill-opacity="0.25" stroke="#000000" stroke-opacity="0.25" stroke-width="3.2"/>
<circle clip-path="url(#clip782)" cx="1898.11" cy="1046.1" r="14.4" fill="#ff0000" fill-rule="evenodd" fill-opacity="0.25" stroke="#000000" stroke-opacity="0.25" stroke-width="3.2"/>
<circle clip-path="url(#clip782)" cx="2063.18" cy="790.281" r="14.4" fill="#ff0000" fill-rule="evenodd" fill-opacity="0.25" stroke="#000000" stroke-opacity="0.25" stroke-width="3.2"/>
<circle clip-path="url(#clip782)" cx="1575.08" cy="899.981" r="14.4" fill="#ff0000" fill-rule="evenodd" fill-opacity="0.25" stroke="#000000" stroke-opacity="0.25" stroke-width="3.2"/>
<circle clip-path="url(#clip782)" cx="1423.32" cy="1253.49" r="14.4" fill="#ff0000" fill-rule="evenodd" fill-opacity="0.25" stroke="#000000" stroke-opacity="0.25" stroke-width="3.2"/>
<circle clip-path="url(#clip782)" cx="491.538" cy="457.723" r="14.4" fill="#ff0000" fill-rule="evenodd" fill-opacity="0.25" stroke="#000000" stroke-opacity="0.25" stroke-width="3.2"/>
<circle clip-path="url(#clip782)" cx="1776.89" cy="783.593" r="14.4" fill="#ff0000" fill-rule="evenodd" fill-opacity="0.25" stroke="#000000" stroke-opacity="0.25" stroke-width="3.2"/>
<circle clip-path="url(#clip782)" cx="1439.74" cy="1054.75" r="14.4" fill="#ff0000" fill-rule="evenodd" fill-opacity="0.25" stroke="#000000" stroke-opacity="0.25" stroke-width="3.2"/>
<circle clip-path="url(#clip782)" cx="1589.49" cy="1218.92" r="14.4" fill="#ff0000" fill-rule="evenodd" fill-opacity="0.25" stroke="#000000" stroke-opacity="0.25" stroke-width="3.2"/>
<circle clip-path="url(#clip782)" cx="379.324" cy="234.932" r="14.4" fill="#ff0000" fill-rule="evenodd" fill-opacity="0.25" stroke="#000000" stroke-opacity="0.25" stroke-width="3.2"/>
<circle clip-path="url(#clip782)" cx="1940.98" cy="748.061" r="14.4" fill="#ff0000" fill-rule="evenodd" fill-opacity="0.25" stroke="#000000" stroke-opacity="0.25" stroke-width="3.2"/>
<circle clip-path="url(#clip782)" cx="1718" cy="986.53" r="14.4" fill="#ff0000" fill-rule="evenodd" fill-opacity="0.25" stroke="#000000" stroke-opacity="0.25" stroke-width="3.2"/>
<circle clip-path="url(#clip782)" cx="1187.35" cy="996.486" r="14.4" fill="#ff0000" fill-rule="evenodd" fill-opacity="0.25" stroke="#000000" stroke-opacity="0.25" stroke-width="3.2"/>
<circle clip-path="url(#clip782)" cx="1481.19" cy="1118.75" r="14.4" fill="#ff0000" fill-rule="evenodd" fill-opacity="0.25" stroke="#000000" stroke-opacity="0.25" stroke-width="3.2"/>
<circle clip-path="url(#clip782)" cx="301.159" cy="242.952" r="14.4" fill="#ff0000" fill-rule="evenodd" fill-opacity="0.25" stroke="#000000" stroke-opacity="0.25" stroke-width="3.2"/>
<circle clip-path="url(#clip782)" cx="792.963" cy="1174.52" r="14.4" fill="#ff0000" fill-rule="evenodd" fill-opacity="0.25" stroke="#000000" stroke-opacity="0.25" stroke-width="3.2"/>
<circle clip-path="url(#clip782)" cx="1729.2" cy="900.231" r="14.4" fill="#ff0000" fill-rule="evenodd" fill-opacity="0.25" stroke="#000000" stroke-opacity="0.25" stroke-width="3.2"/>
<circle clip-path="url(#clip782)" cx="2202.77" cy="192.594" r="14.4" fill="#ff0000" fill-rule="evenodd" fill-opacity="0.25" stroke="#000000" stroke-opacity="0.25" stroke-width="3.2"/>
<circle clip-path="url(#clip782)" cx="1279.02" cy="1313.22" r="14.4" fill="#ff0000" fill-rule="evenodd" fill-opacity="0.25" stroke="#000000" stroke-opacity="0.25" stroke-width="3.2"/>
<circle clip-path="url(#clip782)" cx="1705.46" cy="1105.1" r="14.4" fill="#ff0000" fill-rule="evenodd" fill-opacity="0.25" stroke="#000000" stroke-opacity="0.25" stroke-width="3.2"/>
<circle clip-path="url(#clip782)" cx="324.957" cy="188.274" r="14.4" fill="#ff0000" fill-rule="evenodd" fill-opacity="0.25" stroke="#000000" stroke-opacity="0.25" stroke-width="3.2"/>
<circle clip-path="url(#clip782)" cx="1711.32" cy="1212.56" r="14.4" fill="#ff0000" fill-rule="evenodd" fill-opacity="0.25" stroke="#000000" stroke-opacity="0.25" stroke-width="3.2"/>
<circle clip-path="url(#clip782)" cx="1825.09" cy="937.907" r="14.4" fill="#ff0000" fill-rule="evenodd" fill-opacity="0.25" stroke="#000000" stroke-opacity="0.25" stroke-width="3.2"/>
<circle clip-path="url(#clip782)" cx="1440.17" cy="1257.12" r="14.4" fill="#ff0000" fill-rule="evenodd" fill-opacity="0.25" stroke="#000000" stroke-opacity="0.25" stroke-width="3.2"/>
<circle clip-path="url(#clip782)" cx="1408.24" cy="1078.94" r="14.4" fill="#ff0000" fill-rule="evenodd" fill-opacity="0.25" stroke="#000000" stroke-opacity="0.25" stroke-width="3.2"/>
<circle clip-path="url(#clip782)" cx="558.665" cy="544.981" r="14.4" fill="#ff0000" fill-rule="evenodd" fill-opacity="0.25" stroke="#000000" stroke-opacity="0.25" stroke-width="3.2"/>
<circle clip-path="url(#clip782)" cx="2232.62" cy="254.138" r="14.4" fill="#ff0000" fill-rule="evenodd" fill-opacity="0.25" stroke="#000000" stroke-opacity="0.25" stroke-width="3.2"/>
<circle clip-path="url(#clip782)" cx="1958.21" cy="869.429" r="14.4" fill="#ff0000" fill-rule="evenodd" fill-opacity="0.25" stroke="#000000" stroke-opacity="0.25" stroke-width="3.2"/>
<circle clip-path="url(#clip782)" cx="432.268" cy="443.43" r="14.4" fill="#ff0000" fill-rule="evenodd" fill-opacity="0.25" stroke="#000000" stroke-opacity="0.25" stroke-width="3.2"/>
<circle clip-path="url(#clip782)" cx="1751.91" cy="930.878" r="14.4" fill="#ff0000" fill-rule="evenodd" fill-opacity="0.25" stroke="#000000" stroke-opacity="0.25" stroke-width="3.2"/>
<circle clip-path="url(#clip782)" cx="282.544" cy="309.528" r="14.4" fill="#ff0000" fill-rule="evenodd" fill-opacity="0.25" stroke="#000000" stroke-opacity="0.25" stroke-width="3.2"/>
<circle clip-path="url(#clip782)" cx="520.34" cy="689.927" r="14.4" fill="#ff0000" fill-rule="evenodd" fill-opacity="0.25" stroke="#000000" stroke-opacity="0.25" stroke-width="3.2"/>
<circle clip-path="url(#clip782)" cx="2215.37" cy="330.398" r="14.4" fill="#ff0000" fill-rule="evenodd" fill-opacity="0.25" stroke="#000000" stroke-opacity="0.25" stroke-width="3.2"/>
<circle clip-path="url(#clip782)" cx="1339.47" cy="1004.7" r="14.4" fill="#ff0000" fill-rule="evenodd" fill-opacity="0.25" stroke="#000000" stroke-opacity="0.25" stroke-width="3.2"/>
<circle clip-path="url(#clip782)" cx="1101.51" cy="1232.83" r="14.4" fill="#ff0000" fill-rule="evenodd" fill-opacity="0.25" stroke="#000000" stroke-opacity="0.25" stroke-width="3.2"/>
<circle clip-path="url(#clip782)" cx="2004.6" cy="630.412" r="14.4" fill="#ff0000" fill-rule="evenodd" fill-opacity="0.25" stroke="#000000" stroke-opacity="0.25" stroke-width="3.2"/>
<circle clip-path="url(#clip782)" cx="421.614" cy="502.167" r="14.4" fill="#ff0000" fill-rule="evenodd" fill-opacity="0.25" stroke="#000000" stroke-opacity="0.25" stroke-width="3.2"/>
<circle clip-path="url(#clip782)" cx="687.818" cy="658.204" r="14.4" fill="#ff0000" fill-rule="evenodd" fill-opacity="0.25" stroke="#000000" stroke-opacity="0.25" stroke-width="3.2"/>
<circle clip-path="url(#clip782)" cx="1686.27" cy="921.029" r="14.4" fill="#ff0000" fill-rule="evenodd" fill-opacity="0.25" stroke="#000000" stroke-opacity="0.25" stroke-width="3.2"/>
<circle clip-path="url(#clip782)" cx="1031.8" cy="1219.5" r="14.4" fill="#ff0000" fill-rule="evenodd" fill-opacity="0.25" stroke="#000000" stroke-opacity="0.25" stroke-width="3.2"/>
<circle clip-path="url(#clip782)" cx="651.876" cy="959.025" r="14.4" fill="#ff0000" fill-rule="evenodd" fill-opacity="0.25" stroke="#000000" stroke-opacity="0.25" stroke-width="3.2"/>
<circle clip-path="url(#clip782)" cx="1906.95" cy="1036.52" r="14.4" fill="#ff0000" fill-rule="evenodd" fill-opacity="0.25" stroke="#000000" stroke-opacity="0.25" stroke-width="3.2"/>
<circle clip-path="url(#clip782)" cx="1558.53" cy="1074.78" r="14.4" fill="#ff0000" fill-rule="evenodd" fill-opacity="0.25" stroke="#000000" stroke-opacity="0.25" stroke-width="3.2"/>
<circle clip-path="url(#clip782)" cx="2194.57" cy="239.893" r="14.4" fill="#ff0000" fill-rule="evenodd" fill-opacity="0.25" stroke="#000000" stroke-opacity="0.25" stroke-width="3.2"/>
<circle clip-path="url(#clip782)" cx="2127.3" cy="616.243" r="14.4" fill="#ff0000" fill-rule="evenodd" fill-opacity="0.25" stroke="#000000" stroke-opacity="0.25" stroke-width="3.2"/>
<circle clip-path="url(#clip782)" cx="1500.65" cy="906.68" r="14.4" fill="#ff0000" fill-rule="evenodd" fill-opacity="0.25" stroke="#000000" stroke-opacity="0.25" stroke-width="3.2"/>
<circle clip-path="url(#clip782)" cx="1593.03" cy="1076.99" r="14.4" fill="#ff0000" fill-rule="evenodd" fill-opacity="0.25" stroke="#000000" stroke-opacity="0.25" stroke-width="3.2"/>
<circle clip-path="url(#clip782)" cx="2084.37" cy="469.184" r="14.4" fill="#ff0000" fill-rule="evenodd" fill-opacity="0.25" stroke="#000000" stroke-opacity="0.25" stroke-width="3.2"/>
<circle clip-path="url(#clip782)" cx="1748.35" cy="1072.95" r="14.4" fill="#ff0000" fill-rule="evenodd" fill-opacity="0.25" stroke="#000000" stroke-opacity="0.25" stroke-width="3.2"/>
<circle clip-path="url(#clip782)" cx="1232.17" cy="1380.5" r="14.4" fill="#ff0000" fill-rule="evenodd" fill-opacity="0.25" stroke="#000000" stroke-opacity="0.25" stroke-width="3.2"/>
<circle clip-path="url(#clip782)" cx="1693.47" cy="1030.8" r="14.4" fill="#ff0000" fill-rule="evenodd" fill-opacity="0.25" stroke="#000000" stroke-opacity="0.25" stroke-width="3.2"/>
<circle clip-path="url(#clip782)" cx="701.89" cy="1055.39" r="14.4" fill="#ff0000" fill-rule="evenodd" fill-opacity="0.25" stroke="#000000" stroke-opacity="0.25" stroke-width="3.2"/>
<circle clip-path="url(#clip782)" cx="1231.61" cy="1124.61" r="14.4" fill="#ff0000" fill-rule="evenodd" fill-opacity="0.25" stroke="#000000" stroke-opacity="0.25" stroke-width="3.2"/>
<circle clip-path="url(#clip782)" cx="2034.56" cy="875.685" r="14.4" fill="#ff0000" fill-rule="evenodd" fill-opacity="0.25" stroke="#000000" stroke-opacity="0.25" stroke-width="3.2"/>
<circle clip-path="url(#clip782)" cx="1995.96" cy="899.441" r="14.4" fill="#ff0000" fill-rule="evenodd" fill-opacity="0.25" stroke="#000000" stroke-opacity="0.25" stroke-width="3.2"/>
<circle clip-path="url(#clip782)" cx="638.524" cy="627.187" r="14.4" fill="#ff0000" fill-rule="evenodd" fill-opacity="0.25" stroke="#000000" stroke-opacity="0.25" stroke-width="3.2"/>
<circle clip-path="url(#clip782)" cx="1707.67" cy="1015.23" r="14.4" fill="#ff0000" fill-rule="evenodd" fill-opacity="0.25" stroke="#000000" stroke-opacity="0.25" stroke-width="3.2"/>
<circle clip-path="url(#clip782)" cx="1710.14" cy="1078.74" r="14.4" fill="#ff0000" fill-rule="evenodd" fill-opacity="0.25" stroke="#000000" stroke-opacity="0.25" stroke-width="3.2"/>
<circle clip-path="url(#clip782)" cx="2276.11" cy="322.97" r="14.4" fill="#ff0000" fill-rule="evenodd" fill-opacity="0.25" stroke="#000000" stroke-opacity="0.25" stroke-width="3.2"/>
<circle clip-path="url(#clip782)" cx="1027.03" cy="1276.89" r="14.4" fill="#ff0000" fill-rule="evenodd" fill-opacity="0.25" stroke="#000000" stroke-opacity="0.25" stroke-width="3.2"/>
<circle clip-path="url(#clip782)" cx="1091.14" cy="957.935" r="14.4" fill="#ff0000" fill-rule="evenodd" fill-opacity="0.25" stroke="#000000" stroke-opacity="0.25" stroke-width="3.2"/>
<circle clip-path="url(#clip782)" cx="1425.6" cy="1020.61" r="14.4" fill="#ff0000" fill-rule="evenodd" fill-opacity="0.25" stroke="#000000" stroke-opacity="0.25" stroke-width="3.2"/>
<circle clip-path="url(#clip782)" cx="908.438" cy="1114.35" r="14.4" fill="#ff0000" fill-rule="evenodd" fill-opacity="0.25" stroke="#000000" stroke-opacity="0.25" stroke-width="3.2"/>
<circle clip-path="url(#clip782)" cx="1742.79" cy="760.796" r="14.4" fill="#ff0000" fill-rule="evenodd" fill-opacity="0.25" stroke="#000000" stroke-opacity="0.25" stroke-width="3.2"/>
<circle clip-path="url(#clip782)" cx="1063.05" cy="1247.39" r="14.4" fill="#ff0000" fill-rule="evenodd" fill-opacity="0.25" stroke="#000000" stroke-opacity="0.25" stroke-width="3.2"/>
<circle clip-path="url(#clip782)" cx="1011.85" cy="1069.87" r="14.4" fill="#ff0000" fill-rule="evenodd" fill-opacity="0.25" stroke="#000000" stroke-opacity="0.25" stroke-width="3.2"/>
<circle clip-path="url(#clip782)" cx="2158.6" cy="570.456" r="14.4" fill="#ff0000" fill-rule="evenodd" fill-opacity="0.25" stroke="#000000" stroke-opacity="0.25" stroke-width="3.2"/>
<circle clip-path="url(#clip782)" cx="1604.4" cy="1292.16" r="14.4" fill="#ff0000" fill-rule="evenodd" fill-opacity="0.25" stroke="#000000" stroke-opacity="0.25" stroke-width="3.2"/>
<circle clip-path="url(#clip782)" cx="1143.29" cy="1305.8" r="14.4" fill="#ff0000" fill-rule="evenodd" fill-opacity="0.25" stroke="#000000" stroke-opacity="0.25" stroke-width="3.2"/>
<circle clip-path="url(#clip782)" cx="1999.3" cy="686.1" r="14.4" fill="#ff0000" fill-rule="evenodd" fill-opacity="0.25" stroke="#000000" stroke-opacity="0.25" stroke-width="3.2"/>
<circle clip-path="url(#clip782)" cx="591.475" cy="751.45" r="14.4" fill="#ff0000" fill-rule="evenodd" fill-opacity="0.25" stroke="#000000" stroke-opacity="0.25" stroke-width="3.2"/>
<circle clip-path="url(#clip782)" cx="553.503" cy="833.404" r="14.4" fill="#ff0000" fill-rule="evenodd" fill-opacity="0.25" stroke="#000000" stroke-opacity="0.25" stroke-width="3.2"/>
<circle clip-path="url(#clip782)" cx="1641.03" cy="1236.32" r="14.4" fill="#ff0000" fill-rule="evenodd" fill-opacity="0.25" stroke="#000000" stroke-opacity="0.25" stroke-width="3.2"/>
<circle clip-path="url(#clip782)" cx="1748.67" cy="825.99" r="14.4" fill="#ff0000" fill-rule="evenodd" fill-opacity="0.25" stroke="#000000" stroke-opacity="0.25" stroke-width="3.2"/>
<circle clip-path="url(#clip782)" cx="802.617" cy="931.252" r="14.4" fill="#ff0000" fill-rule="evenodd" fill-opacity="0.25" stroke="#000000" stroke-opacity="0.25" stroke-width="3.2"/>
<circle clip-path="url(#clip782)" cx="346.524" cy="430.634" r="14.4" fill="#ff0000" fill-rule="evenodd" fill-opacity="0.25" stroke="#000000" stroke-opacity="0.25" stroke-width="3.2"/>
<circle clip-path="url(#clip782)" cx="373.904" cy="300.437" r="14.4" fill="#ff0000" fill-rule="evenodd" fill-opacity="0.25" stroke="#000000" stroke-opacity="0.25" stroke-width="3.2"/>
<circle clip-path="url(#clip782)" cx="877.645" cy="1182.4" r="14.4" fill="#ff0000" fill-rule="evenodd" fill-opacity="0.25" stroke="#000000" stroke-opacity="0.25" stroke-width="3.2"/>
<circle clip-path="url(#clip782)" cx="950.712" cy="1217.51" r="14.4" fill="#ff0000" fill-rule="evenodd" fill-opacity="0.25" stroke="#000000" stroke-opacity="0.25" stroke-width="3.2"/>
<circle clip-path="url(#clip782)" cx="2283.47" cy="225.087" r="14.4" fill="#ff0000" fill-rule="evenodd" fill-opacity="0.25" stroke="#000000" stroke-opacity="0.25" stroke-width="3.2"/>
<circle clip-path="url(#clip782)" cx="1130.8" cy="1368.5" r="14.4" fill="#ff0000" fill-rule="evenodd" fill-opacity="0.25" stroke="#000000" stroke-opacity="0.25" stroke-width="3.2"/>
<circle clip-path="url(#clip782)" cx="1986.92" cy="494.41" r="14.4" fill="#ff0000" fill-rule="evenodd" fill-opacity="0.25" stroke="#000000" stroke-opacity="0.25" stroke-width="3.2"/>
<circle clip-path="url(#clip782)" cx="2197.72" cy="220.097" r="14.4" fill="#ff0000" fill-rule="evenodd" fill-opacity="0.25" stroke="#000000" stroke-opacity="0.25" stroke-width="3.2"/>
<circle clip-path="url(#clip782)" cx="662.702" cy="748.307" r="14.4" fill="#ff0000" fill-rule="evenodd" fill-opacity="0.25" stroke="#000000" stroke-opacity="0.25" stroke-width="3.2"/>
<circle clip-path="url(#clip782)" cx="1427.4" cy="1217.15" r="14.4" fill="#ff0000" fill-rule="evenodd" fill-opacity="0.25" stroke="#000000" stroke-opacity="0.25" stroke-width="3.2"/>
<circle clip-path="url(#clip782)" cx="1713.99" cy="815.907" r="14.4" fill="#ff0000" fill-rule="evenodd" fill-opacity="0.25" stroke="#000000" stroke-opacity="0.25" stroke-width="3.2"/>
<circle clip-path="url(#clip782)" cx="1404.13" cy="1273.6" r="14.4" fill="#ff0000" fill-rule="evenodd" fill-opacity="0.25" stroke="#000000" stroke-opacity="0.25" stroke-width="3.2"/>
<circle clip-path="url(#clip782)" cx="1507.55" cy="1099.72" r="14.4" fill="#ff0000" fill-rule="evenodd" fill-opacity="0.25" stroke="#000000" stroke-opacity="0.25" stroke-width="3.2"/>
<circle clip-path="url(#clip782)" cx="1598.38" cy="1271.44" r="14.4" fill="#ff0000" fill-rule="evenodd" fill-opacity="0.25" stroke="#000000" stroke-opacity="0.25" stroke-width="3.2"/>
<circle clip-path="url(#clip782)" cx="522.225" cy="728.449" r="14.4" fill="#ff0000" fill-rule="evenodd" fill-opacity="0.25" stroke="#000000" stroke-opacity="0.25" stroke-width="3.2"/>
<circle clip-path="url(#clip782)" cx="439.264" cy="364.439" r="14.4" fill="#ff0000" fill-rule="evenodd" fill-opacity="0.25" stroke="#000000" stroke-opacity="0.25" stroke-width="3.2"/>
<circle clip-path="url(#clip782)" cx="1497.13" cy="1249.3" r="14.4" fill="#ff0000" fill-rule="evenodd" fill-opacity="0.25" stroke="#000000" stroke-opacity="0.25" stroke-width="3.2"/>
<circle clip-path="url(#clip782)" cx="1997.64" cy="772.645" r="14.4" fill="#ff0000" fill-rule="evenodd" fill-opacity="0.25" stroke="#000000" stroke-opacity="0.25" stroke-width="3.2"/>
<circle clip-path="url(#clip782)" cx="1927.43" cy="971.321" r="14.4" fill="#ff0000" fill-rule="evenodd" fill-opacity="0.25" stroke="#000000" stroke-opacity="0.25" stroke-width="3.2"/>
<circle clip-path="url(#clip782)" cx="1711.62" cy="911.296" r="14.4" fill="#ff0000" fill-rule="evenodd" fill-opacity="0.25" stroke="#000000" stroke-opacity="0.25" stroke-width="3.2"/>
<circle clip-path="url(#clip782)" cx="2124.65" cy="637.469" r="14.4" fill="#ff0000" fill-rule="evenodd" fill-opacity="0.25" stroke="#000000" stroke-opacity="0.25" stroke-width="3.2"/>
<circle clip-path="url(#clip782)" cx="324.812" cy="435.257" r="14.4" fill="#ff0000" fill-rule="evenodd" fill-opacity="0.25" stroke="#000000" stroke-opacity="0.25" stroke-width="3.2"/>
<circle clip-path="url(#clip782)" cx="2002.52" cy="587.324" r="14.4" fill="#ff0000" fill-rule="evenodd" fill-opacity="0.25" stroke="#000000" stroke-opacity="0.25" stroke-width="3.2"/>
<circle clip-path="url(#clip782)" cx="1343.4" cy="938.018" r="14.4" fill="#ff0000" fill-rule="evenodd" fill-opacity="0.25" stroke="#000000" stroke-opacity="0.25" stroke-width="3.2"/>
<circle clip-path="url(#clip782)" cx="619.604" cy="961.641" r="14.4" fill="#ff0000" fill-rule="evenodd" fill-opacity="0.25" stroke="#000000" stroke-opacity="0.25" stroke-width="3.2"/>
<circle clip-path="url(#clip782)" cx="418.267" cy="271.854" r="14.4" fill="#ff0000" fill-rule="evenodd" fill-opacity="0.25" stroke="#000000" stroke-opacity="0.25" stroke-width="3.2"/>
<circle clip-path="url(#clip782)" cx="441.603" cy="720.421" r="14.4" fill="#ff0000" fill-rule="evenodd" fill-opacity="0.25" stroke="#000000" stroke-opacity="0.25" stroke-width="3.2"/>
<circle clip-path="url(#clip782)" cx="1539.65" cy="940.061" r="14.4" fill="#ff0000" fill-rule="evenodd" fill-opacity="0.25" stroke="#000000" stroke-opacity="0.25" stroke-width="3.2"/>
<circle clip-path="url(#clip782)" cx="1493.86" cy="952.843" r="14.4" fill="#ff0000" fill-rule="evenodd" fill-opacity="0.25" stroke="#000000" stroke-opacity="0.25" stroke-width="3.2"/>
<circle clip-path="url(#clip782)" cx="849.728" cy="987.136" r="14.4" fill="#ff0000" fill-rule="evenodd" fill-opacity="0.25" stroke="#000000" stroke-opacity="0.25" stroke-width="3.2"/>
<circle clip-path="url(#clip782)" cx="1482.94" cy="949.506" r="14.4" fill="#ff0000" fill-rule="evenodd" fill-opacity="0.25" stroke="#000000" stroke-opacity="0.25" stroke-width="3.2"/>
<circle clip-path="url(#clip782)" cx="1634.42" cy="1213.42" r="14.4" fill="#ff0000" fill-rule="evenodd" fill-opacity="0.25" stroke="#000000" stroke-opacity="0.25" stroke-width="3.2"/>
<circle clip-path="url(#clip782)" cx="768.357" cy="911.532" r="14.4" fill="#ff0000" fill-rule="evenodd" fill-opacity="0.25" stroke="#000000" stroke-opacity="0.25" stroke-width="3.2"/>
<circle clip-path="url(#clip782)" cx="307.825" cy="331.63" r="14.4" fill="#ff0000" fill-rule="evenodd" fill-opacity="0.25" stroke="#000000" stroke-opacity="0.25" stroke-width="3.2"/>
<circle clip-path="url(#clip782)" cx="585.429" cy="676.809" r="14.4" fill="#ff0000" fill-rule="evenodd" fill-opacity="0.25" stroke="#000000" stroke-opacity="0.25" stroke-width="3.2"/>
<circle clip-path="url(#clip782)" cx="743.822" cy="1046.21" r="14.4" fill="#ff0000" fill-rule="evenodd" fill-opacity="0.25" stroke="#000000" stroke-opacity="0.25" stroke-width="3.2"/>
<circle clip-path="url(#clip782)" cx="332.994" cy="391.986" r="14.4" fill="#ff0000" fill-rule="evenodd" fill-opacity="0.25" stroke="#000000" stroke-opacity="0.25" stroke-width="3.2"/>
<circle clip-path="url(#clip782)" cx="1227.86" cy="961.591" r="14.4" fill="#ff0000" fill-rule="evenodd" fill-opacity="0.25" stroke="#000000" stroke-opacity="0.25" stroke-width="3.2"/>
<circle clip-path="url(#clip782)" cx="627.72" cy="975.829" r="14.4" fill="#ff0000" fill-rule="evenodd" fill-opacity="0.25" stroke="#000000" stroke-opacity="0.25" stroke-width="3.2"/>
<circle clip-path="url(#clip782)" cx="492.246" cy="767.286" r="14.4" fill="#ff0000" fill-rule="evenodd" fill-opacity="0.25" stroke="#000000" stroke-opacity="0.25" stroke-width="3.2"/>
<circle clip-path="url(#clip782)" cx="541.086" cy="475.386" r="14.4" fill="#ff0000" fill-rule="evenodd" fill-opacity="0.25" stroke="#000000" stroke-opacity="0.25" stroke-width="3.2"/>
<circle clip-path="url(#clip782)" cx="1000.9" cy="1274.88" r="14.4" fill="#ff0000" fill-rule="evenodd" fill-opacity="0.25" stroke="#000000" stroke-opacity="0.25" stroke-width="3.2"/>
<circle clip-path="url(#clip782)" cx="343.999" cy="369.685" r="14.4" fill="#ff0000" fill-rule="evenodd" fill-opacity="0.25" stroke="#000000" stroke-opacity="0.25" stroke-width="3.2"/>
<circle clip-path="url(#clip782)" cx="1929.25" cy="676.953" r="14.4" fill="#ff0000" fill-rule="evenodd" fill-opacity="0.25" stroke="#000000" stroke-opacity="0.25" stroke-width="3.2"/>
<circle clip-path="url(#clip782)" cx="1942.9" cy="699.416" r="14.4" fill="#ff0000" fill-rule="evenodd" fill-opacity="0.25" stroke="#000000" stroke-opacity="0.25" stroke-width="3.2"/>
<circle clip-path="url(#clip782)" cx="2102.68" cy="731.452" r="14.4" fill="#ff0000" fill-rule="evenodd" fill-opacity="0.25" stroke="#000000" stroke-opacity="0.25" stroke-width="3.2"/>
<circle clip-path="url(#clip782)" cx="1331.43" cy="1021.84" r="14.4" fill="#ff0000" fill-rule="evenodd" fill-opacity="0.25" stroke="#000000" stroke-opacity="0.25" stroke-width="3.2"/>
<circle clip-path="url(#clip782)" cx="1547.62" cy="960.717" r="14.4" fill="#ff0000" fill-rule="evenodd" fill-opacity="0.25" stroke="#000000" stroke-opacity="0.25" stroke-width="3.2"/>
<circle clip-path="url(#clip782)" cx="2027.51" cy="522.896" r="14.4" fill="#ff0000" fill-rule="evenodd" fill-opacity="0.25" stroke="#000000" stroke-opacity="0.25" stroke-width="3.2"/>
<circle clip-path="url(#clip782)" cx="370.85" cy="465.705" r="14.4" fill="#ff0000" fill-rule="evenodd" fill-opacity="0.25" stroke="#000000" stroke-opacity="0.25" stroke-width="3.2"/>
<circle clip-path="url(#clip782)" cx="1671.37" cy="1146.9" r="14.4" fill="#ff0000" fill-rule="evenodd" fill-opacity="0.25" stroke="#000000" stroke-opacity="0.25" stroke-width="3.2"/>
<circle clip-path="url(#clip782)" cx="1592.15" cy="1045.74" r="14.4" fill="#ff0000" fill-rule="evenodd" fill-opacity="0.25" stroke="#000000" stroke-opacity="0.25" stroke-width="3.2"/>
<circle clip-path="url(#clip782)" cx="1803.58" cy="873.485" r="14.4" fill="#ff0000" fill-rule="evenodd" fill-opacity="0.25" stroke="#000000" stroke-opacity="0.25" stroke-width="3.2"/>
<circle clip-path="url(#clip782)" cx="1584.67" cy="888.351" r="14.4" fill="#ff0000" fill-rule="evenodd" fill-opacity="0.25" stroke="#000000" stroke-opacity="0.25" stroke-width="3.2"/>
<circle clip-path="url(#clip782)" cx="1635.28" cy="1266.64" r="14.4" fill="#ff0000" fill-rule="evenodd" fill-opacity="0.25" stroke="#000000" stroke-opacity="0.25" stroke-width="3.2"/>
<circle clip-path="url(#clip782)" cx="667.857" cy="680.66" r="14.4" fill="#ff0000" fill-rule="evenodd" fill-opacity="0.25" stroke="#000000" stroke-opacity="0.25" stroke-width="3.2"/>
<circle clip-path="url(#clip782)" cx="1456.54" cy="1069.31" r="14.4" fill="#ff0000" fill-rule="evenodd" fill-opacity="0.25" stroke="#000000" stroke-opacity="0.25" stroke-width="3.2"/>
<circle clip-path="url(#clip782)" cx="1287.33" cy="966.941" r="14.4" fill="#ff0000" fill-rule="evenodd" fill-opacity="0.25" stroke="#000000" stroke-opacity="0.25" stroke-width="3.2"/>
<circle clip-path="url(#clip782)" cx="951.716" cy="1114.58" r="14.4" fill="#ff0000" fill-rule="evenodd" fill-opacity="0.25" stroke="#000000" stroke-opacity="0.25" stroke-width="3.2"/>
<circle clip-path="url(#clip782)" cx="556.642" cy="914.114" r="14.4" fill="#ff0000" fill-rule="evenodd" fill-opacity="0.25" stroke="#000000" stroke-opacity="0.25" stroke-width="3.2"/>
<circle clip-path="url(#clip782)" cx="590.873" cy="559.554" r="14.4" fill="#ff0000" fill-rule="evenodd" fill-opacity="0.25" stroke="#000000" stroke-opacity="0.25" stroke-width="3.2"/>
<circle clip-path="url(#clip782)" cx="837.414" cy="1189.62" r="14.4" fill="#ff0000" fill-rule="evenodd" fill-opacity="0.25" stroke="#000000" stroke-opacity="0.25" stroke-width="3.2"/>
<circle clip-path="url(#clip782)" cx="1849.22" cy="907.783" r="14.4" fill="#ff0000" fill-rule="evenodd" fill-opacity="0.25" stroke="#000000" stroke-opacity="0.25" stroke-width="3.2"/>
<circle clip-path="url(#clip782)" cx="841.009" cy="1007" r="14.4" fill="#ff0000" fill-rule="evenodd" fill-opacity="0.25" stroke="#000000" stroke-opacity="0.25" stroke-width="3.2"/>
<circle clip-path="url(#clip782)" cx="450.673" cy="428.566" r="14.4" fill="#ff0000" fill-rule="evenodd" fill-opacity="0.25" stroke="#000000" stroke-opacity="0.25" stroke-width="3.2"/>
<circle clip-path="url(#clip782)" cx="1464.96" cy="1149.74" r="14.4" fill="#ff0000" fill-rule="evenodd" fill-opacity="0.25" stroke="#000000" stroke-opacity="0.25" stroke-width="3.2"/>
<circle clip-path="url(#clip782)" cx="2283.7" cy="160.256" r="14.4" fill="#ff0000" fill-rule="evenodd" fill-opacity="0.25" stroke="#000000" stroke-opacity="0.25" stroke-width="3.2"/>
<circle clip-path="url(#clip782)" cx="657.26" cy="924.481" r="14.4" fill="#ff0000" fill-rule="evenodd" fill-opacity="0.25" stroke="#000000" stroke-opacity="0.25" stroke-width="3.2"/>
<circle clip-path="url(#clip782)" cx="2123.82" cy="626.983" r="14.4" fill="#ff0000" fill-rule="evenodd" fill-opacity="0.25" stroke="#000000" stroke-opacity="0.25" stroke-width="3.2"/>
<circle clip-path="url(#clip782)" cx="1374.84" cy="1386.4" r="14.4" fill="#ff0000" fill-rule="evenodd" fill-opacity="0.25" stroke="#000000" stroke-opacity="0.25" stroke-width="3.2"/>
<circle clip-path="url(#clip782)" cx="1098.58" cy="1119.66" r="14.4" fill="#ff0000" fill-rule="evenodd" fill-opacity="0.25" stroke="#000000" stroke-opacity="0.25" stroke-width="3.2"/>
<circle clip-path="url(#clip782)" cx="1390.09" cy="1028.81" r="14.4" fill="#ff0000" fill-rule="evenodd" fill-opacity="0.25" stroke="#000000" stroke-opacity="0.25" stroke-width="3.2"/>
<circle clip-path="url(#clip782)" cx="516.129" cy="470.754" r="14.4" fill="#ff0000" fill-rule="evenodd" fill-opacity="0.25" stroke="#000000" stroke-opacity="0.25" stroke-width="3.2"/>
<circle clip-path="url(#clip782)" cx="1793.36" cy="946.623" r="14.4" fill="#ff0000" fill-rule="evenodd" fill-opacity="0.25" stroke="#000000" stroke-opacity="0.25" stroke-width="3.2"/>
<circle clip-path="url(#clip782)" cx="360.512" cy="195.97" r="14.4" fill="#ff0000" fill-rule="evenodd" fill-opacity="0.25" stroke="#000000" stroke-opacity="0.25" stroke-width="3.2"/>
<circle clip-path="url(#clip782)" cx="1348.85" cy="1171.23" r="14.4" fill="#ff0000" fill-rule="evenodd" fill-opacity="0.25" stroke="#000000" stroke-opacity="0.25" stroke-width="3.2"/>
<circle clip-path="url(#clip782)" cx="2051.28" cy="699.771" r="14.4" fill="#ff0000" fill-rule="evenodd" fill-opacity="0.25" stroke="#000000" stroke-opacity="0.25" stroke-width="3.2"/>
<circle clip-path="url(#clip782)" cx="1576.3" cy="1305.8" r="14.4" fill="#ff0000" fill-rule="evenodd" fill-opacity="0.25" stroke="#000000" stroke-opacity="0.25" stroke-width="3.2"/>
<circle clip-path="url(#clip782)" cx="491.948" cy="699.035" r="14.4" fill="#ff0000" fill-rule="evenodd" fill-opacity="0.25" stroke="#000000" stroke-opacity="0.25" stroke-width="3.2"/>
<circle clip-path="url(#clip782)" cx="965.379" cy="1201.52" r="14.4" fill="#ff0000" fill-rule="evenodd" fill-opacity="0.25" stroke="#000000" stroke-opacity="0.25" stroke-width="3.2"/>
<circle clip-path="url(#clip782)" cx="582.744" cy="878.15" r="14.4" fill="#ff0000" fill-rule="evenodd" fill-opacity="0.25" stroke="#000000" stroke-opacity="0.25" stroke-width="3.2"/>
<circle clip-path="url(#clip782)" cx="648.09" cy="982.174" r="14.4" fill="#ff0000" fill-rule="evenodd" fill-opacity="0.25" stroke="#000000" stroke-opacity="0.25" stroke-width="3.2"/>
<circle clip-path="url(#clip782)" cx="405.737" cy="632.633" r="14.4" fill="#ff0000" fill-rule="evenodd" fill-opacity="0.25" stroke="#000000" stroke-opacity="0.25" stroke-width="3.2"/>
<circle clip-path="url(#clip782)" cx="1860.12" cy="974.939" r="14.4" fill="#ff0000" fill-rule="evenodd" fill-opacity="0.25" stroke="#000000" stroke-opacity="0.25" stroke-width="3.2"/>
<circle clip-path="url(#clip782)" cx="1095.8" cy="979.299" r="14.4" fill="#ff0000" fill-rule="evenodd" fill-opacity="0.25" stroke="#000000" stroke-opacity="0.25" stroke-width="3.2"/>
<circle clip-path="url(#clip782)" cx="958.461" cy="1305.64" r="14.4" fill="#ff0000" fill-rule="evenodd" fill-opacity="0.25" stroke="#000000" stroke-opacity="0.25" stroke-width="3.2"/>
<circle clip-path="url(#clip782)" cx="1670.86" cy="1070.83" r="14.4" fill="#ff0000" fill-rule="evenodd" fill-opacity="0.25" stroke="#000000" stroke-opacity="0.25" stroke-width="3.2"/>
<circle clip-path="url(#clip782)" cx="1161.29" cy="1208.4" r="14.4" fill="#ff0000" fill-rule="evenodd" fill-opacity="0.25" stroke="#000000" stroke-opacity="0.25" stroke-width="3.2"/>
<circle clip-path="url(#clip782)" cx="902.114" cy="1145.88" r="14.4" fill="#ff0000" fill-rule="evenodd" fill-opacity="0.25" stroke="#000000" stroke-opacity="0.25" stroke-width="3.2"/>
<circle clip-path="url(#clip782)" cx="1410.32" cy="1154.7" r="14.4" fill="#ff0000" fill-rule="evenodd" fill-opacity="0.25" stroke="#000000" stroke-opacity="0.25" stroke-width="3.2"/>
<circle clip-path="url(#clip782)" cx="890.891" cy="1076.87" r="14.4" fill="#ff0000" fill-rule="evenodd" fill-opacity="0.25" stroke="#000000" stroke-opacity="0.25" stroke-width="3.2"/>
<circle clip-path="url(#clip782)" cx="1363.6" cy="1201.97" r="14.4" fill="#ff0000" fill-rule="evenodd" fill-opacity="0.25" stroke="#000000" stroke-opacity="0.25" stroke-width="3.2"/>
<polyline clip-path="url(#clip782)" style="stroke:#0000ff; stroke-linecap:round; stroke-linejoin:round; stroke-width:4; stroke-opacity:1; fill:none" points="280.231,272.866 305.383,318.339 330.535,362.646 355.687,405.788 380.839,447.766 405.991,488.578 431.143,528.226 456.295,566.708 481.447,604.026 506.599,640.178 531.751,675.166 556.903,708.988 582.055,741.646 607.207,773.138 632.359,803.466 657.511,832.628 682.663,860.626 707.815,887.458 732.967,913.126 758.119,937.628 783.271,960.966 808.423,983.138 833.575,1004.15 858.727,1023.99 883.879,1042.67 909.031,1060.18 934.183,1076.53 959.335,1091.71 984.487,1105.73 1009.64,1118.58 1034.79,1130.27 1059.94,1140.79 1085.1,1150.15 1110.25,1158.34 1135.4,1165.37 1160.55,1171.23 1185.7,1175.93 1210.86,1179.46 1236.01,1181.83 1261.16,1183.03 1286.31,1183.07 1311.46,1181.94 1336.62,1179.65 1361.77,1176.19 1386.92,1171.57 1412.07,1165.78 1437.22,1158.83 1462.38,1150.71 1487.53,1141.43 1512.68,1130.98 1537.83,1119.37 1562.98,1106.59 1588.14,1092.65 1613.29,1077.54 1638.44,1061.27 1663.59,1043.83 1688.74,1025.23 1713.9,1005.46 1739.05,984.531 1764.2,962.434 1789.35,939.172 1814.5,914.745 1839.66,889.152 1864.81,862.395 1889.96,834.473 1915.11,805.386 1940.26,775.133 1965.42,743.716 1990.57,711.134 2015.72,677.387 2040.87,642.475 2066.02,606.397 2091.18,569.155 2116.33,530.748 2141.48,491.176 2166.63,450.439 2191.78,408.537 2216.94,365.469 2242.09,321.237 2267.24,275.84 2292.39,229.278 "/>
<path clip-path="url(#clip780)" d="M1968.51 1379.86 L2281.66 1379.86 L2281.66 1224.34 L1968.51 1224.34  Z" fill="#ffffff" fill-rule="evenodd" fill-opacity="1"/>
<polyline clip-path="url(#clip780)" style="stroke:#000000; stroke-linecap:round; stroke-linejoin:round; stroke-width:4; stroke-opacity:1; fill:none" points="1968.51,1379.86 2281.66,1379.86 2281.66,1224.34 1968.51,1224.34 1968.51,1379.86 "/>
<circle clip-path="url(#clip780)" cx="2063.31" cy="1276.18" r="23.04" fill="#ff0000" fill-rule="evenodd" fill-opacity="0.25" stroke="#000000" stroke-opacity="0.25" stroke-width="5.12"/>
<path clip-path="url(#clip780)" d="M2177.01 1271.47 L2177.01 1257.44 L2181.27 1257.44 L2181.27 1293.46 L2177.01 1293.46 L2177.01 1289.57 Q2175.67 1291.88 2173.61 1293.02 Q2171.57 1294.13 2168.7 1294.13 Q2164 1294.13 2161.04 1290.38 Q2158.1 1286.63 2158.1 1280.52 Q2158.1 1274.41 2161.04 1270.66 Q2164 1266.91 2168.7 1266.91 Q2171.57 1266.91 2173.61 1268.04 Q2175.67 1269.15 2177.01 1271.47 M2162.5 1280.52 Q2162.5 1285.22 2164.42 1287.9 Q2166.36 1290.56 2169.74 1290.56 Q2173.12 1290.56 2175.07 1287.9 Q2177.01 1285.22 2177.01 1280.52 Q2177.01 1275.82 2175.07 1273.16 Q2173.12 1270.47 2169.74 1270.47 Q2166.36 1270.47 2164.42 1273.16 Q2162.5 1275.82 2162.5 1280.52 Z" fill="#000000" fill-rule="evenodd" fill-opacity="1" /><path clip-path="url(#clip780)" d="M2201.83 1280.42 Q2196.66 1280.42 2194.67 1281.6 Q2192.68 1282.79 2192.68 1285.63 Q2192.68 1287.9 2194.16 1289.24 Q2195.67 1290.56 2198.24 1290.56 Q2201.78 1290.56 2203.91 1288.06 Q2206.06 1285.54 2206.06 1281.37 L2206.06 1280.42 L2201.83 1280.42 M2210.32 1278.66 L2210.32 1293.46 L2206.06 1293.46 L2206.06 1289.52 Q2204.6 1291.88 2202.43 1293.02 Q2200.25 1294.13 2197.1 1294.13 Q2193.12 1294.13 2190.76 1291.91 Q2188.42 1289.66 2188.42 1285.91 Q2188.42 1281.54 2191.34 1279.31 Q2194.28 1277.09 2200.09 1277.09 L2206.06 1277.09 L2206.06 1276.67 Q2206.06 1273.73 2204.12 1272.14 Q2202.2 1270.52 2198.7 1270.52 Q2196.48 1270.52 2194.37 1271.05 Q2192.27 1271.58 2190.32 1272.65 L2190.32 1268.71 Q2192.66 1267.81 2194.86 1267.37 Q2197.06 1266.91 2199.14 1266.91 Q2204.77 1266.91 2207.54 1269.82 Q2210.32 1272.74 2210.32 1278.66 Z" fill="#000000" fill-rule="evenodd" fill-opacity="1" /><path clip-path="url(#clip780)" d="M2223.31 1260.17 L2223.31 1267.53 L2232.08 1267.53 L2232.08 1270.84 L2223.31 1270.84 L2223.31 1284.91 Q2223.31 1288.09 2224.16 1288.99 Q2225.04 1289.89 2227.71 1289.89 L2232.08 1289.89 L2232.08 1293.46 L2227.71 1293.46 Q2222.78 1293.46 2220.9 1291.63 Q2219.03 1289.78 2219.03 1284.91 L2219.03 1270.84 L2215.9 1270.84 L2215.9 1267.53 L2219.03 1267.53 L2219.03 1260.17 L2223.31 1260.17 Z" fill="#000000" fill-rule="evenodd" fill-opacity="1" /><path clip-path="url(#clip780)" d="M2249.47 1280.42 Q2244.3 1280.42 2242.31 1281.6 Q2240.32 1282.79 2240.32 1285.63 Q2240.32 1287.9 2241.8 1289.24 Q2243.31 1290.56 2245.88 1290.56 Q2249.42 1290.56 2251.55 1288.06 Q2253.7 1285.54 2253.7 1281.37 L2253.7 1280.42 L2249.47 1280.42 M2257.96 1278.66 L2257.96 1293.46 L2253.7 1293.46 L2253.7 1289.52 Q2252.24 1291.88 2250.07 1293.02 Q2247.89 1294.13 2244.74 1294.13 Q2240.76 1294.13 2238.4 1291.91 Q2236.06 1289.66 2236.06 1285.91 Q2236.06 1281.54 2238.98 1279.31 Q2241.92 1277.09 2247.73 1277.09 L2253.7 1277.09 L2253.7 1276.67 Q2253.7 1273.73 2251.76 1272.14 Q2249.84 1270.52 2246.34 1270.52 Q2244.12 1270.52 2242.01 1271.05 Q2239.91 1271.58 2237.96 1272.65 L2237.96 1268.71 Q2240.3 1267.81 2242.5 1267.37 Q2244.7 1266.91 2246.78 1266.91 Q2252.41 1266.91 2255.18 1269.82 Q2257.96 1272.74 2257.96 1278.66 Z" fill="#000000" fill-rule="evenodd" fill-opacity="1" /><polyline clip-path="url(#clip780)" style="stroke:#0000ff; stroke-linecap:round; stroke-linejoin:round; stroke-width:4; stroke-opacity:1; fill:none" points="1992.21,1328.02 2134.4,1328.02 "/>
<path clip-path="url(#clip780)" d="M2174.6 1309.28 L2174.6 1312.82 L2170.53 1312.82 Q2168.24 1312.82 2167.34 1313.75 Q2166.46 1314.67 2166.46 1317.08 L2166.46 1319.37 L2173.47 1319.37 L2173.47 1322.68 L2166.46 1322.68 L2166.46 1345.3 L2162.17 1345.3 L2162.17 1322.68 L2158.1 1322.68 L2158.1 1319.37 L2162.17 1319.37 L2162.17 1317.56 Q2162.17 1313.24 2164.19 1311.27 Q2166.2 1309.28 2170.58 1309.28 L2174.6 1309.28 Z" fill="#000000" fill-rule="evenodd" fill-opacity="1" /><path clip-path="url(#clip780)" d="M2178.17 1319.37 L2182.43 1319.37 L2182.43 1345.3 L2178.17 1345.3 L2178.17 1319.37 M2178.17 1309.28 L2182.43 1309.28 L2182.43 1314.67 L2178.17 1314.67 L2178.17 1309.28 Z" fill="#000000" fill-rule="evenodd" fill-opacity="1" /><path clip-path="url(#clip780)" d="M2195.55 1312.01 L2195.55 1319.37 L2204.33 1319.37 L2204.33 1322.68 L2195.55 1322.68 L2195.55 1336.75 Q2195.55 1339.93 2196.41 1340.83 Q2197.29 1341.73 2199.95 1341.73 L2204.33 1341.73 L2204.33 1345.3 L2199.95 1345.3 Q2195.02 1345.3 2193.15 1343.47 Q2191.27 1341.62 2191.27 1336.75 L2191.27 1322.68 L2188.15 1322.68 L2188.15 1319.37 L2191.27 1319.37 L2191.27 1312.01 L2195.55 1312.01 Z" fill="#000000" fill-rule="evenodd" fill-opacity="1" /></svg>
