<?xml version="1.0" encoding="utf-8"?>
<svg xmlns="http://www.w3.org/2000/svg" xmlns:xlink="http://www.w3.org/1999/xlink" width="600" height="400" viewBox="0 0 2400 1600">
<defs>
  <clipPath id="clip920">
    <rect x="0" y="0" width="2400" height="1600"/>
  </clipPath>
</defs>
<path clip-path="url(#clip920)" d="M0 1600 L2400 1600 L2400 0 L0 0  Z" fill="#ffffff" fill-rule="evenodd" fill-opacity="1"/>
<defs>
  <clipPath id="clip921">
    <rect x="480" y="0" width="1681" height="1600"/>
  </clipPath>
</defs>
<path clip-path="url(#clip920)" d="M255.977 1423.18 L2352.76 1423.18 L2352.76 123.472 L255.977 123.472  Z" fill="#ffffff" fill-rule="evenodd" fill-opacity="1"/>
<defs>
  <clipPath id="clip922">
    <rect x="255" y="123" width="2098" height="1301"/>
  </clipPath>
</defs>
<polyline clip-path="url(#clip922)" style="stroke:#000000; stroke-linecap:round; stroke-linejoin:round; stroke-width:2; stroke-opacity:0.1; fill:none" points="308.837,1423.18 308.837,123.472 "/>
<polyline clip-path="url(#clip922)" style="stroke:#000000; stroke-linecap:round; stroke-linejoin:round; stroke-width:2; stroke-opacity:0.1; fill:none" points="806.923,1423.18 806.923,123.472 "/>
<polyline clip-path="url(#clip922)" style="stroke:#000000; stroke-linecap:round; stroke-linejoin:round; stroke-width:2; stroke-opacity:0.1; fill:none" points="1305.01,1423.18 1305.01,123.472 "/>
<polyline clip-path="url(#clip922)" style="stroke:#000000; stroke-linecap:round; stroke-linejoin:round; stroke-width:2; stroke-opacity:0.1; fill:none" points="1803.1,1423.18 1803.1,123.472 "/>
<polyline clip-path="url(#clip922)" style="stroke:#000000; stroke-linecap:round; stroke-linejoin:round; stroke-width:2; stroke-opacity:0.1; fill:none" points="2301.18,1423.18 2301.18,123.472 "/>
<polyline clip-path="url(#clip920)" style="stroke:#000000; stroke-linecap:round; stroke-linejoin:round; stroke-width:4; stroke-opacity:1; fill:none" points="255.977,1423.18 2352.76,1423.18 "/>
<polyline clip-path="url(#clip920)" style="stroke:#000000; stroke-linecap:round; stroke-linejoin:round; stroke-width:4; stroke-opacity:1; fill:none" points="308.837,1423.18 308.837,1404.28 "/>
<polyline clip-path="url(#clip920)" style="stroke:#000000; stroke-linecap:round; stroke-linejoin:round; stroke-width:4; stroke-opacity:1; fill:none" points="806.923,1423.18 806.923,1404.28 "/>
<polyline clip-path="url(#clip920)" style="stroke:#000000; stroke-linecap:round; stroke-linejoin:round; stroke-width:4; stroke-opacity:1; fill:none" points="1305.01,1423.18 1305.01,1404.28 "/>
<polyline clip-path="url(#clip920)" style="stroke:#000000; stroke-linecap:round; stroke-linejoin:round; stroke-width:4; stroke-opacity:1; fill:none" points="1803.1,1423.18 1803.1,1404.28 "/>
<polyline clip-path="url(#clip920)" style="stroke:#000000; stroke-linecap:round; stroke-linejoin:round; stroke-width:4; stroke-opacity:1; fill:none" points="2301.18,1423.18 2301.18,1404.28 "/>
<path clip-path="url(#clip920)" d="M271.14 1454.1 Q267.529 1454.1 265.7 1457.66 Q263.895 1461.2 263.895 1468.33 Q263.895 1475.44 265.7 1479.01 Q267.529 1482.55 271.14 1482.55 Q274.774 1482.55 276.58 1479.01 Q278.409 1475.44 278.409 1468.33 Q278.409 1461.2 276.58 1457.66 Q274.774 1454.1 271.14 1454.1 M271.14 1450.39 Q276.95 1450.39 280.006 1455 Q283.084 1459.58 283.084 1468.33 Q283.084 1477.06 280.006 1481.67 Q276.95 1486.25 271.14 1486.25 Q265.33 1486.25 262.251 1481.67 Q259.196 1477.06 259.196 1468.33 Q259.196 1459.58 262.251 1455 Q265.33 1450.39 271.14 1450.39 Z" fill="#000000" fill-rule="nonzero" fill-opacity="1" /><path clip-path="url(#clip920)" d="M291.302 1479.7 L296.186 1479.7 L296.186 1485.58 L291.302 1485.58 L291.302 1479.7 Z" fill="#000000" fill-rule="nonzero" fill-opacity="1" /><path clip-path="url(#clip920)" d="M316.371 1454.1 Q312.76 1454.1 310.932 1457.66 Q309.126 1461.2 309.126 1468.33 Q309.126 1475.44 310.932 1479.01 Q312.76 1482.55 316.371 1482.55 Q320.006 1482.55 321.811 1479.01 Q323.64 1475.44 323.64 1468.33 Q323.64 1461.2 321.811 1457.66 Q320.006 1454.1 316.371 1454.1 M316.371 1450.39 Q322.181 1450.39 325.237 1455 Q328.316 1459.58 328.316 1468.33 Q328.316 1477.06 325.237 1481.67 Q322.181 1486.25 316.371 1486.25 Q310.561 1486.25 307.482 1481.67 Q304.427 1477.06 304.427 1468.33 Q304.427 1459.58 307.482 1455 Q310.561 1450.39 316.371 1450.39 Z" fill="#000000" fill-rule="nonzero" fill-opacity="1" /><path clip-path="url(#clip920)" d="M346.533 1454.1 Q342.922 1454.1 341.093 1457.66 Q339.288 1461.2 339.288 1468.33 Q339.288 1475.44 341.093 1479.01 Q342.922 1482.55 346.533 1482.55 Q350.167 1482.55 351.973 1479.01 Q353.802 1475.44 353.802 1468.33 Q353.802 1461.2 351.973 1457.66 Q350.167 1454.1 346.533 1454.1 M346.533 1450.39 Q352.343 1450.39 355.399 1455 Q358.478 1459.58 358.478 1468.33 Q358.478 1477.06 355.399 1481.67 Q352.343 1486.25 346.533 1486.25 Q340.723 1486.25 337.644 1481.67 Q334.589 1477.06 334.589 1468.33 Q334.589 1459.58 337.644 1455 Q340.723 1450.39 346.533 1450.39 Z" fill="#000000" fill-rule="nonzero" fill-opacity="1" /><path clip-path="url(#clip920)" d="M769.724 1454.1 Q766.113 1454.1 764.284 1457.66 Q762.479 1461.2 762.479 1468.33 Q762.479 1475.44 764.284 1479.01 Q766.113 1482.55 769.724 1482.55 Q773.358 1482.55 775.164 1479.01 Q776.992 1475.44 776.992 1468.33 Q776.992 1461.2 775.164 1457.66 Q773.358 1454.1 769.724 1454.1 M769.724 1450.39 Q775.534 1450.39 778.59 1455 Q781.668 1459.58 781.668 1468.33 Q781.668 1477.06 778.59 1481.67 Q775.534 1486.25 769.724 1486.25 Q763.914 1486.25 760.835 1481.67 Q757.78 1477.06 757.78 1468.33 Q757.78 1459.58 760.835 1455 Q763.914 1450.39 769.724 1450.39 Z" fill="#000000" fill-rule="nonzero" fill-opacity="1" /><path clip-path="url(#clip920)" d="M789.886 1479.7 L794.77 1479.7 L794.77 1485.58 L789.886 1485.58 L789.886 1479.7 Z" fill="#000000" fill-rule="nonzero" fill-opacity="1" /><path clip-path="url(#clip920)" d="M808.983 1481.64 L825.302 1481.64 L825.302 1485.58 L803.358 1485.58 L803.358 1481.64 Q806.02 1478.89 810.603 1474.26 Q815.21 1469.61 816.39 1468.27 Q818.636 1465.74 819.515 1464.01 Q820.418 1462.25 820.418 1460.56 Q820.418 1457.8 818.474 1456.07 Q816.552 1454.33 813.451 1454.33 Q811.251 1454.33 808.798 1455.09 Q806.367 1455.86 803.59 1457.41 L803.59 1452.69 Q806.414 1451.55 808.867 1450.97 Q811.321 1450.39 813.358 1450.39 Q818.728 1450.39 821.923 1453.08 Q825.117 1455.77 825.117 1460.26 Q825.117 1462.39 824.307 1464.31 Q823.52 1466.2 821.413 1468.8 Q820.835 1469.47 817.733 1472.69 Q814.631 1475.88 808.983 1481.64 Z" fill="#000000" fill-rule="nonzero" fill-opacity="1" /><path clip-path="url(#clip920)" d="M835.163 1451.02 L853.52 1451.02 L853.52 1454.96 L839.446 1454.96 L839.446 1463.43 Q840.464 1463.08 841.483 1462.92 Q842.501 1462.73 843.52 1462.73 Q849.307 1462.73 852.686 1465.9 Q856.066 1469.08 856.066 1474.49 Q856.066 1480.07 852.594 1483.17 Q849.122 1486.25 842.802 1486.25 Q840.626 1486.25 838.358 1485.88 Q836.112 1485.51 833.705 1484.77 L833.705 1480.07 Q835.788 1481.2 838.011 1481.76 Q840.233 1482.32 842.71 1482.32 Q846.714 1482.32 849.052 1480.21 Q851.39 1478.1 851.39 1474.49 Q851.39 1470.88 849.052 1468.77 Q846.714 1466.67 842.71 1466.67 Q840.835 1466.67 838.96 1467.08 Q837.108 1467.5 835.163 1468.38 L835.163 1451.02 Z" fill="#000000" fill-rule="nonzero" fill-opacity="1" /><path clip-path="url(#clip920)" d="M1267.31 1454.1 Q1263.7 1454.1 1261.87 1457.66 Q1260.07 1461.2 1260.07 1468.33 Q1260.07 1475.44 1261.87 1479.01 Q1263.7 1482.55 1267.31 1482.55 Q1270.95 1482.55 1272.75 1479.01 Q1274.58 1475.44 1274.58 1468.33 Q1274.58 1461.2 1272.75 1457.66 Q1270.95 1454.1 1267.31 1454.1 M1267.31 1450.39 Q1273.12 1450.39 1276.18 1455 Q1279.26 1459.58 1279.26 1468.33 Q1279.26 1477.06 1276.18 1481.67 Q1273.12 1486.25 1267.31 1486.25 Q1261.5 1486.25 1258.42 1481.67 Q1255.37 1477.06 1255.37 1468.33 Q1255.37 1459.58 1258.42 1455 Q1261.5 1450.39 1267.31 1450.39 Z" fill="#000000" fill-rule="nonzero" fill-opacity="1" /><path clip-path="url(#clip920)" d="M1287.47 1479.7 L1292.36 1479.7 L1292.36 1485.58 L1287.47 1485.58 L1287.47 1479.7 Z" fill="#000000" fill-rule="nonzero" fill-opacity="1" /><path clip-path="url(#clip920)" d="M1302.59 1451.02 L1320.95 1451.02 L1320.95 1454.96 L1306.87 1454.96 L1306.87 1463.43 Q1307.89 1463.08 1308.91 1462.92 Q1309.93 1462.73 1310.95 1462.73 Q1316.73 1462.73 1320.11 1465.9 Q1323.49 1469.08 1323.49 1474.49 Q1323.49 1480.07 1320.02 1483.17 Q1316.55 1486.25 1310.23 1486.25 Q1308.05 1486.25 1305.78 1485.88 Q1303.54 1485.51 1301.13 1484.77 L1301.13 1480.07 Q1303.22 1481.2 1305.44 1481.76 Q1307.66 1482.32 1310.14 1482.32 Q1314.14 1482.32 1316.48 1480.21 Q1318.82 1478.1 1318.82 1474.49 Q1318.82 1470.88 1316.48 1468.77 Q1314.14 1466.67 1310.14 1466.67 Q1308.26 1466.67 1306.39 1467.08 Q1304.53 1467.5 1302.59 1468.38 L1302.59 1451.02 Z" fill="#000000" fill-rule="nonzero" fill-opacity="1" /><path clip-path="url(#clip920)" d="M1342.71 1454.1 Q1339.09 1454.1 1337.27 1457.66 Q1335.46 1461.2 1335.46 1468.33 Q1335.46 1475.44 1337.27 1479.01 Q1339.09 1482.55 1342.71 1482.55 Q1346.34 1482.55 1348.15 1479.01 Q1349.97 1475.44 1349.97 1468.33 Q1349.97 1461.2 1348.15 1457.66 Q1346.34 1454.1 1342.71 1454.1 M1342.71 1450.39 Q1348.52 1450.39 1351.57 1455 Q1354.65 1459.58 1354.65 1468.33 Q1354.65 1477.06 1351.57 1481.67 Q1348.52 1486.25 1342.71 1486.25 Q1336.9 1486.25 1333.82 1481.67 Q1330.76 1477.06 1330.76 1468.33 Q1330.76 1459.58 1333.82 1455 Q1336.9 1450.39 1342.71 1450.39 Z" fill="#000000" fill-rule="nonzero" fill-opacity="1" /><path clip-path="url(#clip920)" d="M1765.9 1454.1 Q1762.29 1454.1 1760.46 1457.66 Q1758.65 1461.2 1758.65 1468.33 Q1758.65 1475.44 1760.46 1479.01 Q1762.29 1482.55 1765.9 1482.55 Q1769.53 1482.55 1771.34 1479.01 Q1773.16 1475.44 1773.16 1468.33 Q1773.16 1461.2 1771.34 1457.66 Q1769.53 1454.1 1765.9 1454.1 M1765.9 1450.39 Q1771.71 1450.39 1774.76 1455 Q1777.84 1459.58 1777.84 1468.33 Q1777.84 1477.06 1774.76 1481.67 Q1771.71 1486.25 1765.9 1486.25 Q1760.09 1486.25 1757.01 1481.67 Q1753.95 1477.06 1753.95 1468.33 Q1753.95 1459.58 1757.01 1455 Q1760.09 1450.39 1765.9 1450.39 Z" fill="#000000" fill-rule="nonzero" fill-opacity="1" /><path clip-path="url(#clip920)" d="M1786.06 1479.7 L1790.94 1479.7 L1790.94 1485.58 L1786.06 1485.58 L1786.06 1479.7 Z" fill="#000000" fill-rule="nonzero" fill-opacity="1" /><path clip-path="url(#clip920)" d="M1799.95 1451.02 L1822.17 1451.02 L1822.17 1453.01 L1809.62 1485.58 L1804.74 1485.58 L1816.54 1454.96 L1799.95 1454.96 L1799.95 1451.02 Z" fill="#000000" fill-rule="nonzero" fill-opacity="1" /><path clip-path="url(#clip920)" d="M1831.34 1451.02 L1849.69 1451.02 L1849.69 1454.96 L1835.62 1454.96 L1835.62 1463.43 Q1836.64 1463.08 1837.66 1462.92 Q1838.67 1462.73 1839.69 1462.73 Q1845.48 1462.73 1848.86 1465.9 Q1852.24 1469.08 1852.24 1474.49 Q1852.24 1480.07 1848.77 1483.17 Q1845.29 1486.25 1838.97 1486.25 Q1836.8 1486.25 1834.53 1485.88 Q1832.28 1485.51 1829.88 1484.77 L1829.88 1480.07 Q1831.96 1481.2 1834.18 1481.76 Q1836.41 1482.32 1838.88 1482.32 Q1842.89 1482.32 1845.22 1480.21 Q1847.56 1478.1 1847.56 1474.49 Q1847.56 1470.88 1845.22 1468.77 Q1842.89 1466.67 1838.88 1466.67 Q1837.01 1466.67 1835.13 1467.08 Q1833.28 1467.5 1831.34 1468.38 L1831.34 1451.02 Z" fill="#000000" fill-rule="nonzero" fill-opacity="1" /><path clip-path="url(#clip920)" d="M2253.25 1481.64 L2260.89 1481.64 L2260.89 1455.28 L2252.58 1456.95 L2252.58 1452.69 L2260.85 1451.02 L2265.52 1451.02 L2265.52 1481.64 L2273.16 1481.64 L2273.16 1485.58 L2253.25 1485.58 L2253.25 1481.64 Z" fill="#000000" fill-rule="nonzero" fill-opacity="1" /><path clip-path="url(#clip920)" d="M2282.61 1479.7 L2287.49 1479.7 L2287.49 1485.58 L2282.61 1485.58 L2282.61 1479.7 Z" fill="#000000" fill-rule="nonzero" fill-opacity="1" /><path clip-path="url(#clip920)" d="M2307.67 1454.1 Q2304.06 1454.1 2302.23 1457.66 Q2300.43 1461.2 2300.43 1468.33 Q2300.43 1475.44 2302.23 1479.01 Q2304.06 1482.55 2307.67 1482.55 Q2311.31 1482.55 2313.11 1479.01 Q2314.94 1475.44 2314.94 1468.33 Q2314.94 1461.2 2313.11 1457.66 Q2311.31 1454.1 2307.67 1454.1 M2307.67 1450.39 Q2313.48 1450.39 2316.54 1455 Q2319.62 1459.58 2319.62 1468.33 Q2319.62 1477.06 2316.54 1481.67 Q2313.48 1486.25 2307.67 1486.25 Q2301.86 1486.25 2298.79 1481.67 Q2295.73 1477.06 2295.73 1468.33 Q2295.73 1459.58 2298.79 1455 Q2301.86 1450.39 2307.67 1450.39 Z" fill="#000000" fill-rule="nonzero" fill-opacity="1" /><path clip-path="url(#clip920)" d="M2337.84 1454.1 Q2334.23 1454.1 2332.4 1457.66 Q2330.59 1461.2 2330.59 1468.33 Q2330.59 1475.44 2332.4 1479.01 Q2334.23 1482.55 2337.84 1482.55 Q2341.47 1482.55 2343.28 1479.01 Q2345.1 1475.44 2345.1 1468.33 Q2345.1 1461.2 2343.28 1457.66 Q2341.47 1454.1 2337.84 1454.1 M2337.84 1450.39 Q2343.65 1450.39 2346.7 1455 Q2349.78 1459.58 2349.78 1468.33 Q2349.78 1477.06 2346.7 1481.67 Q2343.65 1486.25 2337.84 1486.25 Q2332.03 1486.25 2328.95 1481.67 Q2325.89 1477.06 2325.89 1468.33 Q2325.89 1459.58 2328.95 1455 Q2332.03 1450.39 2337.84 1450.39 Z" fill="#000000" fill-rule="nonzero" fill-opacity="1" /><path clip-path="url(#clip920)" d="M1320.98 1532.4 L1308.09 1549.74 L1321.65 1568.04 L1314.74 1568.04 L1304.37 1554.04 L1293.99 1568.04 L1287.08 1568.04 L1300.93 1549.39 L1288.26 1532.4 L1295.17 1532.4 L1304.62 1545.1 L1314.07 1532.4 L1320.98 1532.4 Z" fill="#000000" fill-rule="nonzero" fill-opacity="1" /><polyline clip-path="url(#clip922)" style="stroke:#000000; stroke-linecap:round; stroke-linejoin:round; stroke-width:2; stroke-opacity:0.1; fill:none" points="255.977,1407.02 2352.76,1407.02 "/>
<polyline clip-path="url(#clip922)" style="stroke:#000000; stroke-linecap:round; stroke-linejoin:round; stroke-width:2; stroke-opacity:0.1; fill:none" points="255.977,1151.8 2352.76,1151.8 "/>
<polyline clip-path="url(#clip922)" style="stroke:#000000; stroke-linecap:round; stroke-linejoin:round; stroke-width:2; stroke-opacity:0.1; fill:none" points="255.977,896.587 2352.76,896.587 "/>
<polyline clip-path="url(#clip922)" style="stroke:#000000; stroke-linecap:round; stroke-linejoin:round; stroke-width:2; stroke-opacity:0.1; fill:none" points="255.977,641.372 2352.76,641.372 "/>
<polyline clip-path="url(#clip922)" style="stroke:#000000; stroke-linecap:round; stroke-linejoin:round; stroke-width:2; stroke-opacity:0.1; fill:none" points="255.977,386.157 2352.76,386.157 "/>
<polyline clip-path="url(#clip922)" style="stroke:#000000; stroke-linecap:round; stroke-linejoin:round; stroke-width:2; stroke-opacity:0.1; fill:none" points="255.977,130.942 2352.76,130.942 "/>
<polyline clip-path="url(#clip920)" style="stroke:#000000; stroke-linecap:round; stroke-linejoin:round; stroke-width:4; stroke-opacity:1; fill:none" points="255.977,1423.18 255.977,123.472 "/>
<polyline clip-path="url(#clip920)" style="stroke:#000000; stroke-linecap:round; stroke-linejoin:round; stroke-width:4; stroke-opacity:1; fill:none" points="255.977,1407.02 274.875,1407.02 "/>
<polyline clip-path="url(#clip920)" style="stroke:#000000; stroke-linecap:round; stroke-linejoin:round; stroke-width:4; stroke-opacity:1; fill:none" points="255.977,1151.8 274.875,1151.8 "/>
<polyline clip-path="url(#clip920)" style="stroke:#000000; stroke-linecap:round; stroke-linejoin:round; stroke-width:4; stroke-opacity:1; fill:none" points="255.977,896.587 274.875,896.587 "/>
<polyline clip-path="url(#clip920)" style="stroke:#000000; stroke-linecap:round; stroke-linejoin:round; stroke-width:4; stroke-opacity:1; fill:none" points="255.977,641.372 274.875,641.372 "/>
<polyline clip-path="url(#clip920)" style="stroke:#000000; stroke-linecap:round; stroke-linejoin:round; stroke-width:4; stroke-opacity:1; fill:none" points="255.977,386.157 274.875,386.157 "/>
<polyline clip-path="url(#clip920)" style="stroke:#000000; stroke-linecap:round; stroke-linejoin:round; stroke-width:4; stroke-opacity:1; fill:none" points="255.977,130.942 274.875,130.942 "/>
<path clip-path="url(#clip920)" d="M114.26 1407.47 L143.936 1407.47 L143.936 1411.4 L114.26 1411.4 L114.26 1407.47 Z" fill="#000000" fill-rule="nonzero" fill-opacity="1" /><path clip-path="url(#clip920)" d="M164.028 1392.82 Q160.417 1392.82 158.589 1396.38 Q156.783 1399.92 156.783 1407.05 Q156.783 1414.16 158.589 1417.72 Q160.417 1421.26 164.028 1421.26 Q167.663 1421.26 169.468 1417.72 Q171.297 1414.16 171.297 1407.05 Q171.297 1399.92 169.468 1396.38 Q167.663 1392.82 164.028 1392.82 M164.028 1389.11 Q169.839 1389.11 172.894 1393.72 Q175.973 1398.3 175.973 1407.05 Q175.973 1415.78 172.894 1420.38 Q169.839 1424.97 164.028 1424.97 Q158.218 1424.97 155.14 1420.38 Q152.084 1415.78 152.084 1407.05 Q152.084 1398.3 155.14 1393.72 Q158.218 1389.11 164.028 1389.11 Z" fill="#000000" fill-rule="nonzero" fill-opacity="1" /><path clip-path="url(#clip920)" d="M184.19 1418.42 L189.075 1418.42 L189.075 1424.3 L184.19 1424.3 L184.19 1418.42 Z" fill="#000000" fill-rule="nonzero" fill-opacity="1" /><path clip-path="url(#clip920)" d="M200.07 1420.36 L207.709 1420.36 L207.709 1394 L199.399 1395.66 L199.399 1391.4 L207.662 1389.74 L212.338 1389.74 L212.338 1420.36 L219.977 1420.36 L219.977 1424.3 L200.07 1424.3 L200.07 1420.36 Z" fill="#000000" fill-rule="nonzero" fill-opacity="1" /><path clip-path="url(#clip920)" d="M162.802 1137.6 Q159.19 1137.6 157.362 1141.17 Q155.556 1144.71 155.556 1151.84 Q155.556 1158.94 157.362 1162.51 Q159.19 1166.05 162.802 1166.05 Q166.436 1166.05 168.241 1162.51 Q170.07 1158.94 170.07 1151.84 Q170.07 1144.71 168.241 1141.17 Q166.436 1137.6 162.802 1137.6 M162.802 1133.9 Q168.612 1133.9 171.667 1138.5 Q174.746 1143.09 174.746 1151.84 Q174.746 1160.56 171.667 1165.17 Q168.612 1169.75 162.802 1169.75 Q156.991 1169.75 153.913 1165.17 Q150.857 1160.56 150.857 1151.84 Q150.857 1143.09 153.913 1138.5 Q156.991 1133.9 162.802 1133.9 Z" fill="#000000" fill-rule="nonzero" fill-opacity="1" /><path clip-path="url(#clip920)" d="M182.963 1163.2 L187.848 1163.2 L187.848 1169.08 L182.963 1169.08 L182.963 1163.2 Z" fill="#000000" fill-rule="nonzero" fill-opacity="1" /><path clip-path="url(#clip920)" d="M208.033 1137.6 Q204.422 1137.6 202.593 1141.17 Q200.787 1144.71 200.787 1151.84 Q200.787 1158.94 202.593 1162.51 Q204.422 1166.05 208.033 1166.05 Q211.667 1166.05 213.473 1162.51 Q215.301 1158.94 215.301 1151.84 Q215.301 1144.71 213.473 1141.17 Q211.667 1137.6 208.033 1137.6 M208.033 1133.9 Q213.843 1133.9 216.898 1138.5 Q219.977 1143.09 219.977 1151.84 Q219.977 1160.56 216.898 1165.17 Q213.843 1169.75 208.033 1169.75 Q202.223 1169.75 199.144 1165.17 Q196.088 1160.56 196.088 1151.84 Q196.088 1143.09 199.144 1138.5 Q202.223 1133.9 208.033 1133.9 Z" fill="#000000" fill-rule="nonzero" fill-opacity="1" /><path clip-path="url(#clip920)" d="M164.028 882.386 Q160.417 882.386 158.589 885.95 Q156.783 889.492 156.783 896.622 Q156.783 903.728 158.589 907.293 Q160.417 910.835 164.028 910.835 Q167.663 910.835 169.468 907.293 Q171.297 903.728 171.297 896.622 Q171.297 889.492 169.468 885.95 Q167.663 882.386 164.028 882.386 M164.028 878.682 Q169.839 878.682 172.894 883.288 Q175.973 887.872 175.973 896.622 Q175.973 905.349 172.894 909.955 Q169.839 914.538 164.028 914.538 Q158.218 914.538 155.14 909.955 Q152.084 905.349 152.084 896.622 Q152.084 887.872 155.14 883.288 Q158.218 878.682 164.028 878.682 Z" fill="#000000" fill-rule="nonzero" fill-opacity="1" /><path clip-path="url(#clip920)" d="M184.19 907.987 L189.075 907.987 L189.075 913.867 L184.19 913.867 L184.19 907.987 Z" fill="#000000" fill-rule="nonzero" fill-opacity="1" /><path clip-path="url(#clip920)" d="M200.07 909.932 L207.709 909.932 L207.709 883.566 L199.399 885.233 L199.399 880.974 L207.662 879.307 L212.338 879.307 L212.338 909.932 L219.977 909.932 L219.977 913.867 L200.07 913.867 L200.07 909.932 Z" fill="#000000" fill-rule="nonzero" fill-opacity="1" /><path clip-path="url(#clip920)" d="M164.399 627.171 Q160.788 627.171 158.959 630.736 Q157.153 634.277 157.153 641.407 Q157.153 648.513 158.959 652.078 Q160.788 655.62 164.399 655.62 Q168.033 655.62 169.839 652.078 Q171.667 648.513 171.667 641.407 Q171.667 634.277 169.839 630.736 Q168.033 627.171 164.399 627.171 M164.399 623.467 Q170.209 623.467 173.264 628.074 Q176.343 632.657 176.343 641.407 Q176.343 650.134 173.264 654.74 Q170.209 659.323 164.399 659.323 Q158.589 659.323 155.51 654.74 Q152.454 650.134 152.454 641.407 Q152.454 632.657 155.51 628.074 Q158.589 623.467 164.399 623.467 Z" fill="#000000" fill-rule="nonzero" fill-opacity="1" /><path clip-path="url(#clip920)" d="M184.561 652.773 L189.445 652.773 L189.445 658.652 L184.561 658.652 L184.561 652.773 Z" fill="#000000" fill-rule="nonzero" fill-opacity="1" /><path clip-path="url(#clip920)" d="M203.658 654.717 L219.977 654.717 L219.977 658.652 L198.033 658.652 L198.033 654.717 Q200.695 651.962 205.278 647.333 Q209.885 642.68 211.065 641.337 Q213.311 638.814 214.19 637.078 Q215.093 635.319 215.093 633.629 Q215.093 630.874 213.149 629.138 Q211.227 627.402 208.125 627.402 Q205.926 627.402 203.473 628.166 Q201.042 628.93 198.264 630.481 L198.264 625.759 Q201.088 624.625 203.542 624.046 Q205.996 623.467 208.033 623.467 Q213.403 623.467 216.598 626.152 Q219.792 628.837 219.792 633.328 Q219.792 635.458 218.982 637.379 Q218.195 639.277 216.088 641.87 Q215.51 642.541 212.408 645.759 Q209.306 648.953 203.658 654.717 Z" fill="#000000" fill-rule="nonzero" fill-opacity="1" /><path clip-path="url(#clip920)" d="M163.45 371.956 Q159.839 371.956 158.01 375.521 Q156.204 379.062 156.204 386.192 Q156.204 393.298 158.01 396.863 Q159.839 400.405 163.45 400.405 Q167.084 400.405 168.889 396.863 Q170.718 393.298 170.718 386.192 Q170.718 379.062 168.889 375.521 Q167.084 371.956 163.45 371.956 M163.45 368.252 Q169.26 368.252 172.315 372.859 Q175.394 377.442 175.394 386.192 Q175.394 394.919 172.315 399.525 Q169.26 404.109 163.45 404.109 Q157.64 404.109 154.561 399.525 Q151.505 394.919 151.505 386.192 Q151.505 377.442 154.561 372.859 Q157.64 368.252 163.45 368.252 Z" fill="#000000" fill-rule="nonzero" fill-opacity="1" /><path clip-path="url(#clip920)" d="M183.612 397.558 L188.496 397.558 L188.496 403.437 L183.612 403.437 L183.612 397.558 Z" fill="#000000" fill-rule="nonzero" fill-opacity="1" /><path clip-path="url(#clip920)" d="M212.848 384.803 Q216.204 385.521 218.079 387.789 Q219.977 390.058 219.977 393.391 Q219.977 398.507 216.459 401.308 Q212.94 404.109 206.459 404.109 Q204.283 404.109 201.968 403.669 Q199.676 403.252 197.223 402.396 L197.223 397.882 Q199.167 399.016 201.482 399.595 Q203.797 400.173 206.32 400.173 Q210.718 400.173 213.01 398.437 Q215.324 396.701 215.324 393.391 Q215.324 390.335 213.172 388.623 Q211.042 386.886 207.223 386.886 L203.195 386.886 L203.195 383.044 L207.408 383.044 Q210.857 383.044 212.686 381.678 Q214.514 380.289 214.514 377.697 Q214.514 375.035 212.616 373.623 Q210.741 372.187 207.223 372.187 Q205.301 372.187 203.102 372.604 Q200.903 373.021 198.264 373.9 L198.264 369.734 Q200.926 368.993 203.241 368.623 Q205.579 368.252 207.639 368.252 Q212.963 368.252 216.065 370.683 Q219.167 373.09 219.167 377.211 Q219.167 380.081 217.523 382.072 Q215.88 384.039 212.848 384.803 Z" fill="#000000" fill-rule="nonzero" fill-opacity="1" /><path clip-path="url(#clip920)" d="M162.315 116.741 Q158.704 116.741 156.876 120.306 Q155.07 123.848 155.07 130.977 Q155.07 138.084 156.876 141.648 Q158.704 145.19 162.315 145.19 Q165.95 145.19 167.755 141.648 Q169.584 138.084 169.584 130.977 Q169.584 123.848 167.755 120.306 Q165.95 116.741 162.315 116.741 M162.315 113.037 Q168.126 113.037 171.181 117.644 Q174.26 122.227 174.26 130.977 Q174.26 139.704 171.181 144.31 Q168.126 148.894 162.315 148.894 Q156.505 148.894 153.427 144.31 Q150.371 139.704 150.371 130.977 Q150.371 122.227 153.427 117.644 Q156.505 113.037 162.315 113.037 Z" fill="#000000" fill-rule="nonzero" fill-opacity="1" /><path clip-path="url(#clip920)" d="M182.477 142.343 L187.362 142.343 L187.362 148.222 L182.477 148.222 L182.477 142.343 Z" fill="#000000" fill-rule="nonzero" fill-opacity="1" /><path clip-path="url(#clip920)" d="M210.394 117.736 L198.588 136.185 L210.394 136.185 L210.394 117.736 M209.167 113.662 L215.047 113.662 L215.047 136.185 L219.977 136.185 L219.977 140.074 L215.047 140.074 L215.047 148.222 L210.394 148.222 L210.394 140.074 L194.792 140.074 L194.792 135.56 L209.167 113.662 Z" fill="#000000" fill-rule="nonzero" fill-opacity="1" /><path clip-path="url(#clip920)" d="M67.3143 771.639 Q73.68 774.122 75.6216 776.477 Q77.5631 778.832 77.5631 782.779 L77.5631 787.458 L72.6615 787.458 L72.6615 784.02 Q72.6615 781.601 71.5157 780.265 Q70.3699 778.928 66.1048 777.305 L63.4312 776.254 L28.3562 790.673 L28.3562 784.466 L56.238 773.326 L28.3562 762.186 L28.3562 755.979 L67.3143 771.639 Z" fill="#000000" fill-rule="nonzero" fill-opacity="1" /><path clip-path="url(#clip920)" d="M616.928 12.096 L625.111 12.096 L625.111 65.6895 L654.561 65.6895 L654.561 72.576 L616.928 72.576 L616.928 12.096 Z" fill="#000000" fill-rule="nonzero" fill-opacity="1" /><path clip-path="url(#clip920)" d="M662.825 27.2059 L670.279 27.2059 L670.279 72.576 L662.825 72.576 L662.825 27.2059 M662.825 9.54393 L670.279 9.54393 L670.279 18.9825 L662.825 18.9825 L662.825 9.54393 Z" fill="#000000" fill-rule="nonzero" fill-opacity="1" /><path clip-path="url(#clip920)" d="M723.588 45.1919 L723.588 72.576 L716.135 72.576 L716.135 45.4349 Q716.135 38.994 713.623 35.7938 Q711.112 32.5936 706.089 32.5936 Q700.053 32.5936 696.569 36.4419 Q693.085 40.2903 693.085 46.9338 L693.085 72.576 L685.591 72.576 L685.591 27.2059 L693.085 27.2059 L693.085 34.2544 Q695.759 30.163 699.364 28.1376 Q703.01 26.1121 707.749 26.1121 Q715.568 26.1121 719.578 30.9732 Q723.588 35.7938 723.588 45.1919 Z" fill="#000000" fill-rule="nonzero" fill-opacity="1" /><path clip-path="url(#clip920)" d="M777.263 48.0275 L777.263 51.6733 L742.992 51.6733 Q743.478 59.3701 747.61 63.421 Q751.783 67.4314 759.196 67.4314 Q763.49 67.4314 767.5 66.3781 Q771.551 65.3249 775.521 63.2184 L775.521 70.267 Q771.511 71.9684 767.298 72.8596 Q763.085 73.7508 758.75 73.7508 Q747.894 73.7508 741.534 67.4314 Q735.215 61.1119 735.215 50.3365 Q735.215 39.1965 741.21 32.6746 Q747.246 26.1121 757.454 26.1121 Q766.609 26.1121 771.916 32.0264 Q777.263 37.9003 777.263 48.0275 M769.809 45.84 Q769.728 39.7232 766.366 36.0774 Q763.044 32.4315 757.535 32.4315 Q751.297 32.4315 747.529 35.9558 Q743.802 39.4801 743.235 45.8805 L769.809 45.84 Z" fill="#000000" fill-rule="nonzero" fill-opacity="1" /><path clip-path="url(#clip920)" d="M810.116 49.7694 Q801.082 49.7694 797.598 51.8354 Q794.115 53.9013 794.115 58.8839 Q794.115 62.8538 796.707 65.2034 Q799.34 67.5124 803.837 67.5124 Q810.035 67.5124 813.762 63.1374 Q817.529 58.7219 817.529 51.4303 L817.529 49.7694 L810.116 49.7694 M824.983 46.6907 L824.983 72.576 L817.529 72.576 L817.529 65.6895 Q814.977 69.8214 811.169 71.8063 Q807.361 73.7508 801.852 73.7508 Q794.884 73.7508 790.752 69.8619 Q786.661 65.9325 786.661 59.3701 Q786.661 51.7138 791.765 47.825 Q796.91 43.9361 807.078 43.9361 L817.529 43.9361 L817.529 43.2069 Q817.529 38.0623 814.126 35.2672 Q810.764 32.4315 804.647 32.4315 Q800.758 32.4315 797.072 33.3632 Q793.385 34.295 789.983 36.1584 L789.983 29.2718 Q794.074 27.692 797.922 26.9223 Q801.771 26.1121 805.417 26.1121 Q815.26 26.1121 820.121 31.2163 Q824.983 36.3204 824.983 46.6907 Z" fill="#000000" fill-rule="nonzero" fill-opacity="1" /><path clip-path="url(#clip920)" d="M866.626 34.1734 Q865.37 33.4443 863.871 33.1202 Q862.413 32.7556 860.63 32.7556 Q854.311 32.7556 850.908 36.8875 Q847.546 40.9789 847.546 48.6757 L847.546 72.576 L840.052 72.576 L840.052 27.2059 L847.546 27.2059 L847.546 34.2544 Q849.896 30.1225 853.663 28.1376 Q857.43 26.1121 862.818 26.1121 Q863.588 26.1121 864.519 26.2337 Q865.451 26.3147 866.585 26.5172 L866.626 34.1734 Z" fill="#000000" fill-rule="nonzero" fill-opacity="1" /><path clip-path="url(#clip920)" d="M929.82 44.2197 Q932.453 45.1109 934.924 48.0275 Q937.436 50.9442 939.947 56.0483 L948.252 72.576 L939.461 72.576 L931.724 57.061 Q928.726 50.9847 925.891 48.9997 Q923.095 47.0148 918.234 47.0148 L909.322 47.0148 L909.322 72.576 L901.14 72.576 L901.14 12.096 L919.612 12.096 Q929.982 12.096 935.086 16.4305 Q940.19 20.7649 940.19 29.5149 Q940.19 35.2267 937.517 38.994 Q934.884 42.7613 929.82 44.2197 M909.322 18.8205 L909.322 40.2903 L919.612 40.2903 Q925.526 40.2903 928.524 37.5762 Q931.562 34.8216 931.562 29.5149 Q931.562 24.2082 928.524 21.5346 Q925.526 18.8205 919.612 18.8205 L909.322 18.8205 Z" fill="#000000" fill-rule="nonzero" fill-opacity="1" /><path clip-path="url(#clip920)" d="M993.541 48.0275 L993.541 51.6733 L959.27 51.6733 Q959.756 59.3701 963.888 63.421 Q968.06 67.4314 975.474 67.4314 Q979.768 67.4314 983.778 66.3781 Q987.829 65.3249 991.799 63.2184 L991.799 70.267 Q987.788 71.9684 983.575 72.8596 Q979.362 73.7508 975.028 73.7508 Q964.172 73.7508 957.812 67.4314 Q951.492 61.1119 951.492 50.3365 Q951.492 39.1965 957.488 32.6746 Q963.523 26.1121 973.732 26.1121 Q982.887 26.1121 988.193 32.0264 Q993.541 37.9003 993.541 48.0275 M986.087 45.84 Q986.006 39.7232 982.644 36.0774 Q979.322 32.4315 973.813 32.4315 Q967.574 32.4315 963.807 35.9558 Q960.08 39.4801 959.513 45.8805 L986.087 45.84 Z" fill="#000000" fill-rule="nonzero" fill-opacity="1" /><path clip-path="url(#clip920)" d="M1035.63 49.3643 Q1035.63 41.2625 1032.27 36.8065 Q1028.95 32.3505 1022.91 32.3505 Q1016.91 32.3505 1013.55 36.8065 Q1010.23 41.2625 1010.23 49.3643 Q1010.23 57.4256 1013.55 61.8816 Q1016.91 66.3376 1022.91 66.3376 Q1028.95 66.3376 1032.27 61.8816 Q1035.63 57.4256 1035.63 49.3643 M1043.08 66.9452 Q1043.08 78.5308 1037.94 84.1616 Q1032.79 89.8329 1022.18 89.8329 Q1018.25 89.8329 1014.77 89.2252 Q1011.28 88.6581 1008 87.4428 L1008 80.1917 Q1011.28 81.9741 1014.48 82.8248 Q1017.68 83.6755 1021.01 83.6755 Q1028.34 83.6755 1031.98 79.8271 Q1035.63 76.0193 1035.63 68.282 L1035.63 64.5957 Q1033.32 68.6061 1029.72 70.5911 Q1026.11 72.576 1021.09 72.576 Q1012.74 72.576 1007.64 66.2161 Q1002.53 59.8562 1002.53 49.3643 Q1002.53 38.832 1007.64 32.472 Q1012.74 26.1121 1021.09 26.1121 Q1026.11 26.1121 1029.72 28.0971 Q1033.32 30.082 1035.63 34.0924 L1035.63 27.2059 L1043.08 27.2059 L1043.08 66.9452 Z" fill="#000000" fill-rule="nonzero" fill-opacity="1" /><path clip-path="url(#clip920)" d="M1084.73 34.1734 Q1083.47 33.4443 1081.97 33.1202 Q1080.51 32.7556 1078.73 32.7556 Q1072.41 32.7556 1069.01 36.8875 Q1065.65 40.9789 1065.65 48.6757 L1065.65 72.576 L1058.15 72.576 L1058.15 27.2059 L1065.65 27.2059 L1065.65 34.2544 Q1068 30.1225 1071.76 28.1376 Q1075.53 26.1121 1080.92 26.1121 Q1081.69 26.1121 1082.62 26.2337 Q1083.55 26.3147 1084.69 26.5172 L1084.73 34.1734 Z" fill="#000000" fill-rule="nonzero" fill-opacity="1" /><path clip-path="url(#clip920)" d="M1129.53 48.0275 L1129.53 51.6733 L1095.26 51.6733 Q1095.74 59.3701 1099.88 63.421 Q1104.05 67.4314 1111.46 67.4314 Q1115.76 67.4314 1119.77 66.3781 Q1123.82 65.3249 1127.79 63.2184 L1127.79 70.267 Q1123.78 71.9684 1119.56 72.8596 Q1115.35 73.7508 1111.02 73.7508 Q1100.16 73.7508 1093.8 67.4314 Q1087.48 61.1119 1087.48 50.3365 Q1087.48 39.1965 1093.48 32.6746 Q1099.51 26.1121 1109.72 26.1121 Q1118.88 26.1121 1124.18 32.0264 Q1129.53 37.9003 1129.53 48.0275 M1122.08 45.84 Q1121.99 39.7232 1118.63 36.0774 Q1115.31 32.4315 1109.8 32.4315 Q1103.56 32.4315 1099.8 35.9558 Q1096.07 39.4801 1095.5 45.8805 L1122.08 45.84 Z" fill="#000000" fill-rule="nonzero" fill-opacity="1" /><path clip-path="url(#clip920)" d="M1170.69 28.5427 L1170.69 35.5912 Q1167.53 33.9709 1164.12 33.1607 Q1160.72 32.3505 1157.08 32.3505 Q1151.53 32.3505 1148.73 34.0519 Q1145.98 35.7533 1145.98 39.156 Q1145.98 41.7486 1147.96 43.2475 Q1149.95 44.7058 1155.94 46.0426 L1158.49 46.6097 Q1166.43 48.3111 1169.75 51.4303 Q1173.12 54.509 1173.12 60.0587 Q1173.12 66.3781 1168.09 70.0644 Q1163.11 73.7508 1154.36 73.7508 Q1150.72 73.7508 1146.75 73.0216 Q1142.82 72.3329 1138.44 70.9151 L1138.44 63.2184 Q1142.57 65.3654 1146.58 66.4591 Q1150.59 67.5124 1154.52 67.5124 Q1159.79 67.5124 1162.63 65.73 Q1165.46 63.9071 1165.46 60.6258 Q1165.46 57.5877 1163.4 55.9673 Q1161.37 54.3469 1154.44 52.8481 L1151.85 52.2405 Q1144.92 50.7821 1141.84 47.7845 Q1138.77 44.7463 1138.77 39.4801 Q1138.77 33.0797 1143.3 29.5959 Q1147.84 26.1121 1156.18 26.1121 Q1160.32 26.1121 1163.96 26.7198 Q1167.61 27.3274 1170.69 28.5427 Z" fill="#000000" fill-rule="nonzero" fill-opacity="1" /><path clip-path="url(#clip920)" d="M1213.91 28.5427 L1213.91 35.5912 Q1210.75 33.9709 1207.35 33.1607 Q1203.94 32.3505 1200.3 32.3505 Q1194.75 32.3505 1191.95 34.0519 Q1189.2 35.7533 1189.2 39.156 Q1189.2 41.7486 1191.18 43.2475 Q1193.17 44.7058 1199.16 46.0426 L1201.72 46.6097 Q1209.66 48.3111 1212.98 51.4303 Q1216.34 54.509 1216.34 60.0587 Q1216.34 66.3781 1211.32 70.0644 Q1206.33 73.7508 1197.58 73.7508 Q1193.94 73.7508 1189.97 73.0216 Q1186.04 72.3329 1181.66 70.9151 L1181.66 63.2184 Q1185.8 65.3654 1189.81 66.4591 Q1193.82 67.5124 1197.75 67.5124 Q1203.01 67.5124 1205.85 65.73 Q1208.68 63.9071 1208.68 60.6258 Q1208.68 57.5877 1206.62 55.9673 Q1204.59 54.3469 1197.67 52.8481 L1195.07 52.2405 Q1188.15 50.7821 1185.07 47.7845 Q1181.99 44.7463 1181.99 39.4801 Q1181.99 33.0797 1186.53 29.5959 Q1191.06 26.1121 1199.41 26.1121 Q1203.54 26.1121 1207.19 26.7198 Q1210.83 27.3274 1213.91 28.5427 Z" fill="#000000" fill-rule="nonzero" fill-opacity="1" /><path clip-path="url(#clip920)" d="M1228.21 27.2059 L1235.66 27.2059 L1235.66 72.576 L1228.21 72.576 L1228.21 27.2059 M1228.21 9.54393 L1235.66 9.54393 L1235.66 18.9825 L1228.21 18.9825 L1228.21 9.54393 Z" fill="#000000" fill-rule="nonzero" fill-opacity="1" /><path clip-path="url(#clip920)" d="M1268.84 32.4315 Q1262.84 32.4315 1259.36 37.1306 Q1255.88 41.7891 1255.88 49.9314 Q1255.88 58.0738 1259.32 62.7728 Q1262.8 67.4314 1268.84 67.4314 Q1274.79 67.4314 1278.28 62.7323 Q1281.76 58.0333 1281.76 49.9314 Q1281.76 41.8701 1278.28 37.1711 Q1274.79 32.4315 1268.84 32.4315 M1268.84 26.1121 Q1278.56 26.1121 1284.11 32.4315 Q1289.66 38.7509 1289.66 49.9314 Q1289.66 61.0714 1284.11 67.4314 Q1278.56 73.7508 1268.84 73.7508 Q1259.08 73.7508 1253.53 67.4314 Q1248.02 61.0714 1248.02 49.9314 Q1248.02 38.7509 1253.53 32.4315 Q1259.08 26.1121 1268.84 26.1121 Z" fill="#000000" fill-rule="nonzero" fill-opacity="1" /><path clip-path="url(#clip920)" d="M1339.73 45.1919 L1339.73 72.576 L1332.28 72.576 L1332.28 45.4349 Q1332.28 38.994 1329.77 35.7938 Q1327.25 32.5936 1322.23 32.5936 Q1316.2 32.5936 1312.71 36.4419 Q1309.23 40.2903 1309.23 46.9338 L1309.23 72.576 L1301.73 72.576 L1301.73 27.2059 L1309.23 27.2059 L1309.23 34.2544 Q1311.9 30.163 1315.51 28.1376 Q1319.15 26.1121 1323.89 26.1121 Q1331.71 26.1121 1335.72 30.9732 Q1339.73 35.7938 1339.73 45.1919 Z" fill="#000000" fill-rule="nonzero" fill-opacity="1" /><path clip-path="url(#clip920)" d="M1380.97 27.2059 L1388.42 27.2059 L1388.42 72.576 L1380.97 72.576 L1380.97 27.2059 M1380.97 9.54393 L1388.42 9.54393 L1388.42 18.9825 L1380.97 18.9825 L1380.97 9.54393 Z" fill="#000000" fill-rule="nonzero" fill-opacity="1" /><path clip-path="url(#clip920)" d="M1441.73 45.1919 L1441.73 72.576 L1434.28 72.576 L1434.28 45.4349 Q1434.28 38.994 1431.77 35.7938 Q1429.26 32.5936 1424.23 32.5936 Q1418.2 32.5936 1414.71 36.4419 Q1411.23 40.2903 1411.23 46.9338 L1411.23 72.576 L1403.74 72.576 L1403.74 27.2059 L1411.23 27.2059 L1411.23 34.2544 Q1413.9 30.163 1417.51 28.1376 Q1421.15 26.1121 1425.89 26.1121 Q1433.71 26.1121 1437.72 30.9732 Q1441.73 35.7938 1441.73 45.1919 Z" fill="#000000" fill-rule="nonzero" fill-opacity="1" /><path clip-path="url(#clip920)" d="M1485.44 65.6895 L1498.81 65.6895 L1498.81 19.5497 L1484.27 22.4663 L1484.27 15.0127 L1498.73 12.096 L1506.91 12.096 L1506.91 65.6895 L1520.28 65.6895 L1520.28 72.576 L1485.44 72.576 L1485.44 65.6895 Z" fill="#000000" fill-rule="nonzero" fill-opacity="1" /><path clip-path="url(#clip920)" d="M1531.99 46.5287 L1553.82 46.5287 L1553.82 53.1722 L1531.99 53.1722 L1531.99 46.5287 Z" fill="#000000" fill-rule="nonzero" fill-opacity="1" /><path clip-path="url(#clip920)" d="M1574.2 18.8205 L1574.2 65.8515 L1584.08 65.8515 Q1596.6 65.8515 1602.39 60.1802 Q1608.22 54.509 1608.22 42.2752 Q1608.22 30.1225 1602.39 24.4918 Q1596.6 18.8205 1584.08 18.8205 L1574.2 18.8205 M1566.01 12.096 L1582.83 12.096 Q1600.41 12.096 1608.63 19.4281 Q1616.85 26.7198 1616.85 42.2752 Q1616.85 57.9117 1608.59 65.2439 Q1600.33 72.576 1582.83 72.576 L1566.01 72.576 L1566.01 12.096 Z" fill="#000000" fill-rule="nonzero" fill-opacity="1" /><path clip-path="url(#clip920)" d="M1629.57 27.2059 L1637.03 27.2059 L1637.03 72.576 L1629.57 72.576 L1629.57 27.2059 M1629.57 9.54393 L1637.03 9.54393 L1637.03 18.9825 L1629.57 18.9825 L1629.57 9.54393 Z" fill="#000000" fill-rule="nonzero" fill-opacity="1" /><path clip-path="url(#clip920)" d="M1687.95 35.9153 Q1690.74 30.8922 1694.63 28.5022 Q1698.52 26.1121 1703.79 26.1121 Q1710.87 26.1121 1714.72 31.0947 Q1718.57 36.0368 1718.57 45.1919 L1718.57 72.576 L1711.08 72.576 L1711.08 45.4349 Q1711.08 38.913 1708.77 35.7533 Q1706.46 32.5936 1701.72 32.5936 Q1695.93 32.5936 1692.56 36.4419 Q1689.2 40.2903 1689.2 46.9338 L1689.2 72.576 L1681.71 72.576 L1681.71 45.4349 Q1681.71 38.8725 1679.4 35.7533 Q1677.09 32.5936 1672.27 32.5936 Q1666.56 32.5936 1663.2 36.4824 Q1659.83 40.3308 1659.83 46.9338 L1659.83 72.576 L1652.34 72.576 L1652.34 27.2059 L1659.83 27.2059 L1659.83 34.2544 Q1662.39 30.082 1665.95 28.0971 Q1669.52 26.1121 1674.42 26.1121 Q1679.36 26.1121 1682.8 28.6237 Q1686.29 31.1352 1687.95 35.9153 Z" fill="#000000" fill-rule="nonzero" fill-opacity="1" /><path clip-path="url(#clip920)" d="M1772.25 48.0275 L1772.25 51.6733 L1737.98 51.6733 Q1738.46 59.3701 1742.59 63.421 Q1746.77 67.4314 1754.18 67.4314 Q1758.47 67.4314 1762.48 66.3781 Q1766.53 65.3249 1770.5 63.2184 L1770.5 70.267 Q1766.49 71.9684 1762.28 72.8596 Q1758.07 73.7508 1753.73 73.7508 Q1742.88 73.7508 1736.52 67.4314 Q1730.2 61.1119 1730.2 50.3365 Q1730.2 39.1965 1736.19 32.6746 Q1742.23 26.1121 1752.44 26.1121 Q1761.59 26.1121 1766.9 32.0264 Q1772.25 37.9003 1772.25 48.0275 M1764.79 45.84 Q1764.71 39.7232 1761.35 36.0774 Q1758.03 32.4315 1752.52 32.4315 Q1746.28 32.4315 1742.51 35.9558 Q1738.79 39.4801 1738.22 45.8805 L1764.79 45.84 Z" fill="#000000" fill-rule="nonzero" fill-opacity="1" /><path clip-path="url(#clip920)" d="M1822.19 45.1919 L1822.19 72.576 L1814.74 72.576 L1814.74 45.4349 Q1814.74 38.994 1812.23 35.7938 Q1809.72 32.5936 1804.69 32.5936 Q1798.66 32.5936 1795.17 36.4419 Q1791.69 40.2903 1791.69 46.9338 L1791.69 72.576 L1784.2 72.576 L1784.2 27.2059 L1791.69 27.2059 L1791.69 34.2544 Q1794.36 30.163 1797.97 28.1376 Q1801.62 26.1121 1806.35 26.1121 Q1814.17 26.1121 1818.18 30.9732 Q1822.19 35.7938 1822.19 45.1919 Z" fill="#000000" fill-rule="nonzero" fill-opacity="1" /><path clip-path="url(#clip920)" d="M1865.98 28.5427 L1865.98 35.5912 Q1862.82 33.9709 1859.42 33.1607 Q1856.02 32.3505 1852.37 32.3505 Q1846.82 32.3505 1844.03 34.0519 Q1841.27 35.7533 1841.27 39.156 Q1841.27 41.7486 1843.26 43.2475 Q1845.24 44.7058 1851.24 46.0426 L1853.79 46.6097 Q1861.73 48.3111 1865.05 51.4303 Q1868.41 54.509 1868.41 60.0587 Q1868.41 66.3781 1863.39 70.0644 Q1858.41 73.7508 1849.66 73.7508 Q1846.01 73.7508 1842.04 73.0216 Q1838.11 72.3329 1833.74 70.9151 L1833.74 63.2184 Q1837.87 65.3654 1841.88 66.4591 Q1845.89 67.5124 1849.82 67.5124 Q1855.09 67.5124 1857.92 65.73 Q1860.76 63.9071 1860.76 60.6258 Q1860.76 57.5877 1858.69 55.9673 Q1856.67 54.3469 1849.74 52.8481 L1847.15 52.2405 Q1840.22 50.7821 1837.14 47.7845 Q1834.06 44.7463 1834.06 39.4801 Q1834.06 33.0797 1838.6 29.5959 Q1843.14 26.1121 1851.48 26.1121 Q1855.61 26.1121 1859.26 26.7198 Q1862.91 27.3274 1865.98 28.5427 Z" fill="#000000" fill-rule="nonzero" fill-opacity="1" /><path clip-path="url(#clip920)" d="M1880.28 27.2059 L1887.74 27.2059 L1887.74 72.576 L1880.28 72.576 L1880.28 27.2059 M1880.28 9.54393 L1887.74 9.54393 L1887.74 18.9825 L1880.28 18.9825 L1880.28 9.54393 Z" fill="#000000" fill-rule="nonzero" fill-opacity="1" /><path clip-path="url(#clip920)" d="M1920.91 32.4315 Q1914.92 32.4315 1911.44 37.1306 Q1907.95 41.7891 1907.95 49.9314 Q1907.95 58.0738 1911.39 62.7728 Q1914.88 67.4314 1920.91 67.4314 Q1926.87 67.4314 1930.35 62.7323 Q1933.84 58.0333 1933.84 49.9314 Q1933.84 41.8701 1930.35 37.1711 Q1926.87 32.4315 1920.91 32.4315 M1920.91 26.1121 Q1930.64 26.1121 1936.19 32.4315 Q1941.74 38.7509 1941.74 49.9314 Q1941.74 61.0714 1936.19 67.4314 Q1930.64 73.7508 1920.91 73.7508 Q1911.15 73.7508 1905.6 67.4314 Q1900.09 61.0714 1900.09 49.9314 Q1900.09 38.7509 1905.6 32.4315 Q1911.15 26.1121 1920.91 26.1121 Z" fill="#000000" fill-rule="nonzero" fill-opacity="1" /><path clip-path="url(#clip920)" d="M1991.8 45.1919 L1991.8 72.576 L1984.35 72.576 L1984.35 45.4349 Q1984.35 38.994 1981.84 35.7938 Q1979.33 32.5936 1974.31 32.5936 Q1968.27 32.5936 1964.79 36.4419 Q1961.3 40.2903 1961.3 46.9338 L1961.3 72.576 L1953.81 72.576 L1953.81 27.2059 L1961.3 27.2059 L1961.3 34.2544 Q1963.98 30.163 1967.58 28.1376 Q1971.23 26.1121 1975.97 26.1121 Q1983.78 26.1121 1987.79 30.9732 Q1991.8 35.7938 1991.8 45.1919 Z" fill="#000000" fill-rule="nonzero" fill-opacity="1" /><circle clip-path="url(#clip922)" cx="2174.13" cy="688.003" r="14.4" fill="#ff0000" fill-rule="evenodd" fill-opacity="0.25" stroke="#000000" stroke-opacity="0.25" stroke-width="3.2"/>
<circle clip-path="url(#clip922)" cx="1691.56" cy="701.446" r="14.4" fill="#ff0000" fill-rule="evenodd" fill-opacity="0.25" stroke="#000000" stroke-opacity="0.25" stroke-width="3.2"/>
<circle clip-path="url(#clip922)" cx="2244.03" cy="672.497" r="14.4" fill="#ff0000" fill-rule="evenodd" fill-opacity="0.25" stroke="#000000" stroke-opacity="0.25" stroke-width="3.2"/>
<circle clip-path="url(#clip922)" cx="880.745" cy="1246.94" r="14.4" fill="#ff0000" fill-rule="evenodd" fill-opacity="0.25" stroke="#000000" stroke-opacity="0.25" stroke-width="3.2"/>
<circle clip-path="url(#clip922)" cx="1978.64" cy="815.356" r="14.4" fill="#ff0000" fill-rule="evenodd" fill-opacity="0.25" stroke="#000000" stroke-opacity="0.25" stroke-width="3.2"/>
<circle clip-path="url(#clip922)" cx="988.669" cy="592.067" r="14.4" fill="#ff0000" fill-rule="evenodd" fill-opacity="0.25" stroke="#000000" stroke-opacity="0.25" stroke-width="3.2"/>
<circle clip-path="url(#clip922)" cx="656.282" cy="927.446" r="14.4" fill="#ff0000" fill-rule="evenodd" fill-opacity="0.25" stroke="#000000" stroke-opacity="0.25" stroke-width="3.2"/>
<circle clip-path="url(#clip922)" cx="1776.63" cy="717.774" r="14.4" fill="#ff0000" fill-rule="evenodd" fill-opacity="0.25" stroke="#000000" stroke-opacity="0.25" stroke-width="3.2"/>
<circle clip-path="url(#clip922)" cx="1815.95" cy="867.717" r="14.4" fill="#ff0000" fill-rule="evenodd" fill-opacity="0.25" stroke="#000000" stroke-opacity="0.25" stroke-width="3.2"/>
<circle clip-path="url(#clip922)" cx="1190.47" cy="898.581" r="14.4" fill="#ff0000" fill-rule="evenodd" fill-opacity="0.25" stroke="#000000" stroke-opacity="0.25" stroke-width="3.2"/>
<circle clip-path="url(#clip922)" cx="955.023" cy="682.287" r="14.4" fill="#ff0000" fill-rule="evenodd" fill-opacity="0.25" stroke="#000000" stroke-opacity="0.25" stroke-width="3.2"/>
<circle clip-path="url(#clip922)" cx="1528.02" cy="876.844" r="14.4" fill="#ff0000" fill-rule="evenodd" fill-opacity="0.25" stroke="#000000" stroke-opacity="0.25" stroke-width="3.2"/>
<circle clip-path="url(#clip922)" cx="966.212" cy="594.043" r="14.4" fill="#ff0000" fill-rule="evenodd" fill-opacity="0.25" stroke="#000000" stroke-opacity="0.25" stroke-width="3.2"/>
<circle clip-path="url(#clip922)" cx="1497.33" cy="711.209" r="14.4" fill="#ff0000" fill-rule="evenodd" fill-opacity="0.25" stroke="#000000" stroke-opacity="0.25" stroke-width="3.2"/>
<circle clip-path="url(#clip922)" cx="486.938" cy="1367.84" r="14.4" fill="#ff0000" fill-rule="evenodd" fill-opacity="0.25" stroke="#000000" stroke-opacity="0.25" stroke-width="3.2"/>
<circle clip-path="url(#clip922)" cx="788.125" cy="867.783" r="14.4" fill="#ff0000" fill-rule="evenodd" fill-opacity="0.25" stroke="#000000" stroke-opacity="0.25" stroke-width="3.2"/>
<circle clip-path="url(#clip922)" cx="394.306" cy="897.259" r="14.4" fill="#ff0000" fill-rule="evenodd" fill-opacity="0.25" stroke="#000000" stroke-opacity="0.25" stroke-width="3.2"/>
<circle clip-path="url(#clip922)" cx="696.871" cy="1030.65" r="14.4" fill="#ff0000" fill-rule="evenodd" fill-opacity="0.25" stroke="#000000" stroke-opacity="0.25" stroke-width="3.2"/>
<circle clip-path="url(#clip922)" cx="905.806" cy="1025.95" r="14.4" fill="#ff0000" fill-rule="evenodd" fill-opacity="0.25" stroke="#000000" stroke-opacity="0.25" stroke-width="3.2"/>
<circle clip-path="url(#clip922)" cx="2051.48" cy="575.9" r="14.4" fill="#ff0000" fill-rule="evenodd" fill-opacity="0.25" stroke="#000000" stroke-opacity="0.25" stroke-width="3.2"/>
<circle clip-path="url(#clip922)" cx="720.905" cy="1211.67" r="14.4" fill="#ff0000" fill-rule="evenodd" fill-opacity="0.25" stroke="#000000" stroke-opacity="0.25" stroke-width="3.2"/>
<circle clip-path="url(#clip922)" cx="548.296" cy="810.899" r="14.4" fill="#ff0000" fill-rule="evenodd" fill-opacity="0.25" stroke="#000000" stroke-opacity="0.25" stroke-width="3.2"/>
<circle clip-path="url(#clip922)" cx="1959.21" cy="785.341" r="14.4" fill="#ff0000" fill-rule="evenodd" fill-opacity="0.25" stroke="#000000" stroke-opacity="0.25" stroke-width="3.2"/>
<circle clip-path="url(#clip922)" cx="1043.5" cy="1135.5" r="14.4" fill="#ff0000" fill-rule="evenodd" fill-opacity="0.25" stroke="#000000" stroke-opacity="0.25" stroke-width="3.2"/>
<circle clip-path="url(#clip922)" cx="2173.78" cy="419.439" r="14.4" fill="#ff0000" fill-rule="evenodd" fill-opacity="0.25" stroke="#000000" stroke-opacity="0.25" stroke-width="3.2"/>
<circle clip-path="url(#clip922)" cx="1518.59" cy="735.684" r="14.4" fill="#ff0000" fill-rule="evenodd" fill-opacity="0.25" stroke="#000000" stroke-opacity="0.25" stroke-width="3.2"/>
<circle clip-path="url(#clip922)" cx="1340.21" cy="690.12" r="14.4" fill="#ff0000" fill-rule="evenodd" fill-opacity="0.25" stroke="#000000" stroke-opacity="0.25" stroke-width="3.2"/>
<circle clip-path="url(#clip922)" cx="1535.84" cy="596.899" r="14.4" fill="#ff0000" fill-rule="evenodd" fill-opacity="0.25" stroke="#000000" stroke-opacity="0.25" stroke-width="3.2"/>
<circle clip-path="url(#clip922)" cx="1870.5" cy="454.355" r="14.4" fill="#ff0000" fill-rule="evenodd" fill-opacity="0.25" stroke="#000000" stroke-opacity="0.25" stroke-width="3.2"/>
<circle clip-path="url(#clip922)" cx="991.429" cy="1096.05" r="14.4" fill="#ff0000" fill-rule="evenodd" fill-opacity="0.25" stroke="#000000" stroke-opacity="0.25" stroke-width="3.2"/>
<circle clip-path="url(#clip922)" cx="1869.66" cy="827.767" r="14.4" fill="#ff0000" fill-rule="evenodd" fill-opacity="0.25" stroke="#000000" stroke-opacity="0.25" stroke-width="3.2"/>
<circle clip-path="url(#clip922)" cx="402.613" cy="1057.4" r="14.4" fill="#ff0000" fill-rule="evenodd" fill-opacity="0.25" stroke="#000000" stroke-opacity="0.25" stroke-width="3.2"/>
<circle clip-path="url(#clip922)" cx="2061.89" cy="570.508" r="14.4" fill="#ff0000" fill-rule="evenodd" fill-opacity="0.25" stroke="#000000" stroke-opacity="0.25" stroke-width="3.2"/>
<circle clip-path="url(#clip922)" cx="1513.26" cy="530.627" r="14.4" fill="#ff0000" fill-rule="evenodd" fill-opacity="0.25" stroke="#000000" stroke-opacity="0.25" stroke-width="3.2"/>
<circle clip-path="url(#clip922)" cx="1916.36" cy="593.568" r="14.4" fill="#ff0000" fill-rule="evenodd" fill-opacity="0.25" stroke="#000000" stroke-opacity="0.25" stroke-width="3.2"/>
<circle clip-path="url(#clip922)" cx="1532.07" cy="950.641" r="14.4" fill="#ff0000" fill-rule="evenodd" fill-opacity="0.25" stroke="#000000" stroke-opacity="0.25" stroke-width="3.2"/>
<circle clip-path="url(#clip922)" cx="315.32" cy="1280.65" r="14.4" fill="#ff0000" fill-rule="evenodd" fill-opacity="0.25" stroke="#000000" stroke-opacity="0.25" stroke-width="3.2"/>
<circle clip-path="url(#clip922)" cx="2236.78" cy="160.256" r="14.4" fill="#ff0000" fill-rule="evenodd" fill-opacity="0.25" stroke="#000000" stroke-opacity="0.25" stroke-width="3.2"/>
<circle clip-path="url(#clip922)" cx="1647.28" cy="688.861" r="14.4" fill="#ff0000" fill-rule="evenodd" fill-opacity="0.25" stroke="#000000" stroke-opacity="0.25" stroke-width="3.2"/>
<circle clip-path="url(#clip922)" cx="462.78" cy="1101" r="14.4" fill="#ff0000" fill-rule="evenodd" fill-opacity="0.25" stroke="#000000" stroke-opacity="0.25" stroke-width="3.2"/>
<circle clip-path="url(#clip922)" cx="2185.42" cy="348.478" r="14.4" fill="#ff0000" fill-rule="evenodd" fill-opacity="0.25" stroke="#000000" stroke-opacity="0.25" stroke-width="3.2"/>
<circle clip-path="url(#clip922)" cx="1810.59" cy="862.45" r="14.4" fill="#ff0000" fill-rule="evenodd" fill-opacity="0.25" stroke="#000000" stroke-opacity="0.25" stroke-width="3.2"/>
<circle clip-path="url(#clip922)" cx="357.116" cy="875.337" r="14.4" fill="#ff0000" fill-rule="evenodd" fill-opacity="0.25" stroke="#000000" stroke-opacity="0.25" stroke-width="3.2"/>
<circle clip-path="url(#clip922)" cx="2101.84" cy="526.744" r="14.4" fill="#ff0000" fill-rule="evenodd" fill-opacity="0.25" stroke="#000000" stroke-opacity="0.25" stroke-width="3.2"/>
<circle clip-path="url(#clip922)" cx="2292.44" cy="690.729" r="14.4" fill="#ff0000" fill-rule="evenodd" fill-opacity="0.25" stroke="#000000" stroke-opacity="0.25" stroke-width="3.2"/>
<circle clip-path="url(#clip922)" cx="1240.47" cy="874.59" r="14.4" fill="#ff0000" fill-rule="evenodd" fill-opacity="0.25" stroke="#000000" stroke-opacity="0.25" stroke-width="3.2"/>
<circle clip-path="url(#clip922)" cx="1105.58" cy="1160.53" r="14.4" fill="#ff0000" fill-rule="evenodd" fill-opacity="0.25" stroke="#000000" stroke-opacity="0.25" stroke-width="3.2"/>
<circle clip-path="url(#clip922)" cx="1726.2" cy="885.844" r="14.4" fill="#ff0000" fill-rule="evenodd" fill-opacity="0.25" stroke="#000000" stroke-opacity="0.25" stroke-width="3.2"/>
<circle clip-path="url(#clip922)" cx="1218.01" cy="852.131" r="14.4" fill="#ff0000" fill-rule="evenodd" fill-opacity="0.25" stroke="#000000" stroke-opacity="0.25" stroke-width="3.2"/>
<circle clip-path="url(#clip922)" cx="555.737" cy="1189" r="14.4" fill="#ff0000" fill-rule="evenodd" fill-opacity="0.25" stroke="#000000" stroke-opacity="0.25" stroke-width="3.2"/>
<circle clip-path="url(#clip922)" cx="316.929" cy="1113.81" r="14.4" fill="#ff0000" fill-rule="evenodd" fill-opacity="0.25" stroke="#000000" stroke-opacity="0.25" stroke-width="3.2"/>
<circle clip-path="url(#clip922)" cx="1733.59" cy="347.051" r="14.4" fill="#ff0000" fill-rule="evenodd" fill-opacity="0.25" stroke="#000000" stroke-opacity="0.25" stroke-width="3.2"/>
<circle clip-path="url(#clip922)" cx="501.282" cy="901.685" r="14.4" fill="#ff0000" fill-rule="evenodd" fill-opacity="0.25" stroke="#000000" stroke-opacity="0.25" stroke-width="3.2"/>
<circle clip-path="url(#clip922)" cx="1667.93" cy="737.468" r="14.4" fill="#ff0000" fill-rule="evenodd" fill-opacity="0.25" stroke="#000000" stroke-opacity="0.25" stroke-width="3.2"/>
<circle clip-path="url(#clip922)" cx="1169.28" cy="960.263" r="14.4" fill="#ff0000" fill-rule="evenodd" fill-opacity="0.25" stroke="#000000" stroke-opacity="0.25" stroke-width="3.2"/>
<circle clip-path="url(#clip922)" cx="689.287" cy="1191.36" r="14.4" fill="#ff0000" fill-rule="evenodd" fill-opacity="0.25" stroke="#000000" stroke-opacity="0.25" stroke-width="3.2"/>
<circle clip-path="url(#clip922)" cx="1243.21" cy="553.173" r="14.4" fill="#ff0000" fill-rule="evenodd" fill-opacity="0.25" stroke="#000000" stroke-opacity="0.25" stroke-width="3.2"/>
<circle clip-path="url(#clip922)" cx="1388.99" cy="1024.14" r="14.4" fill="#ff0000" fill-rule="evenodd" fill-opacity="0.25" stroke="#000000" stroke-opacity="0.25" stroke-width="3.2"/>
<circle clip-path="url(#clip922)" cx="1247.79" cy="935.828" r="14.4" fill="#ff0000" fill-rule="evenodd" fill-opacity="0.25" stroke="#000000" stroke-opacity="0.25" stroke-width="3.2"/>
<circle clip-path="url(#clip922)" cx="1369.68" cy="434.372" r="14.4" fill="#ff0000" fill-rule="evenodd" fill-opacity="0.25" stroke="#000000" stroke-opacity="0.25" stroke-width="3.2"/>
<circle clip-path="url(#clip922)" cx="1214.33" cy="875.718" r="14.4" fill="#ff0000" fill-rule="evenodd" fill-opacity="0.25" stroke="#000000" stroke-opacity="0.25" stroke-width="3.2"/>
<circle clip-path="url(#clip922)" cx="1879.7" cy="713.424" r="14.4" fill="#ff0000" fill-rule="evenodd" fill-opacity="0.25" stroke="#000000" stroke-opacity="0.25" stroke-width="3.2"/>
<circle clip-path="url(#clip922)" cx="1861.87" cy="432.775" r="14.4" fill="#ff0000" fill-rule="evenodd" fill-opacity="0.25" stroke="#000000" stroke-opacity="0.25" stroke-width="3.2"/>
<circle clip-path="url(#clip922)" cx="1519.54" cy="822.233" r="14.4" fill="#ff0000" fill-rule="evenodd" fill-opacity="0.25" stroke="#000000" stroke-opacity="0.25" stroke-width="3.2"/>
<circle clip-path="url(#clip922)" cx="1454.15" cy="553.055" r="14.4" fill="#ff0000" fill-rule="evenodd" fill-opacity="0.25" stroke="#000000" stroke-opacity="0.25" stroke-width="3.2"/>
<circle clip-path="url(#clip922)" cx="582.535" cy="817.184" r="14.4" fill="#ff0000" fill-rule="evenodd" fill-opacity="0.25" stroke="#000000" stroke-opacity="0.25" stroke-width="3.2"/>
<circle clip-path="url(#clip922)" cx="1108.17" cy="870.789" r="14.4" fill="#ff0000" fill-rule="evenodd" fill-opacity="0.25" stroke="#000000" stroke-opacity="0.25" stroke-width="3.2"/>
<circle clip-path="url(#clip922)" cx="351.982" cy="993.8" r="14.4" fill="#ff0000" fill-rule="evenodd" fill-opacity="0.25" stroke="#000000" stroke-opacity="0.25" stroke-width="3.2"/>
<circle clip-path="url(#clip922)" cx="1298.89" cy="703.84" r="14.4" fill="#ff0000" fill-rule="evenodd" fill-opacity="0.25" stroke="#000000" stroke-opacity="0.25" stroke-width="3.2"/>
<circle clip-path="url(#clip922)" cx="2196.5" cy="307.555" r="14.4" fill="#ff0000" fill-rule="evenodd" fill-opacity="0.25" stroke="#000000" stroke-opacity="0.25" stroke-width="3.2"/>
<circle clip-path="url(#clip922)" cx="1772.05" cy="557.689" r="14.4" fill="#ff0000" fill-rule="evenodd" fill-opacity="0.25" stroke="#000000" stroke-opacity="0.25" stroke-width="3.2"/>
<circle clip-path="url(#clip922)" cx="1591.64" cy="606.291" r="14.4" fill="#ff0000" fill-rule="evenodd" fill-opacity="0.25" stroke="#000000" stroke-opacity="0.25" stroke-width="3.2"/>
<circle clip-path="url(#clip922)" cx="1102.92" cy="618.666" r="14.4" fill="#ff0000" fill-rule="evenodd" fill-opacity="0.25" stroke="#000000" stroke-opacity="0.25" stroke-width="3.2"/>
<circle clip-path="url(#clip922)" cx="1380.81" cy="975.021" r="14.4" fill="#ff0000" fill-rule="evenodd" fill-opacity="0.25" stroke="#000000" stroke-opacity="0.25" stroke-width="3.2"/>
<circle clip-path="url(#clip922)" cx="1730.46" cy="747.254" r="14.4" fill="#ff0000" fill-rule="evenodd" fill-opacity="0.25" stroke="#000000" stroke-opacity="0.25" stroke-width="3.2"/>
<circle clip-path="url(#clip922)" cx="1305.68" cy="539.285" r="14.4" fill="#ff0000" fill-rule="evenodd" fill-opacity="0.25" stroke="#000000" stroke-opacity="0.25" stroke-width="3.2"/>
<circle clip-path="url(#clip922)" cx="1070.3" cy="1081.65" r="14.4" fill="#ff0000" fill-rule="evenodd" fill-opacity="0.25" stroke="#000000" stroke-opacity="0.25" stroke-width="3.2"/>
<circle clip-path="url(#clip922)" cx="809.741" cy="949.666" r="14.4" fill="#ff0000" fill-rule="evenodd" fill-opacity="0.25" stroke="#000000" stroke-opacity="0.25" stroke-width="3.2"/>
<circle clip-path="url(#clip922)" cx="1031.51" cy="1002.17" r="14.4" fill="#ff0000" fill-rule="evenodd" fill-opacity="0.25" stroke="#000000" stroke-opacity="0.25" stroke-width="3.2"/>
<circle clip-path="url(#clip922)" cx="878.925" cy="1076.7" r="14.4" fill="#ff0000" fill-rule="evenodd" fill-opacity="0.25" stroke="#000000" stroke-opacity="0.25" stroke-width="3.2"/>
<circle clip-path="url(#clip922)" cx="1337.74" cy="842.904" r="14.4" fill="#ff0000" fill-rule="evenodd" fill-opacity="0.25" stroke="#000000" stroke-opacity="0.25" stroke-width="3.2"/>
<circle clip-path="url(#clip922)" cx="1246.54" cy="1098.46" r="14.4" fill="#ff0000" fill-rule="evenodd" fill-opacity="0.25" stroke="#000000" stroke-opacity="0.25" stroke-width="3.2"/>
<circle clip-path="url(#clip922)" cx="2242.4" cy="391.379" r="14.4" fill="#ff0000" fill-rule="evenodd" fill-opacity="0.25" stroke="#000000" stroke-opacity="0.25" stroke-width="3.2"/>
<circle clip-path="url(#clip922)" cx="2217.51" cy="535.347" r="14.4" fill="#ff0000" fill-rule="evenodd" fill-opacity="0.25" stroke="#000000" stroke-opacity="0.25" stroke-width="3.2"/>
<circle clip-path="url(#clip922)" cx="523.666" cy="910.864" r="14.4" fill="#ff0000" fill-rule="evenodd" fill-opacity="0.25" stroke="#000000" stroke-opacity="0.25" stroke-width="3.2"/>
<circle clip-path="url(#clip922)" cx="1118.93" cy="1117.44" r="14.4" fill="#ff0000" fill-rule="evenodd" fill-opacity="0.25" stroke="#000000" stroke-opacity="0.25" stroke-width="3.2"/>
<circle clip-path="url(#clip922)" cx="370.689" cy="1310.98" r="14.4" fill="#ff0000" fill-rule="evenodd" fill-opacity="0.25" stroke="#000000" stroke-opacity="0.25" stroke-width="3.2"/>
<circle clip-path="url(#clip922)" cx="1566.43" cy="857.976" r="14.4" fill="#ff0000" fill-rule="evenodd" fill-opacity="0.25" stroke="#000000" stroke-opacity="0.25" stroke-width="3.2"/>
<circle clip-path="url(#clip922)" cx="827.355" cy="1174.84" r="14.4" fill="#ff0000" fill-rule="evenodd" fill-opacity="0.25" stroke="#000000" stroke-opacity="0.25" stroke-width="3.2"/>
<circle clip-path="url(#clip922)" cx="1321.48" cy="466.423" r="14.4" fill="#ff0000" fill-rule="evenodd" fill-opacity="0.25" stroke="#000000" stroke-opacity="0.25" stroke-width="3.2"/>
<circle clip-path="url(#clip922)" cx="353.465" cy="1126.32" r="14.4" fill="#ff0000" fill-rule="evenodd" fill-opacity="0.25" stroke="#000000" stroke-opacity="0.25" stroke-width="3.2"/>
<circle clip-path="url(#clip922)" cx="1026.92" cy="735.582" r="14.4" fill="#ff0000" fill-rule="evenodd" fill-opacity="0.25" stroke="#000000" stroke-opacity="0.25" stroke-width="3.2"/>
<circle clip-path="url(#clip922)" cx="648.489" cy="877.596" r="14.4" fill="#ff0000" fill-rule="evenodd" fill-opacity="0.25" stroke="#000000" stroke-opacity="0.25" stroke-width="3.2"/>
<circle clip-path="url(#clip922)" cx="1422.34" cy="743.285" r="14.4" fill="#ff0000" fill-rule="evenodd" fill-opacity="0.25" stroke="#000000" stroke-opacity="0.25" stroke-width="3.2"/>
<circle clip-path="url(#clip922)" cx="1594.24" cy="720.984" r="14.4" fill="#ff0000" fill-rule="evenodd" fill-opacity="0.25" stroke="#000000" stroke-opacity="0.25" stroke-width="3.2"/>
<circle clip-path="url(#clip922)" cx="859.108" cy="823.433" r="14.4" fill="#ff0000" fill-rule="evenodd" fill-opacity="0.25" stroke="#000000" stroke-opacity="0.25" stroke-width="3.2"/>
<circle clip-path="url(#clip922)" cx="782.004" cy="934.444" r="14.4" fill="#ff0000" fill-rule="evenodd" fill-opacity="0.25" stroke="#000000" stroke-opacity="0.25" stroke-width="3.2"/>
<circle clip-path="url(#clip922)" cx="1717.66" cy="741.949" r="14.4" fill="#ff0000" fill-rule="evenodd" fill-opacity="0.25" stroke="#000000" stroke-opacity="0.25" stroke-width="3.2"/>
<circle clip-path="url(#clip922)" cx="1676.04" cy="574.511" r="14.4" fill="#ff0000" fill-rule="evenodd" fill-opacity="0.25" stroke="#000000" stroke-opacity="0.25" stroke-width="3.2"/>
<circle clip-path="url(#clip922)" cx="338.113" cy="891.437" r="14.4" fill="#ff0000" fill-rule="evenodd" fill-opacity="0.25" stroke="#000000" stroke-opacity="0.25" stroke-width="3.2"/>
<circle clip-path="url(#clip922)" cx="1849.86" cy="781.786" r="14.4" fill="#ff0000" fill-rule="evenodd" fill-opacity="0.25" stroke="#000000" stroke-opacity="0.25" stroke-width="3.2"/>
<circle clip-path="url(#clip922)" cx="1256.62" cy="1081.39" r="14.4" fill="#ff0000" fill-rule="evenodd" fill-opacity="0.25" stroke="#000000" stroke-opacity="0.25" stroke-width="3.2"/>
<circle clip-path="url(#clip922)" cx="1748.49" cy="786.799" r="14.4" fill="#ff0000" fill-rule="evenodd" fill-opacity="0.25" stroke="#000000" stroke-opacity="0.25" stroke-width="3.2"/>
<circle clip-path="url(#clip922)" cx="2097.35" cy="774.292" r="14.4" fill="#ff0000" fill-rule="evenodd" fill-opacity="0.25" stroke="#000000" stroke-opacity="0.25" stroke-width="3.2"/>
<circle clip-path="url(#clip922)" cx="1829.18" cy="528.607" r="14.4" fill="#ff0000" fill-rule="evenodd" fill-opacity="0.25" stroke="#000000" stroke-opacity="0.25" stroke-width="3.2"/>
<circle clip-path="url(#clip922)" cx="1044.26" cy="620.91" r="14.4" fill="#ff0000" fill-rule="evenodd" fill-opacity="0.25" stroke="#000000" stroke-opacity="0.25" stroke-width="3.2"/>
<circle clip-path="url(#clip922)" cx="812.594" cy="928.916" r="14.4" fill="#ff0000" fill-rule="evenodd" fill-opacity="0.25" stroke="#000000" stroke-opacity="0.25" stroke-width="3.2"/>
<circle clip-path="url(#clip922)" cx="1250.8" cy="538.287" r="14.4" fill="#ff0000" fill-rule="evenodd" fill-opacity="0.25" stroke="#000000" stroke-opacity="0.25" stroke-width="3.2"/>
<circle clip-path="url(#clip922)" cx="1218.76" cy="1081.83" r="14.4" fill="#ff0000" fill-rule="evenodd" fill-opacity="0.25" stroke="#000000" stroke-opacity="0.25" stroke-width="3.2"/>
<circle clip-path="url(#clip922)" cx="2011.05" cy="731.505" r="14.4" fill="#ff0000" fill-rule="evenodd" fill-opacity="0.25" stroke="#000000" stroke-opacity="0.25" stroke-width="3.2"/>
<circle clip-path="url(#clip922)" cx="1578.59" cy="503.2" r="14.4" fill="#ff0000" fill-rule="evenodd" fill-opacity="0.25" stroke="#000000" stroke-opacity="0.25" stroke-width="3.2"/>
<circle clip-path="url(#clip922)" cx="2074.46" cy="257.709" r="14.4" fill="#ff0000" fill-rule="evenodd" fill-opacity="0.25" stroke="#000000" stroke-opacity="0.25" stroke-width="3.2"/>
<circle clip-path="url(#clip922)" cx="452.944" cy="996.121" r="14.4" fill="#ff0000" fill-rule="evenodd" fill-opacity="0.25" stroke="#000000" stroke-opacity="0.25" stroke-width="3.2"/>
<circle clip-path="url(#clip922)" cx="2141.79" cy="569.534" r="14.4" fill="#ff0000" fill-rule="evenodd" fill-opacity="0.25" stroke="#000000" stroke-opacity="0.25" stroke-width="3.2"/>
<circle clip-path="url(#clip922)" cx="411.574" cy="929.157" r="14.4" fill="#ff0000" fill-rule="evenodd" fill-opacity="0.25" stroke="#000000" stroke-opacity="0.25" stroke-width="3.2"/>
<circle clip-path="url(#clip922)" cx="1958.69" cy="363.985" r="14.4" fill="#ff0000" fill-rule="evenodd" fill-opacity="0.25" stroke="#000000" stroke-opacity="0.25" stroke-width="3.2"/>
<circle clip-path="url(#clip922)" cx="1332.03" cy="1053.25" r="14.4" fill="#ff0000" fill-rule="evenodd" fill-opacity="0.25" stroke="#000000" stroke-opacity="0.25" stroke-width="3.2"/>
<circle clip-path="url(#clip922)" cx="1750.39" cy="572.467" r="14.4" fill="#ff0000" fill-rule="evenodd" fill-opacity="0.25" stroke="#000000" stroke-opacity="0.25" stroke-width="3.2"/>
<circle clip-path="url(#clip922)" cx="728.887" cy="912.325" r="14.4" fill="#ff0000" fill-rule="evenodd" fill-opacity="0.25" stroke="#000000" stroke-opacity="0.25" stroke-width="3.2"/>
<circle clip-path="url(#clip922)" cx="1036.4" cy="755.701" r="14.4" fill="#ff0000" fill-rule="evenodd" fill-opacity="0.25" stroke="#000000" stroke-opacity="0.25" stroke-width="3.2"/>
<circle clip-path="url(#clip922)" cx="491.295" cy="1384.25" r="14.4" fill="#ff0000" fill-rule="evenodd" fill-opacity="0.25" stroke="#000000" stroke-opacity="0.25" stroke-width="3.2"/>
<circle clip-path="url(#clip922)" cx="2063.1" cy="201.237" r="14.4" fill="#ff0000" fill-rule="evenodd" fill-opacity="0.25" stroke="#000000" stroke-opacity="0.25" stroke-width="3.2"/>
<circle clip-path="url(#clip922)" cx="1127.92" cy="831.328" r="14.4" fill="#ff0000" fill-rule="evenodd" fill-opacity="0.25" stroke="#000000" stroke-opacity="0.25" stroke-width="3.2"/>
<circle clip-path="url(#clip922)" cx="1239.27" cy="1041.61" r="14.4" fill="#ff0000" fill-rule="evenodd" fill-opacity="0.25" stroke="#000000" stroke-opacity="0.25" stroke-width="3.2"/>
<circle clip-path="url(#clip922)" cx="351.925" cy="1386.4" r="14.4" fill="#ff0000" fill-rule="evenodd" fill-opacity="0.25" stroke="#000000" stroke-opacity="0.25" stroke-width="3.2"/>
<circle clip-path="url(#clip922)" cx="1055.14" cy="991.296" r="14.4" fill="#ff0000" fill-rule="evenodd" fill-opacity="0.25" stroke="#000000" stroke-opacity="0.25" stroke-width="3.2"/>
<circle clip-path="url(#clip922)" cx="1931.04" cy="243.013" r="14.4" fill="#ff0000" fill-rule="evenodd" fill-opacity="0.25" stroke="#000000" stroke-opacity="0.25" stroke-width="3.2"/>
<circle clip-path="url(#clip922)" cx="1140.61" cy="991.953" r="14.4" fill="#ff0000" fill-rule="evenodd" fill-opacity="0.25" stroke="#000000" stroke-opacity="0.25" stroke-width="3.2"/>
<circle clip-path="url(#clip922)" cx="2011.73" cy="479.514" r="14.4" fill="#ff0000" fill-rule="evenodd" fill-opacity="0.25" stroke="#000000" stroke-opacity="0.25" stroke-width="3.2"/>
<circle clip-path="url(#clip922)" cx="320.718" cy="1126.86" r="14.4" fill="#ff0000" fill-rule="evenodd" fill-opacity="0.25" stroke="#000000" stroke-opacity="0.25" stroke-width="3.2"/>
<circle clip-path="url(#clip922)" cx="1407.93" cy="1003.56" r="14.4" fill="#ff0000" fill-rule="evenodd" fill-opacity="0.25" stroke="#000000" stroke-opacity="0.25" stroke-width="3.2"/>
<circle clip-path="url(#clip922)" cx="983.581" cy="724.751" r="14.4" fill="#ff0000" fill-rule="evenodd" fill-opacity="0.25" stroke="#000000" stroke-opacity="0.25" stroke-width="3.2"/>
<circle clip-path="url(#clip922)" cx="1960.95" cy="254.937" r="14.4" fill="#ff0000" fill-rule="evenodd" fill-opacity="0.25" stroke="#000000" stroke-opacity="0.25" stroke-width="3.2"/>
<circle clip-path="url(#clip922)" cx="726.615" cy="1032.83" r="14.4" fill="#ff0000" fill-rule="evenodd" fill-opacity="0.25" stroke="#000000" stroke-opacity="0.25" stroke-width="3.2"/>
<circle clip-path="url(#clip922)" cx="1565.91" cy="868.751" r="14.4" fill="#ff0000" fill-rule="evenodd" fill-opacity="0.25" stroke="#000000" stroke-opacity="0.25" stroke-width="3.2"/>
<circle clip-path="url(#clip922)" cx="1783.55" cy="782.417" r="14.4" fill="#ff0000" fill-rule="evenodd" fill-opacity="0.25" stroke="#000000" stroke-opacity="0.25" stroke-width="3.2"/>
<circle clip-path="url(#clip922)" cx="2082.78" cy="567.417" r="14.4" fill="#ff0000" fill-rule="evenodd" fill-opacity="0.25" stroke="#000000" stroke-opacity="0.25" stroke-width="3.2"/>
<circle clip-path="url(#clip922)" cx="1893.29" cy="322.717" r="14.4" fill="#ff0000" fill-rule="evenodd" fill-opacity="0.25" stroke="#000000" stroke-opacity="0.25" stroke-width="3.2"/>
<circle clip-path="url(#clip922)" cx="1408.51" cy="630.642" r="14.4" fill="#ff0000" fill-rule="evenodd" fill-opacity="0.25" stroke="#000000" stroke-opacity="0.25" stroke-width="3.2"/>
<circle clip-path="url(#clip922)" cx="2246.9" cy="532.391" r="14.4" fill="#ff0000" fill-rule="evenodd" fill-opacity="0.25" stroke="#000000" stroke-opacity="0.25" stroke-width="3.2"/>
<circle clip-path="url(#clip922)" cx="862.671" cy="1057.24" r="14.4" fill="#ff0000" fill-rule="evenodd" fill-opacity="0.25" stroke="#000000" stroke-opacity="0.25" stroke-width="3.2"/>
<circle clip-path="url(#clip922)" cx="1725.9" cy="741.895" r="14.4" fill="#ff0000" fill-rule="evenodd" fill-opacity="0.25" stroke="#000000" stroke-opacity="0.25" stroke-width="3.2"/>
<circle clip-path="url(#clip922)" cx="487.171" cy="1010.21" r="14.4" fill="#ff0000" fill-rule="evenodd" fill-opacity="0.25" stroke="#000000" stroke-opacity="0.25" stroke-width="3.2"/>
<circle clip-path="url(#clip922)" cx="1387.34" cy="753.478" r="14.4" fill="#ff0000" fill-rule="evenodd" fill-opacity="0.25" stroke="#000000" stroke-opacity="0.25" stroke-width="3.2"/>
<circle clip-path="url(#clip922)" cx="914.523" cy="625.069" r="14.4" fill="#ff0000" fill-rule="evenodd" fill-opacity="0.25" stroke="#000000" stroke-opacity="0.25" stroke-width="3.2"/>
<circle clip-path="url(#clip922)" cx="393.369" cy="1286.8" r="14.4" fill="#ff0000" fill-rule="evenodd" fill-opacity="0.25" stroke="#000000" stroke-opacity="0.25" stroke-width="3.2"/>
<circle clip-path="url(#clip922)" cx="867.704" cy="1127.7" r="14.4" fill="#ff0000" fill-rule="evenodd" fill-opacity="0.25" stroke="#000000" stroke-opacity="0.25" stroke-width="3.2"/>
<circle clip-path="url(#clip922)" cx="2181.21" cy="211.073" r="14.4" fill="#ff0000" fill-rule="evenodd" fill-opacity="0.25" stroke="#000000" stroke-opacity="0.25" stroke-width="3.2"/>
<circle clip-path="url(#clip922)" cx="2134.07" cy="684.495" r="14.4" fill="#ff0000" fill-rule="evenodd" fill-opacity="0.25" stroke="#000000" stroke-opacity="0.25" stroke-width="3.2"/>
<circle clip-path="url(#clip922)" cx="1240.82" cy="544.402" r="14.4" fill="#ff0000" fill-rule="evenodd" fill-opacity="0.25" stroke="#000000" stroke-opacity="0.25" stroke-width="3.2"/>
<circle clip-path="url(#clip922)" cx="561.983" cy="1351.77" r="14.4" fill="#ff0000" fill-rule="evenodd" fill-opacity="0.25" stroke="#000000" stroke-opacity="0.25" stroke-width="3.2"/>
<circle clip-path="url(#clip922)" cx="1086.56" cy="866.1" r="14.4" fill="#ff0000" fill-rule="evenodd" fill-opacity="0.25" stroke="#000000" stroke-opacity="0.25" stroke-width="3.2"/>
<circle clip-path="url(#clip922)" cx="2247.25" cy="452.601" r="14.4" fill="#ff0000" fill-rule="evenodd" fill-opacity="0.25" stroke="#000000" stroke-opacity="0.25" stroke-width="3.2"/>
<circle clip-path="url(#clip922)" cx="682.736" cy="701.065" r="14.4" fill="#ff0000" fill-rule="evenodd" fill-opacity="0.25" stroke="#000000" stroke-opacity="0.25" stroke-width="3.2"/>
<circle clip-path="url(#clip922)" cx="1966.9" cy="309.867" r="14.4" fill="#ff0000" fill-rule="evenodd" fill-opacity="0.25" stroke="#000000" stroke-opacity="0.25" stroke-width="3.2"/>
<circle clip-path="url(#clip922)" cx="2011.1" cy="215.81" r="14.4" fill="#ff0000" fill-rule="evenodd" fill-opacity="0.25" stroke="#000000" stroke-opacity="0.25" stroke-width="3.2"/>
<circle clip-path="url(#clip922)" cx="1453.53" cy="568.119" r="14.4" fill="#ff0000" fill-rule="evenodd" fill-opacity="0.25" stroke="#000000" stroke-opacity="0.25" stroke-width="3.2"/>
<circle clip-path="url(#clip922)" cx="1802.19" cy="565.19" r="14.4" fill="#ff0000" fill-rule="evenodd" fill-opacity="0.25" stroke="#000000" stroke-opacity="0.25" stroke-width="3.2"/>
<circle clip-path="url(#clip922)" cx="1099.49" cy="919.398" r="14.4" fill="#ff0000" fill-rule="evenodd" fill-opacity="0.25" stroke="#000000" stroke-opacity="0.25" stroke-width="3.2"/>
<circle clip-path="url(#clip922)" cx="1234" cy="687.003" r="14.4" fill="#ff0000" fill-rule="evenodd" fill-opacity="0.25" stroke="#000000" stroke-opacity="0.25" stroke-width="3.2"/>
<circle clip-path="url(#clip922)" cx="1704.22" cy="828.945" r="14.4" fill="#ff0000" fill-rule="evenodd" fill-opacity="0.25" stroke="#000000" stroke-opacity="0.25" stroke-width="3.2"/>
<circle clip-path="url(#clip922)" cx="1227.23" cy="994.734" r="14.4" fill="#ff0000" fill-rule="evenodd" fill-opacity="0.25" stroke="#000000" stroke-opacity="0.25" stroke-width="3.2"/>
<circle clip-path="url(#clip922)" cx="1953.73" cy="248.702" r="14.4" fill="#ff0000" fill-rule="evenodd" fill-opacity="0.25" stroke="#000000" stroke-opacity="0.25" stroke-width="3.2"/>
<circle clip-path="url(#clip922)" cx="1835.95" cy="333.748" r="14.4" fill="#ff0000" fill-rule="evenodd" fill-opacity="0.25" stroke="#000000" stroke-opacity="0.25" stroke-width="3.2"/>
<circle clip-path="url(#clip922)" cx="1868.42" cy="290.168" r="14.4" fill="#ff0000" fill-rule="evenodd" fill-opacity="0.25" stroke="#000000" stroke-opacity="0.25" stroke-width="3.2"/>
<circle clip-path="url(#clip922)" cx="1644.71" cy="612.754" r="14.4" fill="#ff0000" fill-rule="evenodd" fill-opacity="0.25" stroke="#000000" stroke-opacity="0.25" stroke-width="3.2"/>
<circle clip-path="url(#clip922)" cx="896.33" cy="1187.15" r="14.4" fill="#ff0000" fill-rule="evenodd" fill-opacity="0.25" stroke="#000000" stroke-opacity="0.25" stroke-width="3.2"/>
<circle clip-path="url(#clip922)" cx="1215.58" cy="1060.9" r="14.4" fill="#ff0000" fill-rule="evenodd" fill-opacity="0.25" stroke="#000000" stroke-opacity="0.25" stroke-width="3.2"/>
<circle clip-path="url(#clip922)" cx="428.398" cy="899.604" r="14.4" fill="#ff0000" fill-rule="evenodd" fill-opacity="0.25" stroke="#000000" stroke-opacity="0.25" stroke-width="3.2"/>
<circle clip-path="url(#clip922)" cx="2293.41" cy="267.774" r="14.4" fill="#ff0000" fill-rule="evenodd" fill-opacity="0.25" stroke="#000000" stroke-opacity="0.25" stroke-width="3.2"/>
<circle clip-path="url(#clip922)" cx="745.148" cy="1119.56" r="14.4" fill="#ff0000" fill-rule="evenodd" fill-opacity="0.25" stroke="#000000" stroke-opacity="0.25" stroke-width="3.2"/>
<circle clip-path="url(#clip922)" cx="650.631" cy="815.731" r="14.4" fill="#ff0000" fill-rule="evenodd" fill-opacity="0.25" stroke="#000000" stroke-opacity="0.25" stroke-width="3.2"/>
<circle clip-path="url(#clip922)" cx="1971.64" cy="476.894" r="14.4" fill="#ff0000" fill-rule="evenodd" fill-opacity="0.25" stroke="#000000" stroke-opacity="0.25" stroke-width="3.2"/>
<circle clip-path="url(#clip922)" cx="965.865" cy="725.2" r="14.4" fill="#ff0000" fill-rule="evenodd" fill-opacity="0.25" stroke="#000000" stroke-opacity="0.25" stroke-width="3.2"/>
<circle clip-path="url(#clip922)" cx="1248.92" cy="1076.45" r="14.4" fill="#ff0000" fill-rule="evenodd" fill-opacity="0.25" stroke="#000000" stroke-opacity="0.25" stroke-width="3.2"/>
<circle clip-path="url(#clip922)" cx="2225.98" cy="308.128" r="14.4" fill="#ff0000" fill-rule="evenodd" fill-opacity="0.25" stroke="#000000" stroke-opacity="0.25" stroke-width="3.2"/>
<circle clip-path="url(#clip922)" cx="327.715" cy="907.704" r="14.4" fill="#ff0000" fill-rule="evenodd" fill-opacity="0.25" stroke="#000000" stroke-opacity="0.25" stroke-width="3.2"/>
<circle clip-path="url(#clip922)" cx="1171.3" cy="918.71" r="14.4" fill="#ff0000" fill-rule="evenodd" fill-opacity="0.25" stroke="#000000" stroke-opacity="0.25" stroke-width="3.2"/>
<circle clip-path="url(#clip922)" cx="2237.74" cy="403.782" r="14.4" fill="#ff0000" fill-rule="evenodd" fill-opacity="0.25" stroke="#000000" stroke-opacity="0.25" stroke-width="3.2"/>
<circle clip-path="url(#clip922)" cx="1053.62" cy="692.209" r="14.4" fill="#ff0000" fill-rule="evenodd" fill-opacity="0.25" stroke="#000000" stroke-opacity="0.25" stroke-width="3.2"/>
<circle clip-path="url(#clip922)" cx="538.238" cy="987.354" r="14.4" fill="#ff0000" fill-rule="evenodd" fill-opacity="0.25" stroke="#000000" stroke-opacity="0.25" stroke-width="3.2"/>
<circle clip-path="url(#clip922)" cx="1147.2" cy="1002" r="14.4" fill="#ff0000" fill-rule="evenodd" fill-opacity="0.25" stroke="#000000" stroke-opacity="0.25" stroke-width="3.2"/>
<circle clip-path="url(#clip922)" cx="2215.26" cy="607.555" r="14.4" fill="#ff0000" fill-rule="evenodd" fill-opacity="0.25" stroke="#000000" stroke-opacity="0.25" stroke-width="3.2"/>
<circle clip-path="url(#clip922)" cx="485.207" cy="975.75" r="14.4" fill="#ff0000" fill-rule="evenodd" fill-opacity="0.25" stroke="#000000" stroke-opacity="0.25" stroke-width="3.2"/>
<circle clip-path="url(#clip922)" cx="868.355" cy="907.823" r="14.4" fill="#ff0000" fill-rule="evenodd" fill-opacity="0.25" stroke="#000000" stroke-opacity="0.25" stroke-width="3.2"/>
<circle clip-path="url(#clip922)" cx="1153.59" cy="893.835" r="14.4" fill="#ff0000" fill-rule="evenodd" fill-opacity="0.25" stroke="#000000" stroke-opacity="0.25" stroke-width="3.2"/>
<circle clip-path="url(#clip922)" cx="2224.6" cy="408.324" r="14.4" fill="#ff0000" fill-rule="evenodd" fill-opacity="0.25" stroke="#000000" stroke-opacity="0.25" stroke-width="3.2"/>
<circle clip-path="url(#clip922)" cx="2055.62" cy="429.143" r="14.4" fill="#ff0000" fill-rule="evenodd" fill-opacity="0.25" stroke="#000000" stroke-opacity="0.25" stroke-width="3.2"/>
<circle clip-path="url(#clip922)" cx="1500.18" cy="806.676" r="14.4" fill="#ff0000" fill-rule="evenodd" fill-opacity="0.25" stroke="#000000" stroke-opacity="0.25" stroke-width="3.2"/>
<circle clip-path="url(#clip922)" cx="831.004" cy="916.394" r="14.4" fill="#ff0000" fill-rule="evenodd" fill-opacity="0.25" stroke="#000000" stroke-opacity="0.25" stroke-width="3.2"/>
<circle clip-path="url(#clip922)" cx="1808.9" cy="328.429" r="14.4" fill="#ff0000" fill-rule="evenodd" fill-opacity="0.25" stroke="#000000" stroke-opacity="0.25" stroke-width="3.2"/>
<circle clip-path="url(#clip922)" cx="1201.07" cy="916.745" r="14.4" fill="#ff0000" fill-rule="evenodd" fill-opacity="0.25" stroke="#000000" stroke-opacity="0.25" stroke-width="3.2"/>
<circle clip-path="url(#clip922)" cx="1284.1" cy="901.054" r="14.4" fill="#ff0000" fill-rule="evenodd" fill-opacity="0.25" stroke="#000000" stroke-opacity="0.25" stroke-width="3.2"/>
<circle clip-path="url(#clip922)" cx="1046.32" cy="1185" r="14.4" fill="#ff0000" fill-rule="evenodd" fill-opacity="0.25" stroke="#000000" stroke-opacity="0.25" stroke-width="3.2"/>
<circle clip-path="url(#clip922)" cx="1437.65" cy="884.969" r="14.4" fill="#ff0000" fill-rule="evenodd" fill-opacity="0.25" stroke="#000000" stroke-opacity="0.25" stroke-width="3.2"/>
<circle clip-path="url(#clip922)" cx="512.268" cy="979.463" r="14.4" fill="#ff0000" fill-rule="evenodd" fill-opacity="0.25" stroke="#000000" stroke-opacity="0.25" stroke-width="3.2"/>
<circle clip-path="url(#clip922)" cx="1198.88" cy="804.287" r="14.4" fill="#ff0000" fill-rule="evenodd" fill-opacity="0.25" stroke="#000000" stroke-opacity="0.25" stroke-width="3.2"/>
<circle clip-path="url(#clip922)" cx="1932.15" cy="426.197" r="14.4" fill="#ff0000" fill-rule="evenodd" fill-opacity="0.25" stroke="#000000" stroke-opacity="0.25" stroke-width="3.2"/>
<circle clip-path="url(#clip922)" cx="1871.59" cy="331.312" r="14.4" fill="#ff0000" fill-rule="evenodd" fill-opacity="0.25" stroke="#000000" stroke-opacity="0.25" stroke-width="3.2"/>
<circle clip-path="url(#clip922)" cx="2162.73" cy="567.912" r="14.4" fill="#ff0000" fill-rule="evenodd" fill-opacity="0.25" stroke="#000000" stroke-opacity="0.25" stroke-width="3.2"/>
<polyline clip-path="url(#clip922)" style="stroke:#0000ff; stroke-linecap:round; stroke-linejoin:round; stroke-width:4; stroke-opacity:1; fill:none" points="2174.13,471.344 1691.56,647.387 2244.03,445.845 880.745,943.17 1978.64,542.66 988.669,903.8 656.282,1025.05 1776.63,616.353 1815.95,602.009 1190.47,830.184 955.023,916.074 1528.02,707.047 966.212,911.992 1497.33,718.241 486.938,1086.83 788.125,976.958 394.306,1120.62 696.871,1010.25 905.806,934.028 2051.48,516.086 720.905,1001.48 548.296,1064.45 1959.21,549.747 1043.5,883.799 2173.78,471.473 1518.59,710.484 1340.21,775.557 1535.84,704.193 1870.5,582.11 991.429,902.793 1869.66,582.415 402.613,1117.59 2061.89,512.29 1513.26,712.43 1916.36,565.379 1532.07,705.568 315.32,1149.44 2236.78,448.49 1647.28,663.538 462.78,1095.64 2185.42,467.227 1810.59,603.963 357.116,1134.19 2101.84,497.716 2292.44,428.186 1240.47,811.942 1105.58,861.151 1726.2,634.75 1218.01,820.138 555.737,1061.73 316.929,1148.85 1733.59,632.054 501.282,1081.6 1667.93,656.006 1169.28,837.914 689.287,1013.01 1243.21,810.943 1388.99,757.762 1247.79,809.275 1369.68,764.808 1214.33,821.479 1879.7,578.752 1861.87,585.257 1519.54,710.139 1454.15,733.994 582.535,1051.96 1108.17,860.207 351.982,1136.06 1298.89,790.633 2196.5,463.185 1772.05,618.024 1591.64,683.837 1102.92,862.121 1380.81,760.746 1730.46,633.194 1305.68,788.153 1070.3,874.021 809.741,969.073 1031.51,888.172 878.925,943.834 1337.74,776.461 1246.54,809.728 2242.4,446.44 2217.51,455.52 523.666,1073.43 1118.93,856.281 370.689,1129.24 1566.43,693.034 827.355,962.647 1321.48,782.39 353.465,1135.52 1026.92,889.846 648.489,1027.9 1422.34,745.596 1594.24,682.89 859.108,951.064 782.004,979.191 1717.66,637.867 1676.04,653.047 338.113,1141.12 1849.86,589.637 1256.62,806.053 1748.49,626.618 2097.35,499.354 1829.18,597.181 1044.26,883.522 812.594,968.032 1250.8,808.174 1218.76,819.862 2011.05,530.838 1578.59,688.597 2074.46,507.703 452.944,1099.23 2141.79,483.143 411.574,1114.32 1958.69,549.937 1332.03,778.541 1750.39,625.926 728.887,998.568 1036.4,886.387 491.295,1085.24 2063.1,511.85 1127.92,853 1239.27,812.382 351.925,1136.08 1055.14,879.55 1931.04,560.024 1140.61,848.373 2011.73,530.587 320.718,1147.47 1407.93,750.853 983.581,905.656 1960.95,549.112 726.615,999.397 1565.91,693.224 1783.55,613.829 2082.78,504.669 1893.29,573.795 1408.51,750.641 2246.9,444.799 862.671,949.764 1725.9,634.86 487.171,1086.75 1387.34,758.366 914.523,930.848 393.369,1120.96 867.704,947.928 2181.21,468.764 2134.07,485.959 1240.82,811.814 561.983,1059.45 1086.56,868.089 2247.25,444.673 682.736,1015.4 1966.9,546.942 2011.1,530.819 1453.53,734.219 1802.19,607.028 1099.49,863.374 1234,814.305 1704.22,642.77 1227.23,816.772 1953.73,551.748 1835.95,594.712 1868.42,582.869 1644.71,664.475 896.33,937.485 1215.58,821.024 428.398,1108.19 2293.41,427.831 745.148,992.636 650.631,1027.12 1971.64,545.213 965.865,912.119 1248.92,808.861 2225.98,452.429 327.715,1144.92 1171.3,837.176 2237.74,448.141 1053.62,880.107 538.238,1068.12 1147.2,845.968 2215.26,456.342 485.207,1087.46 868.355,947.69 1153.59,843.637 2224.6,452.933 2055.62,514.578 1500.18,717.202 831.004,961.316 1808.9,604.582 1201.07,826.317 1284.1,796.026 1046.32,882.769 1437.65,740.013 512.268,1077.59 1198.88,827.114 1932.15,559.62 1871.59,581.71 2162.73,475.503 "/>
<path clip-path="url(#clip920)" d="M325.87 322.316 L635.408 322.316 L635.408 166.796 L325.87 166.796  Z" fill="#ffffff" fill-rule="evenodd" fill-opacity="1"/>
<polyline clip-path="url(#clip920)" style="stroke:#000000; stroke-linecap:round; stroke-linejoin:round; stroke-width:4; stroke-opacity:1; fill:none" points="325.87,322.316 635.408,322.316 635.408,166.796 325.87,166.796 325.87,322.316 "/>
<circle clip-path="url(#clip920)" cx="419.06" cy="218.636" r="20.48" fill="#ff0000" fill-rule="evenodd" fill-opacity="0.25" stroke="#000000" stroke-opacity="0.25" stroke-width="4.55111"/>
<path clip-path="url(#clip920)" d="M531.162 213.925 L531.162 199.897 L535.421 199.897 L535.421 235.916 L531.162 235.916 L531.162 232.027 Q529.819 234.342 527.759 235.476 Q525.722 236.587 522.852 236.587 Q518.153 236.587 515.19 232.837 Q512.25 229.087 512.25 222.976 Q512.25 216.865 515.19 213.115 Q518.153 209.365 522.852 209.365 Q525.722 209.365 527.759 210.499 Q529.819 211.61 531.162 213.925 M516.648 222.976 Q516.648 227.675 518.57 230.36 Q520.514 233.022 523.894 233.022 Q527.273 233.022 529.218 230.36 Q531.162 227.675 531.162 222.976 Q531.162 218.277 529.218 215.615 Q527.273 212.93 523.894 212.93 Q520.514 212.93 518.57 215.615 Q516.648 218.277 516.648 222.976 Z" fill="#000000" fill-rule="nonzero" fill-opacity="1" /><path clip-path="url(#clip920)" d="M555.977 222.883 Q550.815 222.883 548.824 224.064 Q546.833 225.244 546.833 228.092 Q546.833 230.36 548.315 231.703 Q549.819 233.022 552.389 233.022 Q555.93 233.022 558.06 230.522 Q560.213 227.999 560.213 223.832 L560.213 222.883 L555.977 222.883 M564.472 221.124 L564.472 235.916 L560.213 235.916 L560.213 231.981 Q558.755 234.342 556.579 235.476 Q554.403 236.587 551.255 236.587 Q547.273 236.587 544.912 234.365 Q542.574 232.119 542.574 228.369 Q542.574 223.994 545.491 221.772 Q548.431 219.55 554.241 219.55 L560.213 219.55 L560.213 219.133 Q560.213 216.194 558.268 214.596 Q556.347 212.976 552.852 212.976 Q550.63 212.976 548.523 213.508 Q546.417 214.041 544.472 215.106 L544.472 211.17 Q546.81 210.268 549.009 209.828 Q551.208 209.365 553.292 209.365 Q558.917 209.365 561.694 212.282 Q564.472 215.198 564.472 221.124 Z" fill="#000000" fill-rule="nonzero" fill-opacity="1" /><path clip-path="url(#clip920)" d="M577.458 202.629 L577.458 209.99 L586.231 209.99 L586.231 213.3 L577.458 213.3 L577.458 227.374 Q577.458 230.545 578.315 231.448 Q579.194 232.351 581.856 232.351 L586.231 232.351 L586.231 235.916 L581.856 235.916 Q576.926 235.916 575.051 234.087 Q573.176 232.235 573.176 227.374 L573.176 213.3 L570.051 213.3 L570.051 209.99 L573.176 209.99 L573.176 202.629 L577.458 202.629 Z" fill="#000000" fill-rule="nonzero" fill-opacity="1" /><path clip-path="url(#clip920)" d="M603.615 222.883 Q598.453 222.883 596.463 224.064 Q594.472 225.244 594.472 228.092 Q594.472 230.36 595.953 231.703 Q597.458 233.022 600.027 233.022 Q603.569 233.022 605.699 230.522 Q607.851 227.999 607.851 223.832 L607.851 222.883 L603.615 222.883 M612.111 221.124 L612.111 235.916 L607.851 235.916 L607.851 231.981 Q606.393 234.342 604.217 235.476 Q602.041 236.587 598.893 236.587 Q594.912 236.587 592.551 234.365 Q590.213 232.119 590.213 228.369 Q590.213 223.994 593.129 221.772 Q596.069 219.55 601.879 219.55 L607.851 219.55 L607.851 219.133 Q607.851 216.194 605.907 214.596 Q603.986 212.976 600.49 212.976 Q598.268 212.976 596.162 213.508 Q594.055 214.041 592.111 215.106 L592.111 211.17 Q594.449 210.268 596.648 209.828 Q598.847 209.365 600.93 209.365 Q606.555 209.365 609.333 212.282 Q612.111 215.198 612.111 221.124 Z" fill="#000000" fill-rule="nonzero" fill-opacity="1" /><polyline clip-path="url(#clip920)" style="stroke:#0000ff; stroke-linecap:round; stroke-linejoin:round; stroke-width:4; stroke-opacity:1; fill:none" points="349.167,270.476 488.953,270.476 "/>
<path clip-path="url(#clip920)" d="M528.755 251.737 L528.755 255.279 L524.681 255.279 Q522.389 255.279 521.486 256.205 Q520.607 257.131 520.607 259.538 L520.607 261.83 L527.62 261.83 L527.62 265.14 L520.607 265.14 L520.607 287.756 L516.324 287.756 L516.324 265.14 L512.25 265.14 L512.25 261.83 L516.324 261.83 L516.324 260.024 Q516.324 255.696 518.338 253.728 Q520.352 251.737 524.727 251.737 L528.755 251.737 Z" fill="#000000" fill-rule="nonzero" fill-opacity="1" /><path clip-path="url(#clip920)" d="M532.319 261.83 L536.579 261.83 L536.579 287.756 L532.319 287.756 L532.319 261.83 M532.319 251.737 L536.579 251.737 L536.579 257.131 L532.319 257.131 L532.319 251.737 Z" fill="#000000" fill-rule="nonzero" fill-opacity="1" /><path clip-path="url(#clip920)" d="M549.704 254.469 L549.704 261.83 L558.477 261.83 L558.477 265.14 L549.704 265.14 L549.704 279.214 Q549.704 282.385 550.56 283.288 Q551.44 284.191 554.102 284.191 L558.477 284.191 L558.477 287.756 L554.102 287.756 Q549.171 287.756 547.296 285.927 Q545.421 284.075 545.421 279.214 L545.421 265.14 L542.296 265.14 L542.296 261.83 L545.421 261.83 L545.421 254.469 L549.704 254.469 Z" fill="#000000" fill-rule="nonzero" fill-opacity="1" /></svg>
