<?xml version="1.0" encoding="utf-8"?>
<svg xmlns="http://www.w3.org/2000/svg" xmlns:xlink="http://www.w3.org/1999/xlink" width="600" height="400" viewBox="0 0 2400 1600">
<defs>
  <clipPath id="clip070">
    <rect x="0" y="0" width="2400" height="1600"/>
  </clipPath>
</defs>
<path clip-path="url(#clip070)" d="M0 1600 L2400 1600 L2400 0 L0 0  Z" fill="#ffffff" fill-rule="evenodd" fill-opacity="1"/>
<defs>
  <clipPath id="clip071">
    <rect x="480" y="0" width="1681" height="1600"/>
  </clipPath>
</defs>
<path clip-path="url(#clip070)" d="M249.542 1423.18 L2352.76 1423.18 L2352.76 123.472 L249.542 123.472  Z" fill="#ffffff" fill-rule="evenodd" fill-opacity="1"/>
<defs>
  <clipPath id="clip072">
    <rect x="249" y="123" width="2104" height="1301"/>
  </clipPath>
</defs>
<polyline clip-path="url(#clip072)" style="stroke:#000000; stroke-linecap:round; stroke-linejoin:round; stroke-width:2; stroke-opacity:0.1; fill:none" points="309.067,1423.18 309.067,123.472 "/>
<polyline clip-path="url(#clip072)" style="stroke:#000000; stroke-linecap:round; stroke-linejoin:round; stroke-width:2; stroke-opacity:0.1; fill:none" points="805.108,1423.18 805.108,123.472 "/>
<polyline clip-path="url(#clip072)" style="stroke:#000000; stroke-linecap:round; stroke-linejoin:round; stroke-width:2; stroke-opacity:0.1; fill:none" points="1301.15,1423.18 1301.15,123.472 "/>
<polyline clip-path="url(#clip072)" style="stroke:#000000; stroke-linecap:round; stroke-linejoin:round; stroke-width:2; stroke-opacity:0.1; fill:none" points="1797.19,1423.18 1797.19,123.472 "/>
<polyline clip-path="url(#clip072)" style="stroke:#000000; stroke-linecap:round; stroke-linejoin:round; stroke-width:2; stroke-opacity:0.1; fill:none" points="2293.23,1423.18 2293.23,123.472 "/>
<polyline clip-path="url(#clip070)" style="stroke:#000000; stroke-linecap:round; stroke-linejoin:round; stroke-width:4; stroke-opacity:1; fill:none" points="249.542,1423.18 2352.76,1423.18 "/>
<polyline clip-path="url(#clip070)" style="stroke:#000000; stroke-linecap:round; stroke-linejoin:round; stroke-width:4; stroke-opacity:1; fill:none" points="309.067,1423.18 309.067,1404.28 "/>
<polyline clip-path="url(#clip070)" style="stroke:#000000; stroke-linecap:round; stroke-linejoin:round; stroke-width:4; stroke-opacity:1; fill:none" points="805.108,1423.18 805.108,1404.28 "/>
<polyline clip-path="url(#clip070)" style="stroke:#000000; stroke-linecap:round; stroke-linejoin:round; stroke-width:4; stroke-opacity:1; fill:none" points="1301.15,1423.18 1301.15,1404.28 "/>
<polyline clip-path="url(#clip070)" style="stroke:#000000; stroke-linecap:round; stroke-linejoin:round; stroke-width:4; stroke-opacity:1; fill:none" points="1797.19,1423.18 1797.19,1404.28 "/>
<polyline clip-path="url(#clip070)" style="stroke:#000000; stroke-linecap:round; stroke-linejoin:round; stroke-width:4; stroke-opacity:1; fill:none" points="2293.23,1423.18 2293.23,1404.28 "/>
<path clip-path="url(#clip070)" d="M286.451 1454.1 Q282.84 1454.1 281.012 1457.66 Q279.206 1461.2 279.206 1468.33 Q279.206 1475.44 281.012 1479.01 Q282.84 1482.55 286.451 1482.55 Q290.086 1482.55 291.891 1479.01 Q293.72 1475.44 293.72 1468.33 Q293.72 1461.2 291.891 1457.66 Q290.086 1454.1 286.451 1454.1 M286.451 1450.39 Q292.261 1450.39 295.317 1455 Q298.396 1459.58 298.396 1468.33 Q298.396 1477.06 295.317 1481.67 Q292.261 1486.25 286.451 1486.25 Q280.641 1486.25 277.562 1481.67 Q274.507 1477.06 274.507 1468.33 Q274.507 1459.58 277.562 1455 Q280.641 1450.39 286.451 1450.39 Z" fill="#000000" fill-rule="nonzero" fill-opacity="1" /><path clip-path="url(#clip070)" d="M306.613 1479.7 L311.497 1479.7 L311.497 1485.58 L306.613 1485.58 L306.613 1479.7 Z" fill="#000000" fill-rule="nonzero" fill-opacity="1" /><path clip-path="url(#clip070)" d="M331.683 1454.1 Q328.071 1454.1 326.243 1457.66 Q324.437 1461.2 324.437 1468.33 Q324.437 1475.44 326.243 1479.01 Q328.071 1482.55 331.683 1482.55 Q335.317 1482.55 337.122 1479.01 Q338.951 1475.44 338.951 1468.33 Q338.951 1461.2 337.122 1457.66 Q335.317 1454.1 331.683 1454.1 M331.683 1450.39 Q337.493 1450.39 340.548 1455 Q343.627 1459.58 343.627 1468.33 Q343.627 1477.06 340.548 1481.67 Q337.493 1486.25 331.683 1486.25 Q325.872 1486.25 322.794 1481.67 Q319.738 1477.06 319.738 1468.33 Q319.738 1459.58 322.794 1455 Q325.872 1450.39 331.683 1450.39 Z" fill="#000000" fill-rule="nonzero" fill-opacity="1" /><path clip-path="url(#clip070)" d="M782.99 1454.1 Q779.379 1454.1 777.55 1457.66 Q775.745 1461.2 775.745 1468.33 Q775.745 1475.44 777.55 1479.01 Q779.379 1482.55 782.99 1482.55 Q786.624 1482.55 788.43 1479.01 Q790.259 1475.44 790.259 1468.33 Q790.259 1461.2 788.43 1457.66 Q786.624 1454.1 782.99 1454.1 M782.99 1450.39 Q788.8 1450.39 791.856 1455 Q794.934 1459.58 794.934 1468.33 Q794.934 1477.06 791.856 1481.67 Q788.8 1486.25 782.99 1486.25 Q777.18 1486.25 774.101 1481.67 Q771.046 1477.06 771.046 1468.33 Q771.046 1459.58 774.101 1455 Q777.18 1450.39 782.99 1450.39 Z" fill="#000000" fill-rule="nonzero" fill-opacity="1" /><path clip-path="url(#clip070)" d="M803.152 1479.7 L808.036 1479.7 L808.036 1485.58 L803.152 1485.58 L803.152 1479.7 Z" fill="#000000" fill-rule="nonzero" fill-opacity="1" /><path clip-path="url(#clip070)" d="M818.268 1451.02 L836.624 1451.02 L836.624 1454.96 L822.55 1454.96 L822.55 1463.43 Q823.569 1463.08 824.587 1462.92 Q825.606 1462.73 826.624 1462.73 Q832.411 1462.73 835.791 1465.9 Q839.17 1469.08 839.17 1474.49 Q839.17 1480.07 835.698 1483.17 Q832.226 1486.25 825.906 1486.25 Q823.731 1486.25 821.462 1485.88 Q819.217 1485.51 816.809 1484.77 L816.809 1480.07 Q818.893 1481.2 821.115 1481.76 Q823.337 1482.32 825.814 1482.32 Q829.818 1482.32 832.156 1480.21 Q834.494 1478.1 834.494 1474.49 Q834.494 1470.88 832.156 1468.77 Q829.818 1466.67 825.814 1466.67 Q823.939 1466.67 822.064 1467.08 Q820.212 1467.5 818.268 1468.38 L818.268 1451.02 Z" fill="#000000" fill-rule="nonzero" fill-opacity="1" /><path clip-path="url(#clip070)" d="M1268.3 1481.64 L1275.94 1481.64 L1275.94 1455.28 L1267.63 1456.95 L1267.63 1452.69 L1275.89 1451.02 L1280.57 1451.02 L1280.57 1481.64 L1288.21 1481.64 L1288.21 1485.58 L1268.3 1485.58 L1268.3 1481.64 Z" fill="#000000" fill-rule="nonzero" fill-opacity="1" /><path clip-path="url(#clip070)" d="M1297.65 1479.7 L1302.54 1479.7 L1302.54 1485.58 L1297.65 1485.58 L1297.65 1479.7 Z" fill="#000000" fill-rule="nonzero" fill-opacity="1" /><path clip-path="url(#clip070)" d="M1322.72 1454.1 Q1319.11 1454.1 1317.28 1457.66 Q1315.48 1461.2 1315.48 1468.33 Q1315.48 1475.44 1317.28 1479.01 Q1319.11 1482.55 1322.72 1482.55 Q1326.36 1482.55 1328.16 1479.01 Q1329.99 1475.44 1329.99 1468.33 Q1329.99 1461.2 1328.16 1457.66 Q1326.36 1454.1 1322.72 1454.1 M1322.72 1450.39 Q1328.53 1450.39 1331.59 1455 Q1334.67 1459.58 1334.67 1468.33 Q1334.67 1477.06 1331.59 1481.67 Q1328.53 1486.25 1322.72 1486.25 Q1316.91 1486.25 1313.83 1481.67 Q1310.78 1477.06 1310.78 1468.33 Q1310.78 1459.58 1313.83 1455 Q1316.91 1450.39 1322.72 1450.39 Z" fill="#000000" fill-rule="nonzero" fill-opacity="1" /><path clip-path="url(#clip070)" d="M1764.84 1481.64 L1772.48 1481.64 L1772.48 1455.28 L1764.17 1456.95 L1764.17 1452.69 L1772.43 1451.02 L1777.11 1451.02 L1777.11 1481.64 L1784.75 1481.64 L1784.75 1485.58 L1764.84 1485.58 L1764.84 1481.64 Z" fill="#000000" fill-rule="nonzero" fill-opacity="1" /><path clip-path="url(#clip070)" d="M1794.19 1479.7 L1799.08 1479.7 L1799.08 1485.58 L1794.19 1485.58 L1794.19 1479.7 Z" fill="#000000" fill-rule="nonzero" fill-opacity="1" /><path clip-path="url(#clip070)" d="M1809.31 1451.02 L1827.66 1451.02 L1827.66 1454.96 L1813.59 1454.96 L1813.59 1463.43 Q1814.61 1463.08 1815.63 1462.92 Q1816.65 1462.73 1817.66 1462.73 Q1823.45 1462.73 1826.83 1465.9 Q1830.21 1469.08 1830.21 1474.49 Q1830.21 1480.07 1826.74 1483.17 Q1823.27 1486.25 1816.95 1486.25 Q1814.77 1486.25 1812.5 1485.88 Q1810.26 1485.51 1807.85 1484.77 L1807.85 1480.07 Q1809.93 1481.2 1812.16 1481.76 Q1814.38 1482.32 1816.85 1482.32 Q1820.86 1482.32 1823.2 1480.21 Q1825.53 1478.1 1825.53 1474.49 Q1825.53 1470.88 1823.2 1468.77 Q1820.86 1466.67 1816.85 1466.67 Q1814.98 1466.67 1813.1 1467.08 Q1811.25 1467.5 1809.31 1468.38 L1809.31 1451.02 Z" fill="#000000" fill-rule="nonzero" fill-opacity="1" /><path clip-path="url(#clip070)" d="M2264.47 1481.64 L2280.79 1481.64 L2280.79 1485.58 L2258.84 1485.58 L2258.84 1481.64 Q2261.51 1478.89 2266.09 1474.26 Q2270.7 1469.61 2271.88 1468.27 Q2274.12 1465.74 2275 1464.01 Q2275.9 1462.25 2275.9 1460.56 Q2275.9 1457.8 2273.96 1456.07 Q2272.04 1454.33 2268.94 1454.33 Q2266.74 1454.33 2264.28 1455.09 Q2261.85 1455.86 2259.08 1457.41 L2259.08 1452.69 Q2261.9 1451.55 2264.35 1450.97 Q2266.81 1450.39 2268.84 1450.39 Q2274.21 1450.39 2277.41 1453.08 Q2280.6 1455.77 2280.6 1460.26 Q2280.6 1462.39 2279.79 1464.31 Q2279.01 1466.2 2276.9 1468.8 Q2276.32 1469.47 2273.22 1472.69 Q2270.12 1475.88 2264.47 1481.64 Z" fill="#000000" fill-rule="nonzero" fill-opacity="1" /><path clip-path="url(#clip070)" d="M2290.6 1479.7 L2295.49 1479.7 L2295.49 1485.58 L2290.6 1485.58 L2290.6 1479.7 Z" fill="#000000" fill-rule="nonzero" fill-opacity="1" /><path clip-path="url(#clip070)" d="M2315.67 1454.1 Q2312.06 1454.1 2310.23 1457.66 Q2308.43 1461.2 2308.43 1468.33 Q2308.43 1475.44 2310.23 1479.01 Q2312.06 1482.55 2315.67 1482.55 Q2319.31 1482.55 2321.11 1479.01 Q2322.94 1475.44 2322.94 1468.33 Q2322.94 1461.2 2321.11 1457.66 Q2319.31 1454.1 2315.67 1454.1 M2315.67 1450.39 Q2321.48 1450.39 2324.54 1455 Q2327.62 1459.58 2327.62 1468.33 Q2327.62 1477.06 2324.54 1481.67 Q2321.48 1486.25 2315.67 1486.25 Q2309.86 1486.25 2306.78 1481.67 Q2303.73 1477.06 2303.73 1468.33 Q2303.73 1459.58 2306.78 1455 Q2309.86 1450.39 2315.67 1450.39 Z" fill="#000000" fill-rule="nonzero" fill-opacity="1" /><path clip-path="url(#clip070)" d="M1317.76 1532.4 L1304.87 1549.74 L1318.43 1568.04 L1311.53 1568.04 L1301.15 1554.04 L1290.77 1568.04 L1283.87 1568.04 L1297.71 1549.39 L1285.04 1532.4 L1291.95 1532.4 L1301.4 1545.1 L1310.86 1532.4 L1317.76 1532.4 Z" fill="#000000" fill-rule="nonzero" fill-opacity="1" /><polyline clip-path="url(#clip072)" style="stroke:#000000; stroke-linecap:round; stroke-linejoin:round; stroke-width:2; stroke-opacity:0.1; fill:none" points="249.542,1408.26 2352.76,1408.26 "/>
<polyline clip-path="url(#clip072)" style="stroke:#000000; stroke-linecap:round; stroke-linejoin:round; stroke-width:2; stroke-opacity:0.1; fill:none" points="249.542,1180.91 2352.76,1180.91 "/>
<polyline clip-path="url(#clip072)" style="stroke:#000000; stroke-linecap:round; stroke-linejoin:round; stroke-width:2; stroke-opacity:0.1; fill:none" points="249.542,953.562 2352.76,953.562 "/>
<polyline clip-path="url(#clip072)" style="stroke:#000000; stroke-linecap:round; stroke-linejoin:round; stroke-width:2; stroke-opacity:0.1; fill:none" points="249.542,726.211 2352.76,726.211 "/>
<polyline clip-path="url(#clip072)" style="stroke:#000000; stroke-linecap:round; stroke-linejoin:round; stroke-width:2; stroke-opacity:0.1; fill:none" points="249.542,498.861 2352.76,498.861 "/>
<polyline clip-path="url(#clip072)" style="stroke:#000000; stroke-linecap:round; stroke-linejoin:round; stroke-width:2; stroke-opacity:0.1; fill:none" points="249.542,271.51 2352.76,271.51 "/>
<polyline clip-path="url(#clip070)" style="stroke:#000000; stroke-linecap:round; stroke-linejoin:round; stroke-width:4; stroke-opacity:1; fill:none" points="249.542,1423.18 249.542,123.472 "/>
<polyline clip-path="url(#clip070)" style="stroke:#000000; stroke-linecap:round; stroke-linejoin:round; stroke-width:4; stroke-opacity:1; fill:none" points="249.542,1408.26 268.44,1408.26 "/>
<polyline clip-path="url(#clip070)" style="stroke:#000000; stroke-linecap:round; stroke-linejoin:round; stroke-width:4; stroke-opacity:1; fill:none" points="249.542,1180.91 268.44,1180.91 "/>
<polyline clip-path="url(#clip070)" style="stroke:#000000; stroke-linecap:round; stroke-linejoin:round; stroke-width:4; stroke-opacity:1; fill:none" points="249.542,953.562 268.44,953.562 "/>
<polyline clip-path="url(#clip070)" style="stroke:#000000; stroke-linecap:round; stroke-linejoin:round; stroke-width:4; stroke-opacity:1; fill:none" points="249.542,726.211 268.44,726.211 "/>
<polyline clip-path="url(#clip070)" style="stroke:#000000; stroke-linecap:round; stroke-linejoin:round; stroke-width:4; stroke-opacity:1; fill:none" points="249.542,498.861 268.44,498.861 "/>
<polyline clip-path="url(#clip070)" style="stroke:#000000; stroke-linecap:round; stroke-linejoin:round; stroke-width:4; stroke-opacity:1; fill:none" points="249.542,271.51 268.44,271.51 "/>
<path clip-path="url(#clip070)" d="M126.205 1394.06 Q122.593 1394.06 120.765 1397.63 Q118.959 1401.17 118.959 1408.3 Q118.959 1415.4 120.765 1418.97 Q122.593 1422.51 126.205 1422.51 Q129.839 1422.51 131.644 1418.97 Q133.473 1415.4 133.473 1408.3 Q133.473 1401.17 131.644 1397.63 Q129.839 1394.06 126.205 1394.06 M126.205 1390.36 Q132.015 1390.36 135.07 1394.96 Q138.149 1399.55 138.149 1408.3 Q138.149 1417.02 135.07 1421.63 Q132.015 1426.21 126.205 1426.21 Q120.394 1426.21 117.316 1421.63 Q114.26 1417.02 114.26 1408.3 Q114.26 1399.55 117.316 1394.96 Q120.394 1390.36 126.205 1390.36 Z" fill="#000000" fill-rule="nonzero" fill-opacity="1" /><path clip-path="url(#clip070)" d="M146.366 1419.66 L151.251 1419.66 L151.251 1425.54 L146.366 1425.54 L146.366 1419.66 Z" fill="#000000" fill-rule="nonzero" fill-opacity="1" /><path clip-path="url(#clip070)" d="M171.436 1394.06 Q167.825 1394.06 165.996 1397.63 Q164.19 1401.17 164.19 1408.3 Q164.19 1415.4 165.996 1418.97 Q167.825 1422.51 171.436 1422.51 Q175.07 1422.51 176.876 1418.97 Q178.704 1415.4 178.704 1408.3 Q178.704 1401.17 176.876 1397.63 Q175.07 1394.06 171.436 1394.06 M171.436 1390.36 Q177.246 1390.36 180.301 1394.96 Q183.38 1399.55 183.38 1408.3 Q183.38 1417.02 180.301 1421.63 Q177.246 1426.21 171.436 1426.21 Q165.626 1426.21 162.547 1421.63 Q159.491 1417.02 159.491 1408.3 Q159.491 1399.55 162.547 1394.96 Q165.626 1390.36 171.436 1390.36 Z" fill="#000000" fill-rule="nonzero" fill-opacity="1" /><path clip-path="url(#clip070)" d="M201.598 1394.06 Q197.987 1394.06 196.158 1397.63 Q194.352 1401.17 194.352 1408.3 Q194.352 1415.4 196.158 1418.97 Q197.987 1422.51 201.598 1422.51 Q205.232 1422.51 207.037 1418.97 Q208.866 1415.4 208.866 1408.3 Q208.866 1401.17 207.037 1397.63 Q205.232 1394.06 201.598 1394.06 M201.598 1390.36 Q207.408 1390.36 210.463 1394.96 Q213.542 1399.55 213.542 1408.3 Q213.542 1417.02 210.463 1421.63 Q207.408 1426.21 201.598 1426.21 Q195.787 1426.21 192.709 1421.63 Q189.653 1417.02 189.653 1408.3 Q189.653 1399.55 192.709 1394.96 Q195.787 1390.36 201.598 1390.36 Z" fill="#000000" fill-rule="nonzero" fill-opacity="1" /><path clip-path="url(#clip070)" d="M127.2 1166.71 Q123.589 1166.71 121.76 1170.28 Q119.955 1173.82 119.955 1180.95 Q119.955 1188.05 121.76 1191.62 Q123.589 1195.16 127.2 1195.16 Q130.834 1195.16 132.64 1191.62 Q134.468 1188.05 134.468 1180.95 Q134.468 1173.82 132.64 1170.28 Q130.834 1166.71 127.2 1166.71 M127.2 1163.01 Q133.01 1163.01 136.066 1167.61 Q139.144 1172.2 139.144 1180.95 Q139.144 1189.67 136.066 1194.28 Q133.01 1198.86 127.2 1198.86 Q121.39 1198.86 118.311 1194.28 Q115.256 1189.67 115.256 1180.95 Q115.256 1172.2 118.311 1167.61 Q121.39 1163.01 127.2 1163.01 Z" fill="#000000" fill-rule="nonzero" fill-opacity="1" /><path clip-path="url(#clip070)" d="M147.362 1192.31 L152.246 1192.31 L152.246 1198.19 L147.362 1198.19 L147.362 1192.31 Z" fill="#000000" fill-rule="nonzero" fill-opacity="1" /><path clip-path="url(#clip070)" d="M166.459 1194.26 L182.778 1194.26 L182.778 1198.19 L160.834 1198.19 L160.834 1194.26 Q163.496 1191.5 168.079 1186.87 Q172.686 1182.22 173.866 1180.88 Q176.112 1178.35 176.991 1176.62 Q177.894 1174.86 177.894 1173.17 Q177.894 1170.41 175.95 1168.68 Q174.028 1166.94 170.927 1166.94 Q168.727 1166.94 166.274 1167.71 Q163.843 1168.47 161.065 1170.02 L161.065 1165.3 Q163.89 1164.16 166.343 1163.59 Q168.797 1163.01 170.834 1163.01 Q176.204 1163.01 179.399 1165.69 Q182.593 1168.38 182.593 1172.87 Q182.593 1175 181.783 1176.92 Q180.996 1178.82 178.889 1181.41 Q178.311 1182.08 175.209 1185.3 Q172.107 1188.49 166.459 1194.26 Z" fill="#000000" fill-rule="nonzero" fill-opacity="1" /><path clip-path="url(#clip070)" d="M192.639 1163.63 L210.996 1163.63 L210.996 1167.57 L196.922 1167.57 L196.922 1176.04 Q197.94 1175.69 198.959 1175.53 Q199.977 1175.35 200.996 1175.35 Q206.783 1175.35 210.162 1178.52 Q213.542 1181.69 213.542 1187.1 Q213.542 1192.68 210.07 1195.79 Q206.598 1198.86 200.278 1198.86 Q198.102 1198.86 195.834 1198.49 Q193.588 1198.12 191.181 1197.38 L191.181 1192.68 Q193.264 1193.82 195.487 1194.37 Q197.709 1194.93 200.186 1194.93 Q204.19 1194.93 206.528 1192.82 Q208.866 1190.72 208.866 1187.1 Q208.866 1183.49 206.528 1181.39 Q204.19 1179.28 200.186 1179.28 Q198.311 1179.28 196.436 1179.7 Q194.584 1180.11 192.639 1180.99 L192.639 1163.63 Z" fill="#000000" fill-rule="nonzero" fill-opacity="1" /><path clip-path="url(#clip070)" d="M126.205 939.361 Q122.593 939.361 120.765 942.925 Q118.959 946.467 118.959 953.597 Q118.959 960.703 120.765 964.268 Q122.593 967.809 126.205 967.809 Q129.839 967.809 131.644 964.268 Q133.473 960.703 133.473 953.597 Q133.473 946.467 131.644 942.925 Q129.839 939.361 126.205 939.361 M126.205 935.657 Q132.015 935.657 135.07 940.263 Q138.149 944.847 138.149 953.597 Q138.149 962.323 135.07 966.93 Q132.015 971.513 126.205 971.513 Q120.394 971.513 117.316 966.93 Q114.26 962.323 114.26 953.597 Q114.26 944.847 117.316 940.263 Q120.394 935.657 126.205 935.657 Z" fill="#000000" fill-rule="nonzero" fill-opacity="1" /><path clip-path="url(#clip070)" d="M146.366 964.962 L151.251 964.962 L151.251 970.842 L146.366 970.842 L146.366 964.962 Z" fill="#000000" fill-rule="nonzero" fill-opacity="1" /><path clip-path="url(#clip070)" d="M161.482 936.282 L179.839 936.282 L179.839 940.217 L165.765 940.217 L165.765 948.689 Q166.783 948.342 167.802 948.18 Q168.82 947.995 169.839 947.995 Q175.626 947.995 179.005 951.166 Q182.385 954.337 182.385 959.754 Q182.385 965.333 178.913 968.434 Q175.44 971.513 169.121 971.513 Q166.945 971.513 164.677 971.143 Q162.431 970.772 160.024 970.032 L160.024 965.333 Q162.107 966.467 164.329 967.022 Q166.552 967.578 169.028 967.578 Q173.033 967.578 175.371 965.472 Q177.709 963.365 177.709 959.754 Q177.709 956.143 175.371 954.036 Q173.033 951.93 169.028 951.93 Q167.153 951.93 165.278 952.347 Q163.427 952.763 161.482 953.643 L161.482 936.282 Z" fill="#000000" fill-rule="nonzero" fill-opacity="1" /><path clip-path="url(#clip070)" d="M201.598 939.361 Q197.987 939.361 196.158 942.925 Q194.352 946.467 194.352 953.597 Q194.352 960.703 196.158 964.268 Q197.987 967.809 201.598 967.809 Q205.232 967.809 207.037 964.268 Q208.866 960.703 208.866 953.597 Q208.866 946.467 207.037 942.925 Q205.232 939.361 201.598 939.361 M201.598 935.657 Q207.408 935.657 210.463 940.263 Q213.542 944.847 213.542 953.597 Q213.542 962.323 210.463 966.93 Q207.408 971.513 201.598 971.513 Q195.787 971.513 192.709 966.93 Q189.653 962.323 189.653 953.597 Q189.653 944.847 192.709 940.263 Q195.787 935.657 201.598 935.657 Z" fill="#000000" fill-rule="nonzero" fill-opacity="1" /><path clip-path="url(#clip070)" d="M127.2 712.01 Q123.589 712.01 121.76 715.575 Q119.955 719.116 119.955 726.246 Q119.955 733.352 121.76 736.917 Q123.589 740.459 127.2 740.459 Q130.834 740.459 132.64 736.917 Q134.468 733.352 134.468 726.246 Q134.468 719.116 132.64 715.575 Q130.834 712.01 127.2 712.01 M127.2 708.306 Q133.01 708.306 136.066 712.913 Q139.144 717.496 139.144 726.246 Q139.144 734.973 136.066 739.579 Q133.01 744.163 127.2 744.163 Q121.39 744.163 118.311 739.579 Q115.256 734.973 115.256 726.246 Q115.256 717.496 118.311 712.913 Q121.39 708.306 127.2 708.306 Z" fill="#000000" fill-rule="nonzero" fill-opacity="1" /><path clip-path="url(#clip070)" d="M147.362 737.612 L152.246 737.612 L152.246 743.491 L147.362 743.491 L147.362 737.612 Z" fill="#000000" fill-rule="nonzero" fill-opacity="1" /><path clip-path="url(#clip070)" d="M161.251 708.931 L183.473 708.931 L183.473 710.922 L170.927 743.491 L166.042 743.491 L177.848 712.866 L161.251 712.866 L161.251 708.931 Z" fill="#000000" fill-rule="nonzero" fill-opacity="1" /><path clip-path="url(#clip070)" d="M192.639 708.931 L210.996 708.931 L210.996 712.866 L196.922 712.866 L196.922 721.339 Q197.94 720.991 198.959 720.829 Q199.977 720.644 200.996 720.644 Q206.783 720.644 210.162 723.815 Q213.542 726.987 213.542 732.403 Q213.542 737.982 210.07 741.084 Q206.598 744.163 200.278 744.163 Q198.102 744.163 195.834 743.792 Q193.588 743.422 191.181 742.681 L191.181 737.982 Q193.264 739.116 195.487 739.672 Q197.709 740.227 200.186 740.227 Q204.19 740.227 206.528 738.121 Q208.866 736.014 208.866 732.403 Q208.866 728.792 206.528 726.686 Q204.19 724.579 200.186 724.579 Q198.311 724.579 196.436 724.996 Q194.584 725.413 192.639 726.292 L192.639 708.931 Z" fill="#000000" fill-rule="nonzero" fill-opacity="1" /><path clip-path="url(#clip070)" d="M117.015 512.205 L124.654 512.205 L124.654 485.84 L116.343 487.506 L116.343 483.247 L124.607 481.581 L129.283 481.581 L129.283 512.205 L136.922 512.205 L136.922 516.141 L117.015 516.141 L117.015 512.205 Z" fill="#000000" fill-rule="nonzero" fill-opacity="1" /><path clip-path="url(#clip070)" d="M146.366 510.261 L151.251 510.261 L151.251 516.141 L146.366 516.141 L146.366 510.261 Z" fill="#000000" fill-rule="nonzero" fill-opacity="1" /><path clip-path="url(#clip070)" d="M171.436 484.659 Q167.825 484.659 165.996 488.224 Q164.19 491.766 164.19 498.895 Q164.19 506.002 165.996 509.567 Q167.825 513.108 171.436 513.108 Q175.07 513.108 176.876 509.567 Q178.704 506.002 178.704 498.895 Q178.704 491.766 176.876 488.224 Q175.07 484.659 171.436 484.659 M171.436 480.956 Q177.246 480.956 180.301 485.562 Q183.38 490.145 183.38 498.895 Q183.38 507.622 180.301 512.229 Q177.246 516.812 171.436 516.812 Q165.626 516.812 162.547 512.229 Q159.491 507.622 159.491 498.895 Q159.491 490.145 162.547 485.562 Q165.626 480.956 171.436 480.956 Z" fill="#000000" fill-rule="nonzero" fill-opacity="1" /><path clip-path="url(#clip070)" d="M201.598 484.659 Q197.987 484.659 196.158 488.224 Q194.352 491.766 194.352 498.895 Q194.352 506.002 196.158 509.567 Q197.987 513.108 201.598 513.108 Q205.232 513.108 207.037 509.567 Q208.866 506.002 208.866 498.895 Q208.866 491.766 207.037 488.224 Q205.232 484.659 201.598 484.659 M201.598 480.956 Q207.408 480.956 210.463 485.562 Q213.542 490.145 213.542 498.895 Q213.542 507.622 210.463 512.229 Q207.408 516.812 201.598 516.812 Q195.787 516.812 192.709 512.229 Q189.653 507.622 189.653 498.895 Q189.653 490.145 192.709 485.562 Q195.787 480.956 201.598 480.956 Z" fill="#000000" fill-rule="nonzero" fill-opacity="1" /><path clip-path="url(#clip070)" d="M118.01 284.855 L125.649 284.855 L125.649 258.489 L117.339 260.156 L117.339 255.897 L125.603 254.23 L130.279 254.23 L130.279 284.855 L137.917 284.855 L137.917 288.79 L118.01 288.79 L118.01 284.855 Z" fill="#000000" fill-rule="nonzero" fill-opacity="1" /><path clip-path="url(#clip070)" d="M147.362 282.91 L152.246 282.91 L152.246 288.79 L147.362 288.79 L147.362 282.91 Z" fill="#000000" fill-rule="nonzero" fill-opacity="1" /><path clip-path="url(#clip070)" d="M166.459 284.855 L182.778 284.855 L182.778 288.79 L160.834 288.79 L160.834 284.855 Q163.496 282.1 168.079 277.471 Q172.686 272.818 173.866 271.475 Q176.112 268.952 176.991 267.216 Q177.894 265.457 177.894 263.767 Q177.894 261.012 175.95 259.276 Q174.028 257.54 170.927 257.54 Q168.727 257.54 166.274 258.304 Q163.843 259.068 161.065 260.619 L161.065 255.897 Q163.89 254.762 166.343 254.184 Q168.797 253.605 170.834 253.605 Q176.204 253.605 179.399 256.29 Q182.593 258.975 182.593 263.466 Q182.593 265.596 181.783 267.517 Q180.996 269.415 178.889 272.008 Q178.311 272.679 175.209 275.896 Q172.107 279.091 166.459 284.855 Z" fill="#000000" fill-rule="nonzero" fill-opacity="1" /><path clip-path="url(#clip070)" d="M192.639 254.23 L210.996 254.23 L210.996 258.165 L196.922 258.165 L196.922 266.637 Q197.94 266.29 198.959 266.128 Q199.977 265.943 200.996 265.943 Q206.783 265.943 210.162 269.114 Q213.542 272.285 213.542 277.702 Q213.542 283.281 210.07 286.382 Q206.598 289.461 200.278 289.461 Q198.102 289.461 195.834 289.091 Q193.588 288.72 191.181 287.98 L191.181 283.281 Q193.264 284.415 195.487 284.97 Q197.709 285.526 200.186 285.526 Q204.19 285.526 206.528 283.42 Q208.866 281.313 208.866 277.702 Q208.866 274.091 206.528 271.984 Q204.19 269.878 200.186 269.878 Q198.311 269.878 196.436 270.295 Q194.584 270.711 192.639 271.591 L192.639 254.23 Z" fill="#000000" fill-rule="nonzero" fill-opacity="1" /><path clip-path="url(#clip070)" d="M67.3143 771.639 Q73.68 774.122 75.6216 776.477 Q77.5631 778.832 77.5631 782.779 L77.5631 787.458 L72.6615 787.458 L72.6615 784.02 Q72.6615 781.601 71.5157 780.265 Q70.3699 778.928 66.1048 777.305 L63.4312 776.254 L28.3562 790.673 L28.3562 784.466 L56.238 773.326 L28.3562 762.186 L28.3562 755.979 L67.3143 771.639 Z" fill="#000000" fill-rule="nonzero" fill-opacity="1" /><path clip-path="url(#clip070)" d="M602.307 48.0275 L602.307 51.6733 L568.037 51.6733 Q568.523 59.3701 572.655 63.421 Q576.827 67.4314 584.24 67.4314 Q588.534 67.4314 592.545 66.3781 Q596.595 65.3249 600.565 63.2184 L600.565 70.267 Q596.555 71.9684 592.342 72.8596 Q588.129 73.7508 583.795 73.7508 Q572.938 73.7508 566.578 67.4314 Q560.259 61.1119 560.259 50.3365 Q560.259 39.1965 566.254 32.6746 Q572.29 26.1121 582.498 26.1121 Q591.653 26.1121 596.96 32.0264 Q602.307 37.9003 602.307 48.0275 M594.854 45.84 Q594.773 39.7232 591.41 36.0774 Q588.089 32.4315 582.579 32.4315 Q576.341 32.4315 572.574 35.9558 Q568.847 39.4801 568.28 45.8805 L594.854 45.84 Z" fill="#000000" fill-rule="nonzero" fill-opacity="1" /><path clip-path="url(#clip070)" d="M618.997 49.9314 Q618.997 58.1548 622.359 62.8538 Q625.762 67.5124 631.676 67.5124 Q637.591 67.5124 640.993 62.8538 Q644.396 58.1548 644.396 49.9314 Q644.396 41.7081 640.993 37.0496 Q637.591 32.3505 631.676 32.3505 Q625.762 32.3505 622.359 37.0496 Q618.997 41.7081 618.997 49.9314 M644.396 65.7705 Q642.047 69.8214 638.441 71.8063 Q634.876 73.7508 629.853 73.7508 Q621.63 73.7508 616.445 67.1883 Q611.3 60.6258 611.3 49.9314 Q611.3 39.2371 616.445 32.6746 Q621.63 26.1121 629.853 26.1121 Q634.876 26.1121 638.441 28.0971 Q642.047 30.0415 644.396 34.0924 L644.396 27.2059 L651.85 27.2059 L651.85 89.8329 L644.396 89.8329 L644.396 65.7705 Z" fill="#000000" fill-rule="nonzero" fill-opacity="1" /><path clip-path="url(#clip070)" d="M666.433 54.671 L666.433 27.2059 L673.887 27.2059 L673.887 54.3874 Q673.887 60.8284 676.398 64.0691 Q678.91 67.2693 683.933 67.2693 Q689.969 67.2693 693.453 63.421 Q696.977 59.5726 696.977 52.9291 L696.977 27.2059 L704.431 27.2059 L704.431 72.576 L696.977 72.576 L696.977 65.6084 Q694.263 69.7404 690.657 71.7658 Q687.093 73.7508 682.353 73.7508 Q674.535 73.7508 670.484 68.8897 Q666.433 64.0286 666.433 54.671 M685.189 26.1121 L685.189 26.1121 Z" fill="#000000" fill-rule="nonzero" fill-opacity="1" /><path clip-path="url(#clip070)" d="M740.403 49.7694 Q731.369 49.7694 727.885 51.8354 Q724.401 53.9013 724.401 58.8839 Q724.401 62.8538 726.994 65.2034 Q729.627 67.5124 734.124 67.5124 Q740.322 67.5124 744.048 63.1374 Q747.816 58.7219 747.816 51.4303 L747.816 49.7694 L740.403 49.7694 M755.269 46.6907 L755.269 72.576 L747.816 72.576 L747.816 65.6895 Q745.264 69.8214 741.456 71.8063 Q737.648 73.7508 732.139 73.7508 Q725.171 73.7508 721.039 69.8619 Q716.948 65.9325 716.948 59.3701 Q716.948 51.7138 722.052 47.825 Q727.197 43.9361 737.364 43.9361 L747.816 43.9361 L747.816 43.2069 Q747.816 38.0623 744.413 35.2672 Q741.051 32.4315 734.934 32.4315 Q731.045 32.4315 727.359 33.3632 Q723.672 34.295 720.27 36.1584 L720.27 29.2718 Q724.361 27.692 728.209 26.9223 Q732.058 26.1121 735.704 26.1121 Q745.547 26.1121 750.408 31.2163 Q755.269 36.3204 755.269 46.6907 Z" fill="#000000" fill-rule="nonzero" fill-opacity="1" /><path clip-path="url(#clip070)" d="M777.995 14.324 L777.995 27.2059 L793.348 27.2059 L793.348 32.9987 L777.995 32.9987 L777.995 57.6282 Q777.995 63.1779 779.494 64.7578 Q781.033 66.3376 785.692 66.3376 L793.348 66.3376 L793.348 72.576 L785.692 72.576 Q777.063 72.576 773.782 69.3758 Q770.501 66.1351 770.501 57.6282 L770.501 32.9987 L765.032 32.9987 L765.032 27.2059 L770.501 27.2059 L770.501 14.324 L777.995 14.324 Z" fill="#000000" fill-rule="nonzero" fill-opacity="1" /><path clip-path="url(#clip070)" d="M803.151 27.2059 L810.605 27.2059 L810.605 72.576 L803.151 72.576 L803.151 27.2059 M803.151 9.54393 L810.605 9.54393 L810.605 18.9825 L803.151 18.9825 L803.151 9.54393 Z" fill="#000000" fill-rule="nonzero" fill-opacity="1" /><path clip-path="url(#clip070)" d="M843.782 32.4315 Q837.786 32.4315 834.303 37.1306 Q830.819 41.7891 830.819 49.9314 Q830.819 58.0738 834.262 62.7728 Q837.746 67.4314 843.782 67.4314 Q849.736 67.4314 853.22 62.7323 Q856.704 58.0333 856.704 49.9314 Q856.704 41.8701 853.22 37.1711 Q849.736 32.4315 843.782 32.4315 M843.782 26.1121 Q853.504 26.1121 859.054 32.4315 Q864.603 38.7509 864.603 49.9314 Q864.603 61.0714 859.054 67.4314 Q853.504 73.7508 843.782 73.7508 Q834.019 73.7508 828.469 67.4314 Q822.96 61.0714 822.96 49.9314 Q822.96 38.7509 828.469 32.4315 Q834.019 26.1121 843.782 26.1121 Z" fill="#000000" fill-rule="nonzero" fill-opacity="1" /><path clip-path="url(#clip070)" d="M914.672 45.1919 L914.672 72.576 L907.219 72.576 L907.219 45.4349 Q907.219 38.994 904.707 35.7938 Q902.196 32.5936 897.173 32.5936 Q891.137 32.5936 887.653 36.4419 Q884.169 40.2903 884.169 46.9338 L884.169 72.576 L876.675 72.576 L876.675 27.2059 L884.169 27.2059 L884.169 34.2544 Q886.843 30.163 890.448 28.1376 Q894.094 26.1121 898.833 26.1121 Q906.652 26.1121 910.662 30.9732 Q914.672 35.7938 914.672 45.1919 Z" fill="#000000" fill-rule="nonzero" fill-opacity="1" /><path clip-path="url(#clip070)" d="M978.879 9.54393 L978.879 15.7418 L971.75 15.7418 Q967.739 15.7418 966.159 17.3622 Q964.62 18.9825 964.62 23.1955 L964.62 27.2059 L976.894 27.2059 L976.894 32.9987 L964.62 32.9987 L964.62 72.576 L957.126 72.576 L957.126 32.9987 L949.996 32.9987 L949.996 27.2059 L957.126 27.2059 L957.126 24.0462 Q957.126 16.471 960.65 13.0277 Q964.175 9.54393 971.831 9.54393 L978.879 9.54393 Z" fill="#000000" fill-rule="nonzero" fill-opacity="1" /><path clip-path="url(#clip070)" d="M985.118 27.2059 L992.571 27.2059 L992.571 72.576 L985.118 72.576 L985.118 27.2059 M985.118 9.54393 L992.571 9.54393 L992.571 18.9825 L985.118 18.9825 L985.118 9.54393 Z" fill="#000000" fill-rule="nonzero" fill-opacity="1" /><path clip-path="url(#clip070)" d="M1015.54 14.324 L1015.54 27.2059 L1030.89 27.2059 L1030.89 32.9987 L1015.54 32.9987 L1015.54 57.6282 Q1015.54 63.1779 1017.04 64.7578 Q1018.58 66.3376 1023.24 66.3376 L1030.89 66.3376 L1030.89 72.576 L1023.24 72.576 Q1014.61 72.576 1011.33 69.3758 Q1008.05 66.1351 1008.05 57.6282 L1008.05 32.9987 L1002.58 32.9987 L1002.58 27.2059 L1008.05 27.2059 L1008.05 14.324 L1015.54 14.324 Z" fill="#000000" fill-rule="nonzero" fill-opacity="1" /><path clip-path="url(#clip070)" d="M1042.6 62.2867 L1051.15 62.2867 L1051.15 72.576 L1042.6 72.576 L1042.6 62.2867 M1042.6 29.6769 L1051.15 29.6769 L1051.15 39.9662 L1042.6 39.9662 L1042.6 29.6769 Z" fill="#000000" fill-rule="nonzero" fill-opacity="1" /><path clip-path="url(#clip070)" d="M1097.49 65.6895 L1110.86 65.6895 L1110.86 19.5497 L1096.31 22.4663 L1096.31 15.0127 L1110.78 12.096 L1118.96 12.096 L1118.96 65.6895 L1132.33 65.6895 L1132.33 72.576 L1097.49 72.576 L1097.49 65.6895 Z" fill="#000000" fill-rule="nonzero" fill-opacity="1" /><path clip-path="url(#clip070)" d="M1148.86 62.2867 L1157.4 62.2867 L1157.4 72.576 L1148.86 72.576 L1148.86 62.2867 Z" fill="#000000" fill-rule="nonzero" fill-opacity="1" /><path clip-path="url(#clip070)" d="M1182.28 65.6895 L1210.83 65.6895 L1210.83 72.576 L1172.43 72.576 L1172.43 65.6895 Q1177.09 60.8689 1185.11 52.7671 Q1193.17 44.6248 1195.24 42.2752 Q1199.17 37.8598 1200.71 34.8216 Q1202.29 31.7429 1202.29 28.7857 Q1202.29 23.9651 1198.88 20.927 Q1195.52 17.8888 1190.09 17.8888 Q1186.25 17.8888 1181.95 19.2256 Q1177.7 20.5624 1172.84 23.2765 L1172.84 15.0127 Q1177.78 13.0277 1182.07 12.015 Q1186.37 11.0023 1189.93 11.0023 Q1199.33 11.0023 1204.92 15.7013 Q1210.51 20.4004 1210.51 28.2591 Q1210.51 31.9859 1209.09 35.3482 Q1207.71 38.6699 1204.03 43.2069 Q1203.02 44.3817 1197.59 50.0125 Q1192.16 55.6027 1182.28 65.6895 Z" fill="#000000" fill-rule="nonzero" fill-opacity="1" /><path clip-path="url(#clip070)" d="M1225.94 12.096 L1264.83 12.096 L1264.83 15.5798 L1242.88 72.576 L1234.33 72.576 L1254.99 18.9825 L1225.94 18.9825 L1225.94 12.096 Z" fill="#000000" fill-rule="nonzero" fill-opacity="1" /><path clip-path="url(#clip070)" d="M1336.45 20.5624 L1336.45 43.1259 L1359.02 43.1259 L1359.02 50.0125 L1336.45 50.0125 L1336.45 72.576 L1329.65 72.576 L1329.65 50.0125 L1307.08 50.0125 L1307.08 43.1259 L1329.65 43.1259 L1329.65 20.5624 L1336.45 20.5624 Z" fill="#000000" fill-rule="nonzero" fill-opacity="1" /><path clip-path="url(#clip070)" d="M1398.23 46.5287 L1420.06 46.5287 L1420.06 53.1722 L1398.23 53.1722 L1398.23 46.5287 Z" fill="#000000" fill-rule="nonzero" fill-opacity="1" /><path clip-path="url(#clip070)" d="M1434.4 65.6895 L1447.77 65.6895 L1447.77 19.5497 L1433.23 22.4663 L1433.23 15.0127 L1447.69 12.096 L1455.87 12.096 L1455.87 65.6895 L1469.24 65.6895 L1469.24 72.576 L1434.4 72.576 L1434.4 65.6895 Z" fill="#000000" fill-rule="nonzero" fill-opacity="1" /><path clip-path="url(#clip070)" d="M1485.77 62.2867 L1494.32 62.2867 L1494.32 72.576 L1485.77 72.576 L1485.77 62.2867 Z" fill="#000000" fill-rule="nonzero" fill-opacity="1" /><path clip-path="url(#clip070)" d="M1512.38 71.3202 L1512.38 63.8666 Q1515.46 65.3249 1518.62 66.0946 Q1521.78 66.8642 1524.82 66.8642 Q1532.92 66.8642 1537.17 61.436 Q1541.47 55.9673 1542.08 44.8678 Q1539.73 48.3516 1536.12 50.215 Q1532.52 52.0784 1528.14 52.0784 Q1519.07 52.0784 1513.76 46.6097 Q1508.49 41.1005 1508.49 31.5808 Q1508.49 22.2638 1514 16.633 Q1519.51 11.0023 1528.67 11.0023 Q1539.16 11.0023 1544.67 19.0636 Q1550.22 27.0843 1550.22 42.3968 Q1550.22 56.6965 1543.41 65.2439 Q1536.65 73.7508 1525.18 73.7508 Q1522.11 73.7508 1518.95 73.1431 Q1515.79 72.5355 1512.38 71.3202 M1528.67 45.678 Q1534.18 45.678 1537.38 41.9107 Q1540.62 38.1433 1540.62 31.5808 Q1540.62 25.0589 1537.38 21.2916 Q1534.18 17.4837 1528.67 17.4837 Q1523.16 17.4837 1519.92 21.2916 Q1516.72 25.0589 1516.72 31.5808 Q1516.72 38.1433 1519.92 41.9107 Q1523.16 45.678 1528.67 45.678 Z" fill="#000000" fill-rule="nonzero" fill-opacity="1" /><path clip-path="url(#clip070)" d="M1565.17 71.3202 L1565.17 63.8666 Q1568.25 65.3249 1571.41 66.0946 Q1574.56 66.8642 1577.6 66.8642 Q1585.7 66.8642 1589.96 61.436 Q1594.25 55.9673 1594.86 44.8678 Q1592.51 48.3516 1588.9 50.215 Q1585.3 52.0784 1580.92 52.0784 Q1571.85 52.0784 1566.54 46.6097 Q1561.28 41.1005 1561.28 31.5808 Q1561.28 22.2638 1566.79 16.633 Q1572.3 11.0023 1581.45 11.0023 Q1591.94 11.0023 1597.45 19.0636 Q1603 27.0843 1603 42.3968 Q1603 56.6965 1596.2 65.2439 Q1589.43 73.7508 1577.97 73.7508 Q1574.89 73.7508 1571.73 73.1431 Q1568.57 72.5355 1565.17 71.3202 M1581.45 45.678 Q1586.96 45.678 1590.16 41.9107 Q1593.4 38.1433 1593.4 31.5808 Q1593.4 25.0589 1590.16 21.2916 Q1586.96 17.4837 1581.45 17.4837 Q1575.94 17.4837 1572.7 21.2916 Q1569.5 25.0589 1569.5 31.5808 Q1569.5 38.1433 1572.7 41.9107 Q1575.94 45.678 1581.45 45.678 Z" fill="#000000" fill-rule="nonzero" fill-opacity="1" /><path clip-path="url(#clip070)" d="M1654.37 27.2059 L1637.96 49.2833 L1655.22 72.576 L1646.43 72.576 L1633.22 54.752 L1620.02 72.576 L1611.23 72.576 L1628.85 48.8377 L1612.72 27.2059 L1621.51 27.2059 L1633.55 43.369 L1645.58 27.2059 L1654.37 27.2059 Z" fill="#000000" fill-rule="nonzero" fill-opacity="1" /><path clip-path="url(#clip070)" d="M1722.46 20.5624 L1722.46 43.1259 L1745.03 43.1259 L1745.03 50.0125 L1722.46 50.0125 L1722.46 72.576 L1715.66 72.576 L1715.66 50.0125 L1693.09 50.0125 L1693.09 43.1259 L1715.66 43.1259 L1715.66 20.5624 L1722.46 20.5624 Z" fill="#000000" fill-rule="nonzero" fill-opacity="1" /><path clip-path="url(#clip070)" d="M1806.56 17.4837 Q1800.24 17.4837 1797.04 23.7221 Q1793.88 29.92 1793.88 42.3968 Q1793.88 54.833 1797.04 61.0714 Q1800.24 67.2693 1806.56 67.2693 Q1812.92 67.2693 1816.08 61.0714 Q1819.28 54.833 1819.28 42.3968 Q1819.28 29.92 1816.08 23.7221 Q1812.92 17.4837 1806.56 17.4837 M1806.56 11.0023 Q1816.73 11.0023 1822.07 19.0636 Q1827.46 27.0843 1827.46 42.3968 Q1827.46 57.6687 1822.07 65.73 Q1816.73 73.7508 1806.56 73.7508 Q1796.39 73.7508 1791 65.73 Q1785.66 57.6687 1785.66 42.3968 Q1785.66 27.0843 1791 19.0636 Q1796.39 11.0023 1806.56 11.0023 Z" fill="#000000" fill-rule="nonzero" fill-opacity="1" /><path clip-path="url(#clip070)" d="M1841.84 62.2867 L1850.39 62.2867 L1850.39 72.576 L1841.84 72.576 L1841.84 62.2867 Z" fill="#000000" fill-rule="nonzero" fill-opacity="1" /><path clip-path="url(#clip070)" d="M1868.46 71.3202 L1868.46 63.8666 Q1871.54 65.3249 1874.7 66.0946 Q1877.86 66.8642 1880.89 66.8642 Q1889 66.8642 1893.25 61.436 Q1897.54 55.9673 1898.15 44.8678 Q1895.8 48.3516 1892.2 50.215 Q1888.59 52.0784 1884.22 52.0784 Q1875.14 52.0784 1869.84 46.6097 Q1864.57 41.1005 1864.57 31.5808 Q1864.57 22.2638 1870.08 16.633 Q1875.59 11.0023 1884.74 11.0023 Q1895.23 11.0023 1900.74 19.0636 Q1906.29 27.0843 1906.29 42.3968 Q1906.29 56.6965 1899.49 65.2439 Q1892.72 73.7508 1881.26 73.7508 Q1878.18 73.7508 1875.02 73.1431 Q1871.86 72.5355 1868.46 71.3202 M1884.74 45.678 Q1890.25 45.678 1893.45 41.9107 Q1896.69 38.1433 1896.69 31.5808 Q1896.69 25.0589 1893.45 21.2916 Q1890.25 17.4837 1884.74 17.4837 Q1879.23 17.4837 1875.99 21.2916 Q1872.79 25.0589 1872.79 31.5808 Q1872.79 38.1433 1875.99 41.9107 Q1879.23 45.678 1884.74 45.678 Z" fill="#000000" fill-rule="nonzero" fill-opacity="1" /><path clip-path="url(#clip070)" d="M1938.5 43.8551 Q1932.66 43.8551 1929.3 46.9743 Q1925.98 50.0935 1925.98 55.5622 Q1925.98 61.0309 1929.3 64.1501 Q1932.66 67.2693 1938.5 67.2693 Q1944.33 67.2693 1947.69 64.1501 Q1951.06 60.9904 1951.06 55.5622 Q1951.06 50.0935 1947.69 46.9743 Q1944.37 43.8551 1938.5 43.8551 M1930.32 40.3713 Q1925.05 39.075 1922.09 35.4697 Q1919.18 31.8644 1919.18 26.6793 Q1919.18 19.4281 1924.32 15.2152 Q1929.5 11.0023 1938.5 11.0023 Q1947.53 11.0023 1952.68 15.2152 Q1957.82 19.4281 1957.82 26.6793 Q1957.82 31.8644 1954.86 35.4697 Q1951.95 39.075 1946.72 40.3713 Q1952.64 41.7486 1955.92 45.759 Q1959.24 49.7694 1959.24 55.5622 Q1959.24 64.3527 1953.85 69.0517 Q1948.5 73.7508 1938.5 73.7508 Q1928.49 73.7508 1923.1 69.0517 Q1917.76 64.3527 1917.76 55.5622 Q1917.76 49.7694 1921.08 45.759 Q1924.4 41.7486 1930.32 40.3713 M1927.32 27.4489 Q1927.32 32.148 1930.23 34.7811 Q1933.19 37.4142 1938.5 37.4142 Q1943.76 37.4142 1946.72 34.7811 Q1949.72 32.148 1949.72 27.4489 Q1949.72 22.7499 1946.72 20.1168 Q1943.76 17.4837 1938.5 17.4837 Q1933.19 17.4837 1930.23 20.1168 Q1927.32 22.7499 1927.32 27.4489 Z" fill="#000000" fill-rule="nonzero" fill-opacity="1" /><path clip-path="url(#clip070)" d="M2010.44 27.2059 L1994.04 49.2833 L2011.29 72.576 L2002.5 72.576 L1989.3 54.752 L1976.09 72.576 L1967.3 72.576 L1984.92 48.8377 L1968.8 27.2059 L1977.59 27.2059 L1989.62 43.369 L2001.65 27.2059 L2010.44 27.2059 Z" fill="#000000" fill-rule="nonzero" fill-opacity="1" /><path clip-path="url(#clip070)" d="M2024.86 40.8979 L2042.04 40.8979 L2042.04 45.516 L2017.81 45.516 L2017.81 41.06 Q2019.19 39.8042 2021.74 37.5357 Q2035.68 25.1804 2035.68 21.3726 Q2035.68 18.699 2033.57 17.0786 Q2031.47 15.4177 2028.02 15.4177 Q2025.92 15.4177 2023.45 16.1469 Q2020.97 16.8356 2018.06 18.2534 L2018.06 13.2708 Q2021.18 12.1365 2023.85 11.5694 Q2026.56 11.0023 2028.87 11.0023 Q2034.75 11.0023 2038.27 13.6759 Q2041.8 16.3494 2041.8 20.7244 Q2041.8 26.3552 2028.39 37.8598 Q2026.12 39.8042 2024.86 40.8979 Z" fill="#000000" fill-rule="nonzero" fill-opacity="1" /><circle clip-path="url(#clip072)" cx="2231.16" cy="406.365" r="14.4" fill="#ff0000" fill-rule="evenodd" fill-opacity="0.25" stroke="#000000" stroke-opacity="0.25" stroke-width="3.2"/>
<circle clip-path="url(#clip072)" cx="1420.58" cy="1069.93" r="14.4" fill="#ff0000" fill-rule="evenodd" fill-opacity="0.25" stroke="#000000" stroke-opacity="0.25" stroke-width="3.2"/>
<circle clip-path="url(#clip072)" cx="547.934" cy="791.178" r="14.4" fill="#ff0000" fill-rule="evenodd" fill-opacity="0.25" stroke="#000000" stroke-opacity="0.25" stroke-width="3.2"/>
<circle clip-path="url(#clip072)" cx="1084.88" cy="994.893" r="14.4" fill="#ff0000" fill-rule="evenodd" fill-opacity="0.25" stroke="#000000" stroke-opacity="0.25" stroke-width="3.2"/>
<circle clip-path="url(#clip072)" cx="2046.74" cy="794.884" r="14.4" fill="#ff0000" fill-rule="evenodd" fill-opacity="0.25" stroke="#000000" stroke-opacity="0.25" stroke-width="3.2"/>
<circle clip-path="url(#clip072)" cx="541.073" cy="738.807" r="14.4" fill="#ff0000" fill-rule="evenodd" fill-opacity="0.25" stroke="#000000" stroke-opacity="0.25" stroke-width="3.2"/>
<circle clip-path="url(#clip072)" cx="452.945" cy="317.902" r="14.4" fill="#ff0000" fill-rule="evenodd" fill-opacity="0.25" stroke="#000000" stroke-opacity="0.25" stroke-width="3.2"/>
<circle clip-path="url(#clip072)" cx="1835.03" cy="964.865" r="14.4" fill="#ff0000" fill-rule="evenodd" fill-opacity="0.25" stroke="#000000" stroke-opacity="0.25" stroke-width="3.2"/>
<circle clip-path="url(#clip072)" cx="1709.93" cy="1245.84" r="14.4" fill="#ff0000" fill-rule="evenodd" fill-opacity="0.25" stroke="#000000" stroke-opacity="0.25" stroke-width="3.2"/>
<circle clip-path="url(#clip072)" cx="1788.88" cy="1038.99" r="14.4" fill="#ff0000" fill-rule="evenodd" fill-opacity="0.25" stroke="#000000" stroke-opacity="0.25" stroke-width="3.2"/>
<circle clip-path="url(#clip072)" cx="1880.39" cy="859.672" r="14.4" fill="#ff0000" fill-rule="evenodd" fill-opacity="0.25" stroke="#000000" stroke-opacity="0.25" stroke-width="3.2"/>
<circle clip-path="url(#clip072)" cx="1400.34" cy="1162.53" r="14.4" fill="#ff0000" fill-rule="evenodd" fill-opacity="0.25" stroke="#000000" stroke-opacity="0.25" stroke-width="3.2"/>
<circle clip-path="url(#clip072)" cx="1409.81" cy="1255.77" r="14.4" fill="#ff0000" fill-rule="evenodd" fill-opacity="0.25" stroke="#000000" stroke-opacity="0.25" stroke-width="3.2"/>
<circle clip-path="url(#clip072)" cx="1889.1" cy="922.968" r="14.4" fill="#ff0000" fill-rule="evenodd" fill-opacity="0.25" stroke="#000000" stroke-opacity="0.25" stroke-width="3.2"/>
<circle clip-path="url(#clip072)" cx="1234.75" cy="1092.04" r="14.4" fill="#ff0000" fill-rule="evenodd" fill-opacity="0.25" stroke="#000000" stroke-opacity="0.25" stroke-width="3.2"/>
<circle clip-path="url(#clip072)" cx="936.699" cy="972.067" r="14.4" fill="#ff0000" fill-rule="evenodd" fill-opacity="0.25" stroke="#000000" stroke-opacity="0.25" stroke-width="3.2"/>
<circle clip-path="url(#clip072)" cx="1792.93" cy="967.045" r="14.4" fill="#ff0000" fill-rule="evenodd" fill-opacity="0.25" stroke="#000000" stroke-opacity="0.25" stroke-width="3.2"/>
<circle clip-path="url(#clip072)" cx="1830.53" cy="1126.02" r="14.4" fill="#ff0000" fill-rule="evenodd" fill-opacity="0.25" stroke="#000000" stroke-opacity="0.25" stroke-width="3.2"/>
<circle clip-path="url(#clip072)" cx="413.763" cy="374.566" r="14.4" fill="#ff0000" fill-rule="evenodd" fill-opacity="0.25" stroke="#000000" stroke-opacity="0.25" stroke-width="3.2"/>
<circle clip-path="url(#clip072)" cx="1109.45" cy="1356.39" r="14.4" fill="#ff0000" fill-rule="evenodd" fill-opacity="0.25" stroke="#000000" stroke-opacity="0.25" stroke-width="3.2"/>
<circle clip-path="url(#clip072)" cx="1492.23" cy="1046.92" r="14.4" fill="#ff0000" fill-rule="evenodd" fill-opacity="0.25" stroke="#000000" stroke-opacity="0.25" stroke-width="3.2"/>
<circle clip-path="url(#clip072)" cx="1552.72" cy="1216.51" r="14.4" fill="#ff0000" fill-rule="evenodd" fill-opacity="0.25" stroke="#000000" stroke-opacity="0.25" stroke-width="3.2"/>
<circle clip-path="url(#clip072)" cx="1540.63" cy="1333.1" r="14.4" fill="#ff0000" fill-rule="evenodd" fill-opacity="0.25" stroke="#000000" stroke-opacity="0.25" stroke-width="3.2"/>
<circle clip-path="url(#clip072)" cx="1661.78" cy="1274.66" r="14.4" fill="#ff0000" fill-rule="evenodd" fill-opacity="0.25" stroke="#000000" stroke-opacity="0.25" stroke-width="3.2"/>
<circle clip-path="url(#clip072)" cx="573.574" cy="582.603" r="14.4" fill="#ff0000" fill-rule="evenodd" fill-opacity="0.25" stroke="#000000" stroke-opacity="0.25" stroke-width="3.2"/>
<circle clip-path="url(#clip072)" cx="1703.74" cy="1040.45" r="14.4" fill="#ff0000" fill-rule="evenodd" fill-opacity="0.25" stroke="#000000" stroke-opacity="0.25" stroke-width="3.2"/>
<circle clip-path="url(#clip072)" cx="2058.16" cy="761.198" r="14.4" fill="#ff0000" fill-rule="evenodd" fill-opacity="0.25" stroke="#000000" stroke-opacity="0.25" stroke-width="3.2"/>
<circle clip-path="url(#clip072)" cx="778.515" cy="725.611" r="14.4" fill="#ff0000" fill-rule="evenodd" fill-opacity="0.25" stroke="#000000" stroke-opacity="0.25" stroke-width="3.2"/>
<circle clip-path="url(#clip072)" cx="1215.88" cy="1365.45" r="14.4" fill="#ff0000" fill-rule="evenodd" fill-opacity="0.25" stroke="#000000" stroke-opacity="0.25" stroke-width="3.2"/>
<circle clip-path="url(#clip072)" cx="866.083" cy="787.537" r="14.4" fill="#ff0000" fill-rule="evenodd" fill-opacity="0.25" stroke="#000000" stroke-opacity="0.25" stroke-width="3.2"/>
<circle clip-path="url(#clip072)" cx="1819.33" cy="860.303" r="14.4" fill="#ff0000" fill-rule="evenodd" fill-opacity="0.25" stroke="#000000" stroke-opacity="0.25" stroke-width="3.2"/>
<circle clip-path="url(#clip072)" cx="1042.61" cy="1090.46" r="14.4" fill="#ff0000" fill-rule="evenodd" fill-opacity="0.25" stroke="#000000" stroke-opacity="0.25" stroke-width="3.2"/>
<circle clip-path="url(#clip072)" cx="2211.86" cy="389.692" r="14.4" fill="#ff0000" fill-rule="evenodd" fill-opacity="0.25" stroke="#000000" stroke-opacity="0.25" stroke-width="3.2"/>
<circle clip-path="url(#clip072)" cx="586.857" cy="813.996" r="14.4" fill="#ff0000" fill-rule="evenodd" fill-opacity="0.25" stroke="#000000" stroke-opacity="0.25" stroke-width="3.2"/>
<circle clip-path="url(#clip072)" cx="1423.66" cy="1348.55" r="14.4" fill="#ff0000" fill-rule="evenodd" fill-opacity="0.25" stroke="#000000" stroke-opacity="0.25" stroke-width="3.2"/>
<circle clip-path="url(#clip072)" cx="592.586" cy="612.225" r="14.4" fill="#ff0000" fill-rule="evenodd" fill-opacity="0.25" stroke="#000000" stroke-opacity="0.25" stroke-width="3.2"/>
<circle clip-path="url(#clip072)" cx="1686.44" cy="863.767" r="14.4" fill="#ff0000" fill-rule="evenodd" fill-opacity="0.25" stroke="#000000" stroke-opacity="0.25" stroke-width="3.2"/>
<circle clip-path="url(#clip072)" cx="1188.46" cy="948.642" r="14.4" fill="#ff0000" fill-rule="evenodd" fill-opacity="0.25" stroke="#000000" stroke-opacity="0.25" stroke-width="3.2"/>
<circle clip-path="url(#clip072)" cx="1709.73" cy="1141.82" r="14.4" fill="#ff0000" fill-rule="evenodd" fill-opacity="0.25" stroke="#000000" stroke-opacity="0.25" stroke-width="3.2"/>
<circle clip-path="url(#clip072)" cx="2279.35" cy="425.413" r="14.4" fill="#ff0000" fill-rule="evenodd" fill-opacity="0.25" stroke="#000000" stroke-opacity="0.25" stroke-width="3.2"/>
<circle clip-path="url(#clip072)" cx="930.743" cy="1020.68" r="14.4" fill="#ff0000" fill-rule="evenodd" fill-opacity="0.25" stroke="#000000" stroke-opacity="0.25" stroke-width="3.2"/>
<circle clip-path="url(#clip072)" cx="1070.46" cy="1103.9" r="14.4" fill="#ff0000" fill-rule="evenodd" fill-opacity="0.25" stroke="#000000" stroke-opacity="0.25" stroke-width="3.2"/>
<circle clip-path="url(#clip072)" cx="1107.07" cy="1197.82" r="14.4" fill="#ff0000" fill-rule="evenodd" fill-opacity="0.25" stroke="#000000" stroke-opacity="0.25" stroke-width="3.2"/>
<circle clip-path="url(#clip072)" cx="986.714" cy="950.851" r="14.4" fill="#ff0000" fill-rule="evenodd" fill-opacity="0.25" stroke="#000000" stroke-opacity="0.25" stroke-width="3.2"/>
<circle clip-path="url(#clip072)" cx="1416.14" cy="1074.18" r="14.4" fill="#ff0000" fill-rule="evenodd" fill-opacity="0.25" stroke="#000000" stroke-opacity="0.25" stroke-width="3.2"/>
<circle clip-path="url(#clip072)" cx="1598.77" cy="1129.3" r="14.4" fill="#ff0000" fill-rule="evenodd" fill-opacity="0.25" stroke="#000000" stroke-opacity="0.25" stroke-width="3.2"/>
<circle clip-path="url(#clip072)" cx="973.631" cy="1059.17" r="14.4" fill="#ff0000" fill-rule="evenodd" fill-opacity="0.25" stroke="#000000" stroke-opacity="0.25" stroke-width="3.2"/>
<circle clip-path="url(#clip072)" cx="1649.95" cy="846.358" r="14.4" fill="#ff0000" fill-rule="evenodd" fill-opacity="0.25" stroke="#000000" stroke-opacity="0.25" stroke-width="3.2"/>
<circle clip-path="url(#clip072)" cx="2067.81" cy="457.04" r="14.4" fill="#ff0000" fill-rule="evenodd" fill-opacity="0.25" stroke="#000000" stroke-opacity="0.25" stroke-width="3.2"/>
<circle clip-path="url(#clip072)" cx="1710.37" cy="1240.86" r="14.4" fill="#ff0000" fill-rule="evenodd" fill-opacity="0.25" stroke="#000000" stroke-opacity="0.25" stroke-width="3.2"/>
<circle clip-path="url(#clip072)" cx="512.985" cy="799.548" r="14.4" fill="#ff0000" fill-rule="evenodd" fill-opacity="0.25" stroke="#000000" stroke-opacity="0.25" stroke-width="3.2"/>
<circle clip-path="url(#clip072)" cx="507.164" cy="545.778" r="14.4" fill="#ff0000" fill-rule="evenodd" fill-opacity="0.25" stroke="#000000" stroke-opacity="0.25" stroke-width="3.2"/>
<circle clip-path="url(#clip072)" cx="1575.29" cy="1146.13" r="14.4" fill="#ff0000" fill-rule="evenodd" fill-opacity="0.25" stroke="#000000" stroke-opacity="0.25" stroke-width="3.2"/>
<circle clip-path="url(#clip072)" cx="881.432" cy="980.449" r="14.4" fill="#ff0000" fill-rule="evenodd" fill-opacity="0.25" stroke="#000000" stroke-opacity="0.25" stroke-width="3.2"/>
<circle clip-path="url(#clip072)" cx="1102.1" cy="1040.94" r="14.4" fill="#ff0000" fill-rule="evenodd" fill-opacity="0.25" stroke="#000000" stroke-opacity="0.25" stroke-width="3.2"/>
<circle clip-path="url(#clip072)" cx="783.594" cy="999.943" r="14.4" fill="#ff0000" fill-rule="evenodd" fill-opacity="0.25" stroke="#000000" stroke-opacity="0.25" stroke-width="3.2"/>
<circle clip-path="url(#clip072)" cx="1952.5" cy="585.148" r="14.4" fill="#ff0000" fill-rule="evenodd" fill-opacity="0.25" stroke="#000000" stroke-opacity="0.25" stroke-width="3.2"/>
<circle clip-path="url(#clip072)" cx="1070.04" cy="1139.65" r="14.4" fill="#ff0000" fill-rule="evenodd" fill-opacity="0.25" stroke="#000000" stroke-opacity="0.25" stroke-width="3.2"/>
<circle clip-path="url(#clip072)" cx="339.53" cy="241.005" r="14.4" fill="#ff0000" fill-rule="evenodd" fill-opacity="0.25" stroke="#000000" stroke-opacity="0.25" stroke-width="3.2"/>
<circle clip-path="url(#clip072)" cx="701.18" cy="885.785" r="14.4" fill="#ff0000" fill-rule="evenodd" fill-opacity="0.25" stroke="#000000" stroke-opacity="0.25" stroke-width="3.2"/>
<circle clip-path="url(#clip072)" cx="781.659" cy="920.995" r="14.4" fill="#ff0000" fill-rule="evenodd" fill-opacity="0.25" stroke="#000000" stroke-opacity="0.25" stroke-width="3.2"/>
<circle clip-path="url(#clip072)" cx="812.007" cy="920.575" r="14.4" fill="#ff0000" fill-rule="evenodd" fill-opacity="0.25" stroke="#000000" stroke-opacity="0.25" stroke-width="3.2"/>
<circle clip-path="url(#clip072)" cx="2060.59" cy="813.026" r="14.4" fill="#ff0000" fill-rule="evenodd" fill-opacity="0.25" stroke="#000000" stroke-opacity="0.25" stroke-width="3.2"/>
<circle clip-path="url(#clip072)" cx="1523.07" cy="918.012" r="14.4" fill="#ff0000" fill-rule="evenodd" fill-opacity="0.25" stroke="#000000" stroke-opacity="0.25" stroke-width="3.2"/>
<circle clip-path="url(#clip072)" cx="1433.62" cy="1235.21" r="14.4" fill="#ff0000" fill-rule="evenodd" fill-opacity="0.25" stroke="#000000" stroke-opacity="0.25" stroke-width="3.2"/>
<circle clip-path="url(#clip072)" cx="575.782" cy="650.194" r="14.4" fill="#ff0000" fill-rule="evenodd" fill-opacity="0.25" stroke="#000000" stroke-opacity="0.25" stroke-width="3.2"/>
<circle clip-path="url(#clip072)" cx="2247.34" cy="272.863" r="14.4" fill="#ff0000" fill-rule="evenodd" fill-opacity="0.25" stroke="#000000" stroke-opacity="0.25" stroke-width="3.2"/>
<circle clip-path="url(#clip072)" cx="1488.72" cy="1026.29" r="14.4" fill="#ff0000" fill-rule="evenodd" fill-opacity="0.25" stroke="#000000" stroke-opacity="0.25" stroke-width="3.2"/>
<circle clip-path="url(#clip072)" cx="2186.59" cy="381.303" r="14.4" fill="#ff0000" fill-rule="evenodd" fill-opacity="0.25" stroke="#000000" stroke-opacity="0.25" stroke-width="3.2"/>
<circle clip-path="url(#clip072)" cx="1563.55" cy="1035.98" r="14.4" fill="#ff0000" fill-rule="evenodd" fill-opacity="0.25" stroke="#000000" stroke-opacity="0.25" stroke-width="3.2"/>
<circle clip-path="url(#clip072)" cx="1502.59" cy="1075.94" r="14.4" fill="#ff0000" fill-rule="evenodd" fill-opacity="0.25" stroke="#000000" stroke-opacity="0.25" stroke-width="3.2"/>
<circle clip-path="url(#clip072)" cx="671.142" cy="738.06" r="14.4" fill="#ff0000" fill-rule="evenodd" fill-opacity="0.25" stroke="#000000" stroke-opacity="0.25" stroke-width="3.2"/>
<circle clip-path="url(#clip072)" cx="1223.69" cy="1386.4" r="14.4" fill="#ff0000" fill-rule="evenodd" fill-opacity="0.25" stroke="#000000" stroke-opacity="0.25" stroke-width="3.2"/>
<circle clip-path="url(#clip072)" cx="568.152" cy="531.093" r="14.4" fill="#ff0000" fill-rule="evenodd" fill-opacity="0.25" stroke="#000000" stroke-opacity="0.25" stroke-width="3.2"/>
<circle clip-path="url(#clip072)" cx="2228.93" cy="160.256" r="14.4" fill="#ff0000" fill-rule="evenodd" fill-opacity="0.25" stroke="#000000" stroke-opacity="0.25" stroke-width="3.2"/>
<circle clip-path="url(#clip072)" cx="872.296" cy="930.268" r="14.4" fill="#ff0000" fill-rule="evenodd" fill-opacity="0.25" stroke="#000000" stroke-opacity="0.25" stroke-width="3.2"/>
<circle clip-path="url(#clip072)" cx="2276.26" cy="460.962" r="14.4" fill="#ff0000" fill-rule="evenodd" fill-opacity="0.25" stroke="#000000" stroke-opacity="0.25" stroke-width="3.2"/>
<circle clip-path="url(#clip072)" cx="2094.73" cy="513.631" r="14.4" fill="#ff0000" fill-rule="evenodd" fill-opacity="0.25" stroke="#000000" stroke-opacity="0.25" stroke-width="3.2"/>
<circle clip-path="url(#clip072)" cx="603.202" cy="541.304" r="14.4" fill="#ff0000" fill-rule="evenodd" fill-opacity="0.25" stroke="#000000" stroke-opacity="0.25" stroke-width="3.2"/>
<circle clip-path="url(#clip072)" cx="710.962" cy="890.14" r="14.4" fill="#ff0000" fill-rule="evenodd" fill-opacity="0.25" stroke="#000000" stroke-opacity="0.25" stroke-width="3.2"/>
<circle clip-path="url(#clip072)" cx="1479.52" cy="992.254" r="14.4" fill="#ff0000" fill-rule="evenodd" fill-opacity="0.25" stroke="#000000" stroke-opacity="0.25" stroke-width="3.2"/>
<circle clip-path="url(#clip072)" cx="2179.48" cy="487.736" r="14.4" fill="#ff0000" fill-rule="evenodd" fill-opacity="0.25" stroke="#000000" stroke-opacity="0.25" stroke-width="3.2"/>
<circle clip-path="url(#clip072)" cx="580.586" cy="800.09" r="14.4" fill="#ff0000" fill-rule="evenodd" fill-opacity="0.25" stroke="#000000" stroke-opacity="0.25" stroke-width="3.2"/>
<circle clip-path="url(#clip072)" cx="1459.25" cy="1335.26" r="14.4" fill="#ff0000" fill-rule="evenodd" fill-opacity="0.25" stroke="#000000" stroke-opacity="0.25" stroke-width="3.2"/>
<circle clip-path="url(#clip072)" cx="2128.06" cy="606.604" r="14.4" fill="#ff0000" fill-rule="evenodd" fill-opacity="0.25" stroke="#000000" stroke-opacity="0.25" stroke-width="3.2"/>
<circle clip-path="url(#clip072)" cx="2251.97" cy="466.861" r="14.4" fill="#ff0000" fill-rule="evenodd" fill-opacity="0.25" stroke="#000000" stroke-opacity="0.25" stroke-width="3.2"/>
<circle clip-path="url(#clip072)" cx="1242.14" cy="1064.27" r="14.4" fill="#ff0000" fill-rule="evenodd" fill-opacity="0.25" stroke="#000000" stroke-opacity="0.25" stroke-width="3.2"/>
<circle clip-path="url(#clip072)" cx="1448.74" cy="1273.98" r="14.4" fill="#ff0000" fill-rule="evenodd" fill-opacity="0.25" stroke="#000000" stroke-opacity="0.25" stroke-width="3.2"/>
<circle clip-path="url(#clip072)" cx="1065.99" cy="927.211" r="14.4" fill="#ff0000" fill-rule="evenodd" fill-opacity="0.25" stroke="#000000" stroke-opacity="0.25" stroke-width="3.2"/>
<circle clip-path="url(#clip072)" cx="1179.26" cy="1005.58" r="14.4" fill="#ff0000" fill-rule="evenodd" fill-opacity="0.25" stroke="#000000" stroke-opacity="0.25" stroke-width="3.2"/>
<circle clip-path="url(#clip072)" cx="807.984" cy="839.862" r="14.4" fill="#ff0000" fill-rule="evenodd" fill-opacity="0.25" stroke="#000000" stroke-opacity="0.25" stroke-width="3.2"/>
<circle clip-path="url(#clip072)" cx="1671.47" cy="866.477" r="14.4" fill="#ff0000" fill-rule="evenodd" fill-opacity="0.25" stroke="#000000" stroke-opacity="0.25" stroke-width="3.2"/>
<circle clip-path="url(#clip072)" cx="1441.45" cy="1037.16" r="14.4" fill="#ff0000" fill-rule="evenodd" fill-opacity="0.25" stroke="#000000" stroke-opacity="0.25" stroke-width="3.2"/>
<circle clip-path="url(#clip072)" cx="1332.26" cy="1049.48" r="14.4" fill="#ff0000" fill-rule="evenodd" fill-opacity="0.25" stroke="#000000" stroke-opacity="0.25" stroke-width="3.2"/>
<circle clip-path="url(#clip072)" cx="1196.93" cy="1126.38" r="14.4" fill="#ff0000" fill-rule="evenodd" fill-opacity="0.25" stroke="#000000" stroke-opacity="0.25" stroke-width="3.2"/>
<circle clip-path="url(#clip072)" cx="1812.96" cy="755.999" r="14.4" fill="#ff0000" fill-rule="evenodd" fill-opacity="0.25" stroke="#000000" stroke-opacity="0.25" stroke-width="3.2"/>
<circle clip-path="url(#clip072)" cx="1205.56" cy="959.285" r="14.4" fill="#ff0000" fill-rule="evenodd" fill-opacity="0.25" stroke="#000000" stroke-opacity="0.25" stroke-width="3.2"/>
<circle clip-path="url(#clip072)" cx="1831.88" cy="896.799" r="14.4" fill="#ff0000" fill-rule="evenodd" fill-opacity="0.25" stroke="#000000" stroke-opacity="0.25" stroke-width="3.2"/>
<circle clip-path="url(#clip072)" cx="449.009" cy="736.579" r="14.4" fill="#ff0000" fill-rule="evenodd" fill-opacity="0.25" stroke="#000000" stroke-opacity="0.25" stroke-width="3.2"/>
<circle clip-path="url(#clip072)" cx="1651.04" cy="909.537" r="14.4" fill="#ff0000" fill-rule="evenodd" fill-opacity="0.25" stroke="#000000" stroke-opacity="0.25" stroke-width="3.2"/>
<circle clip-path="url(#clip072)" cx="1649.84" cy="1022.32" r="14.4" fill="#ff0000" fill-rule="evenodd" fill-opacity="0.25" stroke="#000000" stroke-opacity="0.25" stroke-width="3.2"/>
<circle clip-path="url(#clip072)" cx="1068.59" cy="1342.56" r="14.4" fill="#ff0000" fill-rule="evenodd" fill-opacity="0.25" stroke="#000000" stroke-opacity="0.25" stroke-width="3.2"/>
<circle clip-path="url(#clip072)" cx="1086.79" cy="1284.85" r="14.4" fill="#ff0000" fill-rule="evenodd" fill-opacity="0.25" stroke="#000000" stroke-opacity="0.25" stroke-width="3.2"/>
<circle clip-path="url(#clip072)" cx="601.014" cy="776.189" r="14.4" fill="#ff0000" fill-rule="evenodd" fill-opacity="0.25" stroke="#000000" stroke-opacity="0.25" stroke-width="3.2"/>
<circle clip-path="url(#clip072)" cx="1678.98" cy="874.44" r="14.4" fill="#ff0000" fill-rule="evenodd" fill-opacity="0.25" stroke="#000000" stroke-opacity="0.25" stroke-width="3.2"/>
<circle clip-path="url(#clip072)" cx="1066.33" cy="978.052" r="14.4" fill="#ff0000" fill-rule="evenodd" fill-opacity="0.25" stroke="#000000" stroke-opacity="0.25" stroke-width="3.2"/>
<circle clip-path="url(#clip072)" cx="2257.27" cy="560.669" r="14.4" fill="#ff0000" fill-rule="evenodd" fill-opacity="0.25" stroke="#000000" stroke-opacity="0.25" stroke-width="3.2"/>
<circle clip-path="url(#clip072)" cx="1368.27" cy="1263.26" r="14.4" fill="#ff0000" fill-rule="evenodd" fill-opacity="0.25" stroke="#000000" stroke-opacity="0.25" stroke-width="3.2"/>
<circle clip-path="url(#clip072)" cx="667.945" cy="1024.92" r="14.4" fill="#ff0000" fill-rule="evenodd" fill-opacity="0.25" stroke="#000000" stroke-opacity="0.25" stroke-width="3.2"/>
<circle clip-path="url(#clip072)" cx="890.904" cy="801.278" r="14.4" fill="#ff0000" fill-rule="evenodd" fill-opacity="0.25" stroke="#000000" stroke-opacity="0.25" stroke-width="3.2"/>
<circle clip-path="url(#clip072)" cx="368.242" cy="463.745" r="14.4" fill="#ff0000" fill-rule="evenodd" fill-opacity="0.25" stroke="#000000" stroke-opacity="0.25" stroke-width="3.2"/>
<circle clip-path="url(#clip072)" cx="581.754" cy="593.516" r="14.4" fill="#ff0000" fill-rule="evenodd" fill-opacity="0.25" stroke="#000000" stroke-opacity="0.25" stroke-width="3.2"/>
<circle clip-path="url(#clip072)" cx="671.754" cy="644.078" r="14.4" fill="#ff0000" fill-rule="evenodd" fill-opacity="0.25" stroke="#000000" stroke-opacity="0.25" stroke-width="3.2"/>
<circle clip-path="url(#clip072)" cx="1796.25" cy="997.181" r="14.4" fill="#ff0000" fill-rule="evenodd" fill-opacity="0.25" stroke="#000000" stroke-opacity="0.25" stroke-width="3.2"/>
<circle clip-path="url(#clip072)" cx="1412.4" cy="1175.23" r="14.4" fill="#ff0000" fill-rule="evenodd" fill-opacity="0.25" stroke="#000000" stroke-opacity="0.25" stroke-width="3.2"/>
<circle clip-path="url(#clip072)" cx="2152.89" cy="572.684" r="14.4" fill="#ff0000" fill-rule="evenodd" fill-opacity="0.25" stroke="#000000" stroke-opacity="0.25" stroke-width="3.2"/>
<circle clip-path="url(#clip072)" cx="2030.27" cy="746.821" r="14.4" fill="#ff0000" fill-rule="evenodd" fill-opacity="0.25" stroke="#000000" stroke-opacity="0.25" stroke-width="3.2"/>
<circle clip-path="url(#clip072)" cx="1299.73" cy="1242.79" r="14.4" fill="#ff0000" fill-rule="evenodd" fill-opacity="0.25" stroke="#000000" stroke-opacity="0.25" stroke-width="3.2"/>
<circle clip-path="url(#clip072)" cx="1154.96" cy="1106.09" r="14.4" fill="#ff0000" fill-rule="evenodd" fill-opacity="0.25" stroke="#000000" stroke-opacity="0.25" stroke-width="3.2"/>
<circle clip-path="url(#clip072)" cx="2266.61" cy="198.229" r="14.4" fill="#ff0000" fill-rule="evenodd" fill-opacity="0.25" stroke="#000000" stroke-opacity="0.25" stroke-width="3.2"/>
<circle clip-path="url(#clip072)" cx="873.817" cy="973.662" r="14.4" fill="#ff0000" fill-rule="evenodd" fill-opacity="0.25" stroke="#000000" stroke-opacity="0.25" stroke-width="3.2"/>
<circle clip-path="url(#clip072)" cx="575.574" cy="909.258" r="14.4" fill="#ff0000" fill-rule="evenodd" fill-opacity="0.25" stroke="#000000" stroke-opacity="0.25" stroke-width="3.2"/>
<circle clip-path="url(#clip072)" cx="2058.58" cy="774.599" r="14.4" fill="#ff0000" fill-rule="evenodd" fill-opacity="0.25" stroke="#000000" stroke-opacity="0.25" stroke-width="3.2"/>
<circle clip-path="url(#clip072)" cx="1551.7" cy="1238.45" r="14.4" fill="#ff0000" fill-rule="evenodd" fill-opacity="0.25" stroke="#000000" stroke-opacity="0.25" stroke-width="3.2"/>
<circle clip-path="url(#clip072)" cx="1352.57" cy="1219.59" r="14.4" fill="#ff0000" fill-rule="evenodd" fill-opacity="0.25" stroke="#000000" stroke-opacity="0.25" stroke-width="3.2"/>
<circle clip-path="url(#clip072)" cx="1540.36" cy="1141.07" r="14.4" fill="#ff0000" fill-rule="evenodd" fill-opacity="0.25" stroke="#000000" stroke-opacity="0.25" stroke-width="3.2"/>
<circle clip-path="url(#clip072)" cx="1992.98" cy="781.02" r="14.4" fill="#ff0000" fill-rule="evenodd" fill-opacity="0.25" stroke="#000000" stroke-opacity="0.25" stroke-width="3.2"/>
<circle clip-path="url(#clip072)" cx="1164.28" cy="1159.08" r="14.4" fill="#ff0000" fill-rule="evenodd" fill-opacity="0.25" stroke="#000000" stroke-opacity="0.25" stroke-width="3.2"/>
<circle clip-path="url(#clip072)" cx="1252.33" cy="1294.3" r="14.4" fill="#ff0000" fill-rule="evenodd" fill-opacity="0.25" stroke="#000000" stroke-opacity="0.25" stroke-width="3.2"/>
<circle clip-path="url(#clip072)" cx="1507.5" cy="1306.09" r="14.4" fill="#ff0000" fill-rule="evenodd" fill-opacity="0.25" stroke="#000000" stroke-opacity="0.25" stroke-width="3.2"/>
<circle clip-path="url(#clip072)" cx="1179.76" cy="964.224" r="14.4" fill="#ff0000" fill-rule="evenodd" fill-opacity="0.25" stroke="#000000" stroke-opacity="0.25" stroke-width="3.2"/>
<circle clip-path="url(#clip072)" cx="1982.89" cy="611.725" r="14.4" fill="#ff0000" fill-rule="evenodd" fill-opacity="0.25" stroke="#000000" stroke-opacity="0.25" stroke-width="3.2"/>
<circle clip-path="url(#clip072)" cx="1028.78" cy="1080.47" r="14.4" fill="#ff0000" fill-rule="evenodd" fill-opacity="0.25" stroke="#000000" stroke-opacity="0.25" stroke-width="3.2"/>
<circle clip-path="url(#clip072)" cx="547.869" cy="430.194" r="14.4" fill="#ff0000" fill-rule="evenodd" fill-opacity="0.25" stroke="#000000" stroke-opacity="0.25" stroke-width="3.2"/>
<circle clip-path="url(#clip072)" cx="1752.88" cy="1035.22" r="14.4" fill="#ff0000" fill-rule="evenodd" fill-opacity="0.25" stroke="#000000" stroke-opacity="0.25" stroke-width="3.2"/>
<circle clip-path="url(#clip072)" cx="1619.38" cy="967.8" r="14.4" fill="#ff0000" fill-rule="evenodd" fill-opacity="0.25" stroke="#000000" stroke-opacity="0.25" stroke-width="3.2"/>
<circle clip-path="url(#clip072)" cx="633.132" cy="608.474" r="14.4" fill="#ff0000" fill-rule="evenodd" fill-opacity="0.25" stroke="#000000" stroke-opacity="0.25" stroke-width="3.2"/>
<circle clip-path="url(#clip072)" cx="1576.54" cy="1225.26" r="14.4" fill="#ff0000" fill-rule="evenodd" fill-opacity="0.25" stroke="#000000" stroke-opacity="0.25" stroke-width="3.2"/>
<circle clip-path="url(#clip072)" cx="1598.01" cy="1278.7" r="14.4" fill="#ff0000" fill-rule="evenodd" fill-opacity="0.25" stroke="#000000" stroke-opacity="0.25" stroke-width="3.2"/>
<circle clip-path="url(#clip072)" cx="1950.87" cy="656.535" r="14.4" fill="#ff0000" fill-rule="evenodd" fill-opacity="0.25" stroke="#000000" stroke-opacity="0.25" stroke-width="3.2"/>
<circle clip-path="url(#clip072)" cx="831.015" cy="1082.7" r="14.4" fill="#ff0000" fill-rule="evenodd" fill-opacity="0.25" stroke="#000000" stroke-opacity="0.25" stroke-width="3.2"/>
<circle clip-path="url(#clip072)" cx="1823.6" cy="1058.22" r="14.4" fill="#ff0000" fill-rule="evenodd" fill-opacity="0.25" stroke="#000000" stroke-opacity="0.25" stroke-width="3.2"/>
<circle clip-path="url(#clip072)" cx="1537.72" cy="1295.01" r="14.4" fill="#ff0000" fill-rule="evenodd" fill-opacity="0.25" stroke="#000000" stroke-opacity="0.25" stroke-width="3.2"/>
<circle clip-path="url(#clip072)" cx="332.109" cy="247.326" r="14.4" fill="#ff0000" fill-rule="evenodd" fill-opacity="0.25" stroke="#000000" stroke-opacity="0.25" stroke-width="3.2"/>
<circle clip-path="url(#clip072)" cx="1273.47" cy="1223.31" r="14.4" fill="#ff0000" fill-rule="evenodd" fill-opacity="0.25" stroke="#000000" stroke-opacity="0.25" stroke-width="3.2"/>
<circle clip-path="url(#clip072)" cx="1289.5" cy="1340.4" r="14.4" fill="#ff0000" fill-rule="evenodd" fill-opacity="0.25" stroke="#000000" stroke-opacity="0.25" stroke-width="3.2"/>
<circle clip-path="url(#clip072)" cx="419.096" cy="481.06" r="14.4" fill="#ff0000" fill-rule="evenodd" fill-opacity="0.25" stroke="#000000" stroke-opacity="0.25" stroke-width="3.2"/>
<circle clip-path="url(#clip072)" cx="872.244" cy="861.1" r="14.4" fill="#ff0000" fill-rule="evenodd" fill-opacity="0.25" stroke="#000000" stroke-opacity="0.25" stroke-width="3.2"/>
<circle clip-path="url(#clip072)" cx="2004.05" cy="740.007" r="14.4" fill="#ff0000" fill-rule="evenodd" fill-opacity="0.25" stroke="#000000" stroke-opacity="0.25" stroke-width="3.2"/>
<circle clip-path="url(#clip072)" cx="1123.36" cy="1335.36" r="14.4" fill="#ff0000" fill-rule="evenodd" fill-opacity="0.25" stroke="#000000" stroke-opacity="0.25" stroke-width="3.2"/>
<circle clip-path="url(#clip072)" cx="1518.84" cy="1224.21" r="14.4" fill="#ff0000" fill-rule="evenodd" fill-opacity="0.25" stroke="#000000" stroke-opacity="0.25" stroke-width="3.2"/>
<circle clip-path="url(#clip072)" cx="510.573" cy="694.692" r="14.4" fill="#ff0000" fill-rule="evenodd" fill-opacity="0.25" stroke="#000000" stroke-opacity="0.25" stroke-width="3.2"/>
<circle clip-path="url(#clip072)" cx="1138.94" cy="1365.33" r="14.4" fill="#ff0000" fill-rule="evenodd" fill-opacity="0.25" stroke="#000000" stroke-opacity="0.25" stroke-width="3.2"/>
<circle clip-path="url(#clip072)" cx="641.63" cy="950.785" r="14.4" fill="#ff0000" fill-rule="evenodd" fill-opacity="0.25" stroke="#000000" stroke-opacity="0.25" stroke-width="3.2"/>
<circle clip-path="url(#clip072)" cx="1411.9" cy="1221.21" r="14.4" fill="#ff0000" fill-rule="evenodd" fill-opacity="0.25" stroke="#000000" stroke-opacity="0.25" stroke-width="3.2"/>
<circle clip-path="url(#clip072)" cx="458.896" cy="729.385" r="14.4" fill="#ff0000" fill-rule="evenodd" fill-opacity="0.25" stroke="#000000" stroke-opacity="0.25" stroke-width="3.2"/>
<circle clip-path="url(#clip072)" cx="1112.65" cy="1322.07" r="14.4" fill="#ff0000" fill-rule="evenodd" fill-opacity="0.25" stroke="#000000" stroke-opacity="0.25" stroke-width="3.2"/>
<circle clip-path="url(#clip072)" cx="377.07" cy="199.951" r="14.4" fill="#ff0000" fill-rule="evenodd" fill-opacity="0.25" stroke="#000000" stroke-opacity="0.25" stroke-width="3.2"/>
<circle clip-path="url(#clip072)" cx="949.389" cy="1206.92" r="14.4" fill="#ff0000" fill-rule="evenodd" fill-opacity="0.25" stroke="#000000" stroke-opacity="0.25" stroke-width="3.2"/>
<circle clip-path="url(#clip072)" cx="2045.82" cy="835.69" r="14.4" fill="#ff0000" fill-rule="evenodd" fill-opacity="0.25" stroke="#000000" stroke-opacity="0.25" stroke-width="3.2"/>
<circle clip-path="url(#clip072)" cx="1696.31" cy="1073.66" r="14.4" fill="#ff0000" fill-rule="evenodd" fill-opacity="0.25" stroke="#000000" stroke-opacity="0.25" stroke-width="3.2"/>
<circle clip-path="url(#clip072)" cx="1076.75" cy="1091.69" r="14.4" fill="#ff0000" fill-rule="evenodd" fill-opacity="0.25" stroke="#000000" stroke-opacity="0.25" stroke-width="3.2"/>
<circle clip-path="url(#clip072)" cx="1984.28" cy="971.57" r="14.4" fill="#ff0000" fill-rule="evenodd" fill-opacity="0.25" stroke="#000000" stroke-opacity="0.25" stroke-width="3.2"/>
<circle clip-path="url(#clip072)" cx="1910.05" cy="756.304" r="14.4" fill="#ff0000" fill-rule="evenodd" fill-opacity="0.25" stroke="#000000" stroke-opacity="0.25" stroke-width="3.2"/>
<circle clip-path="url(#clip072)" cx="1372.87" cy="1079.8" r="14.4" fill="#ff0000" fill-rule="evenodd" fill-opacity="0.25" stroke="#000000" stroke-opacity="0.25" stroke-width="3.2"/>
<circle clip-path="url(#clip072)" cx="826.967" cy="869.287" r="14.4" fill="#ff0000" fill-rule="evenodd" fill-opacity="0.25" stroke="#000000" stroke-opacity="0.25" stroke-width="3.2"/>
<circle clip-path="url(#clip072)" cx="1075.17" cy="1094.25" r="14.4" fill="#ff0000" fill-rule="evenodd" fill-opacity="0.25" stroke="#000000" stroke-opacity="0.25" stroke-width="3.2"/>
<circle clip-path="url(#clip072)" cx="422.277" cy="436.545" r="14.4" fill="#ff0000" fill-rule="evenodd" fill-opacity="0.25" stroke="#000000" stroke-opacity="0.25" stroke-width="3.2"/>
<circle clip-path="url(#clip072)" cx="1834.56" cy="1026.94" r="14.4" fill="#ff0000" fill-rule="evenodd" fill-opacity="0.25" stroke="#000000" stroke-opacity="0.25" stroke-width="3.2"/>
<circle clip-path="url(#clip072)" cx="1949.3" cy="945.979" r="14.4" fill="#ff0000" fill-rule="evenodd" fill-opacity="0.25" stroke="#000000" stroke-opacity="0.25" stroke-width="3.2"/>
<circle clip-path="url(#clip072)" cx="1848.04" cy="717.328" r="14.4" fill="#ff0000" fill-rule="evenodd" fill-opacity="0.25" stroke="#000000" stroke-opacity="0.25" stroke-width="3.2"/>
<circle clip-path="url(#clip072)" cx="2018.25" cy="505.11" r="14.4" fill="#ff0000" fill-rule="evenodd" fill-opacity="0.25" stroke="#000000" stroke-opacity="0.25" stroke-width="3.2"/>
<circle clip-path="url(#clip072)" cx="1945.11" cy="609.268" r="14.4" fill="#ff0000" fill-rule="evenodd" fill-opacity="0.25" stroke="#000000" stroke-opacity="0.25" stroke-width="3.2"/>
<circle clip-path="url(#clip072)" cx="1631.32" cy="1102.28" r="14.4" fill="#ff0000" fill-rule="evenodd" fill-opacity="0.25" stroke="#000000" stroke-opacity="0.25" stroke-width="3.2"/>
<circle clip-path="url(#clip072)" cx="761.341" cy="821.553" r="14.4" fill="#ff0000" fill-rule="evenodd" fill-opacity="0.25" stroke="#000000" stroke-opacity="0.25" stroke-width="3.2"/>
<circle clip-path="url(#clip072)" cx="1318.67" cy="1056.91" r="14.4" fill="#ff0000" fill-rule="evenodd" fill-opacity="0.25" stroke="#000000" stroke-opacity="0.25" stroke-width="3.2"/>
<circle clip-path="url(#clip072)" cx="619.101" cy="796.528" r="14.4" fill="#ff0000" fill-rule="evenodd" fill-opacity="0.25" stroke="#000000" stroke-opacity="0.25" stroke-width="3.2"/>
<circle clip-path="url(#clip072)" cx="1240.32" cy="1211.42" r="14.4" fill="#ff0000" fill-rule="evenodd" fill-opacity="0.25" stroke="#000000" stroke-opacity="0.25" stroke-width="3.2"/>
<circle clip-path="url(#clip072)" cx="1341.95" cy="1056.24" r="14.4" fill="#ff0000" fill-rule="evenodd" fill-opacity="0.25" stroke="#000000" stroke-opacity="0.25" stroke-width="3.2"/>
<circle clip-path="url(#clip072)" cx="1087.67" cy="1343.79" r="14.4" fill="#ff0000" fill-rule="evenodd" fill-opacity="0.25" stroke="#000000" stroke-opacity="0.25" stroke-width="3.2"/>
<circle clip-path="url(#clip072)" cx="1243.81" cy="1156.27" r="14.4" fill="#ff0000" fill-rule="evenodd" fill-opacity="0.25" stroke="#000000" stroke-opacity="0.25" stroke-width="3.2"/>
<circle clip-path="url(#clip072)" cx="387.38" cy="185.038" r="14.4" fill="#ff0000" fill-rule="evenodd" fill-opacity="0.25" stroke="#000000" stroke-opacity="0.25" stroke-width="3.2"/>
<circle clip-path="url(#clip072)" cx="786.312" cy="935.965" r="14.4" fill="#ff0000" fill-rule="evenodd" fill-opacity="0.25" stroke="#000000" stroke-opacity="0.25" stroke-width="3.2"/>
<circle clip-path="url(#clip072)" cx="366.723" cy="477.977" r="14.4" fill="#ff0000" fill-rule="evenodd" fill-opacity="0.25" stroke="#000000" stroke-opacity="0.25" stroke-width="3.2"/>
<circle clip-path="url(#clip072)" cx="2168.88" cy="627.799" r="14.4" fill="#ff0000" fill-rule="evenodd" fill-opacity="0.25" stroke="#000000" stroke-opacity="0.25" stroke-width="3.2"/>
<circle clip-path="url(#clip072)" cx="1029.19" cy="1047.57" r="14.4" fill="#ff0000" fill-rule="evenodd" fill-opacity="0.25" stroke="#000000" stroke-opacity="0.25" stroke-width="3.2"/>
<circle clip-path="url(#clip072)" cx="429.287" cy="274.89" r="14.4" fill="#ff0000" fill-rule="evenodd" fill-opacity="0.25" stroke="#000000" stroke-opacity="0.25" stroke-width="3.2"/>
<circle clip-path="url(#clip072)" cx="734.734" cy="705.38" r="14.4" fill="#ff0000" fill-rule="evenodd" fill-opacity="0.25" stroke="#000000" stroke-opacity="0.25" stroke-width="3.2"/>
<circle clip-path="url(#clip072)" cx="426.999" cy="677.833" r="14.4" fill="#ff0000" fill-rule="evenodd" fill-opacity="0.25" stroke="#000000" stroke-opacity="0.25" stroke-width="3.2"/>
<circle clip-path="url(#clip072)" cx="1801.02" cy="1121.98" r="14.4" fill="#ff0000" fill-rule="evenodd" fill-opacity="0.25" stroke="#000000" stroke-opacity="0.25" stroke-width="3.2"/>
<circle clip-path="url(#clip072)" cx="1975.14" cy="615.307" r="14.4" fill="#ff0000" fill-rule="evenodd" fill-opacity="0.25" stroke="#000000" stroke-opacity="0.25" stroke-width="3.2"/>
<circle clip-path="url(#clip072)" cx="1832.42" cy="735.565" r="14.4" fill="#ff0000" fill-rule="evenodd" fill-opacity="0.25" stroke="#000000" stroke-opacity="0.25" stroke-width="3.2"/>
<circle clip-path="url(#clip072)" cx="552.486" cy="554.137" r="14.4" fill="#ff0000" fill-rule="evenodd" fill-opacity="0.25" stroke="#000000" stroke-opacity="0.25" stroke-width="3.2"/>
<circle clip-path="url(#clip072)" cx="1966.38" cy="745.316" r="14.4" fill="#ff0000" fill-rule="evenodd" fill-opacity="0.25" stroke="#000000" stroke-opacity="0.25" stroke-width="3.2"/>
<circle clip-path="url(#clip072)" cx="2086.77" cy="621.674" r="14.4" fill="#ff0000" fill-rule="evenodd" fill-opacity="0.25" stroke="#000000" stroke-opacity="0.25" stroke-width="3.2"/>
<circle clip-path="url(#clip072)" cx="1474.55" cy="1094.36" r="14.4" fill="#ff0000" fill-rule="evenodd" fill-opacity="0.25" stroke="#000000" stroke-opacity="0.25" stroke-width="3.2"/>
<circle clip-path="url(#clip072)" cx="1999.83" cy="807.206" r="14.4" fill="#ff0000" fill-rule="evenodd" fill-opacity="0.25" stroke="#000000" stroke-opacity="0.25" stroke-width="3.2"/>
<circle clip-path="url(#clip072)" cx="1278.25" cy="997.742" r="14.4" fill="#ff0000" fill-rule="evenodd" fill-opacity="0.25" stroke="#000000" stroke-opacity="0.25" stroke-width="3.2"/>
<circle clip-path="url(#clip072)" cx="427.123" cy="508.342" r="14.4" fill="#ff0000" fill-rule="evenodd" fill-opacity="0.25" stroke="#000000" stroke-opacity="0.25" stroke-width="3.2"/>
<circle clip-path="url(#clip072)" cx="733.893" cy="1079.96" r="14.4" fill="#ff0000" fill-rule="evenodd" fill-opacity="0.25" stroke="#000000" stroke-opacity="0.25" stroke-width="3.2"/>
<polyline clip-path="url(#clip072)" style="stroke:#0000ff; stroke-linecap:round; stroke-linejoin:round; stroke-width:4; stroke-opacity:1; fill:none" points="309.067,255.382 333.869,300.135 358.671,343.768 383.473,386.283 408.275,427.679 433.077,467.956 457.879,507.114 482.681,545.153 507.483,582.073 532.285,617.874 557.087,652.556 581.89,686.119 606.692,718.563 631.494,749.888 656.296,780.094 681.098,809.181 705.9,837.149 730.702,863.999 755.504,889.729 780.306,914.34 805.108,937.832 829.91,960.206 854.712,981.46 879.514,1001.6 904.316,1020.61 929.118,1038.51 953.92,1055.29 978.722,1070.95 1003.52,1085.49 1028.33,1098.91 1053.13,1111.21 1077.93,1122.4 1102.73,1132.46 1127.53,1141.41 1152.34,1149.23 1177.14,1155.94 1201.94,1161.53 1226.74,1166 1251.54,1169.35 1276.35,1171.58 1301.15,1172.69 1325.95,1172.69 1350.75,1171.56 1375.56,1169.32 1400.36,1165.96 1425.16,1161.47 1449.96,1155.87 1474.76,1149.15 1499.57,1141.31 1524.37,1132.36 1549.17,1122.28 1573.97,1111.08 1598.77,1098.77 1623.58,1085.34 1648.38,1070.78 1673.18,1055.11 1697.98,1038.32 1722.78,1020.41 1747.59,1001.38 1772.39,981.234 1797.19,959.967 1821.99,937.582 1846.79,914.077 1871.6,889.454 1896.4,863.711 1921.2,836.85 1946,808.869 1970.8,779.77 1995.61,749.552 2020.41,718.214 2045.21,685.758 2070.01,652.183 2094.81,617.489 2119.62,581.675 2144.42,544.743 2169.22,506.692 2194.02,467.522 2218.82,427.233 2243.63,385.825 2268.43,343.298 2293.23,299.652 "/>
<path clip-path="url(#clip070)" d="M319.649 1379.86 L629.831 1379.86 L629.831 1224.34 L319.649 1224.34  Z" fill="#ffffff" fill-rule="evenodd" fill-opacity="1"/>
<polyline clip-path="url(#clip070)" style="stroke:#000000; stroke-linecap:round; stroke-linejoin:round; stroke-width:4; stroke-opacity:1; fill:none" points="319.649,1379.86 629.831,1379.86 629.831,1224.34 319.649,1224.34 319.649,1379.86 "/>
<circle clip-path="url(#clip070)" cx="413.125" cy="1276.18" r="20.48" fill="#ff0000" fill-rule="evenodd" fill-opacity="0.25" stroke="#000000" stroke-opacity="0.25" stroke-width="4.55111"/>
<path clip-path="url(#clip070)" d="M525.513 1271.47 L525.513 1257.44 L529.773 1257.44 L529.773 1293.46 L525.513 1293.46 L525.513 1289.57 Q524.171 1291.88 522.111 1293.02 Q520.074 1294.13 517.203 1294.13 Q512.504 1294.13 509.541 1290.38 Q506.602 1286.63 506.602 1280.52 Q506.602 1274.41 509.541 1270.66 Q512.504 1266.91 517.203 1266.91 Q520.074 1266.91 522.111 1268.04 Q524.171 1269.15 525.513 1271.47 M511 1280.52 Q511 1285.22 512.921 1287.9 Q514.865 1290.56 518.245 1290.56 Q521.625 1290.56 523.569 1287.9 Q525.513 1285.22 525.513 1280.52 Q525.513 1275.82 523.569 1273.16 Q521.625 1270.47 518.245 1270.47 Q514.865 1270.47 512.921 1273.16 Q511 1275.82 511 1280.52 Z" fill="#000000" fill-rule="nonzero" fill-opacity="1" /><path clip-path="url(#clip070)" d="M550.328 1280.42 Q545.166 1280.42 543.175 1281.6 Q541.185 1282.79 541.185 1285.63 Q541.185 1287.9 542.666 1289.24 Q544.171 1290.56 546.74 1290.56 Q550.282 1290.56 552.411 1288.06 Q554.564 1285.54 554.564 1281.37 L554.564 1280.42 L550.328 1280.42 M558.823 1278.66 L558.823 1293.46 L554.564 1293.46 L554.564 1289.52 Q553.106 1291.88 550.93 1293.02 Q548.754 1294.13 545.606 1294.13 Q541.624 1294.13 539.263 1291.91 Q536.925 1289.66 536.925 1285.91 Q536.925 1281.54 539.842 1279.31 Q542.782 1277.09 548.592 1277.09 L554.564 1277.09 L554.564 1276.67 Q554.564 1273.73 552.62 1272.14 Q550.698 1270.52 547.203 1270.52 Q544.981 1270.52 542.874 1271.05 Q540.768 1271.58 538.824 1272.65 L538.824 1268.71 Q541.162 1267.81 543.361 1267.37 Q545.56 1266.91 547.643 1266.91 Q553.268 1266.91 556.046 1269.82 Q558.823 1272.74 558.823 1278.66 Z" fill="#000000" fill-rule="nonzero" fill-opacity="1" /><path clip-path="url(#clip070)" d="M571.809 1260.17 L571.809 1267.53 L580.583 1267.53 L580.583 1270.84 L571.809 1270.84 L571.809 1284.91 Q571.809 1288.09 572.666 1288.99 Q573.546 1289.89 576.208 1289.89 L580.583 1289.89 L580.583 1293.46 L576.208 1293.46 Q571.277 1293.46 569.402 1291.63 Q567.527 1289.78 567.527 1284.91 L567.527 1270.84 L564.402 1270.84 L564.402 1267.53 L567.527 1267.53 L567.527 1260.17 L571.809 1260.17 Z" fill="#000000" fill-rule="nonzero" fill-opacity="1" /><path clip-path="url(#clip070)" d="M597.967 1280.42 Q592.805 1280.42 590.814 1281.6 Q588.823 1282.79 588.823 1285.63 Q588.823 1287.9 590.305 1289.24 Q591.809 1290.56 594.379 1290.56 Q597.92 1290.56 600.05 1288.06 Q602.203 1285.54 602.203 1281.37 L602.203 1280.42 L597.967 1280.42 M606.462 1278.66 L606.462 1293.46 L602.203 1293.46 L602.203 1289.52 Q600.745 1291.88 598.569 1293.02 Q596.393 1294.13 593.245 1294.13 Q589.263 1294.13 586.902 1291.91 Q584.564 1289.66 584.564 1285.91 Q584.564 1281.54 587.481 1279.31 Q590.421 1277.09 596.231 1277.09 L602.203 1277.09 L602.203 1276.67 Q602.203 1273.73 600.258 1272.14 Q598.337 1270.52 594.842 1270.52 Q592.62 1270.52 590.513 1271.05 Q588.407 1271.58 586.462 1272.65 L586.462 1268.71 Q588.8 1267.81 590.999 1267.37 Q593.198 1266.91 595.282 1266.91 Q600.907 1266.91 603.684 1269.82 Q606.462 1272.74 606.462 1278.66 Z" fill="#000000" fill-rule="nonzero" fill-opacity="1" /><polyline clip-path="url(#clip070)" style="stroke:#0000ff; stroke-linecap:round; stroke-linejoin:round; stroke-width:4; stroke-opacity:1; fill:none" points="343.018,1328.02 483.232,1328.02 "/>
<path clip-path="url(#clip070)" d="M523.106 1309.28 L523.106 1312.82 L519.032 1312.82 Q516.74 1312.82 515.838 1313.75 Q514.958 1314.67 514.958 1317.08 L514.958 1319.37 L521.972 1319.37 L521.972 1322.68 L514.958 1322.68 L514.958 1345.3 L510.676 1345.3 L510.676 1322.68 L506.602 1322.68 L506.602 1319.37 L510.676 1319.37 L510.676 1317.56 Q510.676 1313.24 512.689 1311.27 Q514.703 1309.28 519.078 1309.28 L523.106 1309.28 Z" fill="#000000" fill-rule="nonzero" fill-opacity="1" /><path clip-path="url(#clip070)" d="M526.671 1319.37 L530.93 1319.37 L530.93 1345.3 L526.671 1345.3 L526.671 1319.37 M526.671 1309.28 L530.93 1309.28 L530.93 1314.67 L526.671 1314.67 L526.671 1309.28 Z" fill="#000000" fill-rule="nonzero" fill-opacity="1" /><path clip-path="url(#clip070)" d="M544.055 1312.01 L544.055 1319.37 L552.828 1319.37 L552.828 1322.68 L544.055 1322.68 L544.055 1336.75 Q544.055 1339.93 544.911 1340.83 Q545.791 1341.73 548.453 1341.73 L552.828 1341.73 L552.828 1345.3 L548.453 1345.3 Q543.523 1345.3 541.648 1343.47 Q539.773 1341.62 539.773 1336.75 L539.773 1322.68 L536.648 1322.68 L536.648 1319.37 L539.773 1319.37 L539.773 1312.01 L544.055 1312.01 Z" fill="#000000" fill-rule="nonzero" fill-opacity="1" /></svg>
