<?xml version="1.0" encoding="utf-8"?>
<svg xmlns="http://www.w3.org/2000/svg" xmlns:xlink="http://www.w3.org/1999/xlink" width="600" height="400" viewBox="0 0 2400 1600">
<defs>
  <clipPath id="clip220">
    <rect x="0" y="0" width="2400" height="1600"/>
  </clipPath>
</defs>
<path clip-path="url(#clip220)" d="M0 1600 L2400 1600 L2400 0 L0 0  Z" fill="#ffffff" fill-rule="evenodd" fill-opacity="1"/>
<defs>
  <clipPath id="clip221">
    <rect x="480" y="0" width="1681" height="1600"/>
  </clipPath>
</defs>
<path clip-path="url(#clip220)" d="M257.69 1423.18 L2352.76 1423.18 L2352.76 47.2441 L257.69 47.2441  Z" fill="#ffffff" fill-rule="evenodd" fill-opacity="1"/>
<defs>
  <clipPath id="clip222">
    <rect x="257" y="47" width="2096" height="1377"/>
  </clipPath>
</defs>
<polyline clip-path="url(#clip222)" style="stroke:#000000; stroke-linecap:round; stroke-linejoin:round; stroke-width:2; stroke-opacity:0.1; fill:none" points="316.984,1423.18 316.984,47.2441 "/>
<polyline clip-path="url(#clip222)" style="stroke:#000000; stroke-linecap:round; stroke-linejoin:round; stroke-width:2; stroke-opacity:0.1; fill:none" points="811.104,1423.18 811.104,47.2441 "/>
<polyline clip-path="url(#clip222)" style="stroke:#000000; stroke-linecap:round; stroke-linejoin:round; stroke-width:2; stroke-opacity:0.1; fill:none" points="1305.22,1423.18 1305.22,47.2441 "/>
<polyline clip-path="url(#clip222)" style="stroke:#000000; stroke-linecap:round; stroke-linejoin:round; stroke-width:2; stroke-opacity:0.1; fill:none" points="1799.34,1423.18 1799.34,47.2441 "/>
<polyline clip-path="url(#clip222)" style="stroke:#000000; stroke-linecap:round; stroke-linejoin:round; stroke-width:2; stroke-opacity:0.1; fill:none" points="2293.46,1423.18 2293.46,47.2441 "/>
<polyline clip-path="url(#clip220)" style="stroke:#000000; stroke-linecap:round; stroke-linejoin:round; stroke-width:4; stroke-opacity:1; fill:none" points="257.69,1423.18 2352.76,1423.18 "/>
<polyline clip-path="url(#clip220)" style="stroke:#000000; stroke-linecap:round; stroke-linejoin:round; stroke-width:4; stroke-opacity:1; fill:none" points="316.984,1423.18 316.984,1404.28 "/>
<polyline clip-path="url(#clip220)" style="stroke:#000000; stroke-linecap:round; stroke-linejoin:round; stroke-width:4; stroke-opacity:1; fill:none" points="811.104,1423.18 811.104,1404.28 "/>
<polyline clip-path="url(#clip220)" style="stroke:#000000; stroke-linecap:round; stroke-linejoin:round; stroke-width:4; stroke-opacity:1; fill:none" points="1305.22,1423.18 1305.22,1404.28 "/>
<polyline clip-path="url(#clip220)" style="stroke:#000000; stroke-linecap:round; stroke-linejoin:round; stroke-width:4; stroke-opacity:1; fill:none" points="1799.34,1423.18 1799.34,1404.28 "/>
<polyline clip-path="url(#clip220)" style="stroke:#000000; stroke-linecap:round; stroke-linejoin:round; stroke-width:4; stroke-opacity:1; fill:none" points="2293.46,1423.18 2293.46,1404.28 "/>
<path clip-path="url(#clip220)" d="M279.288 1454.1 Q275.677 1454.1 273.848 1457.66 Q272.043 1461.2 272.043 1468.33 Q272.043 1475.44 273.848 1479.01 Q275.677 1482.55 279.288 1482.55 Q282.922 1482.55 284.728 1479.01 Q286.556 1475.44 286.556 1468.33 Q286.556 1461.2 284.728 1457.66 Q282.922 1454.1 279.288 1454.1 M279.288 1450.39 Q285.098 1450.39 288.154 1455 Q291.232 1459.58 291.232 1468.33 Q291.232 1477.06 288.154 1481.67 Q285.098 1486.25 279.288 1486.25 Q273.478 1486.25 270.399 1481.67 Q267.344 1477.06 267.344 1468.33 Q267.344 1459.58 270.399 1455 Q273.478 1450.39 279.288 1450.39 Z" fill="#000000" fill-rule="nonzero" fill-opacity="1" /><path clip-path="url(#clip220)" d="M299.45 1479.7 L304.334 1479.7 L304.334 1485.58 L299.45 1485.58 L299.45 1479.7 Z" fill="#000000" fill-rule="nonzero" fill-opacity="1" /><path clip-path="url(#clip220)" d="M324.519 1454.1 Q320.908 1454.1 319.079 1457.66 Q317.274 1461.2 317.274 1468.33 Q317.274 1475.44 319.079 1479.01 Q320.908 1482.55 324.519 1482.55 Q328.153 1482.55 329.959 1479.01 Q331.788 1475.44 331.788 1468.33 Q331.788 1461.2 329.959 1457.66 Q328.153 1454.1 324.519 1454.1 M324.519 1450.39 Q330.329 1450.39 333.385 1455 Q336.464 1459.58 336.464 1468.33 Q336.464 1477.06 333.385 1481.67 Q330.329 1486.25 324.519 1486.25 Q318.709 1486.25 315.63 1481.67 Q312.575 1477.06 312.575 1468.33 Q312.575 1459.58 315.63 1455 Q318.709 1450.39 324.519 1450.39 Z" fill="#000000" fill-rule="nonzero" fill-opacity="1" /><path clip-path="url(#clip220)" d="M354.681 1454.1 Q351.07 1454.1 349.241 1457.66 Q347.436 1461.2 347.436 1468.33 Q347.436 1475.44 349.241 1479.01 Q351.07 1482.55 354.681 1482.55 Q358.315 1482.55 360.121 1479.01 Q361.949 1475.44 361.949 1468.33 Q361.949 1461.2 360.121 1457.66 Q358.315 1454.1 354.681 1454.1 M354.681 1450.39 Q360.491 1450.39 363.547 1455 Q366.625 1459.58 366.625 1468.33 Q366.625 1477.06 363.547 1481.67 Q360.491 1486.25 354.681 1486.25 Q348.871 1486.25 345.792 1481.67 Q342.737 1477.06 342.737 1468.33 Q342.737 1459.58 345.792 1455 Q348.871 1450.39 354.681 1450.39 Z" fill="#000000" fill-rule="nonzero" fill-opacity="1" /><path clip-path="url(#clip220)" d="M773.905 1454.1 Q770.294 1454.1 768.465 1457.66 Q766.66 1461.2 766.66 1468.33 Q766.66 1475.44 768.465 1479.01 Q770.294 1482.55 773.905 1482.55 Q777.539 1482.55 779.345 1479.01 Q781.173 1475.44 781.173 1468.33 Q781.173 1461.2 779.345 1457.66 Q777.539 1454.1 773.905 1454.1 M773.905 1450.39 Q779.715 1450.39 782.771 1455 Q785.849 1459.58 785.849 1468.33 Q785.849 1477.06 782.771 1481.67 Q779.715 1486.25 773.905 1486.25 Q768.095 1486.25 765.016 1481.67 Q761.96 1477.06 761.96 1468.33 Q761.96 1459.58 765.016 1455 Q768.095 1450.39 773.905 1450.39 Z" fill="#000000" fill-rule="nonzero" fill-opacity="1" /><path clip-path="url(#clip220)" d="M794.067 1479.7 L798.951 1479.7 L798.951 1485.58 L794.067 1485.58 L794.067 1479.7 Z" fill="#000000" fill-rule="nonzero" fill-opacity="1" /><path clip-path="url(#clip220)" d="M813.164 1481.64 L829.483 1481.64 L829.483 1485.58 L807.539 1485.58 L807.539 1481.64 Q810.201 1478.89 814.784 1474.26 Q819.391 1469.61 820.571 1468.27 Q822.817 1465.74 823.696 1464.01 Q824.599 1462.25 824.599 1460.56 Q824.599 1457.8 822.655 1456.07 Q820.733 1454.33 817.631 1454.33 Q815.432 1454.33 812.979 1455.09 Q810.548 1455.86 807.77 1457.41 L807.77 1452.69 Q810.594 1451.55 813.048 1450.97 Q815.502 1450.39 817.539 1450.39 Q822.909 1450.39 826.104 1453.08 Q829.298 1455.77 829.298 1460.26 Q829.298 1462.39 828.488 1464.31 Q827.701 1466.2 825.594 1468.8 Q825.016 1469.47 821.914 1472.69 Q818.812 1475.88 813.164 1481.64 Z" fill="#000000" fill-rule="nonzero" fill-opacity="1" /><path clip-path="url(#clip220)" d="M839.344 1451.02 L857.701 1451.02 L857.701 1454.96 L843.627 1454.96 L843.627 1463.43 Q844.645 1463.08 845.664 1462.92 Q846.682 1462.73 847.701 1462.73 Q853.488 1462.73 856.867 1465.9 Q860.247 1469.08 860.247 1474.49 Q860.247 1480.07 856.775 1483.17 Q853.303 1486.25 846.983 1486.25 Q844.807 1486.25 842.539 1485.88 Q840.293 1485.51 837.886 1484.77 L837.886 1480.07 Q839.969 1481.2 842.192 1481.76 Q844.414 1482.32 846.891 1482.32 Q850.895 1482.32 853.233 1480.21 Q855.571 1478.1 855.571 1474.49 Q855.571 1470.88 853.233 1468.77 Q850.895 1466.67 846.891 1466.67 Q845.016 1466.67 843.141 1467.08 Q841.289 1467.5 839.344 1468.38 L839.344 1451.02 Z" fill="#000000" fill-rule="nonzero" fill-opacity="1" /><path clip-path="url(#clip220)" d="M1267.53 1454.1 Q1263.92 1454.1 1262.09 1457.66 Q1260.28 1461.2 1260.28 1468.33 Q1260.28 1475.44 1262.09 1479.01 Q1263.92 1482.55 1267.53 1482.55 Q1271.16 1482.55 1272.97 1479.01 Q1274.79 1475.44 1274.79 1468.33 Q1274.79 1461.2 1272.97 1457.66 Q1271.16 1454.1 1267.53 1454.1 M1267.53 1450.39 Q1273.34 1450.39 1276.39 1455 Q1279.47 1459.58 1279.47 1468.33 Q1279.47 1477.06 1276.39 1481.67 Q1273.34 1486.25 1267.53 1486.25 Q1261.72 1486.25 1258.64 1481.67 Q1255.58 1477.06 1255.58 1468.33 Q1255.58 1459.58 1258.64 1455 Q1261.72 1450.39 1267.53 1450.39 Z" fill="#000000" fill-rule="nonzero" fill-opacity="1" /><path clip-path="url(#clip220)" d="M1287.69 1479.7 L1292.57 1479.7 L1292.57 1485.58 L1287.69 1485.58 L1287.69 1479.7 Z" fill="#000000" fill-rule="nonzero" fill-opacity="1" /><path clip-path="url(#clip220)" d="M1302.8 1451.02 L1321.16 1451.02 L1321.16 1454.96 L1307.09 1454.96 L1307.09 1463.43 Q1308.1 1463.08 1309.12 1462.92 Q1310.14 1462.73 1311.16 1462.73 Q1316.95 1462.73 1320.33 1465.9 Q1323.71 1469.08 1323.71 1474.49 Q1323.71 1480.07 1320.23 1483.17 Q1316.76 1486.25 1310.44 1486.25 Q1308.27 1486.25 1306 1485.88 Q1303.75 1485.51 1301.35 1484.77 L1301.35 1480.07 Q1303.43 1481.2 1305.65 1481.76 Q1307.87 1482.32 1310.35 1482.32 Q1314.35 1482.32 1316.69 1480.21 Q1319.03 1478.1 1319.03 1474.49 Q1319.03 1470.88 1316.69 1468.77 Q1314.35 1466.67 1310.35 1466.67 Q1308.48 1466.67 1306.6 1467.08 Q1304.75 1467.5 1302.8 1468.38 L1302.8 1451.02 Z" fill="#000000" fill-rule="nonzero" fill-opacity="1" /><path clip-path="url(#clip220)" d="M1342.92 1454.1 Q1339.31 1454.1 1337.48 1457.66 Q1335.67 1461.2 1335.67 1468.33 Q1335.67 1475.44 1337.48 1479.01 Q1339.31 1482.55 1342.92 1482.55 Q1346.55 1482.55 1348.36 1479.01 Q1350.19 1475.44 1350.19 1468.33 Q1350.19 1461.2 1348.36 1457.66 Q1346.55 1454.1 1342.92 1454.1 M1342.92 1450.39 Q1348.73 1450.39 1351.79 1455 Q1354.86 1459.58 1354.86 1468.33 Q1354.86 1477.06 1351.79 1481.67 Q1348.73 1486.25 1342.92 1486.25 Q1337.11 1486.25 1334.03 1481.67 Q1330.98 1477.06 1330.98 1468.33 Q1330.98 1459.58 1334.03 1455 Q1337.11 1450.39 1342.92 1450.39 Z" fill="#000000" fill-rule="nonzero" fill-opacity="1" /><path clip-path="url(#clip220)" d="M1762.14 1454.1 Q1758.53 1454.1 1756.7 1457.66 Q1754.9 1461.2 1754.9 1468.33 Q1754.9 1475.44 1756.7 1479.01 Q1758.53 1482.55 1762.14 1482.55 Q1765.78 1482.55 1767.58 1479.01 Q1769.41 1475.44 1769.41 1468.33 Q1769.41 1461.2 1767.58 1457.66 Q1765.78 1454.1 1762.14 1454.1 M1762.14 1450.39 Q1767.95 1450.39 1771.01 1455 Q1774.09 1459.58 1774.09 1468.33 Q1774.09 1477.06 1771.01 1481.67 Q1767.95 1486.25 1762.14 1486.25 Q1756.33 1486.25 1753.25 1481.67 Q1750.2 1477.06 1750.2 1468.33 Q1750.2 1459.58 1753.25 1455 Q1756.33 1450.39 1762.14 1450.39 Z" fill="#000000" fill-rule="nonzero" fill-opacity="1" /><path clip-path="url(#clip220)" d="M1782.31 1479.7 L1787.19 1479.7 L1787.19 1485.58 L1782.31 1485.58 L1782.31 1479.7 Z" fill="#000000" fill-rule="nonzero" fill-opacity="1" /><path clip-path="url(#clip220)" d="M1796.19 1451.02 L1818.42 1451.02 L1818.42 1453.01 L1805.87 1485.58 L1800.99 1485.58 L1812.79 1454.96 L1796.19 1454.96 L1796.19 1451.02 Z" fill="#000000" fill-rule="nonzero" fill-opacity="1" /><path clip-path="url(#clip220)" d="M1827.58 1451.02 L1845.94 1451.02 L1845.94 1454.96 L1831.87 1454.96 L1831.87 1463.43 Q1832.88 1463.08 1833.9 1462.92 Q1834.92 1462.73 1835.94 1462.73 Q1841.73 1462.73 1845.11 1465.9 Q1848.49 1469.08 1848.49 1474.49 Q1848.49 1480.07 1845.01 1483.17 Q1841.54 1486.25 1835.22 1486.25 Q1833.05 1486.25 1830.78 1485.88 Q1828.53 1485.51 1826.12 1484.77 L1826.12 1480.07 Q1828.21 1481.2 1830.43 1481.76 Q1832.65 1482.32 1835.13 1482.32 Q1839.13 1482.32 1841.47 1480.21 Q1843.81 1478.1 1843.81 1474.49 Q1843.81 1470.88 1841.47 1468.77 Q1839.13 1466.67 1835.13 1466.67 Q1833.25 1466.67 1831.38 1467.08 Q1829.53 1467.5 1827.58 1468.38 L1827.58 1451.02 Z" fill="#000000" fill-rule="nonzero" fill-opacity="1" /><path clip-path="url(#clip220)" d="M2245.53 1481.64 L2253.17 1481.64 L2253.17 1455.28 L2244.86 1456.95 L2244.86 1452.69 L2253.13 1451.02 L2257.8 1451.02 L2257.8 1481.64 L2265.44 1481.64 L2265.44 1485.58 L2245.53 1485.58 L2245.53 1481.64 Z" fill="#000000" fill-rule="nonzero" fill-opacity="1" /><path clip-path="url(#clip220)" d="M2274.89 1479.7 L2279.77 1479.7 L2279.77 1485.58 L2274.89 1485.58 L2274.89 1479.7 Z" fill="#000000" fill-rule="nonzero" fill-opacity="1" /><path clip-path="url(#clip220)" d="M2299.95 1454.1 Q2296.34 1454.1 2294.51 1457.66 Q2292.71 1461.2 2292.71 1468.33 Q2292.71 1475.44 2294.51 1479.01 Q2296.34 1482.55 2299.95 1482.55 Q2303.59 1482.55 2305.39 1479.01 Q2307.22 1475.44 2307.22 1468.33 Q2307.22 1461.2 2305.39 1457.66 Q2303.59 1454.1 2299.95 1454.1 M2299.95 1450.39 Q2305.76 1450.39 2308.82 1455 Q2311.9 1459.58 2311.9 1468.33 Q2311.9 1477.06 2308.82 1481.67 Q2305.76 1486.25 2299.95 1486.25 Q2294.14 1486.25 2291.07 1481.67 Q2288.01 1477.06 2288.01 1468.33 Q2288.01 1459.58 2291.07 1455 Q2294.14 1450.39 2299.95 1450.39 Z" fill="#000000" fill-rule="nonzero" fill-opacity="1" /><path clip-path="url(#clip220)" d="M2330.12 1454.1 Q2326.51 1454.1 2324.68 1457.66 Q2322.87 1461.2 2322.87 1468.33 Q2322.87 1475.44 2324.68 1479.01 Q2326.51 1482.55 2330.12 1482.55 Q2333.75 1482.55 2335.56 1479.01 Q2337.38 1475.44 2337.38 1468.33 Q2337.38 1461.2 2335.56 1457.66 Q2333.75 1454.1 2330.12 1454.1 M2330.12 1450.39 Q2335.93 1450.39 2338.98 1455 Q2342.06 1459.58 2342.06 1468.33 Q2342.06 1477.06 2338.98 1481.67 Q2335.93 1486.25 2330.12 1486.25 Q2324.31 1486.25 2321.23 1481.67 Q2318.17 1477.06 2318.17 1468.33 Q2318.17 1459.58 2321.23 1455 Q2324.31 1450.39 2330.12 1450.39 Z" fill="#000000" fill-rule="nonzero" fill-opacity="1" /><path clip-path="url(#clip220)" d="M1321.84 1532.4 L1308.95 1549.74 L1322.51 1568.04 L1315.6 1568.04 L1305.22 1554.04 L1294.85 1568.04 L1287.94 1568.04 L1301.79 1549.39 L1289.12 1532.4 L1296.02 1532.4 L1305.48 1545.1 L1314.93 1532.4 L1321.84 1532.4 Z" fill="#000000" fill-rule="nonzero" fill-opacity="1" /><polyline clip-path="url(#clip222)" style="stroke:#000000; stroke-linecap:round; stroke-linejoin:round; stroke-width:2; stroke-opacity:0.1; fill:none" points="257.69,1272.23 2352.76,1272.23 "/>
<polyline clip-path="url(#clip222)" style="stroke:#000000; stroke-linecap:round; stroke-linejoin:round; stroke-width:2; stroke-opacity:0.1; fill:none" points="257.69,1114.79 2352.76,1114.79 "/>
<polyline clip-path="url(#clip222)" style="stroke:#000000; stroke-linecap:round; stroke-linejoin:round; stroke-width:2; stroke-opacity:0.1; fill:none" points="257.69,957.353 2352.76,957.353 "/>
<polyline clip-path="url(#clip222)" style="stroke:#000000; stroke-linecap:round; stroke-linejoin:round; stroke-width:2; stroke-opacity:0.1; fill:none" points="257.69,799.913 2352.76,799.913 "/>
<polyline clip-path="url(#clip222)" style="stroke:#000000; stroke-linecap:round; stroke-linejoin:round; stroke-width:2; stroke-opacity:0.1; fill:none" points="257.69,642.473 2352.76,642.473 "/>
<polyline clip-path="url(#clip222)" style="stroke:#000000; stroke-linecap:round; stroke-linejoin:round; stroke-width:2; stroke-opacity:0.1; fill:none" points="257.69,485.033 2352.76,485.033 "/>
<polyline clip-path="url(#clip222)" style="stroke:#000000; stroke-linecap:round; stroke-linejoin:round; stroke-width:2; stroke-opacity:0.1; fill:none" points="257.69,327.593 2352.76,327.593 "/>
<polyline clip-path="url(#clip222)" style="stroke:#000000; stroke-linecap:round; stroke-linejoin:round; stroke-width:2; stroke-opacity:0.1; fill:none" points="257.69,170.153 2352.76,170.153 "/>
<polyline clip-path="url(#clip220)" style="stroke:#000000; stroke-linecap:round; stroke-linejoin:round; stroke-width:4; stroke-opacity:1; fill:none" points="257.69,1423.18 257.69,47.2441 "/>
<polyline clip-path="url(#clip220)" style="stroke:#000000; stroke-linecap:round; stroke-linejoin:round; stroke-width:4; stroke-opacity:1; fill:none" points="257.69,1272.23 276.588,1272.23 "/>
<polyline clip-path="url(#clip220)" style="stroke:#000000; stroke-linecap:round; stroke-linejoin:round; stroke-width:4; stroke-opacity:1; fill:none" points="257.69,1114.79 276.588,1114.79 "/>
<polyline clip-path="url(#clip220)" style="stroke:#000000; stroke-linecap:round; stroke-linejoin:round; stroke-width:4; stroke-opacity:1; fill:none" points="257.69,957.353 276.588,957.353 "/>
<polyline clip-path="url(#clip220)" style="stroke:#000000; stroke-linecap:round; stroke-linejoin:round; stroke-width:4; stroke-opacity:1; fill:none" points="257.69,799.913 276.588,799.913 "/>
<polyline clip-path="url(#clip220)" style="stroke:#000000; stroke-linecap:round; stroke-linejoin:round; stroke-width:4; stroke-opacity:1; fill:none" points="257.69,642.473 276.588,642.473 "/>
<polyline clip-path="url(#clip220)" style="stroke:#000000; stroke-linecap:round; stroke-linejoin:round; stroke-width:4; stroke-opacity:1; fill:none" points="257.69,485.033 276.588,485.033 "/>
<polyline clip-path="url(#clip220)" style="stroke:#000000; stroke-linecap:round; stroke-linejoin:round; stroke-width:4; stroke-opacity:1; fill:none" points="257.69,327.593 276.588,327.593 "/>
<polyline clip-path="url(#clip220)" style="stroke:#000000; stroke-linecap:round; stroke-linejoin:round; stroke-width:4; stroke-opacity:1; fill:none" points="257.69,170.153 276.588,170.153 "/>
<path clip-path="url(#clip220)" d="M114.584 1272.68 L144.26 1272.68 L144.26 1276.62 L114.584 1276.62 L114.584 1272.68 Z" fill="#000000" fill-rule="nonzero" fill-opacity="1" /><path clip-path="url(#clip220)" d="M164.352 1258.03 Q160.741 1258.03 158.913 1261.6 Q157.107 1265.14 157.107 1272.27 Q157.107 1279.37 158.913 1282.94 Q160.741 1286.48 164.352 1286.48 Q167.987 1286.48 169.792 1282.94 Q171.621 1279.37 171.621 1272.27 Q171.621 1265.14 169.792 1261.6 Q167.987 1258.03 164.352 1258.03 M164.352 1254.33 Q170.163 1254.33 173.218 1258.94 Q176.297 1263.52 176.297 1272.27 Q176.297 1281 173.218 1285.6 Q170.163 1290.18 164.352 1290.18 Q158.542 1290.18 155.464 1285.6 Q152.408 1281 152.408 1272.27 Q152.408 1263.52 155.464 1258.94 Q158.542 1254.33 164.352 1254.33 Z" fill="#000000" fill-rule="nonzero" fill-opacity="1" /><path clip-path="url(#clip220)" d="M184.514 1283.63 L189.399 1283.63 L189.399 1289.51 L184.514 1289.51 L184.514 1283.63 Z" fill="#000000" fill-rule="nonzero" fill-opacity="1" /><path clip-path="url(#clip220)" d="M210.162 1270.37 Q207.014 1270.37 205.162 1272.52 Q203.334 1274.68 203.334 1278.43 Q203.334 1282.15 205.162 1284.33 Q207.014 1286.48 210.162 1286.48 Q213.311 1286.48 215.139 1284.33 Q216.991 1282.15 216.991 1278.43 Q216.991 1274.68 215.139 1272.52 Q213.311 1270.37 210.162 1270.37 M219.445 1255.72 L219.445 1259.98 Q217.686 1259.14 215.88 1258.7 Q214.098 1258.26 212.338 1258.26 Q207.709 1258.26 205.255 1261.39 Q202.824 1264.51 202.477 1270.83 Q203.843 1268.82 205.903 1267.75 Q207.963 1266.67 210.44 1266.67 Q215.649 1266.67 218.658 1269.84 Q221.69 1272.99 221.69 1278.43 Q221.69 1283.75 218.542 1286.97 Q215.394 1290.18 210.162 1290.18 Q204.167 1290.18 200.996 1285.6 Q197.825 1281 197.825 1272.27 Q197.825 1264.07 201.713 1259.21 Q205.602 1254.33 212.153 1254.33 Q213.912 1254.33 215.695 1254.68 Q217.5 1255.02 219.445 1255.72 Z" fill="#000000" fill-rule="nonzero" fill-opacity="1" /><path clip-path="url(#clip220)" d="M114.26 1115.24 L143.936 1115.24 L143.936 1119.18 L114.26 1119.18 L114.26 1115.24 Z" fill="#000000" fill-rule="nonzero" fill-opacity="1" /><path clip-path="url(#clip220)" d="M164.028 1100.59 Q160.417 1100.59 158.589 1104.16 Q156.783 1107.7 156.783 1114.83 Q156.783 1121.93 158.589 1125.5 Q160.417 1129.04 164.028 1129.04 Q167.663 1129.04 169.468 1125.5 Q171.297 1121.93 171.297 1114.83 Q171.297 1107.7 169.468 1104.16 Q167.663 1100.59 164.028 1100.59 M164.028 1096.89 Q169.839 1096.89 172.894 1101.49 Q175.973 1106.08 175.973 1114.83 Q175.973 1123.55 172.894 1128.16 Q169.839 1132.74 164.028 1132.74 Q158.218 1132.74 155.14 1128.16 Q152.084 1123.55 152.084 1114.83 Q152.084 1106.08 155.14 1101.49 Q158.218 1096.89 164.028 1096.89 Z" fill="#000000" fill-rule="nonzero" fill-opacity="1" /><path clip-path="url(#clip220)" d="M184.19 1126.19 L189.075 1126.19 L189.075 1132.07 L184.19 1132.07 L184.19 1126.19 Z" fill="#000000" fill-rule="nonzero" fill-opacity="1" /><path clip-path="url(#clip220)" d="M212.107 1101.59 L200.301 1120.04 L212.107 1120.04 L212.107 1101.59 M210.88 1097.51 L216.76 1097.51 L216.76 1120.04 L221.69 1120.04 L221.69 1123.93 L216.76 1123.93 L216.76 1132.07 L212.107 1132.07 L212.107 1123.93 L196.505 1123.93 L196.505 1119.41 L210.88 1097.51 Z" fill="#000000" fill-rule="nonzero" fill-opacity="1" /><path clip-path="url(#clip220)" d="M116.343 957.805 L146.019 957.805 L146.019 961.74 L116.343 961.74 L116.343 957.805 Z" fill="#000000" fill-rule="nonzero" fill-opacity="1" /><path clip-path="url(#clip220)" d="M166.112 943.152 Q162.501 943.152 160.672 946.717 Q158.866 950.258 158.866 957.388 Q158.866 964.494 160.672 968.059 Q162.501 971.601 166.112 971.601 Q169.746 971.601 171.552 968.059 Q173.38 964.494 173.38 957.388 Q173.38 950.258 171.552 946.717 Q169.746 943.152 166.112 943.152 M166.112 939.448 Q171.922 939.448 174.977 944.055 Q178.056 948.638 178.056 957.388 Q178.056 966.115 174.977 970.721 Q171.922 975.305 166.112 975.305 Q160.302 975.305 157.223 970.721 Q154.167 966.115 154.167 957.388 Q154.167 948.638 157.223 944.055 Q160.302 939.448 166.112 939.448 Z" fill="#000000" fill-rule="nonzero" fill-opacity="1" /><path clip-path="url(#clip220)" d="M186.274 968.754 L191.158 968.754 L191.158 974.633 L186.274 974.633 L186.274 968.754 Z" fill="#000000" fill-rule="nonzero" fill-opacity="1" /><path clip-path="url(#clip220)" d="M205.371 970.698 L221.69 970.698 L221.69 974.633 L199.746 974.633 L199.746 970.698 Q202.408 967.944 206.991 963.314 Q211.598 958.661 212.778 957.319 Q215.024 954.795 215.903 953.059 Q216.806 951.3 216.806 949.61 Q216.806 946.856 214.861 945.12 Q212.94 943.383 209.838 943.383 Q207.639 943.383 205.186 944.147 Q202.755 944.911 199.977 946.462 L199.977 941.74 Q202.801 940.606 205.255 940.027 Q207.709 939.448 209.746 939.448 Q215.116 939.448 218.311 942.133 Q221.505 944.819 221.505 949.309 Q221.505 951.439 220.695 953.36 Q219.908 955.258 217.801 957.851 Q217.223 958.522 214.121 961.74 Q211.019 964.934 205.371 970.698 Z" fill="#000000" fill-rule="nonzero" fill-opacity="1" /><path clip-path="url(#clip220)" d="M164.515 785.712 Q160.903 785.712 159.075 789.277 Q157.269 792.818 157.269 799.948 Q157.269 807.054 159.075 810.619 Q160.903 814.161 164.515 814.161 Q168.149 814.161 169.954 810.619 Q171.783 807.054 171.783 799.948 Q171.783 792.818 169.954 789.277 Q168.149 785.712 164.515 785.712 M164.515 782.008 Q170.325 782.008 173.38 786.615 Q176.459 791.198 176.459 799.948 Q176.459 808.675 173.38 813.281 Q170.325 817.864 164.515 817.864 Q158.704 817.864 155.626 813.281 Q152.57 808.675 152.57 799.948 Q152.57 791.198 155.626 786.615 Q158.704 782.008 164.515 782.008 Z" fill="#000000" fill-rule="nonzero" fill-opacity="1" /><path clip-path="url(#clip220)" d="M184.676 811.314 L189.561 811.314 L189.561 817.193 L184.676 817.193 L184.676 811.314 Z" fill="#000000" fill-rule="nonzero" fill-opacity="1" /><path clip-path="url(#clip220)" d="M209.746 785.712 Q206.135 785.712 204.306 789.277 Q202.5 792.818 202.5 799.948 Q202.5 807.054 204.306 810.619 Q206.135 814.161 209.746 814.161 Q213.38 814.161 215.186 810.619 Q217.014 807.054 217.014 799.948 Q217.014 792.818 215.186 789.277 Q213.38 785.712 209.746 785.712 M209.746 782.008 Q215.556 782.008 218.611 786.615 Q221.69 791.198 221.69 799.948 Q221.69 808.675 218.611 813.281 Q215.556 817.864 209.746 817.864 Q203.936 817.864 200.857 813.281 Q197.801 808.675 197.801 799.948 Q197.801 791.198 200.857 786.615 Q203.936 782.008 209.746 782.008 Z" fill="#000000" fill-rule="nonzero" fill-opacity="1" /><path clip-path="url(#clip220)" d="M166.112 628.272 Q162.501 628.272 160.672 631.836 Q158.866 635.378 158.866 642.508 Q158.866 649.614 160.672 653.179 Q162.501 656.721 166.112 656.721 Q169.746 656.721 171.552 653.179 Q173.38 649.614 173.38 642.508 Q173.38 635.378 171.552 631.836 Q169.746 628.272 166.112 628.272 M166.112 624.568 Q171.922 624.568 174.977 629.174 Q178.056 633.758 178.056 642.508 Q178.056 651.235 174.977 655.841 Q171.922 660.424 166.112 660.424 Q160.302 660.424 157.223 655.841 Q154.167 651.235 154.167 642.508 Q154.167 633.758 157.223 629.174 Q160.302 624.568 166.112 624.568 Z" fill="#000000" fill-rule="nonzero" fill-opacity="1" /><path clip-path="url(#clip220)" d="M186.274 653.873 L191.158 653.873 L191.158 659.753 L186.274 659.753 L186.274 653.873 Z" fill="#000000" fill-rule="nonzero" fill-opacity="1" /><path clip-path="url(#clip220)" d="M205.371 655.818 L221.69 655.818 L221.69 659.753 L199.746 659.753 L199.746 655.818 Q202.408 653.063 206.991 648.434 Q211.598 643.781 212.778 642.438 Q215.024 639.915 215.903 638.179 Q216.806 636.42 216.806 634.73 Q216.806 631.975 214.861 630.239 Q212.94 628.503 209.838 628.503 Q207.639 628.503 205.186 629.267 Q202.755 630.031 199.977 631.582 L199.977 626.86 Q202.801 625.725 205.255 625.147 Q207.709 624.568 209.746 624.568 Q215.116 624.568 218.311 627.253 Q221.505 629.938 221.505 634.429 Q221.505 636.559 220.695 638.48 Q219.908 640.378 217.801 642.971 Q217.223 643.642 214.121 646.86 Q211.019 650.054 205.371 655.818 Z" fill="#000000" fill-rule="nonzero" fill-opacity="1" /><path clip-path="url(#clip220)" d="M164.028 470.832 Q160.417 470.832 158.589 474.396 Q156.783 477.938 156.783 485.068 Q156.783 492.174 158.589 495.739 Q160.417 499.28 164.028 499.28 Q167.663 499.28 169.468 495.739 Q171.297 492.174 171.297 485.068 Q171.297 477.938 169.468 474.396 Q167.663 470.832 164.028 470.832 M164.028 467.128 Q169.839 467.128 172.894 471.734 Q175.973 476.318 175.973 485.068 Q175.973 493.794 172.894 498.401 Q169.839 502.984 164.028 502.984 Q158.218 502.984 155.14 498.401 Q152.084 493.794 152.084 485.068 Q152.084 476.318 155.14 471.734 Q158.218 467.128 164.028 467.128 Z" fill="#000000" fill-rule="nonzero" fill-opacity="1" /><path clip-path="url(#clip220)" d="M184.19 496.433 L189.075 496.433 L189.075 502.313 L184.19 502.313 L184.19 496.433 Z" fill="#000000" fill-rule="nonzero" fill-opacity="1" /><path clip-path="url(#clip220)" d="M212.107 471.827 L200.301 490.276 L212.107 490.276 L212.107 471.827 M210.88 467.753 L216.76 467.753 L216.76 490.276 L221.69 490.276 L221.69 494.165 L216.76 494.165 L216.76 502.313 L212.107 502.313 L212.107 494.165 L196.505 494.165 L196.505 489.651 L210.88 467.753 Z" fill="#000000" fill-rule="nonzero" fill-opacity="1" /><path clip-path="url(#clip220)" d="M164.352 313.391 Q160.741 313.391 158.913 316.956 Q157.107 320.498 157.107 327.627 Q157.107 334.734 158.913 338.299 Q160.741 341.84 164.352 341.84 Q167.987 341.84 169.792 338.299 Q171.621 334.734 171.621 327.627 Q171.621 320.498 169.792 316.956 Q167.987 313.391 164.352 313.391 M164.352 309.688 Q170.163 309.688 173.218 314.294 Q176.297 318.877 176.297 327.627 Q176.297 336.354 173.218 340.961 Q170.163 345.544 164.352 345.544 Q158.542 345.544 155.464 340.961 Q152.408 336.354 152.408 327.627 Q152.408 318.877 155.464 314.294 Q158.542 309.688 164.352 309.688 Z" fill="#000000" fill-rule="nonzero" fill-opacity="1" /><path clip-path="url(#clip220)" d="M184.514 338.993 L189.399 338.993 L189.399 344.873 L184.514 344.873 L184.514 338.993 Z" fill="#000000" fill-rule="nonzero" fill-opacity="1" /><path clip-path="url(#clip220)" d="M210.162 325.729 Q207.014 325.729 205.162 327.882 Q203.334 330.035 203.334 333.785 Q203.334 337.512 205.162 339.688 Q207.014 341.84 210.162 341.84 Q213.311 341.84 215.139 339.688 Q216.991 337.512 216.991 333.785 Q216.991 330.035 215.139 327.882 Q213.311 325.729 210.162 325.729 M219.445 311.077 L219.445 315.336 Q217.686 314.503 215.88 314.063 Q214.098 313.623 212.338 313.623 Q207.709 313.623 205.255 316.748 Q202.824 319.873 202.477 326.192 Q203.843 324.178 205.903 323.114 Q207.963 322.026 210.44 322.026 Q215.649 322.026 218.658 325.197 Q221.69 328.345 221.69 333.785 Q221.69 339.109 218.542 342.326 Q215.394 345.544 210.162 345.544 Q204.167 345.544 200.996 340.961 Q197.825 336.354 197.825 327.627 Q197.825 319.433 201.713 314.572 Q205.602 309.688 212.153 309.688 Q213.912 309.688 215.695 310.035 Q217.5 310.382 219.445 311.077 Z" fill="#000000" fill-rule="nonzero" fill-opacity="1" /><path clip-path="url(#clip220)" d="M164.607 155.951 Q160.996 155.951 159.167 159.516 Q157.362 163.058 157.362 170.187 Q157.362 177.294 159.167 180.859 Q160.996 184.4 164.607 184.4 Q168.241 184.4 170.047 180.859 Q171.876 177.294 171.876 170.187 Q171.876 163.058 170.047 159.516 Q168.241 155.951 164.607 155.951 M164.607 152.248 Q170.417 152.248 173.473 156.854 Q176.551 161.437 176.551 170.187 Q176.551 178.914 173.473 183.521 Q170.417 188.104 164.607 188.104 Q158.797 188.104 155.718 183.521 Q152.663 178.914 152.663 170.187 Q152.663 161.437 155.718 156.854 Q158.797 152.248 164.607 152.248 Z" fill="#000000" fill-rule="nonzero" fill-opacity="1" /><path clip-path="url(#clip220)" d="M184.769 181.553 L189.653 181.553 L189.653 187.433 L184.769 187.433 L184.769 181.553 Z" fill="#000000" fill-rule="nonzero" fill-opacity="1" /><path clip-path="url(#clip220)" d="M209.838 171.021 Q206.505 171.021 204.584 172.803 Q202.686 174.585 202.686 177.71 Q202.686 180.835 204.584 182.618 Q206.505 184.4 209.838 184.4 Q213.172 184.4 215.093 182.618 Q217.014 180.812 217.014 177.71 Q217.014 174.585 215.093 172.803 Q213.195 171.021 209.838 171.021 M205.162 169.03 Q202.153 168.289 200.463 166.229 Q198.797 164.169 198.797 161.206 Q198.797 157.062 201.737 154.655 Q204.699 152.248 209.838 152.248 Q215 152.248 217.94 154.655 Q220.88 157.062 220.88 161.206 Q220.88 164.169 219.19 166.229 Q217.523 168.289 214.537 169.03 Q217.917 169.817 219.792 172.109 Q221.69 174.4 221.69 177.71 Q221.69 182.734 218.611 185.419 Q215.556 188.104 209.838 188.104 Q204.121 188.104 201.042 185.419 Q197.987 182.734 197.987 177.71 Q197.987 174.4 199.885 172.109 Q201.783 169.817 205.162 169.03 M203.449 161.646 Q203.449 164.331 205.116 165.835 Q206.806 167.34 209.838 167.34 Q212.848 167.34 214.537 165.835 Q216.25 164.331 216.25 161.646 Q216.25 158.96 214.537 157.456 Q212.848 155.951 209.838 155.951 Q206.806 155.951 205.116 157.456 Q203.449 158.96 203.449 161.646 Z" fill="#000000" fill-rule="nonzero" fill-opacity="1" /><path clip-path="url(#clip220)" d="M67.3143 733.525 Q73.68 736.008 75.6216 738.363 Q77.5631 740.718 77.5631 744.665 L77.5631 749.344 L72.6615 749.344 L72.6615 745.906 Q72.6615 743.487 71.5157 742.151 Q70.3699 740.814 66.1048 739.191 L63.4312 738.14 L28.3562 752.559 L28.3562 746.352 L56.238 735.212 L28.3562 724.072 L28.3562 717.865 L67.3143 733.525 Z" fill="#000000" fill-rule="nonzero" fill-opacity="1" /><circle clip-path="url(#clip222)" cx="505.418" cy="974.428" r="14.4" fill="#ff0000" fill-rule="evenodd" fill-opacity="1" stroke="#000000" stroke-opacity="1" stroke-width="3.2"/>
<circle clip-path="url(#clip222)" cx="1865.34" cy="805.604" r="14.4" fill="#ff0000" fill-rule="evenodd" fill-opacity="1" stroke="#000000" stroke-opacity="1" stroke-width="3.2"/>
<circle clip-path="url(#clip222)" cx="485.461" cy="1217.46" r="14.4" fill="#ff0000" fill-rule="evenodd" fill-opacity="1" stroke="#000000" stroke-opacity="1" stroke-width="3.2"/>
<circle clip-path="url(#clip222)" cx="1993.52" cy="825.102" r="14.4" fill="#ff0000" fill-rule="evenodd" fill-opacity="1" stroke="#000000" stroke-opacity="1" stroke-width="3.2"/>
<circle clip-path="url(#clip222)" cx="1498.92" cy="794.772" r="14.4" fill="#ff0000" fill-rule="evenodd" fill-opacity="1" stroke="#000000" stroke-opacity="1" stroke-width="3.2"/>
<circle clip-path="url(#clip222)" cx="1872.52" cy="810.091" r="14.4" fill="#ff0000" fill-rule="evenodd" fill-opacity="1" stroke="#000000" stroke-opacity="1" stroke-width="3.2"/>
<circle clip-path="url(#clip222)" cx="322.36" cy="680.729" r="14.4" fill="#ff0000" fill-rule="evenodd" fill-opacity="1" stroke="#000000" stroke-opacity="1" stroke-width="3.2"/>
<circle clip-path="url(#clip222)" cx="1108.33" cy="827.197" r="14.4" fill="#ff0000" fill-rule="evenodd" fill-opacity="1" stroke="#000000" stroke-opacity="1" stroke-width="3.2"/>
<circle clip-path="url(#clip222)" cx="845.613" cy="1066.6" r="14.4" fill="#ff0000" fill-rule="evenodd" fill-opacity="1" stroke="#000000" stroke-opacity="1" stroke-width="3.2"/>
<circle clip-path="url(#clip222)" cx="368.694" cy="93.7371" r="14.4" fill="#ff0000" fill-rule="evenodd" fill-opacity="1" stroke="#000000" stroke-opacity="1" stroke-width="3.2"/>
<circle clip-path="url(#clip222)" cx="1472.96" cy="845.338" r="14.4" fill="#ff0000" fill-rule="evenodd" fill-opacity="1" stroke="#000000" stroke-opacity="1" stroke-width="3.2"/>
<circle clip-path="url(#clip222)" cx="596.128" cy="555.064" r="14.4" fill="#ff0000" fill-rule="evenodd" fill-opacity="1" stroke="#000000" stroke-opacity="1" stroke-width="3.2"/>
<circle clip-path="url(#clip222)" cx="417.639" cy="864.601" r="14.4" fill="#ff0000" fill-rule="evenodd" fill-opacity="1" stroke="#000000" stroke-opacity="1" stroke-width="3.2"/>
<circle clip-path="url(#clip222)" cx="1344.16" cy="701.792" r="14.4" fill="#ff0000" fill-rule="evenodd" fill-opacity="1" stroke="#000000" stroke-opacity="1" stroke-width="3.2"/>
<circle clip-path="url(#clip222)" cx="1610.71" cy="803.355" r="14.4" fill="#ff0000" fill-rule="evenodd" fill-opacity="1" stroke="#000000" stroke-opacity="1" stroke-width="3.2"/>
<circle clip-path="url(#clip222)" cx="417.31" cy="804.406" r="14.4" fill="#ff0000" fill-rule="evenodd" fill-opacity="1" stroke="#000000" stroke-opacity="1" stroke-width="3.2"/>
<circle clip-path="url(#clip222)" cx="506.496" cy="949.768" r="14.4" fill="#ff0000" fill-rule="evenodd" fill-opacity="1" stroke="#000000" stroke-opacity="1" stroke-width="3.2"/>
<circle clip-path="url(#clip222)" cx="2064.16" cy="789.486" r="14.4" fill="#ff0000" fill-rule="evenodd" fill-opacity="1" stroke="#000000" stroke-opacity="1" stroke-width="3.2"/>
<circle clip-path="url(#clip222)" cx="1344.94" cy="693.732" r="14.4" fill="#ff0000" fill-rule="evenodd" fill-opacity="1" stroke="#000000" stroke-opacity="1" stroke-width="3.2"/>
<circle clip-path="url(#clip222)" cx="930.526" cy="658.696" r="14.4" fill="#ff0000" fill-rule="evenodd" fill-opacity="1" stroke="#000000" stroke-opacity="1" stroke-width="3.2"/>
<circle clip-path="url(#clip222)" cx="1233.99" cy="863.676" r="14.4" fill="#ff0000" fill-rule="evenodd" fill-opacity="1" stroke="#000000" stroke-opacity="1" stroke-width="3.2"/>
<circle clip-path="url(#clip222)" cx="1603.42" cy="770.012" r="14.4" fill="#ff0000" fill-rule="evenodd" fill-opacity="1" stroke="#000000" stroke-opacity="1" stroke-width="3.2"/>
<circle clip-path="url(#clip222)" cx="2224.19" cy="788.206" r="14.4" fill="#ff0000" fill-rule="evenodd" fill-opacity="1" stroke="#000000" stroke-opacity="1" stroke-width="3.2"/>
<circle clip-path="url(#clip222)" cx="743.167" cy="546.633" r="14.4" fill="#ff0000" fill-rule="evenodd" fill-opacity="1" stroke="#000000" stroke-opacity="1" stroke-width="3.2"/>
<circle clip-path="url(#clip222)" cx="902.646" cy="889.104" r="14.4" fill="#ff0000" fill-rule="evenodd" fill-opacity="1" stroke="#000000" stroke-opacity="1" stroke-width="3.2"/>
<circle clip-path="url(#clip222)" cx="1680.1" cy="833.357" r="14.4" fill="#ff0000" fill-rule="evenodd" fill-opacity="1" stroke="#000000" stroke-opacity="1" stroke-width="3.2"/>
<circle clip-path="url(#clip222)" cx="2200.22" cy="823.469" r="14.4" fill="#ff0000" fill-rule="evenodd" fill-opacity="1" stroke="#000000" stroke-opacity="1" stroke-width="3.2"/>
<circle clip-path="url(#clip222)" cx="1419.48" cy="827.064" r="14.4" fill="#ff0000" fill-rule="evenodd" fill-opacity="1" stroke="#000000" stroke-opacity="1" stroke-width="3.2"/>
<circle clip-path="url(#clip222)" cx="2036.61" cy="815.974" r="14.4" fill="#ff0000" fill-rule="evenodd" fill-opacity="1" stroke="#000000" stroke-opacity="1" stroke-width="3.2"/>
<circle clip-path="url(#clip222)" cx="1802.36" cy="792.506" r="14.4" fill="#ff0000" fill-rule="evenodd" fill-opacity="1" stroke="#000000" stroke-opacity="1" stroke-width="3.2"/>
<circle clip-path="url(#clip222)" cx="874.975" cy="1055.08" r="14.4" fill="#ff0000" fill-rule="evenodd" fill-opacity="1" stroke="#000000" stroke-opacity="1" stroke-width="3.2"/>
<circle clip-path="url(#clip222)" cx="500.186" cy="1017.26" r="14.4" fill="#ff0000" fill-rule="evenodd" fill-opacity="1" stroke="#000000" stroke-opacity="1" stroke-width="3.2"/>
<circle clip-path="url(#clip222)" cx="1814.46" cy="790.095" r="14.4" fill="#ff0000" fill-rule="evenodd" fill-opacity="1" stroke="#000000" stroke-opacity="1" stroke-width="3.2"/>
<circle clip-path="url(#clip222)" cx="1663.84" cy="856.03" r="14.4" fill="#ff0000" fill-rule="evenodd" fill-opacity="1" stroke="#000000" stroke-opacity="1" stroke-width="3.2"/>
<circle clip-path="url(#clip222)" cx="885.972" cy="953.362" r="14.4" fill="#ff0000" fill-rule="evenodd" fill-opacity="1" stroke="#000000" stroke-opacity="1" stroke-width="3.2"/>
<circle clip-path="url(#clip222)" cx="1440.34" cy="870.12" r="14.4" fill="#ff0000" fill-rule="evenodd" fill-opacity="1" stroke="#000000" stroke-opacity="1" stroke-width="3.2"/>
<circle clip-path="url(#clip222)" cx="755.688" cy="463.712" r="14.4" fill="#ff0000" fill-rule="evenodd" fill-opacity="1" stroke="#000000" stroke-opacity="1" stroke-width="3.2"/>
<circle clip-path="url(#clip222)" cx="850.788" cy="1019.52" r="14.4" fill="#ff0000" fill-rule="evenodd" fill-opacity="1" stroke="#000000" stroke-opacity="1" stroke-width="3.2"/>
<circle clip-path="url(#clip222)" cx="1799.47" cy="796.689" r="14.4" fill="#ff0000" fill-rule="evenodd" fill-opacity="1" stroke="#000000" stroke-opacity="1" stroke-width="3.2"/>
<circle clip-path="url(#clip222)" cx="783.678" cy="589.707" r="14.4" fill="#ff0000" fill-rule="evenodd" fill-opacity="1" stroke="#000000" stroke-opacity="1" stroke-width="3.2"/>
<circle clip-path="url(#clip222)" cx="1776.41" cy="780.302" r="14.4" fill="#ff0000" fill-rule="evenodd" fill-opacity="1" stroke="#000000" stroke-opacity="1" stroke-width="3.2"/>
<circle clip-path="url(#clip222)" cx="1645.01" cy="881.931" r="14.4" fill="#ff0000" fill-rule="evenodd" fill-opacity="1" stroke="#000000" stroke-opacity="1" stroke-width="3.2"/>
<circle clip-path="url(#clip222)" cx="1086.3" cy="926.967" r="14.4" fill="#ff0000" fill-rule="evenodd" fill-opacity="1" stroke="#000000" stroke-opacity="1" stroke-width="3.2"/>
<circle clip-path="url(#clip222)" cx="702.474" cy="896.736" r="14.4" fill="#ff0000" fill-rule="evenodd" fill-opacity="1" stroke="#000000" stroke-opacity="1" stroke-width="3.2"/>
<circle clip-path="url(#clip222)" cx="516.177" cy="749.649" r="14.4" fill="#ff0000" fill-rule="evenodd" fill-opacity="1" stroke="#000000" stroke-opacity="1" stroke-width="3.2"/>
<circle clip-path="url(#clip222)" cx="2163.28" cy="791.447" r="14.4" fill="#ff0000" fill-rule="evenodd" fill-opacity="1" stroke="#000000" stroke-opacity="1" stroke-width="3.2"/>
<circle clip-path="url(#clip222)" cx="1006.23" cy="749.116" r="14.4" fill="#ff0000" fill-rule="evenodd" fill-opacity="1" stroke="#000000" stroke-opacity="1" stroke-width="3.2"/>
<circle clip-path="url(#clip222)" cx="1865.21" cy="850.234" r="14.4" fill="#ff0000" fill-rule="evenodd" fill-opacity="1" stroke="#000000" stroke-opacity="1" stroke-width="3.2"/>
<circle clip-path="url(#clip222)" cx="935.691" cy="633.119" r="14.4" fill="#ff0000" fill-rule="evenodd" fill-opacity="1" stroke="#000000" stroke-opacity="1" stroke-width="3.2"/>
<circle clip-path="url(#clip222)" cx="1892.54" cy="825.798" r="14.4" fill="#ff0000" fill-rule="evenodd" fill-opacity="1" stroke="#000000" stroke-opacity="1" stroke-width="3.2"/>
<polyline clip-path="url(#clip222)" style="stroke:#0000ff; stroke-linecap:round; stroke-linejoin:round; stroke-width:4; stroke-opacity:1; fill:none" points="316.984,799.913 320.945,701.843 324.906,606.88 328.867,516.471 332.828,431.971 336.789,354.617 340.75,285.516 344.711,225.627 348.671,175.747 352.632,136.505 356.593,108.349 360.554,91.5479 364.515,86.1857 368.476,92.165 372.437,109.211 376.398,136.88 380.358,174.565 384.319,221.513 388.28,276.836 392.241,339.529 396.202,408.486 400.163,482.519 404.124,560.381 408.085,640.782 412.045,722.413 416.006,803.969 419.967,884.164 423.928,961.755 427.889,1035.56 431.85,1104.47 435.811,1167.49 439.772,1223.7 443.732,1272.34 447.693,1312.75 451.654,1344.44 455.615,1367.03 459.576,1380.32 463.537,1384.24 467.498,1378.88 471.459,1364.48 475.419,1341.41 479.38,1310.16 483.341,1271.36 487.302,1225.74 491.263,1174.13 495.224,1117.45 499.185,1056.65 503.146,992.775 507.107,926.872 511.067,860.016 515.028,793.274 518.989,727.699 522.95,664.306 526.911,604.06 530.872,547.86 534.833,496.53 538.794,450.8 542.754,411.304 546.715,378.565 550.676,352.991 554.637,334.873 558.598,324.377 562.559,321.548 566.52,326.308 570.481,338.462 574.441,357.7 578.402,383.606 582.363,415.666 586.324,453.276 590.285,495.755 594.246,542.355 598.207,592.275 602.168,644.677 606.128,698.693 610.089,753.447 614.05,808.063 618.011,861.681 621.972,913.473 625.933,962.65 629.894,1008.48 633.855,1050.29 637.815,1087.48 641.776,1119.55 645.737,1146.07 649.698,1166.71 653.659,1181.23 657.62,1189.51 661.581,1191.52 665.542,1187.31 669.502,1177.07 673.463,1161.03 677.424,1139.56 681.385,1113.07 685.346,1082.07 689.307,1047.1 693.268,1008.8 697.229,967.81 701.189,924.824 705.15,880.552 709.111,835.712 713.072,791.021 717.033,747.181 720.994,704.869 724.955,664.73 728.916,627.361 732.876,593.307 736.837,563.054 740.798,537.017 744.759,515.541 748.72,498.891 752.681,487.253 756.642,480.731 760.603,479.347 764.563,483.041 768.524,491.673 772.485,505.029 776.446,522.824 780.407,544.705 784.368,570.264 788.329,599.038 792.29,630.522 796.25,664.177 800.211,699.437 804.172,735.721 808.133,772.441 812.094,809.01 816.055,844.853 820.016,879.418 823.977,912.179 827.937,942.649 831.898,970.383 835.859,994.988 839.82,1016.12 843.781,1033.51 847.742,1046.94 851.703,1056.26 855.664,1061.39 859.624,1062.32 863.585,1059.09 867.546,1051.82 871.507,1040.7 875.468,1025.96 879.429,1007.88 883.39,986.815 887.351,963.136 891.311,937.26 895.272,909.629 899.233,880.707 903.194,850.97 907.155,820.902 911.116,790.98 915.077,761.676 919.038,733.44 922.998,706.702 926.959,681.859 930.92,659.274 934.881,639.265 938.842,622.108 942.803,608.028 946.764,597.199 950.725,589.739 954.685,585.712 958.646,585.127 962.607,587.939 966.568,594.049 970.529,603.309 974.49,615.522 978.451,630.449 982.412,647.812 986.373,667.297 990.333,688.563 994.294,711.248 998.255,734.97 1002.22,759.339 1006.18,783.96 1010.14,808.441 1014.1,832.399 1018.06,855.463 1022.02,877.284 1025.98,897.538 1029.94,915.93 1033.9,932.2 1037.86,946.125 1041.82,957.523 1045.79,966.253 1049.75,972.221 1053.71,975.377 1057.67,975.716 1061.63,973.276 1065.59,968.141 1069.55,960.435 1073.51,950.319 1077.47,937.993 1081.43,923.685 1085.39,907.652 1089.36,890.175 1093.32,871.553 1097.28,852.097 1101.24,832.127 1105.2,811.967 1109.16,791.937 1113.12,772.352 1117.08,753.513 1121.04,735.705 1125,719.194 1128.96,704.217 1132.92,690.989 1136.89,679.688 1140.85,670.463 1144.81,663.427 1148.77,658.655 1152.73,656.187 1156.69,656.024 1160.65,658.134 1164.61,662.446 1168.57,668.858 1172.53,677.234 1176.49,687.412 1180.46,699.202 1184.42,712.393 1188.38,726.755 1192.34,742.042 1196.3,757.999 1200.26,774.363 1204.22,790.869 1208.18,807.256 1212.14,823.266 1216.1,838.653 1220.06,853.185 1224.03,866.645 1227.99,878.839 1231.95,889.594 1235.91,898.764 1239.87,906.229 1243.83,911.898 1247.79,915.711 1251.75,917.638 1255.71,917.677 1259.67,915.858 1263.63,912.239 1267.59,906.907 1271.56,899.972 1275.52,891.569 1279.48,881.854 1283.44,871.001 1287.4,859.2 1291.36,846.652 1295.32,833.566 1299.28,820.158 1303.24,806.643 1307.2,793.237 1311.16,780.15 1315.13,767.582 1319.09,755.725 1323.05,744.752 1327.01,734.825 1330.97,726.081 1334.93,718.642 1338.89,712.602 1342.85,708.035 1346.81,704.99 1350.77,703.49 1354.73,703.535 1358.69,705.099 1362.66,708.134 1366.62,712.568 1370.58,718.309 1374.54,725.245 1378.5,733.249 1382.46,742.177 1386.42,751.873 1390.38,762.173 1394.34,772.905 1398.3,783.891 1402.26,794.956 1406.23,805.922 1410.19,816.62 1414.15,826.884 1418.11,836.559 1422.07,845.503 1426.03,853.585 1429.99,860.692 1433.95,866.728 1437.91,871.614 1441.87,875.291 1445.83,877.721 1449.79,878.886 1453.76,878.786 1457.72,877.444 1461.68,874.901 1465.64,871.215 1469.6,866.464 1473.56,860.738 1477.52,854.145 1481.48,846.8 1485.44,838.834 1489.4,830.38 1493.36,821.58 1497.33,812.578 1501.29,803.52 1505.25,794.549 1509.21,785.805 1513.17,777.423 1517.13,769.529 1521.09,762.239 1525.05,755.66 1529.01,749.883 1532.97,744.987 1536.93,741.035 1540.9,738.075 1544.86,736.137 1548.82,735.236 1552.78,735.368 1556.74,736.517 1560.7,738.648 1564.66,741.71 1568.62,745.642 1572.58,750.368 1576.54,755.799 1580.5,761.84 1584.46,768.385 1588.43,775.324 1592.39,782.539 1596.35,789.915 1600.31,797.33 1604.27,804.668 1608.23,811.815 1612.19,818.66 1616.15,825.101 1620.11,831.042 1624.07,836.397 1628.03,841.092 1632,845.063 1635.96,848.259 1639.92,850.641 1643.88,852.186 1647.84,852.881 1651.8,852.73 1655.76,851.749 1659.72,849.965 1663.68,847.421 1667.64,844.168 1671.6,840.268 1675.56,835.795 1679.53,830.826 1683.49,825.449 1687.45,819.755 1691.41,813.838 1695.37,807.796 1699.33,801.725 1703.29,795.723 1707.25,789.882 1711.21,784.292 1715.17,779.038 1719.13,774.196 1723.1,769.837 1727.06,766.021 1731.02,762.801 1734.98,760.217 1738.94,758.301 1742.9,757.071 1746.86,756.536 1750.82,756.694 1754.78,757.531 1758.74,759.023 1762.7,761.137 1766.67,763.828 1770.63,767.046 1774.59,770.73 1778.55,774.817 1782.51,779.234 1786.47,783.907 1790.43,788.758 1794.39,793.708 1798.35,798.677 1802.31,803.587 1806.27,808.36 1810.23,812.925 1814.2,817.211 1818.16,821.157 1822.12,824.705 1826.08,827.805 1830.04,830.416 1834,832.505 1837.96,834.046 1841.92,835.025 1845.88,835.434 1849.84,835.277 1853.8,834.564 1857.77,833.316 1861.73,831.561 1865.69,829.335 1869.65,826.681 1873.61,823.646 1877.57,820.286 1881.53,816.657 1885.49,812.822 1889.45,808.845 1893.41,804.79 1897.37,800.722 1901.33,796.707 1905.3,792.806 1909.26,789.079 1913.22,785.582 1917.18,782.367 1921.14,779.48 1925.1,776.961 1929.06,774.843 1933.02,773.155 1936.98,771.916 1940.94,771.138 1944.9,770.827 1948.87,770.978 1952.83,771.584 1956.79,772.627 1960.75,774.084 1964.71,775.925 1968.67,778.115 1972.63,780.614 1976.59,783.377 1980.55,786.358 1984.51,789.505 1988.47,792.765 1992.44,796.087 1996.4,799.416 2000.36,802.701 2004.32,805.888 2008.28,808.931 2012.24,811.784 2016.2,814.404 2020.16,816.753 2024.12,818.8 2028.08,820.516 2032.04,821.88 2036,822.876 2039.97,823.494 2043.93,823.73 2047.89,823.587 2051.85,823.072 2055.81,822.201 2059.77,820.992 2063.73,819.47 2067.69,817.663 2071.65,815.606 2075.61,813.333 2079.57,810.885 2083.54,808.303 2087.5,805.63 2091.46,802.909 2095.42,800.184 2099.38,797.498 2103.34,794.893 2107.3,792.409 2111.26,790.082 2115.22,787.948 2119.18,786.036 2123.14,784.373 2127.1,782.982 2131.07,781.88 2135.03,781.08 2138.99,780.59 2142.95,780.412 2146.91,780.545 2150.87,780.981 2154.83,781.708 2158.79,782.712 2162.75,783.97 2166.71,785.46 2170.67,787.154 2174.64,789.023 2178.6,791.033 2182.56,793.152 2186.52,795.343 2190.48,797.572 2194.44,799.802 2198.4,801.999 2202.36,804.127 2206.32,806.156 2210.28,808.053 2214.24,809.792 2218.2,811.348 2222.17,812.699 2226.13,813.826 2230.09,814.716 2234.05,815.358 2238.01,815.747 2241.97,815.88 2245.93,815.759 2249.89,815.389 2253.85,814.782 2257.81,813.95 2261.77,812.91 2265.74,811.681 2269.7,810.286 2273.66,808.75 2277.62,807.099 2281.58,805.36 2285.54,803.564 2289.5,801.738 2293.46,799.913 "/>
<path clip-path="url(#clip220)" d="M1772.7 248.629 L2282.92 248.629 L2282.92 93.1086 L1772.7 93.1086  Z" fill="#ffffff" fill-rule="evenodd" fill-opacity="1"/>
<polyline clip-path="url(#clip220)" style="stroke:#000000; stroke-linecap:round; stroke-linejoin:round; stroke-width:4; stroke-opacity:1; fill:none" points="1772.7,248.629 2282.92,248.629 2282.92,93.1086 1772.7,93.1086 1772.7,248.629 "/>
<circle clip-path="url(#clip220)" cx="1865.81" cy="144.949" r="20.48" fill="#ff0000" fill-rule="evenodd" fill-opacity="1" stroke="#000000" stroke-opacity="1" stroke-width="4.55111"/>
<path clip-path="url(#clip220)" d="M1980.64 146.581 L1980.64 162.229 L1976.38 162.229 L1976.38 146.719 Q1976.38 143.039 1974.94 141.21 Q1973.51 139.382 1970.64 139.382 Q1967.19 139.382 1965.2 141.581 Q1963.21 143.78 1963.21 147.576 L1963.21 162.229 L1958.93 162.229 L1958.93 136.303 L1963.21 136.303 L1963.21 140.331 Q1964.74 137.993 1966.8 136.835 Q1968.88 135.678 1971.59 135.678 Q1976.06 135.678 1978.35 138.456 Q1980.64 141.21 1980.64 146.581 Z" fill="#000000" fill-rule="nonzero" fill-opacity="1" /><path clip-path="url(#clip220)" d="M1999.18 139.289 Q1995.75 139.289 1993.76 141.974 Q1991.77 144.636 1991.77 149.289 Q1991.77 153.942 1993.74 156.627 Q1995.73 159.289 1999.18 159.289 Q2002.58 159.289 2004.57 156.604 Q2006.56 153.918 2006.56 149.289 Q2006.56 144.682 2004.57 141.997 Q2002.58 139.289 1999.18 139.289 M1999.18 135.678 Q2004.74 135.678 2007.91 139.289 Q2011.08 142.9 2011.08 149.289 Q2011.08 155.655 2007.91 159.289 Q2004.74 162.9 1999.18 162.9 Q1993.6 162.9 1990.43 159.289 Q1987.28 155.655 1987.28 149.289 Q1987.28 142.9 1990.43 139.289 Q1993.6 135.678 1999.18 135.678 Z" fill="#000000" fill-rule="nonzero" fill-opacity="1" /><path clip-path="url(#clip220)" d="M2018.14 136.303 L2022.4 136.303 L2022.4 162.229 L2018.14 162.229 L2018.14 136.303 M2018.14 126.21 L2022.4 126.21 L2022.4 131.604 L2018.14 131.604 L2018.14 126.21 Z" fill="#000000" fill-rule="nonzero" fill-opacity="1" /><path clip-path="url(#clip220)" d="M2047.84 137.067 L2047.84 141.094 Q2046.03 140.169 2044.09 139.706 Q2042.14 139.243 2040.06 139.243 Q2036.89 139.243 2035.29 140.215 Q2033.72 141.187 2033.72 143.131 Q2033.72 144.613 2034.85 145.469 Q2035.99 146.303 2039.41 147.067 L2040.87 147.391 Q2045.41 148.363 2047.31 150.145 Q2049.23 151.905 2049.23 155.076 Q2049.23 158.687 2046.36 160.793 Q2043.51 162.9 2038.51 162.9 Q2036.43 162.9 2034.16 162.483 Q2031.91 162.09 2029.41 161.28 L2029.41 156.881 Q2031.77 158.108 2034.06 158.733 Q2036.36 159.335 2038.6 159.335 Q2041.61 159.335 2043.23 158.317 Q2044.85 157.275 2044.85 155.4 Q2044.85 153.664 2043.67 152.738 Q2042.51 151.812 2038.56 150.956 L2037.07 150.608 Q2033.12 149.775 2031.36 148.062 Q2029.6 146.326 2029.6 143.317 Q2029.6 139.659 2032.19 137.669 Q2034.78 135.678 2039.55 135.678 Q2041.91 135.678 2043.99 136.025 Q2046.08 136.372 2047.84 137.067 Z" fill="#000000" fill-rule="nonzero" fill-opacity="1" /><path clip-path="url(#clip220)" d="M2066.8 164.636 Q2064.99 169.266 2063.28 170.678 Q2061.56 172.09 2058.69 172.09 L2055.29 172.09 L2055.29 168.525 L2057.79 168.525 Q2059.55 168.525 2060.52 167.692 Q2061.49 166.858 2062.68 163.756 L2063.44 161.812 L2052.95 136.303 L2057.47 136.303 L2065.57 156.581 L2073.67 136.303 L2078.18 136.303 L2066.8 164.636 Z" fill="#000000" fill-rule="nonzero" fill-opacity="1" /><path clip-path="url(#clip220)" d="M2116.19 140.238 L2116.19 126.21 L2120.45 126.21 L2120.45 162.229 L2116.19 162.229 L2116.19 158.34 Q2114.85 160.655 2112.79 161.789 Q2110.75 162.9 2107.88 162.9 Q2103.18 162.9 2100.22 159.15 Q2097.28 155.4 2097.28 149.289 Q2097.28 143.178 2100.22 139.428 Q2103.18 135.678 2107.88 135.678 Q2110.75 135.678 2112.79 136.812 Q2114.85 137.923 2116.19 140.238 M2101.68 149.289 Q2101.68 153.988 2103.6 156.673 Q2105.55 159.335 2108.93 159.335 Q2112.3 159.335 2114.25 156.673 Q2116.19 153.988 2116.19 149.289 Q2116.19 144.59 2114.25 141.928 Q2112.3 139.243 2108.93 139.243 Q2105.55 139.243 2103.6 141.928 Q2101.68 144.59 2101.68 149.289 Z" fill="#000000" fill-rule="nonzero" fill-opacity="1" /><path clip-path="url(#clip220)" d="M2141.01 149.196 Q2135.85 149.196 2133.86 150.377 Q2131.86 151.557 2131.86 154.405 Q2131.86 156.673 2133.35 158.016 Q2134.85 159.335 2137.42 159.335 Q2140.96 159.335 2143.09 156.835 Q2145.24 154.312 2145.24 150.145 L2145.24 149.196 L2141.01 149.196 M2149.5 147.437 L2149.5 162.229 L2145.24 162.229 L2145.24 158.293 Q2143.79 160.655 2141.61 161.789 Q2139.43 162.9 2136.29 162.9 Q2132.3 162.9 2129.94 160.678 Q2127.61 158.432 2127.61 154.682 Q2127.61 150.307 2130.52 148.085 Q2133.46 145.863 2139.27 145.863 L2145.24 145.863 L2145.24 145.446 Q2145.24 142.507 2143.3 140.909 Q2141.38 139.289 2137.88 139.289 Q2135.66 139.289 2133.55 139.821 Q2131.45 140.354 2129.5 141.419 L2129.5 137.483 Q2131.84 136.581 2134.04 136.141 Q2136.24 135.678 2138.32 135.678 Q2143.95 135.678 2146.73 138.594 Q2149.5 141.511 2149.5 147.437 Z" fill="#000000" fill-rule="nonzero" fill-opacity="1" /><path clip-path="url(#clip220)" d="M2162.49 128.942 L2162.49 136.303 L2171.26 136.303 L2171.26 139.613 L2162.49 139.613 L2162.49 153.687 Q2162.49 156.858 2163.35 157.761 Q2164.23 158.664 2166.89 158.664 L2171.26 158.664 L2171.26 162.229 L2166.89 162.229 Q2161.96 162.229 2160.08 160.4 Q2158.21 158.548 2158.21 153.687 L2158.21 139.613 L2155.08 139.613 L2155.08 136.303 L2158.21 136.303 L2158.21 128.942 L2162.49 128.942 Z" fill="#000000" fill-rule="nonzero" fill-opacity="1" /><path clip-path="url(#clip220)" d="M2188.65 149.196 Q2183.48 149.196 2181.49 150.377 Q2179.5 151.557 2179.5 154.405 Q2179.5 156.673 2180.98 158.016 Q2182.49 159.335 2185.06 159.335 Q2188.6 159.335 2190.73 156.835 Q2192.88 154.312 2192.88 150.145 L2192.88 149.196 L2188.65 149.196 M2197.14 147.437 L2197.14 162.229 L2192.88 162.229 L2192.88 158.293 Q2191.42 160.655 2189.25 161.789 Q2187.07 162.9 2183.92 162.9 Q2179.94 162.9 2177.58 160.678 Q2175.24 158.432 2175.24 154.682 Q2175.24 150.307 2178.16 148.085 Q2181.1 145.863 2186.91 145.863 L2192.88 145.863 L2192.88 145.446 Q2192.88 142.507 2190.94 140.909 Q2189.02 139.289 2185.52 139.289 Q2183.3 139.289 2181.19 139.821 Q2179.09 140.354 2177.14 141.419 L2177.14 137.483 Q2179.48 136.581 2181.68 136.141 Q2183.88 135.678 2185.96 135.678 Q2191.59 135.678 2194.36 138.594 Q2197.14 141.511 2197.14 147.437 Z" fill="#000000" fill-rule="nonzero" fill-opacity="1" /><polyline clip-path="url(#clip220)" style="stroke:#0000ff; stroke-linecap:round; stroke-linejoin:round; stroke-width:4; stroke-opacity:1; fill:none" points="1795.98,196.789 1935.65,196.789 "/>
<path clip-path="url(#clip220)" d="M1966.33 180.782 L1966.33 188.143 L1975.11 188.143 L1975.11 191.453 L1966.33 191.453 L1966.33 205.527 Q1966.33 208.698 1967.19 209.601 Q1968.07 210.504 1970.73 210.504 L1975.11 210.504 L1975.11 214.069 L1970.73 214.069 Q1965.8 214.069 1963.93 212.24 Q1962.05 210.388 1962.05 205.527 L1962.05 191.453 L1958.93 191.453 L1958.93 188.143 L1962.05 188.143 L1962.05 180.782 L1966.33 180.782 Z" fill="#000000" fill-rule="nonzero" fill-opacity="1" /><path clip-path="url(#clip220)" d="M1995.73 192.124 Q1995.01 191.708 1994.16 191.522 Q1993.32 191.314 1992.31 191.314 Q1988.69 191.314 1986.75 193.675 Q1984.83 196.013 1984.83 200.411 L1984.83 214.069 L1980.55 214.069 L1980.55 188.143 L1984.83 188.143 L1984.83 192.171 Q1986.17 189.809 1988.32 188.675 Q1990.48 187.518 1993.56 187.518 Q1994 187.518 1994.53 187.587 Q1995.06 187.634 1995.71 187.749 L1995.73 192.124 Z" fill="#000000" fill-rule="nonzero" fill-opacity="1" /><path clip-path="url(#clip220)" d="M1999.76 203.837 L1999.76 188.143 L2004.02 188.143 L2004.02 203.675 Q2004.02 207.356 2005.45 209.208 Q2006.89 211.036 2009.76 211.036 Q2013.21 211.036 2015.2 208.837 Q2017.21 206.638 2017.21 202.842 L2017.21 188.143 L2021.47 188.143 L2021.47 214.069 L2017.21 214.069 L2017.21 210.087 Q2015.66 212.448 2013.6 213.606 Q2011.56 214.74 2008.86 214.74 Q2004.39 214.74 2002.07 211.962 Q1999.76 209.184 1999.76 203.837 M2010.48 187.518 L2010.48 187.518 Z" fill="#000000" fill-rule="nonzero" fill-opacity="1" /><path clip-path="url(#clip220)" d="M2052.42 200.041 L2052.42 202.124 L2032.84 202.124 Q2033.12 206.522 2035.48 208.837 Q2037.86 211.129 2042.1 211.129 Q2044.55 211.129 2046.84 210.527 Q2049.16 209.925 2051.43 208.721 L2051.43 212.749 Q2049.13 213.721 2046.73 214.231 Q2044.32 214.74 2041.84 214.74 Q2035.64 214.74 2032 211.129 Q2028.39 207.518 2028.39 201.36 Q2028.39 194.995 2031.82 191.268 Q2035.27 187.518 2041.1 187.518 Q2046.33 187.518 2049.37 190.897 Q2052.42 194.254 2052.42 200.041 M2048.16 198.791 Q2048.12 195.296 2046.19 193.212 Q2044.3 191.129 2041.15 191.129 Q2037.58 191.129 2035.43 193.143 Q2033.3 195.157 2032.98 198.814 L2048.16 198.791 Z" fill="#000000" fill-rule="nonzero" fill-opacity="1" /><path clip-path="url(#clip220)" d="M2087.61 178.05 L2087.61 181.592 L2083.53 181.592 Q2081.24 181.592 2080.34 182.518 Q2079.46 183.444 2079.46 185.851 L2079.46 188.143 L2086.47 188.143 L2086.47 191.453 L2079.46 191.453 L2079.46 214.069 L2075.18 214.069 L2075.18 191.453 L2071.1 191.453 L2071.1 188.143 L2075.18 188.143 L2075.18 186.337 Q2075.18 182.009 2077.19 180.041 Q2079.2 178.05 2083.58 178.05 L2087.61 178.05 Z" fill="#000000" fill-rule="nonzero" fill-opacity="1" /><path clip-path="url(#clip220)" d="M2090.73 203.837 L2090.73 188.143 L2094.99 188.143 L2094.99 203.675 Q2094.99 207.356 2096.43 209.208 Q2097.86 211.036 2100.73 211.036 Q2104.18 211.036 2106.17 208.837 Q2108.18 206.638 2108.18 202.842 L2108.18 188.143 L2112.44 188.143 L2112.44 214.069 L2108.18 214.069 L2108.18 210.087 Q2106.63 212.448 2104.57 213.606 Q2102.54 214.74 2099.83 214.74 Q2095.36 214.74 2093.05 211.962 Q2090.73 209.184 2090.73 203.837 M2101.45 187.518 L2101.45 187.518 Z" fill="#000000" fill-rule="nonzero" fill-opacity="1" /><path clip-path="url(#clip220)" d="M2142.77 198.421 L2142.77 214.069 L2138.51 214.069 L2138.51 198.559 Q2138.51 194.879 2137.07 193.05 Q2135.64 191.222 2132.77 191.222 Q2129.32 191.222 2127.33 193.421 Q2125.34 195.62 2125.34 199.416 L2125.34 214.069 L2121.05 214.069 L2121.05 188.143 L2125.34 188.143 L2125.34 192.171 Q2126.86 189.833 2128.92 188.675 Q2131.01 187.518 2133.72 187.518 Q2138.18 187.518 2140.48 190.296 Q2142.77 193.05 2142.77 198.421 Z" fill="#000000" fill-rule="nonzero" fill-opacity="1" /><path clip-path="url(#clip220)" d="M2169.92 189.138 L2169.92 193.12 Q2168.11 192.124 2166.29 191.638 Q2164.48 191.129 2162.63 191.129 Q2158.49 191.129 2156.19 193.768 Q2153.9 196.384 2153.9 201.129 Q2153.9 205.874 2156.19 208.513 Q2158.49 211.129 2162.63 211.129 Q2164.48 211.129 2166.29 210.643 Q2168.11 210.133 2169.92 209.138 L2169.92 213.073 Q2168.14 213.907 2166.22 214.323 Q2164.32 214.74 2162.17 214.74 Q2156.31 214.74 2152.86 211.059 Q2149.41 207.379 2149.41 201.129 Q2149.41 194.786 2152.88 191.152 Q2156.38 187.518 2162.44 187.518 Q2164.41 187.518 2166.29 187.935 Q2168.16 188.328 2169.92 189.138 Z" fill="#000000" fill-rule="nonzero" fill-opacity="1" /><path clip-path="url(#clip220)" d="M2181.54 180.782 L2181.54 188.143 L2190.31 188.143 L2190.31 191.453 L2181.54 191.453 L2181.54 205.527 Q2181.54 208.698 2182.4 209.601 Q2183.28 210.504 2185.94 210.504 L2190.31 210.504 L2190.31 214.069 L2185.94 214.069 Q2181.01 214.069 2179.13 212.24 Q2177.26 210.388 2177.26 205.527 L2177.26 191.453 L2174.13 191.453 L2174.13 188.143 L2177.26 188.143 L2177.26 180.782 L2181.54 180.782 Z" fill="#000000" fill-rule="nonzero" fill-opacity="1" /><path clip-path="url(#clip220)" d="M2195.92 188.143 L2200.17 188.143 L2200.17 214.069 L2195.92 214.069 L2195.92 188.143 M2195.92 178.05 L2200.17 178.05 L2200.17 183.444 L2195.92 183.444 L2195.92 178.05 Z" fill="#000000" fill-rule="nonzero" fill-opacity="1" /><path clip-path="url(#clip220)" d="M2219.13 191.129 Q2215.71 191.129 2213.72 193.814 Q2211.73 196.476 2211.73 201.129 Q2211.73 205.782 2213.69 208.467 Q2215.68 211.129 2219.13 211.129 Q2222.54 211.129 2224.53 208.444 Q2226.52 205.758 2226.52 201.129 Q2226.52 196.522 2224.53 193.837 Q2222.54 191.129 2219.13 191.129 M2219.13 187.518 Q2224.69 187.518 2227.86 191.129 Q2231.03 194.74 2231.03 201.129 Q2231.03 207.495 2227.86 211.129 Q2224.69 214.74 2219.13 214.74 Q2213.55 214.74 2210.38 211.129 Q2207.23 207.495 2207.23 201.129 Q2207.23 194.74 2210.38 191.129 Q2213.55 187.518 2219.13 187.518 Z" fill="#000000" fill-rule="nonzero" fill-opacity="1" /><path clip-path="url(#clip220)" d="M2259.64 198.421 L2259.64 214.069 L2255.38 214.069 L2255.38 198.559 Q2255.38 194.879 2253.95 193.05 Q2252.51 191.222 2249.64 191.222 Q2246.19 191.222 2244.2 193.421 Q2242.21 195.62 2242.21 199.416 L2242.21 214.069 L2237.93 214.069 L2237.93 188.143 L2242.21 188.143 L2242.21 192.171 Q2243.74 189.833 2245.8 188.675 Q2247.88 187.518 2250.59 187.518 Q2255.06 187.518 2257.35 190.296 Q2259.64 193.05 2259.64 198.421 Z" fill="#000000" fill-rule="nonzero" fill-opacity="1" /></svg>
