<?xml version="1.0" encoding="utf-8"?>
<svg xmlns="http://www.w3.org/2000/svg" xmlns:xlink="http://www.w3.org/1999/xlink" width="600" height="400" viewBox="0 0 2400 1600">
<defs>
  <clipPath id="clip530">
    <rect x="0" y="0" width="2400" height="1600"/>
  </clipPath>
</defs>
<path clip-path="url(#clip530)" d="M0 1600 L2400 1600 L2400 0 L0 0  Z" fill="#ffffff" fill-rule="evenodd" fill-opacity="1"/>
<defs>
  <clipPath id="clip531">
    <rect x="480" y="0" width="1681" height="1600"/>
  </clipPath>
</defs>
<path clip-path="url(#clip530)" d="M210.746 1423.18 L2352.76 1423.18 L2352.76 123.472 L210.746 123.472  Z" fill="#ffffff" fill-rule="evenodd" fill-opacity="1"/>
<defs>
  <clipPath id="clip532">
    <rect x="210" y="123" width="2143" height="1301"/>
  </clipPath>
</defs>
<polyline clip-path="url(#clip532)" style="stroke:#000000; stroke-linecap:round; stroke-linejoin:round; stroke-width:2; stroke-opacity:0.1; fill:none" points="271.369,1423.18 271.369,123.472 "/>
<polyline clip-path="url(#clip532)" style="stroke:#000000; stroke-linecap:round; stroke-linejoin:round; stroke-width:2; stroke-opacity:0.1; fill:none" points="776.56,1423.18 776.56,123.472 "/>
<polyline clip-path="url(#clip532)" style="stroke:#000000; stroke-linecap:round; stroke-linejoin:round; stroke-width:2; stroke-opacity:0.1; fill:none" points="1281.75,1423.18 1281.75,123.472 "/>
<polyline clip-path="url(#clip532)" style="stroke:#000000; stroke-linecap:round; stroke-linejoin:round; stroke-width:2; stroke-opacity:0.1; fill:none" points="1786.94,1423.18 1786.94,123.472 "/>
<polyline clip-path="url(#clip532)" style="stroke:#000000; stroke-linecap:round; stroke-linejoin:round; stroke-width:2; stroke-opacity:0.1; fill:none" points="2292.13,1423.18 2292.13,123.472 "/>
<polyline clip-path="url(#clip530)" style="stroke:#000000; stroke-linecap:round; stroke-linejoin:round; stroke-width:4; stroke-opacity:1; fill:none" points="210.746,1423.18 2352.76,1423.18 "/>
<polyline clip-path="url(#clip530)" style="stroke:#000000; stroke-linecap:round; stroke-linejoin:round; stroke-width:4; stroke-opacity:1; fill:none" points="271.369,1423.18 271.369,1404.28 "/>
<polyline clip-path="url(#clip530)" style="stroke:#000000; stroke-linecap:round; stroke-linejoin:round; stroke-width:4; stroke-opacity:1; fill:none" points="776.56,1423.18 776.56,1404.28 "/>
<polyline clip-path="url(#clip530)" style="stroke:#000000; stroke-linecap:round; stroke-linejoin:round; stroke-width:4; stroke-opacity:1; fill:none" points="1281.75,1423.18 1281.75,1404.28 "/>
<polyline clip-path="url(#clip530)" style="stroke:#000000; stroke-linecap:round; stroke-linejoin:round; stroke-width:4; stroke-opacity:1; fill:none" points="1786.94,1423.18 1786.94,1404.28 "/>
<polyline clip-path="url(#clip530)" style="stroke:#000000; stroke-linecap:round; stroke-linejoin:round; stroke-width:4; stroke-opacity:1; fill:none" points="2292.13,1423.18 2292.13,1404.28 "/>
<path clip-path="url(#clip530)" d="M233.672 1454.1 Q230.061 1454.1 228.233 1457.66 Q226.427 1461.2 226.427 1468.33 Q226.427 1475.44 228.233 1479.01 Q230.061 1482.55 233.672 1482.55 Q237.307 1482.55 239.112 1479.01 Q240.941 1475.44 240.941 1468.33 Q240.941 1461.2 239.112 1457.66 Q237.307 1454.1 233.672 1454.1 M233.672 1450.39 Q239.482 1450.39 242.538 1455 Q245.617 1459.58 245.617 1468.33 Q245.617 1477.06 242.538 1481.67 Q239.482 1486.25 233.672 1486.25 Q227.862 1486.25 224.783 1481.67 Q221.728 1477.06 221.728 1468.33 Q221.728 1459.58 224.783 1455 Q227.862 1450.39 233.672 1450.39 Z" fill="#000000" fill-rule="nonzero" fill-opacity="1" /><path clip-path="url(#clip530)" d="M253.834 1479.7 L258.718 1479.7 L258.718 1485.58 L253.834 1485.58 L253.834 1479.7 Z" fill="#000000" fill-rule="nonzero" fill-opacity="1" /><path clip-path="url(#clip530)" d="M278.904 1454.1 Q275.292 1454.1 273.464 1457.66 Q271.658 1461.2 271.658 1468.33 Q271.658 1475.44 273.464 1479.01 Q275.292 1482.55 278.904 1482.55 Q282.538 1482.55 284.343 1479.01 Q286.172 1475.44 286.172 1468.33 Q286.172 1461.2 284.343 1457.66 Q282.538 1454.1 278.904 1454.1 M278.904 1450.39 Q284.714 1450.39 287.769 1455 Q290.848 1459.58 290.848 1468.33 Q290.848 1477.06 287.769 1481.67 Q284.714 1486.25 278.904 1486.25 Q273.093 1486.25 270.015 1481.67 Q266.959 1477.06 266.959 1468.33 Q266.959 1459.58 270.015 1455 Q273.093 1450.39 278.904 1450.39 Z" fill="#000000" fill-rule="nonzero" fill-opacity="1" /><path clip-path="url(#clip530)" d="M309.065 1454.1 Q305.454 1454.1 303.626 1457.66 Q301.82 1461.2 301.82 1468.33 Q301.82 1475.44 303.626 1479.01 Q305.454 1482.55 309.065 1482.55 Q312.7 1482.55 314.505 1479.01 Q316.334 1475.44 316.334 1468.33 Q316.334 1461.2 314.505 1457.66 Q312.7 1454.1 309.065 1454.1 M309.065 1450.39 Q314.876 1450.39 317.931 1455 Q321.01 1459.58 321.01 1468.33 Q321.01 1477.06 317.931 1481.67 Q314.876 1486.25 309.065 1486.25 Q303.255 1486.25 300.177 1481.67 Q297.121 1477.06 297.121 1468.33 Q297.121 1459.58 300.177 1455 Q303.255 1450.39 309.065 1450.39 Z" fill="#000000" fill-rule="nonzero" fill-opacity="1" /><path clip-path="url(#clip530)" d="M739.361 1454.1 Q735.75 1454.1 733.921 1457.66 Q732.116 1461.2 732.116 1468.33 Q732.116 1475.44 733.921 1479.01 Q735.75 1482.55 739.361 1482.55 Q742.995 1482.55 744.801 1479.01 Q746.63 1475.44 746.63 1468.33 Q746.63 1461.2 744.801 1457.66 Q742.995 1454.1 739.361 1454.1 M739.361 1450.39 Q745.171 1450.39 748.227 1455 Q751.305 1459.58 751.305 1468.33 Q751.305 1477.06 748.227 1481.67 Q745.171 1486.25 739.361 1486.25 Q733.551 1486.25 730.472 1481.67 Q727.417 1477.06 727.417 1468.33 Q727.417 1459.58 730.472 1455 Q733.551 1450.39 739.361 1450.39 Z" fill="#000000" fill-rule="nonzero" fill-opacity="1" /><path clip-path="url(#clip530)" d="M759.523 1479.7 L764.407 1479.7 L764.407 1485.58 L759.523 1485.58 L759.523 1479.7 Z" fill="#000000" fill-rule="nonzero" fill-opacity="1" /><path clip-path="url(#clip530)" d="M778.62 1481.64 L794.939 1481.64 L794.939 1485.58 L772.995 1485.58 L772.995 1481.64 Q775.657 1478.89 780.24 1474.26 Q784.847 1469.61 786.027 1468.27 Q788.273 1465.74 789.152 1464.01 Q790.055 1462.25 790.055 1460.56 Q790.055 1457.8 788.111 1456.07 Q786.189 1454.33 783.088 1454.33 Q780.889 1454.33 778.435 1455.09 Q776.004 1455.86 773.227 1457.41 L773.227 1452.69 Q776.051 1451.55 778.504 1450.97 Q780.958 1450.39 782.995 1450.39 Q788.365 1450.39 791.56 1453.08 Q794.754 1455.77 794.754 1460.26 Q794.754 1462.39 793.944 1464.31 Q793.157 1466.2 791.051 1468.8 Q790.472 1469.47 787.37 1472.69 Q784.268 1475.88 778.62 1481.64 Z" fill="#000000" fill-rule="nonzero" fill-opacity="1" /><path clip-path="url(#clip530)" d="M804.8 1451.02 L823.157 1451.02 L823.157 1454.96 L809.083 1454.96 L809.083 1463.43 Q810.101 1463.08 811.12 1462.92 Q812.138 1462.73 813.157 1462.73 Q818.944 1462.73 822.324 1465.9 Q825.703 1469.08 825.703 1474.49 Q825.703 1480.07 822.231 1483.17 Q818.759 1486.25 812.439 1486.25 Q810.263 1486.25 807.995 1485.88 Q805.75 1485.51 803.342 1484.77 L803.342 1480.07 Q805.425 1481.2 807.648 1481.76 Q809.87 1482.32 812.347 1482.32 Q816.351 1482.32 818.689 1480.21 Q821.027 1478.1 821.027 1474.49 Q821.027 1470.88 818.689 1468.77 Q816.351 1466.67 812.347 1466.67 Q810.472 1466.67 808.597 1467.08 Q806.745 1467.5 804.8 1468.38 L804.8 1451.02 Z" fill="#000000" fill-rule="nonzero" fill-opacity="1" /><path clip-path="url(#clip530)" d="M1244.05 1454.1 Q1240.44 1454.1 1238.61 1457.66 Q1236.81 1461.2 1236.81 1468.33 Q1236.81 1475.44 1238.61 1479.01 Q1240.44 1482.55 1244.05 1482.55 Q1247.69 1482.55 1249.49 1479.01 Q1251.32 1475.44 1251.32 1468.33 Q1251.32 1461.2 1249.49 1457.66 Q1247.69 1454.1 1244.05 1454.1 M1244.05 1450.39 Q1249.86 1450.39 1252.92 1455 Q1256 1459.58 1256 1468.33 Q1256 1477.06 1252.92 1481.67 Q1249.86 1486.25 1244.05 1486.25 Q1238.24 1486.25 1235.17 1481.67 Q1232.11 1477.06 1232.11 1468.33 Q1232.11 1459.58 1235.17 1455 Q1238.24 1450.39 1244.05 1450.39 Z" fill="#000000" fill-rule="nonzero" fill-opacity="1" /><path clip-path="url(#clip530)" d="M1264.22 1479.7 L1269.1 1479.7 L1269.1 1485.58 L1264.22 1485.58 L1264.22 1479.7 Z" fill="#000000" fill-rule="nonzero" fill-opacity="1" /><path clip-path="url(#clip530)" d="M1279.33 1451.02 L1297.69 1451.02 L1297.69 1454.96 L1283.61 1454.96 L1283.61 1463.43 Q1284.63 1463.08 1285.65 1462.92 Q1286.67 1462.73 1287.69 1462.73 Q1293.48 1462.73 1296.86 1465.9 Q1300.23 1469.08 1300.23 1474.49 Q1300.23 1480.07 1296.76 1483.17 Q1293.29 1486.25 1286.97 1486.25 Q1284.79 1486.25 1282.53 1485.88 Q1280.28 1485.51 1277.87 1484.77 L1277.87 1480.07 Q1279.96 1481.2 1282.18 1481.76 Q1284.4 1482.32 1286.88 1482.32 Q1290.88 1482.32 1293.22 1480.21 Q1295.56 1478.1 1295.56 1474.49 Q1295.56 1470.88 1293.22 1468.77 Q1290.88 1466.67 1286.88 1466.67 Q1285 1466.67 1283.13 1467.08 Q1281.28 1467.5 1279.33 1468.38 L1279.33 1451.02 Z" fill="#000000" fill-rule="nonzero" fill-opacity="1" /><path clip-path="url(#clip530)" d="M1319.45 1454.1 Q1315.84 1454.1 1314.01 1457.66 Q1312.2 1461.2 1312.2 1468.33 Q1312.2 1475.44 1314.01 1479.01 Q1315.84 1482.55 1319.45 1482.55 Q1323.08 1482.55 1324.89 1479.01 Q1326.72 1475.44 1326.72 1468.33 Q1326.72 1461.2 1324.89 1457.66 Q1323.08 1454.1 1319.45 1454.1 M1319.45 1450.39 Q1325.26 1450.39 1328.31 1455 Q1331.39 1459.58 1331.39 1468.33 Q1331.39 1477.06 1328.31 1481.67 Q1325.26 1486.25 1319.45 1486.25 Q1313.64 1486.25 1310.56 1481.67 Q1307.5 1477.06 1307.5 1468.33 Q1307.5 1459.58 1310.56 1455 Q1313.64 1450.39 1319.45 1450.39 Z" fill="#000000" fill-rule="nonzero" fill-opacity="1" /><path clip-path="url(#clip530)" d="M1749.74 1454.1 Q1746.13 1454.1 1744.3 1457.66 Q1742.5 1461.2 1742.5 1468.33 Q1742.5 1475.44 1744.3 1479.01 Q1746.13 1482.55 1749.74 1482.55 Q1753.38 1482.55 1755.18 1479.01 Q1757.01 1475.44 1757.01 1468.33 Q1757.01 1461.2 1755.18 1457.66 Q1753.38 1454.1 1749.74 1454.1 M1749.74 1450.39 Q1755.55 1450.39 1758.61 1455 Q1761.69 1459.58 1761.69 1468.33 Q1761.69 1477.06 1758.61 1481.67 Q1755.55 1486.25 1749.74 1486.25 Q1743.93 1486.25 1740.85 1481.67 Q1737.8 1477.06 1737.8 1468.33 Q1737.8 1459.58 1740.85 1455 Q1743.93 1450.39 1749.74 1450.39 Z" fill="#000000" fill-rule="nonzero" fill-opacity="1" /><path clip-path="url(#clip530)" d="M1769.91 1479.7 L1774.79 1479.7 L1774.79 1485.58 L1769.91 1485.58 L1769.91 1479.7 Z" fill="#000000" fill-rule="nonzero" fill-opacity="1" /><path clip-path="url(#clip530)" d="M1783.79 1451.02 L1806.02 1451.02 L1806.02 1453.01 L1793.47 1485.58 L1788.59 1485.58 L1800.39 1454.96 L1783.79 1454.96 L1783.79 1451.02 Z" fill="#000000" fill-rule="nonzero" fill-opacity="1" /><path clip-path="url(#clip530)" d="M1815.18 1451.02 L1833.54 1451.02 L1833.54 1454.96 L1819.46 1454.96 L1819.46 1463.43 Q1820.48 1463.08 1821.5 1462.92 Q1822.52 1462.73 1823.54 1462.73 Q1829.33 1462.73 1832.71 1465.9 Q1836.09 1469.08 1836.09 1474.49 Q1836.09 1480.07 1832.61 1483.17 Q1829.14 1486.25 1822.82 1486.25 Q1820.65 1486.25 1818.38 1485.88 Q1816.13 1485.51 1813.72 1484.77 L1813.72 1480.07 Q1815.81 1481.2 1818.03 1481.76 Q1820.25 1482.32 1822.73 1482.32 Q1826.73 1482.32 1829.07 1480.21 Q1831.41 1478.1 1831.41 1474.49 Q1831.41 1470.88 1829.07 1468.77 Q1826.73 1466.67 1822.73 1466.67 Q1820.85 1466.67 1818.98 1467.08 Q1817.13 1467.5 1815.18 1468.38 L1815.18 1451.02 Z" fill="#000000" fill-rule="nonzero" fill-opacity="1" /><path clip-path="url(#clip530)" d="M2244.2 1481.64 L2251.84 1481.64 L2251.84 1455.28 L2243.53 1456.95 L2243.53 1452.69 L2251.8 1451.02 L2256.47 1451.02 L2256.47 1481.64 L2264.11 1481.64 L2264.11 1485.58 L2244.2 1485.58 L2244.2 1481.64 Z" fill="#000000" fill-rule="nonzero" fill-opacity="1" /><path clip-path="url(#clip530)" d="M2273.56 1479.7 L2278.44 1479.7 L2278.44 1485.58 L2273.56 1485.58 L2273.56 1479.7 Z" fill="#000000" fill-rule="nonzero" fill-opacity="1" /><path clip-path="url(#clip530)" d="M2298.63 1454.1 Q2295.01 1454.1 2293.19 1457.66 Q2291.38 1461.2 2291.38 1468.33 Q2291.38 1475.44 2293.19 1479.01 Q2295.01 1482.55 2298.63 1482.55 Q2302.26 1482.55 2304.07 1479.01 Q2305.89 1475.44 2305.89 1468.33 Q2305.89 1461.2 2304.07 1457.66 Q2302.26 1454.1 2298.63 1454.1 M2298.63 1450.39 Q2304.44 1450.39 2307.49 1455 Q2310.57 1459.58 2310.57 1468.33 Q2310.57 1477.06 2307.49 1481.67 Q2304.44 1486.25 2298.63 1486.25 Q2292.82 1486.25 2289.74 1481.67 Q2286.68 1477.06 2286.68 1468.33 Q2286.68 1459.58 2289.74 1455 Q2292.82 1450.39 2298.63 1450.39 Z" fill="#000000" fill-rule="nonzero" fill-opacity="1" /><path clip-path="url(#clip530)" d="M2328.79 1454.1 Q2325.18 1454.1 2323.35 1457.66 Q2321.54 1461.2 2321.54 1468.33 Q2321.54 1475.44 2323.35 1479.01 Q2325.18 1482.55 2328.79 1482.55 Q2332.42 1482.55 2334.23 1479.01 Q2336.06 1475.44 2336.06 1468.33 Q2336.06 1461.2 2334.23 1457.66 Q2332.42 1454.1 2328.79 1454.1 M2328.79 1450.39 Q2334.6 1450.39 2337.65 1455 Q2340.73 1459.58 2340.73 1468.33 Q2340.73 1477.06 2337.65 1481.67 Q2334.6 1486.25 2328.79 1486.25 Q2322.98 1486.25 2319.9 1481.67 Q2316.84 1477.06 2316.84 1468.33 Q2316.84 1459.58 2319.9 1455 Q2322.98 1450.39 2328.79 1450.39 Z" fill="#000000" fill-rule="nonzero" fill-opacity="1" /><path clip-path="url(#clip530)" d="M1298.37 1532.4 L1285.47 1549.74 L1299.03 1568.04 L1292.13 1568.04 L1281.75 1554.04 L1271.37 1568.04 L1264.47 1568.04 L1278.31 1549.39 L1265.65 1532.4 L1272.55 1532.4 L1282.01 1545.1 L1291.46 1532.4 L1298.37 1532.4 Z" fill="#000000" fill-rule="nonzero" fill-opacity="1" /><polyline clip-path="url(#clip532)" style="stroke:#000000; stroke-linecap:round; stroke-linejoin:round; stroke-width:2; stroke-opacity:0.1; fill:none" points="210.746,1105.93 2352.76,1105.93 "/>
<polyline clip-path="url(#clip532)" style="stroke:#000000; stroke-linecap:round; stroke-linejoin:round; stroke-width:2; stroke-opacity:0.1; fill:none" points="210.746,782.5 2352.76,782.5 "/>
<polyline clip-path="url(#clip532)" style="stroke:#000000; stroke-linecap:round; stroke-linejoin:round; stroke-width:2; stroke-opacity:0.1; fill:none" points="210.746,459.073 2352.76,459.073 "/>
<polyline clip-path="url(#clip532)" style="stroke:#000000; stroke-linecap:round; stroke-linejoin:round; stroke-width:2; stroke-opacity:0.1; fill:none" points="210.746,135.646 2352.76,135.646 "/>
<polyline clip-path="url(#clip530)" style="stroke:#000000; stroke-linecap:round; stroke-linejoin:round; stroke-width:4; stroke-opacity:1; fill:none" points="210.746,1423.18 210.746,123.472 "/>
<polyline clip-path="url(#clip530)" style="stroke:#000000; stroke-linecap:round; stroke-linejoin:round; stroke-width:4; stroke-opacity:1; fill:none" points="210.746,1105.93 229.644,1105.93 "/>
<polyline clip-path="url(#clip530)" style="stroke:#000000; stroke-linecap:round; stroke-linejoin:round; stroke-width:4; stroke-opacity:1; fill:none" points="210.746,782.5 229.644,782.5 "/>
<polyline clip-path="url(#clip530)" style="stroke:#000000; stroke-linecap:round; stroke-linejoin:round; stroke-width:4; stroke-opacity:1; fill:none" points="210.746,459.073 229.644,459.073 "/>
<polyline clip-path="url(#clip530)" style="stroke:#000000; stroke-linecap:round; stroke-linejoin:round; stroke-width:4; stroke-opacity:1; fill:none" points="210.746,135.646 229.644,135.646 "/>
<path clip-path="url(#clip530)" d="M114.26 1106.38 L143.936 1106.38 L143.936 1110.31 L114.26 1110.31 L114.26 1106.38 Z" fill="#000000" fill-rule="nonzero" fill-opacity="1" /><path clip-path="url(#clip530)" d="M154.839 1119.27 L162.477 1119.27 L162.477 1092.91 L154.167 1094.57 L154.167 1090.31 L162.431 1088.65 L167.107 1088.65 L167.107 1119.27 L174.746 1119.27 L174.746 1123.21 L154.839 1123.21 L154.839 1119.27 Z" fill="#000000" fill-rule="nonzero" fill-opacity="1" /><path clip-path="url(#clip530)" d="M162.802 768.299 Q159.19 768.299 157.362 771.864 Q155.556 775.406 155.556 782.535 Q155.556 789.642 157.362 793.206 Q159.19 796.748 162.802 796.748 Q166.436 796.748 168.241 793.206 Q170.07 789.642 170.07 782.535 Q170.07 775.406 168.241 771.864 Q166.436 768.299 162.802 768.299 M162.802 764.595 Q168.612 764.595 171.667 769.202 Q174.746 773.785 174.746 782.535 Q174.746 791.262 171.667 795.868 Q168.612 800.452 162.802 800.452 Q156.991 800.452 153.913 795.868 Q150.857 791.262 150.857 782.535 Q150.857 773.785 153.913 769.202 Q156.991 764.595 162.802 764.595 Z" fill="#000000" fill-rule="nonzero" fill-opacity="1" /><path clip-path="url(#clip530)" d="M154.839 472.418 L162.477 472.418 L162.477 446.052 L154.167 447.719 L154.167 443.46 L162.431 441.793 L167.107 441.793 L167.107 472.418 L174.746 472.418 L174.746 476.353 L154.839 476.353 L154.839 472.418 Z" fill="#000000" fill-rule="nonzero" fill-opacity="1" /><path clip-path="url(#clip530)" d="M158.427 148.991 L174.746 148.991 L174.746 152.926 L152.802 152.926 L152.802 148.991 Q155.464 146.236 160.047 141.607 Q164.653 136.954 165.834 135.611 Q168.079 133.088 168.959 131.352 Q169.862 129.593 169.862 127.903 Q169.862 125.148 167.917 123.412 Q165.996 121.676 162.894 121.676 Q160.695 121.676 158.241 122.44 Q155.811 123.204 153.033 124.755 L153.033 120.033 Q155.857 118.898 158.311 118.32 Q160.765 117.741 162.802 117.741 Q168.172 117.741 171.366 120.426 Q174.561 123.111 174.561 127.602 Q174.561 129.732 173.751 131.653 Q172.964 133.551 170.857 136.144 Q170.278 136.815 167.177 140.033 Q164.075 143.227 158.427 148.991 Z" fill="#000000" fill-rule="nonzero" fill-opacity="1" /><path clip-path="url(#clip530)" d="M67.3143 771.639 Q73.68 774.122 75.6216 776.477 Q77.5631 778.832 77.5631 782.779 L77.5631 787.458 L72.6615 787.458 L72.6615 784.02 Q72.6615 781.601 71.5157 780.265 Q70.3699 778.928 66.1048 777.305 L63.4312 776.254 L28.3562 790.673 L28.3562 784.466 L56.238 773.326 L28.3562 762.186 L28.3562 755.979 L67.3143 771.639 Z" fill="#000000" fill-rule="nonzero" fill-opacity="1" /><path clip-path="url(#clip530)" d="M1070.33 72.576 L1047.24 12.096 L1055.79 12.096 L1074.95 63.0159 L1094.15 12.096 L1102.66 12.096 L1079.61 72.576 L1070.33 72.576 Z" fill="#000000" fill-rule="nonzero" fill-opacity="1" /><path clip-path="url(#clip530)" d="M1125.35 49.7694 Q1116.31 49.7694 1112.83 51.8354 Q1109.34 53.9013 1109.34 58.8839 Q1109.34 62.8538 1111.94 65.2034 Q1114.57 67.5124 1119.07 67.5124 Q1125.26 67.5124 1128.99 63.1374 Q1132.76 58.7219 1132.76 51.4303 L1132.76 49.7694 L1125.35 49.7694 M1140.21 46.6907 L1140.21 72.576 L1132.76 72.576 L1132.76 65.6895 Q1130.21 69.8214 1126.4 71.8063 Q1122.59 73.7508 1117.08 73.7508 Q1110.11 73.7508 1105.98 69.8619 Q1101.89 65.9325 1101.89 59.3701 Q1101.89 51.7138 1106.99 47.825 Q1112.14 43.9361 1122.31 43.9361 L1132.76 43.9361 L1132.76 43.2069 Q1132.76 38.0623 1129.36 35.2672 Q1125.99 32.4315 1119.88 32.4315 Q1115.99 32.4315 1112.3 33.3632 Q1108.62 34.295 1105.21 36.1584 L1105.21 29.2718 Q1109.3 27.692 1113.15 26.9223 Q1117 26.1121 1120.65 26.1121 Q1130.49 26.1121 1135.35 31.2163 Q1140.21 36.3204 1140.21 46.6907 Z" fill="#000000" fill-rule="nonzero" fill-opacity="1" /><path clip-path="url(#clip530)" d="M1193.28 45.1919 L1193.28 72.576 L1185.83 72.576 L1185.83 45.4349 Q1185.83 38.994 1183.31 35.7938 Q1180.8 32.5936 1175.78 32.5936 Q1169.74 32.5936 1166.26 36.4419 Q1162.78 40.2903 1162.78 46.9338 L1162.78 72.576 L1155.28 72.576 L1155.28 27.2059 L1162.78 27.2059 L1162.78 34.2544 Q1165.45 30.163 1169.05 28.1376 Q1172.7 26.1121 1177.44 26.1121 Q1185.26 26.1121 1189.27 30.9732 Q1193.28 35.7938 1193.28 45.1919 Z" fill="#000000" fill-rule="nonzero" fill-opacity="1" /><path clip-path="url(#clip530)" d="M1208.15 27.2059 L1215.6 27.2059 L1215.6 72.576 L1208.15 72.576 L1208.15 27.2059 M1208.15 9.54393 L1215.6 9.54393 L1215.6 18.9825 L1208.15 18.9825 L1208.15 9.54393 Z" fill="#000000" fill-rule="nonzero" fill-opacity="1" /><path clip-path="url(#clip530)" d="M1231.2 9.54393 L1238.65 9.54393 L1238.65 72.576 L1231.2 72.576 L1231.2 9.54393 Z" fill="#000000" fill-rule="nonzero" fill-opacity="1" /><path clip-path="url(#clip530)" d="M1254.25 9.54393 L1261.7 9.54393 L1261.7 72.576 L1254.25 72.576 L1254.25 9.54393 Z" fill="#000000" fill-rule="nonzero" fill-opacity="1" /><path clip-path="url(#clip530)" d="M1297.91 49.7694 Q1288.88 49.7694 1285.4 51.8354 Q1281.91 53.9013 1281.91 58.8839 Q1281.91 62.8538 1284.51 65.2034 Q1287.14 67.5124 1291.64 67.5124 Q1297.83 67.5124 1301.56 63.1374 Q1305.33 58.7219 1305.33 51.4303 L1305.33 49.7694 L1297.91 49.7694 M1312.78 46.6907 L1312.78 72.576 L1305.33 72.576 L1305.33 65.6895 Q1302.78 69.8214 1298.97 71.8063 Q1295.16 73.7508 1289.65 73.7508 Q1282.68 73.7508 1278.55 69.8619 Q1274.46 65.9325 1274.46 59.3701 Q1274.46 51.7138 1279.56 47.825 Q1284.71 43.9361 1294.88 43.9361 L1305.33 43.9361 L1305.33 43.2069 Q1305.33 38.0623 1301.92 35.2672 Q1298.56 32.4315 1292.45 32.4315 Q1288.56 32.4315 1284.87 33.3632 Q1281.18 34.295 1277.78 36.1584 L1277.78 29.2718 Q1281.87 27.692 1285.72 26.9223 Q1289.57 26.1121 1293.21 26.1121 Q1303.06 26.1121 1307.92 31.2163 Q1312.78 36.3204 1312.78 46.6907 Z" fill="#000000" fill-rule="nonzero" fill-opacity="1" /><path clip-path="url(#clip530)" d="M1396.07 63.9476 L1396.07 47.7034 L1382.7 47.7034 L1382.7 40.9789 L1404.17 40.9789 L1404.17 66.9452 Q1399.43 70.3075 1393.72 72.0494 Q1388.01 73.7508 1381.52 73.7508 Q1367.35 73.7508 1359.33 65.4869 Q1351.35 57.1826 1351.35 42.3968 Q1351.35 27.5705 1359.33 19.3066 Q1367.35 11.0023 1381.52 11.0023 Q1387.44 11.0023 1392.75 12.4606 Q1398.09 13.9189 1402.59 16.7545 L1402.59 25.464 Q1398.05 21.6156 1392.95 19.6712 Q1387.84 17.7268 1382.21 17.7268 Q1371.11 17.7268 1365.52 23.9246 Q1359.97 30.1225 1359.97 42.3968 Q1359.97 54.6305 1365.52 60.8284 Q1371.11 67.0263 1382.21 67.0263 Q1386.55 67.0263 1389.95 66.2971 Q1393.35 65.5274 1396.07 63.9476 Z" fill="#000000" fill-rule="nonzero" fill-opacity="1" /><path clip-path="url(#clip530)" d="M1427.3 18.8205 L1427.3 41.5461 L1437.59 41.5461 Q1443.3 41.5461 1446.42 38.5889 Q1449.54 35.6318 1449.54 30.163 Q1449.54 24.7348 1446.42 21.7777 Q1443.3 18.8205 1437.59 18.8205 L1427.3 18.8205 M1419.12 12.096 L1437.59 12.096 Q1447.76 12.096 1452.94 16.714 Q1458.17 21.2916 1458.17 30.163 Q1458.17 39.1155 1452.94 43.6931 Q1447.76 48.2706 1437.59 48.2706 L1427.3 48.2706 L1427.3 72.576 L1419.12 72.576 L1419.12 12.096 Z" fill="#000000" fill-rule="nonzero" fill-opacity="1" /><path clip-path="url(#clip530)" d="M1497.83 44.2197 Q1500.46 45.1109 1502.93 48.0275 Q1505.44 50.9442 1507.95 56.0483 L1516.26 72.576 L1507.47 72.576 L1499.73 57.061 Q1496.73 50.9847 1493.9 48.9997 Q1491.1 47.0148 1486.24 47.0148 L1477.33 47.0148 L1477.33 72.576 L1469.15 72.576 L1469.15 12.096 L1487.62 12.096 Q1497.99 12.096 1503.09 16.4305 Q1508.2 20.7649 1508.2 29.5149 Q1508.2 35.2267 1505.52 38.994 Q1502.89 42.7613 1497.83 44.2197 M1477.33 18.8205 L1477.33 40.2903 L1487.62 40.2903 Q1493.53 40.2903 1496.53 37.5762 Q1499.57 34.8216 1499.57 29.5149 Q1499.57 24.2082 1496.53 21.5346 Q1493.53 18.8205 1487.62 18.8205 L1477.33 18.8205 Z" fill="#000000" fill-rule="nonzero" fill-opacity="1" /><circle clip-path="url(#clip532)" cx="464.025" cy="854.201" r="14.4" fill="#ff0000" fill-rule="evenodd" fill-opacity="1" stroke="#000000" stroke-opacity="1" stroke-width="3.2"/>
<circle clip-path="url(#clip532)" cx="1854.42" cy="784.838" r="14.4" fill="#ff0000" fill-rule="evenodd" fill-opacity="1" stroke="#000000" stroke-opacity="1" stroke-width="3.2"/>
<circle clip-path="url(#clip532)" cx="443.62" cy="954.052" r="14.4" fill="#ff0000" fill-rule="evenodd" fill-opacity="1" stroke="#000000" stroke-opacity="1" stroke-width="3.2"/>
<circle clip-path="url(#clip532)" cx="1985.47" cy="792.849" r="14.4" fill="#ff0000" fill-rule="evenodd" fill-opacity="1" stroke="#000000" stroke-opacity="1" stroke-width="3.2"/>
<circle clip-path="url(#clip532)" cx="1479.79" cy="780.388" r="14.4" fill="#ff0000" fill-rule="evenodd" fill-opacity="1" stroke="#000000" stroke-opacity="1" stroke-width="3.2"/>
<circle clip-path="url(#clip532)" cx="1861.76" cy="786.682" r="14.4" fill="#ff0000" fill-rule="evenodd" fill-opacity="1" stroke="#000000" stroke-opacity="1" stroke-width="3.2"/>
<circle clip-path="url(#clip532)" cx="276.865" cy="733.533" r="14.4" fill="#ff0000" fill-rule="evenodd" fill-opacity="1" stroke="#000000" stroke-opacity="1" stroke-width="3.2"/>
<circle clip-path="url(#clip532)" cx="1080.44" cy="793.71" r="14.4" fill="#ff0000" fill-rule="evenodd" fill-opacity="1" stroke="#000000" stroke-opacity="1" stroke-width="3.2"/>
<circle clip-path="url(#clip532)" cx="811.842" cy="892.069" r="14.4" fill="#ff0000" fill-rule="evenodd" fill-opacity="1" stroke="#000000" stroke-opacity="1" stroke-width="3.2"/>
<circle clip-path="url(#clip532)" cx="324.237" cy="492.363" r="14.4" fill="#ff0000" fill-rule="evenodd" fill-opacity="1" stroke="#000000" stroke-opacity="1" stroke-width="3.2"/>
<circle clip-path="url(#clip532)" cx="1453.25" cy="801.163" r="14.4" fill="#ff0000" fill-rule="evenodd" fill-opacity="1" stroke="#000000" stroke-opacity="1" stroke-width="3.2"/>
<circle clip-path="url(#clip532)" cx="556.767" cy="681.902" r="14.4" fill="#ff0000" fill-rule="evenodd" fill-opacity="1" stroke="#000000" stroke-opacity="1" stroke-width="3.2"/>
<circle clip-path="url(#clip532)" cx="374.279" cy="809.078" r="14.4" fill="#ff0000" fill-rule="evenodd" fill-opacity="1" stroke="#000000" stroke-opacity="1" stroke-width="3.2"/>
<circle clip-path="url(#clip532)" cx="1321.56" cy="742.186" r="14.4" fill="#ff0000" fill-rule="evenodd" fill-opacity="1" stroke="#000000" stroke-opacity="1" stroke-width="3.2"/>
<circle clip-path="url(#clip532)" cx="1594.08" cy="783.914" r="14.4" fill="#ff0000" fill-rule="evenodd" fill-opacity="1" stroke="#000000" stroke-opacity="1" stroke-width="3.2"/>
<circle clip-path="url(#clip532)" cx="373.942" cy="784.346" r="14.4" fill="#ff0000" fill-rule="evenodd" fill-opacity="1" stroke="#000000" stroke-opacity="1" stroke-width="3.2"/>
<circle clip-path="url(#clip532)" cx="465.127" cy="844.069" r="14.4" fill="#ff0000" fill-rule="evenodd" fill-opacity="1" stroke="#000000" stroke-opacity="1" stroke-width="3.2"/>
<circle clip-path="url(#clip532)" cx="2057.7" cy="778.216" r="14.4" fill="#ff0000" fill-rule="evenodd" fill-opacity="1" stroke="#000000" stroke-opacity="1" stroke-width="3.2"/>
<circle clip-path="url(#clip532)" cx="1322.36" cy="738.875" r="14.4" fill="#ff0000" fill-rule="evenodd" fill-opacity="1" stroke="#000000" stroke-opacity="1" stroke-width="3.2"/>
<circle clip-path="url(#clip532)" cx="898.658" cy="724.48" r="14.4" fill="#ff0000" fill-rule="evenodd" fill-opacity="1" stroke="#000000" stroke-opacity="1" stroke-width="3.2"/>
<circle clip-path="url(#clip532)" cx="1208.92" cy="808.698" r="14.4" fill="#ff0000" fill-rule="evenodd" fill-opacity="1" stroke="#000000" stroke-opacity="1" stroke-width="3.2"/>
<circle clip-path="url(#clip532)" cx="1586.63" cy="770.215" r="14.4" fill="#ff0000" fill-rule="evenodd" fill-opacity="1" stroke="#000000" stroke-opacity="1" stroke-width="3.2"/>
<circle clip-path="url(#clip532)" cx="2221.31" cy="777.69" r="14.4" fill="#ff0000" fill-rule="evenodd" fill-opacity="1" stroke="#000000" stroke-opacity="1" stroke-width="3.2"/>
<circle clip-path="url(#clip532)" cx="707.101" cy="678.438" r="14.4" fill="#ff0000" fill-rule="evenodd" fill-opacity="1" stroke="#000000" stroke-opacity="1" stroke-width="3.2"/>
<circle clip-path="url(#clip532)" cx="870.153" cy="819.145" r="14.4" fill="#ff0000" fill-rule="evenodd" fill-opacity="1" stroke="#000000" stroke-opacity="1" stroke-width="3.2"/>
<circle clip-path="url(#clip532)" cx="1665.02" cy="796.241" r="14.4" fill="#ff0000" fill-rule="evenodd" fill-opacity="1" stroke="#000000" stroke-opacity="1" stroke-width="3.2"/>
<circle clip-path="url(#clip532)" cx="2196.8" cy="792.178" r="14.4" fill="#ff0000" fill-rule="evenodd" fill-opacity="1" stroke="#000000" stroke-opacity="1" stroke-width="3.2"/>
<circle clip-path="url(#clip532)" cx="1398.57" cy="793.656" r="14.4" fill="#ff0000" fill-rule="evenodd" fill-opacity="1" stroke="#000000" stroke-opacity="1" stroke-width="3.2"/>
<circle clip-path="url(#clip532)" cx="2029.53" cy="789.099" r="14.4" fill="#ff0000" fill-rule="evenodd" fill-opacity="1" stroke="#000000" stroke-opacity="1" stroke-width="3.2"/>
<circle clip-path="url(#clip532)" cx="1790.02" cy="779.457" r="14.4" fill="#ff0000" fill-rule="evenodd" fill-opacity="1" stroke="#000000" stroke-opacity="1" stroke-width="3.2"/>
<circle clip-path="url(#clip532)" cx="841.863" cy="887.338" r="14.4" fill="#ff0000" fill-rule="evenodd" fill-opacity="1" stroke="#000000" stroke-opacity="1" stroke-width="3.2"/>
<circle clip-path="url(#clip532)" cx="458.675" cy="871.798" r="14.4" fill="#ff0000" fill-rule="evenodd" fill-opacity="1" stroke="#000000" stroke-opacity="1" stroke-width="3.2"/>
<circle clip-path="url(#clip532)" cx="1802.4" cy="778.466" r="14.4" fill="#ff0000" fill-rule="evenodd" fill-opacity="1" stroke="#000000" stroke-opacity="1" stroke-width="3.2"/>
<circle clip-path="url(#clip532)" cx="1648.4" cy="805.556" r="14.4" fill="#ff0000" fill-rule="evenodd" fill-opacity="1" stroke="#000000" stroke-opacity="1" stroke-width="3.2"/>
<circle clip-path="url(#clip532)" cx="853.105" cy="845.546" r="14.4" fill="#ff0000" fill-rule="evenodd" fill-opacity="1" stroke="#000000" stroke-opacity="1" stroke-width="3.2"/>
<circle clip-path="url(#clip532)" cx="1419.89" cy="811.345" r="14.4" fill="#ff0000" fill-rule="evenodd" fill-opacity="1" stroke="#000000" stroke-opacity="1" stroke-width="3.2"/>
<circle clip-path="url(#clip532)" cx="719.902" cy="644.37" r="14.4" fill="#ff0000" fill-rule="evenodd" fill-opacity="1" stroke="#000000" stroke-opacity="1" stroke-width="3.2"/>
<circle clip-path="url(#clip532)" cx="817.134" cy="872.728" r="14.4" fill="#ff0000" fill-rule="evenodd" fill-opacity="1" stroke="#000000" stroke-opacity="1" stroke-width="3.2"/>
<circle clip-path="url(#clip532)" cx="1787.07" cy="781.176" r="14.4" fill="#ff0000" fill-rule="evenodd" fill-opacity="1" stroke="#000000" stroke-opacity="1" stroke-width="3.2"/>
<circle clip-path="url(#clip532)" cx="748.52" cy="696.136" r="14.4" fill="#ff0000" fill-rule="evenodd" fill-opacity="1" stroke="#000000" stroke-opacity="1" stroke-width="3.2"/>
<circle clip-path="url(#clip532)" cx="1763.49" cy="774.443" r="14.4" fill="#ff0000" fill-rule="evenodd" fill-opacity="1" stroke="#000000" stroke-opacity="1" stroke-width="3.2"/>
<circle clip-path="url(#clip532)" cx="1629.15" cy="816.198" r="14.4" fill="#ff0000" fill-rule="evenodd" fill-opacity="1" stroke="#000000" stroke-opacity="1" stroke-width="3.2"/>
<circle clip-path="url(#clip532)" cx="1057.92" cy="834.701" r="14.4" fill="#ff0000" fill-rule="evenodd" fill-opacity="1" stroke="#000000" stroke-opacity="1" stroke-width="3.2"/>
<circle clip-path="url(#clip532)" cx="665.497" cy="822.281" r="14.4" fill="#ff0000" fill-rule="evenodd" fill-opacity="1" stroke="#000000" stroke-opacity="1" stroke-width="3.2"/>
<circle clip-path="url(#clip532)" cx="475.025" cy="761.849" r="14.4" fill="#ff0000" fill-rule="evenodd" fill-opacity="1" stroke="#000000" stroke-opacity="1" stroke-width="3.2"/>
<circle clip-path="url(#clip532)" cx="2159.03" cy="779.022" r="14.4" fill="#ff0000" fill-rule="evenodd" fill-opacity="1" stroke="#000000" stroke-opacity="1" stroke-width="3.2"/>
<circle clip-path="url(#clip532)" cx="976.059" cy="761.63" r="14.4" fill="#ff0000" fill-rule="evenodd" fill-opacity="1" stroke="#000000" stroke-opacity="1" stroke-width="3.2"/>
<circle clip-path="url(#clip532)" cx="1854.29" cy="803.175" r="14.4" fill="#ff0000" fill-rule="evenodd" fill-opacity="1" stroke="#000000" stroke-opacity="1" stroke-width="3.2"/>
<circle clip-path="url(#clip532)" cx="903.939" cy="713.972" r="14.4" fill="#ff0000" fill-rule="evenodd" fill-opacity="1" stroke="#000000" stroke-opacity="1" stroke-width="3.2"/>
<circle clip-path="url(#clip532)" cx="1882.23" cy="793.135" r="14.4" fill="#ff0000" fill-rule="evenodd" fill-opacity="1" stroke="#000000" stroke-opacity="1" stroke-width="3.2"/>
<polyline clip-path="url(#clip532)" style="stroke:#000000; stroke-linecap:round; stroke-linejoin:round; stroke-width:4; stroke-opacity:1; fill:none" stroke-dasharray="16, 10" points="271.369,782.5 275.418,742.208 279.468,703.191 283.518,666.046 287.567,631.328 291.617,599.547 295.667,571.156 299.716,546.551 303.766,526.057 307.816,509.934 311.865,498.366 315.915,491.463 319.964,489.26 324.014,491.717 328.064,498.72 332.113,510.088 336.163,525.571 340.213,544.86 344.262,567.59 348.312,593.348 352.361,621.68 356.411,652.097 360.461,684.087 364.51,717.12 368.56,750.659 372.61,784.167 376.659,817.115 380.709,848.994 384.758,879.317 388.808,907.631 392.858,933.521 396.907,956.617 400.957,976.601 405.007,993.205 409.056,1006.22 413.106,1015.5 417.155,1020.96 421.205,1022.57 425.255,1020.37 429.304,1014.46 433.354,1004.98 437.404,992.138 441.453,976.197 445.503,957.455 449.552,936.252 453.602,912.961 457.652,887.983 461.701,861.739 465.751,834.663 469.801,807.194 473.85,779.773 477.9,752.831 481.949,726.785 485.999,702.032 490.049,678.943 494.098,657.853 498.148,639.065 502.198,622.837 506.247,609.386 510.297,598.879 514.347,591.435 518.396,587.123 522.446,585.961 526.495,587.916 530.545,592.91 534.595,600.814 538.644,611.458 542.694,624.63 546.744,640.082 550.793,657.535 554.843,676.681 558.892,697.191 562.942,718.72 566.992,740.913 571.041,763.409 575.091,785.849 579.141,807.878 583.19,829.157 587.24,849.362 591.289,868.191 595.339,885.369 599.389,900.651 603.438,913.827 607.488,924.722 611.538,933.202 615.587,939.169 619.637,942.571 623.686,943.394 627.736,941.666 631.786,937.456 635.835,930.869 639.885,922.047 643.935,911.164 647.984,898.425 652.034,884.061 656.083,868.323 660.133,851.482 664.183,833.821 668.232,815.631 672.282,797.209 676.332,778.847 680.381,760.835 684.431,743.451 688.48,726.959 692.53,711.606 696.58,697.615 700.629,685.185 704.679,674.488 708.729,665.664 712.778,658.823 716.828,654.042 720.878,651.362 724.927,650.793 728.977,652.311 733.026,655.858 737.076,661.345 741.126,668.656 745.175,677.646 749.225,688.147 753.275,699.969 757.324,712.905 761.374,726.732 765.423,741.219 769.473,756.127 773.523,771.213 777.572,786.238 781.622,800.964 785.672,815.166 789.721,828.626 793.771,841.145 797.82,852.539 801.87,862.648 805.92,871.332 809.969,878.477 814.019,883.995 818.069,887.824 822.118,889.932 826.168,890.311 830.217,888.984 834.267,885.999 838.317,881.429 842.366,875.372 846.416,867.946 850.466,859.291 854.515,849.562 858.565,838.93 862.614,827.578 866.664,815.695 870.714,803.478 874.763,791.124 878.813,778.83 882.863,766.79 886.912,755.19 890.962,744.204 895.012,733.997 899.061,724.718 903.111,716.497 907.16,709.448 911.21,703.663 915.26,699.214 919.309,696.149 923.359,694.494 927.409,694.254 931.458,695.409 935.508,697.92 939.557,701.724 943.607,706.742 947.657,712.875 951.706,720.008 955.756,728.014 959.806,736.751 963.855,746.072 967.905,755.818 971.954,765.83 976.004,775.946 980.054,786.004 984.103,795.847 988.153,805.323 992.203,814.289 996.252,822.61 1000.3,830.167 1004.35,836.851 1008.4,842.573 1012.45,847.255 1016.5,850.842 1020.55,853.294 1024.6,854.591 1028.65,854.73 1032.7,853.728 1036.75,851.618 1040.8,848.452 1044.85,844.296 1048.9,839.231 1052.95,833.353 1057,826.766 1061.05,819.585 1065.1,811.934 1069.15,803.94 1073.2,795.736 1077.24,787.453 1081.29,779.223 1085.34,771.177 1089.39,763.437 1093.44,756.12 1097.49,749.336 1101.54,743.183 1105.59,737.748 1109.64,733.105 1113.69,729.315 1117.74,726.424 1121.79,724.463 1125.84,723.449 1129.89,723.383 1133.94,724.249 1137.99,726.021 1142.04,728.655 1146.09,732.097 1150.14,736.278 1154.19,741.123 1158.24,746.542 1162.29,752.443 1166.34,758.724 1170.39,765.279 1174.44,772.003 1178.49,778.785 1182.54,785.517 1186.58,792.095 1190.63,798.417 1194.68,804.387 1198.73,809.918 1202.78,814.928 1206.83,819.347 1210.88,823.114 1214.93,826.181 1218.98,828.51 1223.03,830.077 1227.08,830.868 1231.13,830.884 1235.18,830.137 1239.23,828.65 1243.28,826.459 1247.33,823.61 1251.38,820.158 1255.43,816.166 1259.48,811.708 1263.53,806.859 1267.58,801.703 1271.63,796.327 1275.68,790.818 1279.73,785.265 1283.78,779.757 1287.83,774.38 1291.87,769.217 1295.92,764.345 1299.97,759.837 1304.02,755.758 1308.07,752.166 1312.12,749.109 1316.17,746.628 1320.22,744.752 1324.27,743.5 1328.32,742.884 1332.37,742.903 1336.42,743.545 1340.47,744.792 1344.52,746.614 1348.57,748.973 1352.62,751.823 1356.67,755.111 1360.72,758.779 1364.77,762.763 1368.82,766.995 1372.87,771.404 1376.92,775.918 1380.97,780.464 1385.02,784.969 1389.07,789.364 1393.12,793.581 1397.17,797.557 1401.21,801.231 1405.26,804.552 1409.31,807.472 1413.36,809.952 1417.41,811.959 1421.46,813.47 1425.51,814.468 1429.56,814.947 1433.61,814.906 1437.66,814.355 1441.71,813.31 1445.76,811.795 1449.81,809.843 1453.86,807.491 1457.91,804.782 1461.96,801.764 1466.01,798.491 1470.06,795.018 1474.11,791.402 1478.16,787.704 1482.21,783.982 1486.26,780.296 1490.31,776.704 1494.36,773.26 1498.41,770.017 1502.46,767.022 1506.51,764.319 1510.55,761.945 1514.6,759.934 1518.65,758.31 1522.7,757.094 1526.75,756.297 1530.8,755.927 1534.85,755.982 1538.9,756.454 1542.95,757.329 1547,758.587 1551.05,760.203 1555.1,762.144 1559.15,764.376 1563.2,766.858 1567.25,769.547 1571.3,772.398 1575.35,775.362 1579.4,778.392 1583.45,781.439 1587.5,784.454 1591.55,787.39 1595.6,790.203 1599.65,792.849 1603.7,795.29 1607.75,797.49 1611.8,799.419 1615.85,801.051 1619.89,802.364 1623.94,803.342 1627.99,803.977 1632.04,804.263 1636.09,804.201 1640.14,803.797 1644.19,803.065 1648.24,802.019 1652.29,800.683 1656.34,799.081 1660.39,797.243 1664.44,795.201 1668.49,792.992 1672.54,790.652 1676.59,788.221 1680.64,785.739 1684.69,783.245 1688.74,780.779 1692.79,778.379 1696.84,776.082 1700.89,773.924 1704.94,771.934 1708.99,770.143 1713.04,768.576 1717.09,767.253 1721.14,766.191 1725.19,765.404 1729.23,764.898 1733.28,764.679 1737.33,764.744 1741.38,765.087 1745.43,765.701 1749.48,766.569 1753.53,767.675 1757.58,768.996 1761.63,770.51 1765.68,772.189 1769.73,774.004 1773.78,775.924 1777.83,777.917 1781.88,779.951 1785.93,781.993 1789.98,784.01 1794.03,785.971 1798.08,787.846 1802.13,789.607 1806.18,791.228 1810.23,792.686 1814.28,793.96 1818.33,795.033 1822.38,795.891 1826.43,796.524 1830.48,796.926 1834.53,797.094 1838.57,797.03 1842.62,796.737 1846.67,796.224 1850.72,795.503 1854.77,794.589 1858.82,793.498 1862.87,792.251 1866.92,790.871 1870.97,789.38 1875.02,787.804 1879.07,786.17 1883.12,784.504 1887.17,782.833 1891.22,781.183 1895.27,779.58 1899.32,778.049 1903.37,776.612 1907.42,775.291 1911.47,774.105 1915.52,773.07 1919.57,772.2 1923.62,771.507 1927.67,770.998 1931.72,770.678 1935.77,770.55 1939.82,770.612 1943.87,770.861 1947.91,771.29 1951.96,771.888 1956.01,772.645 1960.06,773.544 1964.11,774.571 1968.16,775.707 1972.21,776.931 1976.26,778.224 1980.31,779.564 1984.36,780.928 1988.41,782.296 1992.46,783.646 1996.51,784.955 2000.56,786.206 2004.61,787.378 2008.66,788.454 2012.71,789.419 2016.76,790.26 2020.81,790.965 2024.86,791.526 2028.91,791.935 2032.96,792.189 2037.01,792.286 2041.06,792.227 2045.11,792.016 2049.16,791.658 2053.2,791.161 2057.25,790.535 2061.3,789.793 2065.35,788.948 2069.4,788.014 2073.45,787.008 2077.5,785.948 2081.55,784.849 2085.6,783.731 2089.65,782.612 2093.7,781.508 2097.75,780.438 2101.8,779.417 2105.85,778.461 2109.9,777.584 2113.95,776.799 2118,776.116 2122.05,775.544 2126.1,775.091 2130.15,774.763 2134.2,774.561 2138.25,774.488 2142.3,774.543 2146.35,774.722 2150.4,775.021 2154.45,775.433 2158.5,775.95 2162.54,776.562 2166.59,777.258 2170.64,778.026 2174.69,778.852 2178.74,779.722 2182.79,780.623 2186.84,781.539 2190.89,782.455 2194.94,783.357 2198.99,784.232 2203.04,785.065 2207.09,785.845 2211.14,786.559 2215.19,787.198 2219.24,787.753 2223.29,788.217 2227.34,788.582 2231.39,788.846 2235.44,789.006 2239.49,789.06 2243.54,789.011 2247.59,788.859 2251.64,788.609 2255.69,788.267 2259.74,787.84 2263.79,787.335 2267.84,786.762 2271.88,786.131 2275.93,785.453 2279.98,784.738 2284.03,784 2288.08,783.25 2292.13,782.5 "/>
<polyline clip-path="url(#clip532)" style="stroke:#0000ff; stroke-linecap:round; stroke-linejoin:round; stroke-width:12; stroke-opacity:1; fill:none" points="271.369,762.901 275.418,740.448 279.468,715.756 283.518,689.346 287.567,661.857 291.617,634.03 295.667,606.682 299.716,580.674 303.766,556.872 307.816,536.108 311.865,519.143 315.915,506.629 319.964,499.076 324.014,496.828 328.064,500.047 332.113,508.703 336.163,522.583 340.213,541.298 344.262,564.311 348.312,590.962 352.361,620.507 356.411,652.149 360.461,685.085 364.51,718.533 368.56,751.767 372.61,784.142 376.659,815.107 380.709,844.217 384.758,871.132 388.808,895.609 392.858,917.489 396.907,936.681 400.957,953.137 405.007,966.839 409.056,977.775 413.106,985.928 417.155,991.268 421.205,993.747 425.255,993.305 429.304,989.879 433.354,983.417 437.404,973.897 441.453,961.345 445.503,945.852 449.552,927.587 453.602,906.812 457.652,883.876 461.701,859.22 465.751,833.359 469.801,806.867 473.85,780.352 477.9,754.432 481.949,729.7 485.999,706.704 490.049,685.916 494.098,667.717 498.148,652.377 502.198,640.055 506.247,630.792 510.297,624.525 514.347,621.094 518.396,620.264 522.446,621.741 526.495,625.198 530.545,630.292 534.595,636.682 538.644,644.051 542.694,652.111 546.744,660.618 550.793,669.372 554.843,678.218 558.892,687.047 562.942,695.789 566.992,704.408 571.041,712.894 575.091,721.258 579.141,729.523 583.19,737.717 587.24,745.872 591.289,754.01 595.339,762.147 599.389,770.284 603.438,778.407 607.488,786.481 611.538,794.449 615.587,802.229 619.637,809.715 623.686,816.776 627.736,823.255 631.786,828.975 635.835,833.741 639.885,837.349 643.935,839.591 647.984,840.265 652.034,839.192 656.083,836.22 660.133,831.246 664.183,824.219 668.232,815.16 672.282,804.164 676.332,791.409 680.381,777.155 684.431,761.742 688.48,745.582 692.53,729.145 696.58,712.942 700.629,697.505 704.679,683.36 708.729,671.007 712.778,660.892 716.828,653.386 720.878,648.769 724.927,647.21 728.977,648.767 733.026,653.38 737.076,660.878 741.126,670.989 745.175,683.36 749.225,697.571 753.275,713.163 757.324,729.662 761.374,746.598 765.423,763.53 769.473,780.061 773.523,795.854 777.572,810.637 781.622,824.209 785.672,836.436 789.721,847.25 793.771,856.634 797.82,864.613 801.87,871.242 805.92,876.591 809.969,880.735 814.019,883.743 818.069,885.667 822.118,886.542 826.168,886.381 830.217,885.176 834.267,882.904 838.317,879.53 842.366,875.016 846.416,869.332 850.466,862.462 854.515,854.414 858.565,845.227 862.614,834.977 866.664,823.782 870.714,811.797 874.763,799.221 878.813,786.284 882.863,773.242 886.912,760.372 890.962,747.953 895.012,736.26 899.061,725.55 903.111,716.051 907.16,707.952 911.21,701.393 915.26,696.466 919.309,693.205 923.359,691.594 927.409,691.569 931.458,693.023 935.508,695.814 939.557,699.78 943.607,704.744 947.657,710.526 951.706,716.952 955.756,723.863 959.806,731.12 963.855,738.604 967.905,746.223 971.954,753.907 976.004,761.604 980.054,769.28 984.103,776.908 988.153,784.464 992.203,791.921 996.252,799.243 1000.3,806.382 1004.35,813.271 1008.4,819.828 1012.45,825.952 1016.5,831.528 1020.55,836.432 1024.6,840.539 1028.65,843.724 1032.7,845.878 1036.75,846.91 1040.8,846.759 1044.85,845.397 1048.9,842.838 1052.95,839.134 1057,834.383 1061.05,828.718 1065.1,822.309 1069.15,815.354 1073.2,808.068 1077.24,800.673 1081.29,793.392 1085.34,786.435 1089.39,779.99 1093.44,774.219 1097.49,769.247 1101.54,765.166 1105.59,762.024 1109.64,759.838 1113.69,758.588 1117.74,758.224 1121.79,758.675 1125.84,759.851 1129.89,761.651 1133.94,763.969 1137.99,766.699 1142.04,769.739 1146.09,772.995 1150.14,776.379 1154.19,779.817 1158.24,783.24 1162.29,786.593 1166.34,789.826 1170.39,792.896 1174.44,795.767 1178.49,798.407 1182.54,800.786 1186.58,802.878 1190.63,804.662 1194.68,806.117 1198.73,807.228 1202.78,807.981 1206.83,808.37 1210.88,808.391 1214.93,808.045 1218.98,807.34 1223.03,806.288 1227.08,804.904 1231.13,803.207 1235.18,801.22 1239.23,798.966 1243.28,796.471 1247.33,793.761 1251.38,790.862 1255.43,787.799 1259.48,784.598 1263.53,781.285 1267.58,777.887 1271.63,774.431 1275.68,770.947 1279.73,767.465 1283.78,764.021 1287.83,760.65 1291.87,757.392 1295.92,754.286 1299.97,751.375 1304.02,748.701 1308.07,746.306 1312.12,744.228 1316.17,742.504 1320.22,741.168 1324.27,740.247 1328.32,739.764 1332.37,739.737 1336.42,740.179 1340.47,741.096 1344.52,742.489 1348.57,744.356 1352.62,746.686 1356.67,749.465 1360.72,752.669 1364.77,756.268 1368.82,760.225 1372.87,764.492 1376.92,769.011 1380.97,773.713 1385.02,778.52 1389.07,783.343 1393.12,788.088 1397.17,792.653 1401.21,796.937 1405.26,800.84 1409.31,804.268 1413.36,807.14 1417.41,809.389 1421.46,810.967 1425.51,811.846 1429.56,812.025 1433.61,811.523 1437.66,810.382 1441.71,808.663 1445.76,806.446 1449.81,803.819 1453.86,800.88 1457.91,797.726 1461.96,794.452 1466.01,791.142 1470.06,787.87 1474.11,784.693 1478.16,781.651 1482.21,778.767 1486.26,776.046 1490.31,773.48 1494.36,771.046 1498.41,768.715 1502.46,766.455 1506.51,764.233 1510.55,762.023 1514.6,759.807 1518.65,757.582 1522.7,755.363 1526.75,753.181 1530.8,751.087 1534.85,749.148 1538.9,747.45 1542.95,746.086 1547,745.158 1551.05,744.767 1555.1,745.006 1559.15,745.953 1563.2,747.666 1567.25,750.171 1571.3,753.466 1575.35,757.507 1579.4,762.218 1583.45,767.484 1587.5,773.159 1591.55,779.073 1595.6,785.038 1599.65,790.859 1603.7,796.345 1607.75,801.319 1611.8,805.629 1615.85,809.153 1619.89,811.81 1623.94,813.558 1627.99,814.4 1632.04,814.378 1636.09,813.567 1640.14,812.072 1644.19,810.017 1648.24,807.537 1652.29,804.765 1656.34,801.831 1660.39,798.849 1664.44,795.912 1668.49,793.093 1672.54,790.443 1676.59,787.989 1680.64,785.742 1684.69,783.697 1688.74,781.841 1692.79,780.156 1696.84,778.622 1700.89,777.226 1704.94,775.96 1708.99,774.822 1713.04,773.821 1717.09,772.967 1721.14,772.278 1725.19,771.769 1729.23,771.454 1733.28,771.34 1737.33,771.428 1741.38,771.706 1745.43,772.154 1749.48,772.742 1753.53,773.435 1757.58,774.192 1761.63,774.972 1765.68,775.739 1769.73,776.464 1773.78,777.126 1777.83,777.72 1781.88,778.251 1785.93,778.736 1789.98,779.199 1794.03,779.674 1798.08,780.191 1802.13,780.782 1806.18,781.467 1810.23,782.259 1814.28,783.156 1818.33,784.144 1822.38,785.198 1826.43,786.281 1830.48,787.354 1834.53,788.373 1838.57,789.3 1842.62,790.102 1846.67,790.759 1850.72,791.262 1854.77,791.616 1858.82,791.836 1862.87,791.95 1866.92,791.989 1870.97,791.988 1875.02,791.982 1879.07,792 1883.12,792.061 1887.17,792.179 1891.22,792.354 1895.27,792.579 1899.32,792.838 1903.37,793.11 1907.42,793.371 1911.47,793.598 1915.52,793.771 1919.57,793.874 1923.62,793.899 1927.67,793.843 1931.72,793.714 1935.77,793.524 1939.82,793.291 1943.87,793.036 1947.91,792.782 1951.96,792.551 1956.01,792.363 1960.06,792.234 1964.11,792.173 1968.16,792.184 1972.21,792.264 1976.26,792.402 1980.31,792.584 1984.36,792.787 1988.41,792.985 1992.46,793.15 1996.51,793.251 2000.56,793.26 2004.61,793.148 2008.66,792.894 2012.71,792.478 2016.76,791.888 2020.81,791.121 2024.86,790.177 2028.91,789.068 2032.96,787.809 2037.01,786.424 2041.06,784.938 2045.11,783.381 2049.16,781.783 2053.2,780.175 2057.25,778.583 2061.3,777.032 2065.35,775.54 2069.4,774.122 2073.45,772.786 2077.5,771.539 2081.55,770.381 2085.6,769.313 2089.65,768.334 2093.7,767.447 2097.75,766.656 2101.8,765.972 2105.85,765.409 2109.9,764.989 2113.95,764.737 2118,764.685 2122.05,764.863 2126.1,765.303 2130.15,766.032 2134.2,767.067 2138.25,768.418 2142.3,770.077 2146.35,772.023 2150.4,774.216 2154.45,776.599 2158.5,779.096 2162.54,781.622 2166.59,784.079 2170.64,786.364 2174.69,788.377 2178.74,790.024 2182.79,791.224 2186.84,791.915 2190.89,792.056 2194.94,791.636 2198.99,790.667 2203.04,789.189 2207.09,787.267 2211.14,784.987 2215.19,782.45 2219.24,779.766 2223.29,777.05 2227.34,774.411 2231.39,771.951 2235.44,769.757 2239.49,767.899 2243.54,766.426 2247.59,765.365 2251.64,764.724 2255.69,764.491 2259.74,764.636 2263.79,765.117 2267.84,765.885 2271.88,766.88 2275.93,768.046 2279.98,769.324 2284.03,770.66 2288.08,772.008 2292.13,773.326 "/>
<polyline clip-path="url(#clip532)" style="stroke:#808080; stroke-linecap:round; stroke-linejoin:round; stroke-width:4; stroke-opacity:1; fill:none" points="271.369,669.348 275.418,673.207 279.468,647.826 283.518,602.054 287.567,552.455 291.617,506.844 295.667,468.593 299.716,439.416 303.766,420.112 307.816,410.723 311.865,410.44 315.915,417.241 319.964,426.999 324.014,432.718 328.064,429.443 332.113,421.617 336.163,416.533 340.213,418.636 344.262,430.104 348.312,451.808 352.361,483.737 356.411,525.151 360.461,574.618 364.51,629.867 368.56,686.978 372.61,736.995 376.659,763.693 380.709,768.709 384.758,765.695 388.808,760.916 392.858,757.142 396.907,755.975 400.957,758.401 405.007,764.906 409.056,775.519 413.106,789.83 417.155,807.037 421.205,826.007 425.255,845.346 429.304,863.494 433.354,878.802 437.404,889.621 441.453,894.415 445.503,892.024 449.552,882.244 453.602,866.368 457.652,846.628 461.701,824.567 465.751,799.612 469.801,768.942 473.85,730.574 477.9,685.748 481.949,636.879 485.999,586.142 490.049,535.433 494.098,486.496 498.148,440.98 502.198,400.428 506.247,366.247 510.297,339.671 514.347,321.711 518.396,313.12 522.446,314.36 526.495,325.581 530.545,346.607 534.595,376.926 538.644,415.676 542.694,461.576 546.744,512.668 550.793,565.234 554.843,608.607 558.892,615.472 562.942,584.744 566.992,541.662 571.041,496.151 575.091,451.742 579.141,410.345 583.19,373.288 587.24,341.582 591.289,316.008 595.339,297.154 599.389,285.439 603.438,281.121 607.488,284.307 611.538,294.953 615.587,312.86 619.637,337.663 623.686,368.821 627.736,405.6 631.786,447.067 635.835,492.082 639.885,539.299 643.935,587.171 647.984,633.94 652.034,677.572 656.083,715.536 660.133,744.135 664.183,757.508 668.232,750.937 672.282,730.189 676.332,705.269 680.381,681.714 684.431,661.788 688.48,646.289 692.53,635.261 696.58,628.241 700.629,624.295 704.679,621.951 708.729,619.108 712.778,613.568 716.828,604.98 720.878,595.845 724.927,589.35 728.977,587.562 733.026,591.213 737.076,599.822 741.126,611.69 745.175,624.001 749.225,633.782 753.275,639.682 757.324,642.498 761.374,643.988 765.423,645.862 769.473,649.492 773.523,655.881 777.572,665.674 781.622,679.152 785.672,696.231 789.721,716.467 793.771,739.076 797.82,762.957 801.87,786.707 805.92,808.59 809.969,826.486 814.019,838.125 818.069,842.509 822.118,841.46 826.168,838.069 830.217,834.455 834.267,831.471 838.317,829.116 842.366,826.871 846.416,823.898 850.466,819.207 854.515,811.902 858.565,801.525 862.614,788.289 866.664,772.968 870.714,756.601 874.763,740.282 878.813,725.061 882.863,711.877 886.912,701.419 890.962,693.856 895.012,688.23 899.061,681.302 903.111,667.601 907.16,644.723 911.21,615.508 915.26,583.48 919.309,551.26 923.359,520.913 927.409,494.223 931.458,472.762 935.508,457.885 939.557,450.677 943.607,451.913 947.657,462.011 951.706,481.003 955.756,508.497 959.806,543.63 963.855,584.925 967.905,629.784 971.954,672.452 976.004,697.293 980.054,686.968 984.103,656.185 988.153,620.628 992.203,586.338 996.252,556.187 1000.3,531.962 1004.35,514.87 1008.4,505.669 1012.45,504.698 1016.5,511.89 1020.55,526.781 1024.6,548.527 1028.65,575.934 1032.7,607.496 1036.75,641.436 1040.8,675.745 1044.85,708.194 1048.9,736.3 1052.95,757.294 1057,768.582 1061.05,769.743 1065.1,764.33 1069.15,757.071 1073.2,750.115 1077.24,741.875 1081.29,727.648 1085.34,703.403 1089.39,669.306 1093.44,627.918 1097.49,581.882 1101.54,533.431 1105.59,484.449 1109.64,436.548 1113.69,391.088 1117.74,349.181 1121.79,311.695 1125.84,279.266 1129.89,252.315 1133.94,231.085 1137.99,215.681 1142.04,206.108 1146.09,202.317 1150.14,204.236 1154.19,211.797 1158.24,224.947 1162.29,243.649 1166.34,267.87 1170.39,297.56 1174.44,332.619 1178.49,372.873 1182.54,418.034 1186.58,467.666 1190.63,521.138 1194.68,577.533 1198.73,635.379 1202.78,691.595 1206.83,735.972 1210.88,736.886 1214.93,693.368 1218.98,637.521 1223.03,580.021 1227.08,524.078 1231.13,471.234 1235.18,422.475 1239.23,378.507 1243.28,339.846 1247.33,306.866 1251.38,279.828 1255.43,258.909 1259.48,244.225 1263.53,235.85 1267.58,233.831 1271.63,238.196 1275.68,248.948 1279.73,266.051 1283.78,289.416 1287.83,318.872 1291.87,354.136 1295.92,394.783 1299.97,440.218 1304.02,489.638 1308.07,541.968 1312.12,595.678 1316.17,647.961 1320.22,689.236 1324.27,684.976 1328.32,644.276 1332.37,600.201 1336.42,560.37 1340.47,527.167 1344.52,501.823 1348.57,485.03 1352.62,477.06 1356.67,477.793 1360.72,486.739 1364.77,503.058 1368.82,525.604 1372.87,552.984 1376.92,583.622 1380.97,615.836 1385.02,647.902 1389.07,678.095 1393.12,704.701 1397.17,726.049 1401.21,740.817 1405.26,748.913 1409.31,751.987 1413.36,752.321 1417.41,751.541 1421.46,750.457 1425.51,749.398 1429.56,748.476 1433.61,747.692 1437.66,746.946 1441.71,746.029 1445.76,744.667 1449.81,742.646 1453.86,739.977 1457.91,736.981 1461.96,734.204 1466.01,732.099 1470.06,730.527 1474.11,728.094 1478.16,721.775 1482.21,708.187 1486.26,686.11 1490.31,656.662 1494.36,621.725 1498.41,583.172 1502.46,542.776 1506.51,502.241 1510.55,463.195 1514.6,427.167 1518.65,395.535 1522.7,369.485 1526.75,349.975 1530.8,337.702 1534.85,333.091 1538.9,336.291 1542.95,347.18 1547,365.376 1551.05,390.264 1555.1,421.015 1559.15,456.616 1563.2,495.903 1567.25,537.582 1571.3,580.239 1575.35,622.319 1579.4,661.987 1583.45,696.692 1587.5,722.15 1591.55,733.28 1595.6,732.65 1599.65,728.69 1603.7,726.123 1607.75,726.412 1611.8,729.644 1615.85,735.272 1619.89,742.375 1623.94,749.786 1627.99,756.219 1632.04,760.53 1636.09,762.145 1640.14,761.401 1644.19,759.364 1648.24,757.169 1652.29,755.325 1656.34,753.106 1660.39,748.141 1664.44,737.249 1668.49,718.852 1672.54,693.742 1676.59,663.655 1680.64,630.36 1684.69,595.523 1688.74,560.741 1692.79,527.558 1696.84,497.441 1700.89,471.729 1704.94,451.578 1708.99,437.904 1713.04,431.335 1717.09,432.171 1721.14,440.367 1725.19,455.525 1729.23,476.912 1733.28,503.491 1737.33,533.968 1741.38,566.846 1745.43,600.485 1749.48,633.141 1753.53,662.993 1757.58,688.157 1761.63,706.86 1765.68,718.193 1769.73,723.386 1773.78,725.562 1777.83,727.62 1781.88,730.961 1785.93,735.454 1789.98,739.54 1794.03,740.507 1798.08,736.25 1802.13,727.365 1806.18,716.112 1810.23,704.627 1814.28,694.511 1818.33,686.932 1822.38,682.71 1826.43,682.341 1830.48,685.991 1834.53,693.474 1838.57,704.23 1842.62,717.295 1846.67,731.212 1850.72,743.864 1854.77,752.401 1858.82,754.577 1862.87,751.611 1866.92,747.026 1870.97,743.159 1875.02,740.159 1879.07,735.992 1883.12,727.12 1887.17,710.736 1891.22,686.492 1895.27,655.749 1899.32,620.36 1903.37,582.201 1907.42,543.087 1911.47,504.757 1915.52,468.847 1919.57,436.853 1923.62,410.099 1927.67,389.697 1931.72,376.517 1935.77,371.167 1939.82,373.971 1943.87,384.959 1947.91,403.863 1951.96,430.112 1956.01,462.837 1960.06,500.88 1964.11,542.797 1968.16,586.845 1972.21,630.908 1976.26,672.219 1980.31,706.524 1984.36,726.692 1988.41,727.041 1992.46,714.792 1996.51,700.827 2000.56,690.455 2004.61,685.47 2008.66,686.058 2012.71,691.48 2016.76,700.304 2020.81,710.5 2024.86,719.576 2028.91,725.128 2032.96,726.112 2037.01,723.798 2041.06,720.779 2045.11,719.159 2049.16,719.468 2053.2,719.882 2057.25,715.712 2061.3,701.725 2065.35,676.842 2069.4,643.607 2073.45,605.053 2077.5,563.762 2081.55,521.952 2085.6,481.598 2089.65,444.473 2093.7,412.135 2097.75,385.908 2101.8,366.844 2105.85,355.712 2109.9,352.968 2113.95,358.756 2118,372.897 2122.05,394.894 2126.1,423.941 2130.15,458.938 2134.2,498.507 2138.25,541.015 2142.3,584.567 2146.35,626.951 2150.4,665.41 2154.45,696.137 2158.5,714.233 2162.54,717.964 2166.59,713.456 2170.64,707.994 2174.69,705.162 2178.74,705.913 2182.79,709.83 2186.84,715.729 2190.89,722.019 2194.94,727.099 2198.99,729.934 2203.04,730.528 2207.09,729.755 2211.14,728.431 2215.19,726.154 2219.24,720.492 2223.29,707.769 2227.34,685.894 2231.39,655.513 2235.44,618.488 2239.49,576.759 2243.54,532.111 2247.59,486.167 2251.64,440.388 2255.69,396.051 2259.74,354.219 2263.79,315.72 2267.84,281.13 2271.88,250.783 2275.93,224.784 2279.98,203.04 2284.03,185.297 2288.08,171.185 2292.13,160.256 "/>
<path clip-path="url(#clip532)" d="M271.369 856.455 L275.418 807.688 L279.468 783.686 L283.518 776.637 L287.567 771.258 L291.617 761.216 L295.667 744.772 L299.716 721.933 L303.766 693.631 L307.816 661.492 L311.865 627.846 L315.915 596.017 L319.964 571.153 L324.014 560.939 L328.064 570.65 L332.113 595.789 L336.163 628.633 L340.213 663.96 L344.262 698.518 L348.312 730.116 L352.361 757.276 L356.411 779.148 L360.461 795.552 L364.51 807.199 L368.56 816.557 L372.61 831.289 L376.659 866.521 L380.709 919.725 L384.758 976.569 L388.808 1030.3 L392.858 1077.84 L396.907 1117.39 L400.957 1147.87 L405.007 1168.77 L409.056 1180.03 L413.106 1182.03 L417.155 1175.5 L421.205 1161.49 L425.255 1141.26 L429.304 1116.26 L433.354 1088.03 L437.404 1058.17 L441.453 1028.28 L445.503 999.679 L449.552 972.931 L453.602 947.255 L457.652 921.125 L461.701 893.873 L465.751 867.106 L469.801 844.792 L473.85 830.131 L477.9 823.115 L481.949 822.52 L485.999 827.265 L490.049 836.4 L494.098 848.938 L498.148 863.775 L502.198 879.682 L506.247 895.337 L510.297 909.378 L514.347 920.476 L518.396 927.407 L522.446 929.122 L526.495 924.815 L530.545 913.977 L534.595 896.438 L538.644 872.425 L542.694 842.647 L546.744 808.569 L550.793 773.51 L554.843 747.829 L558.892 758.622 L562.942 806.834 L566.992 867.154 L571.041 929.636 L575.091 990.774 L579.141 1048.7 L583.19 1102.15 L587.24 1150.16 L591.289 1192.01 L595.339 1227.14 L599.389 1255.13 L603.438 1275.69 L607.488 1288.66 L611.538 1293.94 L615.587 1291.6 L619.637 1281.77 L623.686 1264.73 L627.736 1240.91 L631.786 1210.88 L635.835 1175.4 L639.885 1135.4 L643.935 1092.01 L647.984 1046.59 L652.034 1000.81 L656.083 956.905 L660.133 918.356 L664.183 890.93 L668.232 879.384 L672.282 878.14 L676.332 877.549 L680.381 872.595 L684.431 861.695 L688.48 844.875 L692.53 823.029 L696.58 797.644 L700.629 770.714 L704.679 744.769 L708.729 722.907 L712.778 708.216 L716.828 701.793 L720.878 701.693 L724.927 705.071 L728.977 709.972 L733.026 715.547 L737.076 721.933 L741.126 730.288 L745.175 742.718 L749.225 761.359 L753.275 786.644 L757.324 816.826 L761.374 849.209 L765.423 881.199 L769.473 910.631 L773.523 935.827 L777.572 955.599 L781.622 969.265 L785.672 976.642 L789.721 978.034 L793.771 974.192 L797.82 966.269 L801.87 955.777 L805.92 944.592 L809.969 934.985 L814.019 929.361 L818.069 928.824 L822.118 931.624 L826.168 934.693 L830.217 935.897 L834.267 934.337 L838.317 929.944 L842.366 923.161 L846.416 914.766 L850.466 905.717 L854.515 896.925 L858.565 888.928 L862.614 881.665 L866.664 874.595 L870.714 866.993 L874.763 858.161 L878.813 847.506 L882.863 834.608 L886.912 819.325 L890.962 802.049 L895.012 784.29 L899.061 769.799 L903.111 764.502 L907.16 771.181 L911.21 787.279 L915.26 809.452 L919.309 835.15 L923.359 862.276 L927.409 888.916 L931.458 913.283 L935.508 933.743 L939.557 948.883 L943.607 957.575 L947.657 959.04 L951.706 952.901 L955.756 939.229 L959.806 918.609 L963.855 892.283 L967.905 862.662 L971.954 835.362 L976.004 825.916 L980.054 851.593 L984.103 897.631 L988.153 948.299 L992.203 997.503 L996.252 1042.3 L1000.3 1080.8 L1004.35 1111.67 L1008.4 1133.99 L1012.45 1147.21 L1016.5 1151.17 L1020.55 1146.08 L1024.6 1132.55 L1028.65 1111.51 L1032.7 1084.26 L1036.75 1052.38 L1040.8 1017.77 L1044.85 982.601 L1048.9 949.376 L1052.95 920.974 L1057 900.183 L1061.05 887.693 L1065.1 880.289 L1069.15 873.637 L1073.2 866.02 L1077.24 859.471 L1081.29 859.136 L1085.34 869.466 L1089.39 890.674 L1093.44 920.519 L1097.49 956.613 L1101.54 996.9 L1105.59 1039.6 L1109.64 1083.13 L1113.69 1126.09 L1117.74 1167.27 L1121.79 1205.66 L1125.84 1240.44 L1129.89 1270.99 L1133.94 1296.85 L1137.99 1317.72 L1142.04 1333.37 L1146.09 1343.67 L1150.14 1348.52 L1154.19 1347.84 L1158.24 1341.53 L1162.29 1329.54 L1166.34 1311.78 L1170.39 1288.23 L1174.44 1258.92 L1178.49 1223.94 L1182.54 1183.54 L1186.58 1138.09 L1190.63 1088.19 L1194.68 1034.7 L1198.73 979.076 L1202.78 924.368 L1206.83 880.768 L1210.88 879.896 L1214.93 922.722 L1218.98 977.16 L1223.03 1032.55 L1227.08 1085.73 L1231.13 1135.18 L1235.18 1179.96 L1239.23 1219.43 L1243.28 1253.1 L1247.33 1280.66 L1251.38 1301.9 L1255.43 1316.69 L1259.48 1324.97 L1263.53 1326.72 L1267.58 1321.94 L1271.63 1310.67 L1275.68 1292.95 L1279.73 1268.88 L1283.78 1238.63 L1287.83 1202.43 L1291.87 1160.65 L1295.92 1113.79 L1299.97 1062.53 L1304.02 1007.76 L1308.07 950.643 L1312.12 892.778 L1316.17 837.048 L1320.22 793.1 L1324.27 795.518 L1328.32 835.252 L1332.37 879.273 L1336.42 919.987 L1340.47 955.024 L1344.52 983.156 L1348.57 1003.68 L1352.62 1016.31 L1356.67 1021.14 L1360.72 1018.6 L1364.77 1009.48 L1368.82 994.846 L1372.87 976 L1376.92 954.4 L1380.97 931.59 L1385.02 909.138 L1389.07 888.591 L1393.12 871.474 L1397.17 859.258 L1401.21 853.057 L1405.26 852.767 L1409.31 856.55 L1413.36 861.96 L1417.41 867.237 L1421.46 871.476 L1425.51 874.295 L1429.56 875.575 L1433.61 875.354 L1437.66 873.817 L1441.71 871.298 L1445.76 868.225 L1449.81 864.992 L1453.86 861.784 L1457.91 858.472 L1461.96 854.7 L1466.01 850.186 L1470.06 845.214 L1474.11 841.292 L1478.16 841.527 L1482.21 849.347 L1486.26 865.982 L1490.31 890.297 L1494.36 920.367 L1498.41 954.259 L1502.46 990.134 L1506.51 1026.23 L1510.55 1060.85 L1514.6 1092.45 L1518.65 1119.63 L1522.7 1141.24 L1526.75 1156.39 L1530.8 1164.47 L1534.85 1165.21 L1538.9 1158.61 L1542.95 1144.99 L1547 1124.94 L1551.05 1099.27 L1555.1 1069 L1559.15 1035.29 L1563.2 999.428 L1567.25 962.761 L1571.3 926.692 L1575.35 892.696 L1579.4 862.449 L1583.45 838.277 L1587.5 824.168 L1591.55 824.867 L1595.6 837.427 L1599.65 853.029 L1603.7 866.567 L1607.75 876.227 L1611.8 881.613 L1615.85 883.034 L1619.89 881.244 L1623.94 877.331 L1627.99 872.582 L1632.04 868.225 L1636.09 864.989 L1640.14 862.743 L1644.19 860.67 L1648.24 857.904 L1652.29 854.206 L1656.34 850.557 L1660.39 849.556 L1664.44 854.574 L1668.49 867.333 L1672.54 887.143 L1676.59 912.323 L1680.64 941.124 L1684.69 971.872 L1688.74 1002.94 L1692.79 1032.75 L1696.84 1059.8 L1700.89 1082.72 L1704.94 1100.34 L1708.99 1111.74 L1713.04 1116.31 L1717.09 1113.76 L1721.14 1104.19 L1725.19 1088.01 L1729.23 1065.99 L1733.28 1039.19 L1737.33 1008.89 L1741.38 976.565 L1745.43 943.823 L1749.48 912.344 L1753.53 883.878 L1757.58 860.226 L1761.63 843.084 L1765.68 833.286 L1769.73 829.542 L1773.78 828.691 L1777.83 827.821 L1781.88 825.542 L1785.93 822.017 L1789.98 818.859 L1794.03 818.84 L1798.08 824.132 L1802.13 834.199 L1806.18 846.822 L1810.23 859.891 L1814.28 871.801 L1818.33 881.357 L1822.38 887.686 L1826.43 890.221 L1830.48 888.717 L1834.53 883.273 L1838.57 874.369 L1842.62 862.909 L1846.67 850.307 L1850.72 838.661 L1854.77 830.831 L1858.82 829.095 L1862.87 832.289 L1866.92 836.952 L1870.97 840.818 L1875.02 843.806 L1879.07 848.008 L1883.12 857.002 L1887.17 873.621 L1891.22 898.215 L1895.27 929.408 L1899.32 965.315 L1903.37 1004.02 L1907.42 1043.65 L1911.47 1082.44 L1915.52 1118.7 L1919.57 1150.9 L1923.62 1177.7 L1927.67 1197.99 L1931.72 1210.91 L1935.77 1215.88 L1939.82 1212.61 L1943.87 1201.11 L1947.91 1181.7 L1951.96 1154.99 L1956.01 1121.89 L1960.06 1083.59 L1964.11 1041.55 L1968.16 997.522 L1972.21 953.619 L1976.26 912.586 L1980.31 878.644 L1984.36 858.882 L1988.41 858.928 L1992.46 871.508 L1996.51 885.675 L2000.56 896.064 L2004.61 900.827 L2008.66 899.73 L2012.71 893.476 L2016.76 883.472 L2020.81 871.741 L2024.86 860.778 L2028.91 853.008 L2032.96 849.507 L2037.01 849.049 L2041.06 849.097 L2045.11 847.603 L2049.16 844.099 L2053.2 840.468 L2057.25 841.455 L2061.3 852.339 L2065.35 874.238 L2069.4 904.636 L2073.45 940.519 L2077.5 979.315 L2081.55 1018.81 L2085.6 1057.03 L2089.65 1092.2 L2093.7 1122.76 L2097.75 1147.41 L2101.8 1165.1 L2105.85 1175.11 L2109.9 1177.01 L2113.95 1170.72 L2118 1156.47 L2122.05 1134.83 L2126.1 1106.67 L2130.15 1073.13 L2134.2 1035.63 L2138.25 995.82 L2142.3 955.587 L2146.35 917.096 L2150.4 883.023 L2154.45 857.06 L2158.5 843.959 L2162.54 845.28 L2166.59 854.701 L2170.64 864.734 L2174.69 871.592 L2178.74 874.135 L2182.79 872.618 L2186.84 868.1 L2190.89 862.094 L2194.94 856.173 L2198.99 851.399 L2203.04 847.85 L2207.09 844.78 L2211.14 841.544 L2215.19 838.747 L2219.24 839.041 L2223.29 846.331 L2227.34 862.928 L2231.39 888.388 L2235.44 921.027 L2239.49 959.039 L2243.54 1000.74 L2247.59 1044.56 L2251.64 1089.06 L2255.69 1132.93 L2259.74 1175.05 L2263.79 1214.52 L2267.84 1250.64 L2271.88 1282.98 L2275.93 1311.31 L2279.98 1335.61 L2284.03 1356.02 L2288.08 1372.83 L2292.13 1386.4 L2292.13 160.256 L2288.08 171.185 L2284.03 185.297 L2279.98 203.04 L2275.93 224.784 L2271.88 250.783 L2267.84 281.13 L2263.79 315.72 L2259.74 354.219 L2255.69 396.051 L2251.64 440.388 L2247.59 486.167 L2243.54 532.111 L2239.49 576.759 L2235.44 618.488 L2231.39 655.513 L2227.34 685.894 L2223.29 707.769 L2219.24 720.492 L2215.19 726.154 L2211.14 728.431 L2207.09 729.755 L2203.04 730.528 L2198.99 729.934 L2194.94 727.099 L2190.89 722.019 L2186.84 715.729 L2182.79 709.83 L2178.74 705.913 L2174.69 705.162 L2170.64 707.994 L2166.59 713.456 L2162.54 717.964 L2158.5 714.233 L2154.45 696.137 L2150.4 665.41 L2146.35 626.951 L2142.3 584.567 L2138.25 541.015 L2134.2 498.507 L2130.15 458.938 L2126.1 423.941 L2122.05 394.894 L2118 372.897 L2113.95 358.756 L2109.9 352.968 L2105.85 355.712 L2101.8 366.844 L2097.75 385.908 L2093.7 412.135 L2089.65 444.473 L2085.6 481.598 L2081.55 521.952 L2077.5 563.762 L2073.45 605.053 L2069.4 643.607 L2065.35 676.842 L2061.3 701.725 L2057.25 715.712 L2053.2 719.882 L2049.16 719.468 L2045.11 719.159 L2041.06 720.779 L2037.01 723.798 L2032.96 726.112 L2028.91 725.128 L2024.86 719.576 L2020.81 710.5 L2016.76 700.304 L2012.71 691.48 L2008.66 686.058 L2004.61 685.47 L2000.56 690.455 L1996.51 700.827 L1992.46 714.792 L1988.41 727.041 L1984.36 726.692 L1980.31 706.524 L1976.26 672.219 L1972.21 630.908 L1968.16 586.845 L1964.11 542.797 L1960.06 500.88 L1956.01 462.837 L1951.96 430.112 L1947.91 403.863 L1943.87 384.959 L1939.82 373.971 L1935.77 371.167 L1931.72 376.517 L1927.67 389.697 L1923.62 410.099 L1919.57 436.853 L1915.52 468.847 L1911.47 504.757 L1907.42 543.087 L1903.37 582.201 L1899.32 620.36 L1895.27 655.749 L1891.22 686.492 L1887.17 710.736 L1883.12 727.12 L1879.07 735.992 L1875.02 740.159 L1870.97 743.159 L1866.92 747.026 L1862.87 751.611 L1858.82 754.577 L1854.77 752.401 L1850.72 743.864 L1846.67 731.212 L1842.62 717.295 L1838.57 704.23 L1834.53 693.474 L1830.48 685.991 L1826.43 682.341 L1822.38 682.71 L1818.33 686.932 L1814.28 694.511 L1810.23 704.627 L1806.18 716.112 L1802.13 727.365 L1798.08 736.25 L1794.03 740.507 L1789.98 739.54 L1785.93 735.454 L1781.88 730.961 L1777.83 727.62 L1773.78 725.562 L1769.73 723.386 L1765.68 718.193 L1761.63 706.86 L1757.58 688.157 L1753.53 662.993 L1749.48 633.141 L1745.43 600.485 L1741.38 566.846 L1737.33 533.968 L1733.28 503.491 L1729.23 476.912 L1725.19 455.525 L1721.14 440.367 L1717.09 432.171 L1713.04 431.335 L1708.99 437.904 L1704.94 451.578 L1700.89 471.729 L1696.84 497.441 L1692.79 527.558 L1688.74 560.741 L1684.69 595.523 L1680.64 630.36 L1676.59 663.655 L1672.54 693.742 L1668.49 718.852 L1664.44 737.249 L1660.39 748.141 L1656.34 753.106 L1652.29 755.325 L1648.24 757.169 L1644.19 759.364 L1640.14 761.401 L1636.09 762.145 L1632.04 760.53 L1627.99 756.219 L1623.94 749.786 L1619.89 742.375 L1615.85 735.272 L1611.8 729.644 L1607.75 726.412 L1603.7 726.123 L1599.65 728.69 L1595.6 732.65 L1591.55 733.28 L1587.5 722.15 L1583.45 696.692 L1579.4 661.987 L1575.35 622.319 L1571.3 580.239 L1567.25 537.582 L1563.2 495.903 L1559.15 456.616 L1555.1 421.015 L1551.05 390.264 L1547 365.376 L1542.95 347.18 L1538.9 336.291 L1534.85 333.091 L1530.8 337.702 L1526.75 349.975 L1522.7 369.485 L1518.65 395.535 L1514.6 427.167 L1510.55 463.195 L1506.51 502.241 L1502.46 542.776 L1498.41 583.172 L1494.36 621.725 L1490.31 656.662 L1486.26 686.11 L1482.21 708.187 L1478.16 721.775 L1474.11 728.094 L1470.06 730.527 L1466.01 732.099 L1461.96 734.204 L1457.91 736.981 L1453.86 739.977 L1449.81 742.646 L1445.76 744.667 L1441.71 746.029 L1437.66 746.946 L1433.61 747.692 L1429.56 748.476 L1425.51 749.398 L1421.46 750.457 L1417.41 751.541 L1413.36 752.321 L1409.31 751.987 L1405.26 748.913 L1401.21 740.817 L1397.17 726.049 L1393.12 704.701 L1389.07 678.095 L1385.02 647.902 L1380.97 615.836 L1376.92 583.622 L1372.87 552.984 L1368.82 525.604 L1364.77 503.058 L1360.72 486.739 L1356.67 477.793 L1352.62 477.06 L1348.57 485.03 L1344.52 501.823 L1340.47 527.167 L1336.42 560.37 L1332.37 600.201 L1328.32 644.276 L1324.27 684.976 L1320.22 689.236 L1316.17 647.961 L1312.12 595.678 L1308.07 541.968 L1304.02 489.638 L1299.97 440.218 L1295.92 394.783 L1291.87 354.136 L1287.83 318.872 L1283.78 289.416 L1279.73 266.051 L1275.68 248.948 L1271.63 238.196 L1267.58 233.831 L1263.53 235.85 L1259.48 244.225 L1255.43 258.909 L1251.38 279.828 L1247.33 306.866 L1243.28 339.846 L1239.23 378.507 L1235.18 422.475 L1231.13 471.234 L1227.08 524.078 L1223.03 580.021 L1218.98 637.521 L1214.93 693.368 L1210.88 736.886 L1206.83 735.972 L1202.78 691.595 L1198.73 635.379 L1194.68 577.533 L1190.63 521.138 L1186.58 467.666 L1182.54 418.034 L1178.49 372.873 L1174.44 332.619 L1170.39 297.56 L1166.34 267.87 L1162.29 243.649 L1158.24 224.947 L1154.19 211.797 L1150.14 204.236 L1146.09 202.317 L1142.04 206.108 L1137.99 215.681 L1133.94 231.085 L1129.89 252.315 L1125.84 279.266 L1121.79 311.695 L1117.74 349.181 L1113.69 391.088 L1109.64 436.548 L1105.59 484.449 L1101.54 533.431 L1097.49 581.882 L1093.44 627.918 L1089.39 669.306 L1085.34 703.403 L1081.29 727.648 L1077.24 741.875 L1073.2 750.115 L1069.15 757.071 L1065.1 764.33 L1061.05 769.743 L1057 768.582 L1052.95 757.294 L1048.9 736.3 L1044.85 708.194 L1040.8 675.745 L1036.75 641.436 L1032.7 607.496 L1028.65 575.934 L1024.6 548.527 L1020.55 526.781 L1016.5 511.89 L1012.45 504.698 L1008.4 505.669 L1004.35 514.87 L1000.3 531.962 L996.252 556.187 L992.203 586.338 L988.153 620.628 L984.103 656.185 L980.054 686.968 L976.004 697.293 L971.954 672.452 L967.905 629.784 L963.855 584.925 L959.806 543.63 L955.756 508.497 L951.706 481.003 L947.657 462.011 L943.607 451.913 L939.557 450.677 L935.508 457.885 L931.458 472.762 L927.409 494.223 L923.359 520.913 L919.309 551.26 L915.26 583.48 L911.21 615.508 L907.16 644.723 L903.111 667.601 L899.061 681.302 L895.012 688.23 L890.962 693.856 L886.912 701.419 L882.863 711.877 L878.813 725.061 L874.763 740.282 L870.714 756.601 L866.664 772.968 L862.614 788.289 L858.565 801.525 L854.515 811.902 L850.466 819.207 L846.416 823.898 L842.366 826.871 L838.317 829.116 L834.267 831.471 L830.217 834.455 L826.168 838.069 L822.118 841.46 L818.069 842.509 L814.019 838.125 L809.969 826.486 L805.92 808.59 L801.87 786.707 L797.82 762.957 L793.771 739.076 L789.721 716.467 L785.672 696.231 L781.622 679.152 L777.572 665.674 L773.523 655.881 L769.473 649.492 L765.423 645.862 L761.374 643.988 L757.324 642.498 L753.275 639.682 L749.225 633.782 L745.175 624.001 L741.126 611.69 L737.076 599.822 L733.026 591.213 L728.977 587.562 L724.927 589.35 L720.878 595.845 L716.828 604.98 L712.778 613.568 L708.729 619.108 L704.679 621.951 L700.629 624.295 L696.58 628.241 L692.53 635.261 L688.48 646.289 L684.431 661.788 L680.381 681.714 L676.332 705.269 L672.282 730.189 L668.232 750.937 L664.183 757.508 L660.133 744.135 L656.083 715.536 L652.034 677.572 L647.984 633.94 L643.935 587.171 L639.885 539.299 L635.835 492.082 L631.786 447.067 L627.736 405.6 L623.686 368.821 L619.637 337.663 L615.587 312.86 L611.538 294.953 L607.488 284.307 L603.438 281.121 L599.389 285.439 L595.339 297.154 L591.289 316.008 L587.24 341.582 L583.19 373.288 L579.141 410.345 L575.091 451.742 L571.041 496.151 L566.992 541.662 L562.942 584.744 L558.892 615.472 L554.843 608.607 L550.793 565.234 L546.744 512.668 L542.694 461.576 L538.644 415.676 L534.595 376.926 L530.545 346.607 L526.495 325.581 L522.446 314.36 L518.396 313.12 L514.347 321.711 L510.297 339.671 L506.247 366.247 L502.198 400.428 L498.148 440.98 L494.098 486.496 L490.049 535.433 L485.999 586.142 L481.949 636.879 L477.9 685.748 L473.85 730.574 L469.801 768.942 L465.751 799.612 L461.701 824.567 L457.652 846.628 L453.602 866.368 L449.552 882.244 L445.503 892.024 L441.453 894.415 L437.404 889.621 L433.354 878.802 L429.304 863.494 L425.255 845.346 L421.205 826.007 L417.155 807.037 L413.106 789.83 L409.056 775.519 L405.007 764.906 L400.957 758.401 L396.907 755.975 L392.858 757.142 L388.808 760.916 L384.758 765.695 L380.709 768.709 L376.659 763.693 L372.61 736.995 L368.56 686.978 L364.51 629.867 L360.461 574.618 L356.411 525.151 L352.361 483.737 L348.312 451.808 L344.262 430.104 L340.213 418.636 L336.163 416.533 L332.113 421.617 L328.064 429.443 L324.014 432.718 L319.964 426.999 L315.915 417.241 L311.865 410.44 L307.816 410.723 L303.766 420.112 L299.716 439.416 L295.667 468.593 L291.617 506.844 L287.567 552.455 L283.518 602.054 L279.468 647.826 L275.418 673.207 L271.369 669.348  Z" fill="#808080" fill-rule="evenodd" fill-opacity="0.25"/>
<polyline clip-path="url(#clip532)" style="stroke:#808080; stroke-linecap:round; stroke-linejoin:round; stroke-width:4; stroke-opacity:1; fill:none" points="271.369,856.455 275.418,807.688 279.468,783.686 283.518,776.637 287.567,771.258 291.617,761.216 295.667,744.772 299.716,721.933 303.766,693.631 307.816,661.492 311.865,627.846 315.915,596.017 319.964,571.153 324.014,560.939 328.064,570.65 332.113,595.789 336.163,628.633 340.213,663.96 344.262,698.518 348.312,730.116 352.361,757.276 356.411,779.148 360.461,795.552 364.51,807.199 368.56,816.557 372.61,831.289 376.659,866.521 380.709,919.725 384.758,976.569 388.808,1030.3 392.858,1077.84 396.907,1117.39 400.957,1147.87 405.007,1168.77 409.056,1180.03 413.106,1182.03 417.155,1175.5 421.205,1161.49 425.255,1141.26 429.304,1116.26 433.354,1088.03 437.404,1058.17 441.453,1028.28 445.503,999.679 449.552,972.931 453.602,947.255 457.652,921.125 461.701,893.873 465.751,867.106 469.801,844.792 473.85,830.131 477.9,823.115 481.949,822.52 485.999,827.265 490.049,836.4 494.098,848.938 498.148,863.775 502.198,879.682 506.247,895.337 510.297,909.378 514.347,920.476 518.396,927.407 522.446,929.122 526.495,924.815 530.545,913.977 534.595,896.438 538.644,872.425 542.694,842.647 546.744,808.569 550.793,773.51 554.843,747.829 558.892,758.622 562.942,806.834 566.992,867.154 571.041,929.636 575.091,990.774 579.141,1048.7 583.19,1102.15 587.24,1150.16 591.289,1192.01 595.339,1227.14 599.389,1255.13 603.438,1275.69 607.488,1288.66 611.538,1293.94 615.587,1291.6 619.637,1281.77 623.686,1264.73 627.736,1240.91 631.786,1210.88 635.835,1175.4 639.885,1135.4 643.935,1092.01 647.984,1046.59 652.034,1000.81 656.083,956.905 660.133,918.356 664.183,890.93 668.232,879.384 672.282,878.14 676.332,877.549 680.381,872.595 684.431,861.695 688.48,844.875 692.53,823.029 696.58,797.644 700.629,770.714 704.679,744.769 708.729,722.907 712.778,708.216 716.828,701.793 720.878,701.693 724.927,705.071 728.977,709.972 733.026,715.547 737.076,721.933 741.126,730.288 745.175,742.718 749.225,761.359 753.275,786.644 757.324,816.826 761.374,849.209 765.423,881.199 769.473,910.631 773.523,935.827 777.572,955.599 781.622,969.265 785.672,976.642 789.721,978.034 793.771,974.192 797.82,966.269 801.87,955.777 805.92,944.592 809.969,934.985 814.019,929.361 818.069,928.824 822.118,931.624 826.168,934.693 830.217,935.897 834.267,934.337 838.317,929.944 842.366,923.161 846.416,914.766 850.466,905.717 854.515,896.925 858.565,888.928 862.614,881.665 866.664,874.595 870.714,866.993 874.763,858.161 878.813,847.506 882.863,834.608 886.912,819.325 890.962,802.049 895.012,784.29 899.061,769.799 903.111,764.502 907.16,771.181 911.21,787.279 915.26,809.452 919.309,835.15 923.359,862.276 927.409,888.916 931.458,913.283 935.508,933.743 939.557,948.883 943.607,957.575 947.657,959.04 951.706,952.901 955.756,939.229 959.806,918.609 963.855,892.283 967.905,862.662 971.954,835.362 976.004,825.916 980.054,851.593 984.103,897.631 988.153,948.299 992.203,997.503 996.252,1042.3 1000.3,1080.8 1004.35,1111.67 1008.4,1133.99 1012.45,1147.21 1016.5,1151.17 1020.55,1146.08 1024.6,1132.55 1028.65,1111.51 1032.7,1084.26 1036.75,1052.38 1040.8,1017.77 1044.85,982.601 1048.9,949.376 1052.95,920.974 1057,900.183 1061.05,887.693 1065.1,880.289 1069.15,873.637 1073.2,866.02 1077.24,859.471 1081.29,859.136 1085.34,869.466 1089.39,890.674 1093.44,920.519 1097.49,956.613 1101.54,996.9 1105.59,1039.6 1109.64,1083.13 1113.69,1126.09 1117.74,1167.27 1121.79,1205.66 1125.84,1240.44 1129.89,1270.99 1133.94,1296.85 1137.99,1317.72 1142.04,1333.37 1146.09,1343.67 1150.14,1348.52 1154.19,1347.84 1158.24,1341.53 1162.29,1329.54 1166.34,1311.78 1170.39,1288.23 1174.44,1258.92 1178.49,1223.94 1182.54,1183.54 1186.58,1138.09 1190.63,1088.19 1194.68,1034.7 1198.73,979.076 1202.78,924.368 1206.83,880.768 1210.88,879.896 1214.93,922.722 1218.98,977.16 1223.03,1032.55 1227.08,1085.73 1231.13,1135.18 1235.18,1179.96 1239.23,1219.43 1243.28,1253.1 1247.33,1280.66 1251.38,1301.9 1255.43,1316.69 1259.48,1324.97 1263.53,1326.72 1267.58,1321.94 1271.63,1310.67 1275.68,1292.95 1279.73,1268.88 1283.78,1238.63 1287.83,1202.43 1291.87,1160.65 1295.92,1113.79 1299.97,1062.53 1304.02,1007.76 1308.07,950.643 1312.12,892.778 1316.17,837.048 1320.22,793.1 1324.27,795.518 1328.32,835.252 1332.37,879.273 1336.42,919.987 1340.47,955.024 1344.52,983.156 1348.57,1003.68 1352.62,1016.31 1356.67,1021.14 1360.72,1018.6 1364.77,1009.48 1368.82,994.846 1372.87,976 1376.92,954.4 1380.97,931.59 1385.02,909.138 1389.07,888.591 1393.12,871.474 1397.17,859.258 1401.21,853.057 1405.26,852.767 1409.31,856.55 1413.36,861.96 1417.41,867.237 1421.46,871.476 1425.51,874.295 1429.56,875.575 1433.61,875.354 1437.66,873.817 1441.71,871.298 1445.76,868.225 1449.81,864.992 1453.86,861.784 1457.91,858.472 1461.96,854.7 1466.01,850.186 1470.06,845.214 1474.11,841.292 1478.16,841.527 1482.21,849.347 1486.26,865.982 1490.31,890.297 1494.36,920.367 1498.41,954.259 1502.46,990.134 1506.51,1026.23 1510.55,1060.85 1514.6,1092.45 1518.65,1119.63 1522.7,1141.24 1526.75,1156.39 1530.8,1164.47 1534.85,1165.21 1538.9,1158.61 1542.95,1144.99 1547,1124.94 1551.05,1099.27 1555.1,1069 1559.15,1035.29 1563.2,999.428 1567.25,962.761 1571.3,926.692 1575.35,892.696 1579.4,862.449 1583.45,838.277 1587.5,824.168 1591.55,824.867 1595.6,837.427 1599.65,853.029 1603.7,866.567 1607.75,876.227 1611.8,881.613 1615.85,883.034 1619.89,881.244 1623.94,877.331 1627.99,872.582 1632.04,868.225 1636.09,864.989 1640.14,862.743 1644.19,860.67 1648.24,857.904 1652.29,854.206 1656.34,850.557 1660.39,849.556 1664.44,854.574 1668.49,867.333 1672.54,887.143 1676.59,912.323 1680.64,941.124 1684.69,971.872 1688.74,1002.94 1692.79,1032.75 1696.84,1059.8 1700.89,1082.72 1704.94,1100.34 1708.99,1111.74 1713.04,1116.31 1717.09,1113.76 1721.14,1104.19 1725.19,1088.01 1729.23,1065.99 1733.28,1039.19 1737.33,1008.89 1741.38,976.565 1745.43,943.823 1749.48,912.344 1753.53,883.878 1757.58,860.226 1761.63,843.084 1765.68,833.286 1769.73,829.542 1773.78,828.691 1777.83,827.821 1781.88,825.542 1785.93,822.017 1789.98,818.859 1794.03,818.84 1798.08,824.132 1802.13,834.199 1806.18,846.822 1810.23,859.891 1814.28,871.801 1818.33,881.357 1822.38,887.686 1826.43,890.221 1830.48,888.717 1834.53,883.273 1838.57,874.369 1842.62,862.909 1846.67,850.307 1850.72,838.661 1854.77,830.831 1858.82,829.095 1862.87,832.289 1866.92,836.952 1870.97,840.818 1875.02,843.806 1879.07,848.008 1883.12,857.002 1887.17,873.621 1891.22,898.215 1895.27,929.408 1899.32,965.315 1903.37,1004.02 1907.42,1043.65 1911.47,1082.44 1915.52,1118.7 1919.57,1150.9 1923.62,1177.7 1927.67,1197.99 1931.72,1210.91 1935.77,1215.88 1939.82,1212.61 1943.87,1201.11 1947.91,1181.7 1951.96,1154.99 1956.01,1121.89 1960.06,1083.59 1964.11,1041.55 1968.16,997.522 1972.21,953.619 1976.26,912.586 1980.31,878.644 1984.36,858.882 1988.41,858.928 1992.46,871.508 1996.51,885.675 2000.56,896.064 2004.61,900.827 2008.66,899.73 2012.71,893.476 2016.76,883.472 2020.81,871.741 2024.86,860.778 2028.91,853.008 2032.96,849.507 2037.01,849.049 2041.06,849.097 2045.11,847.603 2049.16,844.099 2053.2,840.468 2057.25,841.455 2061.3,852.339 2065.35,874.238 2069.4,904.636 2073.45,940.519 2077.5,979.315 2081.55,1018.81 2085.6,1057.03 2089.65,1092.2 2093.7,1122.76 2097.75,1147.41 2101.8,1165.1 2105.85,1175.11 2109.9,1177.01 2113.95,1170.72 2118,1156.47 2122.05,1134.83 2126.1,1106.67 2130.15,1073.13 2134.2,1035.63 2138.25,995.82 2142.3,955.587 2146.35,917.096 2150.4,883.023 2154.45,857.06 2158.5,843.959 2162.54,845.28 2166.59,854.701 2170.64,864.734 2174.69,871.592 2178.74,874.135 2182.79,872.618 2186.84,868.1 2190.89,862.094 2194.94,856.173 2198.99,851.399 2203.04,847.85 2207.09,844.78 2211.14,841.544 2215.19,838.747 2219.24,839.041 2223.29,846.331 2227.34,862.928 2231.39,888.388 2235.44,921.027 2239.49,959.039 2243.54,1000.74 2247.59,1044.56 2251.64,1089.06 2255.69,1132.93 2259.74,1175.05 2263.79,1214.52 2267.84,1250.64 2271.88,1282.98 2275.93,1311.31 2279.98,1335.61 2284.03,1356.02 2288.08,1372.83 2292.13,1386.4 "/>
<path clip-path="url(#clip530)" d="M282.146 1379.86 L797.063 1379.86 L797.063 1120.66 L282.146 1120.66  Z" fill="#ffffff" fill-rule="evenodd" fill-opacity="1"/>
<polyline clip-path="url(#clip530)" style="stroke:#000000; stroke-linecap:round; stroke-linejoin:round; stroke-width:4; stroke-opacity:1; fill:none" points="282.146,1379.86 797.063,1379.86 797.063,1120.66 282.146,1120.66 282.146,1379.86 "/>
<circle clip-path="url(#clip530)" cx="377.347" cy="1172.5" r="20.48" fill="#ff0000" fill-rule="evenodd" fill-opacity="1" stroke="#000000" stroke-opacity="1" stroke-width="4.55111"/>
<path clip-path="url(#clip530)" d="M494.26 1174.13 L494.26 1189.78 L490.001 1189.78 L490.001 1174.27 Q490.001 1170.59 488.566 1168.76 Q487.13 1166.93 484.26 1166.93 Q480.811 1166.93 478.82 1169.13 Q476.83 1171.33 476.83 1175.12 L476.83 1189.78 L472.547 1189.78 L472.547 1163.85 L476.83 1163.85 L476.83 1167.88 Q478.357 1165.54 480.417 1164.38 Q482.501 1163.23 485.209 1163.23 Q489.677 1163.23 491.968 1166 Q494.26 1168.76 494.26 1174.13 Z" fill="#000000" fill-rule="nonzero" fill-opacity="1" /><path clip-path="url(#clip530)" d="M512.802 1166.84 Q509.376 1166.84 507.385 1169.52 Q505.394 1172.18 505.394 1176.84 Q505.394 1181.49 507.362 1184.17 Q509.353 1186.84 512.802 1186.84 Q516.204 1186.84 518.195 1184.15 Q520.186 1181.47 520.186 1176.84 Q520.186 1172.23 518.195 1169.54 Q516.204 1166.84 512.802 1166.84 M512.802 1163.23 Q518.357 1163.23 521.528 1166.84 Q524.7 1170.45 524.7 1176.84 Q524.7 1183.2 521.528 1186.84 Q518.357 1190.45 512.802 1190.45 Q507.223 1190.45 504.052 1186.84 Q500.903 1183.2 500.903 1176.84 Q500.903 1170.45 504.052 1166.84 Q507.223 1163.23 512.802 1163.23 Z" fill="#000000" fill-rule="nonzero" fill-opacity="1" /><path clip-path="url(#clip530)" d="M531.76 1163.85 L536.019 1163.85 L536.019 1189.78 L531.76 1189.78 L531.76 1163.85 M531.76 1153.76 L536.019 1153.76 L536.019 1159.15 L531.76 1159.15 L531.76 1153.76 Z" fill="#000000" fill-rule="nonzero" fill-opacity="1" /><path clip-path="url(#clip530)" d="M561.459 1164.61 L561.459 1168.64 Q559.653 1167.72 557.709 1167.25 Q555.764 1166.79 553.681 1166.79 Q550.51 1166.79 548.912 1167.76 Q547.338 1168.73 547.338 1170.68 Q547.338 1172.16 548.473 1173.02 Q549.607 1173.85 553.033 1174.61 L554.491 1174.94 Q559.028 1175.91 560.926 1177.69 Q562.848 1179.45 562.848 1182.62 Q562.848 1186.23 559.977 1188.34 Q557.13 1190.45 552.13 1190.45 Q550.047 1190.45 547.778 1190.03 Q545.533 1189.64 543.033 1188.83 L543.033 1184.43 Q545.394 1185.66 547.686 1186.28 Q549.977 1186.88 552.223 1186.88 Q555.232 1186.88 556.852 1185.86 Q558.473 1184.82 558.473 1182.95 Q558.473 1181.21 557.292 1180.29 Q556.135 1179.36 552.176 1178.5 L550.695 1178.16 Q546.737 1177.32 544.977 1175.61 Q543.218 1173.87 543.218 1170.86 Q543.218 1167.21 545.811 1165.22 Q548.403 1163.23 553.172 1163.23 Q555.533 1163.23 557.616 1163.57 Q559.699 1163.92 561.459 1164.61 Z" fill="#000000" fill-rule="nonzero" fill-opacity="1" /><path clip-path="url(#clip530)" d="M580.417 1192.18 Q578.611 1196.81 576.898 1198.23 Q575.186 1199.64 572.315 1199.64 L568.912 1199.64 L568.912 1196.07 L571.412 1196.07 Q573.172 1196.07 574.144 1195.24 Q575.116 1194.41 576.297 1191.3 L577.06 1189.36 L566.574 1163.85 L571.088 1163.85 L579.19 1184.13 L587.292 1163.85 L591.806 1163.85 L580.417 1192.18 Z" fill="#000000" fill-rule="nonzero" fill-opacity="1" /><path clip-path="url(#clip530)" d="M629.815 1167.79 L629.815 1153.76 L634.074 1153.76 L634.074 1189.78 L629.815 1189.78 L629.815 1185.89 Q628.472 1188.2 626.412 1189.34 Q624.375 1190.45 621.505 1190.45 Q616.806 1190.45 613.843 1186.7 Q610.903 1182.95 610.903 1176.84 Q610.903 1170.73 613.843 1166.98 Q616.806 1163.23 621.505 1163.23 Q624.375 1163.23 626.412 1164.36 Q628.472 1165.47 629.815 1167.79 M615.301 1176.84 Q615.301 1181.54 617.222 1184.22 Q619.167 1186.88 622.546 1186.88 Q625.926 1186.88 627.87 1184.22 Q629.815 1181.54 629.815 1176.84 Q629.815 1172.14 627.87 1169.48 Q625.926 1166.79 622.546 1166.79 Q619.167 1166.79 617.222 1169.48 Q615.301 1172.14 615.301 1176.84 Z" fill="#000000" fill-rule="nonzero" fill-opacity="1" /><path clip-path="url(#clip530)" d="M654.63 1176.74 Q649.468 1176.74 647.477 1177.92 Q645.486 1179.11 645.486 1181.95 Q645.486 1184.22 646.968 1185.56 Q648.472 1186.88 651.042 1186.88 Q654.583 1186.88 656.713 1184.38 Q658.866 1181.86 658.866 1177.69 L658.866 1176.74 L654.63 1176.74 M663.125 1174.98 L663.125 1189.78 L658.866 1189.78 L658.866 1185.84 Q657.407 1188.2 655.231 1189.34 Q653.055 1190.45 649.907 1190.45 Q645.926 1190.45 643.565 1188.23 Q641.227 1185.98 641.227 1182.23 Q641.227 1177.86 644.143 1175.63 Q647.083 1173.41 652.893 1173.41 L658.866 1173.41 L658.866 1172.99 Q658.866 1170.05 656.921 1168.46 Q655 1166.84 651.505 1166.84 Q649.282 1166.84 647.176 1167.37 Q645.069 1167.9 643.125 1168.97 L643.125 1165.03 Q645.463 1164.13 647.662 1163.69 Q649.861 1163.23 651.944 1163.23 Q657.569 1163.23 660.347 1166.14 Q663.125 1169.06 663.125 1174.98 Z" fill="#000000" fill-rule="nonzero" fill-opacity="1" /><path clip-path="url(#clip530)" d="M676.111 1156.49 L676.111 1163.85 L684.884 1163.85 L684.884 1167.16 L676.111 1167.16 L676.111 1181.23 Q676.111 1184.41 676.967 1185.31 Q677.847 1186.21 680.509 1186.21 L684.884 1186.21 L684.884 1189.78 L680.509 1189.78 Q675.578 1189.78 673.703 1187.95 Q671.829 1186.1 671.829 1181.23 L671.829 1167.16 L668.704 1167.16 L668.704 1163.85 L671.829 1163.85 L671.829 1156.49 L676.111 1156.49 Z" fill="#000000" fill-rule="nonzero" fill-opacity="1" /><path clip-path="url(#clip530)" d="M702.268 1176.74 Q697.106 1176.74 695.115 1177.92 Q693.125 1179.11 693.125 1181.95 Q693.125 1184.22 694.606 1185.56 Q696.111 1186.88 698.68 1186.88 Q702.222 1186.88 704.351 1184.38 Q706.504 1181.86 706.504 1177.69 L706.504 1176.74 L702.268 1176.74 M710.763 1174.98 L710.763 1189.78 L706.504 1189.78 L706.504 1185.84 Q705.046 1188.2 702.87 1189.34 Q700.694 1190.45 697.546 1190.45 Q693.564 1190.45 691.203 1188.23 Q688.865 1185.98 688.865 1182.23 Q688.865 1177.86 691.782 1175.63 Q694.722 1173.41 700.532 1173.41 L706.504 1173.41 L706.504 1172.99 Q706.504 1170.05 704.56 1168.46 Q702.639 1166.84 699.143 1166.84 Q696.921 1166.84 694.814 1167.37 Q692.708 1167.9 690.764 1168.97 L690.764 1165.03 Q693.102 1164.13 695.301 1163.69 Q697.5 1163.23 699.583 1163.23 Q705.208 1163.23 707.986 1166.14 Q710.763 1169.06 710.763 1174.98 Z" fill="#000000" fill-rule="nonzero" fill-opacity="1" /><polyline clip-path="url(#clip530)" style="stroke:#000000; stroke-linecap:round; stroke-linejoin:round; stroke-width:4; stroke-opacity:1; fill:none" stroke-dasharray="16, 10" points="305.946,1224.34 448.747,1224.34 "/>
<path clip-path="url(#clip530)" d="M479.955 1208.33 L479.955 1215.69 L488.728 1215.69 L488.728 1219 L479.955 1219 L479.955 1233.07 Q479.955 1236.25 480.811 1237.15 Q481.691 1238.05 484.353 1238.05 L488.728 1238.05 L488.728 1241.62 L484.353 1241.62 Q479.422 1241.62 477.547 1239.79 Q475.672 1237.94 475.672 1233.07 L475.672 1219 L472.547 1219 L472.547 1215.69 L475.672 1215.69 L475.672 1208.33 L479.955 1208.33 Z" fill="#000000" fill-rule="nonzero" fill-opacity="1" /><path clip-path="url(#clip530)" d="M509.353 1219.67 Q508.635 1219.26 507.778 1219.07 Q506.945 1218.86 505.927 1218.86 Q502.316 1218.86 500.371 1221.22 Q498.45 1223.56 498.45 1227.96 L498.45 1241.62 L494.167 1241.62 L494.167 1215.69 L498.45 1215.69 L498.45 1219.72 Q499.792 1217.36 501.945 1216.22 Q504.098 1215.07 507.177 1215.07 Q507.616 1215.07 508.149 1215.13 Q508.681 1215.18 509.329 1215.3 L509.353 1219.67 Z" fill="#000000" fill-rule="nonzero" fill-opacity="1" /><path clip-path="url(#clip530)" d="M513.38 1231.38 L513.38 1215.69 L517.64 1215.69 L517.64 1231.22 Q517.64 1234.9 519.075 1236.76 Q520.51 1238.58 523.38 1238.58 Q526.829 1238.58 528.82 1236.38 Q530.834 1234.19 530.834 1230.39 L530.834 1215.69 L535.093 1215.69 L535.093 1241.62 L530.834 1241.62 L530.834 1237.63 Q529.283 1240 527.223 1241.15 Q525.186 1242.29 522.477 1242.29 Q518.01 1242.29 515.695 1239.51 Q513.38 1236.73 513.38 1231.38 M524.098 1215.07 L524.098 1215.07 Z" fill="#000000" fill-rule="nonzero" fill-opacity="1" /><path clip-path="url(#clip530)" d="M566.042 1227.59 L566.042 1229.67 L546.459 1229.67 Q546.737 1234.07 549.098 1236.38 Q551.482 1238.68 555.718 1238.68 Q558.172 1238.68 560.463 1238.07 Q562.778 1237.47 565.047 1236.27 L565.047 1240.3 Q562.755 1241.27 560.348 1241.78 Q557.94 1242.29 555.463 1242.29 Q549.26 1242.29 545.625 1238.68 Q542.014 1235.07 542.014 1228.91 Q542.014 1222.54 545.44 1218.82 Q548.889 1215.07 554.723 1215.07 Q559.954 1215.07 562.986 1218.45 Q566.042 1221.8 566.042 1227.59 M561.783 1226.34 Q561.736 1222.84 559.815 1220.76 Q557.917 1218.68 554.769 1218.68 Q551.204 1218.68 549.051 1220.69 Q546.922 1222.7 546.598 1226.36 L561.783 1226.34 Z" fill="#000000" fill-rule="nonzero" fill-opacity="1" /><path clip-path="url(#clip530)" d="M601.227 1205.6 L601.227 1209.14 L597.153 1209.14 Q594.861 1209.14 593.959 1210.07 Q593.079 1210.99 593.079 1213.4 L593.079 1215.69 L600.093 1215.69 L600.093 1219 L593.079 1219 L593.079 1241.62 L588.797 1241.62 L588.797 1219 L584.722 1219 L584.722 1215.69 L588.797 1215.69 L588.797 1213.88 Q588.797 1209.56 590.81 1207.59 Q592.824 1205.6 597.199 1205.6 L601.227 1205.6 Z" fill="#000000" fill-rule="nonzero" fill-opacity="1" /><path clip-path="url(#clip530)" d="M604.352 1231.38 L604.352 1215.69 L608.611 1215.69 L608.611 1231.22 Q608.611 1234.9 610.046 1236.76 Q611.482 1238.58 614.352 1238.58 Q617.801 1238.58 619.792 1236.38 Q621.806 1234.19 621.806 1230.39 L621.806 1215.69 L626.065 1215.69 L626.065 1241.62 L621.806 1241.62 L621.806 1237.63 Q620.255 1240 618.195 1241.15 Q616.158 1242.29 613.449 1242.29 Q608.982 1242.29 606.667 1239.51 Q604.352 1236.73 604.352 1231.38 M615.07 1215.07 L615.07 1215.07 Z" fill="#000000" fill-rule="nonzero" fill-opacity="1" /><path clip-path="url(#clip530)" d="M656.389 1225.97 L656.389 1241.62 L652.13 1241.62 L652.13 1226.11 Q652.13 1222.43 650.694 1220.6 Q649.259 1218.77 646.389 1218.77 Q642.94 1218.77 640.949 1220.97 Q638.958 1223.17 638.958 1226.96 L638.958 1241.62 L634.676 1241.62 L634.676 1215.69 L638.958 1215.69 L638.958 1219.72 Q640.486 1217.38 642.546 1216.22 Q644.63 1215.07 647.338 1215.07 Q651.805 1215.07 654.097 1217.84 Q656.389 1220.6 656.389 1225.97 Z" fill="#000000" fill-rule="nonzero" fill-opacity="1" /><path clip-path="url(#clip530)" d="M683.541 1216.69 L683.541 1220.67 Q681.736 1219.67 679.907 1219.19 Q678.102 1218.68 676.25 1218.68 Q672.106 1218.68 669.815 1221.32 Q667.523 1223.93 667.523 1228.68 Q667.523 1233.42 669.815 1236.06 Q672.106 1238.68 676.25 1238.68 Q678.102 1238.68 679.907 1238.19 Q681.736 1237.68 683.541 1236.69 L683.541 1240.62 Q681.759 1241.45 679.838 1241.87 Q677.94 1242.29 675.787 1242.29 Q669.93 1242.29 666.481 1238.61 Q663.032 1234.93 663.032 1228.68 Q663.032 1222.33 666.504 1218.7 Q670 1215.07 676.065 1215.07 Q678.032 1215.07 679.907 1215.48 Q681.782 1215.88 683.541 1216.69 Z" fill="#000000" fill-rule="nonzero" fill-opacity="1" /><path clip-path="url(#clip530)" d="M695.162 1208.33 L695.162 1215.69 L703.935 1215.69 L703.935 1219 L695.162 1219 L695.162 1233.07 Q695.162 1236.25 696.018 1237.15 Q696.898 1238.05 699.56 1238.05 L703.935 1238.05 L703.935 1241.62 L699.56 1241.62 Q694.629 1241.62 692.754 1239.79 Q690.879 1237.94 690.879 1233.07 L690.879 1219 L687.754 1219 L687.754 1215.69 L690.879 1215.69 L690.879 1208.33 L695.162 1208.33 Z" fill="#000000" fill-rule="nonzero" fill-opacity="1" /><path clip-path="url(#clip530)" d="M709.537 1215.69 L713.796 1215.69 L713.796 1241.62 L709.537 1241.62 L709.537 1215.69 M709.537 1205.6 L713.796 1205.6 L713.796 1210.99 L709.537 1210.99 L709.537 1205.6 Z" fill="#000000" fill-rule="nonzero" fill-opacity="1" /><path clip-path="url(#clip530)" d="M732.754 1218.68 Q729.328 1218.68 727.337 1221.36 Q725.347 1224.02 725.347 1228.68 Q725.347 1233.33 727.314 1236.01 Q729.305 1238.68 732.754 1238.68 Q736.157 1238.68 738.148 1235.99 Q740.138 1233.31 740.138 1228.68 Q740.138 1224.07 738.148 1221.38 Q736.157 1218.68 732.754 1218.68 M732.754 1215.07 Q738.31 1215.07 741.481 1218.68 Q744.652 1222.29 744.652 1228.68 Q744.652 1235.04 741.481 1238.68 Q738.31 1242.29 732.754 1242.29 Q727.175 1242.29 724.004 1238.68 Q720.856 1235.04 720.856 1228.68 Q720.856 1222.29 724.004 1218.68 Q727.175 1215.07 732.754 1215.07 Z" fill="#000000" fill-rule="nonzero" fill-opacity="1" /><path clip-path="url(#clip530)" d="M773.263 1225.97 L773.263 1241.62 L769.004 1241.62 L769.004 1226.11 Q769.004 1222.43 767.569 1220.6 Q766.134 1218.77 763.263 1218.77 Q759.814 1218.77 757.823 1220.97 Q755.833 1223.17 755.833 1226.96 L755.833 1241.62 L751.55 1241.62 L751.55 1215.69 L755.833 1215.69 L755.833 1219.72 Q757.36 1217.38 759.421 1216.22 Q761.504 1215.07 764.212 1215.07 Q768.68 1215.07 770.971 1217.84 Q773.263 1220.6 773.263 1225.97 Z" fill="#000000" fill-rule="nonzero" fill-opacity="1" /><polyline clip-path="url(#clip530)" style="stroke:#0000ff; stroke-linecap:round; stroke-linejoin:round; stroke-width:12; stroke-opacity:1; fill:none" points="305.946,1276.18 448.747,1276.18 "/>
<path clip-path="url(#clip530)" d="M489.052 1257.44 L489.052 1260.98 L484.978 1260.98 Q482.686 1260.98 481.783 1261.91 Q480.904 1262.83 480.904 1265.24 L480.904 1267.53 L487.917 1267.53 L487.917 1270.84 L480.904 1270.84 L480.904 1293.46 L476.621 1293.46 L476.621 1270.84 L472.547 1270.84 L472.547 1267.53 L476.621 1267.53 L476.621 1265.72 Q476.621 1261.4 478.635 1259.43 Q480.649 1257.44 485.024 1257.44 L489.052 1257.44 Z" fill="#000000" fill-rule="nonzero" fill-opacity="1" /><path clip-path="url(#clip530)" d="M492.616 1267.53 L496.876 1267.53 L496.876 1293.46 L492.616 1293.46 L492.616 1267.53 M492.616 1257.44 L496.876 1257.44 L496.876 1262.83 L492.616 1262.83 L492.616 1257.44 Z" fill="#000000" fill-rule="nonzero" fill-opacity="1" /><path clip-path="url(#clip530)" d="M510.001 1260.17 L510.001 1267.53 L518.774 1267.53 L518.774 1270.84 L510.001 1270.84 L510.001 1284.91 Q510.001 1288.09 510.857 1288.99 Q511.737 1289.89 514.399 1289.89 L518.774 1289.89 L518.774 1293.46 L514.399 1293.46 Q509.468 1293.46 507.593 1291.63 Q505.718 1289.78 505.718 1284.91 L505.718 1270.84 L502.593 1270.84 L502.593 1267.53 L505.718 1267.53 L505.718 1260.17 L510.001 1260.17 Z" fill="#000000" fill-rule="nonzero" fill-opacity="1" /><path clip-path="url(#clip530)" d="M305.946 1348.75 L448.747 1348.75 L448.747 1307.28 L305.946 1307.28 L305.946 1348.75  Z" fill="#808080" fill-rule="evenodd" fill-opacity="0.25"/>
<polyline clip-path="url(#clip530)" style="stroke:#808080; stroke-linecap:round; stroke-linejoin:round; stroke-width:4; stroke-opacity:1; fill:none" points="305.946,1307.28 448.747,1307.28 "/>
<path clip-path="url(#clip530)" d="M489.329 1315.57 L489.329 1324.53 L502.223 1324.53 L502.223 1328.47 L489.329 1328.47 L489.329 1337.43 L485.441 1337.43 L485.441 1328.47 L472.547 1328.47 L472.547 1324.53 L485.441 1324.53 L485.441 1315.57 L489.329 1315.57 M472.547 1341.36 L502.223 1341.36 L502.223 1345.3 L472.547 1345.3 L472.547 1341.36 Z" fill="#000000" fill-rule="nonzero" fill-opacity="1" /><path clip-path="url(#clip530)" d="M531.413 1341.36 L547.732 1341.36 L547.732 1345.3 L525.788 1345.3 L525.788 1341.36 Q528.45 1338.61 533.033 1333.98 Q537.639 1329.32 538.82 1327.98 Q541.065 1325.46 541.945 1323.72 Q542.848 1321.96 542.848 1320.27 Q542.848 1317.52 540.903 1315.78 Q538.982 1314.05 535.88 1314.05 Q533.681 1314.05 531.227 1314.81 Q528.797 1315.57 526.019 1317.13 L526.019 1312.4 Q528.843 1311.27 531.297 1310.69 Q533.751 1310.11 535.788 1310.11 Q541.158 1310.11 544.352 1312.8 Q547.547 1315.48 547.547 1319.97 Q547.547 1322.1 546.737 1324.02 Q545.95 1325.92 543.843 1328.51 Q543.264 1329.19 540.163 1332.4 Q537.061 1335.6 531.413 1341.36 Z" fill="#000000" fill-rule="nonzero" fill-opacity="1" /><path clip-path="url(#clip530)" d="M566.991 1322.75 Q563.473 1322.75 561.574 1325.3 Q559.584 1327.96 559.584 1332.36 Q559.584 1337.01 561.551 1339.69 Q563.542 1342.36 566.991 1342.36 Q570.394 1342.36 572.385 1339.67 Q574.375 1336.99 574.375 1332.36 Q574.375 1328.12 572.385 1325.3 Q570.556 1322.75 566.991 1322.75 M566.991 1319.37 L581.135 1319.37 L581.135 1323.63 L576.366 1323.63 Q578.889 1327.24 578.889 1332.36 Q578.889 1338.72 575.718 1342.33 Q572.547 1345.97 566.991 1345.97 Q561.412 1345.97 558.264 1342.33 Q555.093 1338.72 555.093 1332.36 Q555.093 1325.94 558.264 1322.36 Q560.88 1319.37 566.991 1319.37 Z" fill="#000000" fill-rule="nonzero" fill-opacity="1" /></svg>
